<svg width="1000" height="990" viewBox="0 0 1000 990" fill="none" xmlns="http://www.w3.org/2000/svg">
<mask id="mask0_22_4921" style="mask-type:luminance" maskUnits="userSpaceOnUse" x="0" y="0" width="1000" height="966">
<path d="M1000 0H0V718.31H179.2C217.58 860.69 346.65 965.41 500 965.41C653.35 965.41 782.42 860.69 820.8 718.31H1000V0Z" fill="white"/>
</mask>
<g mask="url(#mask0_22_4921)">
<path d="M500.001 962.602C683.603 962.602 832.443 813.763 832.443 630.16C832.443 446.557 683.603 297.718 500.001 297.718C316.398 297.718 167.559 446.557 167.559 630.16C167.559 813.763 316.398 962.602 500.001 962.602Z" fill="#85C5E5"/>
<path d="M833.149 369C833.21 357.431 829.83 346.106 823.44 336.463C817.049 326.819 807.936 319.293 797.259 314.84C805.239 309.459 811.77 302.194 816.274 293.687C820.777 285.18 823.115 275.695 823.079 266.07C823.079 238.3 804.079 215.07 778.609 209.19C783.544 200.358 786.129 190.407 786.119 180.29C786.119 148.1 760.549 122 728.999 122C720.623 121.993 712.352 123.87 704.799 127.49C705.25 124.538 705.474 121.556 705.469 118.57C705.469 86.36 679.899 60.24 648.349 60.24C639.964 60.2513 631.687 62.1292 624.118 65.7373C616.549 69.3454 609.878 74.5932 604.589 81.1C602.979 50.36 578.059 25.93 547.589 25.93C537.318 25.9638 527.248 28.777 518.447 34.0711C509.646 39.3651 502.442 46.9427 497.599 56C492.753 46.9433 485.547 39.3666 476.744 34.0727C467.942 28.7789 457.871 25.9653 447.599 25.93C417.099 25.93 392.179 50.36 390.599 81.1C385.307 74.594 378.635 69.3469 371.064 65.739C363.494 62.131 355.215 60.2527 346.829 60.24C315.299 60.24 289.719 86.35 289.719 118.57C289.716 121.556 289.936 124.537 290.379 127.49C282.836 123.87 274.576 121.994 266.209 122C234.669 122 209.089 148.12 209.089 180.33C209.073 190.448 211.659 200.4 216.599 209.23C191.149 215.11 172.139 238.34 172.139 266.11C172.111 275.735 174.456 285.219 178.967 293.722C183.477 302.225 190.014 309.485 197.999 314.86C187.455 319.326 178.443 326.772 172.069 336.285C165.696 345.798 162.236 356.965 162.117 368.415C161.997 379.865 165.221 391.102 171.394 400.746C177.567 410.391 186.421 418.024 196.869 422.71C187.409 433.494 182.216 447.364 182.269 461.71C182.269 490.22 202.319 513.96 228.809 519.04C217.299 529.35 774.169 529.97 762.989 519.59C791.189 516.02 812.989 491.48 812.989 461.72C813.034 447.374 807.838 433.506 798.379 422.72C808.774 418.121 817.6 410.588 823.777 401.046C829.953 391.504 833.21 380.367 833.149 369ZM270.809 513.54C269.879 513.02 268.919 512.54 267.959 512.13C268.929 511.56 270.809 513.54 270.809 513.54Z" fill="#FEDC58"/>
<path d="M469.999 505.43C462.758 512.042 453.765 516.426 444.096 518.058C434.427 519.69 424.493 518.499 415.483 514.63C406.473 510.76 398.77 504.375 393.296 496.24C387.822 488.105 384.81 478.564 384.619 468.76C375.479 471.688 365.698 471.982 356.398 469.609C347.098 467.236 338.655 462.292 332.034 455.343C325.414 448.394 320.884 439.72 318.965 430.316C317.045 420.913 317.812 411.158 321.179 402.17C311.343 401.511 301.907 398.025 294.005 392.131C286.102 386.237 280.07 378.187 276.634 368.948C273.197 359.708 272.501 349.673 274.631 340.048C276.761 330.422 281.625 321.617 288.639 314.69C279.561 310.758 271.813 304.287 266.328 296.054C260.842 287.822 257.853 278.179 257.72 268.288C257.587 258.396 260.315 248.676 265.577 240.299C270.839 231.922 278.41 225.244 287.379 221.07C281.164 213.551 277.216 204.42 275.996 194.742C274.776 185.064 276.334 175.239 280.488 166.413C284.642 157.587 291.221 150.125 299.456 144.897C307.692 139.67 317.244 136.892 326.999 136.89H327.159C325.288 129.302 325.167 121.387 326.805 113.746C328.443 106.104 331.797 98.9343 336.614 92.7796C341.431 86.6248 347.584 81.6459 354.608 78.2192C361.632 74.7925 369.344 73.0077 377.159 73C379.05 73.0023 380.939 73.1057 382.819 73.31C372.725 64.8602 359.983 60.2269 346.819 60.22C315.279 60.22 289.709 86.33 289.709 118.55C289.706 121.536 289.926 124.517 290.369 127.47C282.828 123.858 274.571 121.989 266.209 122C234.669 122 209.089 148.12 209.089 180.33C209.073 190.448 211.659 200.4 216.599 209.23C191.149 215.11 172.139 238.34 172.139 266.11C172.111 275.735 174.456 285.219 178.967 293.722C183.477 302.225 190.014 309.485 197.999 314.86C187.455 319.326 178.443 326.772 172.069 336.285C165.696 345.798 162.236 356.965 162.117 368.415C161.997 379.865 165.221 391.102 171.394 400.746C177.567 410.391 186.421 418.024 196.869 422.71C187.409 433.494 182.216 447.364 182.269 461.71C182.269 490.22 202.319 513.96 228.809 519.04C223.199 524.04 352.619 526.79 485.469 527.04C478.498 521.326 473.161 513.871 469.999 505.43Z" fill="#EDBF2E"/>
<path d="M741.199 386L706.199 464.16L745.669 522.77C757.909 521.86 764.279 520.77 762.979 519.6C791.179 516.03 812.979 491.49 812.979 461.73C812.972 458.48 812.705 455.237 812.179 452.03C792.179 391.39 741.199 386 741.199 386Z" fill="#EDBF2E"/>
<path d="M833.149 369C833.21 357.431 829.83 346.106 823.44 336.463C817.049 326.819 807.936 319.293 797.259 314.84C805.239 309.459 811.77 302.194 816.274 293.687C820.777 285.18 823.115 275.695 823.079 266.07C823.079 238.3 804.079 215.07 778.609 209.19C783.544 200.358 786.129 190.407 786.119 180.29C786.119 148.1 760.549 122 728.999 122C720.623 121.993 712.352 123.87 704.799 127.49C705.25 124.538 705.474 121.556 705.469 118.57C705.469 86.36 679.899 60.24 648.349 60.24C639.964 60.2513 631.687 62.1292 624.118 65.7373C616.549 69.3454 609.878 74.5932 604.589 81.1C602.979 50.36 578.059 25.93 547.589 25.93C537.318 25.9638 527.248 28.777 518.447 34.0711C509.646 39.3651 502.442 46.9427 497.599 56C492.753 46.9433 485.547 39.3666 476.744 34.0727C467.942 28.7789 457.871 25.9653 447.599 25.93C417.099 25.93 392.179 50.36 390.599 81.1C385.307 74.594 378.635 69.3469 371.064 65.739C363.494 62.131 355.215 60.2527 346.829 60.24C315.299 60.24 289.719 86.35 289.719 118.57C289.716 121.556 289.936 124.537 290.379 127.49C282.836 123.87 274.576 121.994 266.209 122C234.669 122 209.089 148.12 209.089 180.33C209.073 190.448 211.659 200.4 216.599 209.23C191.149 215.11 172.139 238.34 172.139 266.11C172.111 275.735 174.456 285.219 178.967 293.722C183.477 302.225 190.014 309.485 197.999 314.86C187.455 319.326 178.443 326.772 172.069 336.285C165.696 345.798 162.236 356.965 162.117 368.415C161.997 379.865 165.221 391.102 171.394 400.746C177.567 410.391 186.421 418.024 196.869 422.71C187.409 433.494 182.216 447.364 182.269 461.71C182.269 490.22 202.319 513.96 228.809 519.04C217.299 529.35 774.169 529.97 762.989 519.59C791.189 516.02 812.989 491.48 812.989 461.72C813.034 447.374 807.838 433.506 798.379 422.72C808.774 418.121 817.6 410.588 823.777 401.046C829.953 391.504 833.21 380.367 833.149 369Z" stroke="#592D3D" stroke-width="12" stroke-miterlimit="10"/>
<path d="M610 758.72C700.76 758.72 682 872.96 682.87 1000H610V758.72Z" fill="#CC734C"/>
<path d="M632.74 831.87L610 870L621.38 1000H653.14C653.91 819.73 632.74 831.87 632.74 831.87Z" fill="#B56241"/>
<path d="M233.25 500C233.25 352.68 352.68 233.25 500 233.25C647.32 233.25 766.75 352.68 766.75 500C766.788 539.694 757.949 578.895 740.88 614.731C723.811 650.568 698.945 682.135 668.1 707.12C662.627 711.573 656.98 715.803 651.16 719.81C591 758 515 758 446.39 751.89C439.73 750.89 433.09 749.63 426.5 748.18C400.17 742.38 374.68 733.43 351.13 720.38C345.31 716.793 339.667 712.92 334.2 708.76C328.706 704.576 323.432 700.11 318.4 695.38C313.64 690.96 309.044 686.367 304.61 681.6C258.667 632.299 233.161 567.39 233.25 500Z" fill="#CC734C"/>
<path d="M269.612 634.48C270.312 635.68 271.002 636.88 271.722 638.06C272.152 638.78 272.602 639.48 273.052 640.2C273.712 641.27 274.372 642.34 275.052 643.39C275.532 644.15 276.052 644.89 276.512 645.63C277.172 646.63 277.832 647.63 278.512 648.63C279.022 649.39 279.512 650.15 280.072 650.91C280.732 651.91 281.392 652.83 282.072 653.79C282.612 654.56 283.172 655.32 283.722 656.09C284.272 656.86 285.062 657.94 285.722 658.86C286.382 659.78 286.872 660.39 287.452 661.15C288.032 661.91 288.822 662.95 289.522 663.85C290.222 664.75 290.712 665.36 291.312 666.11C291.912 666.86 292.722 667.87 293.432 668.74C294.142 669.61 294.662 670.23 295.282 670.97C295.902 671.71 296.722 672.69 297.452 673.54C298.182 674.39 298.722 675.01 299.362 675.74L301.582 678.24C302.232 678.97 302.892 679.68 303.582 680.4C304.442 681.34 305.312 682.27 306.182 683.19L307.392 684.47C308.682 685.81 309.982 687.15 311.302 688.47L311.562 688.74C312.852 690.02 314.162 691.29 315.472 692.55L317.052 694.05C318.002 694.94 318.952 695.83 319.912 696.71L321.072 697.77C322.072 698.71 323.162 699.63 324.212 700.55C327.478 703.397 330.812 706.127 334.212 708.74C339.672 712.9 345.315 716.773 351.142 720.36C374.692 733.36 400.142 742.36 426.512 748.16C433.102 749.61 439.742 750.86 446.402 751.87C488.502 755.62 533.402 757.05 575.682 748.79C508.452 729 185.592 612.74 388.802 257.48C386.082 258.73 383.402 260.02 380.742 261.36L380.152 261.65C378.932 262.26 377.712 262.89 376.502 263.53L375.502 264.06C371.742 266.06 368.022 268.13 364.372 270.29L363.472 270.82C362.312 271.51 361.162 272.21 360.012 272.92L359.142 273.46C355.568 275.693 352.052 278.003 348.592 280.39L347.512 281.14C346.422 281.9 345.352 282.66 344.282 283.43L343.622 283.9C341.442 285.493 339.288 287.107 337.162 288.74L336.542 289.22C335.542 290 334.542 290.8 333.542 291.61L332.372 292.55C331.372 293.36 330.372 294.17 329.372 295C327.262 296.75 325.182 298.55 323.132 300.37L321.992 301.37L319.302 303.82L318.002 305C315.148 307.667 312.358 310.39 309.632 313.17L308.252 314.58C307.462 315.4 306.672 316.22 305.892 317.05C305.432 317.54 304.972 318.05 304.522 318.53C303.148 319.997 301.795 321.483 300.462 322.99C300.012 323.5 299.552 323.99 299.102 324.53C298.392 325.34 297.692 326.16 296.992 326.98L295.482 328.77C294.802 329.58 294.122 330.39 293.482 331.21C292.942 331.87 292.402 332.54 291.872 333.21C290.802 334.54 289.752 335.87 288.712 337.21C288.172 337.91 287.632 338.61 287.102 339.32C286.572 340.03 285.902 340.91 285.312 341.72C284.722 342.53 284.242 343.17 283.722 343.9C283.202 344.63 282.592 345.45 282.042 346.23C281.095 347.563 280.162 348.913 279.242 350.28C278.742 351.01 278.242 351.76 277.752 352.5C277.262 353.24 276.652 354.16 276.112 355L274.622 357.31L272.942 360.02C272.512 360.71 272.082 361.4 271.662 362.09C270.772 363.55 269.912 365.02 269.052 366.49L267.832 368.65C267.292 369.6 266.752 370.56 266.222 371.52C265.822 372.25 265.422 372.98 265.032 373.71C264.392 374.9 263.762 376.1 263.132 377.3L261.932 379.64C261.292 380.92 260.652 382.19 260.022 383.48C259.692 384.17 259.352 384.87 259.022 385.57C258.502 386.66 258.022 387.76 257.492 388.86C257.182 389.52 256.882 390.18 256.582 390.86C255.842 392.507 255.118 394.173 254.412 395.86C254.192 396.38 253.982 396.91 253.762 397.43C253.232 398.7 252.712 399.97 252.202 401.25C251.932 401.92 251.672 402.59 251.412 403.25C250.912 404.51 250.412 405.78 249.962 407.05C249.752 407.6 249.542 408.15 249.342 408.7C248.715 410.453 248.098 412.207 247.492 413.96L246.932 415.66C246.492 416.993 246.062 418.327 245.642 419.66L245.042 421.57C244.572 423.11 244.112 424.65 243.672 426.2C243.572 426.53 243.472 426.86 243.382 427.2C242.862 429.04 242.362 430.887 241.882 432.74C241.722 433.33 241.582 433.93 241.432 434.52C241.082 435.91 240.742 437.3 240.432 438.7L240.012 440.45C239.582 442.35 239.162 444.25 238.772 446.16L238.622 446.93C238.282 448.63 237.948 450.33 237.622 452.03C237.512 452.64 237.412 453.24 237.302 453.85C237.042 455.34 236.792 456.85 236.562 458.35C236.482 458.86 236.392 459.35 236.322 459.87C236.022 461.82 235.752 463.78 235.492 465.75L235.342 467.05C235.142 468.64 234.962 470.24 234.792 471.84C234.732 472.44 234.662 473.04 234.602 473.65C234.442 475.33 234.292 477.02 234.152 478.71C234.152 479.06 234.092 479.4 234.072 479.71C233.925 481.71 233.795 483.727 233.682 485.76C233.682 486.29 233.682 486.83 233.612 487.36C233.545 488.933 233.485 490.503 233.432 492.07C233.432 492.66 233.432 493.25 233.432 493.84C233.432 495.89 233.352 497.95 233.352 500.01C233.352 500.01 233.352 500.08 233.352 500.11C233.352 502.33 233.352 504.53 233.432 506.73C233.432 507.49 233.492 508.25 233.512 509.01C233.562 510.48 233.612 511.95 233.682 513.42C233.682 514.31 233.792 515.19 233.842 516.08C233.922 517.41 233.992 518.74 234.092 520.08C234.162 521.08 234.252 521.97 234.332 522.91C234.442 524.17 234.542 525.43 234.672 526.68C234.762 527.68 234.882 528.62 234.982 529.59C235.122 530.8 235.252 532.02 235.402 533.23C235.522 534.23 235.662 535.23 235.792 536.18C235.952 537.36 236.112 538.55 236.292 539.73C236.442 540.73 236.602 541.73 236.762 542.73C236.942 543.89 237.132 545.06 237.332 546.22C237.512 547.22 237.692 548.22 237.882 549.22C238.092 550.37 238.312 551.52 238.532 552.66C238.752 553.8 238.942 554.66 239.152 555.66C239.392 556.8 239.632 557.93 239.892 559.06C240.152 560.19 240.332 561.06 240.572 561.99C240.832 563.12 241.112 564.24 241.392 565.35C241.672 566.46 241.882 567.3 242.132 568.26C242.432 569.38 242.732 570.49 243.042 571.6C243.302 572.6 243.572 573.52 243.852 574.47C244.172 575.58 244.502 576.68 244.852 577.78C245.202 578.88 245.432 579.67 245.732 580.62C246.032 581.57 246.432 582.81 246.792 583.9C247.152 584.99 247.412 585.77 247.732 586.7C248.112 587.79 248.492 588.88 248.882 589.97C249.212 590.88 249.532 591.8 249.882 592.71L251.122 595.98C251.472 596.87 251.812 597.77 252.122 598.66C252.562 599.75 253.012 600.85 253.462 601.94C253.822 602.8 254.172 603.67 254.542 604.53C255.012 605.65 255.542 606.75 255.992 607.86C256.362 608.68 256.722 609.51 257.092 610.33C257.612 611.49 258.162 612.63 258.692 613.77L259.772 616.07C260.382 617.33 261.012 618.57 261.642 619.82C261.962 620.45 262.262 621.09 262.592 621.72C264.512 625.46 266.512 629.15 268.592 632.79C268.882 633.26 269.252 633.87 269.612 634.48Z" fill="#B56241"/>
<path d="M233.25 500C233.25 352.68 352.68 233.25 500 233.25C647.32 233.25 766.75 352.68 766.75 500C766.788 539.694 757.949 578.895 740.88 614.731C723.811 650.568 698.945 682.135 668.1 707.12C662.627 711.573 656.98 715.803 651.16 719.81C591 758 515 758 446.39 751.89C439.73 750.89 433.09 749.63 426.5 748.18C400.17 742.38 374.68 733.43 351.13 720.38C345.31 716.793 339.667 712.92 334.2 708.76C328.706 704.576 323.432 700.11 318.4 695.38C313.64 690.96 309.044 686.367 304.61 681.6C258.667 632.299 233.161 567.39 233.25 500Z" stroke="#592D3D" stroke-width="12" stroke-miterlimit="10"/>
<path d="M386.118 758.72C295.348 758.72 314.118 872.96 313.248 1000H386.118V758.72Z" fill="#CC734C"/>
<path d="M367.228 831.87L389.998 870L378.608 1000H346.878C346.068 819.73 367.228 831.87 367.228 831.87Z" fill="#B56241"/>
<path d="M619.472 1070H380.532C377.011 1070 373.636 1068.6 371.148 1066.11C368.659 1063.62 367.262 1060.24 367.262 1056.72V772C367.262 768.48 368.659 765.103 371.148 762.613C373.636 760.123 377.011 758.723 380.532 758.72H613.762C626.852 758.72 632.762 766.38 632.762 778.6V1056.68C632.767 1058.43 632.427 1060.16 631.761 1061.78C631.096 1063.39 630.117 1064.86 628.883 1066.1C627.648 1067.34 626.181 1068.32 624.566 1068.99C622.951 1069.66 621.22 1070 619.472 1070Z" fill="#CC734C"/>
<path d="M629.052 766.62C628.055 765.394 627.212 764.051 626.542 762.62C624.141 760.738 621.284 759.527 618.262 759.11C616.773 758.879 615.268 758.766 613.762 758.77H380.532C377.02 758.773 373.652 760.166 371.165 762.645C368.679 765.125 367.275 768.488 367.262 772C396.262 782.42 450.552 788.24 500.002 788.24C563.062 788.24 604.382 778.89 629.052 766.62Z" fill="#B56241"/>
<path d="M610 758.72C700.76 758.72 682 872.96 682.87 1000H632.74" stroke="#592D3D" stroke-width="12" stroke-miterlimit="10" stroke-linecap="square"/>
<path d="M386.118 758.72C295.348 758.72 314.118 872.96 313.248 1000H363.318" stroke="#592D3D" stroke-width="12" stroke-miterlimit="10" stroke-linecap="square"/>
<path d="M380.531 758.82L613.761 758.72" stroke="#592D3D" stroke-width="12" stroke-miterlimit="10"/>
<path d="M380.532 1070H497.152C388.002 1070 396.242 838.82 367.262 838.82V1056.68C367.257 1058.43 367.596 1060.16 368.26 1061.77C368.925 1063.39 369.901 1064.86 371.134 1066.09C372.366 1067.33 373.831 1068.31 375.444 1068.98C377.056 1069.65 378.785 1070 380.532 1070Z" fill="#B56241"/>
<path d="M361.259 860.85C361.069 857.18 361.149 853.51 361.309 849.85C361.469 846.19 361.779 842.5 362.169 838.85C362.369 837.01 362.569 835.18 362.819 833.34C363.069 831.5 363.309 829.67 363.669 827.83C364.378 824.022 365.585 820.323 367.259 816.83C368.933 820.323 370.14 824.022 370.849 827.83C371.209 829.67 371.469 831.5 371.699 833.34C371.929 835.18 372.149 837.01 372.349 838.85C372.729 842.52 373.029 846.19 373.199 849.85C373.369 853.51 373.449 857.19 373.259 860.85H361.259Z" fill="#592D3D"/>
<path d="M632.742 870V878C633.002 912 633.002 947 632.742 980.75C632.742 983.62 632.742 986.47 632.742 989.28V1056.69C632.746 1058.44 632.405 1060.16 631.74 1061.78C631.075 1063.39 630.099 1064.86 628.866 1066.1C627.634 1067.33 626.17 1068.31 624.558 1068.98C622.946 1069.65 621.217 1070 619.472 1070H380.532C377.011 1070 373.636 1068.6 371.148 1066.11C368.659 1063.62 367.262 1060.24 367.262 1056.72V998.52C367.262 996.01 367.262 993.45 367.262 990.87C367.012 956 367.012 921 367.262 885.57V860.85" stroke="#592D3D" stroke-width="12" stroke-miterlimit="10"/>
<path d="M626.74 870C626.55 865.83 626.64 861.65 626.8 857.47C626.96 853.29 627.27 849.12 627.65 844.94C627.85 842.85 628.06 840.76 628.3 838.67C628.54 836.58 628.79 834.5 629.15 832.41C629.847 828.106 631.052 823.9 632.74 819.88C634.428 823.9 635.633 828.106 636.33 832.41C636.69 834.5 636.95 836.59 637.18 838.67C637.41 840.75 637.63 842.85 637.83 844.94C638.21 849.12 638.52 853.29 638.68 857.47C638.84 861.65 638.93 865.83 638.74 870H626.74Z" fill="#592D3D"/>
<path d="M570.68 842.45C570.9 833 582.9 829 588.9 835C589.875 835.995 590.644 837.173 591.164 838.466C591.684 839.759 591.944 841.141 591.93 842.535C591.915 843.928 591.627 845.305 591.08 846.587C590.534 847.868 589.74 849.03 588.745 850.005C587.749 850.98 586.572 851.75 585.279 852.269C583.986 852.789 582.603 853.05 581.21 853.035C579.817 853.021 578.44 852.732 577.158 852.186C575.876 851.639 574.715 850.845 573.74 849.85C572.766 848.88 571.994 847.726 571.469 846.456C570.944 845.186 570.675 843.824 570.68 842.45Z" fill="#592D3D"/>
<path d="M408.109 842.15C407.899 834 416.899 830 422.899 833C430.899 836 430.899 847 422.899 852C418.899 854 414.899 852 411.149 849.52C410.182 848.552 409.416 847.403 408.894 846.138C408.372 844.873 408.106 843.518 408.109 842.15Z" fill="#592D3D"/>
<path d="M500 831.77C500.715 833.655 501.218 835.614 501.5 837.61C501.797 839.543 501.961 841.494 501.99 843.45L502.29 855.14C502.38 859.03 502.5 862.93 502.54 866.83L502.71 878.5C502.94 894.07 502.93 909.66 502.99 925.24C503.05 940.82 503.17 956.4 502.99 971.98C502.9 979.77 502.69 987.56 502.46 995.35C502.36 999.24 502.17 1003.14 501.79 1007.03C501.45 1010.96 500.859 1014.87 500.02 1018.72C499.181 1014.87 498.59 1010.96 498.25 1007.03C497.87 1003.14 497.68 999.24 497.58 995.35C497.35 987.56 497.14 979.77 497.05 971.98C496.85 956.4 497.05 940.82 497.05 925.24C497.05 909.66 497.05 894.09 497.23 878.51L497.4 866.81L497.73 855.13L498.06 843.45C498.097 841.494 498.264 839.543 498.56 837.61C498.822 835.616 499.305 833.657 500 831.77Z" fill="#B56241"/>
<path d="M425.219 883C426.702 882.295 428.272 881.791 429.889 881.5C431.433 881.21 432.998 881.043 434.569 881L443.919 880.67L462.619 880.26C475.079 880.07 487.529 880.02 499.999 879.99C512.469 879.96 524.929 879.83 537.389 879.99C543.619 880.08 549.849 880.29 556.089 880.52C559.199 880.63 562.319 880.82 565.429 881.19C568.587 881.54 571.713 882.135 574.779 882.97C571.715 883.81 568.588 884.402 565.429 884.74C562.319 885.12 559.199 885.31 556.089 885.41C549.849 885.64 543.619 885.84 537.389 885.93C524.929 886.12 512.469 885.93 499.999 885.93C487.529 885.93 475.069 885.93 462.599 885.78C456.369 885.72 450.139 885.52 443.919 885.28L434.569 884.94C433.001 884.898 431.44 884.731 429.899 884.44C428.282 884.17 426.708 883.686 425.219 883Z" fill="#B56241"/>
<path d="M442.41 914.38C443.591 913.817 444.853 913.442 446.15 913.27C447.349 913.101 448.561 913.05 449.77 913.12C452.16 913.22 454.55 913.28 456.94 913.33C461.72 913.44 466.5 913.48 471.28 913.5C480.91 913.5 490.37 913.58 500.04 913.29C509.71 913 519.3 912.86 528.92 912.9C533.73 912.9 538.54 913.03 543.34 913.14C545.757 913.172 548.17 913.329 550.57 913.61C553.037 913.882 555.472 914.395 557.84 915.14C555.528 916.048 553.129 916.718 550.68 917.14C548.296 917.569 545.888 917.857 543.47 918C538.65 918.35 533.83 918.65 529.02 918.82C519.38 919.18 509.75 919.14 500.14 919.27C495.33 919.27 490.53 919.49 485.66 919.37C480.79 919.25 475.97 919.24 471.14 919.06C466.31 918.88 461.46 918.48 456.64 917.98C454.22 917.71 451.82 917.41 449.41 917.08C448.193 916.931 446.996 916.649 445.84 916.24C444.599 915.82 443.439 915.191 442.41 914.38Z" fill="#B56241"/>
<path d="M438.93 949.87C440.116 949.172 441.405 948.666 442.75 948.37C444.003 948.079 445.283 947.914 446.57 947.88L454.2 947.56C459.29 947.38 464.39 947.23 469.48 947.15C479.66 947 489.84 947 500 947C510.16 947 520.36 946.83 530.54 947C535.63 947.09 540.72 947.3 545.81 947.53C548.363 947.616 550.91 947.836 553.44 948.19C556.045 948.547 558.61 949.154 561.1 950C558.618 950.831 556.063 951.423 553.47 951.77C550.937 952.132 548.387 952.356 545.83 952.44C540.74 952.67 535.65 952.88 530.56 952.97C520.38 953.17 510.19 953.03 500.01 952.97C489.83 952.91 479.65 952.91 469.47 952.72C464.38 952.62 459.28 952.44 454.19 952.23L446.56 951.86C445.273 951.821 443.993 951.653 442.74 951.36C441.398 951.07 440.112 950.567 438.93 949.87Z" fill="#B56241"/>
<path opacity="0.15" d="M664.05 702.32C692.36 679.32 718.46 647.6 734.73 616.22C734.67 616.12 731.24 619.6 731.18 619.5C731.12 619.4 710.11 638.28 649.66 638C573.36 637.69 589.12 616.32 497.15 616.32C415.73 616.32 428.66 628.21 352 632.47C289.91 635.92 268.38 619.47 268.38 619.47L268.18 619.8C279.042 640.719 292.686 660.071 308.74 677.33C313.06 681.98 317.6 686.51 322.22 690.81C327.107 695.407 332.231 699.746 337.57 703.81C342.75 707.76 348.24 711.53 353.9 715.02C375.61 727.02 400.38 736.16 427.53 742.15C434.02 743.58 440.53 744.79 446.84 745.75C512.65 751.6 587.92 752.45 647.58 714.63C653.21 710.78 658.75 706.63 664.05 702.32Z" fill="black"/>
<path d="M311.508 663.32C313.817 663.32 315.688 661.449 315.688 659.14C315.688 656.831 313.817 654.96 311.508 654.96C309.2 654.96 307.328 656.831 307.328 659.14C307.328 661.449 309.2 663.32 311.508 663.32Z" fill="#592D3D"/>
<path d="M338.511 666.28C340.146 666.28 341.471 664.955 341.471 663.32C341.471 661.685 340.146 660.36 338.511 660.36C336.876 660.36 335.551 661.685 335.551 663.32C335.551 664.955 336.876 666.28 338.511 666.28Z" fill="#592D3D"/>
<path d="M401.05 710.94C402.685 710.94 404.01 709.615 404.01 707.98C404.01 706.345 402.685 705.02 401.05 705.02C399.415 705.02 398.09 706.345 398.09 707.98C398.09 709.615 399.415 710.94 401.05 710.94Z" fill="#592D3D"/>
<path d="M506.831 714.27C508.466 714.27 509.791 712.945 509.791 711.31C509.791 709.675 508.466 708.35 506.831 708.35C505.196 708.35 503.871 709.675 503.871 711.31C503.871 712.945 505.196 714.27 506.831 714.27Z" fill="#592D3D"/>
<path d="M517.632 707.46C519.267 707.46 520.592 706.135 520.592 704.5C520.592 702.865 519.267 701.54 517.632 701.54C515.997 701.54 514.672 702.865 514.672 704.5C514.672 706.135 515.997 707.46 517.632 707.46Z" fill="#592D3D"/>
<path d="M578.331 704.5C579.966 704.5 581.291 703.175 581.291 701.54C581.291 699.905 579.966 698.58 578.331 698.58C576.696 698.58 575.371 699.905 575.371 701.54C575.371 703.175 576.696 704.5 578.331 704.5Z" fill="#592D3D"/>
<path d="M581.288 686.11C582.923 686.11 584.248 684.785 584.248 683.15C584.248 681.515 582.923 680.19 581.288 680.19C579.653 680.19 578.328 681.515 578.328 683.15C578.328 684.785 579.653 686.11 581.288 686.11Z" fill="#592D3D"/>
<path d="M391.69 696.09C394.656 696.09 397.06 693.686 397.06 690.72C397.06 687.754 394.656 685.35 391.69 685.35C388.725 685.35 386.32 687.754 386.32 690.72C386.32 693.686 388.725 696.09 391.69 696.09Z" fill="#592D3D"/>
<path d="M600.442 709.54C601.596 709.54 602.532 708.604 602.532 707.45C602.532 706.296 601.596 705.36 600.442 705.36C599.287 705.36 598.352 706.296 598.352 707.45C598.352 708.604 599.287 709.54 600.442 709.54Z" fill="#592D3D"/>
<path d="M642.961 700.26C645.27 700.26 647.141 698.389 647.141 696.08C647.141 693.771 645.27 691.9 642.961 691.9C640.653 691.9 638.781 693.771 638.781 696.08C638.781 698.389 640.653 700.26 642.961 700.26Z" fill="#592D3D"/>
<path d="M462.559 728.22C464.867 728.22 466.739 726.349 466.739 724.04C466.739 721.731 464.867 719.86 462.559 719.86C460.25 719.86 458.379 721.731 458.379 724.04C458.379 726.349 460.25 728.22 462.559 728.22Z" fill="#592D3D"/>
<path d="M642.96 666.18C644.595 666.18 645.92 664.855 645.92 663.22C645.92 661.585 644.595 660.26 642.96 660.26C641.325 660.26 640 661.585 640 663.22C640 664.855 641.325 666.18 642.96 666.18Z" fill="#592D3D"/>
<path d="M654.05 676.02C655.685 676.02 657.01 674.695 657.01 673.06C657.01 671.425 655.685 670.1 654.05 670.1C652.415 670.1 651.09 671.425 651.09 673.06C651.09 674.695 652.415 676.02 654.05 676.02Z" fill="#592D3D"/>
<path d="M271.401 568.53C270.401 540.17 289.401 516.17 314.681 504.97C317.336 503.883 320.062 502.981 322.841 502.27C336.856 498.806 351.599 499.759 365.051 505C368.12 506.18 371.103 507.57 373.981 509.16C403.511 525.05 416.771 562.41 405.341 592.62C404.183 595.666 402.785 598.615 401.161 601.44C397.173 609.748 391.15 616.913 383.651 622.27C381.149 624.111 378.527 625.781 375.801 627.27C348.421 640.27 311.421 636.27 289.351 615.87C287.141 613.527 285.099 611.031 283.241 608.4C281.118 605.397 279.255 602.219 277.671 598.9C274.318 592.095 272.389 584.677 272.001 577.1C271.639 574.257 271.439 571.396 271.401 568.53Z" fill="#B56241"/>
<path d="M269.768 550.18C268.768 521.82 287.768 497.82 313.048 486.62C315.699 485.533 318.423 484.631 321.198 483.92C335.211 480.438 349.958 481.374 363.418 486.6C366.484 487.78 369.464 489.17 372.338 490.76C401.868 506.65 415.128 544.02 403.698 574.22C402.548 577.269 401.15 580.219 399.518 583.04C398.136 585.749 396.562 588.356 394.808 590.84C393.08 593.302 391.182 595.641 389.128 597.84C386.908 600.037 384.529 602.066 382.008 603.91C379.508 605.753 376.885 607.424 374.158 608.91C346.778 621.91 309.778 617.91 287.718 597.52C285.508 595.174 283.466 592.674 281.608 590.04C279.483 587.037 277.616 583.859 276.028 580.54C272.666 573.761 270.723 566.366 270.318 558.81C269.96 555.947 269.777 553.065 269.768 550.18Z" fill="white"/>
<path d="M338.51 554.03C345.27 554.03 350.75 548.55 350.75 541.79C350.75 535.03 345.27 529.55 338.51 529.55C331.75 529.55 326.27 535.03 326.27 541.79C326.27 548.55 331.75 554.03 338.51 554.03Z" fill="#592D3D"/>
<path d="M399.52 583C401.152 580.179 402.55 577.229 403.7 574.18C404.763 571.366 405.622 568.478 406.27 565.54C337.95 557.79 279.27 586.35 279.27 586.35L280.37 588.1C280.78 588.72 281.19 589.34 281.62 589.94C283.477 592.574 285.519 595.074 287.73 597.42C309.79 617.78 346.79 621.78 374.17 608.81C376.897 607.324 379.519 605.653 382.02 603.81C384.54 601.966 386.92 599.937 389.14 597.74C391.193 595.541 393.091 593.202 394.82 590.74C396.567 588.274 398.138 585.688 399.52 583Z" fill="#CC734C" stroke="#592D3D" stroke-width="6" stroke-miterlimit="10"/>
<path d="M269.768 550.18C268.768 521.82 287.768 497.82 313.048 486.62C315.699 485.533 318.423 484.631 321.198 483.92C335.211 480.438 349.958 481.374 363.418 486.6C366.484 487.78 369.464 489.17 372.338 490.76C401.868 506.65 415.128 544.02 403.698 574.22C402.548 577.269 401.15 580.219 399.518 583.04C398.136 585.749 396.562 588.356 394.808 590.84C393.08 593.302 391.182 595.641 389.128 597.84C386.908 600.037 384.529 602.066 382.008 603.91C379.508 605.753 376.885 607.424 374.158 608.91C346.778 621.91 309.778 617.91 287.718 597.52C285.508 595.174 283.466 592.674 281.608 590.04C279.483 587.037 277.616 583.859 276.028 580.54C272.666 573.761 270.723 566.366 270.318 558.81C269.96 555.947 269.777 553.065 269.768 550.18Z" stroke="#592D3D" stroke-width="12" stroke-miterlimit="10"/>
<path d="M583.89 560.47C584.32 545.34 590.56 530.38 598.99 519.14C601.143 516.12 603.523 513.268 606.11 510.61C617.61 498.622 633.013 491.133 649.543 489.492C666.074 487.852 682.648 492.166 696.28 501.66C698.552 503.245 700.732 504.958 702.81 506.79C729.81 528.24 732.93 569.93 718.13 600.02C716.692 602.411 715.096 604.703 713.35 606.88C711.037 609.781 708.503 612.499 705.77 615.01C685.5 632.84 653.96 637.14 628.36 627.43C624.713 626.054 621.185 624.382 617.81 622.43C599.91 611.65 587.44 591.34 584.38 570.2C583.966 566.974 583.802 563.721 583.89 560.47Z" fill="#CC734C"/>
<path d="M589.378 549C589.798 534.85 595.798 520.85 603.898 510.34C605.982 507.506 608.275 504.832 610.758 502.34C622.009 491.101 636.817 484.123 652.647 482.602C668.477 481.08 684.343 485.11 697.528 494C699.71 495.477 701.807 497.076 703.808 498.79C729.808 518.86 732.808 557.86 718.548 586.01C717.167 588.255 715.63 590.4 713.948 592.43C711.716 595.146 709.279 597.686 706.658 600.03C687.148 616.71 656.798 620.74 632.168 611.65C628.655 610.346 625.253 608.758 621.998 606.9C604.778 596.82 592.778 577.82 589.828 558.05C589.436 555.05 589.285 552.024 589.378 549Z" fill="white" stroke="#592D3D" stroke-width="12" stroke-miterlimit="10"/>
<path d="M659.209 563.03C665.969 563.03 671.449 557.55 671.449 550.79C671.449 544.03 665.969 538.55 659.209 538.55C652.449 538.55 646.969 544.03 646.969 550.79C646.969 557.55 652.449 563.03 659.209 563.03Z" fill="#592D3D"/>
<path d="M718.862 618.11C708.632 623.11 698.542 627.66 687.522 630.8C682.141 632.372 676.633 633.476 671.062 634.1C665.177 634.57 659.269 634.67 653.372 634.4C646.545 634.243 639.738 633.602 633.002 632.48C631.072 632.17 628.872 632.99 628.382 635.1C627.972 636.91 628.932 639.38 631.002 639.72C637.507 640.814 644.072 641.515 650.662 641.82C653.852 641.95 657.032 641.88 660.222 641.98C663.243 642.085 666.269 642.015 669.282 641.77C681.282 640.77 692.902 637.49 704.042 633.01C710.362 630.46 716.562 627.61 722.672 624.59C723.526 624.084 724.145 623.261 724.396 622.3C724.647 621.34 724.509 620.319 724.012 619.46C723.496 618.616 722.675 618.005 721.719 617.753C720.762 617.502 719.746 617.629 718.882 618.11H718.862Z" fill="#592D3D"/>
<path d="M365.308 627.42C353.938 629.58 342.908 631.22 331.248 631.25C325.552 631.304 319.863 630.848 314.248 629.89C302.006 627.316 290.082 623.413 278.688 618.25C277.823 617.774 276.808 617.649 275.854 617.901C274.899 618.152 274.077 618.76 273.558 619.6C272.608 621.22 273.058 623.87 274.898 624.73C280.711 627.443 286.678 629.814 292.768 631.83C295.678 632.83 298.638 633.53 301.548 634.43C304.477 635.363 307.45 636.147 310.458 636.78C322.408 639.2 334.678 639.15 346.768 637.78C353.648 637.02 360.478 635.9 367.278 634.61C369.278 634.24 370.398 631.84 369.898 630C369.616 629.051 368.977 628.248 368.116 627.759C367.255 627.271 366.237 627.135 365.278 627.38L365.308 627.42Z" fill="#592D3D"/>
<path d="M463.75 593.17C479.3 593.17 488.87 605.93 500.24 605.93C511.61 605.93 526.15 593.17 541.51 593.17C556.87 593.17 565.23 604.29 565.23 619.69C565.23 636.34 548.48 665.69 502.63 665.69C456.78 665.69 437.23 637.95 437.23 620.24C437.23 603.89 448.2 593.17 463.75 593.17Z" fill="white" stroke="#592D3D" stroke-width="12" stroke-miterlimit="10"/>
<path d="M477.852 596.6V662.1" stroke="#592D3D" stroke-width="12" stroke-miterlimit="10"/>
<path d="M526.988 596.6V662.1" stroke="#592D3D" stroke-width="12" stroke-miterlimit="10"/>
<path d="M558.418 406.88C545.548 430.88 498.418 444.33 494.588 438.3C490.288 431.57 532.438 382.98 508.488 332.16" fill="#B56241"/>
<path d="M500.15 221.81C369 221.81 247.79 328.25 226 457C226 457 427.33 472.23 500.66 390.25C496.01 412.9 482.94 430.12 485.15 433.58C488.23 438.42 526.07 427.66 536.4 408.36L532.74 402.88C582.65 421 680.23 443.46 746 375.26C702.52 285 604.61 221.81 500.15 221.81Z" fill="#FEDC58"/>
<path d="M331.521 454.81C325.085 447.858 320.709 439.254 318.881 429.958C317.053 420.662 317.846 411.041 321.171 402.17C314.136 401.707 307.273 399.793 301.014 396.55C294.754 393.306 289.233 388.803 284.797 383.323C280.361 377.843 277.107 371.505 275.239 364.706C273.371 357.908 272.929 350.797 273.941 343.82C249.851 377.51 232.941 416.12 225.941 457C261.138 459.044 296.44 458.312 331.521 454.81Z" fill="#EDBF2E"/>
<path d="M739.659 389.6C664.999 447 579.069 424.7 533.509 405.69C523.369 423.63 488.249 433.58 485.359 429.05C483.359 425.97 494.179 411.4 499.139 391.89C424.859 472.16 239.289 463.89 239.289 463.89" stroke="#592D3D" stroke-width="12" stroke-miterlimit="10"/>
<path d="M280.922 140.17C273.906 140.493 267.022 142.192 260.662 145.17C254.649 147.936 249.306 151.972 245.002 157C244.451 157.606 243.94 158.248 243.472 158.92C242.992 159.58 242.472 160.2 242.012 160.92C241.079 162.28 240.224 163.692 239.452 165.15C237.863 168.079 236.557 171.153 235.552 174.33C233.63 181.086 232.856 188.117 233.262 195.13C229.714 188.331 228.372 180.596 229.422 173L229.952 170.14L230.242 168.7C230.352 168.23 230.512 167.77 230.652 167.3C230.932 166.36 231.212 165.42 231.522 164.49C231.832 163.56 232.282 162.69 232.662 161.78C233.462 159.983 234.384 158.242 235.422 156.57C235.932 155.72 236.562 154.96 237.122 154.15C237.681 153.337 238.288 152.559 238.942 151.82C244.075 145.781 250.892 141.408 258.522 139.26C265.879 137.036 273.77 137.357 280.922 140.17Z" fill="white"/>
<path d="M358.881 77.15C352.816 76.944 346.753 77.6177 340.881 79.15C335.374 80.643 330.148 83.0279 325.411 86.21C320.68 89.4301 316.516 93.4144 313.091 98C312.251 99.18 311.291 100.31 310.561 101.58L309.351 103.46C308.921 104.08 308.641 104.76 308.261 105.46C306.718 108.163 305.349 110.962 304.161 113.84C303.737 110.608 303.868 107.327 304.551 104.14C304.721 103.34 304.821 102.51 305.071 101.72L305.811 99.36C306.325 97.775 306.963 96.2334 307.721 94.75C310.743 88.6204 315.323 83.3925 321.001 79.59C326.626 75.8038 333.133 73.5339 339.891 73C346.497 72.4039 353.127 73.8527 358.881 77.15Z" fill="white"/>
<path d="M407.291 474.84H286.651C281.091 474.84 275.531 474.76 269.971 474.84H269.731C264.501 474.84 259.491 479.44 259.731 484.84C259.775 487.479 260.842 489.997 262.708 491.863C264.574 493.729 267.092 494.796 269.731 494.84H390.371C395.921 494.84 401.491 494.92 407.051 494.84H407.291C412.521 494.84 417.531 490.24 417.291 484.84C417.245 482.202 416.176 479.686 414.311 477.82C412.445 475.955 409.929 474.886 407.291 474.84Z" fill="#592D3D"/>
<path d="M726.318 474.84H605.678C600.118 474.84 594.558 474.76 588.998 474.84H588.758C583.528 474.84 578.518 479.44 578.758 484.84C578.802 487.479 579.87 489.997 581.736 491.863C583.602 493.729 586.12 494.796 588.758 494.84H709.398C714.958 494.84 720.518 494.92 726.078 494.84H726.318C731.548 494.84 736.558 490.24 736.318 484.84C736.272 482.202 735.204 479.686 733.338 477.82C731.473 475.955 728.956 474.886 726.318 474.84Z" fill="#592D3D"/>
</g>
</svg>
