<svg width="1000" height="990" viewBox="0 0 1000 990" fill="none" xmlns="http://www.w3.org/2000/svg">
<mask id="mask0_22_1305" style="mask-type:luminance" maskUnits="userSpaceOnUse" x="0" y="0" width="1000" height="966">
<path d="M1000 0H0V718.31H179.2C217.58 860.69 346.65 965.41 500 965.41C653.35 965.41 782.42 860.69 820.8 718.31H1000V0Z" fill="white"/>
</mask>
<g mask="url(#mask0_22_1305)">
<path d="M500.001 962.602C683.603 962.602 832.443 813.763 832.443 630.16C832.443 446.557 683.603 297.718 500.001 297.718C316.398 297.718 167.559 446.557 167.559 630.16C167.559 813.763 316.398 962.602 500.001 962.602Z" fill="#85C5E5"/>
<path d="M833.149 369C833.21 357.431 829.83 346.106 823.44 336.463C817.049 326.819 807.936 319.293 797.259 314.84C805.239 309.459 811.77 302.193 816.274 293.687C820.777 285.18 823.115 275.695 823.079 266.07C823.079 238.3 804.079 215.07 778.609 209.19C783.544 200.358 786.129 190.407 786.119 180.29C786.119 148.1 760.549 122 728.999 122C720.623 121.993 712.352 123.87 704.799 127.49C705.25 124.538 705.474 121.556 705.469 118.57C705.469 86.3599 679.899 60.2399 648.349 60.2399C639.964 60.2513 631.687 62.1291 624.118 65.7372C616.549 69.3453 609.878 74.5931 604.589 81.0999C602.979 50.3599 578.059 25.9299 547.589 25.9299C537.318 25.9638 527.248 28.7769 518.447 34.071C509.646 39.3651 502.442 46.9427 497.599 55.9999C492.753 46.9433 485.547 39.3665 476.744 34.0727C467.942 28.7789 457.871 25.9652 447.599 25.9299C417.099 25.9299 392.179 50.3599 390.599 81.0999C385.307 74.594 378.635 69.3469 371.064 65.7389C363.494 62.131 355.215 60.2526 346.829 60.2399C315.299 60.2399 289.719 86.3499 289.719 118.57C289.716 121.556 289.936 124.537 290.379 127.49C282.836 123.87 274.576 121.993 266.209 122C234.669 122 209.089 148.12 209.089 180.33C209.073 190.448 211.659 200.4 216.599 209.23C191.149 215.11 172.139 238.34 172.139 266.11C172.111 275.735 174.456 285.219 178.967 293.722C183.477 302.225 190.014 309.485 197.999 314.86C187.455 319.326 178.443 326.772 172.069 336.285C165.696 345.798 162.236 356.965 162.117 368.415C161.997 379.865 165.221 391.102 171.394 400.746C177.567 410.391 186.421 418.024 196.869 422.71C187.409 433.494 182.216 447.364 182.269 461.71C182.269 490.22 202.319 513.96 228.809 519.04C217.299 529.35 774.169 529.97 762.989 519.59C791.189 516.02 812.989 491.48 812.989 461.72C813.034 447.374 807.838 433.506 798.379 422.72C808.774 418.121 817.6 410.588 823.777 401.046C829.953 391.504 833.21 380.366 833.149 369ZM270.809 513.54C269.879 513.02 268.919 512.54 267.959 512.13C268.929 511.56 270.809 513.54 270.809 513.54Z" fill="#D96E27"/>
<path d="M469.999 505.43C462.758 512.042 453.765 516.426 444.096 518.058C434.427 519.69 424.493 518.499 415.483 514.63C406.473 510.76 398.77 504.375 393.296 496.24C387.822 488.105 384.81 478.564 384.619 468.76C375.479 471.688 365.698 471.982 356.398 469.609C347.098 467.236 338.655 462.292 332.034 455.343C325.414 448.394 320.884 439.72 318.965 430.316C317.045 420.913 317.812 411.158 321.179 402.17C311.343 401.511 301.907 398.025 294.005 392.131C286.102 386.237 280.07 378.187 276.634 368.948C273.197 359.708 272.501 349.673 274.631 340.048C276.761 330.422 281.625 321.617 288.639 314.69C279.561 310.758 271.813 304.287 266.328 296.054C260.842 287.822 257.853 278.179 257.72 268.288C257.587 258.396 260.315 248.676 265.577 240.299C270.839 231.922 278.41 225.244 287.379 221.07C281.164 213.551 277.216 204.42 275.996 194.742C274.776 185.064 276.334 175.239 280.488 166.413C284.642 157.587 291.221 150.125 299.456 144.897C307.692 139.67 317.244 136.892 326.999 136.89H327.159C325.288 129.302 325.167 121.387 326.805 113.746C328.443 106.104 331.797 98.9343 336.614 92.7796C341.431 86.6248 347.584 81.6459 354.608 78.2192C361.632 74.7925 369.344 73.0077 377.159 73C379.05 73.0023 380.939 73.1057 382.819 73.31C372.725 64.8602 359.983 60.2269 346.819 60.22C315.279 60.22 289.709 86.33 289.709 118.55C289.706 121.536 289.926 124.517 290.369 127.47C282.828 123.858 274.571 121.989 266.209 122C234.669 122 209.089 148.12 209.089 180.33C209.073 190.448 211.659 200.4 216.599 209.23C191.149 215.11 172.139 238.34 172.139 266.11C172.111 275.735 174.456 285.219 178.967 293.722C183.477 302.225 190.014 309.485 197.999 314.86C187.455 319.326 178.443 326.772 172.069 336.285C165.696 345.798 162.236 356.965 162.117 368.415C161.997 379.865 165.221 391.102 171.394 400.746C177.567 410.391 186.421 418.024 196.869 422.71C187.409 433.494 182.216 447.364 182.269 461.71C182.269 490.22 202.319 513.96 228.809 519.04C223.199 524.04 352.619 526.79 485.469 527.04C478.498 521.326 473.161 513.871 469.999 505.43Z" fill="#C65C22"/>
<path d="M741.199 386L706.199 464.16L745.669 522.77C757.909 521.86 764.279 520.77 762.979 519.6C791.179 516.03 812.979 491.49 812.979 461.73C812.972 458.48 812.705 455.237 812.179 452.03C792.179 391.39 741.199 386 741.199 386Z" fill="#C65C22"/>
<path d="M833.149 369C833.21 357.431 829.83 346.106 823.44 336.463C817.049 326.819 807.936 319.293 797.259 314.84C805.239 309.459 811.77 302.193 816.274 293.687C820.777 285.18 823.115 275.695 823.079 266.07C823.079 238.3 804.079 215.07 778.609 209.19C783.544 200.358 786.129 190.407 786.119 180.29C786.119 148.1 760.549 122 728.999 122C720.623 121.993 712.352 123.87 704.799 127.49C705.25 124.538 705.474 121.556 705.469 118.57C705.469 86.3599 679.899 60.2399 648.349 60.2399C639.964 60.2513 631.687 62.1291 624.118 65.7372C616.549 69.3453 609.878 74.5931 604.589 81.0999C602.979 50.3599 578.059 25.9299 547.589 25.9299C537.318 25.9638 527.248 28.7769 518.447 34.071C509.646 39.3651 502.442 46.9427 497.599 55.9999C492.753 46.9433 485.547 39.3665 476.744 34.0727C467.942 28.7789 457.871 25.9652 447.599 25.9299C417.099 25.9299 392.179 50.3599 390.599 81.0999C385.307 74.594 378.635 69.3469 371.064 65.7389C363.494 62.131 355.215 60.2526 346.829 60.2399C315.299 60.2399 289.719 86.3499 289.719 118.57C289.716 121.556 289.936 124.537 290.379 127.49C282.836 123.87 274.576 121.993 266.209 122C234.669 122 209.089 148.12 209.089 180.33C209.073 190.448 211.659 200.4 216.599 209.23C191.149 215.11 172.139 238.34 172.139 266.11C172.111 275.735 174.456 285.219 178.967 293.722C183.477 302.225 190.014 309.485 197.999 314.86C187.455 319.326 178.443 326.772 172.069 336.285C165.696 345.798 162.236 356.965 162.117 368.415C161.997 379.865 165.221 391.102 171.394 400.746C177.567 410.391 186.421 418.024 196.869 422.71C187.409 433.494 182.216 447.364 182.269 461.71C182.269 490.22 202.319 513.96 228.809 519.04C217.299 529.35 774.169 529.97 762.989 519.59C791.189 516.02 812.989 491.48 812.989 461.72C813.034 447.374 807.838 433.506 798.379 422.72C808.774 418.121 817.6 410.588 823.777 401.046C829.953 391.504 833.21 380.366 833.149 369Z" stroke="#592D3D" stroke-width="12" stroke-miterlimit="10"/>
<path d="M610 758.72C700.76 758.72 682 872.96 682.87 1000H610V758.72Z" fill="#FBE8B3"/>
<path d="M632.74 831.87L610 870L621.38 1000H653.14C653.91 819.73 632.74 831.87 632.74 831.87Z" fill="#EDD494"/>
<path d="M233.25 500C233.25 352.68 352.68 233.25 500 233.25C647.32 233.25 766.75 352.68 766.75 500C766.788 539.694 757.949 578.895 740.88 614.731C723.811 650.568 698.945 682.135 668.1 707.12C662.627 711.573 656.98 715.803 651.16 719.81C591 758 515 758 446.39 751.89C439.73 750.89 433.09 749.63 426.5 748.18C400.17 742.38 374.68 733.43 351.13 720.38C345.31 716.793 339.667 712.92 334.2 708.76C328.706 704.576 323.432 700.11 318.4 695.38C313.64 690.96 309.044 686.367 304.61 681.6C258.667 632.299 233.161 567.39 233.25 500Z" fill="#FBE8B3"/>
<path d="M269.608 634.48C270.308 635.68 270.998 636.88 271.718 638.06C272.148 638.78 272.598 639.48 273.048 640.2C273.708 641.27 274.368 642.34 275.048 643.39C275.528 644.15 276.048 644.89 276.508 645.63C277.168 646.63 277.828 647.63 278.508 648.63C279.018 649.39 279.508 650.15 280.068 650.91C280.728 651.91 281.388 652.83 282.068 653.79C282.608 654.56 283.168 655.32 283.718 656.09C284.268 656.86 285.058 657.94 285.718 658.86C286.378 659.78 286.868 660.39 287.448 661.15C288.028 661.91 288.818 662.95 289.518 663.85C290.218 664.75 290.708 665.36 291.308 666.11C291.908 666.86 292.718 667.87 293.428 668.74C294.138 669.61 294.658 670.23 295.278 670.97C295.898 671.71 296.718 672.69 297.448 673.54C298.178 674.39 298.718 675.01 299.358 675.74L301.578 678.24C302.228 678.97 302.888 679.68 303.578 680.4C304.438 681.34 305.308 682.27 306.178 683.19L307.388 684.47C308.678 685.81 309.978 687.15 311.298 688.47L311.558 688.74C312.848 690.02 314.158 691.29 315.468 692.55L317.048 694.05C317.998 694.94 318.948 695.83 319.908 696.71L321.068 697.77C322.068 698.71 323.158 699.63 324.208 700.55C327.474 703.397 330.808 706.127 334.208 708.74C339.668 712.9 345.311 716.773 351.138 720.36C374.688 733.36 400.138 742.36 426.508 748.16C433.098 749.61 439.738 750.86 446.398 751.87C488.498 755.62 533.398 757.05 575.678 748.79C508.448 729 185.588 612.74 388.798 257.48C386.078 258.73 383.398 260.02 380.738 261.36L380.148 261.65C378.928 262.26 377.708 262.89 376.498 263.53L375.498 264.06C371.738 266.06 368.018 268.13 364.368 270.29L363.468 270.82C362.308 271.51 361.158 272.21 360.008 272.92L359.138 273.46C355.564 275.693 352.048 278.003 348.588 280.39L347.508 281.14C346.418 281.9 345.348 282.66 344.278 283.43L343.618 283.9C341.438 285.493 339.284 287.107 337.158 288.74L336.538 289.22C335.538 290 334.538 290.8 333.538 291.61L332.368 292.55C331.368 293.36 330.368 294.17 329.368 295C327.258 296.75 325.178 298.55 323.128 300.37L321.988 301.37L319.298 303.82L317.998 305C315.144 307.667 312.354 310.39 309.628 313.17L308.248 314.58C307.458 315.4 306.668 316.22 305.888 317.05C305.428 317.54 304.968 318.05 304.518 318.53C303.144 319.997 301.791 321.483 300.458 322.99C300.008 323.5 299.548 323.99 299.098 324.53C298.388 325.34 297.688 326.16 296.988 326.98L295.478 328.77C294.798 329.58 294.118 330.39 293.478 331.21C292.938 331.87 292.398 332.54 291.868 333.21C290.798 334.54 289.748 335.87 288.708 337.21C288.168 337.91 287.628 338.61 287.098 339.32C286.568 340.03 285.898 340.91 285.308 341.72C284.718 342.53 284.238 343.17 283.718 343.9C283.198 344.63 282.588 345.45 282.038 346.23C281.091 347.563 280.158 348.913 279.238 350.28C278.738 351.01 278.238 351.76 277.748 352.5C277.258 353.24 276.648 354.16 276.108 355L274.618 357.31L272.938 360.02C272.508 360.71 272.078 361.4 271.658 362.09C270.768 363.55 269.908 365.02 269.048 366.49L267.828 368.65C267.288 369.6 266.748 370.56 266.218 371.52C265.818 372.25 265.418 372.98 265.028 373.71C264.388 374.9 263.758 376.1 263.128 377.3L261.928 379.64C261.288 380.92 260.648 382.19 260.018 383.48C259.688 384.17 259.348 384.87 259.018 385.57C258.498 386.66 258.018 387.76 257.488 388.86C257.178 389.52 256.878 390.18 256.578 390.86C255.838 392.507 255.114 394.173 254.408 395.86C254.188 396.38 253.978 396.91 253.758 397.43C253.228 398.7 252.708 399.97 252.198 401.25C251.928 401.92 251.668 402.59 251.408 403.25C250.908 404.51 250.408 405.78 249.958 407.05C249.748 407.6 249.538 408.15 249.338 408.7C248.711 410.453 248.094 412.207 247.488 413.96L246.928 415.66C246.488 416.993 246.058 418.327 245.638 419.66L245.038 421.57C244.568 423.11 244.108 424.65 243.668 426.2C243.568 426.53 243.468 426.86 243.378 427.2C242.858 429.04 242.358 430.887 241.878 432.74C241.718 433.33 241.578 433.93 241.428 434.52C241.078 435.91 240.738 437.3 240.428 438.7L240.008 440.45C239.578 442.35 239.158 444.25 238.768 446.16L238.618 446.93C238.278 448.63 237.944 450.33 237.618 452.03C237.508 452.64 237.408 453.24 237.298 453.85C237.038 455.34 236.788 456.85 236.558 458.35C236.478 458.86 236.388 459.35 236.318 459.87C236.018 461.82 235.748 463.78 235.488 465.75L235.338 467.05C235.138 468.64 234.958 470.24 234.788 471.84C234.728 472.44 234.658 473.04 234.598 473.65C234.438 475.33 234.288 477.02 234.148 478.71C234.148 479.06 234.088 479.4 234.068 479.71C233.921 481.71 233.791 483.727 233.678 485.76C233.678 486.29 233.678 486.83 233.608 487.36C233.541 488.933 233.481 490.503 233.428 492.07C233.428 492.66 233.428 493.25 233.428 493.84C233.428 495.89 233.348 497.95 233.348 500.01C233.348 500.01 233.348 500.08 233.348 500.11C233.348 502.33 233.348 504.53 233.428 506.73C233.428 507.49 233.488 508.25 233.508 509.01C233.558 510.48 233.608 511.95 233.678 513.42C233.678 514.31 233.788 515.19 233.838 516.08C233.918 517.41 233.988 518.74 234.088 520.08C234.158 521.08 234.248 521.97 234.328 522.91C234.438 524.17 234.538 525.43 234.668 526.68C234.758 527.68 234.878 528.62 234.978 529.59C235.118 530.8 235.248 532.02 235.398 533.23C235.518 534.23 235.658 535.23 235.788 536.18C235.948 537.36 236.108 538.55 236.288 539.73C236.438 540.73 236.598 541.73 236.758 542.73C236.938 543.89 237.128 545.06 237.328 546.22C237.508 547.22 237.688 548.22 237.878 549.22C238.088 550.37 238.308 551.52 238.528 552.66C238.748 553.8 238.938 554.66 239.148 555.66C239.388 556.8 239.628 557.93 239.888 559.06C240.148 560.19 240.328 561.06 240.568 561.99C240.828 563.12 241.108 564.24 241.388 565.35C241.668 566.46 241.878 567.3 242.128 568.26C242.428 569.38 242.728 570.49 243.038 571.6C243.298 572.6 243.568 573.52 243.848 574.47C244.168 575.58 244.498 576.68 244.848 577.78C245.198 578.88 245.428 579.67 245.728 580.62C246.028 581.57 246.428 582.81 246.788 583.9C247.148 584.99 247.408 585.77 247.728 586.7C248.108 587.79 248.488 588.88 248.878 589.97C249.208 590.88 249.528 591.8 249.878 592.71L251.118 595.98C251.468 596.87 251.808 597.77 252.118 598.66C252.558 599.75 253.008 600.85 253.458 601.94C253.818 602.8 254.168 603.67 254.538 604.53C255.008 605.65 255.538 606.75 255.988 607.86C256.358 608.68 256.718 609.51 257.088 610.33C257.608 611.49 258.158 612.63 258.688 613.77L259.768 616.07C260.378 617.33 261.008 618.57 261.638 619.82C261.958 620.45 262.258 621.09 262.588 621.72C264.508 625.46 266.508 629.15 268.588 632.79C268.878 633.26 269.248 633.87 269.608 634.48Z" fill="#EDD494"/>
<path d="M233.25 500C233.25 352.68 352.68 233.25 500 233.25C647.32 233.25 766.75 352.68 766.75 500C766.788 539.694 757.949 578.895 740.88 614.731C723.811 650.568 698.945 682.135 668.1 707.12C662.627 711.573 656.98 715.803 651.16 719.81C591 758 515 758 446.39 751.89C439.73 750.89 433.09 749.63 426.5 748.18C400.17 742.38 374.68 733.43 351.13 720.38C345.31 716.793 339.667 712.92 334.2 708.76C328.706 704.576 323.432 700.11 318.4 695.38C313.64 690.96 309.044 686.367 304.61 681.6C258.667 632.299 233.161 567.39 233.25 500Z" stroke="#592D3D" stroke-width="12" stroke-miterlimit="10"/>
<path d="M386.118 758.72C295.348 758.72 314.118 872.96 313.248 1000H386.118V758.72Z" fill="#FBE8B3"/>
<path d="M367.228 831.87L389.998 870L378.608 1000H346.878C346.068 819.73 367.228 831.87 367.228 831.87Z" fill="#EDD494"/>
<path d="M619.468 1070H380.528C377.007 1070 373.632 1068.6 371.144 1066.11C368.656 1063.62 367.258 1060.24 367.258 1056.72V772C367.258 768.48 368.656 765.103 371.144 762.613C373.632 760.123 377.007 758.723 380.528 758.72H613.758C626.848 758.72 632.758 766.38 632.758 778.6V1056.68C632.763 1058.43 632.423 1060.16 631.757 1061.78C631.092 1063.39 630.114 1064.86 628.879 1066.1C627.644 1067.34 626.177 1068.32 624.562 1068.99C622.947 1069.66 621.216 1070 619.468 1070Z" fill="#FBE8B3"/>
<path d="M629.048 766.62C628.051 765.394 627.208 764.051 626.538 762.62C624.137 760.738 621.28 759.527 618.258 759.11C616.769 758.879 615.264 758.766 613.758 758.77H380.528C377.016 758.773 373.648 760.166 371.162 762.645C368.675 765.125 367.271 768.488 367.258 772C396.258 782.42 450.548 788.24 499.998 788.24C563.058 788.24 604.378 778.89 629.048 766.62Z" fill="#EDD494"/>
<path d="M610 758.72C700.76 758.72 682 872.96 682.87 1000H632.74" stroke="#592D3D" stroke-width="12" stroke-miterlimit="10" stroke-linecap="square"/>
<path d="M386.118 758.72C295.348 758.72 314.118 872.96 313.248 1000H363.318" stroke="#592D3D" stroke-width="12" stroke-miterlimit="10" stroke-linecap="square"/>
<path d="M380.527 758.82L613.757 758.72" stroke="#592D3D" stroke-width="12" stroke-miterlimit="10"/>
<path d="M380.528 1070H497.148C387.998 1070 396.238 838.82 367.258 838.82V1056.68C367.253 1058.43 367.592 1060.16 368.256 1061.77C368.921 1063.39 369.897 1064.86 371.13 1066.09C372.362 1067.33 373.827 1068.31 375.44 1068.98C377.052 1069.65 378.781 1070 380.528 1070Z" fill="#EDD494"/>
<path d="M361.259 860.85C361.069 857.18 361.149 853.51 361.309 849.85C361.469 846.19 361.779 842.5 362.169 838.85C362.369 837.01 362.569 835.18 362.819 833.34C363.069 831.5 363.309 829.67 363.669 827.83C364.378 824.022 365.585 820.324 367.259 816.83C368.933 820.324 370.14 824.022 370.849 827.83C371.209 829.67 371.469 831.5 371.699 833.34C371.929 835.18 372.149 837.01 372.349 838.85C372.729 842.52 373.029 846.19 373.199 849.85C373.369 853.51 373.449 857.19 373.259 860.85H361.259Z" fill="#592D3D"/>
<path d="M632.738 870V878C632.998 912 632.998 947 632.738 980.75C632.738 983.62 632.738 986.47 632.738 989.28V1056.69C632.742 1058.44 632.402 1060.16 631.737 1061.78C631.072 1063.39 630.095 1064.86 628.862 1066.1C627.63 1067.33 626.166 1068.31 624.554 1068.98C622.942 1069.65 621.213 1070 619.468 1070H380.528C377.007 1070 373.632 1068.6 371.144 1066.11C368.656 1063.62 367.258 1060.24 367.258 1056.72V998.52C367.258 996.01 367.258 993.45 367.258 990.87C367.008 956 367.008 921 367.258 885.57V860.85" stroke="#592D3D" stroke-width="12" stroke-miterlimit="10"/>
<path d="M626.74 870C626.55 865.83 626.64 861.65 626.8 857.47C626.96 853.29 627.27 849.12 627.65 844.94C627.85 842.85 628.06 840.76 628.3 838.67C628.54 836.58 628.79 834.5 629.15 832.41C629.847 828.106 631.052 823.9 632.74 819.88C634.428 823.9 635.633 828.106 636.33 832.41C636.69 834.5 636.95 836.59 637.18 838.67C637.41 840.75 637.63 842.85 637.83 844.94C638.21 849.12 638.52 853.29 638.68 857.47C638.84 861.65 638.93 865.83 638.74 870H626.74Z" fill="#592D3D"/>
<path d="M502.069 878.86C502.067 889.337 499.69 899.678 495.117 909.104C490.543 918.53 483.892 926.797 475.663 933.282C467.435 939.768 457.843 944.303 447.609 946.548C437.375 948.793 426.765 948.688 416.578 946.242C406.39 943.796 396.89 939.072 388.79 932.426C380.691 925.779 374.204 917.383 369.818 907.868C365.431 898.354 363.258 887.969 363.462 877.493C363.667 867.018 366.244 856.726 370.999 847.39" stroke="#592D3D" stroke-width="12" stroke-miterlimit="10"/>
<path d="M371 847.39C374.787 839.991 379.867 833.33 386 827.72Z" fill="#FBE8B3"/>
<path d="M365.648 844.66C366.526 842.58 367.662 840.618 369.028 838.82C370.384 837.02 371.9 835.346 373.558 833.82C374.398 833.06 375.248 832.32 376.138 831.63C377.022 830.915 377.962 830.273 378.948 829.71C381.082 828.479 383.486 827.792 385.948 827.71C385.689 830.051 385.1 832.344 384.198 834.52C383.808 835.52 383.368 836.4 382.908 837.29L381.608 839.96C380.758 841.72 379.918 843.45 379.058 845.15C378.226 846.864 377.305 848.533 376.298 850.15L365.648 844.66Z" fill="#592D3D"/>
<path d="M489.328 838.82C497.626 850.506 502.079 864.487 502.068 878.82Z" fill="#FBE8B3"/>
<path d="M489.328 838.82C492.742 840.671 495.708 843.248 498.018 846.37C499.168 847.888 500.204 849.489 501.118 851.16C502.048 852.83 502.888 854.55 503.668 856.31C505.203 859.845 506.363 863.532 507.128 867.31C507.905 871.101 508.221 874.973 508.068 878.84H496.068C495.878 875.59 495.708 872.36 495.368 869.11C495.028 865.86 494.598 862.63 493.968 859.37L493.468 856.93L492.888 854.48C492.468 852.85 492.018 851.22 491.598 849.55C490.654 846.015 489.896 842.434 489.328 838.82Z" fill="#592D3D"/>
<path d="M641.651 878.86C641.662 869.372 639.719 859.983 635.945 851.278C632.17 842.572 626.644 834.737 619.711 828.26" fill="#FBE8B3"/>
<path d="M635.651 878.86C635.49 874.552 635.07 870.257 634.391 866C633.689 861.7 632.646 857.464 631.271 853.33C630.931 852.33 630.531 851.26 630.161 850.22C629.791 849.18 629.321 848.17 628.911 847.13C628.501 846.09 627.971 845.13 627.531 844.08L626.071 841.08C624.071 836.98 621.901 832.89 619.711 828.33C624.345 830.307 628.51 833.241 631.931 836.94C632.761 837.88 633.631 838.8 634.401 839.79C635.171 840.78 635.941 841.79 636.651 842.79C637.361 843.79 638.081 844.88 638.721 845.97C639.361 847.06 640.031 848.15 640.601 849.29C642.981 853.813 644.795 858.613 646.001 863.58C647.233 868.576 647.778 873.717 647.621 878.86H635.651Z" fill="#592D3D"/>
<path d="M502.997 878.86C502.887 888.031 504.598 897.133 508.032 905.638C511.465 914.143 516.553 921.882 522.999 928.407C529.446 934.931 537.123 940.111 545.586 943.647C554.049 947.182 563.13 949.002 572.302 949.002C581.474 949.002 590.555 947.182 599.018 943.647C607.481 940.111 615.159 934.931 621.605 928.407C628.052 921.882 633.139 914.143 636.573 905.638C640.006 897.133 641.717 888.031 641.607 878.86" stroke="#592D3D" stroke-width="12" stroke-miterlimit="10"/>
<path d="M515.769 838.82C507.475 850.508 503.025 864.488 503.039 878.82Z" fill="#FBE8B3"/>
<path d="M515.769 838.82C515.202 842.441 514.444 846.029 513.499 849.57C513.079 851.24 512.629 852.87 512.209 854.5L511.639 856.95L511.139 859.39C510.509 862.65 510.049 865.89 509.729 869.13C509.409 872.37 509.229 875.61 509.039 878.86H496.999C496.836 874.992 497.152 871.12 497.939 867.33C498.699 863.551 499.859 859.864 501.399 856.33C502.169 854.57 503.009 852.85 503.939 851.18C504.857 849.511 505.893 847.911 507.039 846.39C509.36 843.259 512.34 840.675 515.769 838.82Z" fill="#592D3D"/>
<path d="M470.5 897.78H524.4V917.48C506.66 911.43 488.69 911.58 470.5 917.48V897.78Z" fill="#85C5E5" stroke="#592D3D" stroke-width="12" stroke-miterlimit="10"/>
<path d="M638.101 878.86C638.126 861.305 631.464 844.399 619.471 831.58C615.251 827.06 575.201 837.77 551.661 858.84C528.551 879.53 508.431 913.33 511.311 917.59C519.607 929.903 531.637 939.226 545.63 944.187C559.624 949.148 574.84 949.485 589.039 945.147C603.238 940.81 615.669 932.028 624.501 920.095C633.334 908.161 638.101 893.707 638.101 878.86Z" fill="#85C5E5" stroke="#592D3D" stroke-width="12" stroke-miterlimit="10"/>
<path d="M598.108 848.39C591.988 852.06 585.958 855.57 580.108 859.39C574.335 863.08 568.812 867.149 563.578 871.57C558.428 876.03 553.468 880.89 548.578 885.83C543.688 890.77 538.888 895.83 533.828 900.9C536.896 894.462 540.644 888.371 545.008 882.73C549.365 877.001 554.294 871.731 559.718 867C565.237 862.329 571.334 858.386 577.858 855.27C584.285 852.118 591.091 849.805 598.108 848.39Z" fill="white"/>
<path d="M361.899 878.86C361.874 861.305 368.535 844.399 380.529 831.58C384.749 827.06 424.799 837.77 448.339 858.84C471.449 879.53 491.569 913.33 488.689 917.59C480.393 929.903 468.362 939.226 454.369 944.187C440.376 949.148 425.159 949.485 410.96 945.147C396.761 940.81 384.33 932.028 375.498 920.095C366.665 908.161 361.898 893.707 361.899 878.86Z" fill="#85C5E5" stroke="#592D3D" stroke-width="12" stroke-miterlimit="10"/>
<path d="M455.751 938.92C433.112 938.92 411.4 929.927 395.392 913.919C379.384 897.91 370.391 876.199 370.391 853.56C370.391 850.651 370.537 847.744 370.831 844.85C363.312 858.198 360.428 873.662 362.629 888.823C364.831 903.984 371.993 917.989 382.997 928.648C394.002 939.307 408.227 946.02 423.451 947.737C438.675 949.455 454.038 946.08 467.141 938.14C463.366 938.653 459.561 938.913 455.751 938.92Z" fill="#67B7D6"/>
<path d="M361.899 878.86C361.874 861.305 368.535 844.399 380.529 831.58C384.749 827.06 424.799 837.77 448.339 858.84C471.449 879.53 491.569 913.33 488.689 917.59C480.393 929.903 468.362 939.226 454.369 944.187C440.376 949.148 425.159 949.485 410.96 945.147C396.761 940.81 384.33 932.028 375.498 920.095C366.665 908.161 361.898 893.707 361.899 878.86Z" stroke="#592D3D" stroke-width="12" stroke-miterlimit="10"/>
<path d="M401.891 848.39C408.907 849.802 415.713 852.111 422.141 855.26C428.666 858.379 434.762 862.325 440.281 867C445.683 871.727 450.592 876.991 454.931 882.71C459.295 888.351 463.043 894.442 466.111 900.88C461.051 895.88 456.271 890.75 451.361 885.81C446.451 880.87 441.521 876.01 436.361 871.55C431.126 867.128 425.604 863.06 419.831 859.37C414.001 855.57 408.001 852.06 401.891 848.39Z" fill="white"/>
<path d="M568.438 849.8C547.258 856.69 526.438 867.28 505.588 869.47C478.838 872.29 451.488 856.1 423.288 848.39C421.138 845.81 404.938 833.95 389.818 834.45C377.938 834.85 374.728 838.75 371.418 842.64L367.258 1056.12C367.258 1059.64 368.656 1063.01 371.145 1065.5C373.633 1067.99 377.008 1069.39 380.528 1069.39H619.468C622.987 1069.39 626.363 1067.99 628.851 1065.5C631.34 1063.01 632.738 1059.64 632.738 1056.12L630.358 840.76C625.928 840.76 623.258 831.36 609.948 835.67C593.658 841 569.708 848.28 568.438 849.8Z" fill="#85C5E5"/>
<path d="M632.739 831.31L609.949 869.4L621.339 999.43H632.939V893.78L632.739 831.31Z" fill="#67B7D6"/>
<path d="M380.528 1069.39H497.148C387.948 1069.39 396.238 838.25 367.258 838.25V1056.12C367.258 1059.64 368.656 1063.01 371.145 1065.5C373.633 1067.99 377.008 1069.39 380.528 1069.39Z" fill="#67B7D6"/>
<path d="M361.26 860.4C361.047 857.642 361.013 854.872 361.16 852.11C361.287 849.343 361.523 846.573 361.87 843.8C362.05 842.41 362.22 841.03 362.44 839.64C362.66 838.25 362.88 836.87 363.22 835.48C363.905 832.528 365.066 829.707 366.66 827.13C368.347 829.646 369.607 832.423 370.39 835.35C370.78 836.73 371.07 838.11 371.32 839.48C371.57 840.85 371.82 842.24 372.04 843.62C372.48 846.37 372.83 849.13 373.04 851.89C373.295 854.645 373.365 857.415 373.25 860.18L361.26 860.4Z" fill="#592D3D"/>
<path d="M632.738 869.4V877.4C632.998 911.4 632.998 946.4 632.738 980.16C632.738 983.03 632.738 985.88 632.738 988.69V1056.1C632.738 1059.62 631.34 1062.99 628.851 1065.48C626.363 1067.97 622.987 1069.37 619.468 1069.37H380.528C377.008 1069.37 373.633 1067.97 371.145 1065.48C368.656 1062.99 367.258 1059.62 367.258 1056.1V998C367.258 995.493 367.258 992.943 367.258 990.35C367.008 955.49 367.008 920.49 367.258 885.05V860.29" stroke="#592D3D" stroke-width="12" stroke-miterlimit="10"/>
<path d="M626.758 869.38C626.789 866.526 627.006 863.676 627.408 860.85C627.788 858.017 628.274 855.193 628.868 852.38C629.168 850.97 629.468 849.56 629.808 848.16C630.148 846.76 630.498 845.35 630.958 843.95C631.901 840.985 633.312 838.19 635.138 835.67C636.604 838.416 637.617 841.381 638.138 844.45C638.398 845.9 638.558 847.34 638.688 848.78C638.818 850.22 638.938 851.66 639.038 853.09C639.218 855.96 639.318 858.83 639.288 861.68C639.288 864.535 639.108 867.387 638.748 870.22L626.758 869.38Z" fill="#592D3D"/>
<path d="M557.91 889.36C562.32 888.58 566.67 887.97 571.01 887.36L584.01 885.43C588.32 884.78 592.62 884.07 596.92 883.33C601.22 882.59 605.53 881.75 609.99 881.13C606.08 883.32 601.947 885.083 597.66 886.39C593.41 887.721 589.064 888.724 584.66 889.39C580.249 890.074 575.794 890.445 571.33 890.5C566.83 890.58 562.333 890.198 557.91 889.36Z" fill="#592D3D"/>
<path opacity="0.1" d="M426.878 961.63C441.354 961.628 455.466 957.095 467.234 948.666C479.002 940.236 487.837 928.335 492.498 914.63C486.581 924.75 478.251 933.248 468.25 939.365C458.25 945.482 446.89 949.028 435.186 949.686C423.481 950.343 411.796 948.092 401.173 943.134C390.55 938.176 381.321 930.664 374.308 921.27L374.258 936C386.998 951.63 405.148 961.63 426.878 961.63Z" fill="black"/>
<path opacity="0.1" d="M573.12 961.63C558.644 961.628 544.532 957.095 532.764 948.666C520.995 940.236 512.161 928.335 507.5 914.63C513.416 924.75 521.747 933.248 531.747 939.365C541.748 945.482 553.108 949.028 564.812 949.686C576.517 950.343 588.202 948.092 598.825 943.134C609.448 938.176 618.677 930.664 625.69 921.27V935.99C613 951.63 594.85 961.63 573.12 961.63Z" fill="black"/>
<path d="M406.998 943.81C396.327 939.827 386.801 933.277 379.263 924.737C371.726 916.198 366.408 905.933 363.78 894.85C361.153 883.767 361.296 872.208 364.198 861.194C367.1 850.179 372.67 840.05 380.418 831.7" fill="#85C5E5"/>
<path d="M406.999 943.81C395.176 941.88 384.258 936.283 375.789 927.81L374.169 926.21C373.639 925.67 373.169 925.08 372.639 924.52C372.109 923.96 371.639 923.37 371.159 922.79C370.652 922.219 370.174 921.621 369.729 921C368.829 919.77 367.919 918.54 367.049 917.28L364.679 913.35C361.688 907.965 359.431 902.204 357.969 896.22C356.61 890.22 356.042 884.068 356.279 877.92C356.551 871.812 357.696 865.774 359.679 859.99C359.939 859.28 360.169 858.56 360.439 857.85L361.319 855.75C361.869 854.35 362.579 853.01 363.229 851.66C364.619 849.003 366.203 846.453 367.969 844.03C368.819 842.82 369.789 841.68 370.719 840.54C371.649 839.4 372.659 838.31 373.719 837.31C375.786 835.244 378.039 833.373 380.449 831.72C374.659 841.72 370.549 851.91 368.789 862.39C367.874 867.541 367.479 872.77 367.609 878C367.802 883.187 368.471 888.346 369.609 893.41C370.842 898.446 372.556 903.352 374.729 908.06C376.951 912.816 379.659 917.33 382.809 921.53C385.996 925.871 389.618 929.876 393.619 933.48C397.82 937.247 402.292 940.7 406.999 943.81Z" fill="#592D3D"/>
<path d="M593.051 943.81C603.718 939.822 613.239 933.267 620.771 924.725C628.303 916.184 633.615 905.918 636.238 894.836C638.861 883.753 638.713 872.196 635.807 861.184C632.902 850.173 627.329 840.046 619.581 831.7" fill="#85C5E5"/>
<path d="M593.051 943.81C597.746 940.711 602.209 937.272 606.401 933.52C610.402 929.915 614.024 925.911 617.211 921.57C620.361 917.37 623.069 912.856 625.291 908.1C627.463 903.392 629.178 898.486 630.411 893.45C631.549 888.385 632.218 883.227 632.411 878.04C632.555 872.791 632.17 867.541 631.261 862.37C629.501 851.89 625.391 841.73 619.601 831.7C622.011 833.353 624.264 835.224 626.331 837.29C627.411 838.29 628.331 839.43 629.331 840.52C630.331 841.61 631.231 842.8 632.081 844.01C633.847 846.433 635.431 848.983 636.821 851.64C637.471 852.99 638.181 854.33 638.731 855.73L639.611 857.83C639.881 858.54 640.111 859.26 640.371 859.97C642.354 865.754 643.499 871.792 643.771 877.9C644.008 884.048 643.44 890.2 642.081 896.2C640.619 902.184 638.362 907.945 635.371 913.33L633.001 917.26C632.131 918.52 631.221 919.75 630.321 920.98C629.876 921.601 629.398 922.199 628.891 922.77C628.401 923.35 627.891 923.93 627.411 924.5C626.931 925.07 626.411 925.65 625.881 926.19L624.261 927.79C615.795 936.27 604.877 941.875 593.051 943.81Z" fill="#592D3D"/>
<path d="M329.09 794.17C385.21 829.75 497.57 869.7 497.57 869.7L497.41 883.7C497.41 883.7 397 879.36 316.32 844.9C316.32 814.38 329.09 794.17 329.09 794.17Z" fill="#85C5E5" stroke="#592D3D" stroke-width="12" stroke-miterlimit="10"/>
<path d="M648.659 870.5C648.659 870.5 666.359 868.65 679.559 861.5C679.449 857.25 678.959 853.39 678.959 853.39L648.109 864.07L648.659 870.5Z" fill="#EDD494"/>
<path d="M671.55 794.43C619 831.8 503 869.7 503 869.7L503.17 883.7C503.17 883.7 603.58 879.4 684.25 844.94C684.29 822.67 671.55 794.43 671.55 794.43Z" fill="#85C5E5" stroke="#592D3D" stroke-width="12" stroke-miterlimit="10"/>
<path d="M320.628 822.65C320.908 822.89 321.458 823.26 321.898 823.57C322.338 823.88 322.898 824.21 323.348 824.52C324.348 825.12 325.348 825.73 326.428 826.29C328.508 827.45 330.658 828.54 332.858 829.57C335.058 830.6 337.278 831.57 339.508 832.57C340.628 833.07 341.738 833.57 342.848 834.15C343.958 834.73 345.068 835.25 346.158 835.91C343.657 835.778 341.173 835.417 338.738 834.83C336.318 834.23 333.928 833.513 331.568 832.68C329.181 831.853 326.844 830.888 324.568 829.79C323.438 829.23 322.308 828.63 321.208 827.95C320.658 827.61 320.118 827.26 319.568 826.89C318.983 826.491 318.425 826.053 317.898 825.58L320.628 822.65Z" fill="#592D3D"/>
<path d="M271.401 576.82C270.401 548.46 289.401 524.46 314.681 513.26C317.336 512.173 320.062 511.271 322.841 510.56C336.851 507.08 351.594 508.016 365.051 513.24C368.126 514.419 371.117 515.809 374.001 517.4C403.531 533.28 416.791 570.65 405.361 600.86C404.203 603.906 402.805 606.855 401.181 609.68C397.193 617.988 391.17 625.153 383.671 630.51C381.169 632.351 378.547 634.021 375.821 635.51C348.441 648.51 311.441 644.51 289.371 624.11C287.163 621.765 285.122 619.269 283.261 616.64C281.139 613.637 279.275 610.459 277.691 607.14C274.338 600.351 272.402 592.951 272.001 585.39C271.639 582.547 271.439 579.686 271.401 576.82Z" fill="#EDD494"/>
<path d="M269.768 558.47C268.768 530.11 287.768 506.11 313.048 494.91C315.699 493.823 318.423 492.921 321.198 492.21C335.211 488.728 349.958 489.664 363.418 494.89C366.484 496.07 369.464 497.46 372.338 499.05C401.868 514.94 415.128 552.3 403.698 582.51C402.548 585.559 401.15 588.509 399.518 591.33C398.136 594.039 396.562 596.645 394.808 599.13C393.08 601.592 391.182 603.931 389.128 606.13C386.908 608.327 384.529 610.356 382.008 612.2C379.508 614.043 376.885 615.714 374.158 617.2C346.778 630.2 309.778 626.2 287.718 605.8C285.505 603.46 283.463 600.963 281.608 598.33C279.483 595.327 277.616 592.149 276.028 588.83C272.653 582.02 270.709 574.591 270.318 567C269.964 564.17 269.781 561.322 269.768 558.47Z" fill="white"/>
<path d="M338.51 571.32C345.27 571.32 350.75 565.84 350.75 559.08C350.75 552.32 345.27 546.84 338.51 546.84C331.75 546.84 326.27 552.32 326.27 559.08C326.27 565.84 331.75 571.32 338.51 571.32Z" fill="#592D3D"/>
<path d="M339.2 490.12C330.2 490.109 321.287 491.876 312.972 495.32C304.658 498.764 297.105 503.818 290.75 510.19C288.265 512.68 285.972 515.354 283.89 518.19C279.586 523.79 276.117 529.985 273.59 536.58H403.92C400.54 524.71 393.499 514.211 383.8 506.58C381.799 504.865 379.702 503.266 377.52 501.79C366.202 494.152 352.853 490.087 339.2 490.12Z" fill="#FBE8B3" stroke="#592D3D" stroke-width="8" stroke-miterlimit="10"/>
<path d="M274.09 581.45C279.59 595.2 289.39 607.38 302.01 614.77C305.259 616.612 308.654 618.184 312.16 619.47C336.79 628.56 367.16 624.54 386.65 607.86C389.268 605.51 391.705 602.966 393.94 600.25C395.623 598.222 397.161 596.076 398.54 593.83C400.54 589.853 402.192 585.711 403.48 581.45H274.09Z" fill="#FBE8B3" stroke="#592D3D" stroke-width="8" stroke-miterlimit="10"/>
<path d="M269.768 558.47C268.768 530.11 287.768 506.11 313.048 494.91C315.699 493.823 318.423 492.921 321.198 492.21C335.211 488.728 349.958 489.664 363.418 494.89C366.484 496.07 369.464 497.46 372.338 499.05C401.868 514.94 415.128 552.3 403.698 582.51C402.548 585.559 401.15 588.509 399.518 591.33C398.136 594.039 396.562 596.645 394.808 599.13C393.08 601.592 391.182 603.931 389.128 606.13C386.908 608.327 384.529 610.356 382.008 612.2C379.508 614.043 376.885 615.714 374.158 617.2C346.778 630.2 309.778 626.2 287.718 605.8C285.505 603.46 283.463 600.963 281.608 598.33C279.483 595.327 277.616 592.149 276.028 588.83C272.653 582.02 270.709 574.591 270.318 567C269.964 564.17 269.781 561.322 269.768 558.47Z" stroke="#592D3D" stroke-width="12" stroke-miterlimit="10"/>
<path d="M583.888 568.76C584.318 553.63 590.558 538.67 598.988 527.43C601.14 524.409 603.52 521.558 606.108 518.9C617.614 506.92 633.019 499.44 649.55 497.809C666.081 496.177 682.651 500.5 696.278 510C698.55 511.585 700.73 513.298 702.808 515.13C729.808 536.58 732.928 578.27 718.128 608.36C716.69 610.751 715.093 613.043 713.348 615.22C711.034 618.121 708.5 620.839 705.768 623.35C685.498 641.18 653.958 645.48 628.358 635.77C624.71 634.394 621.182 632.722 617.808 630.77C599.908 619.99 587.438 599.68 584.378 578.54C583.961 575.298 583.797 572.028 583.888 568.76Z" fill="#EDD494"/>
<path d="M589.379 557.26C589.799 543.11 595.799 529.11 603.899 518.6C605.983 515.766 608.276 513.092 610.759 510.6C622.006 499.356 636.812 492.373 652.642 490.846C668.472 489.319 684.34 493.343 697.529 502.23C699.711 503.707 701.808 505.306 703.809 507.02C729.809 527.09 732.809 566.09 718.549 594.24C717.167 596.485 715.63 598.63 713.949 600.66C711.716 603.375 709.279 605.916 706.659 608.26C687.149 625 656.799 629 632.169 619.9C628.657 618.609 625.255 617.034 621.999 615.19C604.779 605.11 592.779 586.11 589.829 566.34C589.435 563.33 589.284 560.294 589.379 557.26Z" fill="white"/>
<path d="M659.209 571.32C665.969 571.32 671.449 565.84 671.449 559.08C671.449 552.32 665.969 546.84 659.209 546.84C652.449 546.84 646.969 552.32 646.969 559.08C646.969 565.84 652.449 571.32 659.209 571.32Z" fill="#592D3D"/>
<path d="M659.208 490.55C650.208 490.539 641.295 492.306 632.98 495.75C624.665 499.195 617.113 504.248 610.758 510.62C608.275 513.112 605.982 515.786 603.898 518.62C599.597 524.219 596.128 530.409 593.598 537H723.928C720.545 525.132 713.505 514.633 703.808 507C701.806 505.286 699.71 503.687 697.528 502.21C686.209 494.576 672.86 490.514 659.208 490.55Z" fill="#FBE8B3" stroke="#592D3D" stroke-width="8" stroke-miterlimit="10"/>
<path d="M594.098 581.87C599.608 595.63 609.398 607.81 622.018 615.19C625.268 617.033 628.662 618.608 632.168 619.9C656.798 628.99 687.168 624.96 706.658 608.28C709.278 605.936 711.715 603.395 713.948 600.68C715.629 598.65 717.166 596.505 718.548 594.26C720.553 590.282 722.206 586.136 723.488 581.87H594.098Z" fill="#FBE8B3" stroke="#592D3D" stroke-width="8" stroke-miterlimit="10"/>
<path d="M589.379 557.26C589.799 543.11 595.799 529.11 603.899 518.6C605.983 515.766 608.276 513.092 610.759 510.6C622.006 499.356 636.812 492.373 652.642 490.846C668.472 489.319 684.34 493.343 697.529 502.23C699.711 503.707 701.808 505.306 703.809 507.02C729.809 527.09 732.809 566.09 718.549 594.24C717.167 596.485 715.63 598.63 713.949 600.66C711.716 603.375 709.279 605.916 706.659 608.26C687.149 625 656.799 629 632.169 619.9C628.657 618.609 625.255 617.034 621.999 615.19C604.779 605.11 592.779 586.11 589.829 566.34C589.435 563.33 589.284 560.294 589.379 557.26Z" stroke="#592D3D" stroke-width="12" stroke-miterlimit="10"/>
<path fill-rule="evenodd" clip-rule="evenodd" d="M243.891 489.13C249.531 504.96 264.791 513.19 277.291 516.07C290.351 495.83 333.941 487.15 366.661 498.63C394.461 503.63 355.851 473.06 294.191 489.63C291.881 490.48 279.631 492.58 263.911 480.44C261.721 478.75 268.591 494.15 276.411 500.44C265.061 500.21 263.201 500.22 243.891 489.13Z" fill="#592D3D"/>
<path fill-rule="evenodd" clip-rule="evenodd" d="M721.209 500.43C729.029 494.18 735.899 478.78 733.709 480.43C717.989 492.57 705.709 490.43 703.429 489.62C641.769 473.02 603.149 503.62 630.949 498.62C663.679 487.14 707.269 495.82 720.329 516.06C732.829 513.18 748.089 504.95 753.729 489.12C734.419 500.22 732.559 500.21 721.209 500.43Z" fill="#592D3D"/>
<path d="M443.141 621.86C443.141 602.96 556.861 605.8 556.861 621.86C556.861 636.94 550.87 651.403 540.207 662.066C529.543 672.73 515.081 678.72 500.001 678.72C484.92 678.72 470.458 672.73 459.795 662.066C449.131 651.403 443.141 636.94 443.141 621.86Z" fill="#592D3D"/>
<path d="M443.141 621.86C443.141 602.96 556.861 605.8 556.861 621.86C556.861 636.94 550.87 651.403 540.207 662.066C529.543 672.73 515.081 678.72 500.001 678.72C484.92 678.72 470.458 672.73 459.795 662.066C449.131 651.403 443.141 636.94 443.141 621.86Z" stroke="#592D3D" stroke-width="6" stroke-miterlimit="10"/>
<path d="M532.488 646.6C532.488 638.54 517.938 632 499.998 632C482.058 632 467.508 638.54 467.508 646.6V690.94C467.508 705.35 482.058 717.02 499.998 717.02C517.938 717.02 532.488 705.35 532.488 690.94V646.61V646.6Z" fill="#F28195"/>
<path d="M532.488 646.6C532.488 638.54 517.938 632 499.998 632C482.058 632 467.508 638.54 467.508 646.6V690.94C467.508 705.35 482.058 717.02 499.998 717.02C517.938 717.02 532.488 705.35 532.488 690.94V646.61V646.6Z" stroke="#592D3D" stroke-width="8" stroke-miterlimit="10"/>
<path d="M479.309 626.6L480.219 626.39L480.979 626.25C481.469 626.17 481.979 626.11 482.439 626.07C483.399 625.972 484.364 625.938 485.329 625.97C487.284 626.013 489.227 626.284 491.119 626.78C495.078 627.787 498.666 629.908 501.459 632.89C504.086 635.703 505.85 639.212 506.539 643C507.166 646.509 506.687 650.125 505.169 653.35C503.089 650.42 501.509 647.8 499.849 645.59C499.101 644.533 498.279 643.53 497.389 642.59C496.584 641.762 495.68 641.037 494.699 640.43C492.833 639.31 490.75 638.601 488.589 638.35C487.451 638.2 486.306 638.127 485.159 638.13C484.569 638.13 483.979 638.13 483.399 638.13L482.549 638.19H482.149C482.059 638.19 481.859 638.19 481.929 638.19L479.309 626.6Z" fill="#592D3D"/>
<path d="M558.418 406.88C545.548 430.88 498.418 444.33 494.588 438.3C490.288 431.57 532.438 382.98 508.488 332.16" fill="#EDD494"/>
<path d="M500.15 221.81C369 221.81 247.79 328.25 226 457C226 457 427.33 472.23 500.66 390.25C496.01 412.9 482.94 430.12 485.15 433.58C488.23 438.42 526.07 427.66 536.4 408.36L532.74 402.88C582.65 421 680.23 443.46 746 375.26C702.52 285 604.61 221.81 500.15 221.81Z" fill="#D96E27"/>
<path d="M331.517 454.81C325.081 447.858 320.705 439.253 318.877 429.958C317.049 420.662 317.842 411.041 321.168 402.17C314.133 401.706 307.27 399.793 301.01 396.549C294.75 393.306 289.229 388.803 284.793 383.323C280.357 377.843 277.103 371.504 275.235 364.706C273.367 357.908 272.925 350.797 273.938 343.82C249.847 377.51 232.938 416.12 225.938 457C261.134 459.044 296.436 458.312 331.517 454.81Z" fill="#C65C22"/>
<path d="M739.659 389.6C664.999 447 579.069 424.7 533.509 405.69C523.369 423.63 488.249 433.58 485.359 429.05C483.359 425.97 494.179 411.4 499.139 391.89C424.859 472.16 239.289 463.89 239.289 463.89" stroke="#592D3D" stroke-width="12" stroke-miterlimit="10"/>
<path d="M280.918 140.17C273.902 140.493 267.018 142.192 260.658 145.17C254.645 147.936 249.302 151.972 244.998 157C244.447 157.606 243.936 158.248 243.468 158.92C242.988 159.58 242.468 160.2 242.008 160.92C241.075 162.28 240.22 163.692 239.448 165.15C237.859 168.079 236.553 171.153 235.548 174.33C233.626 181.086 232.852 188.117 233.258 195.13C229.71 188.331 228.368 180.596 229.418 173L229.948 170.14L230.238 168.7C230.348 168.23 230.508 167.77 230.648 167.3C230.928 166.36 231.208 165.42 231.518 164.49C231.828 163.56 232.278 162.69 232.658 161.78C233.458 159.983 234.381 158.242 235.418 156.57C235.928 155.72 236.558 154.96 237.118 154.15C237.677 153.337 238.285 152.559 238.938 151.82C244.071 145.781 250.888 141.408 258.518 139.26C265.875 137.036 273.766 137.357 280.918 140.17Z" fill="white"/>
<path d="M358.878 77.1498C352.812 76.9439 346.75 77.6175 340.878 79.1498C335.37 80.6428 330.144 83.0277 325.408 86.2098C320.676 89.4299 316.512 93.4143 313.088 97.9998C312.248 99.1798 311.288 100.31 310.558 101.58L309.348 103.46C308.918 104.08 308.638 104.76 308.258 105.46C306.714 108.163 305.345 110.962 304.158 113.84C303.733 110.608 303.865 107.327 304.548 104.14C304.718 103.34 304.818 102.51 305.068 101.72L305.808 99.3598C306.321 97.7748 306.959 96.2333 307.718 94.7498C310.74 88.6202 315.319 83.3923 320.998 79.5898C326.622 75.8037 333.129 73.5337 339.888 72.9998C346.493 72.4037 353.123 73.8525 358.878 77.1498Z" fill="white"/>
<path d="M407.291 474.84H286.651C281.091 474.84 275.531 474.76 269.971 474.84H269.731C264.501 474.84 259.491 479.44 259.731 484.84C259.775 487.479 260.842 489.997 262.708 491.863C264.574 493.729 267.092 494.796 269.731 494.84H390.371C395.921 494.84 401.491 494.92 407.051 494.84H407.291C412.521 494.84 417.531 490.24 417.291 484.84C417.245 482.202 416.176 479.686 414.311 477.82C412.445 475.955 409.929 474.886 407.291 474.84Z" fill="#592D3D"/>
<path d="M726.318 474.84H605.678C600.118 474.84 594.558 474.76 588.998 474.84H588.758C583.528 474.84 578.518 479.44 578.758 484.84C578.802 487.479 579.87 489.997 581.736 491.863C583.602 493.729 586.12 494.796 588.758 494.84H709.398C714.958 494.84 720.518 494.92 726.078 494.84H726.318C731.548 494.84 736.558 490.24 736.318 484.84C736.272 482.202 735.204 479.686 733.338 477.82C731.473 475.955 728.956 474.886 726.318 474.84Z" fill="#592D3D"/>
<path opacity="0.2" d="M382.91 628.5C401.6 628.5 416.75 613.349 416.75 594.66C416.75 575.97 401.6 560.82 382.91 560.82C364.221 560.82 349.07 575.97 349.07 594.66C349.07 613.349 364.221 628.5 382.91 628.5Z" fill="white"/>
<path opacity="0.4" d="M375.868 631L419.178 589.26C416.875 584.835 414.348 580.529 411.608 576.36L365.738 620.57C367.638 621.9 373.718 630.08 375.868 631Z" fill="white"/>
<path d="M382.91 628.5C401.6 628.5 416.75 613.349 416.75 594.66C416.75 575.97 401.6 560.82 382.91 560.82C364.221 560.82 349.07 575.97 349.07 594.66C349.07 613.349 364.221 628.5 382.91 628.5Z" stroke="#592D3D" stroke-width="12" stroke-miterlimit="10"/>
<path d="M378 580.47C379.22 584.3 374.5 587.25 371 587.84C367.46 587.84 365.1 585.48 363.92 582.53C363.33 579.58 363.92 576.63 366.28 574.86C369.23 573.68 373.36 572.5 375.98 575.53C376.63 576.176 377.144 576.947 377.491 577.795C377.838 578.644 378.011 579.553 378 580.47Z" fill="white"/>
<path d="M384.318 578.21C384.238 578.735 383.978 579.215 383.583 579.569C383.187 579.923 382.681 580.129 382.151 580.152C381.621 580.174 381.099 580.012 380.676 579.692C380.252 579.373 379.952 578.916 379.828 578.4C379.828 576.63 380.418 576.04 382.098 575.98C382.687 575.98 383.252 576.214 383.668 576.63C384.084 577.047 384.318 577.611 384.318 578.2V578.21Z" fill="white"/>
<path opacity="0.2" d="M615.199 628.5C633.889 628.5 649.039 613.349 649.039 594.66C649.039 575.97 633.889 560.82 615.199 560.82C596.51 560.82 581.359 575.97 581.359 594.66C581.359 613.349 596.51 628.5 615.199 628.5Z" fill="white"/>
<path opacity="0.4" d="M610.118 628.11L648.658 589.57C648.448 588.2 642.748 581.47 642.368 580.13L600.648 621.87C601.998 622.24 608.748 627.91 610.118 628.11Z" fill="white"/>
<path d="M615.199 628.5C633.889 628.5 649.039 613.349 649.039 594.66C649.039 575.97 633.889 560.82 615.199 560.82C596.51 560.82 581.359 575.97 581.359 594.66C581.359 613.349 596.51 628.5 615.199 628.5Z" stroke="#592D3D" stroke-width="12" stroke-miterlimit="10"/>
<path d="M607.36 579.91C608.36 583.16 604.36 585.66 601.36 586.16C598.36 586.16 596.36 584.16 595.36 581.66C594.86 579.16 595.36 576.66 597.36 575.16C599.86 574.16 603.36 573.16 605.59 575.73C606.149 576.274 606.593 576.923 606.897 577.641C607.201 578.359 607.358 579.13 607.36 579.91Z" fill="white"/>
<path d="M612.698 578C612.628 578.442 612.407 578.847 612.073 579.145C611.739 579.443 611.311 579.616 610.864 579.635C610.416 579.654 609.976 579.517 609.618 579.248C609.26 578.979 609.005 578.595 608.898 578.16C608.898 576.66 609.398 576.16 610.818 576.16C611.31 576.16 611.782 576.352 612.134 576.696C612.485 577.04 612.688 577.508 612.698 578Z" fill="white"/>
<path d="M416.738 594.66C472.525 574.66 527.402 574.66 581.368 594.66" stroke="#592D3D" stroke-width="12" stroke-miterlimit="10"/>
<path opacity="0.15" d="M615.198 634.5C605.388 634.486 595.926 630.858 588.621 624.309C581.316 617.761 576.68 608.751 575.598 599C525.598 581.35 474.138 581.36 422.498 599C421.865 604.798 419.966 610.386 416.935 615.369C413.904 620.352 409.815 624.608 404.958 627.837C400.1 631.065 394.592 633.186 388.824 634.051C383.056 634.915 377.169 634.502 371.578 632.84C377.052 635.526 383.091 636.856 389.187 636.717C395.283 636.578 401.256 634.975 406.601 632.042C411.947 629.109 416.508 624.932 419.899 619.865C423.291 614.798 425.414 608.99 426.088 602.93C475.308 586.07 524.368 586.05 572.018 602.93C572.679 608.998 574.793 614.817 578.179 619.895C581.565 624.973 586.125 629.161 591.472 632.104C596.82 635.047 602.797 636.658 608.899 636.802C615.001 636.946 621.048 635.618 626.528 632.93C622.846 633.993 619.031 634.522 615.198 634.5Z" fill="black"/>
</g>
</svg>
