<svg width="1000" height="990" viewBox="0 0 1000 990" fill="none" xmlns="http://www.w3.org/2000/svg">
<mask id="mask0_22_4408" style="mask-type:luminance" maskUnits="userSpaceOnUse" x="0" y="0" width="1000" height="966">
<path d="M1000 0H0V718.31H179.2C217.58 860.69 346.65 965.41 500 965.41C653.35 965.41 782.42 860.69 820.8 718.31H1000V0Z" fill="white"/>
</mask>
<g mask="url(#mask0_22_4408)">
<path d="M500.001 962.602C683.603 962.602 832.443 813.763 832.443 630.16C832.443 446.557 683.603 297.718 500.001 297.718C316.398 297.718 167.559 446.557 167.559 630.16C167.559 813.763 316.398 962.602 500.001 962.602Z" fill="#85C5E5"/>
<path d="M501.709 209.52C335.569 209.52 200.879 344.2 200.879 510.35V816.78C200.879 982.92 335.569 1117.61 501.709 1117.61C667.849 1117.61 802.539 982.92 802.539 816.78V510.35C802.539 344.2 667.849 209.52 501.709 209.52Z" fill="#D69AC7" stroke="#592D3D" stroke-width="12" stroke-miterlimit="10"/>
<path d="M610 758.72C700.76 758.72 682 872.96 682.87 1000H610V758.72Z" fill="#FDD2B2"/>
<path d="M632.74 831.87L610 870L621.38 1000H653.14C653.91 819.73 632.74 831.87 632.74 831.87Z" fill="#F3AB98"/>
<path d="M233.25 500C233.25 352.68 352.68 233.25 500 233.25C647.32 233.25 766.75 352.68 766.75 500C766.788 539.694 757.949 578.895 740.88 614.731C723.811 650.568 698.945 682.135 668.1 707.12C662.627 711.573 656.98 715.803 651.16 719.81C591 758 515 758 446.39 751.89C439.73 750.89 433.09 749.63 426.5 748.18C400.17 742.38 374.68 733.43 351.13 720.38C345.31 716.793 339.667 712.92 334.2 708.76C328.706 704.576 323.432 700.11 318.4 695.38C313.64 690.96 309.044 686.367 304.61 681.6C258.667 632.299 233.161 567.39 233.25 500Z" fill="#FDD2B2"/>
<path d="M269.612 634.48C270.312 635.68 271.002 636.88 271.722 638.06C272.152 638.78 272.602 639.48 273.052 640.2C273.712 641.27 274.372 642.34 275.052 643.39C275.532 644.15 276.052 644.89 276.512 645.63C277.172 646.63 277.832 647.63 278.512 648.63C279.022 649.39 279.512 650.15 280.072 650.91C280.732 651.91 281.392 652.83 282.072 653.79C282.612 654.56 283.172 655.32 283.722 656.09C284.272 656.86 285.062 657.94 285.722 658.86C286.382 659.78 286.872 660.39 287.452 661.15C288.032 661.91 288.822 662.95 289.522 663.85C290.222 664.75 290.712 665.36 291.312 666.11C291.912 666.86 292.722 667.87 293.432 668.74C294.142 669.61 294.662 670.23 295.282 670.97C295.902 671.71 296.722 672.69 297.452 673.54C298.182 674.39 298.722 675.01 299.362 675.74L301.582 678.24C302.232 678.97 302.892 679.68 303.582 680.4C304.442 681.34 305.312 682.27 306.182 683.19L307.392 684.47C308.682 685.81 309.982 687.15 311.302 688.47L311.562 688.74C312.852 690.02 314.162 691.29 315.472 692.55L317.052 694.05C318.002 694.94 318.952 695.83 319.912 696.71L321.072 697.77C322.072 698.71 323.162 699.63 324.212 700.55C327.478 703.397 330.812 706.127 334.212 708.74C339.672 712.9 345.315 716.773 351.142 720.36C374.692 733.36 400.142 742.36 426.512 748.16C433.102 749.61 439.742 750.86 446.402 751.87C488.502 755.62 533.402 757.05 575.682 748.79C508.452 729 185.592 612.74 388.802 257.48C386.082 258.73 383.402 260.02 380.742 261.36L380.152 261.65C378.932 262.26 377.712 262.89 376.502 263.53L375.502 264.06C371.742 266.06 368.022 268.13 364.372 270.29L363.472 270.82C362.312 271.51 361.162 272.21 360.012 272.92L359.142 273.46C355.568 275.693 352.052 278.003 348.592 280.39L347.512 281.14C346.422 281.9 345.352 282.66 344.282 283.43L343.622 283.9C341.442 285.493 339.288 287.107 337.162 288.74L336.542 289.22C335.542 290 334.542 290.8 333.542 291.61L332.372 292.55C331.372 293.36 330.372 294.17 329.372 295C327.262 296.75 325.182 298.55 323.132 300.37L321.992 301.37L319.302 303.82L318.002 305C315.148 307.667 312.358 310.39 309.632 313.17L308.252 314.58C307.462 315.4 306.672 316.22 305.892 317.05C305.432 317.54 304.972 318.05 304.522 318.53C303.148 319.997 301.795 321.483 300.462 322.99C300.012 323.5 299.552 323.99 299.102 324.53C298.392 325.34 297.692 326.16 296.992 326.98L295.482 328.77C294.802 329.58 294.122 330.39 293.482 331.21C292.942 331.87 292.402 332.54 291.872 333.21C290.802 334.54 289.752 335.87 288.712 337.21C288.172 337.91 287.632 338.61 287.102 339.32C286.572 340.03 285.902 340.91 285.312 341.72C284.722 342.53 284.242 343.17 283.722 343.9C283.202 344.63 282.592 345.45 282.042 346.23C281.095 347.563 280.162 348.913 279.242 350.28C278.742 351.01 278.242 351.76 277.752 352.5C277.262 353.24 276.652 354.16 276.112 355L274.622 357.31L272.942 360.02C272.512 360.71 272.082 361.4 271.662 362.09C270.772 363.55 269.912 365.02 269.052 366.49L267.832 368.65C267.292 369.6 266.752 370.56 266.222 371.52C265.822 372.25 265.422 372.98 265.032 373.71C264.392 374.9 263.762 376.1 263.132 377.3L261.932 379.64C261.292 380.92 260.652 382.19 260.022 383.48C259.692 384.17 259.352 384.87 259.022 385.57C258.502 386.66 258.022 387.76 257.492 388.86C257.182 389.52 256.882 390.18 256.582 390.86C255.842 392.507 255.118 394.173 254.412 395.86C254.192 396.38 253.982 396.91 253.762 397.43C253.232 398.7 252.712 399.97 252.202 401.25C251.932 401.92 251.672 402.59 251.412 403.25C250.912 404.51 250.412 405.78 249.962 407.05C249.752 407.6 249.542 408.15 249.342 408.7C248.715 410.453 248.098 412.207 247.492 413.96L246.932 415.66C246.492 416.993 246.062 418.327 245.642 419.66L245.042 421.57C244.572 423.11 244.112 424.65 243.672 426.2C243.572 426.53 243.472 426.86 243.382 427.2C242.862 429.04 242.362 430.887 241.882 432.74C241.722 433.33 241.582 433.93 241.432 434.52C241.082 435.91 240.742 437.3 240.432 438.7L240.012 440.45C239.582 442.35 239.162 444.25 238.772 446.16L238.622 446.93C238.282 448.63 237.948 450.33 237.622 452.03C237.512 452.64 237.412 453.24 237.302 453.85C237.042 455.34 236.792 456.85 236.562 458.35C236.482 458.86 236.392 459.35 236.322 459.87C236.022 461.82 235.752 463.78 235.492 465.75L235.342 467.05C235.142 468.64 234.962 470.24 234.792 471.84C234.732 472.44 234.662 473.04 234.602 473.65C234.442 475.33 234.292 477.02 234.152 478.71C234.152 479.06 234.092 479.4 234.072 479.71C233.925 481.71 233.795 483.727 233.682 485.76C233.682 486.29 233.682 486.83 233.612 487.36C233.545 488.933 233.485 490.503 233.432 492.07C233.432 492.66 233.432 493.25 233.432 493.84C233.432 495.89 233.352 497.95 233.352 500.01C233.352 500.01 233.352 500.08 233.352 500.11C233.352 502.33 233.352 504.53 233.432 506.73C233.432 507.49 233.492 508.25 233.512 509.01C233.562 510.48 233.612 511.95 233.682 513.42C233.682 514.31 233.792 515.19 233.842 516.08C233.922 517.41 233.992 518.74 234.092 520.08C234.162 521.08 234.252 521.97 234.332 522.91C234.442 524.17 234.542 525.43 234.672 526.68C234.762 527.68 234.882 528.62 234.982 529.59C235.122 530.8 235.252 532.02 235.402 533.23C235.522 534.23 235.662 535.23 235.792 536.18C235.952 537.36 236.112 538.55 236.292 539.73C236.442 540.73 236.602 541.73 236.762 542.73C236.942 543.89 237.132 545.06 237.332 546.22C237.512 547.22 237.692 548.22 237.882 549.22C238.092 550.37 238.312 551.52 238.532 552.66C238.752 553.8 238.942 554.66 239.152 555.66C239.392 556.8 239.632 557.93 239.892 559.06C240.152 560.19 240.332 561.06 240.572 561.99C240.832 563.12 241.112 564.24 241.392 565.35C241.672 566.46 241.882 567.3 242.132 568.26C242.432 569.38 242.732 570.49 243.042 571.6C243.302 572.6 243.572 573.52 243.852 574.47C244.172 575.58 244.502 576.68 244.852 577.78C245.202 578.88 245.432 579.67 245.732 580.62C246.032 581.57 246.432 582.81 246.792 583.9C247.152 584.99 247.412 585.77 247.732 586.7C248.112 587.79 248.492 588.88 248.882 589.97C249.212 590.88 249.532 591.8 249.882 592.71L251.122 595.98C251.472 596.87 251.812 597.77 252.122 598.66C252.562 599.75 253.012 600.85 253.462 601.94C253.822 602.8 254.172 603.67 254.542 604.53C255.012 605.65 255.542 606.75 255.992 607.86C256.362 608.68 256.722 609.51 257.092 610.33C257.612 611.49 258.162 612.63 258.692 613.77L259.772 616.07C260.382 617.33 261.012 618.57 261.642 619.82C261.962 620.45 262.262 621.09 262.592 621.72C264.512 625.46 266.512 629.15 268.592 632.79C268.882 633.26 269.252 633.87 269.612 634.48Z" fill="#F3AB98"/>
<path d="M233.25 500C233.25 352.68 352.68 233.25 500 233.25C647.32 233.25 766.75 352.68 766.75 500C766.788 539.694 757.949 578.895 740.88 614.731C723.811 650.568 698.945 682.135 668.1 707.12C662.627 711.573 656.98 715.803 651.16 719.81C591 758 515 758 446.39 751.89C439.73 750.89 433.09 749.63 426.5 748.18C400.17 742.38 374.68 733.43 351.13 720.38C345.31 716.793 339.667 712.92 334.2 708.76C328.706 704.576 323.432 700.11 318.4 695.38C313.64 690.96 309.044 686.367 304.61 681.6C258.667 632.299 233.161 567.39 233.25 500Z" stroke="#592D3D" stroke-width="12" stroke-miterlimit="10"/>
<path d="M386.122 758.72C295.352 758.72 314.122 872.96 313.252 1000H386.122V758.72Z" fill="#FDD2B2"/>
<path d="M367.232 831.87L390.002 870L378.612 1000H346.882C346.072 819.73 367.232 831.87 367.232 831.87Z" fill="#F3AB98"/>
<path d="M619.472 1070H380.532C377.011 1070 373.636 1068.6 371.148 1066.11C368.659 1063.62 367.262 1060.24 367.262 1056.72V772C367.262 768.48 368.659 765.103 371.148 762.613C373.636 760.123 377.011 758.723 380.532 758.72H613.762C626.852 758.72 632.762 766.38 632.762 778.6V1056.68C632.767 1058.43 632.427 1060.16 631.761 1061.78C631.096 1063.39 630.117 1064.86 628.883 1066.1C627.648 1067.34 626.181 1068.32 624.566 1068.99C622.951 1069.66 621.22 1070 619.472 1070Z" fill="#FDD2B2"/>
<path d="M629.052 766.62C628.055 765.394 627.212 764.051 626.542 762.62C624.141 760.738 621.284 759.527 618.262 759.11C616.773 758.879 615.268 758.766 613.762 758.77H380.532C377.02 758.773 373.652 760.166 371.165 762.645C368.679 765.125 367.275 768.488 367.262 772C396.262 782.42 450.552 788.24 500.002 788.24C563.062 788.24 604.382 778.89 629.052 766.62Z" fill="#F3AB98"/>
<path d="M610 758.72C700.76 758.72 682 872.96 682.87 1000H632.74" stroke="#592D3D" stroke-width="12" stroke-miterlimit="10" stroke-linecap="square"/>
<path d="M386.122 758.72C295.352 758.72 314.122 872.96 313.252 1000H363.322" stroke="#592D3D" stroke-width="12" stroke-miterlimit="10" stroke-linecap="square"/>
<path d="M380.531 758.82L613.761 758.72" stroke="#592D3D" stroke-width="12" stroke-miterlimit="10"/>
<path d="M380.532 1070H497.152C388.002 1070 396.242 838.82 367.262 838.82V1056.68C367.257 1058.43 367.596 1060.16 368.26 1061.77C368.925 1063.39 369.901 1064.86 371.134 1066.09C372.366 1067.33 373.831 1068.31 375.444 1068.98C377.056 1069.65 378.785 1070 380.532 1070Z" fill="#F3AB98"/>
<path d="M361.259 860.85C361.069 857.18 361.149 853.51 361.309 849.85C361.469 846.19 361.779 842.5 362.169 838.85C362.369 837.01 362.569 835.18 362.819 833.34C363.069 831.5 363.309 829.67 363.669 827.83C364.378 824.022 365.585 820.323 367.259 816.83C368.933 820.323 370.14 824.022 370.849 827.83C371.209 829.67 371.469 831.5 371.699 833.34C371.929 835.18 372.149 837.01 372.349 838.85C372.729 842.52 373.029 846.19 373.199 849.85C373.369 853.51 373.449 857.19 373.259 860.85H361.259Z" fill="#592D3D"/>
<path d="M632.742 870V878C633.002 912 633.002 947 632.742 980.75C632.742 983.62 632.742 986.47 632.742 989.28V1056.69C632.746 1058.44 632.405 1060.16 631.74 1061.78C631.075 1063.39 630.099 1064.86 628.866 1066.1C627.634 1067.33 626.17 1068.31 624.558 1068.98C622.946 1069.65 621.217 1070 619.472 1070H380.532C377.011 1070 373.636 1068.6 371.148 1066.11C368.659 1063.62 367.262 1060.24 367.262 1056.72V998.52C367.262 996.01 367.262 993.45 367.262 990.87C367.012 956 367.012 921 367.262 885.57V860.85" stroke="#592D3D" stroke-width="12" stroke-miterlimit="10"/>
<path d="M626.74 870C626.55 865.83 626.64 861.65 626.8 857.47C626.96 853.29 627.27 849.12 627.65 844.94C627.85 842.85 628.06 840.76 628.3 838.67C628.54 836.58 628.79 834.5 629.15 832.41C629.847 828.106 631.052 823.9 632.74 819.88C634.428 823.9 635.633 828.106 636.33 832.41C636.69 834.5 636.95 836.59 637.18 838.67C637.41 840.75 637.63 842.85 637.83 844.94C638.21 849.12 638.52 853.29 638.68 857.47C638.84 861.65 638.93 865.83 638.74 870H626.74Z" fill="#592D3D"/>
<path d="M570.68 842.45C570.9 833 582.9 829 588.9 835C589.875 835.995 590.644 837.173 591.164 838.466C591.684 839.759 591.944 841.141 591.93 842.535C591.915 843.928 591.627 845.305 591.08 846.587C590.534 847.868 589.74 849.03 588.745 850.005C587.749 850.98 586.572 851.75 585.279 852.269C583.986 852.789 582.603 853.05 581.21 853.035C579.817 853.021 578.44 852.732 577.158 852.186C575.876 851.639 574.715 850.845 573.74 849.85C572.766 848.88 571.994 847.726 571.469 846.456C570.944 845.186 570.675 843.824 570.68 842.45Z" fill="#592D3D"/>
<path d="M408.109 842.15C407.899 834 416.899 830 422.899 833C430.899 836 430.899 847 422.899 852C418.899 854 414.899 852 411.149 849.52C410.182 848.552 409.416 847.403 408.894 846.138C408.372 844.873 408.106 843.518 408.109 842.15Z" fill="#592D3D"/>
<path d="M500 831.77C500.715 833.655 501.218 835.614 501.5 837.61C501.797 839.543 501.961 841.494 501.99 843.45L502.29 855.14C502.38 859.03 502.5 862.93 502.54 866.83L502.71 878.5C502.94 894.07 502.93 909.66 502.99 925.24C503.05 940.82 503.17 956.4 502.99 971.98C502.9 979.77 502.69 987.56 502.46 995.35C502.36 999.24 502.17 1003.14 501.79 1007.03C501.45 1010.96 500.859 1014.87 500.02 1018.72C499.181 1014.87 498.59 1010.96 498.25 1007.03C497.87 1003.14 497.68 999.24 497.58 995.35C497.35 987.56 497.14 979.77 497.05 971.98C496.85 956.4 497.05 940.82 497.05 925.24C497.05 909.66 497.05 894.09 497.23 878.51L497.4 866.81L497.73 855.13L498.06 843.45C498.097 841.494 498.264 839.543 498.56 837.61C498.822 835.616 499.305 833.657 500 831.77Z" fill="#F3AB98"/>
<path d="M425.219 883C426.702 882.295 428.272 881.791 429.889 881.5C431.433 881.21 432.998 881.043 434.569 881L443.919 880.67L462.619 880.26C475.079 880.07 487.529 880.02 499.999 879.99C512.469 879.96 524.929 879.83 537.389 879.99C543.619 880.08 549.849 880.29 556.089 880.52C559.199 880.63 562.319 880.82 565.429 881.19C568.587 881.54 571.713 882.135 574.779 882.97C571.715 883.81 568.588 884.402 565.429 884.74C562.319 885.12 559.199 885.31 556.089 885.41C549.849 885.64 543.619 885.84 537.389 885.93C524.929 886.12 512.469 885.93 499.999 885.93C487.529 885.93 475.069 885.93 462.599 885.78C456.369 885.72 450.139 885.52 443.919 885.28L434.569 884.94C433.001 884.898 431.44 884.731 429.899 884.44C428.282 884.17 426.708 883.686 425.219 883Z" fill="#F3AB98"/>
<path d="M442.41 914.38C443.591 913.817 444.853 913.442 446.15 913.27C447.349 913.101 448.561 913.05 449.77 913.12C452.16 913.22 454.55 913.28 456.94 913.33C461.72 913.44 466.5 913.48 471.28 913.5C480.91 913.5 490.37 913.58 500.04 913.29C509.71 913 519.3 912.86 528.92 912.9C533.73 912.9 538.54 913.03 543.34 913.14C545.757 913.172 548.17 913.329 550.57 913.61C553.037 913.882 555.472 914.395 557.84 915.14C555.528 916.048 553.129 916.718 550.68 917.14C548.296 917.569 545.888 917.857 543.47 918C538.65 918.35 533.83 918.65 529.02 918.82C519.38 919.18 509.75 919.14 500.14 919.27C495.33 919.27 490.53 919.49 485.66 919.37C480.79 919.25 475.97 919.24 471.14 919.06C466.31 918.88 461.46 918.48 456.64 917.98C454.22 917.71 451.82 917.41 449.41 917.08C448.193 916.931 446.996 916.649 445.84 916.24C444.599 915.82 443.439 915.191 442.41 914.38Z" fill="#F3AB98"/>
<path d="M438.93 949.87C440.116 949.172 441.405 948.666 442.75 948.37C444.003 948.079 445.283 947.914 446.57 947.88L454.2 947.56C459.29 947.38 464.39 947.23 469.48 947.15C479.66 947 489.84 947 500 947C510.16 947 520.36 946.83 530.54 947C535.63 947.09 540.72 947.3 545.81 947.53C548.363 947.616 550.91 947.836 553.44 948.19C556.045 948.547 558.61 949.154 561.1 950C558.618 950.831 556.063 951.423 553.47 951.77C550.937 952.132 548.387 952.356 545.83 952.44C540.74 952.67 535.65 952.88 530.56 952.97C520.38 953.17 510.19 953.03 500.01 952.97C489.83 952.91 479.65 952.91 469.47 952.72C464.38 952.62 459.28 952.44 454.19 952.23L446.56 951.86C445.273 951.821 443.993 951.653 442.74 951.36C441.398 951.07 440.112 950.567 438.93 949.87Z" fill="#F3AB98"/>
<path d="M613.762 758.16H559.552V758.26H589.002C589.004 767.375 588.295 776.476 586.882 785.48C586.215 789.86 585.358 794.153 584.312 798.36C581.275 810.482 576.308 822.036 569.602 832.58C567.583 835.711 565.375 838.717 562.992 841.58C525.932 878.58 467.042 880.58 431.252 840.39C427.29 835.602 423.79 830.449 420.802 825C414.14 812.69 409.609 799.342 407.402 785.52C406.735 781.14 406.208 776.677 405.822 772.13C405.472 767.59 405.282 762.98 405.282 758.31H434.752V758.21H380.532C381.352 780.5 378.942 833.85 371.422 842.69L367.262 1056.17C367.262 1059.69 368.66 1063.06 371.148 1065.55C373.637 1068.04 377.012 1069.44 380.532 1069.44H619.472C622.991 1069.44 626.366 1068.04 628.855 1065.55C631.344 1063.06 632.742 1059.69 632.742 1056.17L630.362 840.81C620.612 840.76 613.422 783.07 613.762 758.16Z" fill="white"/>
<path d="M632.739 831.31L609.949 869.4L621.339 999.43H632.939V893.78L632.739 831.31Z" fill="#E2E2E2"/>
<path d="M380.532 1069.39H497.152C387.952 1069.39 396.242 838.25 367.262 838.25V1056.12C367.262 1059.64 368.66 1063.01 371.148 1065.5C373.637 1067.99 377.012 1069.39 380.532 1069.39Z" fill="#E2E2E2"/>
<path d="M361.26 860.4C361.047 857.642 361.013 854.873 361.16 852.11C361.287 849.343 361.523 846.573 361.87 843.8C362.05 842.41 362.22 841.03 362.44 839.64C362.66 838.25 362.88 836.87 363.22 835.48C363.905 832.528 365.066 829.708 366.66 827.13C368.347 829.646 369.607 832.423 370.39 835.35C370.78 836.73 371.07 838.11 371.32 839.48C371.57 840.85 371.82 842.24 372.04 843.62C372.48 846.37 372.83 849.13 373.04 851.89C373.295 854.646 373.365 857.415 373.25 860.18L361.26 860.4Z" fill="#592D3D"/>
<path d="M632.742 869.4V877.4C633.002 911.4 633.002 946.4 632.742 980.16C632.742 983.03 632.742 985.88 632.742 988.69V1056.1C632.742 1059.62 631.344 1062.99 628.855 1065.48C626.366 1067.97 622.991 1069.37 619.472 1069.37H380.532C377.012 1069.37 373.637 1067.97 371.148 1065.48C368.66 1062.99 367.262 1059.62 367.262 1056.1V998C367.262 995.493 367.262 992.943 367.262 990.35C367.012 955.49 367.012 920.49 367.262 885.05V860.29" stroke="#592D3D" stroke-width="12" stroke-miterlimit="10"/>
<path d="M626.762 869.38C626.793 866.526 627.01 863.676 627.412 860.85C627.792 858.017 628.278 855.193 628.872 852.38C629.172 850.97 629.472 849.56 629.812 848.16C630.152 846.76 630.502 845.35 630.962 843.95C631.905 840.985 633.316 838.19 635.142 835.67C636.608 838.416 637.621 841.381 638.142 844.45C638.402 845.9 638.562 847.34 638.692 848.78C638.822 850.22 638.942 851.66 639.042 853.09C639.222 855.96 639.322 858.83 639.292 861.68C639.292 864.535 639.112 867.388 638.752 870.22L626.762 869.38Z" fill="#592D3D"/>
<path d="M368.102 833C389.682 827.73 380.532 758.27 380.532 758.27L613.762 758.17C613.762 758.17 617.692 834.79 632.942 841.09" stroke="#592D3D" stroke-width="12" stroke-miterlimit="10"/>
<path d="M589.001 758.26C589.007 767.374 588.301 776.475 586.891 785.48C586.225 789.86 585.368 794.153 584.321 798.36C581.285 810.482 576.318 822.036 569.611 832.58C567.592 835.711 565.385 838.717 563.001 841.58C525.941 878.58 467.051 880.58 431.261 840.39C427.296 835.602 423.793 830.449 420.801 825C414.14 812.69 409.609 799.342 407.401 785.52C406.735 781.14 406.208 776.677 405.821 772.13C405.471 767.59 405.281 762.98 405.281 758.31" stroke="#592D3D" stroke-width="12" stroke-miterlimit="10"/>
<path d="M566.881 947.83C566.881 938.97 555.781 930.57 538.771 925.36C542.701 908.02 540.951 894.23 533.261 889.81C531.468 888.621 529.326 888.071 527.181 888.25C519.181 888.38 509.871 893.6 499.951 902.87C490.001 893.65 479.001 888.2 472.711 888.36C469.551 888.45 468.341 888.88 466.551 889.92C458.881 894.33 457.171 908.1 461.121 925.39C444.121 930.62 433.121 939 433.121 947.83C433.121 956.66 444.221 965.09 461.231 970.3C457.301 987.64 459.051 1001.43 466.741 1005.85C468.61 1006.9 470.727 1007.43 472.871 1007.38C480.371 1007.38 490.181 1002.03 500.111 992.76C510.031 1001.98 519.851 1007.27 527.351 1007.27C529.504 1007.32 531.63 1006.79 533.511 1005.74C541.171 1001.32 542.891 987.55 538.931 970.27C555.841 965.06 566.881 956.66 566.881 947.83ZM527.161 894.34C528.238 894.309 529.305 894.553 530.261 895.05C533.971 897.18 535.581 905.28 534.331 915.69C534.031 918.25 533.541 920.95 532.941 923.69C527.24 922.309 521.454 921.307 515.621 920.69C512.149 915.899 508.361 911.346 504.281 907.06C513.161 898.87 521.491 894.35 527.161 894.34ZM475.841 961.79C477.121 963.97 478.431 966.097 479.771 968.17C475.901 967.6 472.161 966.89 468.591 966.02C469.591 962.5 470.851 958.87 472.271 955.25C473.391 957.43 474.561 959.61 475.841 961.79ZM468.511 929.64C472.081 928.8 475.841 928.06 479.741 927.49C478.411 929.59 477.071 931.74 475.821 933.95C474.571 936.16 473.391 938.31 472.271 940.49C470.838 936.938 469.583 933.317 468.511 929.64ZM475.461 947.91C477.151 944.26 479.061 940.6 481.111 937.03C483.161 933.46 485.411 929.86 487.681 926.62C491.741 926.26 495.861 926.07 500.001 926.07C504.141 926.07 508.231 926.26 512.271 926.59C514.531 929.83 516.741 933.3 518.871 936.95C521.001 940.6 522.871 944.15 524.541 947.8C522.821 951.46 520.941 955.11 518.891 958.68C516.841 962.25 514.591 965.85 512.321 969.1C508.261 969.45 504.141 969.64 500.001 969.64C495.861 969.64 491.771 969.45 487.731 969.12C485.471 965.88 483.261 962.42 481.131 958.76C479.001 955.1 477.181 951.56 475.461 947.91ZM524.161 961.71C525.411 959.53 526.581 957.32 527.701 955.14C529.135 958.695 530.39 962.319 531.461 966C527.891 966.87 524.131 967.61 520.231 968.18C521.571 966.07 522.901 963.92 524.161 961.71ZM524.161 933.87C522.911 931.69 521.571 929.56 520.231 927.49C524.111 928.057 527.838 928.773 531.411 929.64C530.411 933.16 529.151 936.79 527.731 940.41C526.581 938.23 525.411 936.05 524.131 933.87H524.161ZM507.501 920.15C505.041 920.05 502.501 919.96 500.001 919.96C497.501 919.96 494.901 920.02 492.421 920.15C494.761 917.109 497.265 914.198 499.921 911.43C502.593 914.207 505.123 917.117 507.501 920.15ZM469.571 895.15C470.535 894.636 471.62 894.39 472.711 894.44C478.351 894.44 486.711 898.94 495.611 907.15C491.553 911.422 487.79 915.966 484.351 920.75C478.51 921.354 472.716 922.357 467.011 923.75C466.381 921.03 465.921 918.38 465.591 915.85C464.311 905.43 465.891 897.33 469.571 895.18V895.15ZM462.701 964.38C460.001 963.53 457.441 962.6 455.071 961.6C445.411 957.48 439.171 952.08 439.171 947.8C439.171 943.52 445.411 938.09 455.071 934C457.411 933 459.971 932.09 462.621 931.25C464.287 936.915 466.335 942.461 468.751 947.85C466.364 953.227 464.343 958.76 462.701 964.41V964.38ZM472.821 1001.29C471.75 1001.31 470.691 1001.06 469.741 1000.56C466.031 998.43 464.421 990.33 465.671 979.92C465.971 977.35 466.461 974.66 467.061 971.92C472.761 973.306 478.547 974.308 484.381 974.92C487.851 979.716 491.639 984.273 495.721 988.56C486.831 996.8 478.491 1001.32 472.821 1001.32V1001.29ZM500.051 984.2C497.379 981.419 494.849 978.506 492.471 975.47C494.931 975.58 497.471 975.66 499.971 975.66C502.471 975.66 505.071 975.61 507.551 975.47C505.212 978.524 502.708 981.448 500.051 984.23V984.2ZM530.431 1000.45C529.467 1000.96 528.383 1001.21 527.291 1001.16C521.651 1001.16 513.291 996.66 504.391 988.45C508.45 984.178 512.212 979.634 515.651 974.85C521.493 974.246 527.286 973.243 532.991 971.85C533.605 974.466 534.079 977.113 534.411 979.78C535.691 990.23 534.111 998.32 530.431 1000.48V1000.45ZM544.911 961.6C542.561 962.6 540.001 963.5 537.351 964.35C535.683 958.682 533.635 953.133 531.221 947.74C533.594 942.376 535.599 936.857 537.221 931.22C539.921 932.07 542.481 932.99 544.881 934C554.541 938.12 560.781 943.52 560.781 947.8C560.781 952.08 554.561 957.54 544.911 961.63V961.6Z" fill="black" stroke="white" stroke-width="16"/>
<path d="M499.972 960.29C506.853 960.29 512.432 954.711 512.432 947.83C512.432 940.949 506.853 935.37 499.972 935.37C493.09 935.37 487.512 940.949 487.512 947.83C487.512 954.711 493.09 960.29 499.972 960.29Z" fill="black" stroke="white" stroke-width="24"/>
<path d="M566.881 947.83C566.881 938.97 555.781 930.57 538.771 925.36C542.701 908.02 540.951 894.23 533.261 889.81C531.468 888.621 529.326 888.071 527.181 888.25C519.181 888.38 509.871 893.6 499.951 902.87C490.001 893.65 479.001 888.2 472.711 888.36C469.551 888.45 468.341 888.88 466.551 889.92C458.881 894.33 457.171 908.1 461.121 925.39C444.121 930.62 433.121 939 433.121 947.83C433.121 956.66 444.221 965.09 461.231 970.3C457.301 987.64 459.051 1001.43 466.741 1005.85C468.61 1006.9 470.727 1007.43 472.871 1007.38C480.371 1007.38 490.181 1002.03 500.111 992.76C510.031 1001.98 519.851 1007.27 527.351 1007.27C529.504 1007.32 531.63 1006.79 533.511 1005.74C541.171 1001.32 542.891 987.55 538.931 970.27C555.841 965.06 566.881 956.66 566.881 947.83ZM527.161 894.34C528.238 894.309 529.305 894.553 530.261 895.05C533.971 897.18 535.581 905.28 534.331 915.69C534.031 918.25 533.541 920.95 532.941 923.69C527.24 922.309 521.454 921.307 515.621 920.69C512.149 915.899 508.361 911.346 504.281 907.06C513.161 898.87 521.491 894.35 527.161 894.34ZM475.841 961.79C477.121 963.97 478.431 966.097 479.771 968.17C475.901 967.6 472.161 966.89 468.591 966.02C469.591 962.5 470.851 958.87 472.271 955.25C473.391 957.43 474.561 959.61 475.841 961.79ZM468.511 929.64C472.081 928.8 475.841 928.06 479.741 927.49C478.411 929.59 477.071 931.74 475.821 933.95C474.571 936.16 473.391 938.31 472.271 940.49C470.838 936.938 469.583 933.317 468.511 929.64ZM475.461 947.91C477.151 944.26 479.061 940.6 481.111 937.03C483.161 933.46 485.411 929.86 487.681 926.62C491.741 926.26 495.861 926.07 500.001 926.07C504.141 926.07 508.231 926.26 512.271 926.59C514.531 929.83 516.741 933.3 518.871 936.95C521.001 940.6 522.871 944.15 524.541 947.8C522.821 951.46 520.941 955.11 518.891 958.68C516.841 962.25 514.591 965.85 512.321 969.1C508.261 969.45 504.141 969.64 500.001 969.64C495.861 969.64 491.771 969.45 487.731 969.12C485.471 965.88 483.261 962.42 481.131 958.76C479.001 955.1 477.181 951.56 475.461 947.91ZM524.161 961.71C525.411 959.53 526.581 957.32 527.701 955.14C529.135 958.695 530.39 962.319 531.461 966C527.891 966.87 524.131 967.61 520.231 968.18C521.571 966.07 522.901 963.92 524.161 961.71ZM524.161 933.87C522.911 931.69 521.571 929.56 520.231 927.49C524.111 928.057 527.838 928.773 531.411 929.64C530.411 933.16 529.151 936.79 527.731 940.41C526.581 938.23 525.411 936.05 524.131 933.87H524.161ZM507.501 920.15C505.041 920.05 502.501 919.96 500.001 919.96C497.501 919.96 494.901 920.02 492.421 920.15C494.761 917.109 497.265 914.198 499.921 911.43C502.593 914.207 505.123 917.117 507.501 920.15ZM469.571 895.15C470.535 894.636 471.62 894.39 472.711 894.44C478.351 894.44 486.711 898.94 495.611 907.15C491.553 911.422 487.79 915.966 484.351 920.75C478.51 921.354 472.716 922.357 467.011 923.75C466.381 921.03 465.921 918.38 465.591 915.85C464.311 905.43 465.891 897.33 469.571 895.18V895.15ZM462.701 964.38C460.001 963.53 457.441 962.6 455.071 961.6C445.411 957.48 439.171 952.08 439.171 947.8C439.171 943.52 445.411 938.09 455.071 934C457.411 933 459.971 932.09 462.621 931.25C464.287 936.915 466.335 942.461 468.751 947.85C466.364 953.227 464.343 958.76 462.701 964.41V964.38ZM472.821 1001.29C471.75 1001.31 470.691 1001.06 469.741 1000.56C466.031 998.43 464.421 990.33 465.671 979.92C465.971 977.35 466.461 974.66 467.061 971.92C472.761 973.306 478.547 974.308 484.381 974.92C487.851 979.716 491.639 984.273 495.721 988.56C486.831 996.8 478.491 1001.32 472.821 1001.32V1001.29ZM500.051 984.2C497.379 981.419 494.849 978.506 492.471 975.47C494.931 975.58 497.471 975.66 499.971 975.66C502.471 975.66 505.071 975.61 507.551 975.47C505.212 978.524 502.708 981.448 500.051 984.23V984.2ZM530.431 1000.45C529.467 1000.96 528.383 1001.21 527.291 1001.16C521.651 1001.16 513.291 996.66 504.391 988.45C508.45 984.178 512.212 979.634 515.651 974.85C521.493 974.246 527.286 973.243 532.991 971.85C533.605 974.466 534.079 977.113 534.411 979.78C535.691 990.23 534.111 998.32 530.431 1000.48V1000.45ZM544.911 961.6C542.561 962.6 540.001 963.5 537.351 964.35C535.683 958.682 533.635 953.133 531.221 947.74C533.594 942.376 535.599 936.857 537.221 931.22C539.921 932.07 542.481 932.99 544.881 934C554.541 938.12 560.781 943.52 560.781 947.8C560.781 952.08 554.561 957.54 544.911 961.63V961.6Z" fill="#61DAFB"/>
<path d="M499.972 960.29C506.853 960.29 512.432 954.711 512.432 947.83C512.432 940.949 506.853 935.37 499.972 935.37C493.09 935.37 487.512 940.949 487.512 947.83C487.512 954.711 493.09 960.29 499.972 960.29Z" fill="#61DAFB"/>
<path d="M271.401 568.53C270.401 540.17 289.401 516.17 314.681 504.97C317.336 503.883 320.062 502.981 322.841 502.27C336.856 498.806 351.599 499.759 365.051 505C368.12 506.18 371.103 507.57 373.981 509.16C403.511 525.05 416.771 562.41 405.341 592.62C404.183 595.666 402.785 598.615 401.161 601.44C397.173 609.748 391.15 616.913 383.651 622.27C381.149 624.111 378.527 625.781 375.801 627.27C348.421 640.27 311.421 636.27 289.351 615.87C287.141 613.527 285.099 611.031 283.241 608.4C281.118 605.397 279.255 602.219 277.671 598.9C274.318 592.095 272.389 584.677 272.001 577.1C271.639 574.257 271.439 571.396 271.401 568.53Z" fill="#F3AB98"/>
<path d="M269.772 550.18C268.772 521.82 287.772 497.82 313.052 486.62C315.703 485.533 318.427 484.631 321.202 483.92C335.215 480.438 349.962 481.374 363.422 486.6C366.487 487.78 369.468 489.17 372.342 490.76C401.872 506.65 415.132 544.02 403.702 574.22C402.552 577.269 401.154 580.219 399.522 583.04C398.14 585.749 396.566 588.356 394.812 590.84C393.084 593.302 391.186 595.641 389.132 597.84C386.912 600.037 384.532 602.066 382.012 603.91C379.512 605.753 376.889 607.424 374.162 608.91C346.782 621.91 309.782 617.91 287.722 597.52C285.511 595.174 283.47 592.674 281.612 590.04C279.487 587.037 277.62 583.859 276.032 580.54C272.67 573.761 270.727 566.366 270.322 558.81C269.964 555.947 269.781 553.065 269.772 550.18Z" fill="white" stroke="#592D3D" stroke-width="12" stroke-miterlimit="10"/>
<path d="M338.51 563.03C345.27 563.03 350.75 557.55 350.75 550.79C350.75 544.03 345.27 538.55 338.51 538.55C331.75 538.55 326.27 544.03 326.27 550.79C326.27 557.55 331.75 563.03 338.51 563.03Z" fill="#592D3D"/>
<path d="M583.89 560.47C584.32 545.34 590.56 530.38 598.99 519.14C601.143 516.12 603.523 513.268 606.11 510.61C617.61 498.622 633.013 491.133 649.543 489.492C666.074 487.852 682.648 492.166 696.28 501.66C698.552 503.245 700.732 504.958 702.81 506.79C729.81 528.24 732.93 569.93 718.13 600.02C716.692 602.411 715.096 604.703 713.35 606.88C711.037 609.781 708.503 612.499 705.77 615.01C685.5 632.84 653.96 637.14 628.36 627.43C624.713 626.054 621.185 624.382 617.81 622.43C599.91 611.65 587.44 591.34 584.38 570.2C583.966 566.974 583.802 563.721 583.89 560.47Z" fill="#F3AB98"/>
<path d="M589.382 549C589.802 534.85 595.802 520.85 603.902 510.34C605.986 507.506 608.279 504.832 610.762 502.34C622.013 491.101 636.821 484.123 652.651 482.602C668.481 481.08 684.347 485.11 697.532 494C699.714 495.477 701.811 497.076 703.812 498.79C729.812 518.86 732.812 557.86 718.552 586.01C717.17 588.255 715.633 590.4 713.952 592.43C711.72 595.146 709.282 597.686 706.662 600.03C687.152 616.71 656.802 620.74 632.172 611.65C628.658 610.346 625.257 608.758 622.002 606.9C604.782 596.82 592.782 577.82 589.832 558.05C589.439 555.05 589.289 552.024 589.382 549Z" fill="white" stroke="#592D3D" stroke-width="12" stroke-miterlimit="10"/>
<path d="M659.209 563.03C665.969 563.03 671.449 557.55 671.449 550.79C671.449 544.03 665.969 538.55 659.209 538.55C652.449 538.55 646.969 544.03 646.969 550.79C646.969 557.55 652.449 563.03 659.209 563.03Z" fill="#592D3D"/>
<path fill-rule="evenodd" clip-rule="evenodd" d="M243.891 484.13C249.531 499.96 264.791 508.19 277.291 511.07C290.351 490.83 333.941 482.15 366.661 493.63C394.461 498.63 355.851 468.06 294.191 484.63C291.881 485.48 279.631 487.58 263.911 475.44C261.721 473.75 268.591 489.15 276.411 495.44C265.061 495.21 263.201 495.22 243.891 484.13Z" fill="#592D3D"/>
<path fill-rule="evenodd" clip-rule="evenodd" d="M721.209 495.43C729.029 489.18 735.899 473.78 733.709 475.43C717.989 487.57 705.709 485.43 703.429 484.62C641.769 468.02 603.149 498.62 630.949 493.62C663.679 482.14 707.269 490.82 720.329 511.06C732.829 508.18 748.089 499.95 753.729 484.12C734.419 495.22 732.559 495.21 721.209 495.43Z" fill="#592D3D"/>
<path d="M446.66 606.02H542.53" stroke="#592D3D" stroke-width="12" stroke-miterlimit="10" stroke-linecap="round"/>
<path d="M559.289 397.34C546.419 421.34 499.289 434.78 495.459 428.76C491.159 422.03 533.299 373.44 509.359 322.62" fill="#F3AB98"/>
<path d="M746.9 365.72C703.39 275.43 606.63 223.72 502.16 223.72C370.97 223.72 248.66 318.72 226.84 447.46C226.84 447.46 429.25 462.78 502.09 380.06C511.7 384.77 658.18 457.67 746.9 365.72Z" fill="#D69AC7"/>
<path d="M502.161 233.15C484.72 234.338 467.388 236.787 450.301 240.48L437.621 243.53C433.421 244.66 429.261 245.9 425.081 247.08L412.691 251.08C408.601 252.54 404.561 254.08 400.491 255.62C384.309 261.977 368.639 269.57 353.621 278.33C338.555 287.206 324.106 297.088 310.371 307.91C322.652 295.213 336.336 283.954 351.161 274.35C365.998 264.65 381.795 256.504 398.301 250.04C402.471 248.54 406.621 246.98 410.801 245.53C415.041 244.24 419.241 242.83 423.501 241.63C427.761 240.43 432.081 239.44 436.391 238.42C440.701 237.4 445.071 236.66 449.391 235.89C466.812 232.906 484.525 231.986 502.161 233.15Z" fill="#592D3D"/>
<path d="M537.229 398.81C526.899 418.12 489.069 428.88 485.999 424C482.549 418.6 516.379 379.58 497.159 338.78" fill="#D69AC7"/>
<path d="M240.152 454.33C240.152 454.33 425.722 462.61 500.012 382.33C495.012 401.85 484.262 416.42 486.222 419.49C489.112 424.02 524.222 414.07 534.382 396.14C579.942 415.14 665.862 437.47 740.532 380.05" stroke="#592D3D" stroke-width="12" stroke-miterlimit="10"/>
<path d="M407.291 474.84H286.651C281.091 474.84 275.531 474.76 269.971 474.84H269.731C264.501 474.84 259.491 479.44 259.731 484.84C259.775 487.479 260.842 489.997 262.708 491.863C264.574 493.729 267.092 494.796 269.731 494.84H390.371C395.921 494.84 401.491 494.92 407.051 494.84H407.291C412.521 494.84 417.531 490.24 417.291 484.84C417.245 482.202 416.176 479.686 414.311 477.82C412.445 475.955 409.929 474.886 407.291 474.84Z" fill="#592D3D"/>
<path d="M726.322 474.84H605.682C600.122 474.84 594.562 474.76 589.002 474.84H588.762C583.532 474.84 578.522 479.44 578.762 484.84C578.806 487.479 579.874 489.997 581.739 491.863C583.605 493.729 586.124 494.796 588.762 494.84H709.402C714.962 494.84 720.522 494.92 726.082 494.84H726.322C731.552 494.84 736.562 490.24 736.322 484.84C736.276 482.202 735.208 479.686 733.342 477.82C731.477 475.955 728.96 474.886 726.322 474.84Z" fill="#592D3D"/>
<path opacity="0.15" d="M725 631.82C736.169 613.163 745.002 593.203 751.3 572.39C734.06 608.13 701.46 637.85 659.19 637.85C630.923 637.813 603.825 626.566 583.839 606.577C563.853 586.587 552.612 559.487 552.58 531.22C552.541 517.431 555.201 503.767 560.41 491H758C762.345 501.64 764.919 512.919 765.62 524.39C766.35 516.39 766.74 508.2 766.74 499.97C766.736 490.282 766.208 480.601 765.16 470.97H575H423.14H234.83C233.782 480.601 233.254 490.282 233.25 499.97C233.25 504.7 233.39 509.39 233.63 514.06C234.899 506.152 237.07 498.415 240.1 491H437.7C444.271 507.193 446.764 524.753 444.96 542.136C443.156 559.518 437.11 576.191 427.353 590.69C417.596 605.189 404.428 617.069 389.005 625.287C373.581 633.505 356.376 637.809 338.9 637.82C300.1 637.82 270.08 611.99 251.42 580.93C257.712 599.398 266.015 617.118 276.18 633.77C295.57 645.84 314.43 657.82 338.9 657.82C372.467 657.78 404.648 644.43 428.387 620.698C452.125 596.965 465.482 564.787 465.53 531.22C465.53 529.41 465.53 527.61 465.41 525.82C488.79 517.59 510.93 517.47 532.72 525.46C532.64 527.37 532.58 529.29 532.58 531.22C532.62 564.792 545.974 596.978 569.713 620.717C593.452 644.456 625.638 657.81 659.21 657.85C685 657.85 705 645.1 725 631.82ZM535.26 505.18C511.86 497.63 487.62 497.76 462.93 505.57C461.916 500.638 460.603 495.773 459 491H539.1C537.538 495.646 536.255 500.381 535.26 505.18Z" fill="black"/>
<path opacity="0.95" d="M233.59 469.82C233.59 469.82 234 502.05 234 520.02C234 584.43 274.48 636.65 338.9 636.65C358.593 636.641 377.963 631.648 395.207 622.136C412.45 612.623 427.005 598.902 437.516 582.248C448.028 565.595 454.153 546.552 455.322 526.894C456.49 507.236 452.664 487.601 444.2 469.82H233.59Z" fill="#592D3D"/>
<path opacity="0.95" d="M553.909 469.82C545.445 487.601 541.619 507.236 542.788 526.894C543.956 546.552 550.082 565.595 560.593 582.248C571.104 598.902 585.659 612.623 602.903 622.136C620.146 631.648 639.516 636.641 659.209 636.65C723.629 636.65 766.749 584.43 766.749 520.02C766.749 502.02 764.519 469.82 764.519 469.82H553.909Z" fill="#592D3D"/>
<path opacity="0.25" d="M319.999 626.86L443.069 503.78C440.364 497.681 437.012 491.892 433.069 486.51L302.719 616.88C308.107 620.813 313.9 624.158 319.999 626.86Z" fill="white"/>
<path d="M455.859 507.53C485.379 495.53 514.389 495.11 542.859 507.53" stroke="#592D3D" stroke-width="20" stroke-miterlimit="10"/>
<path d="M274.281 504.75C276.341 511.26 268.341 516.26 262.341 517.26C256.341 517.26 252.341 513.26 250.341 508.26C249.341 503.26 250.341 498.26 254.341 495.26C259.341 493.26 266.341 491.26 270.781 496.38C271.892 497.472 272.774 498.775 273.375 500.212C273.976 501.649 274.284 503.192 274.281 504.75Z" fill="white"/>
<path d="M285.001 500.93C284.391 505.26 278.391 505.26 277.391 501.26C277.391 498.26 278.391 497.26 281.231 497.16C282.23 497.16 283.189 497.557 283.896 498.264C284.603 498.971 285.001 499.93 285.001 500.93Z" fill="white"/>
<path opacity="0.25" d="M645.19 618.92L751.47 512.64C750.896 508.854 750.091 505.107 749.06 501.42L634 616.51C637.678 617.539 641.415 618.344 645.19 618.92Z" fill="white"/>
<path d="M590.68 505.73C592.74 512.24 584.74 517.24 578.74 518.24C572.74 518.24 568.74 514.24 566.74 509.24C565.74 504.24 566.74 499.24 570.74 496.24C575.74 494.24 582.74 492.24 587.19 497.36C588.3 498.452 589.18 499.755 589.779 501.193C590.379 502.63 590.685 504.173 590.68 505.73Z" fill="white"/>
<path d="M601.352 501.91C600.742 506.24 594.742 506.24 593.742 502.24C593.742 499.24 594.742 498.24 597.592 498.14C598.087 498.14 598.577 498.238 599.033 498.427C599.49 498.617 599.905 498.895 600.254 499.245C600.604 499.595 600.88 500.011 601.069 500.468C601.257 500.925 601.353 501.415 601.352 501.91Z" fill="white"/>
<path d="M233.593 469.82C233.593 469.82 233.253 501.51 234.003 520.02C236.603 584.38 274.483 636.65 338.903 636.65C358.596 636.641 377.966 631.648 395.209 622.136C412.453 612.623 427.008 598.902 437.519 582.248C448.03 565.595 454.156 546.552 455.324 526.894C456.493 507.236 452.667 487.601 444.203 469.82H233.593Z" stroke="#592D3D" stroke-width="20" stroke-miterlimit="10"/>
<path d="M553.909 469.82C545.445 487.601 541.619 507.236 542.788 526.894C543.956 546.552 550.082 565.595 560.593 582.248C571.104 598.902 585.659 612.623 602.903 622.136C620.146 631.648 639.516 636.641 659.209 636.65C723.629 636.65 766.749 585.12 766.749 520.71C766.749 502.71 764.519 469.82 764.519 469.82H553.909Z" stroke="#592D3D" stroke-width="20" stroke-miterlimit="10"/>
<path d="M423.141 469.81H574.971" stroke="#592D3D" stroke-width="20" stroke-miterlimit="10"/>
</g>
</svg>
