<svg width="1000" height="990" viewBox="0 0 1000 990" fill="none" xmlns="http://www.w3.org/2000/svg">
<mask id="mask0_22_271" style="mask-type:luminance" maskUnits="userSpaceOnUse" x="0" y="0" width="1000" height="966">
<path d="M1000 0H0V718.31H179.2C217.58 860.69 346.65 965.41 500 965.41C653.35 965.41 782.42 860.69 820.8 718.31H1000V0Z" fill="white"/>
</mask>
<g mask="url(#mask0_22_271)">
<path d="M500.001 962.602C683.603 962.602 832.443 813.763 832.443 630.16C832.443 446.558 683.603 297.718 500.001 297.718C316.398 297.718 167.559 446.558 167.559 630.16C167.559 813.763 316.398 962.602 500.001 962.602Z" fill="#85C5E5"/>
<path d="M610 758.72C700.76 758.72 682 872.96 682.87 1000H610V758.72Z" fill="#CC734C"/>
<path d="M632.74 831.87L610 870L621.38 1000H653.14C653.91 819.73 632.74 831.87 632.74 831.87Z" fill="#B56241"/>
<path d="M233.25 500C233.25 352.68 352.68 233.25 500 233.25C647.32 233.25 766.75 352.68 766.75 500C766.788 539.694 757.949 578.895 740.88 614.731C723.811 650.568 698.945 682.135 668.1 707.12C662.627 711.573 656.98 715.803 651.16 719.81C591 758 515 758 446.39 751.89C439.73 750.89 433.09 749.63 426.5 748.18C400.17 742.38 374.68 733.43 351.13 720.38C345.31 716.793 339.667 712.92 334.2 708.76C328.706 704.576 323.432 700.11 318.4 695.38C313.64 690.96 309.044 686.367 304.61 681.6C258.667 632.299 233.161 567.39 233.25 500Z" fill="#CC734C"/>
<path d="M269.612 634.48C270.312 635.68 271.002 636.88 271.722 638.06C272.152 638.78 272.602 639.48 273.052 640.2C273.712 641.27 274.372 642.34 275.052 643.39C275.532 644.15 276.052 644.89 276.512 645.63C277.172 646.63 277.832 647.63 278.512 648.63C279.022 649.39 279.512 650.15 280.072 650.91C280.732 651.91 281.392 652.83 282.072 653.79C282.612 654.56 283.172 655.32 283.722 656.09C284.272 656.86 285.062 657.94 285.722 658.86C286.382 659.78 286.872 660.39 287.452 661.15C288.032 661.91 288.822 662.95 289.522 663.85C290.222 664.75 290.712 665.36 291.312 666.11C291.912 666.86 292.722 667.87 293.432 668.74C294.142 669.61 294.662 670.23 295.282 670.97C295.902 671.71 296.722 672.69 297.452 673.54C298.182 674.39 298.722 675.01 299.362 675.74L301.582 678.24C302.232 678.97 302.892 679.68 303.582 680.4C304.442 681.34 305.312 682.27 306.182 683.19L307.392 684.47C308.682 685.81 309.982 687.15 311.302 688.47L311.562 688.74C312.852 690.02 314.162 691.29 315.472 692.55L317.052 694.05C318.002 694.94 318.952 695.83 319.912 696.71L321.072 697.77C322.072 698.71 323.162 699.63 324.212 700.55C327.478 703.397 330.812 706.127 334.212 708.74C339.672 712.9 345.315 716.773 351.142 720.36C374.692 733.36 400.142 742.36 426.512 748.16C433.102 749.61 439.742 750.86 446.402 751.87C488.502 755.62 533.402 757.05 575.682 748.79C508.452 729 185.592 612.74 388.802 257.48C386.082 258.73 383.402 260.02 380.742 261.36L380.152 261.65C378.932 262.26 377.712 262.89 376.502 263.53L375.502 264.06C371.742 266.06 368.022 268.13 364.372 270.29L363.472 270.82C362.312 271.51 361.162 272.21 360.012 272.92L359.142 273.46C355.568 275.693 352.052 278.003 348.592 280.39L347.512 281.14C346.422 281.9 345.352 282.66 344.282 283.43L343.622 283.9C341.442 285.493 339.288 287.107 337.162 288.74L336.542 289.22C335.542 290 334.542 290.8 333.542 291.61L332.372 292.55C331.372 293.36 330.372 294.17 329.372 295C327.262 296.75 325.182 298.55 323.132 300.37L321.992 301.37L319.302 303.82L318.002 305C315.148 307.667 312.358 310.39 309.632 313.17L308.252 314.58C307.462 315.4 306.672 316.22 305.892 317.05C305.432 317.54 304.972 318.05 304.522 318.53C303.148 319.997 301.795 321.483 300.462 322.99C300.012 323.5 299.552 323.99 299.102 324.53C298.392 325.34 297.692 326.16 296.992 326.98L295.482 328.77C294.802 329.58 294.122 330.39 293.482 331.21C292.942 331.87 292.402 332.54 291.872 333.21C290.802 334.54 289.752 335.87 288.712 337.21C288.172 337.91 287.632 338.61 287.102 339.32C286.572 340.03 285.902 340.91 285.312 341.72C284.722 342.53 284.242 343.17 283.722 343.9C283.202 344.63 282.592 345.45 282.042 346.23C281.095 347.563 280.162 348.913 279.242 350.28C278.742 351.01 278.242 351.76 277.752 352.5C277.262 353.24 276.652 354.16 276.112 355L274.622 357.31L272.942 360.02C272.512 360.71 272.082 361.4 271.662 362.09C270.772 363.55 269.912 365.02 269.052 366.49L267.832 368.65C267.292 369.6 266.752 370.56 266.222 371.52C265.822 372.25 265.422 372.98 265.032 373.71C264.392 374.9 263.762 376.1 263.132 377.3L261.932 379.64C261.292 380.92 260.652 382.19 260.022 383.48C259.692 384.17 259.352 384.87 259.022 385.57C258.502 386.66 258.022 387.76 257.492 388.86C257.182 389.52 256.882 390.18 256.582 390.86C255.842 392.507 255.118 394.173 254.412 395.86C254.192 396.38 253.982 396.91 253.762 397.43C253.232 398.7 252.712 399.97 252.202 401.25C251.932 401.92 251.672 402.59 251.412 403.25C250.912 404.51 250.412 405.78 249.962 407.05C249.752 407.6 249.542 408.15 249.342 408.7C248.715 410.453 248.098 412.207 247.492 413.96L246.932 415.66C246.492 416.993 246.062 418.327 245.642 419.66L245.042 421.57C244.572 423.11 244.112 424.65 243.672 426.2C243.572 426.53 243.472 426.86 243.382 427.2C242.862 429.04 242.362 430.887 241.882 432.74C241.722 433.33 241.582 433.93 241.432 434.52C241.082 435.91 240.742 437.3 240.432 438.7L240.012 440.45C239.582 442.35 239.162 444.25 238.772 446.16L238.622 446.93C238.282 448.63 237.948 450.33 237.622 452.03C237.512 452.64 237.412 453.24 237.302 453.85C237.042 455.34 236.792 456.85 236.562 458.35C236.482 458.86 236.392 459.35 236.322 459.87C236.022 461.82 235.752 463.78 235.492 465.75L235.342 467.05C235.142 468.64 234.962 470.24 234.792 471.84C234.732 472.44 234.662 473.04 234.602 473.65C234.442 475.33 234.292 477.02 234.152 478.71C234.152 479.06 234.092 479.4 234.072 479.71C233.925 481.71 233.795 483.727 233.682 485.76C233.682 486.29 233.682 486.83 233.612 487.36C233.545 488.933 233.485 490.503 233.432 492.07C233.432 492.66 233.432 493.25 233.432 493.84C233.432 495.89 233.352 497.95 233.352 500.01C233.352 500.01 233.352 500.08 233.352 500.11C233.352 502.33 233.352 504.53 233.432 506.73C233.432 507.49 233.492 508.25 233.512 509.01C233.562 510.48 233.612 511.95 233.682 513.42C233.682 514.31 233.792 515.19 233.842 516.08C233.922 517.41 233.992 518.74 234.092 520.08C234.162 521.08 234.252 521.97 234.332 522.91C234.442 524.17 234.542 525.43 234.672 526.68C234.762 527.68 234.882 528.62 234.982 529.59C235.122 530.8 235.252 532.02 235.402 533.23C235.522 534.23 235.662 535.23 235.792 536.18C235.952 537.36 236.112 538.55 236.292 539.73C236.442 540.73 236.602 541.73 236.762 542.73C236.942 543.89 237.132 545.06 237.332 546.22C237.512 547.22 237.692 548.22 237.882 549.22C238.092 550.37 238.312 551.52 238.532 552.66C238.752 553.8 238.942 554.66 239.152 555.66C239.392 556.8 239.632 557.93 239.892 559.06C240.152 560.19 240.332 561.06 240.572 561.99C240.832 563.12 241.112 564.24 241.392 565.35C241.672 566.46 241.882 567.3 242.132 568.26C242.432 569.38 242.732 570.49 243.042 571.6C243.302 572.6 243.572 573.52 243.852 574.47C244.172 575.58 244.502 576.68 244.852 577.78C245.202 578.88 245.432 579.67 245.732 580.62C246.032 581.57 246.432 582.81 246.792 583.9C247.152 584.99 247.412 585.77 247.732 586.7C248.112 587.79 248.492 588.88 248.882 589.97C249.212 590.88 249.532 591.8 249.882 592.71L251.122 595.98C251.472 596.87 251.812 597.77 252.122 598.66C252.562 599.75 253.012 600.85 253.462 601.94C253.822 602.8 254.172 603.67 254.542 604.53C255.012 605.65 255.542 606.75 255.992 607.86C256.362 608.68 256.722 609.51 257.092 610.33C257.612 611.49 258.162 612.63 258.692 613.77L259.772 616.07C260.382 617.33 261.012 618.57 261.642 619.82C261.962 620.45 262.262 621.09 262.592 621.72C264.512 625.46 266.512 629.15 268.592 632.79C268.882 633.26 269.252 633.87 269.612 634.48Z" fill="#B56241"/>
<path d="M233.25 500C233.25 352.68 352.68 233.25 500 233.25C647.32 233.25 766.75 352.68 766.75 500C766.788 539.694 757.949 578.895 740.88 614.731C723.811 650.568 698.945 682.135 668.1 707.12C662.627 711.573 656.98 715.803 651.16 719.81C591 758 515 758 446.39 751.89C439.73 750.89 433.09 749.63 426.5 748.18C400.17 742.38 374.68 733.43 351.13 720.38C345.31 716.793 339.667 712.92 334.2 708.76C328.706 704.576 323.432 700.11 318.4 695.38C313.64 690.96 309.044 686.367 304.61 681.6C258.667 632.299 233.161 567.39 233.25 500Z" stroke="#592D3D" stroke-width="12" stroke-miterlimit="10"/>
<path d="M386.122 758.72C295.352 758.72 314.122 872.96 313.252 1000H386.122V758.72Z" fill="#CC734C"/>
<path d="M367.232 831.87L390.002 870L378.612 1000H346.882C346.072 819.73 367.232 831.87 367.232 831.87Z" fill="#B56241"/>
<path d="M619.472 1070H380.532C377.011 1070 373.636 1068.6 371.148 1066.11C368.659 1063.62 367.262 1060.24 367.262 1056.72V772C367.262 768.479 368.659 765.103 371.148 762.613C373.636 760.123 377.011 758.722 380.532 758.72H613.762C626.852 758.72 632.762 766.38 632.762 778.6V1056.68C632.767 1058.43 632.427 1060.16 631.761 1061.78C631.096 1063.39 630.117 1064.86 628.883 1066.1C627.648 1067.34 626.181 1068.32 624.566 1068.99C622.951 1069.66 621.22 1070 619.472 1070Z" fill="#CC734C"/>
<path d="M629.052 766.62C628.055 765.394 627.212 764.051 626.542 762.62C624.141 760.739 621.284 759.527 618.262 759.11C616.773 758.88 615.268 758.766 613.762 758.77H380.532C377.02 758.773 373.652 760.166 371.165 762.646C368.679 765.125 367.275 768.488 367.262 772C396.262 782.42 450.552 788.24 500.002 788.24C563.062 788.24 604.382 778.89 629.052 766.62Z" fill="#B56241"/>
<path d="M610 758.72C700.76 758.72 682 872.96 682.87 1000H632.74" stroke="#592D3D" stroke-width="12" stroke-miterlimit="10" stroke-linecap="square"/>
<path d="M386.122 758.72C295.352 758.72 314.122 872.96 313.252 1000H363.322" stroke="#592D3D" stroke-width="12" stroke-miterlimit="10" stroke-linecap="square"/>
<path d="M380.531 758.82L613.761 758.72" stroke="#592D3D" stroke-width="12" stroke-miterlimit="10"/>
<path d="M380.532 1070H497.152C388.002 1070 396.242 838.82 367.262 838.82V1056.68C367.257 1058.43 367.596 1060.16 368.26 1061.77C368.925 1063.39 369.901 1064.86 371.134 1066.09C372.366 1067.33 373.831 1068.31 375.444 1068.98C377.056 1069.65 378.785 1070 380.532 1070Z" fill="#B56241"/>
<path d="M361.259 860.85C361.069 857.18 361.149 853.51 361.309 849.85C361.469 846.19 361.779 842.5 362.169 838.85C362.369 837.01 362.569 835.18 362.819 833.34C363.069 831.5 363.309 829.67 363.669 827.83C364.378 824.022 365.585 820.324 367.259 816.83C368.933 820.324 370.14 824.022 370.849 827.83C371.209 829.67 371.469 831.5 371.699 833.34C371.929 835.18 372.149 837.01 372.349 838.85C372.729 842.52 373.029 846.19 373.199 849.85C373.369 853.51 373.449 857.19 373.259 860.85H361.259Z" fill="#592D3D"/>
<path d="M632.742 870V878C633.002 912 633.002 947 632.742 980.75C632.742 983.62 632.742 986.47 632.742 989.28V1056.69C632.746 1058.44 632.405 1060.17 631.74 1061.78C631.075 1063.39 630.099 1064.86 628.866 1066.1C627.634 1067.33 626.17 1068.31 624.558 1068.98C622.946 1069.65 621.217 1070 619.472 1070H380.532C377.011 1070 373.636 1068.6 371.148 1066.11C368.659 1063.62 367.262 1060.24 367.262 1056.72V998.52C367.262 996.01 367.262 993.45 367.262 990.87C367.012 956 367.012 921 367.262 885.57V860.85" stroke="#592D3D" stroke-width="12" stroke-miterlimit="10"/>
<path d="M626.74 870C626.55 865.83 626.64 861.65 626.8 857.47C626.96 853.29 627.27 849.12 627.65 844.94C627.85 842.85 628.06 840.76 628.3 838.67C628.54 836.58 628.79 834.5 629.15 832.41C629.847 828.106 631.052 823.9 632.74 819.88C634.428 823.9 635.633 828.106 636.33 832.41C636.69 834.5 636.95 836.59 637.18 838.67C637.41 840.75 637.63 842.85 637.83 844.94C638.21 849.12 638.52 853.29 638.68 857.47C638.84 861.65 638.93 865.83 638.74 870H626.74Z" fill="#592D3D"/>
<path d="M570.68 842.45C570.9 833 582.9 829 588.9 835C589.875 835.995 590.644 837.173 591.164 838.466C591.684 839.759 591.944 841.141 591.93 842.535C591.915 843.928 591.627 845.305 591.08 846.587C590.534 847.868 589.74 849.03 588.745 850.005C587.749 850.98 586.572 851.75 585.279 852.269C583.986 852.789 582.603 853.05 581.21 853.035C579.817 853.021 578.44 852.732 577.158 852.186C575.876 851.639 574.715 850.845 573.74 849.85C572.766 848.88 571.994 847.727 571.469 846.456C570.944 845.186 570.675 843.825 570.68 842.45Z" fill="#592D3D"/>
<path d="M408.109 842.15C407.899 834 416.899 830 422.899 833C430.899 836 430.899 847 422.899 852C418.899 854 414.899 852 411.149 849.52C410.182 848.552 409.416 847.403 408.894 846.138C408.372 844.874 408.106 843.518 408.109 842.15Z" fill="#592D3D"/>
<path d="M500 831.77C500.715 833.655 501.218 835.614 501.5 837.61C501.797 839.543 501.961 841.494 501.99 843.45L502.29 855.14C502.38 859.03 502.5 862.93 502.54 866.83L502.71 878.5C502.94 894.07 502.93 909.66 502.99 925.24C503.05 940.82 503.17 956.4 502.99 971.98C502.9 979.77 502.69 987.56 502.46 995.35C502.36 999.24 502.17 1003.14 501.79 1007.03C501.45 1010.96 500.859 1014.87 500.02 1018.72C499.181 1014.87 498.59 1010.96 498.25 1007.03C497.87 1003.14 497.68 999.24 497.58 995.35C497.35 987.56 497.14 979.77 497.05 971.98C496.85 956.4 497.05 940.82 497.05 925.24C497.05 909.66 497.05 894.09 497.23 878.51L497.4 866.81L497.73 855.13L498.06 843.45C498.097 841.494 498.264 839.543 498.56 837.61C498.822 835.616 499.305 833.657 500 831.77Z" fill="#B56241"/>
<path d="M425.219 883C426.702 882.295 428.272 881.791 429.889 881.5C431.433 881.21 432.998 881.043 434.569 881L443.919 880.67L462.619 880.26C475.079 880.07 487.529 880.02 499.999 879.99C512.469 879.96 524.929 879.83 537.389 879.99C543.619 880.08 549.849 880.29 556.089 880.52C559.199 880.63 562.319 880.82 565.429 881.19C568.587 881.54 571.713 882.135 574.779 882.97C571.715 883.81 568.588 884.402 565.429 884.74C562.319 885.12 559.199 885.31 556.089 885.41C549.849 885.64 543.619 885.84 537.389 885.93C524.929 886.12 512.469 885.93 499.999 885.93C487.529 885.93 475.069 885.93 462.599 885.78C456.369 885.72 450.139 885.52 443.919 885.28L434.569 884.94C433.001 884.898 431.44 884.73 429.899 884.44C428.282 884.17 426.708 883.686 425.219 883Z" fill="#B56241"/>
<path d="M442.41 914.38C443.591 913.817 444.853 913.442 446.15 913.27C447.349 913.101 448.561 913.051 449.77 913.12C452.16 913.22 454.55 913.28 456.94 913.33C461.72 913.44 466.5 913.48 471.28 913.5C480.91 913.5 490.37 913.58 500.04 913.29C509.71 913 519.3 912.86 528.92 912.9C533.73 912.9 538.54 913.03 543.34 913.14C545.757 913.173 548.17 913.33 550.57 913.61C553.037 913.883 555.472 914.395 557.84 915.14C555.528 916.048 553.129 916.719 550.68 917.14C548.296 917.57 545.888 917.857 543.47 918C538.65 918.35 533.83 918.65 529.02 918.82C519.38 919.18 509.75 919.14 500.14 919.27C495.33 919.27 490.53 919.49 485.66 919.37C480.79 919.25 475.97 919.24 471.14 919.06C466.31 918.88 461.46 918.48 456.64 917.98C454.22 917.71 451.82 917.41 449.41 917.08C448.193 916.931 446.996 916.65 445.84 916.24C444.599 915.82 443.439 915.191 442.41 914.38Z" fill="#B56241"/>
<path d="M438.93 949.87C440.116 949.172 441.405 948.666 442.75 948.37C444.003 948.078 445.283 947.914 446.57 947.88L454.2 947.56C459.29 947.38 464.39 947.23 469.48 947.15C479.66 947 489.84 947 500 947C510.16 947 520.36 946.83 530.54 947C535.63 947.09 540.72 947.3 545.81 947.53C548.363 947.616 550.91 947.836 553.44 948.19C556.045 948.547 558.61 949.153 561.1 950C558.618 950.831 556.063 951.423 553.47 951.77C550.937 952.132 548.387 952.356 545.83 952.44C540.74 952.67 535.65 952.88 530.56 952.97C520.38 953.17 510.19 953.03 500.01 952.97C489.83 952.91 479.65 952.91 469.47 952.72C464.38 952.62 459.28 952.44 454.19 952.23L446.56 951.86C445.273 951.821 443.993 951.653 442.74 951.36C441.398 951.07 440.112 950.567 438.93 949.87Z" fill="#B56241"/>
<path d="M680.7 905.78C680.9 868.68 679.49 835.71 672.96 810.39C662.88 785.04 644.78 769.92 612.84 769.92L635.69 904.39C635.69 904.39 658.2 914.68 680.7 905.78Z" fill="#B56241"/>
<path d="M689.299 895.23C688.161 896.168 686.924 896.98 685.609 897.65" stroke="#592D3D" stroke-width="12" stroke-miterlimit="10" stroke-linecap="square"/>
<path d="M328.999 809.32C322.179 834.89 320.999 868.45 321.259 906.32C341.159 914.87 371.689 904.17 371.689 904.17L388.999 771.89C358.139 771.89 339.739 785.79 328.999 809.32Z" fill="#B56241"/>
<path d="M616.662 758.16L578.222 758.26C578.222 811.98 502.892 869.4 502.892 869.4C502.892 869.4 422.092 808.82 422.092 758.26L383.432 758.16C379.912 758.16 376.536 759.558 374.046 762.046C371.555 764.535 370.155 767.91 370.152 771.43V1056.12C370.155 1059.64 371.555 1063.02 374.046 1065.5C376.536 1067.99 379.912 1069.39 383.432 1069.39H622.362C625.882 1069.39 629.257 1067.99 631.746 1065.5C634.234 1063.01 635.632 1059.64 635.632 1056.12V778C635.632 765.82 629.752 758.16 616.662 758.16Z" fill="#633749"/>
<path d="M612.84 758.16C676.38 758.16 686.24 814.16 686.74 891.32C668.15 902.94 637.83 892.64 637.83 892.64L612.84 758.16Z" fill="#633749"/>
<path d="M635.63 831.31L612.84 869.4L624.23 999.4H635.83V893.78L653.11 896.67C647.49 824.5 635.63 831.31 635.63 831.31Z" fill="#5E3244"/>
<path d="M389.002 758.16C327.222 758.16 313.182 811.95 312.152 885.82C331.152 905.67 370.102 890.4 370.102 890.4L389.002 758.16Z" fill="#633749"/>
<path d="M370.122 831.31V890.4L352.812 894.7C358.483 824.63 370.122 831.31 370.122 831.31Z" fill="#5E3244"/>
<path d="M612.84 758.16C680.26 758.16 691.29 814.44 691.74 891.94C665.54 904.36 637.83 892.64 637.83 892.64" stroke="#592D3D" stroke-width="12" stroke-miterlimit="10" stroke-linecap="square"/>
<path d="M389 758.16C322.21 758.16 308.92 812.85 308.25 888.87C328.84 903.66 370.1 890.4 370.1 890.4" stroke="#592D3D" stroke-width="12" stroke-miterlimit="10" stroke-linecap="square"/>
<path d="M383.429 1069.39H499.999C390.809 1069.39 399.089 838.25 370.109 838.25V1056.12C370.111 1057.87 370.456 1059.6 371.127 1061.21C371.797 1062.82 372.779 1064.29 374.017 1065.52C375.254 1066.75 376.722 1067.73 378.337 1068.39C379.953 1069.06 381.683 1069.4 383.429 1069.39Z" fill="#5E3244"/>
<path d="M364.149 860.29C363.959 856.62 364.039 852.94 364.209 849.29C364.379 845.64 364.679 841.95 365.059 838.29C365.259 836.46 365.469 834.62 365.709 832.78C365.949 830.94 366.199 829.11 366.559 827.28C367.267 823.472 368.474 819.773 370.149 816.28C371.824 819.773 373.031 823.472 373.739 827.28C374.099 829.11 374.359 830.95 374.589 832.78C374.819 834.61 375.039 836.46 375.239 838.29C375.626 841.97 375.912 845.637 376.099 849.29C376.259 852.96 376.339 856.64 376.099 860.29H364.149Z" fill="#592D3D"/>
<path d="M635.632 869.4V877.4C635.892 911.4 635.892 946.4 635.632 980.16C635.632 983.03 635.632 985.88 635.632 988.69V1056.1C635.632 1059.62 634.234 1062.99 631.745 1065.48C629.257 1067.97 625.881 1069.37 622.362 1069.37H383.432C379.912 1069.37 376.535 1067.97 374.045 1065.48C371.555 1063 370.155 1059.62 370.152 1056.1V990.3C369.892 955.44 369.892 920.44 370.152 885V860.29" stroke="#592D3D" stroke-width="12" stroke-miterlimit="10"/>
<path d="M629.63 869.4C629.44 865.22 629.53 861.04 629.69 856.87C629.85 852.7 630.16 848.51 630.55 844.34C630.75 842.25 630.95 840.16 631.19 838.07C631.43 835.98 631.68 833.89 632.05 831.8C632.741 827.496 633.943 823.29 635.63 819.27C637.325 823.288 638.531 827.494 639.22 831.8C639.58 833.89 639.85 835.98 640.07 838.07C640.29 840.16 640.52 842.25 640.72 844.34C641.11 848.51 641.41 852.69 641.57 856.87C641.73 861.05 641.83 865.22 641.63 869.4H629.63Z" fill="#592D3D"/>
<path d="M383.43 758.26L616.66 758.16" stroke="#592D3D" stroke-width="12" stroke-miterlimit="10"/>
<path d="M310.719 891.94C311.857 892.972 313.089 893.896 314.399 894.7" stroke="#592D3D" stroke-width="12" stroke-miterlimit="10" stroke-linecap="square"/>
<path d="M677.59 882.13C675.509 883.367 673.222 884.22 670.84 884.65C668.465 885.112 666.049 885.327 663.63 885.29C661.221 885.247 658.821 884.986 656.46 884.51C655.28 884.29 654.12 883.94 652.97 883.64C651.82 883.34 650.69 882.86 649.59 882.4C650.8 882.4 651.98 882.57 653.15 882.67L656.67 882.96C657.84 882.96 659 883.16 660.17 883.17C661.34 883.18 662.5 883.28 663.66 883.29C665.98 883.34 668.3 883.29 670.66 883.11C672.99 882.943 675.305 882.615 677.59 882.13Z" fill="#592D3D"/>
<path d="M578.22 758.26C578.22 811.98 502.89 869.4 502.89 869.4C502.89 869.4 422.09 808.82 422.09 758.26" stroke="#592D3D" stroke-width="12" stroke-miterlimit="10"/>
<path d="M517.8 896.62L503.4 921.56L489 896.62H441L503.36 1004.62L565.72 896.62H517.8Z" stroke="white" stroke-width="16"/>
<path d="M517.8 896.62L503.4 921.56L489 896.62H441L503.36 1004.62L565.72 896.62H517.8Z" fill="#44B783"/>
<path d="M517.8 896.62L503.4 921.56L489 896.62H466L503.42 961.43L540.84 896.62H517.8Z" fill="#364A5E"/>
<path d="M271.401 568.53C270.401 540.17 289.401 516.17 314.681 504.97C317.336 503.884 320.062 502.981 322.841 502.27C336.856 498.806 351.599 499.759 365.051 505C368.12 506.18 371.103 507.57 373.981 509.16C403.511 525.05 416.771 562.41 405.341 592.62C404.183 595.666 402.785 598.615 401.161 601.44C397.173 609.748 391.15 616.913 383.651 622.27C381.149 624.111 378.527 625.781 375.801 627.27C348.421 640.27 311.421 636.27 289.351 615.87C287.141 613.527 285.099 611.031 283.241 608.4C281.118 605.397 279.255 602.219 277.671 598.9C274.318 592.095 272.389 584.677 272.001 577.1C271.639 574.257 271.439 571.396 271.401 568.53Z" fill="#B56241"/>
<path d="M269.772 550.18C268.772 521.82 287.772 497.82 313.052 486.62C315.703 485.533 318.427 484.631 321.202 483.92C335.215 480.437 349.962 481.374 363.422 486.6C366.487 487.78 369.468 489.17 372.342 490.76C401.872 506.65 415.132 544.02 403.702 574.22C402.552 577.269 401.154 580.219 399.522 583.04C398.14 585.749 396.566 588.355 394.812 590.84C393.084 593.302 391.186 595.641 389.132 597.84C386.912 600.037 384.532 602.066 382.012 603.91C379.512 605.753 376.889 607.424 374.162 608.91C346.782 621.91 309.782 617.91 287.722 597.52C285.511 595.174 283.47 592.674 281.612 590.04C279.487 587.037 277.62 583.859 276.032 580.54C272.67 573.761 270.727 566.366 270.322 558.81C269.964 555.947 269.781 553.065 269.772 550.18Z" fill="white" stroke="#592D3D" stroke-width="12" stroke-miterlimit="10"/>
<path d="M338.51 563.03C345.27 563.03 350.75 557.55 350.75 550.79C350.75 544.03 345.27 538.55 338.51 538.55C331.75 538.55 326.27 544.03 326.27 550.79C326.27 557.55 331.75 563.03 338.51 563.03Z" fill="#592D3D"/>
<path d="M583.89 560.47C584.32 545.34 590.56 530.38 598.99 519.14C601.143 516.12 603.523 513.268 606.11 510.61C617.61 498.622 633.013 491.133 649.543 489.492C666.074 487.852 682.648 492.167 696.28 501.66C698.552 503.245 700.732 504.958 702.81 506.79C729.81 528.24 732.93 569.93 718.13 600.02C716.692 602.411 715.096 604.703 713.35 606.88C711.037 609.781 708.503 612.499 705.77 615.01C685.5 632.84 653.96 637.14 628.36 627.43C624.713 626.054 621.185 624.382 617.81 622.43C599.91 611.65 587.44 591.34 584.38 570.2C583.966 566.974 583.802 563.721 583.89 560.47Z" fill="#B56241"/>
<path d="M589.382 549C589.802 534.85 595.802 520.85 603.902 510.34C605.986 507.506 608.279 504.832 610.762 502.34C622.013 491.101 636.821 484.123 652.651 482.602C668.481 481.08 684.347 485.11 697.532 494C699.714 495.477 701.811 497.076 703.812 498.79C729.812 518.86 732.812 557.86 718.552 586.01C717.17 588.255 715.633 590.4 713.952 592.43C711.72 595.146 709.282 597.686 706.662 600.03C687.152 616.71 656.802 620.74 632.172 611.65C628.658 610.346 625.257 608.758 622.002 606.9C604.782 596.82 592.782 577.82 589.832 558.05C589.439 555.05 589.289 552.024 589.382 549Z" fill="white" stroke="#592D3D" stroke-width="12" stroke-miterlimit="10"/>
<path d="M659.209 563.03C665.969 563.03 671.449 557.55 671.449 550.79C671.449 544.03 665.969 538.55 659.209 538.55C652.449 538.55 646.969 544.03 646.969 550.79C646.969 557.55 652.449 563.03 659.209 563.03Z" fill="#592D3D"/>
<path fill-rule="evenodd" clip-rule="evenodd" d="M243.891 484.13C249.531 499.96 264.791 508.19 277.291 511.07C290.351 490.83 333.941 482.15 366.661 493.63C394.461 498.63 355.851 468.06 294.191 484.63C291.881 485.48 279.631 487.58 263.911 475.44C261.721 473.75 268.591 489.15 276.411 495.44C265.061 495.21 263.201 495.22 243.891 484.13Z" fill="#592D3D"/>
<path fill-rule="evenodd" clip-rule="evenodd" d="M721.209 495.43C729.029 489.18 735.899 473.78 733.709 475.43C717.989 487.57 705.709 485.43 703.429 484.62C641.769 468.02 603.149 498.62 630.949 493.62C663.679 482.14 707.269 490.82 720.329 511.06C732.829 508.18 748.089 499.95 753.729 484.12C734.419 495.22 732.559 495.21 721.209 495.43Z" fill="#592D3D"/>
<path d="M443.141 621.86C443.141 602.96 556.861 605.8 556.861 621.86C556.861 636.94 550.87 651.403 540.207 662.066C529.543 672.73 515.081 678.72 500.001 678.72C484.92 678.72 470.458 672.73 459.795 662.066C449.131 651.403 443.141 636.94 443.141 621.86Z" fill="#592D3D"/>
<path d="M495.002 643C478.052 642 463.272 649.75 458.352 661.22C466.532 669.862 477.219 675.72 488.905 677.968C500.591 680.216 512.688 678.741 523.492 673.75C525.738 672.713 527.913 671.527 530.002 670.2C529.082 656.09 514.062 644.18 495.002 643Z" fill="#F28195"/>
<path d="M443.141 621.86C443.141 602.96 556.861 605.8 556.861 621.86C556.861 636.94 550.87 651.403 540.207 662.066C529.543 672.73 515.081 678.72 500.001 678.72C484.92 678.72 470.458 672.73 459.795 662.066C449.131 651.403 443.141 636.94 443.141 621.86Z" stroke="#592D3D" stroke-width="6" stroke-miterlimit="10"/>
<path d="M478.121 632.46C478.571 632.35 478.751 632.3 479.041 632.25L479.791 632.11C480.281 632.02 480.791 631.97 481.251 631.93C482.211 631.832 483.177 631.798 484.141 631.83C486.096 631.872 488.039 632.144 489.931 632.64C493.893 633.643 497.484 635.76 500.281 638.74C502.912 641.57 504.676 645.097 505.361 648.9C505.986 652.407 505.511 656.023 504.001 659.25C501.931 656.32 500.341 653.69 498.681 651.49C497.934 650.435 497.115 649.433 496.231 648.49C495.423 647.661 494.517 646.936 493.531 646.33C491.664 645.211 489.582 644.499 487.421 644.24C486.287 644.094 485.145 644.013 484.001 644C483.411 644 482.821 644 482.241 644.05L481.391 644.11H481.001C480.901 644.11 480.701 644.11 480.771 644.11L478.121 632.46Z" fill="#592D3D"/>
<path d="M407.291 474.84H286.651C281.091 474.84 275.531 474.76 269.971 474.84H269.731C264.501 474.84 259.491 479.44 259.731 484.84C259.775 487.479 260.842 489.997 262.708 491.863C264.574 493.729 267.092 494.796 269.731 494.84H390.371C395.921 494.84 401.491 494.92 407.051 494.84H407.291C412.521 494.84 417.531 490.24 417.291 484.84C417.245 482.203 416.176 479.686 414.311 477.82C412.445 475.955 409.929 474.886 407.291 474.84Z" fill="#592D3D"/>
<path d="M726.322 474.84H605.682C600.122 474.84 594.562 474.76 589.002 474.84H588.762C583.532 474.84 578.522 479.44 578.762 484.84C578.806 487.479 579.874 489.997 581.739 491.863C583.605 493.729 586.124 494.796 588.762 494.84H709.402C714.962 494.84 720.522 494.92 726.082 494.84H726.322C731.552 494.84 736.562 490.24 736.322 484.84C736.276 482.203 735.208 479.686 733.342 477.82C731.477 475.955 728.96 474.886 726.322 474.84Z" fill="#592D3D"/>
<path opacity="0.15" d="M725 631.82C736.169 613.163 745.002 593.203 751.3 572.39C734.06 608.13 701.46 637.85 659.19 637.85C630.923 637.813 603.825 626.566 583.839 606.577C563.853 586.587 552.612 559.487 552.58 531.22C552.541 517.431 555.201 503.768 560.41 491H758C762.345 501.64 764.919 512.919 765.62 524.39C766.35 516.39 766.74 508.2 766.74 499.97C766.736 490.282 766.208 480.601 765.16 470.97H575H423.14H234.83C233.782 480.601 233.254 490.282 233.25 499.97C233.25 504.7 233.39 509.39 233.63 514.06C234.899 506.152 237.07 498.415 240.1 491H437.7C444.271 507.194 446.764 524.753 444.96 542.136C443.156 559.518 437.11 576.191 427.353 590.69C417.596 605.189 404.428 617.069 389.005 625.287C373.581 633.505 356.376 637.809 338.9 637.82C300.1 637.82 270.08 611.99 251.42 580.93C257.712 599.398 266.015 617.118 276.18 633.77C295.57 645.84 314.43 657.82 338.9 657.82C372.467 657.781 404.648 644.431 428.387 620.698C452.125 596.965 465.482 564.787 465.53 531.22C465.53 529.41 465.53 527.61 465.41 525.82C488.79 517.59 510.93 517.47 532.72 525.46C532.64 527.37 532.58 529.29 532.58 531.22C532.62 564.792 545.974 596.978 569.713 620.717C593.452 644.456 625.638 657.81 659.21 657.85C685 657.85 705 645.1 725 631.82ZM535.26 505.18C511.86 497.63 487.62 497.76 462.93 505.57C461.916 500.639 460.603 495.773 459 491H539.1C537.538 495.646 536.255 500.381 535.26 505.18Z" fill="black"/>
<path opacity="0.95" d="M233.59 469.82C233.59 469.82 234 502.05 234 520.02C234 584.43 274.48 636.65 338.9 636.65C358.593 636.641 377.963 631.648 395.207 622.135C412.45 612.623 427.005 598.901 437.516 582.248C448.028 565.595 454.153 546.552 455.322 526.894C456.49 507.235 452.664 487.601 444.2 469.82H233.59Z" fill="#592D3D"/>
<path opacity="0.95" d="M553.909 469.82C545.445 487.601 541.619 507.235 542.788 526.894C543.956 546.552 550.082 565.595 560.593 582.248C571.104 598.901 585.659 612.623 602.903 622.135C620.146 631.648 639.516 636.641 659.209 636.65C723.629 636.65 766.749 584.43 766.749 520.02C766.749 502.02 764.519 469.82 764.519 469.82H553.909Z" fill="#592D3D"/>
<path opacity="0.25" d="M319.999 626.86L443.069 503.78C440.364 497.681 437.012 491.891 433.069 486.51L302.719 616.88C308.107 620.813 313.9 624.158 319.999 626.86Z" fill="white"/>
<path d="M455.859 507.53C485.379 495.53 514.389 495.11 542.859 507.53" stroke="#592D3D" stroke-width="20" stroke-miterlimit="10"/>
<path d="M274.281 504.75C276.341 511.26 268.341 516.26 262.341 517.26C256.341 517.26 252.341 513.26 250.341 508.26C249.341 503.26 250.341 498.26 254.341 495.26C259.341 493.26 266.341 491.26 270.781 496.38C271.892 497.472 272.774 498.775 273.375 500.212C273.976 501.649 274.284 503.192 274.281 504.75Z" fill="white"/>
<path d="M285.001 500.93C284.391 505.26 278.391 505.26 277.391 501.26C277.391 498.26 278.391 497.26 281.231 497.16C282.23 497.16 283.189 497.557 283.896 498.264C284.603 498.971 285.001 499.93 285.001 500.93Z" fill="white"/>
<path opacity="0.25" d="M645.19 618.92L751.47 512.64C750.896 508.854 750.091 505.107 749.06 501.42L634 616.51C637.678 617.539 641.415 618.344 645.19 618.92Z" fill="white"/>
<path d="M590.68 505.73C592.74 512.24 584.74 517.24 578.74 518.24C572.74 518.24 568.74 514.24 566.74 509.24C565.74 504.24 566.74 499.24 570.74 496.24C575.74 494.24 582.74 492.24 587.19 497.36C588.3 498.452 589.18 499.756 589.779 501.193C590.379 502.63 590.685 504.173 590.68 505.73Z" fill="white"/>
<path d="M601.352 501.91C600.742 506.24 594.742 506.24 593.742 502.24C593.742 499.24 594.742 498.24 597.592 498.14C598.087 498.14 598.577 498.238 599.033 498.427C599.49 498.617 599.905 498.895 600.254 499.245C600.604 499.595 600.88 500.011 601.069 500.468C601.257 500.926 601.353 501.416 601.352 501.91Z" fill="white"/>
<path d="M233.593 469.82C233.593 469.82 233.253 501.51 234.003 520.02C236.603 584.38 274.483 636.65 338.903 636.65C358.596 636.641 377.966 631.648 395.209 622.135C412.453 612.623 427.008 598.901 437.519 582.248C448.03 565.595 454.156 546.552 455.324 526.894C456.493 507.235 452.667 487.601 444.203 469.82H233.593Z" stroke="#592D3D" stroke-width="20" stroke-miterlimit="10"/>
<path d="M553.909 469.82C545.445 487.601 541.619 507.235 542.788 526.894C543.956 546.552 550.082 565.595 560.593 582.248C571.104 598.901 585.659 612.623 602.903 622.135C620.146 631.648 639.516 636.641 659.209 636.65C723.629 636.65 766.749 585.12 766.749 520.71C766.749 502.71 764.519 469.82 764.519 469.82H553.909Z" stroke="#592D3D" stroke-width="20" stroke-miterlimit="10"/>
<path d="M423.141 469.81H574.971" stroke="#592D3D" stroke-width="20" stroke-miterlimit="10"/>
</g>
</svg>
