<svg width="1000" height="990" viewBox="0 0 1000 990" fill="none" xmlns="http://www.w3.org/2000/svg">
<mask id="mask0_22_1735" style="mask-type:luminance" maskUnits="userSpaceOnUse" x="0" y="0" width="1000" height="966">
<path d="M1000 0H0V718.31H179.2C217.58 860.69 346.65 965.41 500 965.41C653.35 965.41 782.42 860.69 820.8 718.31H1000V0Z" fill="white"/>
</mask>
<g mask="url(#mask0_22_1735)">
<path d="M500.001 962.602C683.603 962.602 832.443 813.763 832.443 630.16C832.443 446.557 683.603 297.718 500.001 297.718C316.398 297.718 167.559 446.557 167.559 630.16C167.559 813.763 316.398 962.602 500.001 962.602Z" fill="#85C5E5"/>
<path d="M610 758.72C700.76 758.72 682 872.96 682.87 1000H610V758.72Z" fill="#D8985D"/>
<path d="M632.74 831.87L610 870L621.38 1000H653.14C653.91 819.73 632.74 831.87 632.74 831.87Z" fill="#C6854E"/>
<path d="M233.25 500C233.25 352.68 352.68 233.25 500 233.25C647.32 233.25 766.75 352.68 766.75 500C766.788 539.694 757.949 578.895 740.88 614.731C723.811 650.568 698.945 682.135 668.1 707.12C662.627 711.573 656.98 715.803 651.16 719.81C591 758 515 758 446.39 751.89C439.73 750.89 433.09 749.63 426.5 748.18C400.17 742.38 374.68 733.43 351.13 720.38C345.31 716.793 339.667 712.92 334.2 708.76C328.706 704.576 323.432 700.11 318.4 695.38C313.64 690.96 309.044 686.367 304.61 681.6C258.667 632.299 233.161 567.39 233.25 500Z" fill="#D8985D"/>
<path d="M269.612 634.48C270.312 635.68 271.002 636.88 271.722 638.06C272.152 638.78 272.602 639.48 273.052 640.2C273.712 641.27 274.372 642.34 275.052 643.39C275.532 644.15 276.052 644.89 276.512 645.63C277.172 646.63 277.832 647.63 278.512 648.63C279.022 649.39 279.512 650.15 280.072 650.91C280.732 651.91 281.392 652.83 282.072 653.79C282.612 654.56 283.172 655.32 283.722 656.09C284.272 656.86 285.062 657.94 285.722 658.86C286.382 659.78 286.872 660.39 287.452 661.15C288.032 661.91 288.822 662.95 289.522 663.85C290.222 664.75 290.712 665.36 291.312 666.11C291.912 666.86 292.722 667.87 293.432 668.74C294.142 669.61 294.662 670.23 295.282 670.97C295.902 671.71 296.722 672.69 297.452 673.54C298.182 674.39 298.722 675.01 299.362 675.74L301.582 678.24C302.232 678.97 302.892 679.68 303.582 680.4C304.442 681.34 305.312 682.27 306.182 683.19L307.392 684.47C308.682 685.81 309.982 687.15 311.302 688.47L311.562 688.74C312.852 690.02 314.162 691.29 315.472 692.55L317.052 694.05C318.002 694.94 318.952 695.83 319.912 696.71L321.072 697.77C322.072 698.71 323.162 699.63 324.212 700.55C327.478 703.397 330.812 706.127 334.212 708.74C339.672 712.9 345.315 716.773 351.142 720.36C374.692 733.36 400.142 742.36 426.512 748.16C433.102 749.61 439.742 750.86 446.402 751.87C488.502 755.62 533.402 757.05 575.682 748.79C508.452 729 185.592 612.74 388.802 257.48C386.082 258.73 383.402 260.02 380.742 261.36L380.152 261.65C378.932 262.26 377.712 262.89 376.502 263.53L375.502 264.06C371.742 266.06 368.022 268.13 364.372 270.29L363.472 270.82C362.312 271.51 361.162 272.21 360.012 272.92L359.142 273.46C355.568 275.693 352.052 278.003 348.592 280.39L347.512 281.14C346.422 281.9 345.352 282.66 344.282 283.43L343.622 283.9C341.442 285.493 339.288 287.107 337.162 288.74L336.542 289.22C335.542 290 334.542 290.8 333.542 291.61L332.372 292.55C331.372 293.36 330.372 294.17 329.372 295C327.262 296.75 325.182 298.55 323.132 300.37L321.992 301.37L319.302 303.82L318.002 305C315.148 307.667 312.358 310.39 309.632 313.17L308.252 314.58C307.462 315.4 306.672 316.22 305.892 317.05C305.432 317.54 304.972 318.05 304.522 318.53C303.148 319.997 301.795 321.483 300.462 322.99C300.012 323.5 299.552 323.99 299.102 324.53C298.392 325.34 297.692 326.16 296.992 326.98L295.482 328.77C294.802 329.58 294.122 330.39 293.482 331.21C292.942 331.87 292.402 332.54 291.872 333.21C290.802 334.54 289.752 335.87 288.712 337.21C288.172 337.91 287.632 338.61 287.102 339.32C286.572 340.03 285.902 340.91 285.312 341.72C284.722 342.53 284.242 343.17 283.722 343.9C283.202 344.63 282.592 345.45 282.042 346.23C281.095 347.563 280.162 348.913 279.242 350.28C278.742 351.01 278.242 351.76 277.752 352.5C277.262 353.24 276.652 354.16 276.112 355L274.622 357.31L272.942 360.02C272.512 360.71 272.082 361.4 271.662 362.09C270.772 363.55 269.912 365.02 269.052 366.49L267.832 368.65C267.292 369.6 266.752 370.56 266.222 371.52C265.822 372.25 265.422 372.98 265.032 373.71C264.392 374.9 263.762 376.1 263.132 377.3L261.932 379.64C261.292 380.92 260.652 382.19 260.022 383.48C259.692 384.17 259.352 384.87 259.022 385.57C258.502 386.66 258.022 387.76 257.492 388.86C257.182 389.52 256.882 390.18 256.582 390.86C255.842 392.507 255.118 394.173 254.412 395.86C254.192 396.38 253.982 396.91 253.762 397.43C253.232 398.7 252.712 399.97 252.202 401.25C251.932 401.92 251.672 402.59 251.412 403.25C250.912 404.51 250.412 405.78 249.962 407.05C249.752 407.6 249.542 408.15 249.342 408.7C248.715 410.453 248.098 412.207 247.492 413.96L246.932 415.66C246.492 416.993 246.062 418.327 245.642 419.66L245.042 421.57C244.572 423.11 244.112 424.65 243.672 426.2C243.572 426.53 243.472 426.86 243.382 427.2C242.862 429.04 242.362 430.887 241.882 432.74C241.722 433.33 241.582 433.93 241.432 434.52C241.082 435.91 240.742 437.3 240.432 438.7L240.012 440.45C239.582 442.35 239.162 444.25 238.772 446.16L238.622 446.93C238.282 448.63 237.948 450.33 237.622 452.03C237.512 452.64 237.412 453.24 237.302 453.85C237.042 455.34 236.792 456.85 236.562 458.35C236.482 458.86 236.392 459.35 236.322 459.87C236.022 461.82 235.752 463.78 235.492 465.75L235.342 467.05C235.142 468.64 234.962 470.24 234.792 471.84C234.732 472.44 234.662 473.04 234.602 473.65C234.442 475.33 234.292 477.02 234.152 478.71C234.152 479.06 234.092 479.4 234.072 479.71C233.925 481.71 233.795 483.727 233.682 485.76C233.682 486.29 233.682 486.83 233.612 487.36C233.545 488.933 233.485 490.503 233.432 492.07C233.432 492.66 233.432 493.25 233.432 493.84C233.432 495.89 233.352 497.95 233.352 500.01C233.352 500.01 233.352 500.08 233.352 500.11C233.352 502.33 233.352 504.53 233.432 506.73C233.432 507.49 233.492 508.25 233.512 509.01C233.562 510.48 233.612 511.95 233.682 513.42C233.682 514.31 233.792 515.19 233.842 516.08C233.922 517.41 233.992 518.74 234.092 520.08C234.162 521.08 234.252 521.97 234.332 522.91C234.442 524.17 234.542 525.43 234.672 526.68C234.762 527.68 234.882 528.62 234.982 529.59C235.122 530.8 235.252 532.02 235.402 533.23C235.522 534.23 235.662 535.23 235.792 536.18C235.952 537.36 236.112 538.55 236.292 539.73C236.442 540.73 236.602 541.73 236.762 542.73C236.942 543.89 237.132 545.06 237.332 546.22C237.512 547.22 237.692 548.22 237.882 549.22C238.092 550.37 238.312 551.52 238.532 552.66C238.752 553.8 238.942 554.66 239.152 555.66C239.392 556.8 239.632 557.93 239.892 559.06C240.152 560.19 240.332 561.06 240.572 561.99C240.832 563.12 241.112 564.24 241.392 565.35C241.672 566.46 241.882 567.3 242.132 568.26C242.432 569.38 242.732 570.49 243.042 571.6C243.302 572.6 243.572 573.52 243.852 574.47C244.172 575.58 244.502 576.68 244.852 577.78C245.202 578.88 245.432 579.67 245.732 580.62C246.032 581.57 246.432 582.81 246.792 583.9C247.152 584.99 247.412 585.77 247.732 586.7C248.112 587.79 248.492 588.88 248.882 589.97C249.212 590.88 249.532 591.8 249.882 592.71L251.122 595.98C251.472 596.87 251.812 597.77 252.122 598.66C252.562 599.75 253.012 600.85 253.462 601.94C253.822 602.8 254.172 603.67 254.542 604.53C255.012 605.65 255.542 606.75 255.992 607.86C256.362 608.68 256.722 609.51 257.092 610.33C257.612 611.49 258.162 612.63 258.692 613.77L259.772 616.07C260.382 617.33 261.012 618.57 261.642 619.82C261.962 620.45 262.262 621.09 262.592 621.72C264.512 625.46 266.512 629.15 268.592 632.79C268.882 633.26 269.252 633.87 269.612 634.48Z" fill="#C6854E"/>
<path d="M233.25 500C233.25 352.68 352.68 233.25 500 233.25C647.32 233.25 766.75 352.68 766.75 500C766.788 539.694 757.949 578.895 740.88 614.731C723.811 650.568 698.945 682.135 668.1 707.12C662.627 711.573 656.98 715.803 651.16 719.81C591 758 515 758 446.39 751.89C439.73 750.89 433.09 749.63 426.5 748.18C400.17 742.38 374.68 733.43 351.13 720.38C345.31 716.793 339.667 712.92 334.2 708.76C328.706 704.576 323.432 700.11 318.4 695.38C313.64 690.96 309.044 686.367 304.61 681.6C258.667 632.299 233.161 567.39 233.25 500Z" stroke="#592D3D" stroke-width="12" stroke-miterlimit="10"/>
<path d="M386.122 758.72C295.352 758.72 314.122 872.96 313.252 1000H386.122V758.72Z" fill="#D8985D"/>
<path d="M367.232 831.87L390.002 870L378.612 1000H346.882C346.072 819.73 367.232 831.87 367.232 831.87Z" fill="#C6854E"/>
<path d="M619.472 1070H380.532C377.011 1070 373.636 1068.6 371.148 1066.11C368.659 1063.62 367.262 1060.24 367.262 1056.72V772C367.262 768.48 368.659 765.103 371.148 762.613C373.636 760.123 377.011 758.723 380.532 758.72H613.762C626.852 758.72 632.762 766.38 632.762 778.6V1056.68C632.767 1058.43 632.427 1060.16 631.761 1061.78C631.096 1063.39 630.117 1064.86 628.883 1066.1C627.648 1067.34 626.181 1068.32 624.566 1068.99C622.951 1069.66 621.22 1070 619.472 1070Z" fill="#D8985D"/>
<path d="M629.052 766.62C628.055 765.394 627.212 764.051 626.542 762.62C624.141 760.739 621.284 759.527 618.262 759.11C616.773 758.88 615.268 758.766 613.762 758.77H380.532C377.02 758.773 373.652 760.166 371.165 762.646C368.679 765.125 367.275 768.488 367.262 772C396.262 782.42 450.552 788.24 500.002 788.24C563.062 788.24 604.382 778.89 629.052 766.62Z" fill="#C6854E"/>
<path d="M610 758.72C700.76 758.72 682 872.96 682.87 1000H632.74" stroke="#592D3D" stroke-width="12" stroke-miterlimit="10" stroke-linecap="square"/>
<path d="M386.122 758.72C295.352 758.72 314.122 872.96 313.252 1000H363.322" stroke="#592D3D" stroke-width="12" stroke-miterlimit="10" stroke-linecap="square"/>
<path d="M380.531 758.82L613.761 758.72" stroke="#592D3D" stroke-width="12" stroke-miterlimit="10"/>
<path d="M380.532 1070H497.152C388.002 1070 396.242 838.82 367.262 838.82V1056.68C367.257 1058.43 367.596 1060.16 368.26 1061.77C368.925 1063.39 369.901 1064.86 371.134 1066.09C372.366 1067.33 373.831 1068.31 375.444 1068.98C377.056 1069.65 378.785 1070 380.532 1070Z" fill="#C6854E"/>
<path d="M361.259 860.85C361.069 857.18 361.149 853.51 361.309 849.85C361.469 846.19 361.779 842.5 362.169 838.85C362.369 837.01 362.569 835.18 362.819 833.34C363.069 831.5 363.309 829.67 363.669 827.83C364.378 824.022 365.585 820.324 367.259 816.83C368.933 820.324 370.14 824.022 370.849 827.83C371.209 829.67 371.469 831.5 371.699 833.34C371.929 835.18 372.149 837.01 372.349 838.85C372.729 842.52 373.029 846.19 373.199 849.85C373.369 853.51 373.449 857.19 373.259 860.85H361.259Z" fill="#592D3D"/>
<path d="M632.742 870V878C633.002 912 633.002 947 632.742 980.75C632.742 983.62 632.742 986.47 632.742 989.28V1056.69C632.746 1058.44 632.405 1060.17 631.74 1061.78C631.075 1063.39 630.099 1064.86 628.866 1066.1C627.634 1067.33 626.17 1068.31 624.558 1068.98C622.946 1069.65 621.217 1070 619.472 1070H380.532C377.011 1070 373.636 1068.6 371.148 1066.11C368.659 1063.62 367.262 1060.24 367.262 1056.72V998.52C367.262 996.01 367.262 993.45 367.262 990.87C367.012 956 367.012 921 367.262 885.57V860.85" stroke="#592D3D" stroke-width="12" stroke-miterlimit="10"/>
<path d="M626.74 870C626.55 865.83 626.64 861.65 626.8 857.47C626.96 853.29 627.27 849.12 627.65 844.94C627.85 842.85 628.06 840.76 628.3 838.67C628.54 836.58 628.79 834.5 629.15 832.41C629.847 828.106 631.052 823.9 632.74 819.88C634.428 823.9 635.633 828.106 636.33 832.41C636.69 834.5 636.95 836.59 637.18 838.67C637.41 840.75 637.63 842.85 637.83 844.94C638.21 849.12 638.52 853.29 638.68 857.47C638.84 861.65 638.93 865.83 638.74 870H626.74Z" fill="#592D3D"/>
<path d="M570.68 842.45C570.9 833 582.9 829 588.9 835C589.875 835.995 590.644 837.173 591.164 838.466C591.684 839.759 591.944 841.141 591.93 842.535C591.915 843.928 591.627 845.305 591.08 846.587C590.534 847.868 589.74 849.03 588.745 850.005C587.749 850.98 586.572 851.75 585.279 852.269C583.986 852.789 582.603 853.05 581.21 853.035C579.817 853.021 578.44 852.732 577.158 852.186C575.876 851.639 574.715 850.845 573.74 849.85C572.766 848.88 571.994 847.727 571.469 846.456C570.944 845.186 570.675 843.825 570.68 842.45Z" fill="#592D3D"/>
<path d="M408.109 842.15C407.899 834 416.899 830 422.899 833C430.899 836 430.899 847 422.899 852C418.899 854 414.899 852 411.149 849.52C410.182 848.552 409.416 847.403 408.894 846.138C408.372 844.873 408.106 843.518 408.109 842.15Z" fill="#592D3D"/>
<path d="M500 831.77C500.715 833.655 501.218 835.614 501.5 837.61C501.797 839.543 501.961 841.494 501.99 843.45L502.29 855.14C502.38 859.03 502.5 862.93 502.54 866.83L502.71 878.5C502.94 894.07 502.93 909.66 502.99 925.24C503.05 940.82 503.17 956.4 502.99 971.98C502.9 979.77 502.69 987.56 502.46 995.35C502.36 999.24 502.17 1003.14 501.79 1007.03C501.45 1010.96 500.859 1014.87 500.02 1018.72C499.181 1014.87 498.59 1010.96 498.25 1007.03C497.87 1003.14 497.68 999.24 497.58 995.35C497.35 987.56 497.14 979.77 497.05 971.98C496.85 956.4 497.05 940.82 497.05 925.24C497.05 909.66 497.05 894.09 497.23 878.51L497.4 866.81L497.73 855.13L498.06 843.45C498.097 841.494 498.264 839.543 498.56 837.61C498.822 835.616 499.305 833.657 500 831.77Z" fill="#C6854E"/>
<path d="M425.219 883C426.702 882.295 428.272 881.791 429.889 881.5C431.433 881.21 432.998 881.043 434.569 881L443.919 880.67L462.619 880.26C475.079 880.07 487.529 880.02 499.999 879.99C512.469 879.96 524.929 879.83 537.389 879.99C543.619 880.08 549.849 880.29 556.089 880.52C559.199 880.63 562.319 880.82 565.429 881.19C568.587 881.54 571.713 882.135 574.779 882.97C571.715 883.81 568.588 884.402 565.429 884.74C562.319 885.12 559.199 885.31 556.089 885.41C549.849 885.64 543.619 885.84 537.389 885.93C524.929 886.12 512.469 885.93 499.999 885.93C487.529 885.93 475.069 885.93 462.599 885.78C456.369 885.72 450.139 885.52 443.919 885.28L434.569 884.94C433.001 884.898 431.44 884.73 429.899 884.44C428.282 884.17 426.708 883.686 425.219 883Z" fill="#C6854E"/>
<path d="M442.41 914.38C443.591 913.817 444.853 913.442 446.15 913.27C447.349 913.101 448.561 913.05 449.77 913.12C452.16 913.22 454.55 913.28 456.94 913.33C461.72 913.44 466.5 913.48 471.28 913.5C480.91 913.5 490.37 913.58 500.04 913.29C509.71 913 519.3 912.86 528.92 912.9C533.73 912.9 538.54 913.03 543.34 913.14C545.757 913.172 548.17 913.329 550.57 913.61C553.037 913.882 555.472 914.395 557.84 915.14C555.528 916.048 553.129 916.718 550.68 917.14C548.296 917.569 545.888 917.857 543.47 918C538.65 918.35 533.83 918.65 529.02 918.82C519.38 919.18 509.75 919.14 500.14 919.27C495.33 919.27 490.53 919.49 485.66 919.37C480.79 919.25 475.97 919.24 471.14 919.06C466.31 918.88 461.46 918.48 456.64 917.98C454.22 917.71 451.82 917.41 449.41 917.08C448.193 916.931 446.996 916.649 445.84 916.24C444.599 915.82 443.439 915.191 442.41 914.38Z" fill="#C6854E"/>
<path d="M438.93 949.87C440.116 949.172 441.405 948.666 442.75 948.37C444.003 948.078 445.283 947.914 446.57 947.88L454.2 947.56C459.29 947.38 464.39 947.23 469.48 947.15C479.66 947 489.84 947 500 947C510.16 947 520.36 946.83 530.54 947C535.63 947.09 540.72 947.3 545.81 947.53C548.363 947.616 550.91 947.836 553.44 948.19C556.045 948.547 558.61 949.153 561.1 950C558.618 950.831 556.063 951.423 553.47 951.77C550.937 952.132 548.387 952.356 545.83 952.44C540.74 952.67 535.65 952.88 530.56 952.97C520.38 953.17 510.19 953.03 500.01 952.97C489.83 952.91 479.65 952.91 469.47 952.72C464.38 952.62 459.28 952.44 454.19 952.23L446.56 951.86C445.273 951.821 443.993 951.653 442.74 951.36C441.398 951.07 440.112 950.567 438.93 949.87Z" fill="#C6854E"/>
<path d="M677.8 906.35C678.01 869.24 676.59 836.28 670.07 810.96C660 785.6 641.89 770.48 610 770.48L632.79 905C632.79 905 655.31 915.24 677.8 906.35Z" fill="#C6854E"/>
<path d="M686.411 895.79C685.27 896.732 684.029 897.547 682.711 898.22" stroke="#592D3D" stroke-width="12" stroke-miterlimit="10" stroke-linecap="square"/>
<path d="M326.109 809.88C319.279 835.45 318.109 869.01 318.369 906.88C338.269 915.42 368.789 904.73 368.789 904.73L386.119 772.49C355.249 772.46 336.849 786.36 326.109 809.88Z" fill="#C6854E"/>
<path d="M613.762 758.72H559.552V758.82C559.553 763.322 559.07 767.811 558.112 772.21C557.646 774.35 557.065 776.463 556.372 778.54C554.159 784.744 550.763 790.46 546.372 795.37C544.97 796.943 543.467 798.423 541.872 799.8C516.702 818 476.702 819 452.392 799.22C449.773 796.932 447.391 794.386 445.282 791.62C440.903 785.87 437.801 779.253 436.182 772.21C435.708 770.034 435.351 767.834 435.112 765.62C434.862 763.362 434.738 761.092 434.742 758.82V758.72H380.532C377.011 758.723 373.636 760.123 371.148 762.613C368.66 765.103 367.262 768.48 367.262 772V1056.68C367.257 1058.43 367.596 1060.16 368.26 1061.77C368.925 1063.39 369.901 1064.86 371.134 1066.09C372.366 1067.33 373.831 1068.31 375.444 1068.98C377.056 1069.65 378.785 1070 380.532 1070H619.472C622.992 1070 626.367 1068.6 628.856 1066.11C631.344 1063.62 632.742 1060.24 632.742 1056.72V778.6C632.742 766.38 626.852 758.72 613.762 758.72Z" fill="#89D86F"/>
<path d="M610 758.72C673.54 758.72 683.4 814.72 683.9 891.89C665.3 903.51 634.99 893.2 634.99 893.2L610 758.72Z" fill="#89D86F"/>
<path d="M632.74 831.87L610 870L621.38 1000H632.99V894.35L650.27 897.24C644.6 825.07 632.74 831.87 632.74 831.87Z" fill="#7DC462"/>
<path d="M386.12 758.72C324.34 758.72 310.29 812.52 309.27 886.38C328.27 906.24 367.27 890.96 367.27 890.96L386.12 758.72Z" fill="#89D86F"/>
<path d="M367.232 831.87V891L349.922 895.31C355.592 825.19 367.232 831.87 367.232 831.87Z" fill="#7DC462"/>
<path d="M610 758.72C677.41 758.72 688.45 815.01 688.9 892.5C662.7 904.93 634.99 893.2 634.99 893.2" stroke="#592D3D" stroke-width="12" stroke-miterlimit="10" stroke-linecap="square"/>
<path d="M386.119 758.72C319.329 758.72 306.039 813.42 305.359 889.44C325.999 904.22 367.219 891 367.219 891" stroke="#592D3D" stroke-width="12" stroke-miterlimit="10" stroke-linecap="square"/>
<path d="M380.532 1070H497.152C388.002 1070 396.242 838.82 367.262 838.82V1056.68C367.257 1058.43 367.596 1060.16 368.26 1061.77C368.925 1063.39 369.901 1064.86 371.134 1066.09C372.366 1067.33 373.831 1068.31 375.444 1068.98C377.056 1069.65 378.785 1070 380.532 1070Z" fill="#7DC462"/>
<path d="M361.259 860.85C361.069 857.18 361.149 853.51 361.309 849.85C361.469 846.19 361.779 842.5 362.169 838.85C362.369 837.01 362.569 835.18 362.819 833.34C363.069 831.5 363.309 829.67 363.669 827.83C364.378 824.022 365.585 820.324 367.259 816.83C368.934 820.322 370.138 824.021 370.839 827.83C371.209 829.67 371.469 831.5 371.699 833.34C371.929 835.18 372.149 837.01 372.349 838.85C372.729 842.52 373.029 846.19 373.199 849.85C373.369 853.51 373.449 857.19 373.259 860.85H361.259Z" fill="#592D3D"/>
<path d="M632.742 870V878C633.002 912 633.002 947 632.742 980.75C632.742 983.62 632.742 986.47 632.742 989.28V1056.69C632.746 1058.44 632.405 1060.17 631.74 1061.78C631.075 1063.39 630.099 1064.86 628.866 1066.1C627.634 1067.33 626.17 1068.31 624.558 1068.98C622.946 1069.65 621.217 1070 619.472 1070H380.532C377.011 1070 373.636 1068.6 371.148 1066.11C368.659 1063.62 367.262 1060.24 367.262 1056.72V998.52C367.262 996.01 367.262 993.45 367.262 990.87C367.012 956 367.012 921 367.262 885.57V860.85" stroke="#592D3D" stroke-width="12" stroke-miterlimit="10"/>
<path d="M626.74 870C626.55 865.83 626.64 861.65 626.8 857.47C626.96 853.29 627.27 849.12 627.65 844.94C627.85 842.85 628.06 840.76 628.3 838.67C628.54 836.58 628.79 834.5 629.16 832.41C629.848 828.105 631.05 823.898 632.74 819.88C634.428 823.9 635.633 828.106 636.33 832.41C636.69 834.5 636.95 836.59 637.18 838.67C637.41 840.75 637.63 842.85 637.83 844.94C638.21 849.12 638.52 853.29 638.68 857.47C638.84 861.65 638.93 865.83 638.74 870H626.74Z" fill="#592D3D"/>
<path d="M380.531 758.82L613.761 758.72" stroke="#592D3D" stroke-width="12" stroke-miterlimit="10"/>
<path d="M559.552 758.82C559.554 763.322 559.071 767.811 558.112 772.21C557.646 774.35 557.066 776.463 556.372 778.54C554.16 784.744 550.764 790.46 546.372 795.37C544.971 796.943 543.467 798.423 541.872 799.8C516.702 818 476.702 819 452.392 799.22C449.773 796.932 447.391 794.386 445.282 791.62C440.904 785.87 437.802 779.253 436.182 772.21C435.708 770.034 435.351 767.834 435.112 765.62C434.862 763.362 434.739 761.092 434.742 758.82" stroke="#592D3D" stroke-width="12" stroke-miterlimit="10"/>
<path d="M503.399 828.39C497.35 829.607 491.161 829.977 485.009 829.49C478.802 829.054 472.681 827.789 466.809 825.73C460.902 823.705 455.338 820.792 450.309 817.09L448.449 815.68C447.839 815.2 447.249 814.68 446.659 814.16C445.471 813.149 444.358 812.053 443.329 810.88C441.276 808.573 439.473 806.056 437.949 803.37C440.089 805.516 442.338 807.548 444.689 809.46C445.269 809.94 445.859 810.41 446.439 810.86C447.019 811.31 447.669 811.68 448.279 812.1C448.889 812.52 449.499 812.94 450.129 813.33L452.039 814.49C457.141 817.513 462.535 820.012 468.139 821.95C473.755 823.914 479.525 825.402 485.389 826.4C491.354 827.376 497.365 828.041 503.399 828.39Z" fill="#592D3D"/>
<path d="M307.832 892.5C308.969 893.537 310.201 894.464 311.512 895.27" stroke="#592D3D" stroke-width="12" stroke-miterlimit="10" stroke-linecap="square"/>
<path d="M674.699 882.69C672.618 883.935 670.327 884.789 667.939 885.21C665.568 885.676 663.155 885.894 660.739 885.86C658.327 885.813 655.924 885.548 653.559 885.07C652.379 884.86 651.229 884.51 650.069 884.2C648.909 883.89 647.799 883.43 646.699 882.96C647.909 882.96 649.079 883.14 650.259 883.24L653.779 883.53C654.949 883.53 656.109 883.73 657.279 883.74C658.449 883.75 659.599 883.85 660.759 883.86C663.093 883.9 665.426 883.837 667.759 883.67C670.093 883.508 672.412 883.181 674.699 882.69Z" fill="#592D3D"/>
<path d="M551.551 939.73C550.613 939.189 549.603 938.785 548.551 938.53V907.92C549.625 907.666 550.656 907.255 551.611 906.7C553.045 905.879 554.286 904.759 555.248 903.415C556.21 902.072 556.871 900.536 557.185 898.914C557.5 897.291 557.461 895.62 557.071 894.014C556.681 892.408 555.949 890.905 554.925 889.608C553.901 888.311 552.609 887.25 551.138 886.497C549.667 885.744 548.05 885.318 546.399 885.247C544.748 885.176 543.101 885.462 541.571 886.086C540.04 886.709 538.662 887.655 537.531 888.86L511.001 873.57C511.472 871.991 511.598 870.329 511.37 868.697C511.142 867.064 510.565 865.5 509.679 864.111C508.792 862.721 507.617 861.539 506.233 860.644C504.849 859.75 503.289 859.163 501.658 858.925C500.027 858.688 498.364 858.803 496.782 859.265C495.2 859.727 493.736 860.525 492.49 861.603C491.244 862.681 490.244 864.015 489.559 865.514C488.874 867.013 488.52 868.642 488.521 870.29C488.522 871.393 488.681 872.491 488.991 873.55L462.491 888.85C461.729 888.047 460.857 887.357 459.901 886.8C458.592 886.005 457.138 885.479 455.624 885.253C454.109 885.028 452.565 885.107 451.082 885.487C449.598 885.867 448.206 886.539 446.986 887.465C445.766 888.39 444.744 889.55 443.979 890.876C443.214 892.203 442.721 893.668 442.531 895.188C442.34 896.707 442.455 898.249 442.869 899.723C443.283 901.197 443.987 902.574 444.94 903.772C445.894 904.97 447.077 905.966 448.421 906.7C449.375 907.255 450.406 907.666 451.481 907.92V938.52C450.429 938.783 449.42 939.19 448.481 939.73C447.137 940.464 445.954 941.46 445 942.658C444.047 943.856 443.343 945.233 442.929 946.707C442.515 948.181 442.4 949.723 442.591 951.242C442.781 952.762 443.274 954.227 444.039 955.554C444.804 956.88 445.826 958.04 447.046 958.966C448.266 959.891 449.658 960.563 451.142 960.943C452.625 961.323 454.169 961.402 455.684 961.177C457.198 960.951 458.652 960.426 459.961 959.63C460.907 959.087 461.772 958.414 462.531 957.63L489.001 972.9C488.686 973.955 488.527 975.05 488.531 976.15C488.531 979.2 489.742 982.125 491.899 984.282C494.056 986.438 496.981 987.65 500.031 987.65C503.081 987.65 506.006 986.438 508.162 984.282C510.319 982.125 511.531 979.2 511.531 976.15C511.529 974.92 511.333 973.699 510.951 972.53L537.281 957.33C538.095 958.247 539.055 959.023 540.121 959.63C542.754 961.07 545.847 961.421 548.737 960.61C551.626 959.799 554.084 957.889 555.584 955.289C557.084 952.689 557.507 949.606 556.762 946.698C556.018 943.79 554.165 941.289 551.601 939.73H551.551ZM465.351 947C465.092 945.947 464.685 944.937 464.141 944C463.597 943.057 462.924 942.195 462.141 941.44L496.821 881.38C497.861 881.678 498.938 881.829 500.021 881.83C501.107 881.831 502.188 881.676 503.231 881.37L537.901 941.43C536.308 942.948 535.187 944.892 534.671 947.03L465.351 947ZM534.801 893.64C534.376 895.12 534.255 896.671 534.443 898.199C534.632 899.727 535.126 901.202 535.897 902.535C536.668 903.867 537.7 905.031 538.931 905.957C540.161 906.882 541.566 907.55 543.061 907.92V938.57L542.621 938.68L507.941 878.61L508.241 878.31L534.801 893.64ZM491.741 878.3L492.071 878.62L457.391 938.69L456.941 938.57V907.89C458.436 907.52 459.842 906.852 461.073 905.926C462.304 905 463.335 903.834 464.106 902.5C464.876 901.166 465.369 899.69 465.556 898.161C465.742 896.631 465.618 895.08 465.191 893.6L491.741 878.3ZM508.491 968.44C507.431 967.281 506.145 966.351 504.713 965.708C503.28 965.065 501.731 964.722 500.16 964.7C498.59 964.679 497.032 964.979 495.582 965.583C494.132 966.186 492.822 967.08 491.731 968.21L465.221 952.9L465.341 952.46H534.661C534.721 952.71 534.791 952.97 534.871 953.21L508.491 968.44Z" fill="black" stroke="white" stroke-width="16"/>
<path d="M551.551 939.73C550.613 939.189 549.603 938.785 548.551 938.53V907.92C549.625 907.666 550.656 907.255 551.611 906.7C553.045 905.879 554.286 904.759 555.248 903.415C556.21 902.072 556.871 900.536 557.185 898.914C557.5 897.291 557.461 895.62 557.071 894.014C556.681 892.408 555.949 890.905 554.925 889.608C553.901 888.311 552.609 887.25 551.138 886.497C549.667 885.744 548.05 885.318 546.399 885.247C544.748 885.176 543.101 885.462 541.571 886.086C540.04 886.709 538.662 887.655 537.531 888.86L511.001 873.57C511.472 871.991 511.598 870.329 511.37 868.697C511.142 867.064 510.565 865.5 509.679 864.111C508.792 862.721 507.617 861.539 506.233 860.644C504.849 859.75 503.289 859.163 501.658 858.925C500.027 858.688 498.364 858.803 496.782 859.265C495.2 859.727 493.736 860.525 492.49 861.603C491.244 862.681 490.244 864.015 489.559 865.514C488.874 867.013 488.52 868.642 488.521 870.29C488.522 871.393 488.681 872.491 488.991 873.55L462.491 888.85C461.729 888.047 460.857 887.357 459.901 886.8C458.592 886.005 457.138 885.479 455.624 885.253C454.109 885.028 452.565 885.107 451.082 885.487C449.598 885.867 448.206 886.539 446.986 887.465C445.766 888.39 444.744 889.55 443.979 890.876C443.214 892.203 442.721 893.668 442.531 895.188C442.34 896.707 442.455 898.249 442.869 899.723C443.283 901.197 443.987 902.574 444.94 903.772C445.894 904.97 447.077 905.966 448.421 906.7C449.375 907.255 450.406 907.666 451.481 907.92V938.52C450.429 938.783 449.42 939.19 448.481 939.73C447.137 940.464 445.954 941.46 445 942.658C444.047 943.856 443.343 945.233 442.929 946.707C442.515 948.181 442.4 949.723 442.591 951.242C442.781 952.762 443.274 954.227 444.039 955.554C444.804 956.88 445.826 958.04 447.046 958.966C448.266 959.891 449.658 960.563 451.142 960.943C452.625 961.323 454.169 961.402 455.684 961.177C457.198 960.951 458.652 960.426 459.961 959.63C460.907 959.087 461.772 958.414 462.531 957.63L489.001 972.9C488.686 973.955 488.527 975.05 488.531 976.15C488.531 979.2 489.742 982.125 491.899 984.282C494.056 986.438 496.981 987.65 500.031 987.65C503.081 987.65 506.006 986.438 508.162 984.282C510.319 982.125 511.531 979.2 511.531 976.15C511.529 974.92 511.333 973.699 510.951 972.53L537.281 957.33C538.095 958.247 539.055 959.023 540.121 959.63C542.754 961.07 545.847 961.421 548.737 960.61C551.626 959.799 554.084 957.889 555.584 955.289C557.084 952.689 557.507 949.606 556.762 946.698C556.018 943.79 554.165 941.289 551.601 939.73H551.551ZM465.351 947C465.092 945.947 464.685 944.937 464.141 944C463.597 943.057 462.924 942.195 462.141 941.44L496.821 881.38C497.861 881.678 498.938 881.829 500.021 881.83C501.107 881.831 502.188 881.676 503.231 881.37L537.901 941.43C536.308 942.948 535.187 944.892 534.671 947.03L465.351 947ZM534.801 893.64C534.376 895.12 534.255 896.671 534.443 898.199C534.632 899.727 535.126 901.202 535.897 902.535C536.668 903.867 537.7 905.031 538.931 905.957C540.161 906.882 541.566 907.55 543.061 907.92V938.57L542.621 938.68L507.941 878.61L508.241 878.31L534.801 893.64ZM491.741 878.3L492.071 878.62L457.391 938.69L456.941 938.57V907.89C458.436 907.52 459.842 906.852 461.073 905.926C462.304 905 463.335 903.834 464.106 902.5C464.876 901.166 465.369 899.69 465.556 898.161C465.742 896.631 465.618 895.08 465.191 893.6L491.741 878.3ZM508.491 968.44C507.431 967.281 506.145 966.351 504.713 965.708C503.28 965.065 501.731 964.722 500.16 964.7C498.59 964.679 497.032 964.979 495.582 965.583C494.132 966.186 492.822 967.08 491.731 968.21L465.221 952.9L465.341 952.46H534.661C534.721 952.71 534.791 952.97 534.871 953.21L508.491 968.44Z" fill="#E535AB"/>
<path d="M703.512 506.11V519C705.074 527.465 704.405 536.192 701.572 544.32C700.64 546.973 699.465 549.534 698.062 551.97C694.712 560.68 685.712 567.68 676.712 570.68C662.712 574.68 645.712 572.68 634.712 561.68C620.712 546.68 622.712 524.68 622.262 506.06" stroke="#592D3D" stroke-width="12" stroke-miterlimit="10" stroke-linecap="round"/>
<path d="M376.689 505.7C379.029 532.31 375.029 569.31 340.559 572.87C337.858 573.11 335.14 573.11 332.439 572.87C324.305 572.174 316.53 569.208 309.999 564.31C291.999 549.31 295.999 525.31 296.049 505.69" stroke="#592D3D" stroke-width="12" stroke-miterlimit="10" stroke-linecap="round"/>
<path d="M443.141 621.86C443.141 602.96 556.861 605.8 556.861 621.86C556.861 636.94 550.87 651.403 540.207 662.066C529.543 672.73 515.081 678.72 500.001 678.72C484.92 678.72 470.458 672.73 459.795 662.066C449.131 651.403 443.141 636.94 443.141 621.86Z" fill="#592D3D"/>
<path d="M495.002 643C478.052 642 463.272 649.75 458.352 661.22C466.532 669.863 477.219 675.72 488.905 677.968C500.591 680.216 512.688 678.741 523.492 673.75C525.738 672.713 527.913 671.527 530.002 670.2C529.082 656.09 514.062 644.18 495.002 643Z" fill="#F28195"/>
<path d="M443.141 621.86C443.141 602.96 556.861 605.8 556.861 621.86C556.861 636.94 550.87 651.403 540.207 662.066C529.543 672.73 515.081 678.72 500.001 678.72C484.92 678.72 470.458 672.73 459.795 662.066C449.131 651.403 443.141 636.94 443.141 621.86Z" stroke="#592D3D" stroke-width="6" stroke-miterlimit="10"/>
<path d="M478.121 632.46C478.571 632.35 478.751 632.3 479.041 632.25L479.791 632.11C480.281 632.02 480.791 631.97 481.251 631.93C482.211 631.832 483.177 631.799 484.141 631.83C486.096 631.873 488.039 632.145 489.931 632.64C493.893 633.643 497.484 635.76 500.281 638.74C502.912 641.57 504.676 645.097 505.361 648.9C505.986 652.408 505.511 656.023 504.001 659.25C501.931 656.32 500.341 653.69 498.681 651.49C497.934 650.435 497.115 649.433 496.231 648.49C495.423 647.662 494.517 646.936 493.531 646.33C491.664 645.212 489.582 644.499 487.421 644.24C486.287 644.094 485.145 644.014 484.001 644C483.411 644 482.821 644 482.241 644.05L481.391 644.11H481.001C480.901 644.11 480.701 644.11 480.771 644.11L478.121 632.46Z" fill="#592D3D"/>
<path d="M558.729 399.34C545.869 423.34 498.729 436.78 494.899 430.76C490.609 424.03 532.749 375.44 508.799 324.62" fill="#C6854E"/>
<path d="M784.002 342.85C778.902 337.75 752.942 344.68 726.812 342.62C701.208 307.848 667.936 279.445 629.577 259.615C591.218 239.786 548.805 229.063 505.632 228.28C503.192 207.8 504.882 190.6 503.022 188.18C500.532 184.96 487.532 200.86 484.152 219.18C472.242 204.18 452.012 196.18 451.432 200.38C451.052 203.06 458.872 214.47 466.242 230.28C354.642 243.75 263.162 322.54 231.162 427.28C217.302 439.2 204.302 447.62 204.162 452.97C203.892 462.89 243.472 462.33 260.742 460.79V460.73C321.392 458.73 439.742 446.95 497.162 387.84C491.642 406.93 481.472 421 483.432 424C486.432 428.67 521.752 418.81 533.502 400.76C581.502 420.35 672.992 443.92 752.502 384.6L752.282 384.17C766.772 372.06 790.352 349.25 784.002 342.85Z" fill="#A56941"/>
<path d="M726.852 348.62C721.452 348.86 716.192 348.73 710.852 348.48C705.512 348.23 700.262 347.81 694.982 347.22C692.342 346.93 689.702 346.62 687.072 346.22C684.442 345.82 681.802 345.5 679.182 344.99C673.843 344.03 668.62 342.508 663.602 340.45C668.847 339.107 674.201 338.23 679.602 337.83C682.232 337.61 684.862 337.46 687.492 337.35L695.372 337.01C700.622 336.79 705.862 336.67 711.092 336.56C716.322 336.45 721.572 336.44 726.712 336.56L726.852 348.62Z" fill="#592D3D"/>
<path d="M236.599 430C236.599 430 236.599 430.24 236.599 430.39L236.479 430.92L236.199 432.03C235.989 432.78 235.769 433.55 235.539 434.32C235.069 435.87 234.539 437.46 233.999 439.07C233.459 440.68 232.939 442.35 232.229 444.07C231.832 444.968 231.371 445.837 230.849 446.67C230.25 447.658 229.557 448.586 228.779 449.44C227.093 447.964 225.812 446.081 225.059 443.97C224.716 443.029 224.462 442.058 224.299 441.07C224.089 440.07 223.989 439.07 223.869 438.12C223.669 436.125 223.669 434.115 223.869 432.12C223.967 431.111 224.127 430.109 224.349 429.12C224.469 428.62 224.599 428.12 224.759 427.61C224.836 427.349 224.926 427.092 225.029 426.84C225.129 426.56 225.209 426.36 225.389 425.94L236.599 430Z" fill="#592D3D"/>
<path d="M260.742 460.82V460.76C277.742 460.2 299.372 458.86 322.882 455.92C325.512 400 344.882 334.34 388.802 257.48L382.002 254.23C346.132 270.896 314.167 294.917 288.181 324.734C262.195 354.552 242.768 389.499 231.162 427.31C217.302 439.23 204.302 447.65 204.162 453C203.892 462.92 243.472 462.36 260.742 460.82Z" fill="#8D5638"/>
<path d="M784.002 342.85C778.902 337.75 752.942 344.68 726.812 342.62C701.208 307.848 667.936 279.445 629.577 259.615C591.218 239.786 548.805 229.063 505.632 228.28C503.192 207.8 504.882 190.6 503.022 188.18C500.532 184.96 487.532 200.86 484.152 219.18C472.242 204.18 452.012 196.18 451.432 200.38C451.052 203.06 458.872 214.47 466.242 230.28C354.642 243.75 263.162 322.54 231.162 427.28C217.302 439.2 204.302 447.62 204.162 452.97C203.892 462.89 243.472 462.33 260.742 460.79V460.73C321.392 458.73 439.742 446.95 497.162 387.84C491.642 406.93 481.472 421 483.432 424C486.432 428.67 521.752 418.81 533.502 400.76C581.502 420.35 672.992 443.92 752.502 384.6L752.282 384.17C766.772 372.06 790.352 349.25 784.002 342.85Z" stroke="#592D3D" stroke-width="12" stroke-miterlimit="10"/>
<path d="M505.93 244.31C491.686 245.131 477.502 246.78 463.45 249.25C459.97 249.92 456.5 250.66 453.01 251.3C449.52 251.94 446.11 252.91 442.66 253.71L432.4 256.43C429 257.43 425.63 258.51 422.25 259.55C408.767 263.898 395.594 269.154 382.82 275.28C369.985 281.511 357.545 288.524 345.57 296.28C356.236 286.552 368.011 278.114 380.65 271.14C393.3 264.077 406.618 258.285 420.41 253.85C423.89 252.85 427.35 251.76 430.83 250.8C434.31 249.84 437.83 248.98 441.38 248.2C444.93 247.42 448.48 246.8 452.04 246.2C455.6 245.6 459.19 245.13 462.77 244.68C477.096 242.918 491.576 242.794 505.93 244.31Z" fill="white"/>
<path d="M255.061 519.62L268.061 515.22L299.261 504.68L336.861 491.98L369.351 480.98C374.621 479.2 379.901 477.47 385.151 475.64L385.381 475.57C387.878 474.826 390.014 473.189 391.381 470.97C392.72 468.681 393.095 465.954 392.424 463.389C391.752 460.823 390.09 458.63 387.801 457.29C386.648 456.617 385.371 456.182 384.047 456.01C382.723 455.838 381.378 455.934 380.091 456.29L367.091 460.68L335.891 471.22L298.291 483.93L265.801 494.93C260.531 496.71 255.251 498.45 250.001 500.27L249.771 500.35C247.274 501.094 245.138 502.731 243.771 504.95C242.432 507.239 242.057 509.966 242.728 512.531C243.4 515.097 245.062 517.29 247.351 518.63C248.504 519.303 249.781 519.738 251.105 519.91C252.429 520.082 253.774 519.987 255.061 519.63V519.62Z" fill="#592D3D"/>
<path d="M617.561 475L630.291 480.13L660.831 492.44L697.641 507.28L729.451 520.11C734.601 522.18 739.711 524.41 744.921 526.35L745.141 526.43C747.391 527.34 750.851 526.59 752.851 525.43C753.986 524.767 754.978 523.886 755.773 522.839C756.567 521.792 757.146 520.599 757.479 519.327C757.811 518.056 757.89 516.731 757.71 515.429C757.531 514.127 757.096 512.874 756.431 511.74L754.871 509.74C753.648 508.516 752.129 507.631 750.461 507.17L737.731 502L707.191 489.68L670.381 474.84L638.571 462C633.421 459.92 628.311 457.69 623.101 455.76L622.881 455.67C620.631 454.76 617.171 455.51 615.171 456.67C612.883 458.01 611.22 460.203 610.548 462.769C609.877 465.334 610.252 468.061 611.591 470.35L613.151 472.35C614.375 473.575 615.894 474.463 617.561 474.93V475Z" fill="#592D3D"/>
</g>
</svg>
