<svg width="1000" height="990" viewBox="0 0 1000 990" fill="none" xmlns="http://www.w3.org/2000/svg">
<mask id="mask0_22_2028" style="mask-type:luminance" maskUnits="userSpaceOnUse" x="0" y="0" width="1000" height="966">
<path d="M1000 0H0V718.31H179.2C217.58 860.69 346.65 965.41 500 965.41C653.35 965.41 782.42 860.69 820.8 718.31H1000V0Z" fill="white"/>
</mask>
<g mask="url(#mask0_22_2028)">
<path d="M500.001 962.602C683.603 962.602 832.443 813.763 832.443 630.16C832.443 446.557 683.603 297.718 500.001 297.718C316.398 297.718 167.559 446.557 167.559 630.16C167.559 813.763 316.398 962.602 500.001 962.602Z" fill="#85C5E5"/>
<path d="M501.709 209.52C335.569 209.52 200.879 344.2 200.879 510.35V673.78C210.359 684.3 226.249 693.35 246.879 700.97L260.199 661.2L274.659 709.66C427.419 750.3 741.369 734.94 802.539 673.78V510.35C802.539 344.2 667.849 209.52 501.709 209.52Z" fill="#D96E27"/>
<path d="M242.869 699.45C244.189 699.96 245.519 700.45 246.869 700.97L260.199 661.2L274.659 709.66C319.879 721.66 379.209 728.81 441.939 731.29L469.219 705.07L235.809 529.43C235.809 529.43 229.669 630.88 242.869 699.45Z" fill="#C65C22"/>
<path d="M617.199 552.78L642.509 723.54C677.309 719.2 709.129 713.27 735.619 705.81C735.619 705.81 768.709 668.92 765.139 529.43C761.569 389.94 617.199 552.78 617.199 552.78Z" fill="#C65C22"/>
<path d="M501.709 209.52C335.569 209.52 200.879 344.2 200.879 510.35V673.78C210.359 684.3 226.249 693.35 246.879 700.97L260.199 661.2L274.659 709.66C427.419 750.3 741.369 734.94 802.539 673.78V510.35C802.539 344.2 667.849 209.52 501.709 209.52Z" stroke="#592D3D" stroke-width="12" stroke-miterlimit="10"/>
<path d="M610 758.72C700.76 758.72 682 872.96 682.87 1000H610V758.72Z" fill="#FBE8B3"/>
<path d="M632.74 831.87L610 870L621.38 1000H653.14C653.91 819.73 632.74 831.87 632.74 831.87Z" fill="#EDD494"/>
<path d="M233.25 500C233.25 352.68 352.68 233.25 500 233.25C647.32 233.25 766.75 352.68 766.75 500C766.788 539.694 757.949 578.895 740.88 614.731C723.811 650.568 698.945 682.135 668.1 707.12C662.627 711.573 656.98 715.803 651.16 719.81C591 758 515 758 446.39 751.89C439.73 750.89 433.09 749.63 426.5 748.18C400.17 742.38 374.68 733.43 351.13 720.38C345.31 716.793 339.667 712.92 334.2 708.76C328.706 704.576 323.432 700.11 318.4 695.38C313.64 690.96 309.044 686.367 304.61 681.6C258.667 632.299 233.161 567.39 233.25 500Z" fill="#FBE8B3"/>
<path d="M269.612 634.48C270.312 635.68 271.002 636.88 271.722 638.06C272.152 638.78 272.602 639.48 273.052 640.2C273.712 641.27 274.372 642.34 275.052 643.39C275.532 644.15 276.052 644.89 276.512 645.63C277.172 646.63 277.832 647.63 278.512 648.63C279.022 649.39 279.512 650.15 280.072 650.91C280.732 651.91 281.392 652.83 282.072 653.79C282.612 654.56 283.172 655.32 283.722 656.09C284.272 656.86 285.062 657.94 285.722 658.86C286.382 659.78 286.872 660.39 287.452 661.15C288.032 661.91 288.822 662.95 289.522 663.85C290.222 664.75 290.712 665.36 291.312 666.11C291.912 666.86 292.722 667.87 293.432 668.74C294.142 669.61 294.662 670.23 295.282 670.97C295.902 671.71 296.722 672.69 297.452 673.54C298.182 674.39 298.722 675.01 299.362 675.74L301.582 678.24C302.232 678.97 302.892 679.68 303.582 680.4C304.442 681.34 305.312 682.27 306.182 683.19L307.392 684.47C308.682 685.81 309.982 687.15 311.302 688.47L311.562 688.74C312.852 690.02 314.162 691.29 315.472 692.55L317.052 694.05C318.002 694.94 318.952 695.83 319.912 696.71L321.072 697.77C322.072 698.71 323.162 699.63 324.212 700.55C327.478 703.397 330.812 706.127 334.212 708.74C339.672 712.9 345.315 716.773 351.142 720.36C374.692 733.36 400.142 742.36 426.512 748.16C433.102 749.61 439.742 750.86 446.402 751.87C488.502 755.62 533.402 757.05 575.682 748.79C508.452 729 185.592 612.74 388.802 257.48C386.082 258.73 383.402 260.02 380.742 261.36L380.152 261.65C378.932 262.26 377.712 262.89 376.502 263.53L375.502 264.06C371.742 266.06 368.022 268.13 364.372 270.29L363.472 270.82C362.312 271.51 361.162 272.21 360.012 272.92L359.142 273.46C355.568 275.693 352.052 278.003 348.592 280.39L347.512 281.14C346.422 281.9 345.352 282.66 344.282 283.43L343.622 283.9C341.442 285.493 339.288 287.107 337.162 288.74L336.542 289.22C335.542 290 334.542 290.8 333.542 291.61L332.372 292.55C331.372 293.36 330.372 294.17 329.372 295C327.262 296.75 325.182 298.55 323.132 300.37L321.992 301.37L319.302 303.82L318.002 305C315.148 307.667 312.358 310.39 309.632 313.17L308.252 314.58C307.462 315.4 306.672 316.22 305.892 317.05C305.432 317.54 304.972 318.05 304.522 318.53C303.148 319.997 301.795 321.483 300.462 322.99C300.012 323.5 299.552 323.99 299.102 324.53C298.392 325.34 297.692 326.16 296.992 326.98L295.482 328.77C294.802 329.58 294.122 330.39 293.482 331.21C292.942 331.87 292.402 332.54 291.872 333.21C290.802 334.54 289.752 335.87 288.712 337.21C288.172 337.91 287.632 338.61 287.102 339.32C286.572 340.03 285.902 340.91 285.312 341.72C284.722 342.53 284.242 343.17 283.722 343.9C283.202 344.63 282.592 345.45 282.042 346.23C281.095 347.563 280.162 348.913 279.242 350.28C278.742 351.01 278.242 351.76 277.752 352.5C277.262 353.24 276.652 354.16 276.112 355L274.622 357.31L272.942 360.02C272.512 360.71 272.082 361.4 271.662 362.09C270.772 363.55 269.912 365.02 269.052 366.49L267.832 368.65C267.292 369.6 266.752 370.56 266.222 371.52C265.822 372.25 265.422 372.98 265.032 373.71C264.392 374.9 263.762 376.1 263.132 377.3L261.932 379.64C261.292 380.92 260.652 382.19 260.022 383.48C259.692 384.17 259.352 384.87 259.022 385.57C258.502 386.66 258.022 387.76 257.492 388.86C257.182 389.52 256.882 390.18 256.582 390.86C255.842 392.507 255.118 394.173 254.412 395.86C254.192 396.38 253.982 396.91 253.762 397.43C253.232 398.7 252.712 399.97 252.202 401.25C251.932 401.92 251.672 402.59 251.412 403.25C250.912 404.51 250.412 405.78 249.962 407.05C249.752 407.6 249.542 408.15 249.342 408.7C248.715 410.453 248.098 412.207 247.492 413.96L246.932 415.66C246.492 416.993 246.062 418.327 245.642 419.66L245.042 421.57C244.572 423.11 244.112 424.65 243.672 426.2C243.572 426.53 243.472 426.86 243.382 427.2C242.862 429.04 242.362 430.887 241.882 432.74C241.722 433.33 241.582 433.93 241.432 434.52C241.082 435.91 240.742 437.3 240.432 438.7L240.012 440.45C239.582 442.35 239.162 444.25 238.772 446.16L238.622 446.93C238.282 448.63 237.948 450.33 237.622 452.03C237.512 452.64 237.412 453.24 237.302 453.85C237.042 455.34 236.792 456.85 236.562 458.35C236.482 458.86 236.392 459.35 236.322 459.87C236.022 461.82 235.752 463.78 235.492 465.75L235.342 467.05C235.142 468.64 234.962 470.24 234.792 471.84C234.732 472.44 234.662 473.04 234.602 473.65C234.442 475.33 234.292 477.02 234.152 478.71C234.152 479.06 234.092 479.4 234.072 479.71C233.925 481.71 233.795 483.727 233.682 485.76C233.682 486.29 233.682 486.83 233.612 487.36C233.545 488.933 233.485 490.503 233.432 492.07C233.432 492.66 233.432 493.25 233.432 493.84C233.432 495.89 233.352 497.95 233.352 500.01C233.352 500.01 233.352 500.08 233.352 500.11C233.352 502.33 233.352 504.53 233.432 506.73C233.432 507.49 233.492 508.25 233.512 509.01C233.562 510.48 233.612 511.95 233.682 513.42C233.682 514.31 233.792 515.19 233.842 516.08C233.922 517.41 233.992 518.74 234.092 520.08C234.162 521.08 234.252 521.97 234.332 522.91C234.442 524.17 234.542 525.43 234.672 526.68C234.762 527.68 234.882 528.62 234.982 529.59C235.122 530.8 235.252 532.02 235.402 533.23C235.522 534.23 235.662 535.23 235.792 536.18C235.952 537.36 236.112 538.55 236.292 539.73C236.442 540.73 236.602 541.73 236.762 542.73C236.942 543.89 237.132 545.06 237.332 546.22C237.512 547.22 237.692 548.22 237.882 549.22C238.092 550.37 238.312 551.52 238.532 552.66C238.752 553.8 238.942 554.66 239.152 555.66C239.392 556.8 239.632 557.93 239.892 559.06C240.152 560.19 240.332 561.06 240.572 561.99C240.832 563.12 241.112 564.24 241.392 565.35C241.672 566.46 241.882 567.3 242.132 568.26C242.432 569.38 242.732 570.49 243.042 571.6C243.302 572.6 243.572 573.52 243.852 574.47C244.172 575.58 244.502 576.68 244.852 577.78C245.202 578.88 245.432 579.67 245.732 580.62C246.032 581.57 246.432 582.81 246.792 583.9C247.152 584.99 247.412 585.77 247.732 586.7C248.112 587.79 248.492 588.88 248.882 589.97C249.212 590.88 249.532 591.8 249.882 592.71L251.122 595.98C251.472 596.87 251.812 597.77 252.122 598.66C252.562 599.75 253.012 600.85 253.462 601.94C253.822 602.8 254.172 603.67 254.542 604.53C255.012 605.65 255.542 606.75 255.992 607.86C256.362 608.68 256.722 609.51 257.092 610.33C257.612 611.49 258.162 612.63 258.692 613.77L259.772 616.07C260.382 617.33 261.012 618.57 261.642 619.82C261.962 620.45 262.262 621.09 262.592 621.72C264.512 625.46 266.512 629.15 268.592 632.79C268.882 633.26 269.252 633.87 269.612 634.48Z" fill="#EDD494"/>
<path d="M233.25 500C233.25 352.68 352.68 233.25 500 233.25C647.32 233.25 766.75 352.68 766.75 500C766.788 539.694 757.949 578.895 740.88 614.731C723.811 650.568 698.945 682.135 668.1 707.12C662.627 711.573 656.98 715.803 651.16 719.81C591 758 515 758 446.39 751.89C439.73 750.89 433.09 749.63 426.5 748.18C400.17 742.38 374.68 733.43 351.13 720.38C345.31 716.793 339.667 712.92 334.2 708.76C328.706 704.576 323.432 700.11 318.4 695.38C313.64 690.96 309.044 686.367 304.61 681.6C258.667 632.299 233.161 567.39 233.25 500Z" stroke="#592D3D" stroke-width="12" stroke-miterlimit="10"/>
<path d="M386.122 758.72C295.352 758.72 314.122 872.96 313.252 1000H386.122V758.72Z" fill="#FBE8B3"/>
<path d="M367.232 831.87L390.002 870L378.612 1000H346.882C346.072 819.73 367.232 831.87 367.232 831.87Z" fill="#EDD494"/>
<path d="M619.472 1070H380.532C377.011 1070 373.636 1068.6 371.148 1066.11C368.659 1063.62 367.262 1060.24 367.262 1056.72V772C367.262 768.48 368.659 765.103 371.148 762.613C373.636 760.123 377.011 758.723 380.532 758.72H613.762C626.852 758.72 632.762 766.38 632.762 778.6V1056.68C632.767 1058.43 632.427 1060.16 631.761 1061.78C631.096 1063.39 630.117 1064.86 628.883 1066.1C627.648 1067.34 626.181 1068.32 624.566 1068.99C622.951 1069.66 621.22 1070 619.472 1070Z" fill="#FBE8B3"/>
<path d="M629.052 766.62C628.055 765.394 627.212 764.051 626.542 762.62C624.141 760.739 621.284 759.527 618.262 759.11C616.773 758.88 615.268 758.766 613.762 758.77H380.532C377.02 758.773 373.652 760.166 371.165 762.646C368.679 765.125 367.275 768.488 367.262 772C396.262 782.42 450.552 788.24 500.002 788.24C563.062 788.24 604.382 778.89 629.052 766.62Z" fill="#EDD494"/>
<path d="M610 758.72C700.76 758.72 682 872.96 682.87 1000H632.74" stroke="#592D3D" stroke-width="12" stroke-miterlimit="10" stroke-linecap="square"/>
<path d="M386.122 758.72C295.352 758.72 314.122 872.96 313.252 1000H363.322" stroke="#592D3D" stroke-width="12" stroke-miterlimit="10" stroke-linecap="square"/>
<path d="M380.531 758.82L613.761 758.72" stroke="#592D3D" stroke-width="12" stroke-miterlimit="10"/>
<path d="M380.532 1070H497.152C388.002 1070 396.242 838.82 367.262 838.82V1056.68C367.257 1058.43 367.596 1060.16 368.26 1061.77C368.925 1063.39 369.901 1064.86 371.134 1066.09C372.366 1067.33 373.831 1068.31 375.444 1068.98C377.056 1069.65 378.785 1070 380.532 1070Z" fill="#EDD494"/>
<path d="M361.259 860.85C361.069 857.18 361.149 853.51 361.309 849.85C361.469 846.19 361.779 842.5 362.169 838.85C362.369 837.01 362.569 835.18 362.819 833.34C363.069 831.5 363.309 829.67 363.669 827.83C364.378 824.022 365.585 820.324 367.259 816.83C368.933 820.324 370.14 824.022 370.849 827.83C371.209 829.67 371.469 831.5 371.699 833.34C371.929 835.18 372.149 837.01 372.349 838.85C372.729 842.52 373.029 846.19 373.199 849.85C373.369 853.51 373.449 857.19 373.259 860.85H361.259Z" fill="#592D3D"/>
<path d="M632.742 870V878C633.002 912 633.002 947 632.742 980.75C632.742 983.62 632.742 986.47 632.742 989.28V1056.69C632.746 1058.44 632.405 1060.17 631.74 1061.78C631.075 1063.39 630.099 1064.86 628.866 1066.1C627.634 1067.33 626.17 1068.31 624.558 1068.98C622.946 1069.65 621.217 1070 619.472 1070H380.532C377.011 1070 373.636 1068.6 371.148 1066.11C368.659 1063.62 367.262 1060.24 367.262 1056.72V998.52C367.262 996.01 367.262 993.45 367.262 990.87C367.012 956 367.012 921 367.262 885.57V860.85" stroke="#592D3D" stroke-width="12" stroke-miterlimit="10"/>
<path d="M626.74 870C626.55 865.83 626.64 861.65 626.8 857.47C626.96 853.29 627.27 849.12 627.65 844.94C627.85 842.85 628.06 840.76 628.3 838.67C628.54 836.58 628.79 834.5 629.15 832.41C629.847 828.106 631.052 823.9 632.74 819.88C634.428 823.9 635.633 828.106 636.33 832.41C636.69 834.5 636.95 836.59 637.18 838.67C637.41 840.75 637.63 842.85 637.83 844.94C638.21 849.12 638.52 853.29 638.68 857.47C638.84 861.65 638.93 865.83 638.74 870H626.74Z" fill="#592D3D"/>
<path d="M502.069 878.86C502.067 889.337 499.69 899.678 495.117 909.104C490.543 918.53 483.892 926.797 475.663 933.282C467.435 939.768 457.843 944.303 447.609 946.548C437.375 948.793 426.765 948.688 416.578 946.242C406.39 943.796 396.89 939.072 388.79 932.426C380.691 925.779 374.204 917.383 369.818 907.869C365.431 898.354 363.258 887.969 363.462 877.494C363.667 867.019 366.244 856.726 370.999 847.39" stroke="#592D3D" stroke-width="12" stroke-miterlimit="10"/>
<path d="M371 847.39C374.787 839.991 379.867 833.33 386 827.72Z" fill="#FBE8B3"/>
<path d="M365.652 844.66C366.53 842.58 367.666 840.618 369.032 838.82C370.388 837.02 371.904 835.346 373.562 833.82C374.402 833.06 375.252 832.32 376.142 831.63C377.026 830.915 377.966 830.273 378.952 829.71C381.086 828.479 383.49 827.792 385.952 827.71C385.693 830.051 385.104 832.344 384.202 834.52C383.812 835.52 383.372 836.4 382.912 837.29L381.612 839.96C380.762 841.72 379.922 843.45 379.062 845.15C378.23 846.864 377.309 848.533 376.302 850.15L365.652 844.66Z" fill="#592D3D"/>
<path d="M489.332 838.82C497.63 850.507 502.083 864.487 502.072 878.82Z" fill="#FBE8B3"/>
<path d="M489.332 838.82C492.746 840.671 495.712 843.248 498.022 846.37C499.172 847.888 500.208 849.489 501.122 851.16C502.052 852.83 502.892 854.55 503.672 856.31C505.207 859.846 506.366 863.533 507.132 867.31C507.909 871.101 508.225 874.973 508.072 878.84H496.072C495.882 875.59 495.712 872.36 495.372 869.11C495.032 865.86 494.602 862.63 493.972 859.37L493.472 856.93L492.892 854.48C492.472 852.85 492.022 851.22 491.602 849.55C490.657 846.016 489.9 842.434 489.332 838.82Z" fill="#592D3D"/>
<path d="M641.651 878.86C641.662 869.372 639.719 859.983 635.945 851.278C632.17 842.572 626.644 834.737 619.711 828.26" fill="#FBE8B3"/>
<path d="M635.651 878.86C635.49 874.552 635.07 870.257 634.391 866C633.689 861.7 632.646 857.464 631.271 853.33C630.931 852.33 630.531 851.26 630.161 850.22C629.791 849.18 629.321 848.17 628.911 847.13C628.501 846.09 627.971 845.13 627.531 844.08L626.071 841.08C624.071 836.98 621.901 832.89 619.711 828.33C624.345 830.307 628.51 833.241 631.931 836.94C632.761 837.88 633.631 838.8 634.401 839.79C635.171 840.78 635.941 841.79 636.651 842.79C637.361 843.79 638.081 844.88 638.721 845.97C639.361 847.06 640.031 848.15 640.601 849.29C642.981 853.813 644.795 858.613 646.001 863.58C647.233 868.576 647.778 873.717 647.621 878.86H635.651Z" fill="#592D3D"/>
<path d="M503.001 878.86C502.891 888.031 504.602 897.133 508.036 905.638C511.469 914.143 516.557 921.882 523.003 928.407C529.45 934.931 537.127 940.111 545.59 943.647C554.053 947.182 563.134 949.002 572.306 949.002C581.478 949.002 590.559 947.182 599.022 943.647C607.485 940.111 615.163 934.931 621.609 928.407C628.056 921.882 633.143 914.143 636.577 905.638C640.01 897.133 641.721 888.031 641.611 878.86" stroke="#592D3D" stroke-width="12" stroke-miterlimit="10"/>
<path d="M515.769 838.82C507.475 850.508 503.025 864.488 503.039 878.82Z" fill="#FBE8B3"/>
<path d="M515.772 838.82C515.205 842.441 514.448 846.029 513.502 849.57C513.082 851.24 512.632 852.87 512.212 854.5L511.642 856.95L511.142 859.39C510.512 862.65 510.052 865.89 509.732 869.13C509.412 872.37 509.232 875.61 509.042 878.86H497.002C496.84 874.993 497.156 871.12 497.942 867.33C498.703 863.551 499.863 859.864 501.402 856.33C502.172 854.57 503.012 852.85 503.942 851.18C504.86 849.512 505.896 847.911 507.042 846.39C509.364 843.259 512.344 840.675 515.772 838.82Z" fill="#592D3D"/>
<path d="M383.441 837.55V758.72" stroke="#592D3D" stroke-width="12" stroke-miterlimit="10"/>
<path d="M616.461 837.55V758.72" stroke="#592D3D" stroke-width="12" stroke-miterlimit="10"/>
<path d="M470.5 897.78H524.4V917.48C506.66 911.43 488.69 911.58 470.5 917.48V897.78Z" fill="#D67070" stroke="#592D3D" stroke-width="12" stroke-miterlimit="10"/>
<path d="M638.101 878.86C638.126 861.305 631.464 844.399 619.471 831.58C615.251 827.06 575.201 837.77 551.661 858.84C528.551 879.53 508.431 913.33 511.311 917.59C519.607 929.903 531.637 939.226 545.63 944.187C559.624 949.148 574.84 949.485 589.039 945.147C603.238 940.81 615.669 932.028 624.501 920.095C633.334 908.161 638.101 893.707 638.101 878.86Z" fill="#D67070" stroke="#592D3D" stroke-width="12" stroke-miterlimit="10"/>
<path d="M598.112 848.39C591.992 852.06 585.962 855.57 580.112 859.39C574.338 863.08 568.816 867.149 563.582 871.57C558.432 876.03 553.472 880.89 548.582 885.83C543.692 890.77 538.892 895.83 533.832 900.9C536.9 894.462 540.648 888.371 545.012 882.73C549.369 877.001 554.298 871.731 559.722 867C565.241 862.329 571.338 858.387 577.862 855.27C584.289 852.118 591.095 849.805 598.112 848.39Z" fill="white"/>
<path d="M361.902 878.86C361.877 861.305 368.539 844.399 380.532 831.58C384.752 827.06 424.802 837.77 448.342 858.84C471.452 879.53 491.572 913.33 488.692 917.59C480.396 929.903 468.366 939.226 454.373 944.187C440.38 949.148 425.163 949.485 410.964 945.147C396.765 940.81 384.334 932.028 375.502 920.095C366.669 908.161 361.902 893.707 361.902 878.86Z" fill="#D67070" stroke="#592D3D" stroke-width="12" stroke-miterlimit="10"/>
<path d="M455.751 938.92C433.112 938.92 411.4 929.927 395.392 913.919C379.384 897.911 370.391 876.199 370.391 853.56C370.391 850.651 370.537 847.744 370.831 844.85C363.312 858.199 360.428 873.662 362.629 888.823C364.831 903.985 371.993 917.989 382.997 928.648C394.002 939.308 408.227 946.02 423.451 947.738C438.675 949.455 454.038 946.08 467.141 938.14C463.366 938.653 459.561 938.914 455.751 938.92Z" fill="#C46565"/>
<path d="M361.902 878.86C361.877 861.305 368.539 844.399 380.532 831.58C384.752 827.06 424.802 837.77 448.342 858.84C471.452 879.53 491.572 913.33 488.692 917.59C480.396 929.903 468.366 939.226 454.373 944.187C440.38 949.148 425.163 949.485 410.964 945.147C396.765 940.81 384.334 932.028 375.502 920.095C366.669 908.161 361.902 893.707 361.902 878.86Z" stroke="#592D3D" stroke-width="12" stroke-miterlimit="10"/>
<path d="M401.891 848.39C408.907 849.802 415.713 852.111 422.141 855.26C428.666 858.38 434.762 862.325 440.281 867C445.683 871.727 450.592 876.991 454.931 882.71C459.295 888.351 463.043 894.442 466.111 900.88C461.051 895.88 456.271 890.75 451.361 885.81C446.451 880.87 441.521 876.01 436.361 871.55C431.126 867.129 425.604 863.06 419.831 859.37C414.001 855.57 408.001 852.06 401.891 848.39Z" fill="white"/>
<path d="M677.8 906.35C678.01 869.24 676.59 836.28 670.07 810.96C660 785.6 641.89 770.48 610 770.48L632.79 905C632.79 905 655.31 915.24 677.8 906.35Z" fill="#EDD494"/>
<path d="M686.411 895.79C685.27 896.732 684.029 897.547 682.711 898.22" stroke="#592D3D" stroke-width="12" stroke-miterlimit="10" stroke-linecap="square"/>
<path d="M326.109 809.88C319.279 835.45 318.109 869.01 318.369 906.88C338.269 915.42 368.789 904.73 368.789 904.73L386.119 772.49C355.249 772.46 336.849 786.36 326.109 809.88Z" fill="#EDD494"/>
<path d="M613.762 758.72H559.552V758.82C559.553 763.322 559.07 767.811 558.112 772.21C557.646 774.35 557.065 776.463 556.372 778.54C554.159 784.744 550.763 790.46 546.372 795.37C544.97 796.943 543.467 798.423 541.872 799.8C516.702 818 476.702 819 452.392 799.22C449.773 796.932 447.391 794.386 445.282 791.62C440.903 785.87 437.801 779.253 436.182 772.21C435.708 770.034 435.351 767.834 435.112 765.62C434.862 763.362 434.738 761.092 434.742 758.82V758.72H380.532C377.011 758.723 373.636 760.123 371.148 762.613C368.66 765.103 367.262 768.48 367.262 772V1056.68C367.257 1058.43 367.596 1060.16 368.26 1061.77C368.925 1063.39 369.901 1064.86 371.134 1066.09C372.366 1067.33 373.831 1068.31 375.444 1068.98C377.056 1069.65 378.785 1070 380.532 1070H619.472C622.992 1070 626.367 1068.6 628.856 1066.11C631.344 1063.62 632.742 1060.24 632.742 1056.72V778.6C632.742 766.38 626.852 758.72 613.762 758.72Z" fill="#D67070"/>
<path d="M610 758.72C673.54 758.72 683.4 814.72 683.9 891.89C665.3 903.51 634.99 893.2 634.99 893.2L610 758.72Z" fill="#D67070"/>
<path d="M632.74 831.87L610 870L621.38 1000H632.99V894.35L650.27 897.24C644.6 825.07 632.74 831.87 632.74 831.87Z" fill="#C46565"/>
<path d="M386.12 758.72C324.34 758.72 310.29 812.52 309.27 886.38C328.27 906.24 367.27 890.96 367.27 890.96L386.12 758.72Z" fill="#D67070"/>
<path d="M367.232 831.87V891L349.922 895.31C355.592 825.19 367.232 831.87 367.232 831.87Z" fill="#C46565"/>
<path d="M610 758.72C677.41 758.72 688.45 815.01 688.9 892.5C662.7 904.93 634.99 893.2 634.99 893.2" stroke="#592D3D" stroke-width="12" stroke-miterlimit="10" stroke-linecap="square"/>
<path d="M386.119 758.72C319.329 758.72 306.039 813.42 305.359 889.44C325.999 904.22 367.219 891 367.219 891" stroke="#592D3D" stroke-width="12" stroke-miterlimit="10" stroke-linecap="square"/>
<path d="M380.532 1070H497.152C388.002 1070 396.242 838.82 367.262 838.82V1056.68C367.257 1058.43 367.596 1060.16 368.26 1061.77C368.925 1063.39 369.901 1064.86 371.134 1066.09C372.366 1067.33 373.831 1068.31 375.444 1068.98C377.056 1069.65 378.785 1070 380.532 1070Z" fill="#C46565"/>
<path d="M361.259 860.85C361.069 857.18 361.149 853.51 361.309 849.85C361.469 846.19 361.779 842.5 362.169 838.85C362.369 837.01 362.569 835.18 362.819 833.34C363.069 831.5 363.309 829.67 363.669 827.83C364.378 824.022 365.585 820.324 367.259 816.83C368.934 820.322 370.138 824.021 370.839 827.83C371.209 829.67 371.469 831.5 371.699 833.34C371.929 835.18 372.149 837.01 372.349 838.85C372.729 842.52 373.029 846.19 373.199 849.85C373.369 853.51 373.449 857.19 373.259 860.85H361.259Z" fill="#592D3D"/>
<path d="M632.742 870V878C633.002 912 633.002 947 632.742 980.75C632.742 983.62 632.742 986.47 632.742 989.28V1056.69C632.746 1058.44 632.405 1060.17 631.74 1061.78C631.075 1063.39 630.099 1064.86 628.866 1066.1C627.634 1067.33 626.17 1068.31 624.558 1068.98C622.946 1069.65 621.217 1070 619.472 1070H380.532C377.011 1070 373.636 1068.6 371.148 1066.11C368.659 1063.62 367.262 1060.24 367.262 1056.72V998.52C367.262 996.01 367.262 993.45 367.262 990.87C367.012 956 367.012 921 367.262 885.57V860.85" stroke="#592D3D" stroke-width="12" stroke-miterlimit="10"/>
<path d="M626.74 870C626.55 865.83 626.64 861.65 626.8 857.47C626.96 853.29 627.27 849.12 627.65 844.94C627.85 842.85 628.06 840.76 628.3 838.67C628.54 836.58 628.79 834.5 629.16 832.41C629.848 828.105 631.05 823.898 632.74 819.88C634.428 823.9 635.633 828.106 636.33 832.41C636.69 834.5 636.95 836.59 637.18 838.67C637.41 840.75 637.63 842.85 637.83 844.94C638.21 849.12 638.52 853.29 638.68 857.47C638.84 861.65 638.93 865.83 638.74 870H626.74Z" fill="#592D3D"/>
<path d="M380.531 758.82L613.761 758.72" stroke="#592D3D" stroke-width="12" stroke-miterlimit="10"/>
<path d="M559.552 758.82C559.554 763.322 559.071 767.811 558.112 772.21C557.646 774.35 557.066 776.463 556.372 778.54C554.16 784.744 550.764 790.46 546.372 795.37C544.971 796.943 543.467 798.423 541.872 799.8C516.702 818 476.702 819 452.392 799.22C449.773 796.932 447.391 794.386 445.282 791.62C440.904 785.87 437.802 779.253 436.182 772.21C435.708 770.034 435.351 767.834 435.112 765.62C434.862 763.362 434.739 761.092 434.742 758.82" stroke="#592D3D" stroke-width="12" stroke-miterlimit="10"/>
<path d="M503.399 828.39C497.35 829.607 491.161 829.977 485.009 829.49C478.802 829.054 472.681 827.789 466.809 825.73C460.902 823.705 455.338 820.792 450.309 817.09L448.449 815.68C447.839 815.2 447.249 814.68 446.659 814.16C445.471 813.149 444.358 812.053 443.329 810.88C441.276 808.573 439.473 806.056 437.949 803.37C440.089 805.516 442.338 807.548 444.689 809.46C445.269 809.94 445.859 810.41 446.439 810.86C447.019 811.31 447.669 811.68 448.279 812.1C448.889 812.52 449.499 812.94 450.129 813.33L452.039 814.49C457.141 817.513 462.535 820.012 468.139 821.95C473.755 823.914 479.525 825.402 485.389 826.4C491.354 827.376 497.365 828.041 503.399 828.39Z" fill="#592D3D"/>
<path d="M307.832 892.5C308.969 893.537 310.201 894.464 311.512 895.27" stroke="#592D3D" stroke-width="12" stroke-miterlimit="10" stroke-linecap="square"/>
<path d="M674.699 882.69C672.618 883.935 670.327 884.789 667.939 885.21C665.568 885.676 663.155 885.894 660.739 885.86C658.327 885.813 655.924 885.548 653.559 885.07C652.379 884.86 651.229 884.51 650.069 884.2C648.909 883.89 647.799 883.43 646.699 882.96C647.909 882.96 649.079 883.14 650.259 883.24L653.779 883.53C654.949 883.53 656.109 883.73 657.279 883.74C658.449 883.75 659.599 883.85 660.759 883.86C663.093 883.9 665.426 883.837 667.759 883.67C670.093 883.508 672.412 883.181 674.699 882.69Z" fill="#592D3D"/>
<path d="M551.551 939.73C550.613 939.189 549.603 938.785 548.551 938.53V907.92C549.625 907.666 550.656 907.255 551.611 906.7C553.045 905.879 554.286 904.759 555.248 903.415C556.21 902.072 556.871 900.536 557.185 898.914C557.5 897.291 557.461 895.62 557.071 894.014C556.681 892.408 555.949 890.905 554.925 889.608C553.901 888.311 552.609 887.25 551.138 886.497C549.667 885.744 548.05 885.318 546.399 885.247C544.748 885.176 543.101 885.462 541.571 886.086C540.04 886.709 538.662 887.655 537.531 888.86L511.001 873.57C511.472 871.991 511.598 870.329 511.37 868.697C511.142 867.064 510.565 865.5 509.679 864.111C508.792 862.721 507.617 861.539 506.233 860.644C504.849 859.75 503.289 859.163 501.658 858.925C500.027 858.688 498.364 858.803 496.782 859.265C495.2 859.727 493.736 860.525 492.49 861.603C491.244 862.681 490.244 864.015 489.559 865.514C488.874 867.013 488.52 868.642 488.521 870.29C488.522 871.393 488.681 872.491 488.991 873.55L462.491 888.85C461.729 888.047 460.857 887.357 459.901 886.8C458.592 886.005 457.138 885.479 455.624 885.253C454.109 885.028 452.565 885.107 451.082 885.487C449.598 885.867 448.206 886.539 446.986 887.465C445.766 888.39 444.744 889.55 443.979 890.876C443.214 892.203 442.721 893.668 442.531 895.188C442.34 896.707 442.455 898.249 442.869 899.723C443.283 901.197 443.987 902.574 444.94 903.772C445.894 904.97 447.077 905.966 448.421 906.7C449.375 907.255 450.406 907.666 451.481 907.92V938.52C450.429 938.783 449.42 939.19 448.481 939.73C447.137 940.464 445.954 941.46 445 942.658C444.047 943.856 443.343 945.233 442.929 946.707C442.515 948.181 442.4 949.723 442.591 951.242C442.781 952.762 443.274 954.227 444.039 955.554C444.804 956.88 445.826 958.04 447.046 958.966C448.266 959.891 449.658 960.563 451.142 960.943C452.625 961.323 454.169 961.402 455.684 961.177C457.198 960.951 458.652 960.426 459.961 959.63C460.907 959.087 461.772 958.414 462.531 957.63L489.001 972.9C488.686 973.955 488.527 975.05 488.531 976.15C488.531 979.2 489.742 982.125 491.899 984.282C494.056 986.438 496.981 987.65 500.031 987.65C503.081 987.65 506.006 986.438 508.162 984.282C510.319 982.125 511.531 979.2 511.531 976.15C511.529 974.92 511.333 973.699 510.951 972.53L537.281 957.33C538.095 958.247 539.055 959.023 540.121 959.63C542.754 961.07 545.847 961.421 548.737 960.61C551.626 959.799 554.084 957.889 555.584 955.289C557.084 952.689 557.507 949.606 556.762 946.698C556.018 943.79 554.165 941.289 551.601 939.73H551.551ZM465.351 947C465.092 945.947 464.685 944.937 464.141 944C463.597 943.057 462.924 942.195 462.141 941.44L496.821 881.38C497.861 881.678 498.938 881.829 500.021 881.83C501.107 881.831 502.188 881.676 503.231 881.37L537.901 941.43C536.308 942.948 535.187 944.892 534.671 947.03L465.351 947ZM534.801 893.64C534.376 895.12 534.255 896.671 534.443 898.199C534.632 899.727 535.126 901.202 535.897 902.535C536.668 903.867 537.7 905.031 538.931 905.957C540.161 906.882 541.566 907.55 543.061 907.92V938.57L542.621 938.68L507.941 878.61L508.241 878.31L534.801 893.64ZM491.741 878.3L492.071 878.62L457.391 938.69L456.941 938.57V907.89C458.436 907.52 459.842 906.852 461.073 905.926C462.304 905 463.335 903.834 464.106 902.5C464.876 901.166 465.369 899.69 465.556 898.161C465.742 896.631 465.618 895.08 465.191 893.6L491.741 878.3ZM508.491 968.44C507.431 967.281 506.145 966.351 504.713 965.708C503.28 965.065 501.731 964.722 500.16 964.7C498.59 964.679 497.032 964.979 495.582 965.583C494.132 966.186 492.822 967.08 491.731 968.21L465.221 952.9L465.341 952.46H534.661C534.721 952.71 534.791 952.97 534.871 953.21L508.491 968.44Z" fill="black" stroke="white" stroke-width="16"/>
<path d="M551.551 939.73C550.613 939.189 549.603 938.785 548.551 938.53V907.92C549.625 907.666 550.656 907.255 551.611 906.7C553.045 905.879 554.286 904.759 555.248 903.415C556.21 902.072 556.871 900.536 557.185 898.914C557.5 897.291 557.461 895.62 557.071 894.014C556.681 892.408 555.949 890.905 554.925 889.608C553.901 888.311 552.609 887.25 551.138 886.497C549.667 885.744 548.05 885.318 546.399 885.247C544.748 885.176 543.101 885.462 541.571 886.086C540.04 886.709 538.662 887.655 537.531 888.86L511.001 873.57C511.472 871.991 511.598 870.329 511.37 868.697C511.142 867.064 510.565 865.5 509.679 864.111C508.792 862.721 507.617 861.539 506.233 860.644C504.849 859.75 503.289 859.163 501.658 858.925C500.027 858.688 498.364 858.803 496.782 859.265C495.2 859.727 493.736 860.525 492.49 861.603C491.244 862.681 490.244 864.015 489.559 865.514C488.874 867.013 488.52 868.642 488.521 870.29C488.522 871.393 488.681 872.491 488.991 873.55L462.491 888.85C461.729 888.047 460.857 887.357 459.901 886.8C458.592 886.005 457.138 885.479 455.624 885.253C454.109 885.028 452.565 885.107 451.082 885.487C449.598 885.867 448.206 886.539 446.986 887.465C445.766 888.39 444.744 889.55 443.979 890.876C443.214 892.203 442.721 893.668 442.531 895.188C442.34 896.707 442.455 898.249 442.869 899.723C443.283 901.197 443.987 902.574 444.94 903.772C445.894 904.97 447.077 905.966 448.421 906.7C449.375 907.255 450.406 907.666 451.481 907.92V938.52C450.429 938.783 449.42 939.19 448.481 939.73C447.137 940.464 445.954 941.46 445 942.658C444.047 943.856 443.343 945.233 442.929 946.707C442.515 948.181 442.4 949.723 442.591 951.242C442.781 952.762 443.274 954.227 444.039 955.554C444.804 956.88 445.826 958.04 447.046 958.966C448.266 959.891 449.658 960.563 451.142 960.943C452.625 961.323 454.169 961.402 455.684 961.177C457.198 960.951 458.652 960.426 459.961 959.63C460.907 959.087 461.772 958.414 462.531 957.63L489.001 972.9C488.686 973.955 488.527 975.05 488.531 976.15C488.531 979.2 489.742 982.125 491.899 984.282C494.056 986.438 496.981 987.65 500.031 987.65C503.081 987.65 506.006 986.438 508.162 984.282C510.319 982.125 511.531 979.2 511.531 976.15C511.529 974.92 511.333 973.699 510.951 972.53L537.281 957.33C538.095 958.247 539.055 959.023 540.121 959.63C542.754 961.07 545.847 961.421 548.737 960.61C551.626 959.799 554.084 957.889 555.584 955.289C557.084 952.689 557.507 949.606 556.762 946.698C556.018 943.79 554.165 941.289 551.601 939.73H551.551ZM465.351 947C465.092 945.947 464.685 944.937 464.141 944C463.597 943.057 462.924 942.195 462.141 941.44L496.821 881.38C497.861 881.678 498.938 881.829 500.021 881.83C501.107 881.831 502.188 881.676 503.231 881.37L537.901 941.43C536.308 942.948 535.187 944.892 534.671 947.03L465.351 947ZM534.801 893.64C534.376 895.12 534.255 896.671 534.443 898.199C534.632 899.727 535.126 901.202 535.897 902.535C536.668 903.867 537.7 905.031 538.931 905.957C540.161 906.882 541.566 907.55 543.061 907.92V938.57L542.621 938.68L507.941 878.61L508.241 878.31L534.801 893.64ZM491.741 878.3L492.071 878.62L457.391 938.69L456.941 938.57V907.89C458.436 907.52 459.842 906.852 461.073 905.926C462.304 905 463.335 903.834 464.106 902.5C464.876 901.166 465.369 899.69 465.556 898.161C465.742 896.631 465.618 895.08 465.191 893.6L491.741 878.3ZM508.491 968.44C507.431 967.281 506.145 966.351 504.713 965.708C503.28 965.065 501.731 964.722 500.16 964.7C498.59 964.679 497.032 964.979 495.582 965.583C494.132 966.186 492.822 967.08 491.731 968.21L465.221 952.9L465.341 952.46H534.661C534.721 952.71 534.791 952.97 534.871 953.21L508.491 968.44Z" fill="#E535AB"/>
<path opacity="0.1" d="M426.882 961.63C441.357 961.628 455.469 957.095 467.238 948.666C479.006 940.236 487.841 928.335 492.502 914.63C486.585 924.75 478.255 933.248 468.254 939.365C458.254 945.482 446.894 949.028 435.19 949.686C423.485 950.343 411.8 948.092 401.177 943.134C390.554 938.176 381.324 930.664 374.312 921.27L374.262 936C387.002 951.63 405.152 961.63 426.882 961.63Z" fill="black"/>
<path opacity="0.1" d="M573.12 961.63C558.644 961.628 544.532 957.095 532.764 948.666C520.995 940.236 512.161 928.335 507.5 914.63C513.416 924.75 521.747 933.248 531.747 939.365C541.748 945.482 553.108 949.028 564.812 949.686C576.517 950.343 588.202 948.092 598.825 943.134C609.448 938.176 618.677 930.664 625.69 921.27V935.99C613 951.63 594.85 961.63 573.12 961.63Z" fill="black"/>
<path d="M407.002 943.81C396.331 939.827 386.805 933.277 379.267 924.737C371.73 916.198 366.412 905.933 363.784 894.85C361.156 883.767 361.3 872.208 364.202 861.194C367.104 850.179 372.674 840.05 380.422 831.7" fill="#D67070"/>
<path d="M406.999 943.81C395.176 941.88 384.258 936.283 375.789 927.81L374.169 926.21C373.639 925.67 373.169 925.08 372.639 924.52C372.109 923.96 371.639 923.37 371.159 922.79C370.652 922.219 370.174 921.621 369.729 921C368.829 919.77 367.919 918.54 367.049 917.28L364.679 913.35C361.688 907.965 359.431 902.204 357.969 896.22C356.61 890.22 356.042 884.068 356.279 877.92C356.551 871.812 357.696 865.774 359.679 859.99C359.939 859.28 360.169 858.56 360.439 857.85L361.319 855.75C361.869 854.35 362.579 853.01 363.229 851.66C364.619 849.003 366.203 846.453 367.969 844.03C368.819 842.82 369.789 841.68 370.719 840.54C371.649 839.4 372.659 838.31 373.719 837.31C375.786 835.244 378.039 833.373 380.449 831.72C374.659 841.72 370.549 851.91 368.789 862.39C367.874 867.541 367.479 872.77 367.609 878C367.802 883.187 368.471 888.346 369.609 893.41C370.842 898.446 372.556 903.352 374.729 908.06C376.951 912.816 379.659 917.33 382.809 921.53C385.996 925.871 389.618 929.876 393.619 933.48C397.82 937.247 402.292 940.7 406.999 943.81Z" fill="#592D3D"/>
<path d="M593.051 943.81C603.718 939.822 613.239 933.267 620.771 924.725C628.303 916.184 633.615 905.918 636.238 894.836C638.861 883.753 638.713 872.196 635.807 861.184C632.902 850.173 627.329 840.046 619.581 831.7" fill="#D67070"/>
<path d="M593.051 943.81C597.746 940.711 602.209 937.272 606.401 933.52C610.402 929.915 614.024 925.911 617.211 921.57C620.361 917.37 623.069 912.856 625.291 908.1C627.463 903.392 629.178 898.486 630.411 893.45C631.549 888.385 632.218 883.227 632.411 878.04C632.555 872.791 632.17 867.541 631.261 862.37C629.501 851.89 625.391 841.73 619.601 831.7C622.011 833.353 624.264 835.224 626.331 837.29C627.411 838.29 628.331 839.43 629.331 840.52C630.331 841.61 631.231 842.8 632.081 844.01C633.847 846.433 635.431 848.983 636.821 851.64C637.471 852.99 638.181 854.33 638.731 855.73L639.611 857.83C639.881 858.54 640.111 859.26 640.371 859.97C642.354 865.754 643.499 871.792 643.771 877.9C644.008 884.048 643.44 890.2 642.081 896.2C640.619 902.184 638.362 907.945 635.371 913.33L633.001 917.26C632.131 918.52 631.221 919.75 630.321 920.98C629.876 921.601 629.398 922.199 628.891 922.77C628.401 923.35 627.891 923.93 627.411 924.5C626.931 925.07 626.411 925.65 625.881 926.19L624.261 927.79C615.795 936.27 604.877 941.875 593.051 943.81Z" fill="#592D3D"/>
<path d="M703.512 506.11V519C705.074 527.465 704.405 536.192 701.572 544.32C700.64 546.973 699.465 549.534 698.062 551.97C694.712 560.68 685.712 567.68 676.712 570.68C662.712 574.68 645.712 572.68 634.712 561.68C620.712 546.68 622.712 524.68 622.262 506.06" stroke="#592D3D" stroke-width="12" stroke-miterlimit="10" stroke-linecap="round"/>
<path d="M376.689 505.7C379.029 532.31 375.029 569.31 340.559 572.87C337.858 573.11 335.14 573.11 332.439 572.87C324.305 572.174 316.53 569.208 309.999 564.31C291.999 549.31 295.999 525.31 296.049 505.69" stroke="#592D3D" stroke-width="12" stroke-miterlimit="10" stroke-linecap="round"/>
<path d="M443.141 621.86C443.141 602.96 556.861 605.8 556.861 621.86C556.861 636.94 550.87 651.403 540.207 662.066C529.543 672.73 515.081 678.72 500.001 678.72C484.92 678.72 470.458 672.73 459.795 662.066C449.131 651.403 443.141 636.94 443.141 621.86Z" fill="#592D3D"/>
<path d="M443.141 621.86C443.141 602.96 556.861 605.8 556.861 621.86C556.861 636.94 550.87 651.403 540.207 662.066C529.543 672.73 515.081 678.72 500.001 678.72C484.92 678.72 470.458 672.73 459.795 662.066C449.131 651.403 443.141 636.94 443.141 621.86Z" stroke="#592D3D" stroke-width="6" stroke-miterlimit="10"/>
<path d="M532.492 646.6C532.492 638.54 517.942 632 500.002 632C482.062 632 467.512 638.54 467.512 646.6V690.94C467.512 705.35 482.062 717.02 500.002 717.02C517.942 717.02 532.492 705.35 532.492 690.94V646.61V646.6Z" fill="#F28195"/>
<path d="M532.492 646.6C532.492 638.54 517.942 632 500.002 632C482.062 632 467.512 638.54 467.512 646.6V690.94C467.512 705.35 482.062 717.02 500.002 717.02C517.942 717.02 532.492 705.35 532.492 690.94V646.61V646.6Z" stroke="#592D3D" stroke-width="8" stroke-miterlimit="10"/>
<path d="M479.312 626.6L480.223 626.39L480.983 626.25C481.473 626.17 481.983 626.11 482.443 626.07C483.402 625.972 484.368 625.938 485.332 625.97C487.288 626.013 489.231 626.284 491.122 626.78C495.082 627.787 498.67 629.908 501.462 632.89C504.09 635.703 505.854 639.212 506.543 643C507.17 646.509 506.691 650.125 505.173 653.35C503.093 650.42 501.513 647.8 499.853 645.59C499.105 644.533 498.283 643.53 497.393 642.59C496.588 641.762 495.684 641.037 494.703 640.43C492.837 639.31 490.754 638.601 488.592 638.35C487.455 638.2 486.309 638.127 485.163 638.13C484.573 638.13 483.982 638.13 483.402 638.13L482.552 638.19H482.152C482.062 638.19 481.862 638.19 481.932 638.19L479.312 626.6Z" fill="#592D3D"/>
<path d="M729.47 414.02H290.23V478.17H729.47V414.02Z" fill="#EDD494"/>
<path d="M710.001 667.66C706.861 671.54 703.624 675.33 700.291 679.03C697.791 681.8 702.871 677.91 710.001 667.66ZM725.001 351.11C694.501 296.7 641.501 259.24 580.221 242L573.871 240.29C551.171 234.01 527.251 233.29 502.551 233.29C475.861 233.29 450.091 236.03 425.781 243.29L421.521 244.56C389.163 255.543 359.061 272.293 332.671 294C329.757 296.387 326.901 298.827 324.101 301.32C295.761 325.01 273.761 355.01 258.631 389.22C257.164 392.5 255.777 395.81 254.471 399.15C250.568 409.102 247.422 419.334 245.061 429.76C213.001 556.34 262.891 634 307.171 681.6C311.541 686.3 249.241 579.75 289.751 465.6C297.481 465.31 309.991 465.09 325.941 464.93L341.441 414.32L358.881 464.7C386.281 464.57 418.761 464.55 452.761 464.58L465.081 412.22L479.001 464.6C553.371 464.74 630.441 465.12 674.281 465.37L687.481 413.2L702.481 465.53L710.691 465.58C760.781 572 728.501 641.13 710.001 667.66C748.445 620.247 769.386 561.04 769.301 500C769.301 413.58 725.001 351.11 725.001 351.11Z" fill="#D96E27"/>
<path d="M710.001 667.66C706.861 671.54 703.624 675.33 700.291 679.03C697.791 681.8 702.871 677.91 710.001 667.66ZM710.001 667.66C728.501 641.13 760.781 572 710.691 465.58L702.481 465.53L687.481 413.2L674.281 465.37C630.441 465.12 553.371 464.74 479.001 464.6L465.081 412.22L452.761 464.58C418.761 464.55 386.281 464.57 358.881 464.7L341.441 414.32L325.941 464.93C309.991 465.09 297.481 465.31 289.751 465.6C249.241 579.75 311.541 686.3 307.171 681.6C262.891 634 213.001 556.34 245.061 429.76C247.422 419.334 250.568 409.102 254.471 399.15C255.777 395.81 257.164 392.5 258.631 389.22C273.761 355.01 295.761 325.01 324.101 301.32C326.901 298.827 329.757 296.387 332.671 294C359.061 272.293 389.163 255.543 421.521 244.56L425.781 243.29C450.091 236.03 475.861 233.29 502.551 233.29C527.251 233.29 551.171 234.01 573.871 240.29L580.221 242C641.501 259.24 694.501 296.7 725.001 351.11C725.001 351.11 769.301 413.58 769.301 500C769.386 561.04 748.445 620.247 710.001 667.66Z" stroke="#592D3D" stroke-width="12" stroke-miterlimit="10"/>
<path d="M584.149 228L577.679 226.26C552.469 219.26 526.749 218.71 502.549 218.71C471.959 218.71 445.479 222.2 421.639 229.35L417.379 230.62L416.889 230.77C382.885 242.368 351.243 259.981 323.469 282.77C320.469 285.23 317.469 287.77 314.629 290.32C284.999 315.14 261.699 346.43 245.389 383.32C243.829 386.81 242.389 390.37 240.969 393.89C236.789 404.58 219.679 453.66 217.219 464.54L289.749 465.54C297.479 465.25 309.989 465.03 325.939 464.87L341.439 414.26L358.879 464.64C386.279 464.51 418.759 464.49 452.759 464.52L465.079 412.16L478.999 464.6C553.369 464.74 630.439 465.12 674.279 465.37L687.479 413.2L702.479 465.53L710.689 465.58L783.799 500C783.799 413.81 742.499 351 737.319 343.4C705.999 288 651.629 247 584.149 228ZM750.309 547.25C747.139 521.33 739.139 491.99 723.799 459.41L719.909 451.14H713.419L686.639 357.51L662.999 450.81C622.569 450.59 555.939 450.27 490.139 450.12L464.189 352.55L441.249 450.05C413.849 450.05 389.699 450.05 369.159 450.14L340.599 367.53L315.179 450.53C303.729 450.68 295.019 450.87 289.179 451.09L279.349 451.47L276.059 460.73C261.719 501.22 257.919 545 264.759 591C248.859 551 242.299 499.61 259.109 433.37L259.199 432.99C261.409 423.275 264.351 413.741 267.999 404.47C269.199 401.38 270.509 398.25 271.909 395.12C286.449 362.26 307.149 334.45 333.419 312.49L333.749 312.2C336.399 309.85 339.139 307.51 341.889 305.25C366.863 284.732 395.313 268.858 425.889 258.38L429.939 257.18C451.059 250.84 474.809 247.75 502.539 247.75C524.759 247.75 548.269 248.26 569.989 254.27L576.369 255.98C636.609 272.98 684.899 309.25 712.369 358.21L712.739 358.87L713.179 359.5C713.599 360.09 754.789 419.13 754.789 500C754.785 515.856 753.285 531.676 750.309 547.25Z" fill="#D96E27"/>
<path d="M710.001 667.66C706.861 671.54 703.624 675.33 700.291 679.03C697.791 681.8 702.871 677.91 710.001 667.66ZM710.001 667.66C728.501 641.13 760.781 572 710.691 465.58L702.481 465.53L687.481 413.2L674.281 465.37C630.441 465.12 553.371 464.74 479.001 464.6L465.081 412.22L452.761 464.58C418.761 464.55 386.281 464.57 358.881 464.7L341.441 414.32L325.941 464.93C309.991 465.09 297.481 465.31 289.751 465.6C249.241 579.75 311.541 686.3 307.171 681.6" stroke="#592D3D" stroke-width="12" stroke-miterlimit="10"/>
<path d="M284.48 462.85C284.66 462.1 284.81 461.53 285.01 460.91C285.21 460.29 285.41 459.71 285.63 459.13C286.09 457.96 286.63 456.82 287.14 455.71C288.256 453.474 289.544 451.328 290.99 449.29C292.42 447.214 294.055 445.288 295.87 443.54C297.849 441.665 300.25 440.293 302.87 439.54C302.902 442.126 302.61 444.706 302 447.22C301.72 448.36 301.41 449.47 301.07 450.54L300.07 453.79C299.404 455.943 298.737 458.073 298.07 460.18C297.74 461.24 297.39 462.27 297.07 463.31C296.9 463.82 296.7 464.31 296.51 464.84C296.32 465.37 296.12 465.84 295.95 466.24L284.48 462.85Z" fill="#592D3D"/>
<path d="M710.68 459.58C712.754 459.415 714.839 459.435 716.91 459.64C719.003 459.819 721.086 460.106 723.15 460.5C724.15 460.7 725.23 460.9 726.27 461.14C727.323 461.361 728.362 461.649 729.38 462C731.674 462.774 733.794 463.99 735.62 465.58C733.791 467.169 731.672 468.388 729.38 469.17C728.362 469.518 727.323 469.802 726.27 470.02C725.27 470.27 724.19 470.47 723.15 470.67C721.07 471.057 718.99 471.343 716.91 471.53C714.839 471.732 712.754 471.749 710.68 471.58V459.58Z" fill="#592D3D"/>
<path d="M444.84 452.07C445.084 447.297 445.581 442.54 446.33 437.82C447.05 433.12 447.93 428.45 448.94 423.82C449.95 419.19 451.09 414.57 452.38 409.99C453.672 405.38 455.215 400.843 457 396.4C456.759 401.174 456.258 405.931 455.5 410.65C454.78 415.35 453.91 420.017 452.89 424.65C451.87 429.283 450.723 433.893 449.45 438.48C448.152 443.087 446.613 447.624 444.84 452.07Z" fill="white"/>
<path d="M668 452.07C668.244 447.297 668.741 442.54 669.49 437.82C670.217 433.12 671.087 428.453 672.1 423.82C673.113 419.187 674.243 414.58 675.49 410C676.767 405.394 678.292 400.861 680.06 396.42C679.822 401.193 679.325 405.95 678.57 410.67C677.837 415.37 676.967 420.037 675.96 424.67C674.96 429.31 673.8 433.92 672.51 438.5C671.248 443.1 669.743 447.63 668 452.07Z" fill="white"/>
<path d="M237.551 468.26C239.573 455.124 243.417 442.334 248.971 430.26Z" fill="#D96E27"/>
<path d="M231.602 467.51C231.692 466.51 231.782 465.66 231.922 464.78C232.062 463.9 232.212 463.06 232.382 462.2C232.732 460.5 233.132 458.82 233.612 457.2C234.552 453.877 235.712 450.62 237.082 447.45C238.405 444.259 239.976 441.176 241.782 438.23C243.671 435.173 246.108 432.492 248.972 430.32C249.173 433.804 249.012 437.299 248.492 440.75C248.242 442.38 247.982 444 247.662 445.59C247.342 447.18 247.082 448.78 246.832 450.37L245.202 459.86L244.372 464.54C244.252 465.32 244.092 466.1 243.952 466.86C243.812 467.62 243.652 468.43 243.512 469.05L231.602 467.51Z" fill="#592D3D"/>
<path d="M769.331 496C769.331 496 768.871 475.22 760.961 448.37Z" fill="#D96E27"/>
<path d="M763.332 496.12L763.092 493.36C763.012 492.36 762.932 491.43 762.872 490.47L762.422 484.63L761.512 472.83C761.212 468.88 760.802 464.92 760.512 460.9C760.432 458.9 760.352 456.84 760.412 454.76C760.434 452.618 760.601 450.48 760.912 448.36C763.635 451.642 765.853 455.312 767.492 459.25C768.312 461.159 769.036 463.108 769.662 465.09C770.332 467.09 770.902 469.09 771.472 471.09C772.594 475.094 773.492 479.157 774.162 483.26C774.492 485.31 774.792 487.38 774.972 489.47C775.078 490.51 775.158 491.56 775.212 492.62C775.272 493.69 775.292 494.69 775.282 495.9L763.332 496.12Z" fill="#592D3D"/>
<path d="M506.7 235.5C492.457 236.322 478.273 237.968 464.22 240.43C460.74 241.11 457.22 241.85 453.78 242.49C450.34 243.13 446.88 244.1 443.43 244.9L433.17 247.62C429.77 248.62 426.4 249.7 423.02 250.74C409.534 255.09 396.358 260.345 383.58 266.47C370.748 272.701 358.311 279.714 346.34 287.47C357.003 277.739 368.778 269.3 381.42 262.33C394.068 255.253 407.386 249.448 421.18 245C424.66 244 428.12 242.91 431.6 241.95C435.08 240.99 438.6 240.13 442.15 239.35C445.7 238.57 449.25 237.95 452.8 237.35C456.35 236.75 459.96 236.28 463.54 235.83C477.867 234.081 492.347 233.97 506.7 235.5Z" fill="white"/>
<path d="M603.101 452.29C614.145 449.476 625.331 447.253 636.611 445.63L634.001 446C647.172 444.081 660.538 443.92 673.751 445.52L671.091 445.16C674.371 445.61 677.631 446.16 680.911 446.57L678.251 446.22C688.204 447.586 698.054 449.624 707.731 452.32C712.731 453.72 718.841 450.6 720.031 445.32C720.685 442.762 720.321 440.051 719.015 437.757C717.709 435.462 715.564 433.764 713.031 433.02C701.687 429.913 690.129 427.647 678.451 426.24L681.101 426.6C670.073 424.642 658.852 423.988 647.671 424.65C636.545 425.382 625.484 426.899 614.571 429.19C608.961 430.33 603.381 431.63 597.811 433C592.731 434.25 589.201 440.26 590.811 445.3C591.56 447.83 593.259 449.972 595.552 451.277C597.845 452.582 600.554 452.949 603.111 452.3L603.101 452.29Z" fill="#592D3D"/>
<path d="M261.262 502.22L275.392 500.74L309.062 497.22L350.002 492.93L385.182 489.24C390.902 488.65 396.622 488.07 402.342 487.45H402.582C405.312 487.17 407.652 486.53 409.652 484.52C411.527 482.645 412.58 480.102 412.58 477.45C412.58 474.798 411.527 472.255 409.652 470.38C407.822 468.69 405.172 467.18 402.582 467.45L388.452 468.93L354.782 472.46L313.782 476.75L278.602 480.43C272.882 481.03 267.162 481.61 261.442 482.23H261.202C258.472 482.52 256.132 483.16 254.132 485.16C253.202 486.089 252.465 487.192 251.961 488.406C251.458 489.619 251.199 490.921 251.199 492.235C251.199 493.549 251.458 494.85 251.961 496.064C252.465 497.278 253.202 498.381 254.132 499.31C255.962 500.99 258.612 502.51 261.202 502.23L261.262 502.22Z" fill="#592D3D"/>
<path opacity="0.2" d="M338.9 641.86C390.434 641.86 432.21 600.084 432.21 548.55C432.21 497.016 390.434 455.24 338.9 455.24C287.366 455.24 245.59 497.016 245.59 548.55C245.59 600.084 287.366 641.86 338.9 641.86Z" fill="white"/>
<path opacity="0.15" d="M744.47 606.82C732.351 624.565 714.998 638.089 694.83 645.505C674.662 652.921 652.682 653.861 631.954 648.194C611.226 642.527 592.782 630.535 579.192 613.889C565.603 597.243 557.544 576.773 556.14 555.33C519.14 540.73 481.71 540.86 441.95 555.72C440.105 581.793 428.457 606.2 409.348 624.034C390.24 641.868 365.088 651.806 338.95 651.85C306.47 651.85 262.95 615.35 267.95 623.46C281.95 644.15 314.95 659.91 340.49 659.91C395.04 659.91 438.36 620.62 442.05 566.99C481.81 552.14 519.28 551.99 556.24 566.6C559.74 620.42 604.63 660.13 659.31 660.13C704 660.13 729.4 626 744.47 606.82Z" fill="black"/>
<path opacity="0.4" d="M319.999 648.75L443.069 525.67C440.364 519.571 437.012 513.781 433.069 508.4L302.719 638.76C308.104 642.7 313.897 646.049 319.999 648.75Z" fill="white"/>
<path d="M338.9 641.86C390.434 641.86 432.21 600.084 432.21 548.55C432.21 497.016 390.434 455.24 338.9 455.24C287.366 455.24 245.59 497.016 245.59 548.55C245.59 600.084 287.366 641.86 338.9 641.86Z" stroke="#592D3D" stroke-width="20" stroke-miterlimit="10"/>
<path d="M659.212 641.86C710.746 641.86 752.522 600.084 752.522 548.55C752.522 497.016 710.746 455.24 659.212 455.24C607.679 455.24 565.902 497.016 565.902 548.55C565.902 600.084 607.679 641.86 659.212 641.86Z" stroke="#592D3D" stroke-width="20" stroke-miterlimit="10"/>
<path d="M432.77 548.55C477.97 530.24 522.38 529.55 565.91 548.55" stroke="#592D3D" stroke-width="20" stroke-miterlimit="10"/>
<path d="M314.699 492.5C316.759 499 308.759 504 302.759 505C296.759 505 292.759 501 290.759 496C289.759 491 290.759 486 294.759 483C299.759 481 306.759 479 311.209 484.13C312.32 485.221 313.202 486.524 313.801 487.962C314.401 489.399 314.706 490.943 314.699 492.5Z" fill="white"/>
<path d="M325.372 488.67C324.762 493 318.762 493 317.762 489C317.762 486 318.762 485 321.612 484.9C322.106 484.9 322.596 484.997 323.053 485.187C323.51 485.377 323.925 485.655 324.274 486.005C324.623 486.355 324.9 486.771 325.088 487.228C325.277 487.685 325.373 488.175 325.372 488.67Z" fill="white"/>
<path opacity="0.2" d="M659.212 641.86C710.746 641.86 752.522 600.084 752.522 548.55C752.522 497.016 710.746 455.24 659.212 455.24C607.679 455.24 565.902 497.016 565.902 548.55C565.902 600.084 607.679 641.86 659.212 641.86Z" fill="white"/>
<path opacity="0.4" d="M645.19 640.81L751.47 534.52C750.894 530.735 750.089 526.988 749.06 523.3L634 638.4C637.678 639.429 641.415 640.234 645.19 640.81Z" fill="white"/>
<path d="M659.212 641.86C710.746 641.86 752.522 600.084 752.522 548.55C752.522 497.016 710.746 455.24 659.212 455.24C607.679 455.24 565.902 497.016 565.902 548.55C565.902 600.084 607.679 641.86 659.212 641.86Z" stroke="#592D3D" stroke-width="20" stroke-miterlimit="10"/>
<path d="M635 492.5C637.06 499 629.06 504 623.06 505C617.06 505 613.06 501 611.06 496C610.06 491 611.06 486 615.06 483C620.06 481 627.06 479 631.51 484.13C632.619 485.223 633.499 486.526 634.099 487.963C634.698 489.4 635.004 490.943 635 492.5Z" fill="white"/>
<path d="M645.692 488.67C645.082 493 639.082 493 638.082 489C638.082 486 639.082 485 641.922 484.9C642.922 484.9 643.881 485.297 644.588 486.004C645.295 486.711 645.692 487.67 645.692 488.67Z" fill="white"/>
</g>
</svg>
