<svg width="1000" height="990" viewBox="0 0 1000 990" fill="none" xmlns="http://www.w3.org/2000/svg">
<mask id="mask0_22_746" style="mask-type:luminance" maskUnits="userSpaceOnUse" x="0" y="0" width="1000" height="966">
<path d="M1000 0H0V718.31H179.2C217.58 860.69 346.65 965.41 500 965.41C653.35 965.41 782.42 860.69 820.8 718.31H1000V0Z" fill="white"/>
</mask>
<g mask="url(#mask0_22_746)">
<path d="M500.001 962.602C683.603 962.602 832.443 813.763 832.443 630.16C832.443 446.558 683.603 297.718 500.001 297.718C316.398 297.718 167.559 446.558 167.559 630.16C167.559 813.763 316.398 962.602 500.001 962.602Z" fill="#85C5E5"/>
<path d="M833.149 369C833.21 357.432 829.83 346.106 823.44 336.463C817.049 326.819 807.936 319.293 797.259 314.84C805.239 309.459 811.77 302.194 816.274 293.687C820.777 285.181 823.115 275.695 823.079 266.07C823.079 238.3 804.079 215.07 778.609 209.19C783.544 200.358 786.129 190.407 786.119 180.29C786.119 148.1 760.549 122 728.999 122C720.623 121.994 712.352 123.87 704.799 127.49C705.25 124.538 705.474 121.556 705.469 118.57C705.469 86.3602 679.899 60.2402 648.349 60.2402C639.964 60.2515 631.687 62.1294 624.118 65.7374C616.549 69.3455 609.878 74.5934 604.589 81.1002C602.979 50.3602 578.059 25.9302 547.589 25.9302C537.318 25.964 527.248 28.7772 518.447 34.0713C509.646 39.3653 502.442 46.9429 497.599 56.0002C492.753 46.9435 485.547 39.3668 476.744 34.0729C467.942 28.7791 457.871 25.9654 447.599 25.9302C417.099 25.9302 392.179 50.3602 390.599 81.1002C385.307 74.5942 378.635 69.3471 371.064 65.7392C363.494 62.1312 355.215 60.2528 346.829 60.2402C315.299 60.2402 289.719 86.3502 289.719 118.57C289.716 121.556 289.936 124.538 290.379 127.49C282.836 123.87 274.576 121.994 266.209 122C234.669 122 209.089 148.12 209.089 180.33C209.073 190.448 211.659 200.4 216.599 209.23C191.149 215.11 172.139 238.34 172.139 266.11C172.111 275.735 174.456 285.219 178.967 293.722C183.477 302.225 190.014 309.485 197.999 314.86C187.455 319.326 178.443 326.772 172.069 336.285C165.696 345.798 162.236 356.965 162.117 368.415C161.997 379.865 165.221 391.102 171.394 400.746C177.567 410.391 186.421 418.024 196.869 422.71C187.409 433.494 182.216 447.365 182.269 461.71C182.269 490.22 202.319 513.96 228.809 519.04C217.299 529.35 774.169 529.97 762.989 519.59C791.189 516.02 812.989 491.48 812.989 461.72C813.034 447.374 807.838 433.506 798.379 422.72C808.774 418.121 817.6 410.589 823.777 401.046C829.953 391.504 833.21 380.367 833.149 369ZM270.809 513.54C269.879 513.02 268.919 512.54 267.959 512.13C268.929 511.56 270.809 513.54 270.809 513.54Z" fill="#A56941"/>
<path d="M469.999 505.43C462.758 512.042 453.765 516.426 444.096 518.058C434.427 519.69 424.493 518.5 415.483 514.63C406.473 510.76 398.77 504.375 393.296 496.24C387.822 488.105 384.81 478.564 384.619 468.76C375.479 471.688 365.698 471.982 356.398 469.609C347.098 467.236 338.655 462.292 332.034 455.343C325.414 448.394 320.884 439.721 318.965 430.317C317.045 420.913 317.812 411.158 321.179 402.17C311.343 401.511 301.907 398.025 294.005 392.131C286.102 386.238 280.07 378.187 276.634 368.948C273.197 359.708 272.501 349.673 274.631 340.048C276.761 330.423 281.625 321.617 288.639 314.69C279.561 310.759 271.813 304.287 266.328 296.055C260.842 287.822 257.853 278.18 257.72 268.288C257.587 258.396 260.315 248.677 265.577 240.3C270.839 231.922 278.41 225.245 287.379 221.07C281.164 213.552 277.216 204.42 275.996 194.742C274.776 185.064 276.334 175.239 280.488 166.413C284.642 157.587 291.221 150.125 299.456 144.897C307.692 139.67 317.244 136.893 326.999 136.89H327.159C325.288 129.302 325.167 121.388 326.805 113.746C328.443 106.104 331.797 98.9346 336.614 92.7798C341.431 86.6251 347.584 81.6461 354.608 78.2194C361.632 74.7927 369.344 73.008 377.159 73.0002C379.05 73.0025 380.939 73.106 382.819 73.3102C372.725 64.8605 359.983 60.2272 346.819 60.2202C315.279 60.2202 289.709 86.3302 289.709 118.55C289.706 121.536 289.926 124.518 290.369 127.47C282.828 123.858 274.571 121.989 266.209 122C234.669 122 209.089 148.12 209.089 180.33C209.073 190.448 211.659 200.4 216.599 209.23C191.149 215.11 172.139 238.34 172.139 266.11C172.111 275.735 174.456 285.219 178.967 293.722C183.477 302.225 190.014 309.485 197.999 314.86C187.455 319.326 178.443 326.772 172.069 336.285C165.696 345.798 162.236 356.965 162.117 368.415C161.997 379.865 165.221 391.102 171.394 400.746C177.567 410.391 186.421 418.024 196.869 422.71C187.409 433.494 182.216 447.365 182.269 461.71C182.269 490.22 202.319 513.96 228.809 519.04C223.199 524.04 352.619 526.79 485.469 527.04C478.498 521.326 473.161 513.871 469.999 505.43Z" fill="#8D5638"/>
<path d="M741.199 386L706.199 464.16L745.669 522.77C757.909 521.86 764.279 520.77 762.979 519.6C791.179 516.03 812.979 491.49 812.979 461.73C812.972 458.48 812.705 455.237 812.179 452.03C792.179 391.39 741.199 386 741.199 386Z" fill="#8D5638"/>
<path d="M833.149 369C833.21 357.432 829.83 346.106 823.44 336.463C817.049 326.819 807.936 319.293 797.259 314.84C805.239 309.459 811.77 302.194 816.274 293.687C820.777 285.181 823.115 275.695 823.079 266.07C823.079 238.3 804.079 215.07 778.609 209.19C783.544 200.358 786.129 190.407 786.119 180.29C786.119 148.1 760.549 122 728.999 122C720.623 121.994 712.352 123.87 704.799 127.49C705.25 124.538 705.474 121.556 705.469 118.57C705.469 86.3602 679.899 60.2402 648.349 60.2402C639.964 60.2515 631.687 62.1294 624.118 65.7374C616.549 69.3455 609.878 74.5934 604.589 81.1002C602.979 50.3602 578.059 25.9302 547.589 25.9302C537.318 25.964 527.248 28.7772 518.447 34.0713C509.646 39.3653 502.442 46.9429 497.599 56.0002C492.753 46.9435 485.547 39.3668 476.744 34.0729C467.942 28.7791 457.871 25.9654 447.599 25.9302C417.099 25.9302 392.179 50.3602 390.599 81.1002C385.307 74.5942 378.635 69.3471 371.064 65.7392C363.494 62.1312 355.215 60.2528 346.829 60.2402C315.299 60.2402 289.719 86.3502 289.719 118.57C289.716 121.556 289.936 124.538 290.379 127.49C282.836 123.87 274.576 121.994 266.209 122C234.669 122 209.089 148.12 209.089 180.33C209.073 190.448 211.659 200.4 216.599 209.23C191.149 215.11 172.139 238.34 172.139 266.11C172.111 275.735 174.456 285.219 178.967 293.722C183.477 302.225 190.014 309.485 197.999 314.86C187.455 319.326 178.443 326.772 172.069 336.285C165.696 345.798 162.236 356.965 162.117 368.415C161.997 379.865 165.221 391.102 171.394 400.746C177.567 410.391 186.421 418.024 196.869 422.71C187.409 433.494 182.216 447.365 182.269 461.71C182.269 490.22 202.319 513.96 228.809 519.04C217.299 529.35 774.169 529.97 762.989 519.59C791.189 516.02 812.989 491.48 812.989 461.72C813.034 447.374 807.838 433.506 798.379 422.72C808.774 418.121 817.6 410.589 823.777 401.046C829.953 391.504 833.21 380.367 833.149 369Z" stroke="#592D3D" stroke-width="12" stroke-miterlimit="10"/>
<path d="M610 758.72C700.76 758.72 682 872.96 682.87 1000H610V758.72Z" fill="#A56941"/>
<path d="M632.74 831.87L610 870L621.38 1000H653.14C653.91 819.73 632.74 831.87 632.74 831.87Z" fill="#8D5638"/>
<path d="M233.25 500C233.25 352.68 352.68 233.25 500 233.25C647.32 233.25 766.75 352.68 766.75 500C766.788 539.694 757.949 578.895 740.88 614.731C723.811 650.568 698.945 682.135 668.1 707.12C662.627 711.573 656.98 715.803 651.16 719.81C591 758 515 758 446.39 751.89C439.73 750.89 433.09 749.63 426.5 748.18C400.17 742.38 374.68 733.43 351.13 720.38C345.31 716.793 339.667 712.92 334.2 708.76C328.706 704.576 323.432 700.11 318.4 695.38C313.64 690.96 309.044 686.367 304.61 681.6C258.667 632.299 233.161 567.39 233.25 500Z" fill="#A56941"/>
<path d="M269.608 634.48C270.308 635.68 270.998 636.88 271.718 638.06C272.148 638.78 272.598 639.48 273.048 640.2C273.708 641.27 274.368 642.34 275.048 643.39C275.528 644.15 276.048 644.89 276.508 645.63C277.168 646.63 277.828 647.63 278.508 648.63C279.018 649.39 279.508 650.15 280.068 650.91C280.728 651.91 281.388 652.83 282.068 653.79C282.608 654.56 283.168 655.32 283.718 656.09C284.268 656.86 285.058 657.94 285.718 658.86C286.378 659.78 286.868 660.39 287.448 661.15C288.028 661.91 288.818 662.95 289.518 663.85C290.218 664.75 290.708 665.36 291.308 666.11C291.908 666.86 292.718 667.87 293.428 668.74C294.138 669.61 294.658 670.23 295.278 670.97C295.898 671.71 296.718 672.69 297.448 673.54C298.178 674.39 298.718 675.01 299.358 675.74L301.578 678.24C302.228 678.97 302.888 679.68 303.578 680.4C304.438 681.34 305.308 682.27 306.178 683.19L307.388 684.47C308.678 685.81 309.978 687.15 311.298 688.47L311.558 688.74C312.848 690.02 314.158 691.29 315.468 692.55L317.048 694.05C317.998 694.94 318.948 695.83 319.908 696.71L321.068 697.77C322.068 698.71 323.158 699.63 324.208 700.55C327.474 703.397 330.808 706.127 334.208 708.74C339.668 712.9 345.311 716.773 351.138 720.36C374.688 733.36 400.138 742.36 426.508 748.16C433.098 749.61 439.738 750.86 446.398 751.87C488.498 755.62 533.398 757.05 575.678 748.79C508.448 729 185.588 612.74 388.798 257.48C386.078 258.73 383.398 260.02 380.738 261.36L380.148 261.65C378.928 262.26 377.708 262.89 376.498 263.53L375.498 264.06C371.738 266.06 368.018 268.13 364.368 270.29L363.468 270.82C362.308 271.51 361.158 272.21 360.008 272.92L359.138 273.46C355.564 275.693 352.048 278.003 348.588 280.39L347.508 281.14C346.418 281.9 345.348 282.66 344.278 283.43L343.618 283.9C341.438 285.493 339.284 287.107 337.158 288.74L336.538 289.22C335.538 290 334.538 290.8 333.538 291.61L332.368 292.55C331.368 293.36 330.368 294.17 329.368 295C327.258 296.75 325.178 298.55 323.128 300.37L321.988 301.37L319.298 303.82L317.998 305C315.144 307.667 312.354 310.39 309.628 313.17L308.248 314.58C307.458 315.4 306.668 316.22 305.888 317.05C305.428 317.54 304.968 318.05 304.518 318.53C303.144 319.997 301.791 321.483 300.458 322.99C300.008 323.5 299.548 323.99 299.098 324.53C298.388 325.34 297.688 326.16 296.988 326.98L295.478 328.77C294.798 329.58 294.118 330.39 293.478 331.21C292.938 331.87 292.398 332.54 291.868 333.21C290.798 334.54 289.748 335.87 288.708 337.21C288.168 337.91 287.628 338.61 287.098 339.32C286.568 340.03 285.898 340.91 285.308 341.72C284.718 342.53 284.238 343.17 283.718 343.9C283.198 344.63 282.588 345.45 282.038 346.23C281.091 347.563 280.158 348.913 279.238 350.28C278.738 351.01 278.238 351.76 277.748 352.5C277.258 353.24 276.648 354.16 276.108 355L274.618 357.31L272.938 360.02C272.508 360.71 272.078 361.4 271.658 362.09C270.768 363.55 269.908 365.02 269.048 366.49L267.828 368.65C267.288 369.6 266.748 370.56 266.218 371.52C265.818 372.25 265.418 372.98 265.028 373.71C264.388 374.9 263.758 376.1 263.128 377.3L261.928 379.64C261.288 380.92 260.648 382.19 260.018 383.48C259.688 384.17 259.348 384.87 259.018 385.57C258.498 386.66 258.018 387.76 257.488 388.86C257.178 389.52 256.878 390.18 256.578 390.86C255.838 392.507 255.114 394.173 254.408 395.86C254.188 396.38 253.978 396.91 253.758 397.43C253.228 398.7 252.708 399.97 252.198 401.25C251.928 401.92 251.668 402.59 251.408 403.25C250.908 404.51 250.408 405.78 249.958 407.05C249.748 407.6 249.538 408.15 249.338 408.7C248.711 410.453 248.094 412.207 247.488 413.96L246.928 415.66C246.488 416.993 246.058 418.327 245.638 419.66L245.038 421.57C244.568 423.11 244.108 424.65 243.668 426.2C243.568 426.53 243.468 426.86 243.378 427.2C242.858 429.04 242.358 430.887 241.878 432.74C241.718 433.33 241.578 433.93 241.428 434.52C241.078 435.91 240.738 437.3 240.428 438.7L240.008 440.45C239.578 442.35 239.158 444.25 238.768 446.16L238.618 446.93C238.278 448.63 237.944 450.33 237.618 452.03C237.508 452.64 237.408 453.24 237.298 453.85C237.038 455.34 236.788 456.85 236.558 458.35C236.478 458.86 236.388 459.35 236.318 459.87C236.018 461.82 235.748 463.78 235.488 465.75L235.338 467.05C235.138 468.64 234.958 470.24 234.788 471.84C234.728 472.44 234.658 473.04 234.598 473.65C234.438 475.33 234.288 477.02 234.148 478.71C234.148 479.06 234.088 479.4 234.068 479.71C233.921 481.71 233.791 483.727 233.678 485.76C233.678 486.29 233.678 486.83 233.608 487.36C233.541 488.933 233.481 490.503 233.428 492.07C233.428 492.66 233.428 493.25 233.428 493.84C233.428 495.89 233.348 497.95 233.348 500.01C233.348 500.01 233.348 500.08 233.348 500.11C233.348 502.33 233.348 504.53 233.428 506.73C233.428 507.49 233.488 508.25 233.508 509.01C233.558 510.48 233.608 511.95 233.678 513.42C233.678 514.31 233.788 515.19 233.838 516.08C233.918 517.41 233.988 518.74 234.088 520.08C234.158 521.08 234.248 521.97 234.328 522.91C234.438 524.17 234.538 525.43 234.668 526.68C234.758 527.68 234.878 528.62 234.978 529.59C235.118 530.8 235.248 532.02 235.398 533.23C235.518 534.23 235.658 535.23 235.788 536.18C235.948 537.36 236.108 538.55 236.288 539.73C236.438 540.73 236.598 541.73 236.758 542.73C236.938 543.89 237.128 545.06 237.328 546.22C237.508 547.22 237.688 548.22 237.878 549.22C238.088 550.37 238.308 551.52 238.528 552.66C238.748 553.8 238.938 554.66 239.148 555.66C239.388 556.8 239.628 557.93 239.888 559.06C240.148 560.19 240.328 561.06 240.568 561.99C240.828 563.12 241.108 564.24 241.388 565.35C241.668 566.46 241.878 567.3 242.128 568.26C242.428 569.38 242.728 570.49 243.038 571.6C243.298 572.6 243.568 573.52 243.848 574.47C244.168 575.58 244.498 576.68 244.848 577.78C245.198 578.88 245.428 579.67 245.728 580.62C246.028 581.57 246.428 582.81 246.788 583.9C247.148 584.99 247.408 585.77 247.728 586.7C248.108 587.79 248.488 588.88 248.878 589.97C249.208 590.88 249.528 591.8 249.878 592.71L251.118 595.98C251.468 596.87 251.808 597.77 252.118 598.66C252.558 599.75 253.008 600.85 253.458 601.94C253.818 602.8 254.168 603.67 254.538 604.53C255.008 605.65 255.538 606.75 255.988 607.86C256.358 608.68 256.718 609.51 257.088 610.33C257.608 611.49 258.158 612.63 258.688 613.77L259.768 616.07C260.378 617.33 261.008 618.57 261.638 619.82C261.958 620.45 262.258 621.09 262.588 621.72C264.508 625.46 266.508 629.15 268.588 632.79C268.878 633.26 269.248 633.87 269.608 634.48Z" fill="#8D5638"/>
<path d="M233.25 500C233.25 352.68 352.68 233.25 500 233.25C647.32 233.25 766.75 352.68 766.75 500C766.788 539.694 757.949 578.895 740.88 614.731C723.811 650.568 698.945 682.135 668.1 707.12C662.627 711.573 656.98 715.803 651.16 719.81C591 758 515 758 446.39 751.89C439.73 750.89 433.09 749.63 426.5 748.18C400.17 742.38 374.68 733.43 351.13 720.38C345.31 716.793 339.667 712.92 334.2 708.76C328.706 704.576 323.432 700.11 318.4 695.38C313.64 690.96 309.044 686.367 304.61 681.6C258.667 632.299 233.161 567.39 233.25 500Z" stroke="#592D3D" stroke-width="12" stroke-miterlimit="10"/>
<path d="M386.118 758.72C295.348 758.72 314.118 872.96 313.248 1000H386.118V758.72Z" fill="#A56941"/>
<path d="M367.228 831.87L389.998 870L378.608 1000H346.878C346.068 819.73 367.228 831.87 367.228 831.87Z" fill="#8D5638"/>
<path d="M619.468 1070H380.528C377.007 1070 373.632 1068.6 371.144 1066.11C368.656 1063.62 367.258 1060.24 367.258 1056.72V772C367.258 768.48 368.656 765.104 371.144 762.613C373.632 760.123 377.007 758.723 380.528 758.72H613.758C626.848 758.72 632.758 766.38 632.758 778.6V1056.68C632.763 1058.43 632.423 1060.16 631.757 1061.78C631.092 1063.39 630.114 1064.86 628.879 1066.1C627.644 1067.34 626.177 1068.32 624.562 1068.99C622.947 1069.66 621.216 1070 619.468 1070Z" fill="#A56941"/>
<path d="M629.048 766.62C628.051 765.394 627.208 764.051 626.538 762.62C624.137 760.739 621.28 759.527 618.258 759.11C616.769 758.88 615.264 758.766 613.758 758.77H380.528C377.016 758.773 373.648 760.166 371.162 762.646C368.675 765.125 367.271 768.488 367.258 772C396.258 782.42 450.548 788.24 499.998 788.24C563.058 788.24 604.378 778.89 629.048 766.62Z" fill="#8D5638"/>
<path d="M610 758.72C700.76 758.72 682 872.96 682.87 1000H632.74" stroke="#592D3D" stroke-width="12" stroke-miterlimit="10" stroke-linecap="square"/>
<path d="M386.118 758.72C295.348 758.72 314.118 872.96 313.248 1000H363.318" stroke="#592D3D" stroke-width="12" stroke-miterlimit="10" stroke-linecap="square"/>
<path d="M380.527 758.82L613.757 758.72" stroke="#592D3D" stroke-width="12" stroke-miterlimit="10"/>
<path d="M380.528 1070H497.148C387.998 1070 396.238 838.82 367.258 838.82V1056.68C367.253 1058.43 367.592 1060.16 368.256 1061.77C368.921 1063.39 369.897 1064.86 371.13 1066.09C372.362 1067.33 373.827 1068.31 375.44 1068.98C377.052 1069.65 378.781 1070 380.528 1070Z" fill="#8D5638"/>
<path d="M361.259 860.85C361.069 857.18 361.149 853.51 361.309 849.85C361.469 846.19 361.779 842.5 362.169 838.85C362.369 837.01 362.569 835.18 362.819 833.34C363.069 831.5 363.309 829.67 363.669 827.83C364.378 824.022 365.585 820.324 367.259 816.83C368.933 820.324 370.14 824.022 370.849 827.83C371.209 829.67 371.469 831.5 371.699 833.34C371.929 835.18 372.149 837.01 372.349 838.85C372.729 842.52 373.029 846.19 373.199 849.85C373.369 853.51 373.449 857.19 373.259 860.85H361.259Z" fill="#592D3D"/>
<path d="M632.738 870V878C632.998 912 632.998 947 632.738 980.75C632.738 983.62 632.738 986.47 632.738 989.28V1056.69C632.742 1058.44 632.402 1060.17 631.737 1061.78C631.072 1063.39 630.095 1064.86 628.862 1066.1C627.63 1067.33 626.166 1068.31 624.554 1068.98C622.942 1069.65 621.213 1070 619.468 1070H380.528C377.007 1070 373.632 1068.6 371.144 1066.11C368.656 1063.62 367.258 1060.24 367.258 1056.72V998.52C367.258 996.01 367.258 993.45 367.258 990.87C367.008 956 367.008 921 367.258 885.57V860.85" stroke="#592D3D" stroke-width="12" stroke-miterlimit="10"/>
<path d="M626.74 870C626.55 865.83 626.64 861.65 626.8 857.47C626.96 853.29 627.27 849.12 627.65 844.94C627.85 842.85 628.06 840.76 628.3 838.67C628.54 836.58 628.79 834.5 629.15 832.41C629.847 828.106 631.052 823.9 632.74 819.88C634.428 823.9 635.633 828.106 636.33 832.41C636.69 834.5 636.95 836.59 637.18 838.67C637.41 840.75 637.63 842.85 637.83 844.94C638.21 849.12 638.52 853.29 638.68 857.47C638.84 861.65 638.93 865.83 638.74 870H626.74Z" fill="#592D3D"/>
<path d="M502.069 878.86C502.067 889.337 499.69 899.678 495.117 909.104C490.543 918.53 483.892 926.797 475.663 933.282C467.435 939.768 457.843 944.303 447.609 946.548C437.375 948.793 426.765 948.688 416.578 946.242C406.39 943.796 396.89 939.072 388.79 932.426C380.691 925.779 374.204 917.383 369.818 907.869C365.431 898.354 363.258 887.969 363.462 877.494C363.667 867.019 366.244 856.726 370.999 847.39" stroke="#592D3D" stroke-width="12" stroke-miterlimit="10"/>
<path d="M371 847.39C374.787 839.991 379.867 833.33 386 827.72Z" fill="#A56941"/>
<path d="M365.648 844.66C366.526 842.58 367.662 840.618 369.028 838.82C370.384 837.02 371.9 835.346 373.558 833.82C374.398 833.06 375.248 832.32 376.138 831.63C377.022 830.915 377.962 830.273 378.948 829.71C381.082 828.479 383.486 827.792 385.948 827.71C385.689 830.051 385.1 832.344 384.198 834.52C383.808 835.52 383.368 836.4 382.908 837.29L381.608 839.96C380.758 841.72 379.918 843.45 379.058 845.15C378.226 846.864 377.305 848.533 376.298 850.15L365.648 844.66Z" fill="#592D3D"/>
<path d="M489.328 838.82C497.626 850.507 502.079 864.487 502.068 878.82Z" fill="#A56941"/>
<path d="M489.328 838.82C492.742 840.671 495.708 843.248 498.018 846.37C499.168 847.889 500.204 849.49 501.118 851.16C502.048 852.83 502.888 854.55 503.668 856.31C505.203 859.846 506.363 863.533 507.128 867.31C507.905 871.102 508.221 874.973 508.068 878.84H496.068C495.878 875.59 495.708 872.36 495.368 869.11C495.028 865.86 494.598 862.63 493.968 859.37L493.468 856.93L492.888 854.48C492.468 852.85 492.018 851.22 491.598 849.55C490.654 846.016 489.896 842.434 489.328 838.82Z" fill="#592D3D"/>
<path d="M641.651 878.86C641.662 869.372 639.719 859.983 635.945 851.278C632.17 842.573 626.644 834.738 619.711 828.26" fill="#A56941"/>
<path d="M635.651 878.86C635.49 874.552 635.07 870.257 634.391 866C633.689 861.7 632.646 857.464 631.271 853.33C630.931 852.33 630.531 851.26 630.161 850.22C629.791 849.18 629.321 848.17 628.911 847.13C628.501 846.09 627.971 845.13 627.531 844.08L626.071 841.08C624.071 836.98 621.901 832.89 619.711 828.33C624.345 830.307 628.51 833.241 631.931 836.94C632.761 837.88 633.631 838.8 634.401 839.79C635.171 840.78 635.941 841.79 636.651 842.79C637.361 843.79 638.081 844.88 638.721 845.97C639.361 847.06 640.031 848.15 640.601 849.29C642.981 853.813 644.795 858.613 646.001 863.58C647.233 868.576 647.778 873.717 647.621 878.86H635.651Z" fill="#592D3D"/>
<path d="M502.997 878.86C502.887 888.032 504.598 897.134 508.032 905.639C511.465 914.144 516.553 921.883 522.999 928.407C529.446 934.932 537.123 940.112 545.586 943.647C554.049 947.182 563.13 949.003 572.302 949.003C581.474 949.003 590.555 947.182 599.018 943.647C607.481 940.112 615.159 934.932 621.605 928.407C628.052 921.883 633.139 914.144 636.573 905.639C640.006 897.134 641.717 888.032 641.607 878.86" stroke="#592D3D" stroke-width="12" stroke-miterlimit="10"/>
<path d="M515.769 838.82C507.475 850.508 503.025 864.488 503.039 878.82Z" fill="#A56941"/>
<path d="M515.769 838.82C515.202 842.441 514.444 846.029 513.499 849.57C513.079 851.24 512.629 852.87 512.209 854.5L511.639 856.95L511.139 859.39C510.509 862.65 510.049 865.89 509.729 869.13C509.409 872.37 509.229 875.61 509.039 878.86H496.999C496.836 874.993 497.152 871.12 497.939 867.33C498.699 863.552 499.859 859.864 501.399 856.33C502.169 854.57 503.009 852.85 503.939 851.18C504.857 849.512 505.893 847.911 507.039 846.39C509.36 843.259 512.34 840.675 515.769 838.82Z" fill="#592D3D"/>
<path d="M383.438 837.55V758.72" stroke="#592D3D" stroke-width="12" stroke-miterlimit="10"/>
<path d="M616.461 837.55V758.72" stroke="#592D3D" stroke-width="12" stroke-miterlimit="10"/>
<path d="M470.5 897.78H524.4V917.48C506.66 911.43 488.69 911.58 470.5 917.48V897.78Z" fill="#89D86F" stroke="#592D3D" stroke-width="12" stroke-miterlimit="10"/>
<path d="M638.101 878.86C638.126 861.305 631.464 844.4 619.471 831.58C615.251 827.06 575.201 837.77 551.661 858.84C528.551 879.53 508.431 913.33 511.311 917.59C519.607 929.903 531.637 939.226 545.63 944.187C559.624 949.148 574.84 949.485 589.039 945.148C603.238 940.81 615.669 932.028 624.501 920.095C633.334 908.161 638.101 893.707 638.101 878.86Z" fill="#89D86F" stroke="#592D3D" stroke-width="12" stroke-miterlimit="10"/>
<path d="M598.108 848.39C591.988 852.06 585.958 855.57 580.108 859.39C574.335 863.08 568.812 867.149 563.578 871.57C558.428 876.03 553.468 880.89 548.578 885.83C543.688 890.77 538.888 895.83 533.828 900.9C536.896 894.462 540.644 888.371 545.008 882.73C549.365 877.001 554.294 871.731 559.718 867C565.237 862.329 571.334 858.387 577.858 855.27C584.285 852.118 591.091 849.805 598.108 848.39Z" fill="white"/>
<path d="M361.899 878.86C361.874 861.305 368.535 844.4 380.529 831.58C384.749 827.06 424.799 837.77 448.339 858.84C471.449 879.53 491.569 913.33 488.689 917.59C480.393 929.903 468.362 939.226 454.369 944.187C440.376 949.148 425.159 949.485 410.96 945.148C396.761 940.81 384.33 932.028 375.498 920.095C366.665 908.161 361.898 893.707 361.899 878.86Z" fill="#89D86F" stroke="#592D3D" stroke-width="12" stroke-miterlimit="10"/>
<path d="M455.751 938.92C433.112 938.92 411.4 929.927 395.392 913.919C379.384 897.911 370.391 876.199 370.391 853.56C370.391 850.651 370.537 847.744 370.831 844.85C363.312 858.199 360.428 873.662 362.629 888.823C364.831 903.985 371.993 917.989 382.997 928.648C394.002 939.308 408.227 946.02 423.451 947.738C438.675 949.455 454.038 946.08 467.141 938.14C463.366 938.653 459.561 938.914 455.751 938.92Z" fill="#7DC462"/>
<path d="M361.899 878.86C361.874 861.305 368.535 844.4 380.529 831.58C384.749 827.06 424.799 837.77 448.339 858.84C471.449 879.53 491.569 913.33 488.689 917.59C480.393 929.903 468.362 939.226 454.369 944.187C440.376 949.148 425.159 949.485 410.96 945.148C396.761 940.81 384.33 932.028 375.498 920.095C366.665 908.161 361.898 893.707 361.899 878.86Z" stroke="#592D3D" stroke-width="12" stroke-miterlimit="10"/>
<path d="M401.891 848.39C408.907 849.802 415.713 852.111 422.141 855.26C428.666 858.38 434.762 862.325 440.281 867C445.683 871.727 450.592 876.991 454.931 882.71C459.295 888.351 463.043 894.442 466.111 900.88C461.051 895.88 456.271 890.75 451.361 885.81C446.451 880.87 441.521 876.01 436.361 871.55C431.126 867.129 425.604 863.06 419.831 859.37C414.001 855.57 408.001 852.06 401.891 848.39Z" fill="white"/>
<path d="M677.8 906.35C678.01 869.24 676.59 836.28 670.07 810.96C660 785.6 641.89 770.48 610 770.48L632.79 905C632.79 905 655.31 915.24 677.8 906.35Z" fill="#8D5638"/>
<path d="M686.411 895.79C685.27 896.732 684.029 897.547 682.711 898.22" stroke="#592D3D" stroke-width="12" stroke-miterlimit="10" stroke-linecap="square"/>
<path d="M326.109 809.88C319.279 835.45 318.109 869.01 318.369 906.88C338.269 915.42 368.789 904.73 368.789 904.73L386.119 772.49C355.249 772.46 336.849 786.36 326.109 809.88Z" fill="#8D5638"/>
<path d="M613.758 758.72H559.548V758.82C559.549 763.322 559.067 767.811 558.108 772.21C557.642 774.35 557.061 776.463 556.368 778.54C554.155 784.745 550.759 790.46 546.368 795.37C544.966 796.944 543.463 798.424 541.868 799.8C516.698 818 476.698 819 452.388 799.22C449.769 796.932 447.387 794.386 445.278 791.62C440.899 785.871 437.797 779.254 436.178 772.21C435.704 770.034 435.347 767.834 435.108 765.62C434.858 763.362 434.734 761.092 434.738 758.82V758.72H380.528C377.008 758.723 373.632 760.123 371.144 762.613C368.656 765.104 367.258 768.48 367.258 772V1056.68C367.253 1058.43 367.592 1060.16 368.256 1061.77C368.921 1063.39 369.897 1064.86 371.13 1066.09C372.362 1067.33 373.827 1068.31 375.44 1068.98C377.052 1069.65 378.781 1070 380.528 1070H619.468C622.988 1070 626.363 1068.6 628.852 1066.11C631.34 1063.62 632.738 1060.24 632.738 1056.72V778.6C632.738 766.38 626.848 758.72 613.758 758.72Z" fill="#89D86F"/>
<path d="M610 758.72C673.54 758.72 683.4 814.72 683.9 891.89C665.3 903.51 634.99 893.2 634.99 893.2L610 758.72Z" fill="#89D86F"/>
<path d="M632.74 831.87L610 870L621.38 1000H632.99V894.35L650.27 897.24C644.6 825.07 632.74 831.87 632.74 831.87Z" fill="#7DC462"/>
<path d="M386.12 758.72C324.34 758.72 310.29 812.52 309.27 886.38C328.27 906.24 367.27 890.96 367.27 890.96L386.12 758.72Z" fill="#89D86F"/>
<path d="M367.228 831.87V891L349.918 895.31C355.588 825.19 367.228 831.87 367.228 831.87Z" fill="#7DC462"/>
<path d="M610 758.72C677.41 758.72 688.45 815.01 688.9 892.5C662.7 904.93 634.99 893.2 634.99 893.2" stroke="#592D3D" stroke-width="12" stroke-miterlimit="10" stroke-linecap="square"/>
<path d="M386.119 758.72C319.329 758.72 306.039 813.42 305.359 889.44C325.999 904.22 367.219 891 367.219 891" stroke="#592D3D" stroke-width="12" stroke-miterlimit="10" stroke-linecap="square"/>
<path d="M380.528 1070H497.148C387.998 1070 396.238 838.82 367.258 838.82V1056.68C367.253 1058.43 367.592 1060.16 368.256 1061.77C368.921 1063.39 369.897 1064.86 371.13 1066.09C372.362 1067.33 373.827 1068.31 375.44 1068.98C377.052 1069.65 378.781 1070 380.528 1070Z" fill="#7DC462"/>
<path d="M361.259 860.85C361.069 857.18 361.149 853.51 361.309 849.85C361.469 846.19 361.779 842.5 362.169 838.85C362.369 837.01 362.569 835.18 362.819 833.34C363.069 831.5 363.309 829.67 363.669 827.83C364.378 824.022 365.585 820.324 367.259 816.83C368.934 820.322 370.138 824.021 370.839 827.83C371.209 829.67 371.469 831.5 371.699 833.34C371.929 835.18 372.149 837.01 372.349 838.85C372.729 842.52 373.029 846.19 373.199 849.85C373.369 853.51 373.449 857.19 373.259 860.85H361.259Z" fill="#592D3D"/>
<path d="M632.738 870V878C632.998 912 632.998 947 632.738 980.75C632.738 983.62 632.738 986.47 632.738 989.28V1056.69C632.742 1058.44 632.402 1060.17 631.737 1061.78C631.072 1063.39 630.095 1064.86 628.862 1066.1C627.63 1067.33 626.166 1068.31 624.554 1068.98C622.942 1069.65 621.213 1070 619.468 1070H380.528C377.007 1070 373.632 1068.6 371.144 1066.11C368.656 1063.62 367.258 1060.24 367.258 1056.72V998.52C367.258 996.01 367.258 993.45 367.258 990.87C367.008 956 367.008 921 367.258 885.57V860.85" stroke="#592D3D" stroke-width="12" stroke-miterlimit="10"/>
<path d="M626.74 870C626.55 865.83 626.64 861.65 626.8 857.47C626.96 853.29 627.27 849.12 627.65 844.94C627.85 842.85 628.06 840.76 628.3 838.67C628.54 836.58 628.79 834.5 629.16 832.41C629.848 828.106 631.05 823.899 632.74 819.88C634.428 823.9 635.633 828.106 636.33 832.41C636.69 834.5 636.95 836.59 637.18 838.67C637.41 840.75 637.63 842.85 637.83 844.94C638.21 849.12 638.52 853.29 638.68 857.47C638.84 861.65 638.93 865.83 638.74 870H626.74Z" fill="#592D3D"/>
<path d="M380.527 758.82L613.757 758.72" stroke="#592D3D" stroke-width="12" stroke-miterlimit="10"/>
<path d="M559.548 758.82C559.55 763.322 559.067 767.812 558.108 772.21C557.643 774.35 557.062 776.463 556.368 778.54C554.156 784.745 550.76 790.461 546.368 795.37C544.967 796.944 543.464 798.424 541.868 799.8C516.698 818 476.698 819 452.388 799.22C449.769 796.932 447.387 794.386 445.278 791.62C440.9 785.871 437.798 779.254 436.178 772.21C435.704 770.034 435.347 767.834 435.108 765.62C434.858 763.362 434.735 761.092 434.738 758.82" stroke="#592D3D" stroke-width="12" stroke-miterlimit="10"/>
<path d="M503.399 828.39C497.35 829.607 491.161 829.977 485.009 829.49C478.802 829.054 472.681 827.789 466.809 825.73C460.902 823.705 455.338 820.792 450.309 817.09L448.449 815.68C447.839 815.2 447.249 814.68 446.659 814.16C445.471 813.149 444.358 812.053 443.329 810.88C441.276 808.573 439.473 806.056 437.949 803.37C440.089 805.516 442.338 807.548 444.689 809.46C445.269 809.94 445.859 810.41 446.439 810.86C447.019 811.31 447.669 811.68 448.279 812.1C448.889 812.52 449.499 812.94 450.129 813.33L452.039 814.49C457.141 817.513 462.535 820.012 468.139 821.95C473.755 823.914 479.525 825.402 485.389 826.4C491.354 827.376 497.365 828.041 503.399 828.39Z" fill="#592D3D"/>
<path d="M307.828 892.5C308.965 893.537 310.197 894.464 311.508 895.27" stroke="#592D3D" stroke-width="12" stroke-miterlimit="10" stroke-linecap="square"/>
<path d="M674.699 882.69C672.618 883.936 670.327 884.79 667.939 885.21C665.568 885.676 663.155 885.894 660.739 885.86C658.327 885.813 655.924 885.549 653.559 885.07C652.379 884.86 651.229 884.51 650.069 884.2C648.909 883.89 647.799 883.43 646.699 882.96C647.909 882.96 649.079 883.14 650.259 883.24L653.779 883.53C654.949 883.53 656.109 883.73 657.279 883.74C658.449 883.75 659.599 883.85 660.759 883.86C663.093 883.9 665.426 883.837 667.759 883.67C670.093 883.509 672.412 883.181 674.699 882.69Z" fill="#592D3D"/>
<path d="M551.551 939.73C550.613 939.189 549.603 938.785 548.551 938.53V907.92C549.625 907.666 550.656 907.255 551.611 906.7C553.045 905.879 554.286 904.759 555.248 903.415C556.21 902.072 556.871 900.536 557.185 898.914C557.5 897.291 557.461 895.62 557.071 894.014C556.681 892.408 555.949 890.905 554.925 889.608C553.901 888.311 552.609 887.25 551.138 886.497C549.667 885.744 548.05 885.318 546.399 885.247C544.748 885.176 543.101 885.462 541.571 886.086C540.04 886.709 538.662 887.655 537.531 888.86L511.001 873.57C511.472 871.991 511.598 870.329 511.37 868.697C511.142 867.064 510.565 865.5 509.679 864.111C508.792 862.721 507.617 861.539 506.233 860.644C504.849 859.75 503.289 859.163 501.658 858.925C500.027 858.688 498.364 858.803 496.782 859.265C495.2 859.727 493.736 860.525 492.49 861.603C491.244 862.681 490.244 864.015 489.559 865.514C488.874 867.013 488.52 868.642 488.521 870.29C488.522 871.393 488.681 872.491 488.991 873.55L462.491 888.85C461.729 888.047 460.857 887.357 459.901 886.8C458.592 886.005 457.138 885.479 455.624 885.253C454.109 885.028 452.565 885.107 451.082 885.487C449.598 885.867 448.206 886.539 446.986 887.465C445.766 888.39 444.744 889.55 443.979 890.876C443.214 892.203 442.721 893.668 442.531 895.188C442.34 896.707 442.455 898.249 442.869 899.723C443.283 901.197 443.987 902.574 444.94 903.772C445.894 904.97 447.077 905.966 448.421 906.7C449.375 907.255 450.406 907.666 451.481 907.92V938.52C450.429 938.783 449.42 939.19 448.481 939.73C447.137 940.464 445.954 941.46 445 942.658C444.047 943.856 443.343 945.233 442.929 946.707C442.515 948.181 442.4 949.723 442.591 951.242C442.781 952.762 443.274 954.227 444.039 955.554C444.804 956.88 445.826 958.04 447.046 958.966C448.266 959.891 449.658 960.563 451.142 960.943C452.625 961.323 454.169 961.402 455.684 961.177C457.198 960.951 458.652 960.426 459.961 959.63C460.907 959.087 461.772 958.414 462.531 957.63L489.001 972.9C488.686 973.955 488.527 975.05 488.531 976.15C488.531 979.2 489.742 982.125 491.899 984.282C494.056 986.438 496.981 987.65 500.031 987.65C503.081 987.65 506.006 986.438 508.162 984.282C510.319 982.125 511.531 979.2 511.531 976.15C511.529 974.92 511.333 973.699 510.951 972.53L537.281 957.33C538.095 958.247 539.055 959.023 540.121 959.63C542.754 961.07 545.847 961.421 548.737 960.61C551.626 959.799 554.084 957.889 555.584 955.289C557.084 952.689 557.507 949.606 556.762 946.698C556.018 943.79 554.165 941.289 551.601 939.73H551.551ZM465.351 947C465.092 945.947 464.685 944.937 464.141 944C463.597 943.057 462.924 942.195 462.141 941.44L496.821 881.38C497.861 881.678 498.938 881.829 500.021 881.83C501.107 881.831 502.188 881.676 503.231 881.37L537.901 941.43C536.308 942.948 535.187 944.892 534.671 947.03L465.351 947ZM534.801 893.64C534.376 895.12 534.255 896.671 534.443 898.199C534.632 899.727 535.126 901.202 535.897 902.535C536.668 903.867 537.7 905.031 538.931 905.957C540.161 906.882 541.566 907.55 543.061 907.92V938.57L542.621 938.68L507.941 878.61L508.241 878.31L534.801 893.64ZM491.741 878.3L492.071 878.62L457.391 938.69L456.941 938.57V907.89C458.436 907.52 459.842 906.852 461.073 905.926C462.304 905 463.335 903.834 464.106 902.5C464.876 901.166 465.369 899.69 465.556 898.161C465.742 896.631 465.618 895.08 465.191 893.6L491.741 878.3ZM508.491 968.44C507.431 967.281 506.145 966.351 504.713 965.708C503.28 965.065 501.731 964.722 500.16 964.7C498.59 964.679 497.032 964.979 495.582 965.583C494.132 966.186 492.822 967.08 491.731 968.21L465.221 952.9L465.341 952.46H534.661C534.721 952.71 534.791 952.97 534.871 953.21L508.491 968.44Z" fill="black" stroke="white" stroke-width="16"/>
<path d="M551.551 939.73C550.613 939.189 549.603 938.785 548.551 938.53V907.92C549.625 907.666 550.656 907.255 551.611 906.7C553.045 905.879 554.286 904.759 555.248 903.415C556.21 902.072 556.871 900.536 557.185 898.914C557.5 897.291 557.461 895.62 557.071 894.014C556.681 892.408 555.949 890.905 554.925 889.608C553.901 888.311 552.609 887.25 551.138 886.497C549.667 885.744 548.05 885.318 546.399 885.247C544.748 885.176 543.101 885.462 541.571 886.086C540.04 886.709 538.662 887.655 537.531 888.86L511.001 873.57C511.472 871.991 511.598 870.329 511.37 868.697C511.142 867.064 510.565 865.5 509.679 864.111C508.792 862.721 507.617 861.539 506.233 860.644C504.849 859.75 503.289 859.163 501.658 858.925C500.027 858.688 498.364 858.803 496.782 859.265C495.2 859.727 493.736 860.525 492.49 861.603C491.244 862.681 490.244 864.015 489.559 865.514C488.874 867.013 488.52 868.642 488.521 870.29C488.522 871.393 488.681 872.491 488.991 873.55L462.491 888.85C461.729 888.047 460.857 887.357 459.901 886.8C458.592 886.005 457.138 885.479 455.624 885.253C454.109 885.028 452.565 885.107 451.082 885.487C449.598 885.867 448.206 886.539 446.986 887.465C445.766 888.39 444.744 889.55 443.979 890.876C443.214 892.203 442.721 893.668 442.531 895.188C442.34 896.707 442.455 898.249 442.869 899.723C443.283 901.197 443.987 902.574 444.94 903.772C445.894 904.97 447.077 905.966 448.421 906.7C449.375 907.255 450.406 907.666 451.481 907.92V938.52C450.429 938.783 449.42 939.19 448.481 939.73C447.137 940.464 445.954 941.46 445 942.658C444.047 943.856 443.343 945.233 442.929 946.707C442.515 948.181 442.4 949.723 442.591 951.242C442.781 952.762 443.274 954.227 444.039 955.554C444.804 956.88 445.826 958.04 447.046 958.966C448.266 959.891 449.658 960.563 451.142 960.943C452.625 961.323 454.169 961.402 455.684 961.177C457.198 960.951 458.652 960.426 459.961 959.63C460.907 959.087 461.772 958.414 462.531 957.63L489.001 972.9C488.686 973.955 488.527 975.05 488.531 976.15C488.531 979.2 489.742 982.125 491.899 984.282C494.056 986.438 496.981 987.65 500.031 987.65C503.081 987.65 506.006 986.438 508.162 984.282C510.319 982.125 511.531 979.2 511.531 976.15C511.529 974.92 511.333 973.699 510.951 972.53L537.281 957.33C538.095 958.247 539.055 959.023 540.121 959.63C542.754 961.07 545.847 961.421 548.737 960.61C551.626 959.799 554.084 957.889 555.584 955.289C557.084 952.689 557.507 949.606 556.762 946.698C556.018 943.79 554.165 941.289 551.601 939.73H551.551ZM465.351 947C465.092 945.947 464.685 944.937 464.141 944C463.597 943.057 462.924 942.195 462.141 941.44L496.821 881.38C497.861 881.678 498.938 881.829 500.021 881.83C501.107 881.831 502.188 881.676 503.231 881.37L537.901 941.43C536.308 942.948 535.187 944.892 534.671 947.03L465.351 947ZM534.801 893.64C534.376 895.12 534.255 896.671 534.443 898.199C534.632 899.727 535.126 901.202 535.897 902.535C536.668 903.867 537.7 905.031 538.931 905.957C540.161 906.882 541.566 907.55 543.061 907.92V938.57L542.621 938.68L507.941 878.61L508.241 878.31L534.801 893.64ZM491.741 878.3L492.071 878.62L457.391 938.69L456.941 938.57V907.89C458.436 907.52 459.842 906.852 461.073 905.926C462.304 905 463.335 903.834 464.106 902.5C464.876 901.166 465.369 899.69 465.556 898.161C465.742 896.631 465.618 895.08 465.191 893.6L491.741 878.3ZM508.491 968.44C507.431 967.281 506.145 966.351 504.713 965.708C503.28 965.065 501.731 964.722 500.16 964.7C498.59 964.679 497.032 964.979 495.582 965.583C494.132 966.186 492.822 967.08 491.731 968.21L465.221 952.9L465.341 952.46H534.661C534.721 952.71 534.791 952.97 534.871 953.21L508.491 968.44Z" fill="#E535AB"/>
<path opacity="0.1" d="M426.878 961.63C441.354 961.629 455.466 957.095 467.234 948.666C479.002 940.237 487.837 928.335 492.498 914.63C486.581 924.751 478.251 933.249 468.25 939.366C458.25 945.483 446.89 949.028 435.186 949.686C423.481 950.344 411.796 948.093 401.173 943.134C390.55 938.176 381.321 930.665 374.308 921.27L374.258 936C386.998 951.63 405.148 961.63 426.878 961.63Z" fill="black"/>
<path opacity="0.1" d="M573.12 961.63C558.644 961.629 544.532 957.095 532.764 948.666C520.995 940.237 512.161 928.335 507.5 914.63C513.416 924.751 521.747 933.249 531.747 939.366C541.748 945.483 553.108 949.028 564.812 949.686C576.517 950.344 588.202 948.093 598.825 943.134C609.448 938.176 618.677 930.665 625.69 921.27V935.99C613 951.63 594.85 961.63 573.12 961.63Z" fill="black"/>
<path d="M406.998 943.81C396.327 939.827 386.801 933.277 379.263 924.738C371.726 916.198 366.408 905.934 363.78 894.851C361.153 883.768 361.296 872.208 364.198 861.194C367.1 850.179 372.67 840.05 380.418 831.7" fill="#89D86F"/>
<path d="M406.999 943.81C395.176 941.88 384.258 936.283 375.789 927.81L374.169 926.21C373.639 925.67 373.169 925.08 372.639 924.52C372.109 923.96 371.639 923.37 371.159 922.79C370.652 922.219 370.174 921.621 369.729 921C368.829 919.77 367.919 918.54 367.049 917.28L364.679 913.35C361.688 907.965 359.431 902.204 357.969 896.22C356.61 890.22 356.042 884.068 356.279 877.92C356.551 871.812 357.696 865.774 359.679 859.99C359.939 859.28 360.169 858.56 360.439 857.85L361.319 855.75C361.869 854.35 362.579 853.01 363.229 851.66C364.619 849.003 366.203 846.453 367.969 844.03C368.819 842.82 369.789 841.68 370.719 840.54C371.649 839.4 372.659 838.31 373.719 837.31C375.786 835.244 378.039 833.373 380.449 831.72C374.659 841.72 370.549 851.91 368.789 862.39C367.874 867.541 367.479 872.771 367.609 878C367.802 883.187 368.471 888.346 369.609 893.41C370.842 898.446 372.556 903.352 374.729 908.06C376.951 912.817 379.659 917.331 382.809 921.53C385.996 925.872 389.618 929.876 393.619 933.48C397.82 937.247 402.292 940.7 406.999 943.81Z" fill="#592D3D"/>
<path d="M593.051 943.81C603.718 939.822 613.239 933.267 620.771 924.726C628.303 916.184 633.615 905.918 636.238 894.836C638.861 883.754 638.713 872.196 635.807 861.184C632.902 850.173 627.329 840.046 619.581 831.7" fill="#89D86F"/>
<path d="M593.051 943.81C597.746 940.711 602.209 937.272 606.401 933.52C610.402 929.916 614.024 925.912 617.211 921.57C620.361 917.371 623.069 912.857 625.291 908.1C627.463 903.392 629.178 898.486 630.411 893.45C631.549 888.386 632.218 883.227 632.411 878.04C632.555 872.791 632.17 867.542 631.261 862.37C629.501 851.89 625.391 841.73 619.601 831.7C622.011 833.353 624.264 835.224 626.331 837.29C627.411 838.29 628.331 839.43 629.331 840.52C630.331 841.61 631.231 842.8 632.081 844.01C633.847 846.433 635.431 848.983 636.821 851.64C637.471 852.99 638.181 854.33 638.731 855.73L639.611 857.83C639.881 858.54 640.111 859.26 640.371 859.97C642.354 865.754 643.499 871.792 643.771 877.9C644.008 884.048 643.44 890.2 642.081 896.2C640.619 902.184 638.362 907.945 635.371 913.33L633.001 917.26C632.131 918.52 631.221 919.75 630.321 920.98C629.876 921.601 629.398 922.199 628.891 922.77C628.401 923.35 627.891 923.93 627.411 924.5C626.931 925.07 626.411 925.65 625.881 926.19L624.261 927.79C615.795 936.271 604.877 941.875 593.051 943.81Z" fill="#592D3D"/>
<path d="M296.491 572.61V559.68C294.929 551.215 295.598 542.489 298.431 534.36C299.365 531.708 300.539 529.147 301.941 526.71C305.291 518 314.291 511 323.291 508C337.291 504 354.291 506 365.291 517C379.291 532 377.291 554 377.741 572.62" stroke="#592D3D" stroke-width="12" stroke-miterlimit="10" stroke-linecap="round"/>
<path d="M623.31 573C620.97 546.38 624.97 509.38 659.44 505.83C662.141 505.585 664.859 505.585 667.56 505.83C675.695 506.536 683.469 509.509 690 514.41C708 529.41 704 553.41 703.95 573.04" stroke="#592D3D" stroke-width="12" stroke-miterlimit="10" stroke-linecap="round"/>
<path d="M499.7 696.88C529.496 696.88 553.65 672.726 553.65 642.93C553.65 613.134 529.496 588.98 499.7 588.98C469.904 588.98 445.75 613.134 445.75 642.93C445.75 672.726 469.904 696.88 499.7 696.88Z" fill="#592D3D"/>
<path d="M491.208 663.39C477.138 660.02 463.588 664.39 457.758 673.26C463.348 681.722 471.451 688.217 480.927 691.83C490.403 695.443 500.773 695.992 510.578 693.4C512.619 692.863 514.623 692.195 516.578 691.4C517.928 679.39 507.078 667.18 491.208 663.39Z" fill="#F28195"/>
<path d="M478.648 652H479.448H480.098C480.528 652 480.938 652 481.348 652.06C482.169 652.121 482.984 652.237 483.788 652.41C485.424 652.73 487.015 653.244 488.528 653.94C491.706 655.364 494.407 657.673 496.308 660.59C498.103 663.353 499.065 666.575 499.078 669.87C499.074 672.903 498.135 675.86 496.388 678.34C495.088 675.58 494.148 673.14 493.078 671.05C492.605 670.057 492.064 669.098 491.458 668.18C490.899 667.368 490.244 666.626 489.508 665.97C488.11 664.749 486.467 663.842 484.688 663.31C483.753 663.024 482.801 662.793 481.838 662.62C481.348 662.55 480.838 662.46 480.368 662.4L479.638 662.33H479.308C479.228 662.33 479.048 662.33 479.118 662.33L478.648 652Z" fill="#592D3D"/>
<path d="M499.7 696.88C529.496 696.88 553.65 672.726 553.65 642.93C553.65 613.134 529.496 588.98 499.7 588.98C469.904 588.98 445.75 613.134 445.75 642.93C445.75 672.726 469.904 696.88 499.7 696.88Z" stroke="#592D3D" stroke-width="8" stroke-miterlimit="10"/>
<path d="M558.418 406.88C545.548 430.88 498.418 444.33 494.588 438.3C490.288 431.57 532.438 382.98 508.488 332.16" fill="#8D5638"/>
<path d="M500.15 221.81C369 221.81 247.79 328.25 226 457C226 457 427.33 472.23 500.66 390.25C496.01 412.9 482.94 430.12 485.15 433.58C488.23 438.42 526.07 427.66 536.4 408.36L532.74 402.88C582.65 421 680.23 443.46 746 375.26C702.52 285 604.61 221.81 500.15 221.81Z" fill="#A56941"/>
<path d="M331.517 454.81C325.081 447.858 320.705 439.254 318.877 429.958C317.049 420.662 317.842 411.041 321.168 402.17C314.133 401.707 307.27 399.793 301.01 396.55C294.75 393.306 289.229 388.803 284.793 383.323C280.357 377.843 277.103 371.505 275.235 364.707C273.367 357.909 272.925 350.797 273.938 343.82C249.847 377.51 232.938 416.12 225.938 457C261.134 459.045 296.436 458.313 331.517 454.81Z" fill="#8D5638"/>
<path d="M739.659 389.6C664.999 447 579.069 424.7 533.509 405.69C523.369 423.63 488.249 433.58 485.359 429.05C483.359 425.97 494.179 411.4 499.139 391.89C424.859 472.16 239.289 463.89 239.289 463.89" stroke="#592D3D" stroke-width="12" stroke-miterlimit="10"/>
<path d="M280.918 140.17C273.902 140.493 267.018 142.192 260.658 145.17C254.645 147.937 249.302 151.972 244.998 157C244.447 157.606 243.936 158.248 243.468 158.92C242.988 159.58 242.468 160.2 242.008 160.92C241.075 162.28 240.22 163.693 239.448 165.15C237.859 168.079 236.553 171.153 235.548 174.33C233.626 181.087 232.852 188.118 233.258 195.13C229.71 188.332 228.368 180.597 229.418 173L229.948 170.14L230.238 168.7C230.348 168.23 230.508 167.77 230.648 167.3C230.928 166.36 231.208 165.42 231.518 164.49C231.828 163.56 232.278 162.69 232.658 161.78C233.458 159.983 234.381 158.242 235.418 156.57C235.928 155.72 236.558 154.96 237.118 154.15C237.677 153.337 238.285 152.559 238.938 151.82C244.071 145.781 250.888 141.408 258.518 139.26C265.875 137.037 273.766 137.357 280.918 140.17Z" fill="white"/>
<path d="M358.878 77.1501C352.812 76.9441 346.75 77.6178 340.878 79.1501C335.37 80.643 330.144 83.0279 325.408 86.2101C320.676 89.4302 316.512 93.4145 313.088 98.0001C312.248 99.1801 311.288 100.31 310.558 101.58L309.348 103.46C308.918 104.08 308.638 104.76 308.258 105.46C306.714 108.163 305.345 110.962 304.158 113.84C303.733 110.608 303.865 107.327 304.548 104.14C304.718 103.34 304.818 102.51 305.068 101.72L305.808 99.3601C306.321 97.7751 306.959 96.2335 307.718 94.7501C310.74 88.6205 315.319 83.3926 320.998 79.5901C326.622 75.8039 333.129 73.534 339.888 73.0001C346.493 72.404 353.123 73.8527 358.878 77.1501Z" fill="white"/>
<path d="M255.061 519.62L268.061 515.22L299.261 504.68L336.861 491.98L369.351 480.98C374.621 479.2 379.901 477.47 385.151 475.64L385.381 475.57C387.878 474.827 390.014 473.189 391.381 470.97C392.72 468.681 393.095 465.954 392.424 463.389C391.752 460.824 390.09 458.63 387.801 457.29C386.648 456.617 385.371 456.182 384.047 456.01C382.723 455.839 381.378 455.934 380.091 456.29L367.091 460.68L335.891 471.22L298.291 483.93L265.801 494.93C260.531 496.71 255.251 498.45 250.001 500.27L249.771 500.35C247.274 501.094 245.138 502.732 243.771 504.95C242.432 507.239 242.057 509.966 242.728 512.532C243.4 515.097 245.062 517.291 247.351 518.63C248.504 519.303 249.781 519.738 251.105 519.91C252.429 520.082 253.774 519.987 255.061 519.63V519.62Z" fill="#592D3D"/>
<path d="M617.557 475L630.287 480.13L660.827 492.44L697.637 507.28L729.447 520.11C734.597 522.18 739.707 524.41 744.917 526.35L745.137 526.43C747.387 527.34 750.847 526.59 752.847 525.43C753.982 524.767 754.975 523.886 755.769 522.839C756.563 521.792 757.142 520.599 757.475 519.327C757.807 518.056 757.886 516.731 757.706 515.429C757.527 514.127 757.092 512.874 756.427 511.74L754.867 509.74C753.644 508.516 752.125 507.631 750.457 507.17L737.727 502L707.187 489.68L670.377 474.84L638.567 462C633.417 459.92 628.307 457.69 623.097 455.76L622.877 455.67C620.627 454.76 617.167 455.51 615.167 456.67C612.879 458.01 611.216 460.203 610.545 462.769C609.873 465.334 610.248 468.061 611.587 470.35L613.147 472.35C614.371 473.575 615.89 474.463 617.557 474.93V475Z" fill="#592D3D"/>
</g>
</svg>
