<svg width="1000" height="990" viewBox="0 0 1000 990" fill="none" xmlns="http://www.w3.org/2000/svg">
<mask id="mask0_22_3382" style="mask-type:luminance" maskUnits="userSpaceOnUse" x="0" y="0" width="1000" height="966">
<path d="M1000 0H0V718.31H179.2C217.58 860.69 346.65 965.41 500 965.41C653.35 965.41 782.42 860.69 820.8 718.31H1000V0Z" fill="white"/>
</mask>
<g mask="url(#mask0_22_3382)">
<path d="M500.001 962.602C683.603 962.602 832.443 813.763 832.443 630.16C832.443 446.557 683.603 297.718 500.001 297.718C316.398 297.718 167.559 446.557 167.559 630.16C167.559 813.763 316.398 962.602 500.001 962.602Z" fill="#85C5E5"/>
<path d="M610 758.72C700.76 758.72 682 872.96 682.87 1000H610V758.72Z" fill="#FDD2B2"/>
<path d="M632.74 831.87L610 870L621.38 1000H653.14C653.91 819.73 632.74 831.87 632.74 831.87Z" fill="#F3AB98"/>
<path d="M233.25 500C233.25 352.68 352.68 233.25 500 233.25C647.32 233.25 766.75 352.68 766.75 500C766.788 539.694 757.949 578.895 740.88 614.731C723.811 650.568 698.945 682.135 668.1 707.12C662.627 711.573 656.98 715.803 651.16 719.81C591 758 515 758 446.39 751.89C439.73 750.89 433.09 749.63 426.5 748.18C400.17 742.38 374.68 733.43 351.13 720.38C345.31 716.793 339.667 712.92 334.2 708.76C328.706 704.576 323.432 700.11 318.4 695.38C313.64 690.96 309.044 686.367 304.61 681.6C258.667 632.299 233.161 567.39 233.25 500Z" fill="#FDD2B2"/>
<path d="M269.612 634.48C270.312 635.68 271.002 636.88 271.722 638.06C272.152 638.78 272.602 639.48 273.052 640.2C273.712 641.27 274.372 642.34 275.052 643.39C275.532 644.15 276.052 644.89 276.512 645.63C277.172 646.63 277.832 647.63 278.512 648.63C279.022 649.39 279.512 650.15 280.072 650.91C280.732 651.91 281.392 652.83 282.072 653.79C282.612 654.56 283.172 655.32 283.722 656.09C284.272 656.86 285.062 657.94 285.722 658.86C286.382 659.78 286.872 660.39 287.452 661.15C288.032 661.91 288.822 662.95 289.522 663.85C290.222 664.75 290.712 665.36 291.312 666.11C291.912 666.86 292.722 667.87 293.432 668.74C294.142 669.61 294.662 670.23 295.282 670.97C295.902 671.71 296.722 672.69 297.452 673.54C298.182 674.39 298.722 675.01 299.362 675.74L301.582 678.24C302.232 678.97 302.892 679.68 303.582 680.4C304.442 681.34 305.312 682.27 306.182 683.19L307.392 684.47C308.682 685.81 309.982 687.15 311.302 688.47L311.562 688.74C312.852 690.02 314.162 691.29 315.472 692.55L317.052 694.05C318.002 694.94 318.952 695.83 319.912 696.71L321.072 697.77C322.072 698.71 323.162 699.63 324.212 700.55C327.478 703.397 330.812 706.127 334.212 708.74C339.672 712.9 345.315 716.773 351.142 720.36C374.692 733.36 400.142 742.36 426.512 748.16C433.102 749.61 439.742 750.86 446.402 751.87C488.502 755.62 533.402 757.05 575.682 748.79C508.452 729 185.592 612.74 388.802 257.48C386.082 258.73 383.402 260.02 380.742 261.36L380.152 261.65C378.932 262.26 377.712 262.89 376.502 263.53L375.502 264.06C371.742 266.06 368.022 268.13 364.372 270.29L363.472 270.82C362.312 271.51 361.162 272.21 360.012 272.92L359.142 273.46C355.568 275.693 352.052 278.003 348.592 280.39L347.512 281.14C346.422 281.9 345.352 282.66 344.282 283.43L343.622 283.9C341.442 285.493 339.288 287.107 337.162 288.74L336.542 289.22C335.542 290 334.542 290.8 333.542 291.61L332.372 292.55C331.372 293.36 330.372 294.17 329.372 295C327.262 296.75 325.182 298.55 323.132 300.37L321.992 301.37L319.302 303.82L318.002 305C315.148 307.667 312.358 310.39 309.632 313.17L308.252 314.58C307.462 315.4 306.672 316.22 305.892 317.05C305.432 317.54 304.972 318.05 304.522 318.53C303.148 319.997 301.795 321.483 300.462 322.99C300.012 323.5 299.552 323.99 299.102 324.53C298.392 325.34 297.692 326.16 296.992 326.98L295.482 328.77C294.802 329.58 294.122 330.39 293.482 331.21C292.942 331.87 292.402 332.54 291.872 333.21C290.802 334.54 289.752 335.87 288.712 337.21C288.172 337.91 287.632 338.61 287.102 339.32C286.572 340.03 285.902 340.91 285.312 341.72C284.722 342.53 284.242 343.17 283.722 343.9C283.202 344.63 282.592 345.45 282.042 346.23C281.095 347.563 280.162 348.913 279.242 350.28C278.742 351.01 278.242 351.76 277.752 352.5C277.262 353.24 276.652 354.16 276.112 355L274.622 357.31L272.942 360.02C272.512 360.71 272.082 361.4 271.662 362.09C270.772 363.55 269.912 365.02 269.052 366.49L267.832 368.65C267.292 369.6 266.752 370.56 266.222 371.52C265.822 372.25 265.422 372.98 265.032 373.71C264.392 374.9 263.762 376.1 263.132 377.3L261.932 379.64C261.292 380.92 260.652 382.19 260.022 383.48C259.692 384.17 259.352 384.87 259.022 385.57C258.502 386.66 258.022 387.76 257.492 388.86C257.182 389.52 256.882 390.18 256.582 390.86C255.842 392.507 255.118 394.173 254.412 395.86C254.192 396.38 253.982 396.91 253.762 397.43C253.232 398.7 252.712 399.97 252.202 401.25C251.932 401.92 251.672 402.59 251.412 403.25C250.912 404.51 250.412 405.78 249.962 407.05C249.752 407.6 249.542 408.15 249.342 408.7C248.715 410.453 248.098 412.207 247.492 413.96L246.932 415.66C246.492 416.993 246.062 418.327 245.642 419.66L245.042 421.57C244.572 423.11 244.112 424.65 243.672 426.2C243.572 426.53 243.472 426.86 243.382 427.2C242.862 429.04 242.362 430.887 241.882 432.74C241.722 433.33 241.582 433.93 241.432 434.52C241.082 435.91 240.742 437.3 240.432 438.7L240.012 440.45C239.582 442.35 239.162 444.25 238.772 446.16L238.622 446.93C238.282 448.63 237.948 450.33 237.622 452.03C237.512 452.64 237.412 453.24 237.302 453.85C237.042 455.34 236.792 456.85 236.562 458.35C236.482 458.86 236.392 459.35 236.322 459.87C236.022 461.82 235.752 463.78 235.492 465.75L235.342 467.05C235.142 468.64 234.962 470.24 234.792 471.84C234.732 472.44 234.662 473.04 234.602 473.65C234.442 475.33 234.292 477.02 234.152 478.71C234.152 479.06 234.092 479.4 234.072 479.71C233.925 481.71 233.795 483.727 233.682 485.76C233.682 486.29 233.682 486.83 233.612 487.36C233.545 488.933 233.485 490.503 233.432 492.07C233.432 492.66 233.432 493.25 233.432 493.84C233.432 495.89 233.352 497.95 233.352 500.01C233.352 500.01 233.352 500.08 233.352 500.11C233.352 502.33 233.352 504.53 233.432 506.73C233.432 507.49 233.492 508.25 233.512 509.01C233.562 510.48 233.612 511.95 233.682 513.42C233.682 514.31 233.792 515.19 233.842 516.08C233.922 517.41 233.992 518.74 234.092 520.08C234.162 521.08 234.252 521.97 234.332 522.91C234.442 524.17 234.542 525.43 234.672 526.68C234.762 527.68 234.882 528.62 234.982 529.59C235.122 530.8 235.252 532.02 235.402 533.23C235.522 534.23 235.662 535.23 235.792 536.18C235.952 537.36 236.112 538.55 236.292 539.73C236.442 540.73 236.602 541.73 236.762 542.73C236.942 543.89 237.132 545.06 237.332 546.22C237.512 547.22 237.692 548.22 237.882 549.22C238.092 550.37 238.312 551.52 238.532 552.66C238.752 553.8 238.942 554.66 239.152 555.66C239.392 556.8 239.632 557.93 239.892 559.06C240.152 560.19 240.332 561.06 240.572 561.99C240.832 563.12 241.112 564.24 241.392 565.35C241.672 566.46 241.882 567.3 242.132 568.26C242.432 569.38 242.732 570.49 243.042 571.6C243.302 572.6 243.572 573.52 243.852 574.47C244.172 575.58 244.502 576.68 244.852 577.78C245.202 578.88 245.432 579.67 245.732 580.62C246.032 581.57 246.432 582.81 246.792 583.9C247.152 584.99 247.412 585.77 247.732 586.7C248.112 587.79 248.492 588.88 248.882 589.97C249.212 590.88 249.532 591.8 249.882 592.71L251.122 595.98C251.472 596.87 251.812 597.77 252.122 598.66C252.562 599.75 253.012 600.85 253.462 601.94C253.822 602.8 254.172 603.67 254.542 604.53C255.012 605.65 255.542 606.75 255.992 607.86C256.362 608.68 256.722 609.51 257.092 610.33C257.612 611.49 258.162 612.63 258.692 613.77L259.772 616.07C260.382 617.33 261.012 618.57 261.642 619.82C261.962 620.45 262.262 621.09 262.592 621.72C264.512 625.46 266.512 629.15 268.592 632.79C268.882 633.26 269.252 633.87 269.612 634.48Z" fill="#F3AB98"/>
<path d="M233.25 500C233.25 352.68 352.68 233.25 500 233.25C647.32 233.25 766.75 352.68 766.75 500C766.788 539.694 757.949 578.895 740.88 614.731C723.811 650.568 698.945 682.135 668.1 707.12C662.627 711.573 656.98 715.803 651.16 719.81C591 758 515 758 446.39 751.89C439.73 750.89 433.09 749.63 426.5 748.18C400.17 742.38 374.68 733.43 351.13 720.38C345.31 716.793 339.667 712.92 334.2 708.76C328.706 704.576 323.432 700.11 318.4 695.38C313.64 690.96 309.044 686.367 304.61 681.6C258.667 632.299 233.161 567.39 233.25 500Z" stroke="#592D3D" stroke-width="12" stroke-miterlimit="10"/>
<path d="M386.122 758.72C295.352 758.72 314.122 872.96 313.252 1000H386.122V758.72Z" fill="#FDD2B2"/>
<path d="M367.232 831.87L390.002 870L378.612 1000H346.882C346.072 819.73 367.232 831.87 367.232 831.87Z" fill="#F3AB98"/>
<path d="M619.472 1070H380.532C377.011 1070 373.636 1068.6 371.148 1066.11C368.659 1063.62 367.262 1060.24 367.262 1056.72V772C367.262 768.48 368.659 765.103 371.148 762.613C373.636 760.123 377.011 758.723 380.532 758.72H613.762C626.852 758.72 632.762 766.38 632.762 778.6V1056.68C632.767 1058.43 632.427 1060.16 631.761 1061.78C631.096 1063.39 630.117 1064.86 628.883 1066.1C627.648 1067.34 626.181 1068.32 624.566 1068.99C622.951 1069.66 621.22 1070 619.472 1070Z" fill="#FDD2B2"/>
<path d="M629.052 766.62C628.055 765.394 627.212 764.051 626.542 762.62C624.141 760.738 621.284 759.527 618.262 759.11C616.773 758.879 615.268 758.766 613.762 758.77H380.532C377.02 758.773 373.652 760.166 371.165 762.645C368.679 765.125 367.275 768.488 367.262 772C396.262 782.42 450.552 788.24 500.002 788.24C563.062 788.24 604.382 778.89 629.052 766.62Z" fill="#F3AB98"/>
<path d="M610 758.72C700.76 758.72 682 872.96 682.87 1000H632.74" stroke="#592D3D" stroke-width="12" stroke-miterlimit="10" stroke-linecap="square"/>
<path d="M386.122 758.72C295.352 758.72 314.122 872.96 313.252 1000H363.322" stroke="#592D3D" stroke-width="12" stroke-miterlimit="10" stroke-linecap="square"/>
<path d="M380.531 758.82L613.761 758.72" stroke="#592D3D" stroke-width="12" stroke-miterlimit="10"/>
<path d="M380.532 1070H497.152C388.002 1070 396.242 838.82 367.262 838.82V1056.68C367.257 1058.43 367.596 1060.16 368.26 1061.77C368.925 1063.39 369.901 1064.86 371.134 1066.09C372.366 1067.33 373.831 1068.31 375.444 1068.98C377.056 1069.65 378.785 1070 380.532 1070Z" fill="#F3AB98"/>
<path d="M361.259 860.85C361.069 857.18 361.149 853.51 361.309 849.85C361.469 846.19 361.779 842.5 362.169 838.85C362.369 837.01 362.569 835.18 362.819 833.34C363.069 831.5 363.309 829.67 363.669 827.83C364.378 824.022 365.585 820.324 367.259 816.83C368.933 820.324 370.14 824.022 370.849 827.83C371.209 829.67 371.469 831.5 371.699 833.34C371.929 835.18 372.149 837.01 372.349 838.85C372.729 842.52 373.029 846.19 373.199 849.85C373.369 853.51 373.449 857.19 373.259 860.85H361.259Z" fill="#592D3D"/>
<path d="M632.742 870V878C633.002 912 633.002 947 632.742 980.75C632.742 983.62 632.742 986.47 632.742 989.28V1056.69C632.746 1058.44 632.405 1060.16 631.74 1061.78C631.075 1063.39 630.099 1064.86 628.866 1066.1C627.634 1067.33 626.17 1068.31 624.558 1068.98C622.946 1069.65 621.217 1070 619.472 1070H380.532C377.011 1070 373.636 1068.6 371.148 1066.11C368.659 1063.62 367.262 1060.24 367.262 1056.72V998.52C367.262 996.01 367.262 993.45 367.262 990.87C367.012 956 367.012 921 367.262 885.57V860.85" stroke="#592D3D" stroke-width="12" stroke-miterlimit="10"/>
<path d="M626.74 870C626.55 865.83 626.64 861.65 626.8 857.47C626.96 853.29 627.27 849.12 627.65 844.94C627.85 842.85 628.06 840.76 628.3 838.67C628.54 836.58 628.79 834.5 629.15 832.41C629.847 828.106 631.052 823.9 632.74 819.88C634.428 823.9 635.633 828.106 636.33 832.41C636.69 834.5 636.95 836.59 637.18 838.67C637.41 840.75 637.63 842.85 637.83 844.94C638.21 849.12 638.52 853.29 638.68 857.47C638.84 861.65 638.93 865.83 638.74 870H626.74Z" fill="#592D3D"/>
<path d="M570.68 842.45C570.9 833 582.9 829 588.9 835C589.875 835.995 590.644 837.173 591.164 838.466C591.684 839.759 591.944 841.141 591.93 842.535C591.915 843.928 591.627 845.305 591.08 846.587C590.534 847.868 589.74 849.03 588.745 850.005C587.749 850.98 586.572 851.75 585.279 852.269C583.986 852.789 582.603 853.05 581.21 853.035C579.817 853.021 578.44 852.732 577.158 852.186C575.876 851.639 574.715 850.845 573.74 849.85C572.766 848.88 571.994 847.727 571.469 846.456C570.944 845.186 570.675 843.825 570.68 842.45Z" fill="#592D3D"/>
<path d="M408.109 842.15C407.899 834 416.899 830 422.899 833C430.899 836 430.899 847 422.899 852C418.899 854 414.899 852 411.149 849.52C410.182 848.552 409.416 847.403 408.894 846.138C408.372 844.873 408.106 843.518 408.109 842.15Z" fill="#592D3D"/>
<path d="M500 831.77C500.715 833.655 501.218 835.614 501.5 837.61C501.797 839.543 501.961 841.494 501.99 843.45L502.29 855.14C502.38 859.03 502.5 862.93 502.54 866.83L502.71 878.5C502.94 894.07 502.93 909.66 502.99 925.24C503.05 940.82 503.17 956.4 502.99 971.98C502.9 979.77 502.69 987.56 502.46 995.35C502.36 999.24 502.17 1003.14 501.79 1007.03C501.45 1010.96 500.859 1014.87 500.02 1018.72C499.181 1014.87 498.59 1010.96 498.25 1007.03C497.87 1003.14 497.68 999.24 497.58 995.35C497.35 987.56 497.14 979.77 497.05 971.98C496.85 956.4 497.05 940.82 497.05 925.24C497.05 909.66 497.05 894.09 497.23 878.51L497.4 866.81L497.73 855.13L498.06 843.45C498.097 841.494 498.264 839.543 498.56 837.61C498.822 835.616 499.305 833.657 500 831.77Z" fill="#F3AB98"/>
<path d="M425.219 883C426.702 882.295 428.272 881.791 429.889 881.5C431.433 881.21 432.998 881.043 434.569 881L443.919 880.67L462.619 880.26C475.079 880.07 487.529 880.02 499.999 879.99C512.469 879.96 524.929 879.83 537.389 879.99C543.619 880.08 549.849 880.29 556.089 880.52C559.199 880.63 562.319 880.82 565.429 881.19C568.587 881.54 571.713 882.135 574.779 882.97C571.715 883.81 568.588 884.402 565.429 884.74C562.319 885.12 559.199 885.31 556.089 885.41C549.849 885.64 543.619 885.84 537.389 885.93C524.929 886.12 512.469 885.93 499.999 885.93C487.529 885.93 475.069 885.93 462.599 885.78C456.369 885.72 450.139 885.52 443.919 885.28L434.569 884.94C433.001 884.898 431.44 884.731 429.899 884.44C428.282 884.17 426.708 883.686 425.219 883Z" fill="#F3AB98"/>
<path d="M442.41 914.38C443.591 913.817 444.853 913.442 446.15 913.27C447.349 913.101 448.561 913.05 449.77 913.12C452.16 913.22 454.55 913.28 456.94 913.33C461.72 913.44 466.5 913.48 471.28 913.5C480.91 913.5 490.37 913.58 500.04 913.29C509.71 913 519.3 912.86 528.92 912.9C533.73 912.9 538.54 913.03 543.34 913.14C545.757 913.172 548.17 913.329 550.57 913.61C553.037 913.882 555.472 914.395 557.84 915.14C555.528 916.048 553.129 916.718 550.68 917.14C548.296 917.569 545.888 917.857 543.47 918C538.65 918.35 533.83 918.65 529.02 918.82C519.38 919.18 509.75 919.14 500.14 919.27C495.33 919.27 490.53 919.49 485.66 919.37C480.79 919.25 475.97 919.24 471.14 919.06C466.31 918.88 461.46 918.48 456.64 917.98C454.22 917.71 451.82 917.41 449.41 917.08C448.193 916.931 446.996 916.649 445.84 916.24C444.599 915.82 443.439 915.191 442.41 914.38Z" fill="#F3AB98"/>
<path d="M438.93 949.87C440.116 949.172 441.405 948.666 442.75 948.37C444.003 948.079 445.283 947.914 446.57 947.88L454.2 947.56C459.29 947.38 464.39 947.23 469.48 947.15C479.66 947 489.84 947 500 947C510.16 947 520.36 946.83 530.54 947C535.63 947.09 540.72 947.3 545.81 947.53C548.363 947.616 550.91 947.836 553.44 948.19C556.045 948.547 558.61 949.154 561.1 950C558.618 950.831 556.063 951.423 553.47 951.77C550.937 952.132 548.387 952.356 545.83 952.44C540.74 952.67 535.65 952.88 530.56 952.97C520.38 953.17 510.19 953.03 500.01 952.97C489.83 952.91 479.65 952.91 469.47 952.72C464.38 952.62 459.28 952.44 454.19 952.23L446.56 951.86C445.273 951.821 443.993 951.653 442.74 951.36C441.398 951.07 440.112 950.567 438.93 949.87Z" fill="#F3AB98"/>
<path d="M547.85 847.98L505.72 813.61L580.35 758.82H419.65L494.28 813.61L452.15 847.98L414.52 791.48V869.96H588.78V786.52L547.85 847.98Z" fill="#F3AB98"/>
<path d="M616.662 758.16L573.932 758.26C573.711 762.777 573.234 767.277 572.502 771.74C572.032 773.882 571.451 775.998 570.762 778.08C568.422 784.57 553.502 790.08 549.272 794.81C547.871 796.383 546.368 797.863 544.772 799.24C519.602 817.44 479.602 818.44 455.292 798.66C452.671 796.371 450.288 793.821 448.182 791.05C443.952 785.49 431.782 779.46 430.082 772.11C429.6 769.935 429.24 767.735 429.002 765.52C428.761 763.261 428.641 760.991 428.642 758.72L383.432 758.16C379.912 758.16 376.536 759.558 374.046 762.046C371.555 764.534 370.155 767.91 370.152 771.43V1056.12C370.155 1059.64 371.555 1063.02 374.046 1065.5C376.536 1067.99 379.912 1069.39 383.432 1069.39H622.362C625.882 1069.39 629.257 1067.99 631.746 1065.5C634.234 1063.01 635.632 1059.64 635.632 1056.12V778C635.632 765.82 629.752 758.16 616.662 758.16Z" fill="white"/>
<path d="M612.84 758.16C676.38 758.16 701.36 801.55 691.74 1030.16C673 1036.86 635.83 1034.75 635.83 1034.75L612.84 758.16Z" fill="white"/>
<path d="M451.062 855.4L499.513 831.31L548.093 855.4L511.033 812.38L467.143 813.21L451.062 855.4Z" fill="#E2E2E2"/>
<path d="M635.632 831.31C635.632 831.31 612.842 915.85 616.322 1065.31L649.532 1034.31L653.112 896.73C647.492 824.5 635.632 831.31 635.632 831.31Z" fill="#E2E2E2"/>
<path d="M389.002 758.16C327.222 758.16 300.122 814.61 308.252 1003.64C330.672 1013.55 364.442 1009.22 364.442 1009.22L389.002 758.16Z" fill="white"/>
<path d="M306.941 957.49C307.115 971.13 307.518 985.623 308.151 1000.97C323.421 1001.7 351.841 1001.85 365.261 1000.97L369.441 958.16C358.671 956.9 323.661 956.49 306.941 957.49Z" fill="#E2E2E2"/>
<path d="M370.12 831.31L369.62 1009L356.27 1009.9C353.3 860.85 370.12 831.31 370.12 831.31Z" fill="#E2E2E2"/>
<path d="M612.84 758.16C680.26 758.16 691.29 814.44 691.74 891.94V1030.16C691.74 1030.16 641.74 1035.69 635.83 1034.75L635.73 892.64" stroke="#592D3D" stroke-width="12" stroke-miterlimit="10" stroke-linecap="square"/>
<path d="M388.999 758.16C363.269 758.16 345.479 766.28 333.289 780.6C313.839 803.47 308.659 842.14 308.289 888.87V1012.64C320.349 1015.96 369.649 1009 369.649 1009L370.139 890.4" stroke="#592D3D" stroke-width="12" stroke-miterlimit="10" stroke-linecap="square"/>
<path d="M372.602 1011.24C370.772 1013.85 298.832 1013.16 297.932 1011.24C297.032 1009.32 295.742 973.74 297.932 970.24C299.732 967.36 370.042 967.97 372.602 970.24C375.162 972.51 374.432 1008.63 372.602 1011.24Z" fill="white" stroke="#592D3D" stroke-width="12" stroke-miterlimit="10" stroke-linecap="square"/>
<path d="M383.429 1069.39H499.999C390.809 1069.39 399.089 838.25 370.109 838.25V1056.12C370.111 1057.87 370.456 1059.6 371.127 1061.21C371.797 1062.82 372.779 1064.29 374.017 1065.52C375.254 1066.75 376.722 1067.73 378.337 1068.39C379.953 1069.06 381.683 1069.4 383.429 1069.39Z" fill="#E2E2E2"/>
<path d="M364.149 860.29C363.959 856.62 364.039 852.94 364.209 849.29C364.379 845.64 364.679 841.95 365.059 838.29C365.259 836.46 365.469 834.62 365.709 832.78C365.949 830.94 366.199 829.11 366.559 827.28C367.267 823.471 368.474 819.773 370.149 816.28C371.824 819.773 373.031 823.471 373.739 827.28C374.099 829.11 374.359 830.95 374.589 832.78C374.819 834.61 375.039 836.46 375.239 838.29C375.626 841.97 375.912 845.637 376.099 849.29C376.259 852.96 376.339 856.64 376.099 860.29H364.149Z" fill="#592D3D"/>
<path d="M635.632 869.4V877.4C635.892 911.4 635.892 946.4 635.632 980.16C635.632 983.03 635.632 985.88 635.632 988.69V1056.1C635.632 1059.62 634.234 1062.99 631.745 1065.48C629.257 1067.97 625.881 1069.37 622.362 1069.37H383.432C379.912 1069.37 376.535 1067.97 374.045 1065.48C371.555 1063 370.155 1059.62 370.152 1056.1V990.3C369.892 955.44 369.892 920.44 370.152 885V860.29" stroke="#592D3D" stroke-width="12" stroke-miterlimit="10"/>
<path d="M697.422 970.24C699.642 972.5 699.012 1008.63 697.422 1011.24C695.832 1013.85 633.422 1013.16 632.652 1011.24C631.882 1009.32 630.752 973.74 632.652 970.24C632.922 969.74 634.932 969.35 638.102 969.06" fill="white"/>
<path d="M697.422 970.24C699.642 972.5 699.012 1008.63 697.422 1011.24C695.832 1013.85 633.422 1013.16 632.652 1011.24C631.882 1009.32 630.752 973.74 632.652 970.24C632.922 969.74 634.932 969.35 638.102 969.06" stroke="#592D3D" stroke-width="12" stroke-miterlimit="10" stroke-linecap="square"/>
<path d="M678.922 968.3C679.504 967.543 680.132 966.821 680.802 966.14C681.347 965.595 681.943 965.102 682.582 964.67C683.157 964.288 683.762 963.954 684.392 963.67C685.002 963.38 685.612 963.13 686.222 962.88C687.451 962.383 688.718 961.988 690.012 961.7C690.671 961.554 691.339 961.451 692.012 961.39C692.372 961.39 692.742 961.39 693.182 961.39C693.432 961.39 693.642 961.39 694.002 961.39C694.122 961.39 694.442 961.39 694.712 961.46H695.062L695.552 961.57L695.802 961.63L696.002 961.69L696.572 961.9C697.319 962.226 697.998 962.691 698.572 963.27L702.772 967.56L694.122 976.04L690.002 971.67C690.542 972.236 691.192 972.685 691.912 972.99C692.092 973.07 692.272 973.13 692.452 973.19H692.622L692.812 973.24C692.936 973.281 693.063 973.311 693.192 973.33H693.382C693.482 973.33 693.642 973.33 693.602 973.33C693.562 973.33 693.532 973.33 693.452 973.33H692.702C692.132 973.33 691.512 973.33 690.882 973.33C689.564 973.252 688.253 973.075 686.962 972.8C686.292 972.65 685.622 972.5 684.962 972.31C684.276 972.127 683.607 971.886 682.962 971.59C682.217 971.237 681.518 970.794 680.882 970.27C680.121 969.73 679.458 969.064 678.922 968.3Z" fill="#592D3D"/>
<path d="M592.51 763.64L517.84 818.45L559.98 852.83L619.4 763.59L592.51 763.64Z" fill="#E2E2E2"/>
<path d="M629.63 869.4C629.44 865.22 629.53 861.04 629.69 856.87C629.85 852.7 630.16 848.51 630.55 844.34C630.75 842.25 630.95 840.16 631.19 838.07C631.43 835.98 631.68 833.89 632.05 831.8C632.741 827.496 633.943 823.29 635.63 819.27C637.325 823.288 638.531 827.494 639.22 831.8C639.58 833.89 639.85 835.98 640.07 838.07C640.29 840.16 640.52 842.25 640.72 844.34C641.11 848.51 641.41 852.69 641.57 856.87C641.73 861.05 641.83 865.22 641.63 869.4H629.63Z" fill="#592D3D"/>
<path d="M383.43 758.26L616.66 758.16" stroke="#592D3D" stroke-width="12" stroke-miterlimit="10"/>
<path d="M529.389 835.55L507.039 813.21L484.699 835.55L495.679 846.53L485.959 953.16L506.699 969.33L528.119 953.16L518.409 846.53L529.389 835.55Z" fill="#E2E2E2"/>
<path d="M500.039 813.21V1069.39" stroke="#592D3D" stroke-width="6" stroke-miterlimit="10" stroke-linecap="square"/>
<path d="M500.039 813.21L522.389 828.55L500.039 850.9L477.699 828.55L500.039 813.21Z" fill="#85C5E5"/>
<path d="M419.619 758.8C419.619 758.8 462.889 798.14 494.279 813.61C478.999 838.82 452.149 848 452.149 848L392.719 758.77L419.619 758.8Z" fill="white" stroke="#592D3D" stroke-width="12" stroke-miterlimit="10"/>
<path d="M580.379 758.8C580.379 758.8 540.999 800 505.719 813.61C515.719 833.89 547.849 847.98 547.849 847.98L607.279 758.75L580.379 758.8Z" fill="white" stroke="#592D3D" stroke-width="12" stroke-miterlimit="10"/>
<path d="M500 890.85C488.317 890.85 476.896 894.314 467.182 900.805C457.468 907.296 449.897 916.521 445.426 927.315C440.955 938.109 439.785 949.986 442.065 961.444C444.344 972.902 449.97 983.428 458.231 991.689C466.492 999.95 477.017 1005.58 488.476 1007.85C499.934 1010.13 511.811 1008.96 522.605 1004.49C533.398 1000.02 542.624 992.452 549.115 982.738C555.605 973.024 559.07 961.603 559.07 949.92C559.025 934.267 552.787 919.269 541.719 908.201C530.651 897.133 515.652 890.895 500 890.85ZM467.09 982.85C458.545 974.353 453.695 962.83 453.59 950.78L499.59 996.35C487.76 995.91 476 991.69 467.09 982.83V982.85ZM510.09 995.08L454.86 939.8C456.796 931.099 461.2 923.14 467.544 916.877C473.887 910.614 481.901 906.312 490.626 904.487C499.352 902.662 508.418 903.39 516.74 906.584C525.062 909.779 532.287 915.305 537.55 922.5L531.22 928C527.627 923.08 522.932 919.07 517.51 916.292C512.089 913.513 506.092 912.043 500 912C492.152 912.046 484.507 914.497 478.095 919.023C471.683 923.548 466.812 929.931 464.14 937.31L512.66 985.83C518.712 983.681 524.126 980.042 528.403 975.25C532.679 970.458 535.68 964.667 537.13 958.41H516.88V949.97H546.41C546.341 960.478 542.718 970.653 536.131 978.84C529.543 987.027 520.379 992.744 510.13 995.06L510.09 995.08Z" stroke="white" stroke-width="16"/>
<path d="M500 890.85C488.317 890.85 476.896 894.314 467.182 900.805C457.468 907.296 449.897 916.521 445.426 927.315C440.955 938.109 439.785 949.986 442.065 961.444C444.344 972.902 449.97 983.428 458.231 991.689C466.492 999.95 477.017 1005.58 488.476 1007.85C499.934 1010.13 511.811 1008.96 522.605 1004.49C533.398 1000.02 542.624 992.452 549.115 982.738C555.605 973.024 559.07 961.603 559.07 949.92C559.025 934.267 552.787 919.269 541.719 908.201C530.651 897.133 515.652 890.895 500 890.85ZM467.09 982.85C458.545 974.353 453.695 962.83 453.59 950.78L499.59 996.35C487.76 995.91 476 991.69 467.09 982.83V982.85ZM510.09 995.08L454.86 939.8C456.796 931.099 461.2 923.14 467.544 916.877C473.887 910.614 481.901 906.312 490.626 904.487C499.352 902.662 508.418 903.39 516.74 906.584C525.062 909.779 532.287 915.305 537.55 922.5L531.22 928C527.627 923.08 522.932 919.07 517.51 916.292C512.089 913.513 506.092 912.043 500 912C492.152 912.046 484.507 914.497 478.095 919.023C471.683 923.548 466.812 929.931 464.14 937.31L512.66 985.83C518.712 983.681 524.126 980.042 528.403 975.25C532.679 970.458 535.68 964.667 537.13 958.41H516.88V949.97H546.41C546.341 960.478 542.718 970.653 536.131 978.84C529.543 987.027 520.379 992.744 510.13 995.06L510.09 995.08Z" fill="#663795"/>
<path d="M478.961 946.16L499.701 962.33L521.121 946.16L511.121 836.38H488.961L478.961 946.16Z" fill="#85C5E5"/>
<path d="M477.699 828.55L488.679 839.53L478.959 946.16L499.699 962.33L521.119 946.16L511.409 839.53L522.389 828.55" stroke="#592D3D" stroke-width="8" stroke-miterlimit="10"/>
<path d="M637.54 963.08C640.468 962.667 643.425 962.51 646.38 962.61C649.28 962.68 652.16 962.91 655.04 963.26C656.47 963.44 657.91 963.63 659.34 963.87C660.784 964.081 662.215 964.365 663.63 964.72C666.65 965.455 669.524 966.696 672.13 968.39C669.486 969.986 666.613 971.167 663.61 971.89C662.2 972.25 660.79 972.52 659.38 972.75C657.97 972.98 656.57 973.22 655.17 973.44C652.37 973.86 649.58 974.22 646.82 974.44C644.06 974.66 641.3 974.94 638.66 974.98L632.66 975.08L631.66 963.95L637.54 963.08Z" fill="#592D3D"/>
<path d="M490.89 836.19L490.96 836.24C491.021 836.273 491.078 836.313 491.13 836.36L491.51 836.65C491.76 836.86 492.03 837.07 492.29 837.3C492.82 837.75 493.38 838.23 493.99 838.69C494.6 839.15 495.26 839.59 495.99 840.11C496.943 840.827 497.848 841.605 498.7 842.44C497.987 843.604 496.874 844.468 495.57 844.87C494.367 845.205 493.109 845.296 491.87 845.14C490.612 845.018 489.384 844.679 488.24 844.14C487.658 843.862 487.105 843.527 486.59 843.14C486.322 842.945 486.065 842.734 485.82 842.51C485.7 842.4 485.57 842.28 485.45 842.15L485.25 841.94L485 841.65L490.89 836.19Z" fill="#592D3D"/>
<path opacity="0.15" d="M664.05 702.32C692.36 679.32 718.46 647.6 734.73 616.22C734.67 616.12 731.24 619.6 731.18 619.5C731.12 619.4 710.11 638.28 649.66 638C573.36 637.69 589.12 616.32 497.15 616.32C415.73 616.32 428.66 628.21 352 632.47C289.91 635.92 268.38 619.47 268.38 619.47L268.18 619.8C279.042 640.719 292.686 660.071 308.74 677.33C313.06 681.98 317.6 686.51 322.22 690.81C327.107 695.407 332.231 699.746 337.57 703.81C342.75 707.76 348.24 711.53 353.9 715.02C375.61 727.02 400.38 736.16 427.53 742.15C434.02 743.58 440.53 744.79 446.84 745.75C512.65 751.6 587.92 752.45 647.58 714.63C653.21 710.78 658.75 706.63 664.05 702.32Z" fill="black"/>
<path d="M311.512 663.32C313.821 663.32 315.692 661.449 315.692 659.14C315.692 656.831 313.821 654.96 311.512 654.96C309.204 654.96 307.332 656.831 307.332 659.14C307.332 661.449 309.204 663.32 311.512 663.32Z" fill="#592D3D"/>
<path d="M338.511 666.28C340.146 666.28 341.471 664.955 341.471 663.32C341.471 661.685 340.146 660.36 338.511 660.36C336.876 660.36 335.551 661.685 335.551 663.32C335.551 664.955 336.876 666.28 338.511 666.28Z" fill="#592D3D"/>
<path d="M401.05 710.94C402.685 710.94 404.01 709.615 404.01 707.98C404.01 706.345 402.685 705.02 401.05 705.02C399.415 705.02 398.09 706.345 398.09 707.98C398.09 709.615 399.415 710.94 401.05 710.94Z" fill="#592D3D"/>
<path d="M506.831 714.27C508.466 714.27 509.791 712.945 509.791 711.31C509.791 709.675 508.466 708.35 506.831 708.35C505.196 708.35 503.871 709.675 503.871 711.31C503.871 712.945 505.196 714.27 506.831 714.27Z" fill="#592D3D"/>
<path d="M517.632 707.46C519.267 707.46 520.592 706.135 520.592 704.5C520.592 702.865 519.267 701.54 517.632 701.54C515.997 701.54 514.672 702.865 514.672 704.5C514.672 706.135 515.997 707.46 517.632 707.46Z" fill="#592D3D"/>
<path d="M578.331 704.5C579.966 704.5 581.291 703.175 581.291 701.54C581.291 699.905 579.966 698.58 578.331 698.58C576.696 698.58 575.371 699.905 575.371 701.54C575.371 703.175 576.696 704.5 578.331 704.5Z" fill="#592D3D"/>
<path d="M581.292 686.11C582.927 686.11 584.252 684.785 584.252 683.15C584.252 681.515 582.927 680.19 581.292 680.19C579.657 680.19 578.332 681.515 578.332 683.15C578.332 684.785 579.657 686.11 581.292 686.11Z" fill="#592D3D"/>
<path d="M391.69 696.09C394.656 696.09 397.06 693.686 397.06 690.72C397.06 687.754 394.656 685.35 391.69 685.35C388.725 685.35 386.32 687.754 386.32 690.72C386.32 693.686 388.725 696.09 391.69 696.09Z" fill="#592D3D"/>
<path d="M600.442 709.54C601.596 709.54 602.532 708.604 602.532 707.45C602.532 706.296 601.596 705.36 600.442 705.36C599.287 705.36 598.352 706.296 598.352 707.45C598.352 708.604 599.287 709.54 600.442 709.54Z" fill="#592D3D"/>
<path d="M642.961 700.26C645.27 700.26 647.141 698.389 647.141 696.08C647.141 693.771 645.27 691.9 642.961 691.9C640.653 691.9 638.781 693.771 638.781 696.08C638.781 698.389 640.653 700.26 642.961 700.26Z" fill="#592D3D"/>
<path d="M462.559 728.22C464.867 728.22 466.739 726.349 466.739 724.04C466.739 721.731 464.867 719.86 462.559 719.86C460.25 719.86 458.379 721.731 458.379 724.04C458.379 726.349 460.25 728.22 462.559 728.22Z" fill="#592D3D"/>
<path d="M642.96 666.18C644.595 666.18 645.92 664.855 645.92 663.22C645.92 661.585 644.595 660.26 642.96 660.26C641.325 660.26 640 661.585 640 663.22C640 664.855 641.325 666.18 642.96 666.18Z" fill="#592D3D"/>
<path d="M654.05 676.02C655.685 676.02 657.01 674.695 657.01 673.06C657.01 671.425 655.685 670.1 654.05 670.1C652.415 670.1 651.09 671.425 651.09 673.06C651.09 674.695 652.415 676.02 654.05 676.02Z" fill="#592D3D"/>
<path d="M271.401 576.82C270.401 548.46 289.401 524.46 314.681 513.26C317.336 512.173 320.062 511.271 322.841 510.56C336.851 507.08 351.594 508.016 365.051 513.24C368.126 514.419 371.117 515.809 374.001 517.4C403.531 533.28 416.791 570.65 405.361 600.86C404.203 603.906 402.805 606.855 401.181 609.68C397.193 617.988 391.17 625.153 383.671 630.51C381.169 632.351 378.547 634.021 375.821 635.51C348.441 648.51 311.441 644.51 289.371 624.11C287.163 621.765 285.122 619.269 283.261 616.64C281.139 613.637 279.275 610.459 277.691 607.14C274.338 600.351 272.402 592.951 272.001 585.39C271.639 582.547 271.439 579.686 271.401 576.82Z" fill="#F3AB98"/>
<path d="M269.772 558.47C268.772 530.11 287.772 506.11 313.052 494.91C315.703 493.823 318.427 492.921 321.202 492.21C335.215 488.728 349.962 489.664 363.422 494.89C366.487 496.07 369.468 497.46 372.342 499.05C401.872 514.94 415.132 552.3 403.702 582.51C402.552 585.559 401.154 588.509 399.522 591.33C398.14 594.039 396.566 596.645 394.812 599.13C393.084 601.592 391.186 603.931 389.132 606.13C386.912 608.327 384.532 610.356 382.012 612.2C379.512 614.043 376.889 615.714 374.162 617.2C346.782 630.2 309.782 626.2 287.722 605.8C285.509 603.46 283.467 600.963 281.612 598.33C279.487 595.327 277.62 592.149 276.032 588.83C272.656 582.02 270.713 574.591 270.322 567C269.968 564.17 269.785 561.322 269.772 558.47Z" fill="white"/>
<path d="M338.51 571.32C345.27 571.32 350.75 565.84 350.75 559.08C350.75 552.32 345.27 546.84 338.51 546.84C331.75 546.84 326.27 552.32 326.27 559.08C326.27 565.84 331.75 571.32 338.51 571.32Z" fill="#592D3D"/>
<path d="M339.2 490.12C330.2 490.109 321.287 491.876 312.972 495.32C304.658 498.765 297.105 503.818 290.75 510.19C288.265 512.68 285.972 515.354 283.89 518.19C279.586 523.79 276.117 529.985 273.59 536.58H403.92C400.54 524.711 393.499 514.211 383.8 506.58C381.799 504.865 379.702 503.266 377.52 501.79C366.202 494.153 352.853 490.087 339.2 490.12Z" fill="#FDD2B2" stroke="#592D3D" stroke-width="8" stroke-miterlimit="10"/>
<path d="M274.09 581.45C279.59 595.2 289.39 607.38 302.01 614.77C305.259 616.612 308.654 618.184 312.16 619.47C336.79 628.56 367.16 624.54 386.65 607.86C389.268 605.51 391.705 602.966 393.94 600.25C395.623 598.222 397.161 596.076 398.54 593.83C400.54 589.853 402.192 585.711 403.48 581.45H274.09Z" fill="#FDD2B2" stroke="#592D3D" stroke-width="8" stroke-miterlimit="10"/>
<path d="M269.772 558.47C268.772 530.11 287.772 506.11 313.052 494.91C315.703 493.823 318.427 492.921 321.202 492.21C335.215 488.728 349.962 489.664 363.422 494.89C366.487 496.07 369.468 497.46 372.342 499.05C401.872 514.94 415.132 552.3 403.702 582.51C402.552 585.559 401.154 588.509 399.522 591.33C398.14 594.039 396.566 596.645 394.812 599.13C393.084 601.592 391.186 603.931 389.132 606.13C386.912 608.327 384.532 610.356 382.012 612.2C379.512 614.043 376.889 615.714 374.162 617.2C346.782 630.2 309.782 626.2 287.722 605.8C285.509 603.46 283.467 600.963 281.612 598.33C279.487 595.327 277.62 592.149 276.032 588.83C272.656 582.02 270.713 574.591 270.322 567C269.968 564.17 269.785 561.322 269.772 558.47Z" stroke="#592D3D" stroke-width="12" stroke-miterlimit="10"/>
<path d="M583.892 568.76C584.322 553.63 590.562 538.67 598.992 527.43C601.144 524.409 603.524 521.558 606.112 518.9C617.618 506.92 633.023 499.44 649.554 497.809C666.085 496.177 682.655 500.5 696.282 510C698.553 511.585 700.734 513.298 702.812 515.13C729.812 536.58 732.932 578.27 718.132 608.36C716.694 610.751 715.097 613.043 713.352 615.22C711.038 618.121 708.504 620.839 705.772 623.35C685.502 641.18 653.962 645.48 628.362 635.77C624.714 634.394 621.186 632.722 617.812 630.77C599.912 619.99 587.442 599.68 584.382 578.54C583.964 575.298 583.801 572.028 583.892 568.76Z" fill="#F3AB98"/>
<path d="M589.379 557.26C589.799 543.11 595.799 529.11 603.899 518.6C605.983 515.766 608.276 513.092 610.759 510.6C622.006 499.356 636.812 492.373 652.642 490.846C668.472 489.319 684.34 493.343 697.529 502.23C699.711 503.707 701.808 505.306 703.809 507.02C729.809 527.09 732.809 566.09 718.549 594.24C717.167 596.485 715.63 598.63 713.949 600.66C711.716 603.375 709.279 605.916 706.659 608.26C687.149 625 656.799 629 632.169 619.9C628.657 618.609 625.255 617.034 621.999 615.19C604.779 605.11 592.779 586.11 589.829 566.34C589.435 563.33 589.284 560.294 589.379 557.26Z" fill="white"/>
<path d="M659.209 571.32C665.969 571.32 671.449 565.84 671.449 559.08C671.449 552.32 665.969 546.84 659.209 546.84C652.449 546.84 646.969 552.32 646.969 559.08C646.969 565.84 652.449 571.32 659.209 571.32Z" fill="#592D3D"/>
<path d="M659.212 490.55C650.212 490.539 641.299 492.306 632.984 495.75C624.669 499.195 617.117 504.248 610.762 510.62C608.279 513.112 605.986 515.786 603.902 518.62C599.601 524.219 596.132 530.409 593.602 537H723.932C720.549 525.132 713.508 514.633 703.812 507C701.81 505.286 699.714 503.687 697.532 502.21C686.213 494.576 672.864 490.514 659.212 490.55Z" fill="#FDD2B2" stroke="#592D3D" stroke-width="8" stroke-miterlimit="10"/>
<path d="M594.102 581.87C599.612 595.63 609.402 607.81 622.022 615.19C625.271 617.033 628.666 618.608 632.172 619.9C656.802 628.99 687.172 624.96 706.662 608.28C709.282 605.936 711.719 603.396 713.952 600.68C715.633 598.65 717.17 596.505 718.552 594.26C720.557 590.282 722.21 586.136 723.492 581.87H594.102Z" fill="#FDD2B2" stroke="#592D3D" stroke-width="8" stroke-miterlimit="10"/>
<path d="M589.379 557.26C589.799 543.11 595.799 529.11 603.899 518.6C605.983 515.766 608.276 513.092 610.759 510.6C622.006 499.356 636.812 492.373 652.642 490.846C668.472 489.319 684.34 493.343 697.529 502.23C699.711 503.707 701.808 505.306 703.809 507.02C729.809 527.09 732.809 566.09 718.549 594.24C717.167 596.485 715.63 598.63 713.949 600.66C711.716 603.375 709.279 605.916 706.659 608.26C687.149 625 656.799 629 632.169 619.9C628.657 618.609 625.255 617.034 621.999 615.19C604.779 605.11 592.779 586.11 589.829 566.34C589.435 563.33 589.284 560.294 589.379 557.26Z" stroke="#592D3D" stroke-width="12" stroke-miterlimit="10"/>
<path d="M446.66 606.02H542.53" stroke="#592D3D" stroke-width="12" stroke-miterlimit="10" stroke-linecap="round"/>
<path d="M500.001 233.25C364.301 233.25 252.271 334.58 235.441 465.7C265.17 437.721 289.021 404.095 305.601 366.79C369.465 380.73 434.634 387.82 500.001 387.94C565.377 387.975 630.562 380.883 694.401 366.79C710.982 404.095 734.833 437.721 764.561 465.7C747.731 334.58 635.701 233.25 500.001 233.25Z" fill="#85C5E5"/>
<path d="M305.6 366.79C316.226 369.09 326.916 371.207 337.67 373.14C348.28 337.74 364.9 299.26 388.8 257.48C387.47 258.1 386.14 258.72 384.8 259.35L384.63 259.43C383.32 260.06 382.01 260.7 380.71 261.36L380.12 261.65C378.9 262.26 377.68 262.89 376.47 263.53L375.47 264.06C371.71 266.06 367.99 268.13 364.34 270.29L363.54 270.76L363.4 270.85C362.246 271.517 361.106 272.207 359.98 272.92L359.11 273.46C355.536 275.693 352.02 278.003 348.56 280.39L347.48 281.14C346.48 281.85 345.48 282.56 344.48 283.28L343.77 283.8L343.62 283.9C341.44 285.493 339.286 287.107 337.16 288.74L336.54 289.22C335.54 290 334.54 290.8 333.54 291.61L332.37 292.55L329.96 294.55L329.18 295.2C327.13 296.91 325.12 298.65 323.12 300.42L321.98 301.42L319.29 303.87L318 305C315.146 307.667 312.356 310.39 309.63 313.17L308.63 314.17C308.41 314.39 308.2 314.61 307.99 314.84C307.29 315.56 306.6 316.28 305.91 317.01C305.45 317.5 304.99 318.01 304.54 318.49C303.166 319.957 301.813 321.443 300.48 322.95L300 323.5C299.69 323.85 299.37 324.2 299.06 324.56L297 327C296.89 327.14 296.78 327.27 296.66 327.4L295.46 328.83C294.85 329.55 294.25 330.28 293.65 331.01C293.26 331.48 292.87 332.01 292.48 332.45L291.82 333.27C290.76 334.603 289.716 335.937 288.69 337.27L288.62 337.36C288.09 338.04 287.57 338.72 287.05 339.41C286.65 339.93 286.26 340.46 285.88 340.98L284.88 342.31L283.66 343.99L282.66 345.34L281.25 347.34C280.68 348.15 280.12 348.96 279.56 349.78C279 350.6 278.45 351.42 277.91 352.24L277.66 352.6L276.14 354.91L274.4 357.63C273.88 358.46 273.4 359.29 272.85 360.12C272.28 361.04 271.71 361.96 271.15 362.89C270.59 363.82 270.15 364.57 269.67 365.41C269.19 366.25 268.75 366.97 268.31 367.75L267.74 368.75L266.61 370.75C266.19 371.52 265.76 372.28 265.35 373.05C265.21 373.3 265.07 373.55 264.94 373.8C264.52 374.58 264.1 375.37 263.69 376.16C263.28 376.95 263.01 377.45 262.69 378.1L261.85 379.73L260.92 381.61C260.53 382.39 260.14 383.16 259.76 383.95L258.94 385.66L258.64 386.31C258.2 387.23 257.77 388.16 257.34 389.09L256.62 390.68C256.21 391.59 255.81 392.51 255.41 393.43L254.41 395.77C253.96 396.84 253.53 397.91 253.09 398.98C252.77 399.75 252.46 400.51 252.15 401.28C252.04 401.54 251.94 401.81 251.84 402.08C251.49 402.96 251.15 403.85 250.84 404.74C250.53 405.63 250.23 406.31 249.94 407.1L249.78 407.53C249.4 408.53 249.04 409.53 248.68 410.59C248.32 411.65 248.04 412.38 247.68 413.28C247.31 414.36 246.95 415.43 246.6 416.51C246.3 417.42 246 418.33 245.71 419.24C245.36 420.33 245.03 421.41 244.71 422.5C244.43 423.42 244.16 424.34 243.89 425.27C243.57 426.36 243.25 427.46 242.95 428.56C242.69 429.48 242.44 430.41 242.2 431.34C241.9 432.45 241.61 433.56 241.33 434.68C241.09 435.6 240.87 436.54 240.65 437.47C240.38 438.59 240.11 439.72 239.85 440.84C239.64 441.77 239.44 442.71 239.24 443.64C239 444.78 238.75 445.93 238.51 447.08C238.33 447.99 238.16 448.9 237.99 449.82C237.82 450.74 237.6 451.82 237.42 452.82L237.24 453.82L236.91 455.82C236.73 456.91 236.54 458.01 236.37 459.11C236.37 459.32 236.3 459.53 236.27 459.74C235.97 461.74 235.69 463.74 235.43 465.74C265.166 437.75 289.021 404.111 305.6 366.79Z" fill="#67B7D6"/>
<path d="M500.001 233.25C364.301 233.25 252.271 334.58 235.441 465.7C265.17 437.721 289.021 404.095 305.601 366.79C369.465 380.73 434.634 387.82 500.001 387.94C565.377 387.975 630.562 380.883 694.401 366.79C710.982 404.095 734.833 437.721 764.561 465.7C747.731 334.58 635.701 233.25 500.001 233.25Z" stroke="#592D3D" stroke-width="12" stroke-miterlimit="10"/>
<path d="M506.21 250.1C493.64 251.78 481.27 253.48 469.05 255.86C456.83 258.24 444.76 261.04 432.87 264.5C420.98 267.96 409.25 271.98 397.69 276.57C386.13 281.16 374.74 286.3 363.23 291.62C373.043 283.523 383.733 276.552 395.1 270.84C417.914 259.26 442.701 252.071 468.17 249.65C480.828 248.399 493.586 248.55 506.21 250.1Z" fill="white"/>
<path d="M427.29 501.13L414.29 496.74L383.09 486.2L345.49 473.49L313 462.49C307.73 460.71 302.49 458.81 297.19 457.15L296.97 457.07C294.412 456.365 291.678 456.704 289.371 458.014C287.063 459.324 285.37 461.497 284.665 464.055C283.959 466.613 284.299 469.347 285.609 471.654C286.919 473.962 289.092 475.655 291.65 476.36L304.65 480.75L335.85 491.29L373.45 503.99L405.94 514.99C411.2 516.77 416.44 518.66 421.75 520.33L421.97 520.41C423.236 520.759 424.559 520.856 425.863 520.694C427.167 520.532 428.426 520.115 429.569 519.466C430.712 518.817 431.715 517.95 432.523 516.914C433.33 515.877 433.925 514.692 434.275 513.425C434.624 512.158 434.721 510.835 434.559 509.532C434.397 508.228 433.979 506.969 433.331 505.826C432.682 504.683 431.815 503.68 430.778 502.872C429.742 502.065 428.556 501.469 427.29 501.12V501.13Z" fill="#592D3D"/>
<path d="M697.181 453.9L684.461 459L653.921 471.31L617.111 486.15L585.301 499C580.141 501.08 574.985 503.16 569.831 505.24L569.611 505.32C567.101 506.32 565.051 507.49 563.611 509.92C562.271 512.256 561.912 515.029 562.611 517.63C563.306 520.152 564.956 522.304 567.211 523.63C569.431 524.81 572.471 525.63 574.911 524.63L587.641 519.5L618.181 507.19L655.001 492.33L686.811 479.51C691.961 477.43 697.131 475.36 702.281 473.27L702.501 473.18C705.011 472.18 707.061 471.01 708.501 468.59C709.166 467.456 709.6 466.201 709.779 464.899C709.958 463.597 709.878 462.272 709.545 461.001C709.211 459.729 708.63 458.536 707.835 457.489C707.04 456.442 706.047 455.562 704.911 454.9C702.691 453.73 699.641 452.9 697.201 453.9H697.181Z" fill="#592D3D"/>
<path opacity="0.2" d="M382.91 628.5C401.6 628.5 416.75 613.349 416.75 594.66C416.75 575.971 401.6 560.82 382.91 560.82C364.221 560.82 349.07 575.971 349.07 594.66C349.07 613.349 364.221 628.5 382.91 628.5Z" fill="white"/>
<path opacity="0.4" d="M375.872 631L419.182 589.26C416.879 584.835 414.352 580.529 411.612 576.36L365.742 620.57C367.642 621.9 373.722 630.08 375.872 631Z" fill="white"/>
<path d="M382.91 628.5C401.6 628.5 416.75 613.349 416.75 594.66C416.75 575.971 401.6 560.82 382.91 560.82C364.221 560.82 349.07 575.971 349.07 594.66C349.07 613.349 364.221 628.5 382.91 628.5Z" stroke="#592D3D" stroke-width="12" stroke-miterlimit="10"/>
<path d="M378 580.47C379.22 584.3 374.5 587.25 371 587.84C367.46 587.84 365.1 585.48 363.92 582.53C363.33 579.58 363.92 576.63 366.28 574.86C369.23 573.68 373.36 572.5 375.98 575.53C376.63 576.176 377.144 576.947 377.491 577.795C377.838 578.644 378.011 579.553 378 580.47Z" fill="white"/>
<path d="M384.322 578.21C384.242 578.735 383.982 579.215 383.587 579.569C383.191 579.923 382.685 580.129 382.155 580.152C381.625 580.174 381.103 580.012 380.68 579.692C380.256 579.373 379.956 578.916 379.832 578.4C379.832 576.63 380.422 576.04 382.102 575.98C382.691 575.98 383.255 576.214 383.672 576.63C384.088 577.047 384.322 577.611 384.322 578.2V578.21Z" fill="white"/>
<path opacity="0.2" d="M615.199 628.5C633.889 628.5 649.039 613.349 649.039 594.66C649.039 575.971 633.889 560.82 615.199 560.82C596.51 560.82 581.359 575.971 581.359 594.66C581.359 613.349 596.51 628.5 615.199 628.5Z" fill="white"/>
<path opacity="0.4" d="M610.122 628.11L648.662 589.57C648.452 588.2 642.752 581.47 642.372 580.13L600.652 621.87C602.002 622.24 608.752 627.91 610.122 628.11Z" fill="white"/>
<path d="M615.199 628.5C633.889 628.5 649.039 613.349 649.039 594.66C649.039 575.971 633.889 560.82 615.199 560.82C596.51 560.82 581.359 575.971 581.359 594.66C581.359 613.349 596.51 628.5 615.199 628.5Z" stroke="#592D3D" stroke-width="12" stroke-miterlimit="10"/>
<path d="M607.36 579.91C608.36 583.16 604.36 585.66 601.36 586.16C598.36 586.16 596.36 584.16 595.36 581.66C594.86 579.16 595.36 576.66 597.36 575.16C599.86 574.16 603.36 573.16 605.59 575.73C606.149 576.274 606.593 576.923 606.897 577.641C607.201 578.359 607.358 579.13 607.36 579.91Z" fill="white"/>
<path d="M612.702 578C612.632 578.442 612.411 578.847 612.077 579.145C611.743 579.443 611.315 579.616 610.868 579.635C610.42 579.654 609.98 579.517 609.622 579.248C609.264 578.979 609.009 578.595 608.902 578.16C608.902 576.66 609.402 576.16 610.822 576.16C611.314 576.16 611.786 576.352 612.138 576.696C612.489 577.04 612.692 577.508 612.702 578Z" fill="white"/>
<path d="M416.742 594.66C472.529 574.66 527.406 574.66 581.372 594.66" stroke="#592D3D" stroke-width="12" stroke-miterlimit="10"/>
<path opacity="0.15" d="M615.202 634.5C605.392 634.486 595.93 630.858 588.625 624.31C581.32 617.761 576.684 608.751 575.602 599C525.602 581.35 474.142 581.36 422.502 599C421.869 604.798 419.97 610.386 416.939 615.369C413.908 620.352 409.819 624.608 404.962 627.837C400.104 631.065 394.596 633.186 388.828 634.051C383.06 634.916 377.173 634.502 371.582 632.84C377.056 635.527 383.095 636.856 389.191 636.718C395.287 636.579 401.26 634.975 406.605 632.042C411.95 629.109 416.512 624.932 419.903 619.865C423.295 614.799 425.418 608.99 426.092 602.93C475.312 586.07 524.372 586.05 572.022 602.93C572.683 608.998 574.797 614.817 578.183 619.895C581.569 624.973 586.129 629.161 591.476 632.104C596.824 635.047 602.801 636.658 608.903 636.802C615.005 636.946 621.052 635.618 626.532 632.93C622.85 633.993 619.034 634.522 615.202 634.5Z" fill="black"/>
</g>
</svg>
