<svg width="1000" height="990" viewBox="0 0 1000 990" fill="none" xmlns="http://www.w3.org/2000/svg">
<mask id="mask0_22_1553" style="mask-type:luminance" maskUnits="userSpaceOnUse" x="0" y="0" width="1000" height="966">
<path d="M1000 0H0V718.31H179.2C217.58 860.69 346.65 965.41 500 965.41C653.35 965.41 782.42 860.69 820.8 718.31H1000V0Z" fill="white"/>
</mask>
<g mask="url(#mask0_22_1553)">
<path d="M500.001 962.602C683.603 962.602 832.443 813.763 832.443 630.16C832.443 446.558 683.603 297.718 500.001 297.718C316.398 297.718 167.559 446.558 167.559 630.16C167.559 813.763 316.398 962.602 500.001 962.602Z" fill="#85C5E5"/>
<path d="M610 758.72C700.76 758.72 682 872.96 682.87 1000H610V758.72Z" fill="#FDD2B2"/>
<path d="M632.74 831.87L610 870L621.38 1000H653.14C653.91 819.73 632.74 831.87 632.74 831.87Z" fill="#F3AB98"/>
<path d="M233.25 500C233.25 352.68 352.68 233.25 500 233.25C647.32 233.25 766.75 352.68 766.75 500C766.788 539.694 757.949 578.895 740.88 614.731C723.811 650.568 698.945 682.135 668.1 707.12C662.627 711.573 656.98 715.803 651.16 719.81C591 758 515 758 446.39 751.89C439.73 750.89 433.09 749.63 426.5 748.18C400.17 742.38 374.68 733.43 351.13 720.38C345.31 716.793 339.667 712.92 334.2 708.76C328.706 704.576 323.432 700.11 318.4 695.38C313.64 690.96 309.044 686.367 304.61 681.6C258.667 632.299 233.161 567.39 233.25 500Z" fill="#FDD2B2"/>
<path d="M269.612 634.48C270.312 635.68 271.002 636.88 271.722 638.06C272.152 638.78 272.602 639.48 273.052 640.2C273.712 641.27 274.372 642.34 275.052 643.39C275.532 644.15 276.052 644.89 276.512 645.63C277.172 646.63 277.832 647.63 278.512 648.63C279.022 649.39 279.512 650.15 280.072 650.91C280.732 651.91 281.392 652.83 282.072 653.79C282.612 654.56 283.172 655.32 283.722 656.09C284.272 656.86 285.062 657.94 285.722 658.86C286.382 659.78 286.872 660.39 287.452 661.15C288.032 661.91 288.822 662.95 289.522 663.85C290.222 664.75 290.712 665.36 291.312 666.11C291.912 666.86 292.722 667.87 293.432 668.74C294.142 669.61 294.662 670.23 295.282 670.97C295.902 671.71 296.722 672.69 297.452 673.54C298.182 674.39 298.722 675.01 299.362 675.74L301.582 678.24C302.232 678.97 302.892 679.68 303.582 680.4C304.442 681.34 305.312 682.27 306.182 683.19L307.392 684.47C308.682 685.81 309.982 687.15 311.302 688.47L311.562 688.74C312.852 690.02 314.162 691.29 315.472 692.55L317.052 694.05C318.002 694.94 318.952 695.83 319.912 696.71L321.072 697.77C322.072 698.71 323.162 699.63 324.212 700.55C327.478 703.397 330.812 706.127 334.212 708.74C339.672 712.9 345.315 716.773 351.142 720.36C374.692 733.36 400.142 742.36 426.512 748.16C433.102 749.61 439.742 750.86 446.402 751.87C488.502 755.62 533.402 757.05 575.682 748.79C508.452 729 185.592 612.74 388.802 257.48C386.082 258.73 383.402 260.02 380.742 261.36L380.152 261.65C378.932 262.26 377.712 262.89 376.502 263.53L375.502 264.06C371.742 266.06 368.022 268.13 364.372 270.29L363.472 270.82C362.312 271.51 361.162 272.21 360.012 272.92L359.142 273.46C355.568 275.693 352.052 278.003 348.592 280.39L347.512 281.14C346.422 281.9 345.352 282.66 344.282 283.43L343.622 283.9C341.442 285.493 339.288 287.107 337.162 288.74L336.542 289.22C335.542 290 334.542 290.8 333.542 291.61L332.372 292.55C331.372 293.36 330.372 294.17 329.372 295C327.262 296.75 325.182 298.55 323.132 300.37L321.992 301.37L319.302 303.82L318.002 305C315.148 307.667 312.358 310.39 309.632 313.17L308.252 314.58C307.462 315.4 306.672 316.22 305.892 317.05C305.432 317.54 304.972 318.05 304.522 318.53C303.148 319.997 301.795 321.483 300.462 322.99C300.012 323.5 299.552 323.99 299.102 324.53C298.392 325.34 297.692 326.16 296.992 326.98L295.482 328.77C294.802 329.58 294.122 330.39 293.482 331.21C292.942 331.87 292.402 332.54 291.872 333.21C290.802 334.54 289.752 335.87 288.712 337.21C288.172 337.91 287.632 338.61 287.102 339.32C286.572 340.03 285.902 340.91 285.312 341.72C284.722 342.53 284.242 343.17 283.722 343.9C283.202 344.63 282.592 345.45 282.042 346.23C281.095 347.563 280.162 348.913 279.242 350.28C278.742 351.01 278.242 351.76 277.752 352.5C277.262 353.24 276.652 354.16 276.112 355L274.622 357.31L272.942 360.02C272.512 360.71 272.082 361.4 271.662 362.09C270.772 363.55 269.912 365.02 269.052 366.49L267.832 368.65C267.292 369.6 266.752 370.56 266.222 371.52C265.822 372.25 265.422 372.98 265.032 373.71C264.392 374.9 263.762 376.1 263.132 377.3L261.932 379.64C261.292 380.92 260.652 382.19 260.022 383.48C259.692 384.17 259.352 384.87 259.022 385.57C258.502 386.66 258.022 387.76 257.492 388.86C257.182 389.52 256.882 390.18 256.582 390.86C255.842 392.507 255.118 394.173 254.412 395.86C254.192 396.38 253.982 396.91 253.762 397.43C253.232 398.7 252.712 399.97 252.202 401.25C251.932 401.92 251.672 402.59 251.412 403.25C250.912 404.51 250.412 405.78 249.962 407.05C249.752 407.6 249.542 408.15 249.342 408.7C248.715 410.453 248.098 412.207 247.492 413.96L246.932 415.66C246.492 416.993 246.062 418.327 245.642 419.66L245.042 421.57C244.572 423.11 244.112 424.65 243.672 426.2C243.572 426.53 243.472 426.86 243.382 427.2C242.862 429.04 242.362 430.887 241.882 432.74C241.722 433.33 241.582 433.93 241.432 434.52C241.082 435.91 240.742 437.3 240.432 438.7L240.012 440.45C239.582 442.35 239.162 444.25 238.772 446.16L238.622 446.93C238.282 448.63 237.948 450.33 237.622 452.03C237.512 452.64 237.412 453.24 237.302 453.85C237.042 455.34 236.792 456.85 236.562 458.35C236.482 458.86 236.392 459.35 236.322 459.87C236.022 461.82 235.752 463.78 235.492 465.75L235.342 467.05C235.142 468.64 234.962 470.24 234.792 471.84C234.732 472.44 234.662 473.04 234.602 473.65C234.442 475.33 234.292 477.02 234.152 478.71C234.152 479.06 234.092 479.4 234.072 479.71C233.925 481.71 233.795 483.727 233.682 485.76C233.682 486.29 233.682 486.83 233.612 487.36C233.545 488.933 233.485 490.503 233.432 492.07C233.432 492.66 233.432 493.25 233.432 493.84C233.432 495.89 233.352 497.95 233.352 500.01C233.352 500.01 233.352 500.08 233.352 500.11C233.352 502.33 233.352 504.53 233.432 506.73C233.432 507.49 233.492 508.25 233.512 509.01C233.562 510.48 233.612 511.95 233.682 513.42C233.682 514.31 233.792 515.19 233.842 516.08C233.922 517.41 233.992 518.74 234.092 520.08C234.162 521.08 234.252 521.97 234.332 522.91C234.442 524.17 234.542 525.43 234.672 526.68C234.762 527.68 234.882 528.62 234.982 529.59C235.122 530.8 235.252 532.02 235.402 533.23C235.522 534.23 235.662 535.23 235.792 536.18C235.952 537.36 236.112 538.55 236.292 539.73C236.442 540.73 236.602 541.73 236.762 542.73C236.942 543.89 237.132 545.06 237.332 546.22C237.512 547.22 237.692 548.22 237.882 549.22C238.092 550.37 238.312 551.52 238.532 552.66C238.752 553.8 238.942 554.66 239.152 555.66C239.392 556.8 239.632 557.93 239.892 559.06C240.152 560.19 240.332 561.06 240.572 561.99C240.832 563.12 241.112 564.24 241.392 565.35C241.672 566.46 241.882 567.3 242.132 568.26C242.432 569.38 242.732 570.49 243.042 571.6C243.302 572.6 243.572 573.52 243.852 574.47C244.172 575.58 244.502 576.68 244.852 577.78C245.202 578.88 245.432 579.67 245.732 580.62C246.032 581.57 246.432 582.81 246.792 583.9C247.152 584.99 247.412 585.77 247.732 586.7C248.112 587.79 248.492 588.88 248.882 589.97C249.212 590.88 249.532 591.8 249.882 592.71L251.122 595.98C251.472 596.87 251.812 597.77 252.122 598.66C252.562 599.75 253.012 600.85 253.462 601.94C253.822 602.8 254.172 603.67 254.542 604.53C255.012 605.65 255.542 606.75 255.992 607.86C256.362 608.68 256.722 609.51 257.092 610.33C257.612 611.49 258.162 612.63 258.692 613.77L259.772 616.07C260.382 617.33 261.012 618.57 261.642 619.82C261.962 620.45 262.262 621.09 262.592 621.72C264.512 625.46 266.512 629.15 268.592 632.79C268.882 633.26 269.252 633.87 269.612 634.48Z" fill="#F3AB98"/>
<path d="M233.25 500C233.25 352.68 352.68 233.25 500 233.25C647.32 233.25 766.75 352.68 766.75 500C766.788 539.694 757.949 578.895 740.88 614.731C723.811 650.568 698.945 682.135 668.1 707.12C662.627 711.573 656.98 715.803 651.16 719.81C591 758 515 758 446.39 751.89C439.73 750.89 433.09 749.63 426.5 748.18C400.17 742.38 374.68 733.43 351.13 720.38C345.31 716.793 339.667 712.92 334.2 708.76C328.706 704.576 323.432 700.11 318.4 695.38C313.64 690.96 309.044 686.367 304.61 681.6C258.667 632.299 233.161 567.39 233.25 500Z" stroke="#592D3D" stroke-width="12" stroke-miterlimit="10"/>
<path d="M386.122 758.72C295.352 758.72 314.122 872.96 313.252 1000H386.122V758.72Z" fill="#FDD2B2"/>
<path d="M367.232 831.87L390.002 870L378.612 1000H346.882C346.072 819.73 367.232 831.87 367.232 831.87Z" fill="#F3AB98"/>
<path d="M619.472 1070H380.532C377.011 1070 373.636 1068.6 371.148 1066.11C368.659 1063.62 367.262 1060.24 367.262 1056.72V772C367.262 768.48 368.659 765.103 371.148 762.613C373.636 760.123 377.011 758.723 380.532 758.72H613.762C626.852 758.72 632.762 766.38 632.762 778.6V1056.68C632.767 1058.43 632.427 1060.16 631.761 1061.78C631.096 1063.39 630.117 1064.86 628.883 1066.1C627.648 1067.34 626.181 1068.32 624.566 1068.99C622.951 1069.66 621.22 1070 619.472 1070Z" fill="#FDD2B2"/>
<path d="M629.052 766.62C628.055 765.394 627.212 764.051 626.542 762.62C624.141 760.739 621.284 759.527 618.262 759.11C616.773 758.88 615.268 758.766 613.762 758.77H380.532C377.02 758.773 373.652 760.166 371.165 762.646C368.679 765.125 367.275 768.488 367.262 772C396.262 782.42 450.552 788.24 500.002 788.24C563.062 788.24 604.382 778.89 629.052 766.62Z" fill="#F3AB98"/>
<path d="M610 758.72C700.76 758.72 682 872.96 682.87 1000H632.74" stroke="#592D3D" stroke-width="12" stroke-miterlimit="10" stroke-linecap="square"/>
<path d="M386.122 758.72C295.352 758.72 314.122 872.96 313.252 1000H363.322" stroke="#592D3D" stroke-width="12" stroke-miterlimit="10" stroke-linecap="square"/>
<path d="M380.531 758.82L613.761 758.72" stroke="#592D3D" stroke-width="12" stroke-miterlimit="10"/>
<path d="M380.532 1070H497.152C388.002 1070 396.242 838.82 367.262 838.82V1056.68C367.257 1058.43 367.596 1060.16 368.26 1061.77C368.925 1063.39 369.901 1064.86 371.134 1066.09C372.366 1067.33 373.831 1068.31 375.444 1068.98C377.056 1069.65 378.785 1070 380.532 1070Z" fill="#F3AB98"/>
<path d="M361.259 860.85C361.069 857.18 361.149 853.51 361.309 849.85C361.469 846.19 361.779 842.5 362.169 838.85C362.369 837.01 362.569 835.18 362.819 833.34C363.069 831.5 363.309 829.67 363.669 827.83C364.378 824.022 365.585 820.324 367.259 816.83C368.933 820.324 370.14 824.022 370.849 827.83C371.209 829.67 371.469 831.5 371.699 833.34C371.929 835.18 372.149 837.01 372.349 838.85C372.729 842.52 373.029 846.19 373.199 849.85C373.369 853.51 373.449 857.19 373.259 860.85H361.259Z" fill="#592D3D"/>
<path d="M632.742 870V878C633.002 912 633.002 947 632.742 980.75C632.742 983.62 632.742 986.47 632.742 989.28V1056.69C632.746 1058.44 632.405 1060.17 631.74 1061.78C631.075 1063.39 630.099 1064.86 628.866 1066.1C627.634 1067.33 626.17 1068.31 624.558 1068.98C622.946 1069.65 621.217 1070 619.472 1070H380.532C377.011 1070 373.636 1068.6 371.148 1066.11C368.659 1063.62 367.262 1060.24 367.262 1056.72V998.52C367.262 996.01 367.262 993.45 367.262 990.87C367.012 956 367.012 921 367.262 885.57V860.85" stroke="#592D3D" stroke-width="12" stroke-miterlimit="10"/>
<path d="M626.74 870C626.55 865.83 626.64 861.65 626.8 857.47C626.96 853.29 627.27 849.12 627.65 844.94C627.85 842.85 628.06 840.76 628.3 838.67C628.54 836.58 628.79 834.5 629.15 832.41C629.847 828.106 631.052 823.9 632.74 819.88C634.428 823.9 635.633 828.106 636.33 832.41C636.69 834.5 636.95 836.59 637.18 838.67C637.41 840.75 637.63 842.85 637.83 844.94C638.21 849.12 638.52 853.29 638.68 857.47C638.84 861.65 638.93 865.83 638.74 870H626.74Z" fill="#592D3D"/>
<path d="M570.68 842.45C570.9 833 582.9 829 588.9 835C589.875 835.995 590.644 837.173 591.164 838.466C591.684 839.759 591.944 841.141 591.93 842.535C591.915 843.928 591.627 845.305 591.08 846.587C590.534 847.868 589.74 849.03 588.745 850.005C587.749 850.98 586.572 851.75 585.279 852.269C583.986 852.789 582.603 853.05 581.21 853.035C579.817 853.021 578.44 852.732 577.158 852.186C575.876 851.639 574.715 850.845 573.74 849.85C572.766 848.88 571.994 847.727 571.469 846.456C570.944 845.186 570.675 843.825 570.68 842.45Z" fill="#592D3D"/>
<path d="M408.109 842.15C407.899 834 416.899 830 422.899 833C430.899 836 430.899 847 422.899 852C418.899 854 414.899 852 411.149 849.52C410.182 848.552 409.416 847.403 408.894 846.138C408.372 844.874 408.106 843.518 408.109 842.15Z" fill="#592D3D"/>
<path d="M500 831.77C500.715 833.655 501.218 835.614 501.5 837.61C501.797 839.543 501.961 841.494 501.99 843.45L502.29 855.14C502.38 859.03 502.5 862.93 502.54 866.83L502.71 878.5C502.94 894.07 502.93 909.66 502.99 925.24C503.05 940.82 503.17 956.4 502.99 971.98C502.9 979.77 502.69 987.56 502.46 995.35C502.36 999.24 502.17 1003.14 501.79 1007.03C501.45 1010.96 500.859 1014.87 500.02 1018.72C499.181 1014.87 498.59 1010.96 498.25 1007.03C497.87 1003.14 497.68 999.24 497.58 995.35C497.35 987.56 497.14 979.77 497.05 971.98C496.85 956.4 497.05 940.82 497.05 925.24C497.05 909.66 497.05 894.09 497.23 878.51L497.4 866.81L497.73 855.13L498.06 843.45C498.097 841.494 498.264 839.543 498.56 837.61C498.822 835.616 499.305 833.657 500 831.77Z" fill="#F3AB98"/>
<path d="M425.219 883C426.702 882.295 428.272 881.791 429.889 881.5C431.433 881.21 432.998 881.043 434.569 881L443.919 880.67L462.619 880.26C475.079 880.07 487.529 880.02 499.999 879.99C512.469 879.96 524.929 879.83 537.389 879.99C543.619 880.08 549.849 880.29 556.089 880.52C559.199 880.63 562.319 880.82 565.429 881.19C568.587 881.54 571.713 882.136 574.779 882.97C571.715 883.81 568.588 884.402 565.429 884.74C562.319 885.12 559.199 885.31 556.089 885.41C549.849 885.64 543.619 885.84 537.389 885.93C524.929 886.12 512.469 885.93 499.999 885.93C487.529 885.93 475.069 885.93 462.599 885.78C456.369 885.72 450.139 885.52 443.919 885.28L434.569 884.94C433.001 884.898 431.44 884.731 429.899 884.44C428.282 884.17 426.708 883.686 425.219 883Z" fill="#F3AB98"/>
<path d="M442.41 914.38C443.591 913.817 444.853 913.442 446.15 913.27C447.349 913.101 448.561 913.05 449.77 913.12C452.16 913.22 454.55 913.28 456.94 913.33C461.72 913.44 466.5 913.48 471.28 913.5C480.91 913.5 490.37 913.58 500.04 913.29C509.71 913 519.3 912.86 528.92 912.9C533.73 912.9 538.54 913.03 543.34 913.14C545.757 913.172 548.17 913.329 550.57 913.61C553.037 913.882 555.472 914.395 557.84 915.14C555.528 916.048 553.129 916.718 550.68 917.14C548.296 917.569 545.888 917.857 543.47 918C538.65 918.35 533.83 918.65 529.02 918.82C519.38 919.18 509.75 919.14 500.14 919.27C495.33 919.27 490.53 919.49 485.66 919.37C480.79 919.25 475.97 919.24 471.14 919.06C466.31 918.88 461.46 918.48 456.64 917.98C454.22 917.71 451.82 917.41 449.41 917.08C448.193 916.931 446.996 916.649 445.84 916.24C444.599 915.82 443.439 915.191 442.41 914.38Z" fill="#F3AB98"/>
<path d="M438.93 949.87C440.116 949.172 441.405 948.666 442.75 948.37C444.003 948.079 445.283 947.915 446.57 947.88L454.2 947.56C459.29 947.38 464.39 947.23 469.48 947.15C479.66 947 489.84 947 500 947C510.16 947 520.36 946.83 530.54 947C535.63 947.09 540.72 947.3 545.81 947.53C548.363 947.616 550.91 947.836 553.44 948.19C556.045 948.548 558.61 949.154 561.1 950C558.618 950.831 556.063 951.423 553.47 951.77C550.937 952.132 548.387 952.356 545.83 952.44C540.74 952.67 535.65 952.88 530.56 952.97C520.38 953.17 510.19 953.03 500.01 952.97C489.83 952.91 479.65 952.91 469.47 952.72C464.38 952.62 459.28 952.44 454.19 952.23L446.56 951.86C445.273 951.821 443.993 951.654 442.74 951.36C441.398 951.07 440.112 950.567 438.93 949.87Z" fill="#F3AB98"/>
<path d="M677.8 906.35C678.01 869.24 676.59 836.28 670.07 810.96C660 785.6 641.89 770.48 610 770.48L632.79 905C632.79 905 655.31 915.24 677.8 906.35Z" fill="#F3AB98"/>
<path d="M686.411 895.79C685.27 896.732 684.029 897.547 682.711 898.22" stroke="#592D3D" stroke-width="12" stroke-miterlimit="10" stroke-linecap="square"/>
<path d="M326.109 809.88C319.279 835.45 318.109 869.01 318.369 906.88C338.269 915.42 368.789 904.73 368.789 904.73L386.119 772.49C355.249 772.46 336.849 786.36 326.109 809.88Z" fill="#F3AB98"/>
<path d="M613.762 758.72H559.552V758.82C559.553 763.322 559.07 767.811 558.112 772.21C557.646 774.35 557.065 776.463 556.372 778.54C554.159 784.744 550.763 790.46 546.372 795.37C544.97 796.943 543.467 798.423 541.872 799.8C516.702 818 476.702 819 452.392 799.22C449.773 796.932 447.391 794.386 445.282 791.62C440.903 785.87 437.801 779.253 436.182 772.21C435.708 770.034 435.351 767.834 435.112 765.62C434.862 763.362 434.738 761.092 434.742 758.82V758.72H380.532C377.011 758.723 373.636 760.123 371.148 762.613C368.66 765.103 367.262 768.48 367.262 772V1056.68C367.257 1058.43 367.596 1060.16 368.26 1061.77C368.925 1063.39 369.901 1064.86 371.134 1066.09C372.366 1067.33 373.831 1068.31 375.444 1068.98C377.056 1069.65 378.785 1070 380.532 1070H619.472C622.992 1070 626.367 1068.6 628.856 1066.11C631.344 1063.62 632.742 1060.24 632.742 1056.72V778.6C632.742 766.38 626.852 758.72 613.762 758.72Z" fill="#633749"/>
<path d="M610 758.72C673.54 758.72 683.4 814.72 683.9 891.89C665.3 903.51 634.99 893.2 634.99 893.2L610 758.72Z" fill="#633749"/>
<path d="M632.74 831.87L610 870L621.38 1000H632.99V894.35L650.27 897.24C644.6 825.07 632.74 831.87 632.74 831.87Z" fill="#5E3244"/>
<path d="M386.12 758.72C324.34 758.72 310.29 812.52 309.27 886.38C328.27 906.24 367.27 890.96 367.27 890.96L386.12 758.72Z" fill="#633749"/>
<path d="M367.232 831.87V891L349.922 895.31C355.592 825.19 367.232 831.87 367.232 831.87Z" fill="#5E3244"/>
<path d="M610 758.72C677.41 758.72 688.45 815.01 688.9 892.5C662.7 904.93 634.99 893.2 634.99 893.2" stroke="#592D3D" stroke-width="12" stroke-miterlimit="10" stroke-linecap="square"/>
<path d="M386.119 758.72C319.329 758.72 306.039 813.42 305.359 889.44C325.999 904.22 367.219 891 367.219 891" stroke="#592D3D" stroke-width="12" stroke-miterlimit="10" stroke-linecap="square"/>
<path d="M380.532 1070H497.152C388.002 1070 396.242 838.82 367.262 838.82V1056.68C367.257 1058.43 367.596 1060.16 368.26 1061.77C368.925 1063.39 369.901 1064.86 371.134 1066.09C372.366 1067.33 373.831 1068.31 375.444 1068.98C377.056 1069.65 378.785 1070 380.532 1070Z" fill="#5E3244"/>
<path d="M361.259 860.85C361.069 857.18 361.149 853.51 361.309 849.85C361.469 846.19 361.779 842.5 362.169 838.85C362.369 837.01 362.569 835.18 362.819 833.34C363.069 831.5 363.309 829.67 363.669 827.83C364.378 824.022 365.585 820.324 367.259 816.83C368.934 820.322 370.138 824.021 370.839 827.83C371.209 829.67 371.469 831.5 371.699 833.34C371.929 835.18 372.149 837.01 372.349 838.85C372.729 842.52 373.029 846.19 373.199 849.85C373.369 853.51 373.449 857.19 373.259 860.85H361.259Z" fill="#592D3D"/>
<path d="M632.742 870V878C633.002 912 633.002 947 632.742 980.75C632.742 983.62 632.742 986.47 632.742 989.28V1056.69C632.746 1058.44 632.405 1060.17 631.74 1061.78C631.075 1063.39 630.099 1064.86 628.866 1066.1C627.634 1067.33 626.17 1068.31 624.558 1068.98C622.946 1069.65 621.217 1070 619.472 1070H380.532C377.011 1070 373.636 1068.6 371.148 1066.11C368.659 1063.62 367.262 1060.24 367.262 1056.72V998.52C367.262 996.01 367.262 993.45 367.262 990.87C367.012 956 367.012 921 367.262 885.57V860.85" stroke="#592D3D" stroke-width="12" stroke-miterlimit="10"/>
<path d="M626.74 870C626.55 865.83 626.64 861.65 626.8 857.47C626.96 853.29 627.27 849.12 627.65 844.94C627.85 842.85 628.06 840.76 628.3 838.67C628.54 836.58 628.79 834.5 629.16 832.41C629.848 828.105 631.05 823.899 632.74 819.88C634.428 823.9 635.633 828.106 636.33 832.41C636.69 834.5 636.95 836.59 637.18 838.67C637.41 840.75 637.63 842.85 637.83 844.94C638.21 849.12 638.52 853.29 638.68 857.47C638.84 861.65 638.93 865.83 638.74 870H626.74Z" fill="#592D3D"/>
<path d="M380.531 758.82L613.761 758.72" stroke="#592D3D" stroke-width="12" stroke-miterlimit="10"/>
<path d="M559.552 758.82C559.554 763.322 559.071 767.811 558.112 772.21C557.646 774.35 557.066 776.463 556.372 778.54C554.16 784.744 550.764 790.46 546.372 795.37C544.971 796.943 543.467 798.423 541.872 799.8C516.702 818 476.702 819 452.392 799.22C449.773 796.932 447.391 794.386 445.282 791.62C440.904 785.87 437.802 779.253 436.182 772.21C435.708 770.034 435.351 767.834 435.112 765.62C434.862 763.362 434.739 761.092 434.742 758.82" stroke="#592D3D" stroke-width="12" stroke-miterlimit="10"/>
<path d="M503.399 828.39C497.35 829.607 491.161 829.977 485.009 829.49C478.802 829.054 472.681 827.789 466.809 825.73C460.902 823.705 455.338 820.792 450.309 817.09L448.449 815.68C447.839 815.2 447.249 814.68 446.659 814.16C445.471 813.149 444.358 812.053 443.329 810.88C441.276 808.573 439.473 806.056 437.949 803.37C440.089 805.516 442.338 807.548 444.689 809.46C445.269 809.94 445.859 810.41 446.439 810.86C447.019 811.31 447.669 811.68 448.279 812.1C448.889 812.52 449.499 812.94 450.129 813.33L452.039 814.49C457.141 817.513 462.535 820.012 468.139 821.95C473.755 823.914 479.525 825.402 485.389 826.4C491.354 827.376 497.365 828.041 503.399 828.39Z" fill="#592D3D"/>
<path d="M307.832 892.5C308.969 893.537 310.201 894.464 311.512 895.27" stroke="#592D3D" stroke-width="12" stroke-miterlimit="10" stroke-linecap="square"/>
<path d="M674.699 882.69C672.618 883.935 670.327 884.789 667.939 885.21C665.568 885.676 663.155 885.894 660.739 885.86C658.327 885.813 655.924 885.548 653.559 885.07C652.379 884.86 651.229 884.51 650.069 884.2C648.909 883.89 647.799 883.43 646.699 882.96C647.909 882.96 649.079 883.14 650.259 883.24L653.779 883.53C654.949 883.53 656.109 883.73 657.279 883.74C658.449 883.75 659.599 883.85 660.759 883.86C663.093 883.9 665.426 883.837 667.759 883.67C670.093 883.508 672.412 883.181 674.699 882.69Z" fill="#592D3D"/>
<path d="M566.881 917.83C566.881 908.97 555.781 900.57 538.771 895.36C542.701 878.02 540.951 864.23 533.261 859.81C531.468 858.621 529.326 858.071 527.181 858.25C519.181 858.38 509.871 863.6 499.951 872.87C490.001 863.65 479.001 858.2 472.711 858.36C469.551 858.45 468.341 858.88 466.551 859.92C458.881 864.33 457.171 878.1 461.121 895.39C444.121 900.62 433.121 909 433.121 917.83C433.121 926.66 444.221 935.09 461.231 940.3C457.301 957.64 459.051 971.43 466.741 975.85C468.61 976.902 470.727 977.43 472.871 977.38C480.371 977.38 490.181 972.03 500.111 962.76C510.031 971.98 519.851 977.27 527.351 977.27C529.504 977.317 531.63 976.789 533.511 975.74C541.171 971.32 542.891 957.55 538.931 940.27C555.841 935.06 566.881 926.66 566.881 917.83ZM527.161 864.34C528.238 864.309 529.305 864.553 530.261 865.05C533.971 867.18 535.581 875.28 534.331 885.69C534.031 888.25 533.541 890.95 532.941 893.69C527.24 892.309 521.454 891.307 515.621 890.69C512.149 885.899 508.361 881.346 504.281 877.06C513.161 868.87 521.491 864.35 527.161 864.34ZM475.841 931.79C477.121 933.97 478.431 936.097 479.771 938.17C475.901 937.6 472.161 936.89 468.591 936.02C469.591 932.5 470.851 928.87 472.271 925.25C473.391 927.43 474.561 929.61 475.841 931.79ZM468.511 899.64C472.081 898.8 475.841 898.06 479.741 897.49C478.411 899.59 477.071 901.74 475.821 903.95C474.571 906.16 473.391 908.31 472.271 910.49C470.838 906.938 469.583 903.317 468.511 899.64ZM475.461 917.91C477.151 914.26 479.061 910.6 481.111 907.03C483.161 903.46 485.411 899.86 487.681 896.62C491.741 896.26 495.861 896.07 500.001 896.07C504.141 896.07 508.231 896.26 512.271 896.59C514.531 899.83 516.741 903.3 518.871 906.95C521.001 910.6 522.871 914.15 524.541 917.8C522.821 921.46 520.941 925.11 518.891 928.68C516.841 932.25 514.591 935.85 512.321 939.1C508.261 939.45 504.141 939.64 500.001 939.64C495.861 939.64 491.771 939.45 487.731 939.12C485.471 935.88 483.261 932.42 481.131 928.76C479.001 925.1 477.181 921.56 475.461 917.91ZM524.161 931.71C525.411 929.53 526.581 927.32 527.701 925.14C529.135 928.695 530.39 932.319 531.461 936C527.891 936.87 524.131 937.61 520.231 938.18C521.571 936.07 522.901 933.92 524.161 931.71ZM524.161 903.87C522.911 901.69 521.571 899.56 520.231 897.49C524.111 898.057 527.838 898.773 531.411 899.64C530.411 903.16 529.151 906.79 527.731 910.41C526.581 908.23 525.411 906.05 524.131 903.87H524.161ZM507.501 890.15C505.041 890.05 502.501 889.96 500.001 889.96C497.501 889.96 494.901 890.02 492.421 890.15C494.761 887.109 497.265 884.198 499.921 881.43C502.593 884.207 505.123 887.117 507.501 890.15ZM469.571 865.15C470.535 864.636 471.62 864.39 472.711 864.44C478.351 864.44 486.711 868.94 495.611 877.15C491.553 881.422 487.79 885.966 484.351 890.75C478.51 891.354 472.716 892.357 467.011 893.75C466.381 891.03 465.921 888.38 465.591 885.85C464.311 875.43 465.891 867.33 469.571 865.18V865.15ZM462.701 934.38C460.001 933.53 457.441 932.6 455.071 931.6C445.411 927.48 439.171 922.08 439.171 917.8C439.171 913.52 445.411 908.09 455.071 904C457.411 903 459.971 902.09 462.621 901.25C464.287 906.915 466.335 912.461 468.751 917.85C466.364 923.227 464.343 928.76 462.701 934.41V934.38ZM472.821 971.29C471.75 971.307 470.691 971.056 469.741 970.56C466.031 968.43 464.421 960.33 465.671 949.92C465.971 947.35 466.461 944.66 467.061 941.92C472.761 943.306 478.547 944.308 484.381 944.92C487.851 949.716 491.639 954.273 495.721 958.56C486.831 966.8 478.491 971.32 472.821 971.32V971.29ZM500.051 954.2C497.379 951.419 494.849 948.506 492.471 945.47C494.931 945.58 497.471 945.66 499.971 945.66C502.471 945.66 505.071 945.61 507.551 945.47C505.212 948.524 502.708 951.448 500.051 954.23V954.2ZM530.431 970.45C529.467 970.964 528.383 971.21 527.291 971.16C521.651 971.16 513.291 966.66 504.391 958.45C508.45 954.178 512.212 949.634 515.651 944.85C521.493 944.246 527.286 943.243 532.991 941.85C533.605 944.466 534.079 947.113 534.411 949.78C535.691 960.23 534.111 968.32 530.431 970.48V970.45ZM544.911 931.6C542.561 932.6 540.001 933.5 537.351 934.35C535.683 928.682 533.635 923.133 531.221 917.74C533.594 912.376 535.599 906.857 537.221 901.22C539.921 902.07 542.481 902.99 544.881 904C554.541 908.12 560.781 913.52 560.781 917.8C560.781 922.08 554.561 927.54 544.911 931.63V931.6Z" fill="black" stroke="white" stroke-width="16"/>
<path d="M499.972 930.29C506.853 930.29 512.432 924.712 512.432 917.83C512.432 910.949 506.853 905.37 499.972 905.37C493.09 905.37 487.512 910.949 487.512 917.83C487.512 924.712 493.09 930.29 499.972 930.29Z" fill="black" stroke="white" stroke-width="24"/>
<path d="M566.881 917.83C566.881 908.97 555.781 900.57 538.771 895.36C542.701 878.02 540.951 864.23 533.261 859.81C531.468 858.621 529.326 858.071 527.181 858.25C519.181 858.38 509.871 863.6 499.951 872.87C490.001 863.65 479.001 858.2 472.711 858.36C469.551 858.45 468.341 858.88 466.551 859.92C458.881 864.33 457.171 878.1 461.121 895.39C444.121 900.62 433.121 909 433.121 917.83C433.121 926.66 444.221 935.09 461.231 940.3C457.301 957.64 459.051 971.43 466.741 975.85C468.61 976.902 470.727 977.43 472.871 977.38C480.371 977.38 490.181 972.03 500.111 962.76C510.031 971.98 519.851 977.27 527.351 977.27C529.504 977.317 531.63 976.789 533.511 975.74C541.171 971.32 542.891 957.55 538.931 940.27C555.841 935.06 566.881 926.66 566.881 917.83ZM527.161 864.34C528.238 864.309 529.305 864.553 530.261 865.05C533.971 867.18 535.581 875.28 534.331 885.69C534.031 888.25 533.541 890.95 532.941 893.69C527.24 892.309 521.454 891.307 515.621 890.69C512.149 885.899 508.361 881.346 504.281 877.06C513.161 868.87 521.491 864.35 527.161 864.34ZM475.841 931.79C477.121 933.97 478.431 936.097 479.771 938.17C475.901 937.6 472.161 936.89 468.591 936.02C469.591 932.5 470.851 928.87 472.271 925.25C473.391 927.43 474.561 929.61 475.841 931.79ZM468.511 899.64C472.081 898.8 475.841 898.06 479.741 897.49C478.411 899.59 477.071 901.74 475.821 903.95C474.571 906.16 473.391 908.31 472.271 910.49C470.838 906.938 469.583 903.317 468.511 899.64ZM475.461 917.91C477.151 914.26 479.061 910.6 481.111 907.03C483.161 903.46 485.411 899.86 487.681 896.62C491.741 896.26 495.861 896.07 500.001 896.07C504.141 896.07 508.231 896.26 512.271 896.59C514.531 899.83 516.741 903.3 518.871 906.95C521.001 910.6 522.871 914.15 524.541 917.8C522.821 921.46 520.941 925.11 518.891 928.68C516.841 932.25 514.591 935.85 512.321 939.1C508.261 939.45 504.141 939.64 500.001 939.64C495.861 939.64 491.771 939.45 487.731 939.12C485.471 935.88 483.261 932.42 481.131 928.76C479.001 925.1 477.181 921.56 475.461 917.91ZM524.161 931.71C525.411 929.53 526.581 927.32 527.701 925.14C529.135 928.695 530.39 932.319 531.461 936C527.891 936.87 524.131 937.61 520.231 938.18C521.571 936.07 522.901 933.92 524.161 931.71ZM524.161 903.87C522.911 901.69 521.571 899.56 520.231 897.49C524.111 898.057 527.838 898.773 531.411 899.64C530.411 903.16 529.151 906.79 527.731 910.41C526.581 908.23 525.411 906.05 524.131 903.87H524.161ZM507.501 890.15C505.041 890.05 502.501 889.96 500.001 889.96C497.501 889.96 494.901 890.02 492.421 890.15C494.761 887.109 497.265 884.198 499.921 881.43C502.593 884.207 505.123 887.117 507.501 890.15ZM469.571 865.15C470.535 864.636 471.62 864.39 472.711 864.44C478.351 864.44 486.711 868.94 495.611 877.15C491.553 881.422 487.79 885.966 484.351 890.75C478.51 891.354 472.716 892.357 467.011 893.75C466.381 891.03 465.921 888.38 465.591 885.85C464.311 875.43 465.891 867.33 469.571 865.18V865.15ZM462.701 934.38C460.001 933.53 457.441 932.6 455.071 931.6C445.411 927.48 439.171 922.08 439.171 917.8C439.171 913.52 445.411 908.09 455.071 904C457.411 903 459.971 902.09 462.621 901.25C464.287 906.915 466.335 912.461 468.751 917.85C466.364 923.227 464.343 928.76 462.701 934.41V934.38ZM472.821 971.29C471.75 971.307 470.691 971.056 469.741 970.56C466.031 968.43 464.421 960.33 465.671 949.92C465.971 947.35 466.461 944.66 467.061 941.92C472.761 943.306 478.547 944.308 484.381 944.92C487.851 949.716 491.639 954.273 495.721 958.56C486.831 966.8 478.491 971.32 472.821 971.32V971.29ZM500.051 954.2C497.379 951.419 494.849 948.506 492.471 945.47C494.931 945.58 497.471 945.66 499.971 945.66C502.471 945.66 505.071 945.61 507.551 945.47C505.212 948.524 502.708 951.448 500.051 954.23V954.2ZM530.431 970.45C529.467 970.964 528.383 971.21 527.291 971.16C521.651 971.16 513.291 966.66 504.391 958.45C508.45 954.178 512.212 949.634 515.651 944.85C521.493 944.246 527.286 943.243 532.991 941.85C533.605 944.466 534.079 947.113 534.411 949.78C535.691 960.23 534.111 968.32 530.431 970.48V970.45ZM544.911 931.6C542.561 932.6 540.001 933.5 537.351 934.35C535.683 928.682 533.635 923.133 531.221 917.74C533.594 912.376 535.599 906.857 537.221 901.22C539.921 902.07 542.481 902.99 544.881 904C554.541 908.12 560.781 913.52 560.781 917.8C560.781 922.08 554.561 927.54 544.911 931.63V931.6Z" fill="#61DAFB"/>
<path d="M499.972 930.29C506.853 930.29 512.432 924.712 512.432 917.83C512.432 910.949 506.853 905.37 499.972 905.37C493.09 905.37 487.512 910.949 487.512 917.83C487.512 924.712 493.09 930.29 499.972 930.29Z" fill="#61DAFB"/>
<path d="M271.401 576.82C270.401 548.46 289.401 524.46 314.681 513.26C317.336 512.173 320.062 511.271 322.841 510.56C336.851 507.08 351.594 508.016 365.051 513.24C368.126 514.419 371.117 515.809 374.001 517.4C403.531 533.28 416.791 570.65 405.361 600.86C404.203 603.906 402.805 606.855 401.181 609.68C397.193 617.988 391.17 625.153 383.671 630.51C381.169 632.351 378.547 634.021 375.821 635.51C348.441 648.51 311.441 644.51 289.371 624.11C287.163 621.765 285.122 619.269 283.261 616.64C281.139 613.637 279.275 610.459 277.691 607.14C274.338 600.351 272.402 592.951 272.001 585.39C271.639 582.547 271.439 579.686 271.401 576.82Z" fill="#F3AB98"/>
<path d="M269.772 558.47C268.772 530.11 287.772 506.11 313.052 494.91C315.703 493.823 318.427 492.921 321.202 492.21C335.215 488.728 349.962 489.664 363.422 494.89C366.487 496.07 369.468 497.46 372.342 499.05C401.872 514.94 415.132 552.3 403.702 582.51C402.552 585.559 401.154 588.509 399.522 591.33C398.14 594.039 396.566 596.645 394.812 599.13C393.084 601.592 391.186 603.931 389.132 606.13C386.912 608.327 384.532 610.356 382.012 612.2C379.512 614.043 376.889 615.714 374.162 617.2C346.782 630.2 309.782 626.2 287.722 605.8C285.509 603.46 283.467 600.963 281.612 598.33C279.487 595.327 277.62 592.149 276.032 588.83C272.656 582.02 270.713 574.591 270.322 567C269.968 564.17 269.785 561.322 269.772 558.47Z" fill="white"/>
<path d="M338.51 571.32C345.27 571.32 350.75 565.84 350.75 559.08C350.75 552.32 345.27 546.84 338.51 546.84C331.75 546.84 326.27 552.32 326.27 559.08C326.27 565.84 331.75 571.32 338.51 571.32Z" fill="#592D3D"/>
<path d="M339.2 490.12C330.2 490.109 321.287 491.876 312.972 495.32C304.658 498.765 297.105 503.818 290.75 510.19C288.265 512.68 285.972 515.354 283.89 518.19C279.586 523.79 276.117 529.985 273.59 536.58H403.92C400.54 524.711 393.499 514.211 383.8 506.58C381.799 504.865 379.702 503.266 377.52 501.79C366.202 494.153 352.853 490.087 339.2 490.12Z" fill="#FDD2B2" stroke="#592D3D" stroke-width="8" stroke-miterlimit="10"/>
<path d="M274.09 581.45C279.59 595.2 289.39 607.38 302.01 614.77C305.259 616.612 308.654 618.184 312.16 619.47C336.79 628.56 367.16 624.54 386.65 607.86C389.268 605.511 391.705 602.967 393.94 600.25C395.623 598.222 397.161 596.076 398.54 593.83C400.54 589.853 402.192 585.711 403.48 581.45H274.09Z" fill="#FDD2B2" stroke="#592D3D" stroke-width="8" stroke-miterlimit="10"/>
<path d="M269.772 558.47C268.772 530.11 287.772 506.11 313.052 494.91C315.703 493.823 318.427 492.921 321.202 492.21C335.215 488.728 349.962 489.664 363.422 494.89C366.487 496.07 369.468 497.46 372.342 499.05C401.872 514.94 415.132 552.3 403.702 582.51C402.552 585.559 401.154 588.509 399.522 591.33C398.14 594.039 396.566 596.645 394.812 599.13C393.084 601.592 391.186 603.931 389.132 606.13C386.912 608.327 384.532 610.356 382.012 612.2C379.512 614.043 376.889 615.714 374.162 617.2C346.782 630.2 309.782 626.2 287.722 605.8C285.509 603.46 283.467 600.963 281.612 598.33C279.487 595.327 277.62 592.149 276.032 588.83C272.656 582.02 270.713 574.591 270.322 567C269.968 564.17 269.785 561.322 269.772 558.47Z" stroke="#592D3D" stroke-width="12" stroke-miterlimit="10"/>
<path d="M583.892 568.76C584.322 553.63 590.562 538.67 598.992 527.43C601.144 524.409 603.524 521.558 606.112 518.9C617.618 506.92 633.023 499.44 649.554 497.809C666.085 496.177 682.655 500.5 696.282 510C698.553 511.585 700.734 513.298 702.812 515.13C729.812 536.58 732.932 578.27 718.132 608.36C716.694 610.751 715.097 613.043 713.352 615.22C711.038 618.121 708.504 620.839 705.772 623.35C685.502 641.18 653.962 645.48 628.362 635.77C624.714 634.394 621.186 632.722 617.812 630.77C599.912 619.99 587.442 599.68 584.382 578.54C583.964 575.298 583.801 572.028 583.892 568.76Z" fill="#F3AB98"/>
<path d="M589.379 557.26C589.799 543.11 595.799 529.11 603.899 518.6C605.983 515.766 608.276 513.092 610.759 510.6C622.006 499.356 636.812 492.373 652.642 490.846C668.472 489.319 684.34 493.344 697.529 502.23C699.711 503.707 701.808 505.306 703.809 507.02C729.809 527.09 732.809 566.09 718.549 594.24C717.167 596.485 715.63 598.63 713.949 600.66C711.716 603.376 709.279 605.917 706.659 608.26C687.149 625 656.799 629 632.169 619.9C628.657 618.609 625.255 617.034 621.999 615.19C604.779 605.11 592.779 586.11 589.829 566.34C589.435 563.331 589.284 560.294 589.379 557.26Z" fill="white"/>
<path d="M659.209 571.32C665.969 571.32 671.449 565.84 671.449 559.08C671.449 552.32 665.969 546.84 659.209 546.84C652.449 546.84 646.969 552.32 646.969 559.08C646.969 565.84 652.449 571.32 659.209 571.32Z" fill="#592D3D"/>
<path d="M659.212 490.55C650.212 490.539 641.299 492.306 632.984 495.75C624.669 499.195 617.117 504.248 610.762 510.62C608.279 513.112 605.986 515.786 603.902 518.62C599.601 524.219 596.132 530.409 593.602 537H723.932C720.549 525.132 713.508 514.633 703.812 507C701.81 505.286 699.714 503.687 697.532 502.21C686.213 494.576 672.864 490.514 659.212 490.55Z" fill="#FDD2B2" stroke="#592D3D" stroke-width="8" stroke-miterlimit="10"/>
<path d="M594.102 581.87C599.612 595.63 609.402 607.81 622.022 615.19C625.271 617.033 628.666 618.608 632.172 619.9C656.802 628.99 687.172 624.96 706.662 608.28C709.282 605.936 711.719 603.396 713.952 600.68C715.633 598.65 717.17 596.505 718.552 594.26C720.557 590.282 722.21 586.137 723.492 581.87H594.102Z" fill="#FDD2B2" stroke="#592D3D" stroke-width="8" stroke-miterlimit="10"/>
<path d="M589.379 557.26C589.799 543.11 595.799 529.11 603.899 518.6C605.983 515.766 608.276 513.092 610.759 510.6C622.006 499.356 636.812 492.373 652.642 490.846C668.472 489.319 684.34 493.344 697.529 502.23C699.711 503.707 701.808 505.306 703.809 507.02C729.809 527.09 732.809 566.09 718.549 594.24C717.167 596.485 715.63 598.63 713.949 600.66C711.716 603.376 709.279 605.917 706.659 608.26C687.149 625 656.799 629 632.169 619.9C628.657 618.609 625.255 617.034 621.999 615.19C604.779 605.11 592.779 586.11 589.829 566.34C589.435 563.331 589.284 560.294 589.379 557.26Z" stroke="#592D3D" stroke-width="12" stroke-miterlimit="10"/>
<path d="M443.141 621.86C443.141 602.96 556.861 605.8 556.861 621.86C556.861 636.94 550.87 651.403 540.207 662.066C529.543 672.73 515.081 678.72 500.001 678.72C484.92 678.72 470.458 672.73 459.795 662.066C449.131 651.403 443.141 636.94 443.141 621.86Z" fill="#592D3D"/>
<path d="M495.002 643C478.052 642 463.272 649.75 458.352 661.22C466.532 669.863 477.219 675.72 488.905 677.968C500.591 680.216 512.688 678.741 523.492 673.75C525.738 672.713 527.913 671.527 530.002 670.2C529.082 656.09 514.062 644.18 495.002 643Z" fill="#F28195"/>
<path d="M443.141 621.86C443.141 602.96 556.861 605.8 556.861 621.86C556.861 636.94 550.87 651.403 540.207 662.066C529.543 672.73 515.081 678.72 500.001 678.72C484.92 678.72 470.458 672.73 459.795 662.066C449.131 651.403 443.141 636.94 443.141 621.86Z" stroke="#592D3D" stroke-width="6" stroke-miterlimit="10"/>
<path d="M478.121 632.46C478.571 632.35 478.751 632.3 479.041 632.25L479.791 632.11C480.281 632.02 480.791 631.97 481.251 631.93C482.211 631.832 483.177 631.799 484.141 631.83C486.096 631.873 488.039 632.145 489.931 632.64C493.893 633.643 497.484 635.76 500.281 638.74C502.912 641.57 504.676 645.097 505.361 648.9C505.986 652.408 505.511 656.023 504.001 659.25C501.931 656.32 500.341 653.69 498.681 651.49C497.934 650.435 497.115 649.433 496.231 648.49C495.423 647.662 494.517 646.936 493.531 646.33C491.664 645.212 489.582 644.499 487.421 644.24C486.287 644.094 485.145 644.014 484.001 644C483.411 644 482.821 644 482.241 644.05L481.391 644.11H481.001C480.901 644.11 480.701 644.11 480.771 644.11L478.121 632.46Z" fill="#592D3D"/>
<path d="M499.701 278.25C559.116 278.25 607.281 230.085 607.281 170.67C607.281 111.255 559.116 63.0901 499.701 63.0901C440.286 63.0901 392.121 111.255 392.121 170.67C392.121 230.085 440.286 278.25 499.701 278.25Z" fill="#D69AC7"/>
<path d="M559.289 397.34C546.419 421.34 499.289 434.78 495.459 428.76C491.159 422.03 533.299 373.44 509.359 322.62" fill="#F3AB98"/>
<path d="M420.82 134.59C423.577 126.683 427.699 119.322 433 112.84C434.37 111.25 435.72 109.63 437.16 108.1C438.6 106.57 440.16 105.1 441.69 103.69C443.22 102.28 444.9 100.96 446.57 99.6901C448.24 98.4201 449.98 97.1901 451.74 96.0401C453.5 94.8901 455.34 93.8301 457.21 92.8501L460.03 91.4201C460.96 90.9217 461.915 90.4711 462.89 90.0701C464.89 89.3101 466.78 88.4501 468.78 87.7801C470.78 87.1101 472.78 86.4601 474.78 85.9701C482.888 83.8623 491.3 83.1855 499.64 83.9701C491.482 84.7561 483.434 86.4327 475.64 88.9701C474.64 89.2301 473.74 89.6701 472.79 89.9701L469.94 90.9701C468.06 91.7001 466.25 92.6201 464.4 93.4201C462.55 94.2201 460.82 95.2701 459.02 96.1901C457.22 97.1101 455.58 98.2801 453.85 99.3101C452.12 100.34 450.52 101.59 448.85 102.72C447.18 103.85 445.7 105.24 444.09 106.47C442.48 107.7 441.09 109.15 439.56 110.47L435.28 114.78C429.74 120.826 424.89 127.47 420.82 134.59Z" fill="white"/>
<path d="M409.801 229.76C429.001 259 435.671 233.25 498.001 233.25C605.211 233.25 571.621 258.25 590.691 228.1C563.101 218.45 546.691 208.71 502.561 208.71C460.261 208.71 438.691 219.05 409.801 229.76Z" fill="#C683B4"/>
<path d="M499.701 278.25C559.116 278.25 607.281 230.085 607.281 170.67C607.281 111.255 559.116 63.0901 499.701 63.0901C440.286 63.0901 392.121 111.255 392.121 170.67C392.121 230.085 440.286 278.25 499.701 278.25Z" stroke="#592D3D" stroke-width="12" stroke-miterlimit="10"/>
<path d="M421.521 244.56C335.161 273.62 263.781 346.74 245.061 429.8C213.001 556.34 262.891 634 307.171 681.6C311.541 686.3 237.711 543.34 304.741 440.6C365.841 438.28 457.161 426.22 500.521 377.74C496.181 398.87 484.001 415 486.001 418.18C488.881 422.69 524.191 412.65 533.841 394.64L534.671 391.03C569.391 403.61 626.431 417.62 678.671 397.64C801.811 535.94 691.291 689 700.301 679C744.783 630.004 769.387 566.176 769.301 500C769.301 413.58 725.021 351.11 725.021 351.11C694.501 296.7 641.501 259.24 580.221 242" fill="#D69AC7"/>
<path d="M326.66 439.38C332.04 387.16 351.66 326.88 391.36 257.48C388.646 258.733 385.96 260.027 383.3 261.36L382.71 261.65C381.49 262.26 380.27 262.89 379.06 263.53L378.06 264.06C374.3 266.06 370.59 268.137 366.93 270.29L366.03 270.82C364.87 271.51 363.72 272.21 362.57 272.92L361.71 273.46C358.13 275.693 354.61 278.003 351.15 280.39L350.07 281.14C348.99 281.9 347.91 282.66 346.84 283.43L346.19 283.9C344.01 285.493 341.853 287.107 339.72 288.74L339.1 289.22C338.1 290 337.1 290.8 336.1 291.61L334.92 292.55C333.92 293.36 332.92 294.17 331.92 295C329.81 296.75 327.74 298.55 325.68 300.37L324.54 301.37L321.85 303.82L320.53 305C317.683 307.667 314.893 310.39 312.16 313.17L310.79 314.58C309.99 315.4 309.2 316.22 308.42 317.05L307.05 318.53C305.683 320.023 304.333 321.513 303 323C302.54 323.51 302.08 324 301.63 324.54C300.92 325.35 300.22 326.17 299.52 327C299.01 327.59 298.52 328.18 298.01 328.78C297.33 329.59 296.65 330.4 296.01 331.22C295.47 331.88 294.94 332.55 294.4 333.22C293.34 334.55 292.29 335.88 291.25 337.22C290.7 337.92 290.16 338.62 289.63 339.33C289.1 340.04 288.43 340.92 287.84 341.73L286.25 343.91C285.69 344.69 285.12 345.46 284.57 346.24C283.63 347.58 282.69 348.93 281.77 350.29C281.27 351.02 280.77 351.77 280.29 352.51C279.81 353.25 279.18 354.17 278.64 355.01C278.1 355.85 277.64 356.55 277.16 357.32C276.68 358.09 276.03 359.12 275.47 360.03C275.04 360.72 274.61 361.41 274.19 362.1C273.31 363.56 272.443 365.027 271.59 366.5C271.17 367.22 270.77 367.94 270.36 368.66C269.82 369.61 269.28 370.57 268.75 371.53C268.35 372.26 267.95 372.99 267.56 373.72C266.92 374.91 266.29 376.11 265.67 377.31C265.26 378.09 264.86 378.87 264.46 379.65C263.82 380.93 263.18 382.2 262.56 383.49C262.22 384.18 261.89 384.88 261.56 385.58C261.04 386.67 260.56 387.77 260.02 388.87L259.11 390.87C258.37 392.517 257.647 394.183 256.94 395.87C256.72 396.39 256.51 396.92 256.29 397.44C255.76 398.71 255.29 399.98 254.73 401.26C254.47 401.93 254.2 402.6 253.94 403.26C253.45 404.52 252.94 405.79 252.49 407.06L251.88 408.71C251.213 410.463 250.593 412.217 250.02 413.97L249.46 415.67C249.02 417.003 248.59 418.337 248.17 419.67C247.97 420.3 247.77 420.94 247.58 421.58C247.1 423.12 246.64 424.663 246.2 426.21C246.1 426.54 246 426.87 245.91 427.21C245.39 429.05 244.89 430.897 244.41 432.75L243.96 434.53C243.77 435.27 243.59 436.02 243.41 436.77C241.85 443.46 240.53 450 239.41 456.41C239.31 457.06 239.19 457.71 239.09 458.36L238.85 459.87C238.55 461.83 238.277 463.793 238.03 465.76C237.97 466.19 237.92 466.63 237.87 467.06C237.67 468.65 237.49 470.25 237.32 471.85L237.14 473.66C236.97 475.34 236.82 477.03 236.69 478.72L236.6 479.72C236.447 481.72 236.32 483.737 236.22 485.77C236.22 486.3 236.17 486.84 236.14 487.37C236.067 488.943 236.007 490.513 235.96 492.08C235.96 492.67 235.96 493.26 235.91 493.85C235.91 495.9 235.84 497.96 235.84 500.02V500.12C235.84 502.327 235.867 504.533 235.92 506.74C235.92 507.5 235.98 508.26 236 509.02C236.05 510.49 236.1 511.96 236.17 513.43C236.22 514.32 236.28 515.2 236.33 516.09C236.41 517.42 236.49 518.75 236.58 520.09C236.65 521.09 236.74 521.98 236.82 522.92C236.93 524.18 237.03 525.44 237.16 526.69C237.25 527.69 237.37 528.63 237.47 529.6C237.61 530.81 237.74 532.03 237.89 533.24C238.01 534.24 238.15 535.24 238.28 536.19C238.44 537.37 238.61 538.56 238.78 539.74C238.93 540.74 239.09 541.74 239.25 542.74C239.44 543.9 239.62 545.07 239.83 546.23C240 547.23 240.18 548.23 240.37 549.23C240.58 550.38 240.8 551.53 241.03 552.67C241.26 553.81 241.43 554.67 241.64 555.67C241.88 556.81 242.12 557.94 242.38 559.07C242.64 560.2 242.83 561.07 243.06 562C243.32 563.13 243.6 564.25 243.88 565.36C244.16 566.47 244.37 567.31 244.63 568.27C244.92 569.39 245.22 570.5 245.53 571.61C245.8 572.61 246.06 573.53 246.34 574.48C246.66 575.59 246.99 576.69 247.34 577.79C247.69 578.89 247.91 579.68 248.21 580.63C248.51 581.58 248.92 582.82 249.28 583.91C249.59 584.84 249.89 585.78 250.21 586.71L251.36 589.98L252.36 592.72C252.77 593.81 253.19 594.9 253.61 595.99C253.95 596.88 254.29 597.78 254.61 598.67C255.05 599.76 255.5 600.86 255.95 601.95C256.31 602.81 256.66 603.68 257.03 604.54C257.51 605.66 258.03 606.76 258.49 607.87C258.85 608.7 259.21 609.52 259.58 610.34C260.1 611.5 260.65 612.64 261.19 613.78C261.55 614.55 261.9 615.32 262.27 616.08C262.87 617.34 263.5 618.58 264.13 619.83L265.08 621.73C267 625.47 269 629.16 271.08 632.8C271.44 633.42 271.81 634.03 272.17 634.64C272.87 635.84 273.56 637.04 274.28 638.22C274.72 638.94 275.17 639.64 275.61 640.36C276.27 641.43 276.93 642.5 277.61 643.55C278.09 644.31 278.61 645.05 279.08 645.79C279.73 646.79 280.39 647.79 281.08 648.79C281.59 649.55 282.08 650.31 282.64 651.07C283.3 652.07 283.96 652.99 284.64 653.95C285.18 654.72 285.74 655.48 286.29 656.25C286.84 657.02 287.63 658.1 288.29 659.02C288.95 659.94 289.44 660.55 290.01 661.31L292.08 664.01C292.67 664.77 293.27 665.52 293.87 666.27C294.47 667.02 295.28 668.03 295.99 668.9C296.7 669.77 297.22 670.39 297.84 671.13C298.46 671.87 299.28 672.85 300.01 673.7C300.74 674.55 301.28 675.17 301.92 675.9L304.14 678.4C304.79 679.13 305.45 679.84 306.14 680.56L307.29 681.81C310.19 683.73 238.38 542.51 304.78 440.73C311.7 440.33 319 439.94 326.66 439.38Z" fill="#C683B4"/>
<path d="M657.943 378.93C657.943 378.93 655.842 399.74 607.312 407.15C630.423 408.75 655.053 406.69 678.693 397.64C681.913 401.25 657.943 378.93 657.943 378.93Z" fill="#C683B4"/>
<path d="M304.739 441C304.739 441 293.739 442.14 273.969 439.11Z" fill="#D69AC7"/>
<path d="M305.349 447C304.839 447.08 304.539 447.11 304.159 447.15C303.779 447.19 303.449 447.22 303.089 447.25C302.389 447.25 301.699 447.33 301.009 447.33C299.639 447.33 298.279 447.33 296.929 447.17C294.238 446.941 291.566 446.533 288.929 445.95C287.619 445.66 286.319 445.36 285.029 444.95C283.727 444.615 282.448 444.198 281.199 443.7C278.511 442.648 276.05 441.09 273.949 439.11C275.266 438.441 276.642 437.895 278.059 437.48C279.355 437.092 280.674 436.788 282.009 436.57C284.599 436.15 287.129 436.02 289.649 435.78C292.169 435.54 294.649 435.39 297.099 435.25C298.319 435.17 299.539 435.13 300.729 435.08H302.509C302.799 435.08 303.099 435.08 303.369 435.08C303.639 435.08 303.969 435.08 304.099 435.08L305.349 447Z" fill="#592D3D"/>
<path d="M677.001 396.19C677.001 396.19 666.291 381.89 636.621 365.19Z" fill="#D69AC7"/>
<path d="M672.142 399.78L670.372 397.87L668.372 395.75C666.982 394.34 665.552 392.9 664.102 391.5C661.182 388.68 658.152 385.88 655.102 383.1C652.052 380.32 648.802 377.66 645.672 374.78C644.112 373.34 642.542 371.87 641.042 370.26C639.461 368.665 637.995 366.961 636.652 365.16C638.901 365.433 641.124 365.881 643.302 366.5C645.422 367.131 647.505 367.879 649.542 368.74C651.542 369.63 653.542 370.57 655.452 371.65C657.362 372.73 659.292 373.78 661.172 374.94C664.955 377.248 668.574 379.814 672.002 382.62C673.712 384.07 675.432 385.53 677.002 387.15C677.822 387.94 678.612 388.78 679.392 389.65C679.782 390.1 680.172 390.52 680.552 391C680.932 391.48 681.272 391.89 681.772 392.59L672.142 399.78Z" fill="#592D3D"/>
<path d="M421.521 244.56C335.161 273.62 263.781 346.74 245.061 429.8C213.001 556.34 262.891 634 307.171 681.6C311.541 686.3 237.711 543.34 304.741 440.6C365.841 438.28 457.161 426.22 500.521 377.74C496.181 398.87 484.001 415 486.001 418.18C488.881 422.69 524.191 412.65 533.841 394.64L534.671 391.03C569.391 403.61 626.431 417.62 678.671 397.64C801.811 535.94 691.291 689 700.301 679C744.783 630.004 769.387 566.176 769.301 500C769.301 413.58 725.021 351.11 725.021 351.11C694.501 296.7 641.501 259.24 580.221 242" stroke="#592D3D" stroke-width="12" stroke-miterlimit="10"/>
<path d="M520.11 249.17C505.866 249.987 491.682 251.633 477.63 254.1C474.14 254.78 470.63 255.52 467.19 256.16C463.75 256.8 460.29 257.77 456.84 258.57L446.57 261.29C443.18 262.29 439.81 263.37 436.43 264.4C422.945 268.748 409.772 274.006 397 280.14C384.164 286.369 371.724 293.382 359.75 301.14C370.414 291.409 382.188 282.971 394.83 276C407.476 268.928 420.795 263.133 434.59 258.7C438.06 257.7 441.52 256.62 445.01 255.65C448.5 254.68 452.01 253.83 455.55 253.06C459.09 252.29 462.65 251.65 466.21 251.06C469.77 250.47 473.36 249.98 476.95 249.54C491.276 247.772 505.756 247.648 520.11 249.17Z" fill="white"/>
<path d="M529.832 233.83C534.892 232.62 540.07 231.976 545.272 231.91C547.832 231.85 550.382 231.91 552.942 232.04C555.502 232.17 558.062 232.34 560.622 232.56C565.776 233.007 570.9 233.741 575.972 234.76C581.106 235.757 586.15 237.176 591.052 239L587.152 250.35C582.542 248.97 577.912 247.57 573.212 246.28C568.512 244.99 563.762 243.77 558.962 242.57L551.712 240.81C549.282 240.24 546.842 239.66 544.412 239C539.405 237.723 534.525 235.992 529.832 233.83Z" fill="#592D3D"/>
<path d="M412.449 241.49C416.891 239.772 421.453 238.385 426.099 237.34C430.721 236.285 435.394 235.467 440.099 234.89C442.439 234.61 444.779 234.36 447.099 234.18C449.419 234 451.789 233.85 454.099 233.84C458.903 233.767 463.697 234.298 468.369 235.42C464.171 237.652 459.775 239.494 455.239 240.92C453.049 241.65 450.849 242.29 448.649 242.92L442.099 244.85C437.759 246.17 433.429 247.45 429.159 248.85C424.889 250.25 420.639 251.57 416.369 252.85L412.449 241.49Z" fill="#592D3D"/>
<path d="M514.262 239.09C517.487 239.09 520.102 236.475 520.102 233.25C520.102 230.025 517.487 227.41 514.262 227.41C511.037 227.41 508.422 230.025 508.422 233.25C508.422 236.475 511.037 239.09 514.262 239.09Z" fill="#592D3D"/>
<path d="M497.989 237.38C500.27 237.38 502.119 235.531 502.119 233.25C502.119 230.969 500.27 229.12 497.989 229.12C495.708 229.12 493.859 230.969 493.859 233.25C493.859 235.531 495.708 237.38 497.989 237.38Z" fill="#592D3D"/>
<path d="M603.101 452.29C614.145 449.476 625.331 447.253 636.611 445.63L634.001 446C647.172 444.081 660.538 443.92 673.751 445.52L671.091 445.16C674.371 445.61 677.631 446.16 680.911 446.57L678.251 446.22C688.204 447.586 698.054 449.624 707.731 452.32C712.731 453.72 718.841 450.6 720.031 445.32C720.685 442.762 720.321 440.051 719.015 437.757C717.709 435.462 715.564 433.764 713.031 433.02C701.687 429.913 690.129 427.647 678.451 426.24L681.101 426.6C670.073 424.642 658.852 423.988 647.671 424.65C636.545 425.382 625.484 426.899 614.571 429.19C608.961 430.33 603.381 431.63 597.811 433C592.731 434.25 589.201 440.26 590.811 445.3C591.56 447.83 593.259 449.972 595.552 451.277C597.845 452.582 600.554 452.949 603.111 452.3L603.101 452.29Z" fill="#592D3D"/>
<path d="M261.262 502.22L275.392 500.74L309.062 497.22L350.002 492.93L385.182 489.24C390.902 488.65 396.622 488.07 402.342 487.45H402.582C405.312 487.17 407.652 486.53 409.652 484.52C411.527 482.645 412.58 480.102 412.58 477.45C412.58 474.799 411.527 472.255 409.652 470.38C407.822 468.69 405.172 467.18 402.582 467.45L388.452 468.93L354.782 472.46L313.782 476.75L278.602 480.43C272.882 481.03 267.162 481.61 261.442 482.23H261.202C258.472 482.52 256.132 483.16 254.132 485.16C253.202 486.089 252.465 487.192 251.961 488.406C251.458 489.62 251.199 490.921 251.199 492.235C251.199 493.549 251.458 494.851 251.961 496.065C252.465 497.279 253.202 498.381 254.132 499.31C255.962 500.99 258.612 502.51 261.202 502.23L261.262 502.22Z" fill="#592D3D"/>
</g>
</svg>
