<svg width="1000" height="990" viewBox="0 0 1000 990" fill="none" xmlns="http://www.w3.org/2000/svg">
<mask id="mask0_22_3825" style="mask-type:luminance" maskUnits="userSpaceOnUse" x="0" y="0" width="1000" height="966">
<path d="M1000 0H0V718.31H179.2C217.58 860.69 346.65 965.41 500 965.41C653.35 965.41 782.42 860.69 820.8 718.31H1000V0Z" fill="white"/>
</mask>
<g mask="url(#mask0_22_3825)">
<path d="M500.001 962.602C683.603 962.602 832.443 813.763 832.443 630.16C832.443 446.557 683.603 297.718 500.001 297.718C316.398 297.718 167.559 446.557 167.559 630.16C167.559 813.763 316.398 962.602 500.001 962.602Z" fill="#85C5E5"/>
<path d="M225.35 498C408.77 575.95 596.49 577.06 781.29 498C798.82 490.5 798.72 358.13 781.29 364.19C600.82 427.02 409.96 427.69 225.35 364.19C203.39 356.6 205.53 489.53 225.35 498Z" fill="#592D3D" stroke="#592D3D" stroke-width="12" stroke-miterlimit="10"/>
<path d="M610 758.72C700.76 758.72 682 872.96 682.87 1000H610V758.72Z" fill="#FBE8B3"/>
<path d="M632.74 831.87L610 870L621.38 1000H653.14C653.91 819.73 632.74 831.87 632.74 831.87Z" fill="#EDD494"/>
<path d="M233.25 500C233.25 352.68 352.68 233.25 500 233.25C647.32 233.25 766.75 352.68 766.75 500C766.788 539.694 757.949 578.895 740.88 614.731C723.811 650.568 698.945 682.135 668.1 707.12C662.627 711.573 656.98 715.803 651.16 719.81C591 758 515 758 446.39 751.89C439.73 750.89 433.09 749.63 426.5 748.18C400.17 742.38 374.68 733.43 351.13 720.38C345.31 716.793 339.667 712.92 334.2 708.76C328.706 704.576 323.432 700.11 318.4 695.38C313.64 690.96 309.044 686.367 304.61 681.6C258.667 632.299 233.161 567.39 233.25 500Z" fill="#FBE8B3"/>
<path d="M269.612 634.48C270.312 635.68 271.002 636.88 271.722 638.06C272.152 638.78 272.602 639.48 273.052 640.2C273.712 641.27 274.372 642.34 275.052 643.39C275.532 644.15 276.052 644.89 276.512 645.63C277.172 646.63 277.832 647.63 278.512 648.63C279.022 649.39 279.512 650.15 280.072 650.91C280.732 651.91 281.392 652.83 282.072 653.79C282.612 654.56 283.172 655.32 283.722 656.09C284.272 656.86 285.062 657.94 285.722 658.86C286.382 659.78 286.872 660.39 287.452 661.15C288.032 661.91 288.822 662.95 289.522 663.85C290.222 664.75 290.712 665.36 291.312 666.11C291.912 666.86 292.722 667.87 293.432 668.74C294.142 669.61 294.662 670.23 295.282 670.97C295.902 671.71 296.722 672.69 297.452 673.54C298.182 674.39 298.722 675.01 299.362 675.74L301.582 678.24C302.232 678.97 302.892 679.68 303.582 680.4C304.442 681.34 305.312 682.27 306.182 683.19L307.392 684.47C308.682 685.81 309.982 687.15 311.302 688.47L311.562 688.74C312.852 690.02 314.162 691.29 315.472 692.55L317.052 694.05C318.002 694.94 318.952 695.83 319.912 696.71L321.072 697.77C322.072 698.71 323.162 699.63 324.212 700.55C327.478 703.397 330.812 706.127 334.212 708.74C339.672 712.9 345.315 716.773 351.142 720.36C374.692 733.36 400.142 742.36 426.512 748.16C433.102 749.61 439.742 750.86 446.402 751.87C488.502 755.62 533.402 757.05 575.682 748.79C508.452 729 185.592 612.74 388.802 257.48C386.082 258.73 383.402 260.02 380.742 261.36L380.152 261.65C378.932 262.26 377.712 262.89 376.502 263.53L375.502 264.06C371.742 266.06 368.022 268.13 364.372 270.29L363.472 270.82C362.312 271.51 361.162 272.21 360.012 272.92L359.142 273.46C355.568 275.693 352.052 278.003 348.592 280.39L347.512 281.14C346.422 281.9 345.352 282.66 344.282 283.43L343.622 283.9C341.442 285.493 339.288 287.107 337.162 288.74L336.542 289.22C335.542 290 334.542 290.8 333.542 291.61L332.372 292.55C331.372 293.36 330.372 294.17 329.372 295C327.262 296.75 325.182 298.55 323.132 300.37L321.992 301.37L319.302 303.82L318.002 305C315.148 307.667 312.358 310.39 309.632 313.17L308.252 314.58C307.462 315.4 306.672 316.22 305.892 317.05C305.432 317.54 304.972 318.05 304.522 318.53C303.148 319.997 301.795 321.483 300.462 322.99C300.012 323.5 299.552 323.99 299.102 324.53C298.392 325.34 297.692 326.16 296.992 326.98L295.482 328.77C294.802 329.58 294.122 330.39 293.482 331.21C292.942 331.87 292.402 332.54 291.872 333.21C290.802 334.54 289.752 335.87 288.712 337.21C288.172 337.91 287.632 338.61 287.102 339.32C286.572 340.03 285.902 340.91 285.312 341.72C284.722 342.53 284.242 343.17 283.722 343.9C283.202 344.63 282.592 345.45 282.042 346.23C281.095 347.563 280.162 348.913 279.242 350.28C278.742 351.01 278.242 351.76 277.752 352.5C277.262 353.24 276.652 354.16 276.112 355L274.622 357.31L272.942 360.02C272.512 360.71 272.082 361.4 271.662 362.09C270.772 363.55 269.912 365.02 269.052 366.49L267.832 368.65C267.292 369.6 266.752 370.56 266.222 371.52C265.822 372.25 265.422 372.98 265.032 373.71C264.392 374.9 263.762 376.1 263.132 377.3L261.932 379.64C261.292 380.92 260.652 382.19 260.022 383.48C259.692 384.17 259.352 384.87 259.022 385.57C258.502 386.66 258.022 387.76 257.492 388.86C257.182 389.52 256.882 390.18 256.582 390.86C255.842 392.507 255.118 394.173 254.412 395.86C254.192 396.38 253.982 396.91 253.762 397.43C253.232 398.7 252.712 399.97 252.202 401.25C251.932 401.92 251.672 402.59 251.412 403.25C250.912 404.51 250.412 405.78 249.962 407.05C249.752 407.6 249.542 408.15 249.342 408.7C248.715 410.453 248.098 412.207 247.492 413.96L246.932 415.66C246.492 416.993 246.062 418.327 245.642 419.66L245.042 421.57C244.572 423.11 244.112 424.65 243.672 426.2C243.572 426.53 243.472 426.86 243.382 427.2C242.862 429.04 242.362 430.887 241.882 432.74C241.722 433.33 241.582 433.93 241.432 434.52C241.082 435.91 240.742 437.3 240.432 438.7L240.012 440.45C239.582 442.35 239.162 444.25 238.772 446.16L238.622 446.93C238.282 448.63 237.948 450.33 237.622 452.03C237.512 452.64 237.412 453.24 237.302 453.85C237.042 455.34 236.792 456.85 236.562 458.35C236.482 458.86 236.392 459.35 236.322 459.87C236.022 461.82 235.752 463.78 235.492 465.75L235.342 467.05C235.142 468.64 234.962 470.24 234.792 471.84C234.732 472.44 234.662 473.04 234.602 473.65C234.442 475.33 234.292 477.02 234.152 478.71C234.152 479.06 234.092 479.4 234.072 479.71C233.925 481.71 233.795 483.727 233.682 485.76C233.682 486.29 233.682 486.83 233.612 487.36C233.545 488.933 233.485 490.503 233.432 492.07C233.432 492.66 233.432 493.25 233.432 493.84C233.432 495.89 233.352 497.95 233.352 500.01C233.352 500.01 233.352 500.08 233.352 500.11C233.352 502.33 233.352 504.53 233.432 506.73C233.432 507.49 233.492 508.25 233.512 509.01C233.562 510.48 233.612 511.95 233.682 513.42C233.682 514.31 233.792 515.19 233.842 516.08C233.922 517.41 233.992 518.74 234.092 520.08C234.162 521.08 234.252 521.97 234.332 522.91C234.442 524.17 234.542 525.43 234.672 526.68C234.762 527.68 234.882 528.62 234.982 529.59C235.122 530.8 235.252 532.02 235.402 533.23C235.522 534.23 235.662 535.23 235.792 536.18C235.952 537.36 236.112 538.55 236.292 539.73C236.442 540.73 236.602 541.73 236.762 542.73C236.942 543.89 237.132 545.06 237.332 546.22C237.512 547.22 237.692 548.22 237.882 549.22C238.092 550.37 238.312 551.52 238.532 552.66C238.752 553.8 238.942 554.66 239.152 555.66C239.392 556.8 239.632 557.93 239.892 559.06C240.152 560.19 240.332 561.06 240.572 561.99C240.832 563.12 241.112 564.24 241.392 565.35C241.672 566.46 241.882 567.3 242.132 568.26C242.432 569.38 242.732 570.49 243.042 571.6C243.302 572.6 243.572 573.52 243.852 574.47C244.172 575.58 244.502 576.68 244.852 577.78C245.202 578.88 245.432 579.67 245.732 580.62C246.032 581.57 246.432 582.81 246.792 583.9C247.152 584.99 247.412 585.77 247.732 586.7C248.112 587.79 248.492 588.88 248.882 589.97C249.212 590.88 249.532 591.8 249.882 592.71L251.122 595.98C251.472 596.87 251.812 597.77 252.122 598.66C252.562 599.75 253.012 600.85 253.462 601.94C253.822 602.8 254.172 603.67 254.542 604.53C255.012 605.65 255.542 606.75 255.992 607.86C256.362 608.68 256.722 609.51 257.092 610.33C257.612 611.49 258.162 612.63 258.692 613.77L259.772 616.07C260.382 617.33 261.012 618.57 261.642 619.82C261.962 620.45 262.262 621.09 262.592 621.72C264.512 625.46 266.512 629.15 268.592 632.79C268.882 633.26 269.252 633.87 269.612 634.48Z" fill="#EDD494"/>
<path d="M233.25 500C233.25 352.68 352.68 233.25 500 233.25C647.32 233.25 766.75 352.68 766.75 500C766.788 539.694 757.949 578.895 740.88 614.731C723.811 650.568 698.945 682.135 668.1 707.12C662.627 711.573 656.98 715.803 651.16 719.81C591 758 515 758 446.39 751.89C439.73 750.89 433.09 749.63 426.5 748.18C400.17 742.38 374.68 733.43 351.13 720.38C345.31 716.793 339.667 712.92 334.2 708.76C328.706 704.576 323.432 700.11 318.4 695.38C313.64 690.96 309.044 686.367 304.61 681.6C258.667 632.299 233.161 567.39 233.25 500Z" stroke="#592D3D" stroke-width="12" stroke-miterlimit="10"/>
<path d="M386.122 758.72C295.352 758.72 314.122 872.96 313.252 1000H386.122V758.72Z" fill="#FBE8B3"/>
<path d="M367.232 831.87L390.002 870L378.612 1000H346.882C346.072 819.73 367.232 831.87 367.232 831.87Z" fill="#EDD494"/>
<path d="M619.472 1070H380.532C377.011 1070 373.636 1068.6 371.148 1066.11C368.659 1063.62 367.262 1060.24 367.262 1056.72V772C367.262 768.48 368.659 765.103 371.148 762.613C373.636 760.123 377.011 758.723 380.532 758.72H613.762C626.852 758.72 632.762 766.38 632.762 778.6V1056.68C632.767 1058.43 632.427 1060.16 631.761 1061.78C631.096 1063.39 630.117 1064.86 628.883 1066.1C627.648 1067.34 626.181 1068.32 624.566 1068.99C622.951 1069.66 621.22 1070 619.472 1070Z" fill="#FBE8B3"/>
<path d="M629.052 766.62C628.055 765.394 627.212 764.051 626.542 762.62C624.141 760.738 621.284 759.527 618.262 759.11C616.773 758.879 615.268 758.766 613.762 758.77H380.532C377.02 758.773 373.652 760.166 371.165 762.645C368.679 765.125 367.275 768.488 367.262 772C396.262 782.42 450.552 788.24 500.002 788.24C563.062 788.24 604.382 778.89 629.052 766.62Z" fill="#EDD494"/>
<path d="M610 758.72C700.76 758.72 682 872.96 682.87 1000H632.74" stroke="#592D3D" stroke-width="12" stroke-miterlimit="10" stroke-linecap="square"/>
<path d="M386.122 758.72C295.352 758.72 314.122 872.96 313.252 1000H363.322" stroke="#592D3D" stroke-width="12" stroke-miterlimit="10" stroke-linecap="square"/>
<path d="M380.531 758.82L613.761 758.72" stroke="#592D3D" stroke-width="12" stroke-miterlimit="10"/>
<path d="M380.532 1070H497.152C388.002 1070 396.242 838.82 367.262 838.82V1056.68C367.257 1058.43 367.596 1060.16 368.26 1061.77C368.925 1063.39 369.901 1064.86 371.134 1066.09C372.366 1067.33 373.831 1068.31 375.444 1068.98C377.056 1069.65 378.785 1070 380.532 1070Z" fill="#EDD494"/>
<path d="M361.259 860.85C361.069 857.18 361.149 853.51 361.309 849.85C361.469 846.19 361.779 842.5 362.169 838.85C362.369 837.01 362.569 835.18 362.819 833.34C363.069 831.5 363.309 829.67 363.669 827.83C364.378 824.022 365.585 820.324 367.259 816.83C368.933 820.324 370.14 824.022 370.849 827.83C371.209 829.67 371.469 831.5 371.699 833.34C371.929 835.18 372.149 837.01 372.349 838.85C372.729 842.52 373.029 846.19 373.199 849.85C373.369 853.51 373.449 857.19 373.259 860.85H361.259Z" fill="#592D3D"/>
<path d="M632.742 870V878C633.002 912 633.002 947 632.742 980.75C632.742 983.62 632.742 986.47 632.742 989.28V1056.69C632.746 1058.44 632.405 1060.16 631.74 1061.78C631.075 1063.39 630.099 1064.86 628.866 1066.1C627.634 1067.33 626.17 1068.31 624.558 1068.98C622.946 1069.65 621.217 1070 619.472 1070H380.532C377.011 1070 373.636 1068.6 371.148 1066.11C368.659 1063.62 367.262 1060.24 367.262 1056.72V998.52C367.262 996.01 367.262 993.45 367.262 990.87C367.012 956 367.012 921 367.262 885.57V860.85" stroke="#592D3D" stroke-width="12" stroke-miterlimit="10"/>
<path d="M626.74 870C626.55 865.83 626.64 861.65 626.8 857.47C626.96 853.29 627.27 849.12 627.65 844.94C627.85 842.85 628.06 840.76 628.3 838.67C628.54 836.58 628.79 834.5 629.15 832.41C629.847 828.106 631.052 823.9 632.74 819.88C634.428 823.9 635.633 828.106 636.33 832.41C636.69 834.5 636.95 836.59 637.18 838.67C637.41 840.75 637.63 842.85 637.83 844.94C638.21 849.12 638.52 853.29 638.68 857.47C638.84 861.65 638.93 865.83 638.74 870H626.74Z" fill="#592D3D"/>
<path d="M570.68 842.45C570.9 833 582.9 829 588.9 835C589.875 835.995 590.644 837.173 591.164 838.466C591.684 839.759 591.944 841.141 591.93 842.535C591.915 843.928 591.627 845.305 591.08 846.587C590.534 847.868 589.74 849.03 588.745 850.005C587.749 850.98 586.572 851.75 585.279 852.269C583.986 852.789 582.603 853.05 581.21 853.035C579.817 853.021 578.44 852.732 577.158 852.186C575.876 851.639 574.715 850.845 573.74 849.85C572.766 848.88 571.994 847.727 571.469 846.456C570.944 845.186 570.675 843.825 570.68 842.45Z" fill="#592D3D"/>
<path d="M408.109 842.15C407.899 834 416.899 830 422.899 833C430.899 836 430.899 847 422.899 852C418.899 854 414.899 852 411.149 849.52C410.182 848.552 409.416 847.403 408.894 846.138C408.372 844.874 408.106 843.518 408.109 842.15Z" fill="#592D3D"/>
<path d="M500 831.77C500.715 833.655 501.218 835.614 501.5 837.61C501.797 839.543 501.961 841.494 501.99 843.45L502.29 855.14C502.38 859.03 502.5 862.93 502.54 866.83L502.71 878.5C502.94 894.07 502.93 909.66 502.99 925.24C503.05 940.82 503.17 956.4 502.99 971.98C502.9 979.77 502.69 987.56 502.46 995.35C502.36 999.24 502.17 1003.14 501.79 1007.03C501.45 1010.96 500.859 1014.87 500.02 1018.72C499.181 1014.87 498.59 1010.96 498.25 1007.03C497.87 1003.14 497.68 999.24 497.58 995.35C497.35 987.56 497.14 979.77 497.05 971.98C496.85 956.4 497.05 940.82 497.05 925.24C497.05 909.66 497.05 894.09 497.23 878.51L497.4 866.81L497.73 855.13L498.06 843.45C498.097 841.494 498.264 839.543 498.56 837.61C498.822 835.616 499.305 833.657 500 831.77Z" fill="#EDD494"/>
<path d="M425.219 883C426.702 882.295 428.272 881.791 429.889 881.5C431.433 881.21 432.998 881.043 434.569 881L443.919 880.67L462.619 880.26C475.079 880.07 487.529 880.02 499.999 879.99C512.469 879.96 524.929 879.83 537.389 879.99C543.619 880.08 549.849 880.29 556.089 880.52C559.199 880.63 562.319 880.82 565.429 881.19C568.587 881.54 571.713 882.135 574.779 882.97C571.715 883.81 568.588 884.402 565.429 884.74C562.319 885.12 559.199 885.31 556.089 885.41C549.849 885.64 543.619 885.84 537.389 885.93C524.929 886.12 512.469 885.93 499.999 885.93C487.529 885.93 475.069 885.93 462.599 885.78C456.369 885.72 450.139 885.52 443.919 885.28L434.569 884.94C433.001 884.898 431.44 884.731 429.899 884.44C428.282 884.17 426.708 883.686 425.219 883Z" fill="#EDD494"/>
<path d="M442.41 914.38C443.591 913.817 444.853 913.442 446.15 913.27C447.349 913.101 448.561 913.05 449.77 913.12C452.16 913.22 454.55 913.28 456.94 913.33C461.72 913.44 466.5 913.48 471.28 913.5C480.91 913.5 490.37 913.58 500.04 913.29C509.71 913 519.3 912.86 528.92 912.9C533.73 912.9 538.54 913.03 543.34 913.14C545.757 913.172 548.17 913.329 550.57 913.61C553.037 913.882 555.472 914.395 557.84 915.14C555.528 916.048 553.129 916.718 550.68 917.14C548.296 917.569 545.888 917.857 543.47 918C538.65 918.35 533.83 918.65 529.02 918.82C519.38 919.18 509.75 919.14 500.14 919.27C495.33 919.27 490.53 919.49 485.66 919.37C480.79 919.25 475.97 919.24 471.14 919.06C466.31 918.88 461.46 918.48 456.64 917.98C454.22 917.71 451.82 917.41 449.41 917.08C448.193 916.931 446.996 916.649 445.84 916.24C444.599 915.82 443.439 915.191 442.41 914.38Z" fill="#EDD494"/>
<path d="M438.93 949.87C440.116 949.172 441.405 948.666 442.75 948.37C444.003 948.079 445.283 947.914 446.57 947.88L454.2 947.56C459.29 947.38 464.39 947.23 469.48 947.15C479.66 947 489.84 947 500 947C510.16 947 520.36 946.83 530.54 947C535.63 947.09 540.72 947.3 545.81 947.53C548.363 947.616 550.91 947.836 553.44 948.19C556.045 948.547 558.61 949.154 561.1 950C558.618 950.831 556.063 951.423 553.47 951.77C550.937 952.132 548.387 952.356 545.83 952.44C540.74 952.67 535.65 952.88 530.56 952.97C520.38 953.17 510.19 953.03 500.01 952.97C489.83 952.91 479.65 952.91 469.47 952.72C464.38 952.62 459.28 952.44 454.19 952.23L446.56 951.86C445.273 951.821 443.993 951.653 442.74 951.36C441.398 951.07 440.112 950.567 438.93 949.87Z" fill="#EDD494"/>
<path d="M680.7 905.78C680.9 868.68 679.49 835.71 672.96 810.39C662.88 785.04 644.78 769.92 612.84 769.92L635.69 904.39C635.69 904.39 658.2 914.68 680.7 905.78Z" fill="#EDD494"/>
<path d="M689.299 895.23C688.161 896.168 686.924 896.98 685.609 897.65" stroke="#592D3D" stroke-width="12" stroke-miterlimit="10" stroke-linecap="square"/>
<path d="M328.999 809.32C322.179 834.89 320.999 868.45 321.259 906.32C341.159 914.87 371.689 904.17 371.689 904.17L388.999 771.89C358.139 771.89 339.739 785.79 328.999 809.32Z" fill="#EDD494"/>
<path d="M616.662 758.16L578.222 758.26C578.222 811.98 502.892 869.4 502.892 869.4C502.892 869.4 422.092 808.82 422.092 758.26L383.432 758.16C379.912 758.16 376.536 759.558 374.046 762.046C371.555 764.534 370.155 767.91 370.152 771.43V1056.12C370.155 1059.64 371.555 1063.02 374.046 1065.5C376.536 1067.99 379.912 1069.39 383.432 1069.39H622.362C625.882 1069.39 629.257 1067.99 631.746 1065.5C634.234 1063.01 635.632 1059.64 635.632 1056.12V778C635.632 765.82 629.752 758.16 616.662 758.16Z" fill="#D67070"/>
<path d="M612.84 758.16C676.38 758.16 686.24 814.16 686.74 891.32C668.15 902.94 637.83 892.64 637.83 892.64L612.84 758.16Z" fill="#D67070"/>
<path d="M635.63 831.31L612.84 869.4L624.23 999.4H635.83V893.78L653.11 896.67C647.49 824.5 635.63 831.31 635.63 831.31Z" fill="#C46565"/>
<path d="M389.002 758.16C327.222 758.16 313.182 811.95 312.152 885.82C331.152 905.67 370.102 890.4 370.102 890.4L389.002 758.16Z" fill="#D67070"/>
<path d="M370.122 831.31V890.4L352.812 894.7C358.483 824.63 370.122 831.31 370.122 831.31Z" fill="#C46565"/>
<path d="M612.84 758.16C680.26 758.16 691.29 814.44 691.74 891.94C665.54 904.36 637.83 892.64 637.83 892.64" stroke="#592D3D" stroke-width="12" stroke-miterlimit="10" stroke-linecap="square"/>
<path d="M389 758.16C322.21 758.16 308.92 812.85 308.25 888.87C328.84 903.66 370.1 890.4 370.1 890.4" stroke="#592D3D" stroke-width="12" stroke-miterlimit="10" stroke-linecap="square"/>
<path d="M383.429 1069.39H499.999C390.809 1069.39 399.089 838.25 370.109 838.25V1056.12C370.111 1057.87 370.456 1059.6 371.127 1061.21C371.797 1062.82 372.779 1064.29 374.017 1065.52C375.254 1066.75 376.722 1067.73 378.337 1068.39C379.953 1069.06 381.683 1069.4 383.429 1069.39Z" fill="#C46565"/>
<path d="M364.149 860.29C363.959 856.62 364.039 852.94 364.209 849.29C364.379 845.64 364.679 841.95 365.059 838.29C365.259 836.46 365.469 834.62 365.709 832.78C365.949 830.94 366.199 829.11 366.559 827.28C367.267 823.471 368.474 819.773 370.149 816.28C371.824 819.773 373.031 823.471 373.739 827.28C374.099 829.11 374.359 830.95 374.589 832.78C374.819 834.61 375.039 836.46 375.239 838.29C375.626 841.97 375.912 845.637 376.099 849.29C376.259 852.96 376.339 856.64 376.099 860.29H364.149Z" fill="#592D3D"/>
<path d="M635.632 869.4V877.4C635.892 911.4 635.892 946.4 635.632 980.16C635.632 983.03 635.632 985.88 635.632 988.69V1056.1C635.632 1059.62 634.234 1062.99 631.745 1065.48C629.257 1067.97 625.881 1069.37 622.362 1069.37H383.432C379.912 1069.37 376.535 1067.97 374.045 1065.48C371.555 1063 370.155 1059.62 370.152 1056.1V990.3C369.892 955.44 369.892 920.44 370.152 885V860.29" stroke="#592D3D" stroke-width="12" stroke-miterlimit="10"/>
<path d="M629.63 869.4C629.44 865.22 629.53 861.04 629.69 856.87C629.85 852.7 630.16 848.51 630.55 844.34C630.75 842.25 630.95 840.16 631.19 838.07C631.43 835.98 631.68 833.89 632.05 831.8C632.741 827.496 633.943 823.29 635.63 819.27C637.325 823.288 638.531 827.494 639.22 831.8C639.58 833.89 639.85 835.98 640.07 838.07C640.29 840.16 640.52 842.25 640.72 844.34C641.11 848.51 641.41 852.69 641.57 856.87C641.73 861.05 641.83 865.22 641.63 869.4H629.63Z" fill="#592D3D"/>
<path d="M383.43 758.26L616.66 758.16" stroke="#592D3D" stroke-width="12" stroke-miterlimit="10"/>
<path d="M310.719 891.94C311.857 892.972 313.089 893.896 314.399 894.7" stroke="#592D3D" stroke-width="12" stroke-miterlimit="10" stroke-linecap="square"/>
<path d="M677.59 882.13C675.509 883.367 673.222 884.22 670.84 884.65C668.465 885.113 666.049 885.327 663.63 885.29C661.221 885.247 658.821 884.986 656.46 884.51C655.28 884.29 654.12 883.94 652.97 883.64C651.82 883.34 650.69 882.86 649.59 882.4C650.8 882.4 651.98 882.57 653.15 882.67L656.67 882.96C657.84 882.96 659 883.16 660.17 883.17C661.34 883.18 662.5 883.28 663.66 883.29C665.98 883.34 668.3 883.29 670.66 883.11C672.99 882.943 675.305 882.616 677.59 882.13Z" fill="#592D3D"/>
<path d="M578.22 758.26C578.22 811.98 502.89 869.4 502.89 869.4C502.89 869.4 422.09 808.82 422.09 758.26" stroke="#592D3D" stroke-width="12" stroke-miterlimit="10"/>
<path opacity="0.15" d="M664.05 702.32C692.36 679.32 718.46 647.6 734.73 616.22C734.67 616.12 731.24 619.6 731.18 619.5C731.12 619.4 710.11 638.28 649.66 638C573.36 637.69 589.12 616.32 497.15 616.32C415.73 616.32 428.66 628.21 352 632.47C289.91 635.92 268.38 619.47 268.38 619.47L268.18 619.8C279.042 640.719 292.686 660.071 308.74 677.33C313.06 681.98 317.6 686.51 322.22 690.81C327.107 695.407 332.231 699.746 337.57 703.81C342.75 707.76 348.24 711.53 353.9 715.02C375.61 727.02 400.38 736.16 427.53 742.15C434.02 743.58 440.53 744.79 446.84 745.75C512.65 751.6 587.92 752.45 647.58 714.63C653.21 710.78 658.75 706.63 664.05 702.32Z" fill="black"/>
<path d="M311.512 663.32C313.821 663.32 315.692 661.449 315.692 659.14C315.692 656.832 313.821 654.96 311.512 654.96C309.204 654.96 307.332 656.832 307.332 659.14C307.332 661.449 309.204 663.32 311.512 663.32Z" fill="#592D3D"/>
<path d="M338.511 666.28C340.146 666.28 341.471 664.955 341.471 663.32C341.471 661.685 340.146 660.36 338.511 660.36C336.876 660.36 335.551 661.685 335.551 663.32C335.551 664.955 336.876 666.28 338.511 666.28Z" fill="#592D3D"/>
<path d="M401.05 710.94C402.685 710.94 404.01 709.615 404.01 707.98C404.01 706.345 402.685 705.02 401.05 705.02C399.415 705.02 398.09 706.345 398.09 707.98C398.09 709.615 399.415 710.94 401.05 710.94Z" fill="#592D3D"/>
<path d="M506.831 714.27C508.466 714.27 509.791 712.945 509.791 711.31C509.791 709.675 508.466 708.35 506.831 708.35C505.196 708.35 503.871 709.675 503.871 711.31C503.871 712.945 505.196 714.27 506.831 714.27Z" fill="#592D3D"/>
<path d="M517.632 707.46C519.267 707.46 520.592 706.135 520.592 704.5C520.592 702.865 519.267 701.54 517.632 701.54C515.997 701.54 514.672 702.865 514.672 704.5C514.672 706.135 515.997 707.46 517.632 707.46Z" fill="#592D3D"/>
<path d="M578.331 704.5C579.966 704.5 581.291 703.175 581.291 701.54C581.291 699.905 579.966 698.58 578.331 698.58C576.696 698.58 575.371 699.905 575.371 701.54C575.371 703.175 576.696 704.5 578.331 704.5Z" fill="#592D3D"/>
<path d="M581.292 686.11C582.927 686.11 584.252 684.785 584.252 683.15C584.252 681.515 582.927 680.19 581.292 680.19C579.657 680.19 578.332 681.515 578.332 683.15C578.332 684.785 579.657 686.11 581.292 686.11Z" fill="#592D3D"/>
<path d="M391.69 696.09C394.656 696.09 397.06 693.686 397.06 690.72C397.06 687.754 394.656 685.35 391.69 685.35C388.725 685.35 386.32 687.754 386.32 690.72C386.32 693.686 388.725 696.09 391.69 696.09Z" fill="#592D3D"/>
<path d="M600.442 709.54C601.596 709.54 602.532 708.604 602.532 707.45C602.532 706.296 601.596 705.36 600.442 705.36C599.287 705.36 598.352 706.296 598.352 707.45C598.352 708.604 599.287 709.54 600.442 709.54Z" fill="#592D3D"/>
<path d="M642.961 700.26C645.27 700.26 647.141 698.389 647.141 696.08C647.141 693.771 645.27 691.9 642.961 691.9C640.653 691.9 638.781 693.771 638.781 696.08C638.781 698.389 640.653 700.26 642.961 700.26Z" fill="#592D3D"/>
<path d="M462.559 728.22C464.867 728.22 466.739 726.349 466.739 724.04C466.739 721.731 464.867 719.86 462.559 719.86C460.25 719.86 458.379 721.731 458.379 724.04C458.379 726.349 460.25 728.22 462.559 728.22Z" fill="#592D3D"/>
<path d="M642.96 666.18C644.595 666.18 645.92 664.855 645.92 663.22C645.92 661.585 644.595 660.26 642.96 660.26C641.325 660.26 640 661.585 640 663.22C640 664.855 641.325 666.18 642.96 666.18Z" fill="#592D3D"/>
<path d="M654.05 676.02C655.685 676.02 657.01 674.695 657.01 673.06C657.01 671.425 655.685 670.1 654.05 670.1C652.415 670.1 651.09 671.425 651.09 673.06C651.09 674.695 652.415 676.02 654.05 676.02Z" fill="#592D3D"/>
<path d="M296.491 572.61V559.68C294.929 551.215 295.598 542.489 298.431 534.36C299.365 531.708 300.539 529.147 301.941 526.71C305.291 518 314.291 511 323.291 508C337.291 504 354.291 506 365.291 517C379.291 532 377.291 554 377.741 572.62" stroke="#592D3D" stroke-width="12" stroke-miterlimit="10" stroke-linecap="round"/>
<path d="M623.31 573C620.97 546.38 624.97 509.38 659.44 505.83C662.141 505.585 664.859 505.585 667.56 505.83C675.695 506.536 683.469 509.509 690 514.41C708 529.41 704 553.41 703.95 573.04" stroke="#592D3D" stroke-width="12" stroke-miterlimit="10" stroke-linecap="round"/>
<path d="M446.66 606.02H542.53" stroke="#592D3D" stroke-width="12" stroke-miterlimit="10" stroke-linecap="round"/>
<path d="M421.521 244.56C335.161 273.62 263.781 346.74 245.061 429.8C213.001 556.34 262.891 634 307.171 681.6C311.541 686.3 237.711 543.34 304.741 440.6C365.841 438.28 457.161 426.22 500.521 377.74C496.181 398.87 484.001 415 486.001 418.18C488.881 422.69 524.191 412.65 533.841 394.64L534.671 391.03C569.391 403.61 626.431 417.62 678.671 397.64C801.811 535.94 691.291 689 700.301 679C744.783 630.004 769.387 566.176 769.301 500C769.301 413.58 725.021 351.11 725.021 351.11C694.501 296.7 641.501 259.24 580.221 242" fill="#D69AC7"/>
<path d="M326.66 439.38C332.04 387.16 351.66 326.88 391.36 257.48C388.646 258.733 385.96 260.027 383.3 261.36L382.71 261.65C381.49 262.26 380.27 262.89 379.06 263.53L378.06 264.06C374.3 266.06 370.59 268.137 366.93 270.29L366.03 270.82C364.87 271.51 363.72 272.21 362.57 272.92L361.71 273.46C358.13 275.693 354.61 278.003 351.15 280.39L350.07 281.14C348.99 281.9 347.91 282.66 346.84 283.43L346.19 283.9C344.01 285.493 341.853 287.107 339.72 288.74L339.1 289.22C338.1 290 337.1 290.8 336.1 291.61L334.92 292.55C333.92 293.36 332.92 294.17 331.92 295C329.81 296.75 327.74 298.55 325.68 300.37L324.54 301.37L321.85 303.82L320.53 305C317.683 307.667 314.893 310.39 312.16 313.17L310.79 314.58C309.99 315.4 309.2 316.22 308.42 317.05L307.05 318.53C305.683 320.023 304.333 321.513 303 323C302.54 323.51 302.08 324 301.63 324.54C300.92 325.35 300.22 326.17 299.52 327C299.01 327.59 298.52 328.18 298.01 328.78C297.33 329.59 296.65 330.4 296.01 331.22C295.47 331.88 294.94 332.55 294.4 333.22C293.34 334.55 292.29 335.88 291.25 337.22C290.7 337.92 290.16 338.62 289.63 339.33C289.1 340.04 288.43 340.92 287.84 341.73L286.25 343.91C285.69 344.69 285.12 345.46 284.57 346.24C283.63 347.58 282.69 348.93 281.77 350.29C281.27 351.02 280.77 351.77 280.29 352.51C279.81 353.25 279.18 354.17 278.64 355.01C278.1 355.85 277.64 356.55 277.16 357.32C276.68 358.09 276.03 359.12 275.47 360.03C275.04 360.72 274.61 361.41 274.19 362.1C273.31 363.56 272.443 365.027 271.59 366.5C271.17 367.22 270.77 367.94 270.36 368.66C269.82 369.61 269.28 370.57 268.75 371.53C268.35 372.26 267.95 372.99 267.56 373.72C266.92 374.91 266.29 376.11 265.67 377.31C265.26 378.09 264.86 378.87 264.46 379.65C263.82 380.93 263.18 382.2 262.56 383.49C262.22 384.18 261.89 384.88 261.56 385.58C261.04 386.67 260.56 387.77 260.02 388.87L259.11 390.87C258.37 392.517 257.647 394.183 256.94 395.87C256.72 396.39 256.51 396.92 256.29 397.44C255.76 398.71 255.29 399.98 254.73 401.26C254.47 401.93 254.2 402.6 253.94 403.26C253.45 404.52 252.94 405.79 252.49 407.06L251.88 408.71C251.213 410.463 250.593 412.217 250.02 413.97L249.46 415.67C249.02 417.003 248.59 418.337 248.17 419.67C247.97 420.3 247.77 420.94 247.58 421.58C247.1 423.12 246.64 424.663 246.2 426.21C246.1 426.54 246 426.87 245.91 427.21C245.39 429.05 244.89 430.897 244.41 432.75L243.96 434.53C243.77 435.27 243.59 436.02 243.41 436.77C241.85 443.46 240.53 450 239.41 456.41C239.31 457.06 239.19 457.71 239.09 458.36L238.85 459.87C238.55 461.83 238.277 463.793 238.03 465.76C237.97 466.19 237.92 466.63 237.87 467.06C237.67 468.65 237.49 470.25 237.32 471.85L237.14 473.66C236.97 475.34 236.82 477.03 236.69 478.72L236.6 479.72C236.447 481.72 236.32 483.737 236.22 485.77C236.22 486.3 236.17 486.84 236.14 487.37C236.067 488.943 236.007 490.513 235.96 492.08C235.96 492.67 235.96 493.26 235.91 493.85C235.91 495.9 235.84 497.96 235.84 500.02V500.12C235.84 502.327 235.867 504.533 235.92 506.74C235.92 507.5 235.98 508.26 236 509.02C236.05 510.49 236.1 511.96 236.17 513.43C236.22 514.32 236.28 515.2 236.33 516.09C236.41 517.42 236.49 518.75 236.58 520.09C236.65 521.09 236.74 521.98 236.82 522.92C236.93 524.18 237.03 525.44 237.16 526.69C237.25 527.69 237.37 528.63 237.47 529.6C237.61 530.81 237.74 532.03 237.89 533.24C238.01 534.24 238.15 535.24 238.28 536.19C238.44 537.37 238.61 538.56 238.78 539.74C238.93 540.74 239.09 541.74 239.25 542.74C239.44 543.9 239.62 545.07 239.83 546.23C240 547.23 240.18 548.23 240.37 549.23C240.58 550.38 240.8 551.53 241.03 552.67C241.26 553.81 241.43 554.67 241.64 555.67C241.88 556.81 242.12 557.94 242.38 559.07C242.64 560.2 242.83 561.07 243.06 562C243.32 563.13 243.6 564.25 243.88 565.36C244.16 566.47 244.37 567.31 244.63 568.27C244.92 569.39 245.22 570.5 245.53 571.61C245.8 572.61 246.06 573.53 246.34 574.48C246.66 575.59 246.99 576.69 247.34 577.79C247.69 578.89 247.91 579.68 248.21 580.63C248.51 581.58 248.92 582.82 249.28 583.91C249.59 584.84 249.89 585.78 250.21 586.71L251.36 589.98L252.36 592.72C252.77 593.81 253.19 594.9 253.61 595.99C253.95 596.88 254.29 597.78 254.61 598.67C255.05 599.76 255.5 600.86 255.95 601.95C256.31 602.81 256.66 603.68 257.03 604.54C257.51 605.66 258.03 606.76 258.49 607.87C258.85 608.7 259.21 609.52 259.58 610.34C260.1 611.5 260.65 612.64 261.19 613.78C261.55 614.55 261.9 615.32 262.27 616.08C262.87 617.34 263.5 618.58 264.13 619.83L265.08 621.73C267 625.47 269 629.16 271.08 632.8C271.44 633.42 271.81 634.03 272.17 634.64C272.87 635.84 273.56 637.04 274.28 638.22C274.72 638.94 275.17 639.64 275.61 640.36C276.27 641.43 276.93 642.5 277.61 643.55C278.09 644.31 278.61 645.05 279.08 645.79C279.73 646.79 280.39 647.79 281.08 648.79C281.59 649.55 282.08 650.31 282.64 651.07C283.3 652.07 283.96 652.99 284.64 653.95C285.18 654.72 285.74 655.48 286.29 656.25C286.84 657.02 287.63 658.1 288.29 659.02C288.95 659.94 289.44 660.55 290.01 661.31L292.08 664.01C292.67 664.77 293.27 665.52 293.87 666.27C294.47 667.02 295.28 668.03 295.99 668.9C296.7 669.77 297.22 670.39 297.84 671.13C298.46 671.87 299.28 672.85 300.01 673.7C300.74 674.55 301.28 675.17 301.92 675.9L304.14 678.4C304.79 679.13 305.45 679.84 306.14 680.56L307.29 681.81C310.19 683.73 238.38 542.51 304.78 440.73C311.7 440.33 319 439.94 326.66 439.38Z" fill="#C683B4"/>
<path d="M657.943 378.93C657.943 378.93 655.842 399.74 607.312 407.15C630.423 408.75 655.053 406.69 678.693 397.64C681.913 401.25 657.943 378.93 657.943 378.93Z" fill="#C683B4"/>
<path d="M304.739 441C304.739 441 293.739 442.14 273.969 439.11Z" fill="#D69AC7"/>
<path d="M305.349 447C304.839 447.08 304.539 447.11 304.159 447.15C303.779 447.19 303.449 447.22 303.089 447.25C302.389 447.25 301.699 447.33 301.009 447.33C299.639 447.33 298.279 447.33 296.929 447.17C294.238 446.941 291.566 446.533 288.929 445.95C287.619 445.66 286.319 445.36 285.029 444.95C283.727 444.615 282.448 444.198 281.199 443.7C278.511 442.648 276.05 441.09 273.949 439.11C275.266 438.441 276.642 437.895 278.059 437.48C279.355 437.092 280.674 436.788 282.009 436.57C284.599 436.15 287.129 436.02 289.649 435.78C292.169 435.54 294.649 435.39 297.099 435.25C298.319 435.17 299.539 435.13 300.729 435.08H302.509C302.799 435.08 303.099 435.08 303.369 435.08C303.639 435.08 303.969 435.08 304.099 435.08L305.349 447Z" fill="#592D3D"/>
<path d="M677.001 396.19C677.001 396.19 666.291 381.89 636.621 365.19Z" fill="#D69AC7"/>
<path d="M672.142 399.78L670.372 397.87L668.372 395.75C666.982 394.34 665.552 392.9 664.102 391.5C661.182 388.68 658.152 385.88 655.102 383.1C652.052 380.32 648.802 377.66 645.672 374.78C644.112 373.34 642.542 371.87 641.042 370.26C639.461 368.665 637.995 366.961 636.652 365.16C638.901 365.433 641.124 365.881 643.302 366.5C645.422 367.131 647.505 367.879 649.542 368.74C651.542 369.63 653.542 370.57 655.452 371.65C657.362 372.73 659.292 373.78 661.172 374.94C664.955 377.247 668.574 379.814 672.002 382.62C673.712 384.07 675.432 385.53 677.002 387.15C677.822 387.94 678.612 388.78 679.392 389.65C679.782 390.1 680.172 390.52 680.552 391C680.932 391.48 681.272 391.89 681.772 392.59L672.142 399.78Z" fill="#592D3D"/>
<path d="M421.521 244.56C335.161 273.62 263.781 346.74 245.061 429.8C213.001 556.34 262.891 634 307.171 681.6C311.541 686.3 237.711 543.34 304.741 440.6C365.841 438.28 457.161 426.22 500.521 377.74C496.181 398.87 484.001 415 486.001 418.18C488.881 422.69 524.191 412.65 533.841 394.64L534.671 391.03C569.391 403.61 626.431 417.62 678.671 397.64C801.811 535.94 691.291 689 700.301 679C744.783 630.004 769.387 566.176 769.301 500C769.301 413.58 725.021 351.11 725.021 351.11C694.501 296.7 641.501 259.24 580.221 242" stroke="#592D3D" stroke-width="12" stroke-miterlimit="10"/>
<path d="M520.11 249.17C505.866 249.987 491.682 251.633 477.63 254.1C474.14 254.78 470.63 255.52 467.19 256.16C463.75 256.8 460.29 257.77 456.84 258.57L446.57 261.29C443.18 262.29 439.81 263.37 436.43 264.4C422.945 268.748 409.772 274.006 397 280.14C384.164 286.369 371.724 293.382 359.75 301.14C370.414 291.409 382.188 282.971 394.83 276C407.476 268.928 420.795 263.133 434.59 258.7C438.06 257.7 441.52 256.62 445.01 255.65C448.5 254.68 452.01 253.83 455.55 253.06C459.09 252.29 462.65 251.65 466.21 251.06C469.77 250.47 473.36 249.98 476.95 249.54C491.276 247.772 505.756 247.648 520.11 249.17Z" fill="white"/>
<path d="M529.832 233.83C534.892 232.62 540.07 231.976 545.272 231.91C547.832 231.85 550.382 231.91 552.942 232.04C555.502 232.17 558.062 232.34 560.622 232.56C565.776 233.007 570.9 233.741 575.972 234.76C581.106 235.757 586.15 237.176 591.052 239L587.152 250.35C582.542 248.97 577.912 247.57 573.212 246.28C568.512 244.99 563.762 243.77 558.962 242.57L551.712 240.81C549.282 240.24 546.842 239.66 544.412 239C539.405 237.723 534.525 235.992 529.832 233.83Z" fill="#592D3D"/>
<path d="M412.449 241.49C416.891 239.772 421.453 238.385 426.099 237.34C430.721 236.285 435.394 235.467 440.099 234.89C442.439 234.61 444.779 234.36 447.099 234.18C449.419 234 451.789 233.85 454.099 233.84C458.903 233.767 463.697 234.298 468.369 235.42C464.171 237.652 459.775 239.493 455.239 240.92C453.049 241.65 450.849 242.29 448.649 242.92L442.099 244.85C437.759 246.17 433.429 247.45 429.159 248.85C424.889 250.25 420.639 251.57 416.369 252.85L412.449 241.49Z" fill="#592D3D"/>
<path d="M514.262 239.09C517.487 239.09 520.102 236.475 520.102 233.25C520.102 230.025 517.487 227.41 514.262 227.41C511.037 227.41 508.422 230.025 508.422 233.25C508.422 236.475 511.037 239.09 514.262 239.09Z" fill="#592D3D"/>
<path d="M497.989 237.38C500.27 237.38 502.119 235.531 502.119 233.25C502.119 230.969 500.27 229.12 497.989 229.12C495.708 229.12 493.859 230.969 493.859 233.25C493.859 235.531 495.708 237.38 497.989 237.38Z" fill="#592D3D"/>
<path d="M255.061 519.62L268.061 515.22L299.261 504.68L336.861 491.98L369.351 480.98C374.621 479.2 379.901 477.47 385.151 475.64L385.381 475.57C387.878 474.826 390.014 473.189 391.381 470.97C392.72 468.681 393.095 465.954 392.424 463.389C391.752 460.823 390.09 458.63 387.801 457.29C386.648 456.617 385.371 456.182 384.047 456.01C382.723 455.838 381.378 455.934 380.091 456.29L367.091 460.68L335.891 471.22L298.291 483.93L265.801 494.93C260.531 496.71 255.251 498.45 250.001 500.27L249.771 500.35C247.274 501.094 245.138 502.731 243.771 504.95C242.432 507.239 242.057 509.966 242.728 512.531C243.4 515.097 245.062 517.29 247.351 518.63C248.504 519.303 249.781 519.738 251.105 519.91C252.429 520.082 253.774 519.987 255.061 519.63V519.62Z" fill="#592D3D"/>
<path d="M617.561 475L630.291 480.13L660.831 492.44L697.641 507.28L729.451 520.11C734.601 522.18 739.711 524.41 744.921 526.35L745.141 526.43C747.391 527.34 750.851 526.59 752.851 525.43C753.986 524.767 754.978 523.886 755.773 522.839C756.567 521.792 757.146 520.599 757.479 519.327C757.811 518.056 757.89 516.731 757.71 515.429C757.531 514.127 757.096 512.874 756.431 511.74L754.871 509.74C753.648 508.516 752.129 507.631 750.461 507.17L737.731 502L707.191 489.68L670.381 474.84L638.571 462C633.421 459.92 628.311 457.69 623.101 455.76L622.881 455.67C620.631 454.76 617.171 455.51 615.171 456.67C612.883 458.01 611.22 460.203 610.548 462.769C609.877 465.334 610.252 468.061 611.591 470.35L613.151 472.35C614.375 473.575 615.894 474.463 617.561 474.93V475Z" fill="#592D3D"/>
<path d="M491.441 204.62C517.663 204.62 538.921 183.363 538.921 157.14C538.921 130.918 517.663 109.66 491.441 109.66C465.218 109.66 443.961 130.918 443.961 157.14C443.961 183.363 465.218 204.62 491.441 204.62Z" fill="#633749"/>
<path d="M491.441 204.62C498.512 204.623 505.494 203.047 511.877 200.006C518.261 196.965 523.884 192.536 528.337 187.044C532.79 181.551 535.959 175.133 537.614 168.259C539.269 161.384 539.367 154.227 537.901 147.31C507.121 142.54 475.201 145.31 444.131 153.31C444.031 154.57 443.961 155.84 443.961 157.13C443.96 163.366 445.187 169.541 447.572 175.303C449.958 181.065 453.455 186.3 457.864 190.71C462.273 195.12 467.508 198.618 473.269 201.005C479.03 203.392 485.205 204.62 491.441 204.62Z" fill="#5E3244"/>
<path d="M491.441 204.62C517.663 204.62 538.921 183.363 538.921 157.14C538.921 130.918 517.663 109.66 491.441 109.66C465.218 109.66 443.961 130.918 443.961 157.14C443.961 183.363 465.218 204.62 491.441 204.62Z" stroke="#592D3D" stroke-width="12" stroke-miterlimit="10"/>
<path d="M240.258 423.13C240.246 403.777 242.44 384.486 246.798 365.63C247.658 361.93 248.595 358.263 249.608 354.63C252.508 322.33 269.608 295.69 292.468 271.9C297.228 268.09 298.178 259.53 302.938 254.77C319.118 240.5 333.388 226.22 351.468 214.77C425.688 167.19 523.698 141.5 602.678 185.27C618.848 193.83 636.928 198.59 650.248 210.01C675.948 231.89 694.018 257.59 719.718 278.52C742.548 297.52 746.358 328 754.458 354.59C755.478 358.217 756.415 361.883 757.268 365.59C761.626 384.446 763.82 403.737 763.808 423.09L240.258 423.13Z" fill="#633749"/>
<path d="M246.798 365.63C242.44 384.486 240.246 403.777 240.258 423.13H323.258C321.698 342.47 300.998 275.11 405.998 193C330.678 221.59 262.048 284.38 246.798 365.63Z" fill="#5E3244"/>
<path d="M258.178 321.12C253.562 331.765 250.67 343.076 249.608 354.63C248.595 358.257 247.658 361.923 246.798 365.63C242.44 384.486 240.246 403.777 240.258 423.13H440.308C482.774 419.845 525.431 419.845 567.898 423.13H763.808C763.82 403.777 761.626 384.486 757.268 365.63C756.408 361.93 755.471 358.263 754.458 354.63C750.998 343.26 748.308 331.19 744.598 319.63C582.708 259.73 418.998 261 258.178 321.12Z" fill="#5E3244"/>
<path d="M240.258 423.13C240.246 403.777 242.44 384.486 246.798 365.63C247.658 361.93 248.595 358.263 249.608 354.63C252.508 322.33 269.608 295.69 292.468 271.9C297.228 268.09 298.178 259.53 302.938 254.77C319.118 240.5 333.388 226.22 351.468 214.77C425.688 167.19 523.698 141.5 602.678 185.27C618.848 193.83 636.928 198.59 650.248 210.01C675.948 231.89 694.018 257.59 719.718 278.52C742.548 297.52 746.358 328 754.458 354.59C755.478 358.217 756.415 361.883 757.268 365.59C761.626 384.446 763.82 403.737 763.808 423.09L240.258 423.13Z" stroke="#592D3D" stroke-width="12" stroke-miterlimit="10"/>
<path d="M225.35 356.43C408.77 278.43 596.49 277.37 781.29 356.43C798.82 363.93 798.72 496.3 781.29 490.24C600.82 427.41 409.96 426.74 225.35 490.24C203.39 497.79 205.53 364.86 225.35 356.43Z" fill="#633749"/>
<path d="M751.328 443.71C752.156 446.947 752.609 450.269 752.678 453.61C752.768 456.88 752.568 460.13 752.418 463.39L752.058 468.26C751.898 469.88 751.738 471.5 751.538 473.11C751.138 476.34 750.648 479.55 749.948 482.72L742.078 481.31C742.518 478.14 743.078 475 743.718 471.86L744.718 467.15L745.718 462.45C746.458 459.32 747.088 456.18 747.938 453.05C748.778 449.839 749.913 446.712 751.328 443.71Z" fill="#592D3D"/>
<path d="M749.911 342.47C751.47 348.732 752.682 355.075 753.541 361.47C753.971 364.66 754.321 367.86 754.631 371.06C754.941 374.26 755.121 377.48 755.291 380.69C755.551 387.11 755.661 393.53 755.351 399.94C755.073 406.368 754.254 412.76 752.901 419.05C751.901 412.66 751.231 406.35 750.581 400.05C749.931 393.75 749.371 387.5 748.531 381.27C748.141 378.15 747.701 375.05 747.231 371.95C746.761 368.85 746.231 365.76 745.711 362.68C744.641 356.51 743.411 350.39 742.121 344.27L749.911 342.47Z" fill="#592D3D"/>
<path d="M668.781 322C676.341 364.87 675.491 411.49 668.781 460.73" stroke="#592D3D" stroke-width="8" stroke-miterlimit="10"/>
<path d="M598.191 307.61C603.341 350.51 602.761 397.16 598.191 446.44" stroke="#592D3D" stroke-width="8" stroke-miterlimit="10"/>
<path d="M533.849 356.47C535.054 363.309 535.845 370.215 536.219 377.15C536.619 384.05 536.739 390.95 536.869 397.86V408.22C536.869 411.67 536.869 415.12 536.749 418.57C536.599 425.47 536.349 432.37 535.879 439.26L527.879 438.86C528.099 431.99 528.449 425.13 528.819 418.27L530.029 397.7C530.489 390.84 530.849 383.97 531.379 377.1C531.909 370.23 532.689 363.36 533.849 356.47Z" fill="#592D3D"/>
<path d="M535.93 299.88C536.138 301.99 536.232 304.11 536.21 306.23C536.21 307.29 536.16 308.35 536.13 309.41L536 312.6C535.83 314.72 535.68 316.85 535.32 318.98C534.954 321.209 534.252 323.37 533.24 325.39C532.042 323.463 531.133 321.37 530.54 319.18C529.97 317.1 529.61 315.02 529.23 312.93L528.74 309.81C528.61 308.76 528.46 307.72 528.35 306.68C528.113 304.592 527.996 302.492 528 300.39L535.93 299.88Z" fill="#592D3D"/>
<path d="M467.758 299.65C468.108 342.65 468.068 389.32 467.758 438.65" stroke="#592D3D" stroke-width="8" stroke-miterlimit="10"/>
<path d="M403.378 306.18C401.318 349.18 401.548 395.91 403.378 445.29" stroke="#592D3D" stroke-width="8" stroke-miterlimit="10"/>
<path d="M333.37 391.65C334.567 397.192 335.472 402.793 336.08 408.43C336.71 414.02 337.17 419.6 337.73 425.18L339.24 441.91C339.71 447.48 340.17 453.06 340.49 458.65L332.49 459.29C331.91 453.68 331.56 448.05 331.31 442.42C331.18 439.6 331.11 436.78 331.03 433.96L330.93 425.5C330.93 419.86 330.98 414.21 331.28 408.57C331.566 402.887 332.264 397.232 333.37 391.65Z" fill="#592D3D"/>
<path d="M340.48 320.18C340.23 323.83 339.84 327.46 339.43 331.09L338.77 336.54L338.05 341.99C337.51 345.63 337.1 349.27 336.45 352.92C335.823 356.632 334.886 360.285 333.65 363.84C332.606 360.204 331.936 356.472 331.65 352.7C331.35 348.98 331.33 345.28 331.27 341.56V336C331.33 334.14 331.38 332.29 331.47 330.44C331.67 326.73 331.96 323.03 332.47 319.35L340.48 320.18Z" fill="#592D3D"/>
<path d="M264.861 340.45C258.001 383.45 258.771 430.3 264.861 479.75" stroke="#592D3D" stroke-width="8" stroke-miterlimit="10"/>
<path d="M753.07 434.58C753.812 434.58 754.537 434.36 755.154 433.948C755.77 433.536 756.251 432.95 756.535 432.265C756.819 431.58 756.893 430.826 756.748 430.098C756.604 429.371 756.246 428.703 755.722 428.178C755.198 427.654 754.529 427.297 753.802 427.152C753.074 427.007 752.32 427.082 751.635 427.366C750.95 427.649 750.364 428.13 749.952 428.747C749.54 429.363 749.32 430.088 749.32 430.83C749.333 431.821 749.733 432.767 750.433 433.467C751.133 434.168 752.08 434.567 753.07 434.58Z" fill="#592D3D"/>
<path d="M758.281 341.38C768.281 384.22 767.131 430.81 758.281 480.02" stroke="#5E3244" stroke-width="8" stroke-miterlimit="10"/>
<path d="M681 320C688.56 362.87 687.71 409.49 681 458.74" stroke="#5E3244" stroke-width="8" stroke-miterlimit="10"/>
<path d="M610.379 305.45C615.529 348.35 614.949 395 610.379 444.28" stroke="#5E3244" stroke-width="8" stroke-miterlimit="10"/>
<path d="M544.059 297.82C546.799 340.74 546.499 387.43 544.059 436.74" stroke="#5E3244" stroke-width="8" stroke-miterlimit="10"/>
<path d="M479.801 297.16C480.141 340.11 480.111 386.83 479.801 436.16" stroke="#5E3244" stroke-width="8" stroke-miterlimit="10"/>
<path d="M415.339 303.53C413.279 346.53 413.509 393.26 415.339 442.64" stroke="#5E3244" stroke-width="8" stroke-miterlimit="10"/>
<path d="M348.409 317C343.949 360 344.409 406.79 348.409 456.21" stroke="#5E3244" stroke-width="8" stroke-miterlimit="10"/>
<path d="M276.739 337.64C269.879 380.64 270.649 427.49 276.739 476.94" stroke="#5E3244" stroke-width="8" stroke-miterlimit="10"/>
<path d="M225.35 356.43C408.77 278.43 596.49 277.37 781.29 356.43C798.82 363.93 798.72 496.3 781.29 490.24C600.82 427.41 409.96 426.74 225.35 490.24C203.39 497.79 205.53 364.86 225.35 356.43Z" stroke="#592D3D" stroke-width="12" stroke-miterlimit="10"/>
<path d="M426.758 283.72C439.503 281.05 452.396 279.14 465.368 278C468.618 277.72 471.858 277.44 475.108 277.22L484.858 276.66C488.118 276.52 491.368 276.46 494.628 276.36L504.398 276.23C517.398 276.23 530.448 276.86 543.398 278.07C556.369 279.227 569.259 281.164 581.998 283.87C568.998 283.58 555.998 283.08 543.118 282.74C530.238 282.4 517.278 282.25 504.368 282.22H494.688C491.458 282.22 488.228 282.34 484.998 282.33L475.318 282.47C472.088 282.58 468.858 282.63 465.618 282.67C452.718 283 439.778 283.46 426.758 283.72Z" fill="#592D3D"/>
<path d="M347.309 233.83C354.381 228.176 361.861 223.052 369.689 218.5C377.469 213.88 385.499 209.66 393.689 205.84C395.689 204.84 397.819 203.98 399.889 203.06C401.959 202.14 404.019 201.2 406.129 200.39C410.349 198.74 414.529 197.01 418.829 195.59C427.35 192.549 436.054 190.044 444.889 188.09C442.819 189 440.729 189.87 438.639 190.72C436.549 191.57 434.449 192.36 432.389 193.28C428.239 195.02 424.079 196.7 419.959 198.5L416.869 199.83C415.869 200.26 414.789 200.68 413.769 201.15L407.619 203.88C405.559 204.76 403.529 205.71 401.479 206.63C399.429 207.55 397.389 208.47 395.379 209.46L389.279 212.29C387.279 213.29 385.279 214.29 383.229 215.29C379.229 217.23 375.229 219.29 371.179 221.29C363.189 225.31 355.229 229.48 347.309 233.83Z" fill="white"/>
<path opacity="0.2" d="M338.9 641.86C390.434 641.86 432.21 600.084 432.21 548.55C432.21 497.016 390.434 455.24 338.9 455.24C287.366 455.24 245.59 497.016 245.59 548.55C245.59 600.084 287.366 641.86 338.9 641.86Z" fill="white"/>
<path opacity="0.15" d="M744.47 606.82C732.351 624.566 714.998 638.089 694.83 645.505C674.662 652.921 652.682 653.861 631.954 648.194C611.226 642.527 592.782 630.535 579.192 613.889C565.603 597.243 557.544 576.773 556.14 555.33C519.14 540.73 481.71 540.86 441.95 555.72C440.105 581.793 428.457 606.2 409.348 624.034C390.24 641.869 365.088 651.807 338.95 651.85C306.47 651.85 262.95 615.35 267.95 623.46C281.95 644.15 314.95 659.91 340.49 659.91C395.04 659.91 438.36 620.62 442.05 566.99C481.81 552.14 519.28 551.99 556.24 566.6C559.74 620.42 604.63 660.13 659.31 660.13C704 660.13 729.4 626 744.47 606.82Z" fill="black"/>
<path opacity="0.4" d="M319.999 648.75L443.069 525.67C440.364 519.572 437.012 513.782 433.069 508.4L302.719 638.76C308.104 642.7 313.897 646.049 319.999 648.75Z" fill="white"/>
<path d="M338.9 641.86C390.434 641.86 432.21 600.084 432.21 548.55C432.21 497.016 390.434 455.24 338.9 455.24C287.366 455.24 245.59 497.016 245.59 548.55C245.59 600.084 287.366 641.86 338.9 641.86Z" stroke="#592D3D" stroke-width="20" stroke-miterlimit="10"/>
<path d="M659.212 641.86C710.746 641.86 752.522 600.084 752.522 548.55C752.522 497.016 710.746 455.24 659.212 455.24C607.679 455.24 565.902 497.016 565.902 548.55C565.902 600.084 607.679 641.86 659.212 641.86Z" stroke="#592D3D" stroke-width="20" stroke-miterlimit="10"/>
<path d="M432.77 548.55C477.97 530.24 522.38 529.55 565.91 548.55" stroke="#592D3D" stroke-width="20" stroke-miterlimit="10"/>
<path d="M314.699 492.5C316.759 499 308.759 504 302.759 505C296.759 505 292.759 501 290.759 496C289.759 491 290.759 486 294.759 483C299.759 481 306.759 479 311.209 484.13C312.32 485.221 313.202 486.524 313.801 487.962C314.401 489.399 314.706 490.943 314.699 492.5Z" fill="white"/>
<path d="M325.372 488.67C324.762 493 318.762 493 317.762 489C317.762 486 318.762 485 321.612 484.9C322.106 484.9 322.596 484.998 323.053 485.187C323.51 485.377 323.925 485.655 324.274 486.005C324.623 486.355 324.9 486.771 325.088 487.228C325.277 487.685 325.373 488.175 325.372 488.67Z" fill="white"/>
<path opacity="0.2" d="M659.212 641.86C710.746 641.86 752.522 600.084 752.522 548.55C752.522 497.016 710.746 455.24 659.212 455.24C607.679 455.24 565.902 497.016 565.902 548.55C565.902 600.084 607.679 641.86 659.212 641.86Z" fill="white"/>
<path opacity="0.4" d="M645.19 640.81L751.47 534.52C750.894 530.735 750.089 526.988 749.06 523.3L634 638.4C637.678 639.429 641.415 640.234 645.19 640.81Z" fill="white"/>
<path d="M659.212 641.86C710.746 641.86 752.522 600.084 752.522 548.55C752.522 497.016 710.746 455.24 659.212 455.24C607.679 455.24 565.902 497.016 565.902 548.55C565.902 600.084 607.679 641.86 659.212 641.86Z" stroke="#592D3D" stroke-width="20" stroke-miterlimit="10"/>
<path d="M635 492.5C637.06 499 629.06 504 623.06 505C617.06 505 613.06 501 611.06 496C610.06 491 611.06 486 615.06 483C620.06 481 627.06 479 631.51 484.13C632.619 485.223 633.499 486.526 634.099 487.963C634.698 489.4 635.004 490.943 635 492.5Z" fill="white"/>
<path d="M645.692 488.67C645.082 493 639.082 493 638.082 489C638.082 486 639.082 485 641.922 484.9C642.922 484.9 643.881 485.297 644.588 486.004C645.295 486.711 645.692 487.67 645.692 488.67Z" fill="white"/>
</g>
</svg>
