<svg width="1000" height="990" viewBox="0 0 1000 990" fill="none" xmlns="http://www.w3.org/2000/svg">
<mask id="mask0_22_5668" style="mask-type:luminance" maskUnits="userSpaceOnUse" x="0" y="0" width="1000" height="966">
<path d="M1000 0H0V718.31H179.2C217.58 860.69 346.65 965.41 500 965.41C653.35 965.41 782.42 860.69 820.8 718.31H1000V0Z" fill="white"/>
</mask>
<g mask="url(#mask0_22_5668)">
<path d="M500.001 962.602C683.603 962.602 832.443 813.763 832.443 630.16C832.443 446.557 683.603 297.718 500.001 297.718C316.398 297.718 167.559 446.557 167.559 630.16C167.559 813.763 316.398 962.602 500.001 962.602Z" fill="#85C5E5"/>
<path d="M610 758.72C700.76 758.72 682 872.96 682.87 1000H610V758.72Z" fill="#FBE8B3"/>
<path d="M632.74 831.87L610 870L621.38 1000H653.14C653.91 819.73 632.74 831.87 632.74 831.87Z" fill="#EDD494"/>
<path d="M233.25 500C233.25 352.68 352.68 233.25 500 233.25C647.32 233.25 766.75 352.68 766.75 500C766.788 539.694 757.949 578.895 740.88 614.731C723.811 650.568 698.945 682.135 668.1 707.12C662.627 711.573 656.98 715.803 651.16 719.81C591 758 515 758 446.39 751.89C439.73 750.89 433.09 749.63 426.5 748.18C400.17 742.38 374.68 733.43 351.13 720.38C345.31 716.793 339.667 712.92 334.2 708.76C328.706 704.576 323.432 700.11 318.4 695.38C313.64 690.96 309.044 686.367 304.61 681.6C258.667 632.299 233.161 567.39 233.25 500Z" fill="#FBE8B3"/>
<path d="M269.612 634.48C270.312 635.68 271.002 636.88 271.722 638.06C272.152 638.78 272.602 639.48 273.052 640.2C273.712 641.27 274.372 642.34 275.052 643.39C275.532 644.15 276.052 644.89 276.512 645.63C277.172 646.63 277.832 647.63 278.512 648.63C279.022 649.39 279.512 650.15 280.072 650.91C280.732 651.91 281.392 652.83 282.072 653.79C282.612 654.56 283.172 655.32 283.722 656.09C284.272 656.86 285.062 657.94 285.722 658.86C286.382 659.78 286.872 660.39 287.452 661.15C288.032 661.91 288.822 662.95 289.522 663.85C290.222 664.75 290.712 665.36 291.312 666.11C291.912 666.86 292.722 667.87 293.432 668.74C294.142 669.61 294.662 670.23 295.282 670.97C295.902 671.71 296.722 672.69 297.452 673.54C298.182 674.39 298.722 675.01 299.362 675.74L301.582 678.24C302.232 678.97 302.892 679.68 303.582 680.4C304.442 681.34 305.312 682.27 306.182 683.19L307.392 684.47C308.682 685.81 309.982 687.15 311.302 688.47L311.562 688.74C312.852 690.02 314.162 691.29 315.472 692.55L317.052 694.05C318.002 694.94 318.952 695.83 319.912 696.71L321.072 697.77C322.072 698.71 323.162 699.63 324.212 700.55C327.478 703.397 330.812 706.127 334.212 708.74C339.672 712.9 345.315 716.773 351.142 720.36C374.692 733.36 400.142 742.36 426.512 748.16C433.102 749.61 439.742 750.86 446.402 751.87C488.502 755.62 533.402 757.05 575.682 748.79C508.452 729 185.592 612.74 388.802 257.48C386.082 258.73 383.402 260.02 380.742 261.36L380.152 261.65C378.932 262.26 377.712 262.89 376.502 263.53L375.502 264.06C371.742 266.06 368.022 268.13 364.372 270.29L363.472 270.82C362.312 271.51 361.162 272.21 360.012 272.92L359.142 273.46C355.568 275.693 352.052 278.003 348.592 280.39L347.512 281.14C346.422 281.9 345.352 282.66 344.282 283.43L343.622 283.9C341.442 285.493 339.288 287.107 337.162 288.74L336.542 289.22C335.542 290 334.542 290.8 333.542 291.61L332.372 292.55C331.372 293.36 330.372 294.17 329.372 295C327.262 296.75 325.182 298.55 323.132 300.37L321.992 301.37L319.302 303.82L318.002 305C315.148 307.667 312.358 310.39 309.632 313.17L308.252 314.58C307.462 315.4 306.672 316.22 305.892 317.05C305.432 317.54 304.972 318.05 304.522 318.53C303.148 319.997 301.795 321.483 300.462 322.99C300.012 323.5 299.552 323.99 299.102 324.53C298.392 325.34 297.692 326.16 296.992 326.98L295.482 328.77C294.802 329.58 294.122 330.39 293.482 331.21C292.942 331.87 292.402 332.54 291.872 333.21C290.802 334.54 289.752 335.87 288.712 337.21C288.172 337.91 287.632 338.61 287.102 339.32C286.572 340.03 285.902 340.91 285.312 341.72C284.722 342.53 284.242 343.17 283.722 343.9C283.202 344.63 282.592 345.45 282.042 346.23C281.095 347.563 280.162 348.913 279.242 350.28C278.742 351.01 278.242 351.76 277.752 352.5C277.262 353.24 276.652 354.16 276.112 355L274.622 357.31L272.942 360.02C272.512 360.71 272.082 361.4 271.662 362.09C270.772 363.55 269.912 365.02 269.052 366.49L267.832 368.65C267.292 369.6 266.752 370.56 266.222 371.52C265.822 372.25 265.422 372.98 265.032 373.71C264.392 374.9 263.762 376.1 263.132 377.3L261.932 379.64C261.292 380.92 260.652 382.19 260.022 383.48C259.692 384.17 259.352 384.87 259.022 385.57C258.502 386.66 258.022 387.76 257.492 388.86C257.182 389.52 256.882 390.18 256.582 390.86C255.842 392.507 255.118 394.173 254.412 395.86C254.192 396.38 253.982 396.91 253.762 397.43C253.232 398.7 252.712 399.97 252.202 401.25C251.932 401.92 251.672 402.59 251.412 403.25C250.912 404.51 250.412 405.78 249.962 407.05C249.752 407.6 249.542 408.15 249.342 408.7C248.715 410.453 248.098 412.207 247.492 413.96L246.932 415.66C246.492 416.993 246.062 418.327 245.642 419.66L245.042 421.57C244.572 423.11 244.112 424.65 243.672 426.2C243.572 426.53 243.472 426.86 243.382 427.2C242.862 429.04 242.362 430.887 241.882 432.74C241.722 433.33 241.582 433.93 241.432 434.52C241.082 435.91 240.742 437.3 240.432 438.7L240.012 440.45C239.582 442.35 239.162 444.25 238.772 446.16L238.622 446.93C238.282 448.63 237.948 450.33 237.622 452.03C237.512 452.64 237.412 453.24 237.302 453.85C237.042 455.34 236.792 456.85 236.562 458.35C236.482 458.86 236.392 459.35 236.322 459.87C236.022 461.82 235.752 463.78 235.492 465.75L235.342 467.05C235.142 468.64 234.962 470.24 234.792 471.84C234.732 472.44 234.662 473.04 234.602 473.65C234.442 475.33 234.292 477.02 234.152 478.71C234.152 479.06 234.092 479.4 234.072 479.71C233.925 481.71 233.795 483.727 233.682 485.76C233.682 486.29 233.682 486.83 233.612 487.36C233.545 488.933 233.485 490.503 233.432 492.07C233.432 492.66 233.432 493.25 233.432 493.84C233.432 495.89 233.352 497.95 233.352 500.01C233.352 500.01 233.352 500.08 233.352 500.11C233.352 502.33 233.352 504.53 233.432 506.73C233.432 507.49 233.492 508.25 233.512 509.01C233.562 510.48 233.612 511.95 233.682 513.42C233.682 514.31 233.792 515.19 233.842 516.08C233.922 517.41 233.992 518.74 234.092 520.08C234.162 521.08 234.252 521.97 234.332 522.91C234.442 524.17 234.542 525.43 234.672 526.68C234.762 527.68 234.882 528.62 234.982 529.59C235.122 530.8 235.252 532.02 235.402 533.23C235.522 534.23 235.662 535.23 235.792 536.18C235.952 537.36 236.112 538.55 236.292 539.73C236.442 540.73 236.602 541.73 236.762 542.73C236.942 543.89 237.132 545.06 237.332 546.22C237.512 547.22 237.692 548.22 237.882 549.22C238.092 550.37 238.312 551.52 238.532 552.66C238.752 553.8 238.942 554.66 239.152 555.66C239.392 556.8 239.632 557.93 239.892 559.06C240.152 560.19 240.332 561.06 240.572 561.99C240.832 563.12 241.112 564.24 241.392 565.35C241.672 566.46 241.882 567.3 242.132 568.26C242.432 569.38 242.732 570.49 243.042 571.6C243.302 572.6 243.572 573.52 243.852 574.47C244.172 575.58 244.502 576.68 244.852 577.78C245.202 578.88 245.432 579.67 245.732 580.62C246.032 581.57 246.432 582.81 246.792 583.9C247.152 584.99 247.412 585.77 247.732 586.7C248.112 587.79 248.492 588.88 248.882 589.97C249.212 590.88 249.532 591.8 249.882 592.71L251.122 595.98C251.472 596.87 251.812 597.77 252.122 598.66C252.562 599.75 253.012 600.85 253.462 601.94C253.822 602.8 254.172 603.67 254.542 604.53C255.012 605.65 255.542 606.75 255.992 607.86C256.362 608.68 256.722 609.51 257.092 610.33C257.612 611.49 258.162 612.63 258.692 613.77L259.772 616.07C260.382 617.33 261.012 618.57 261.642 619.82C261.962 620.45 262.262 621.09 262.592 621.72C264.512 625.46 266.512 629.15 268.592 632.79C268.882 633.26 269.252 633.87 269.612 634.48Z" fill="#EDD494"/>
<path d="M233.25 500C233.25 352.68 352.68 233.25 500 233.25C647.32 233.25 766.75 352.68 766.75 500C766.788 539.694 757.949 578.895 740.88 614.731C723.811 650.568 698.945 682.135 668.1 707.12C662.627 711.573 656.98 715.803 651.16 719.81C591 758 515 758 446.39 751.89C439.73 750.89 433.09 749.63 426.5 748.18C400.17 742.38 374.68 733.43 351.13 720.38C345.31 716.793 339.667 712.92 334.2 708.76C328.706 704.576 323.432 700.11 318.4 695.38C313.64 690.96 309.044 686.367 304.61 681.6C258.667 632.299 233.161 567.39 233.25 500Z" stroke="#592D3D" stroke-width="12" stroke-miterlimit="10"/>
<path d="M386.122 758.72C295.352 758.72 314.122 872.96 313.252 1000H386.122V758.72Z" fill="#FBE8B3"/>
<path d="M367.232 831.87L390.002 870L378.612 1000H346.882C346.072 819.73 367.232 831.87 367.232 831.87Z" fill="#EDD494"/>
<path d="M619.472 1070H380.532C377.011 1070 373.636 1068.6 371.148 1066.11C368.659 1063.62 367.262 1060.24 367.262 1056.72V772C367.262 768.48 368.659 765.103 371.148 762.613C373.636 760.123 377.011 758.723 380.532 758.72H613.762C626.852 758.72 632.762 766.38 632.762 778.6V1056.68C632.767 1058.43 632.427 1060.16 631.761 1061.78C631.096 1063.39 630.117 1064.86 628.883 1066.1C627.648 1067.34 626.181 1068.32 624.566 1068.99C622.951 1069.66 621.22 1070 619.472 1070Z" fill="#FBE8B3"/>
<path d="M629.052 766.62C628.055 765.394 627.212 764.051 626.542 762.62C624.141 760.738 621.284 759.527 618.262 759.11C616.773 758.879 615.268 758.766 613.762 758.77H380.532C377.02 758.773 373.652 760.166 371.165 762.645C368.679 765.125 367.275 768.488 367.262 772C396.262 782.42 450.552 788.24 500.002 788.24C563.062 788.24 604.382 778.89 629.052 766.62Z" fill="#EDD494"/>
<path d="M610 758.72C700.76 758.72 682 872.96 682.87 1000H632.74" stroke="#592D3D" stroke-width="12" stroke-miterlimit="10" stroke-linecap="square"/>
<path d="M386.122 758.72C295.352 758.72 314.122 872.96 313.252 1000H363.322" stroke="#592D3D" stroke-width="12" stroke-miterlimit="10" stroke-linecap="square"/>
<path d="M380.531 758.82L613.761 758.72" stroke="#592D3D" stroke-width="12" stroke-miterlimit="10"/>
<path d="M380.532 1070H497.152C388.002 1070 396.242 838.82 367.262 838.82V1056.68C367.257 1058.43 367.596 1060.16 368.26 1061.77C368.925 1063.39 369.901 1064.86 371.134 1066.09C372.366 1067.33 373.831 1068.31 375.444 1068.98C377.056 1069.65 378.785 1070 380.532 1070Z" fill="#EDD494"/>
<path d="M361.259 860.85C361.069 857.18 361.149 853.51 361.309 849.85C361.469 846.19 361.779 842.5 362.169 838.85C362.369 837.01 362.569 835.18 362.819 833.34C363.069 831.5 363.309 829.67 363.669 827.83C364.378 824.022 365.585 820.323 367.259 816.83C368.933 820.323 370.14 824.022 370.849 827.83C371.209 829.67 371.469 831.5 371.699 833.34C371.929 835.18 372.149 837.01 372.349 838.85C372.729 842.52 373.029 846.19 373.199 849.85C373.369 853.51 373.449 857.19 373.259 860.85H361.259Z" fill="#592D3D"/>
<path d="M632.742 870V878C633.002 912 633.002 947 632.742 980.75C632.742 983.62 632.742 986.47 632.742 989.28V1056.69C632.746 1058.44 632.405 1060.16 631.74 1061.78C631.075 1063.39 630.099 1064.86 628.866 1066.1C627.634 1067.33 626.17 1068.31 624.558 1068.98C622.946 1069.65 621.217 1070 619.472 1070H380.532C377.011 1070 373.636 1068.6 371.148 1066.11C368.659 1063.62 367.262 1060.24 367.262 1056.72V998.52C367.262 996.01 367.262 993.45 367.262 990.87C367.012 956 367.012 921 367.262 885.57V860.85" stroke="#592D3D" stroke-width="12" stroke-miterlimit="10"/>
<path d="M626.74 870C626.55 865.83 626.64 861.65 626.8 857.47C626.96 853.29 627.27 849.12 627.65 844.94C627.85 842.85 628.06 840.76 628.3 838.67C628.54 836.58 628.79 834.5 629.15 832.41C629.847 828.106 631.052 823.9 632.74 819.88C634.428 823.9 635.633 828.106 636.33 832.41C636.69 834.5 636.95 836.59 637.18 838.67C637.41 840.75 637.63 842.85 637.83 844.94C638.21 849.12 638.52 853.29 638.68 857.47C638.84 861.65 638.93 865.83 638.74 870H626.74Z" fill="#592D3D"/>
<path d="M502.069 878.86C502.067 889.337 499.69 899.678 495.117 909.104C490.543 918.53 483.892 926.797 475.663 933.282C467.435 939.768 457.843 944.303 447.609 946.548C437.375 948.793 426.765 948.688 416.578 946.242C406.39 943.796 396.89 939.072 388.79 932.426C380.691 925.779 374.204 917.383 369.818 907.869C365.431 898.354 363.258 887.969 363.462 877.494C363.667 867.018 366.244 856.726 370.999 847.39" stroke="#592D3D" stroke-width="12" stroke-miterlimit="10"/>
<path d="M371 847.39C374.787 839.991 379.867 833.33 386 827.72Z" fill="#FBE8B3"/>
<path d="M365.652 844.66C366.53 842.58 367.666 840.618 369.032 838.82C370.388 837.02 371.904 835.346 373.562 833.82C374.402 833.06 375.252 832.32 376.142 831.63C377.026 830.915 377.966 830.273 378.952 829.71C381.086 828.479 383.49 827.792 385.952 827.71C385.693 830.051 385.104 832.344 384.202 834.52C383.812 835.52 383.372 836.4 382.912 837.29L381.612 839.96C380.762 841.72 379.922 843.45 379.062 845.15C378.23 846.864 377.309 848.533 376.302 850.15L365.652 844.66Z" fill="#592D3D"/>
<path d="M489.332 838.82C497.63 850.506 502.083 864.487 502.072 878.82Z" fill="#FBE8B3"/>
<path d="M489.332 838.82C492.746 840.671 495.712 843.248 498.022 846.37C499.172 847.888 500.208 849.489 501.122 851.16C502.052 852.83 502.892 854.55 503.672 856.31C505.207 859.846 506.366 863.532 507.132 867.31C507.909 871.101 508.225 874.973 508.072 878.84H496.072C495.882 875.59 495.712 872.36 495.372 869.11C495.032 865.86 494.602 862.63 493.972 859.37L493.472 856.93L492.892 854.48C492.472 852.85 492.022 851.22 491.602 849.55C490.657 846.016 489.9 842.434 489.332 838.82Z" fill="#592D3D"/>
<path d="M641.651 878.86C641.662 869.372 639.719 859.983 635.945 851.278C632.17 842.572 626.644 834.737 619.711 828.26" fill="#FBE8B3"/>
<path d="M635.651 878.86C635.49 874.552 635.07 870.257 634.391 866C633.689 861.7 632.646 857.464 631.271 853.33C630.931 852.33 630.531 851.26 630.161 850.22C629.791 849.18 629.321 848.17 628.911 847.13C628.501 846.09 627.971 845.13 627.531 844.08L626.071 841.08C624.071 836.98 621.901 832.89 619.711 828.33C624.345 830.307 628.51 833.241 631.931 836.94C632.761 837.88 633.631 838.8 634.401 839.79C635.171 840.78 635.941 841.79 636.651 842.79C637.361 843.79 638.081 844.88 638.721 845.97C639.361 847.06 640.031 848.15 640.601 849.29C642.981 853.813 644.795 858.613 646.001 863.58C647.233 868.576 647.778 873.717 647.621 878.86H635.651Z" fill="#592D3D"/>
<path d="M503.001 878.86C502.891 888.031 504.602 897.133 508.036 905.638C511.469 914.143 516.557 921.882 523.003 928.407C529.45 934.931 537.127 940.111 545.59 943.647C554.053 947.182 563.134 949.003 572.306 949.003C581.478 949.003 590.559 947.182 599.022 943.647C607.485 940.111 615.163 934.931 621.609 928.407C628.056 921.882 633.143 914.143 636.577 905.638C640.01 897.133 641.721 888.031 641.611 878.86" stroke="#592D3D" stroke-width="12" stroke-miterlimit="10"/>
<path d="M515.769 838.82C507.475 850.508 503.025 864.488 503.039 878.82Z" fill="#FBE8B3"/>
<path d="M515.772 838.82C515.205 842.441 514.448 846.029 513.502 849.57C513.082 851.24 512.632 852.87 512.212 854.5L511.642 856.95L511.142 859.39C510.512 862.65 510.052 865.89 509.732 869.13C509.412 872.37 509.232 875.61 509.042 878.86H497.002C496.84 874.993 497.156 871.12 497.942 867.33C498.703 863.551 499.863 859.864 501.402 856.33C502.172 854.57 503.012 852.85 503.942 851.18C504.86 849.512 505.896 847.911 507.042 846.39C509.364 843.259 512.344 840.675 515.772 838.82Z" fill="#592D3D"/>
<path d="M383.441 837.55V758.72" stroke="#592D3D" stroke-width="12" stroke-miterlimit="10"/>
<path d="M616.461 837.55V758.72" stroke="#592D3D" stroke-width="12" stroke-miterlimit="10"/>
<path d="M470.5 897.78H524.4V917.48C506.66 911.43 488.69 911.58 470.5 917.48V897.78Z" fill="#D67070" stroke="#592D3D" stroke-width="12" stroke-miterlimit="10"/>
<path d="M638.101 878.86C638.126 861.305 631.464 844.399 619.471 831.58C615.251 827.06 575.201 837.77 551.661 858.84C528.551 879.53 508.431 913.33 511.311 917.59C519.607 929.903 531.637 939.226 545.63 944.187C559.624 949.148 574.84 949.485 589.039 945.147C603.238 940.81 615.669 932.028 624.501 920.095C633.334 908.161 638.101 893.707 638.101 878.86Z" fill="#D67070" stroke="#592D3D" stroke-width="12" stroke-miterlimit="10"/>
<path d="M598.112 848.39C591.992 852.06 585.962 855.57 580.112 859.39C574.338 863.08 568.816 867.149 563.582 871.57C558.432 876.03 553.472 880.89 548.582 885.83C543.692 890.77 538.892 895.83 533.832 900.9C536.9 894.462 540.648 888.371 545.012 882.73C549.369 877.001 554.298 871.731 559.722 867C565.241 862.329 571.338 858.386 577.862 855.27C584.289 852.118 591.095 849.805 598.112 848.39Z" fill="white"/>
<path d="M361.902 878.86C361.877 861.305 368.539 844.399 380.532 831.58C384.752 827.06 424.802 837.77 448.342 858.84C471.452 879.53 491.572 913.33 488.692 917.59C480.396 929.903 468.366 939.226 454.373 944.187C440.38 949.148 425.163 949.485 410.964 945.147C396.765 940.81 384.334 932.028 375.502 920.095C366.669 908.161 361.902 893.707 361.902 878.86Z" fill="#D67070" stroke="#592D3D" stroke-width="12" stroke-miterlimit="10"/>
<path d="M455.751 938.92C433.112 938.92 411.4 929.927 395.392 913.919C379.384 897.911 370.391 876.199 370.391 853.56C370.391 850.651 370.537 847.744 370.831 844.85C363.312 858.198 360.428 873.662 362.629 888.823C364.831 903.984 371.993 917.989 382.997 928.648C394.002 939.307 408.227 946.02 423.451 947.738C438.675 949.455 454.038 946.08 467.141 938.14C463.366 938.653 459.561 938.914 455.751 938.92Z" fill="#C46565"/>
<path d="M361.902 878.86C361.877 861.305 368.539 844.399 380.532 831.58C384.752 827.06 424.802 837.77 448.342 858.84C471.452 879.53 491.572 913.33 488.692 917.59C480.396 929.903 468.366 939.226 454.373 944.187C440.38 949.148 425.163 949.485 410.964 945.147C396.765 940.81 384.334 932.028 375.502 920.095C366.669 908.161 361.902 893.707 361.902 878.86Z" stroke="#592D3D" stroke-width="12" stroke-miterlimit="10"/>
<path d="M401.891 848.39C408.907 849.802 415.713 852.111 422.141 855.26C428.666 858.38 434.762 862.325 440.281 867C445.683 871.727 450.592 876.991 454.931 882.71C459.295 888.351 463.043 894.442 466.111 900.88C461.051 895.88 456.271 890.75 451.361 885.81C446.451 880.87 441.521 876.01 436.361 871.55C431.126 867.129 425.604 863.06 419.831 859.37C414.001 855.57 408.001 852.06 401.891 848.39Z" fill="white"/>
<path d="M677.8 906.35C678.01 869.24 676.59 836.28 670.07 810.96C660 785.6 641.89 770.48 610 770.48L632.79 905C632.79 905 655.31 915.24 677.8 906.35Z" fill="#EDD494"/>
<path d="M686.411 895.79C685.27 896.732 684.029 897.547 682.711 898.22" stroke="#592D3D" stroke-width="12" stroke-miterlimit="10" stroke-linecap="square"/>
<path d="M326.109 809.88C319.279 835.45 318.109 869.01 318.369 906.88C338.269 915.42 368.789 904.73 368.789 904.73L386.119 772.49C355.249 772.46 336.849 786.36 326.109 809.88Z" fill="#EDD494"/>
<path d="M613.762 758.72H559.552V758.82C559.553 763.322 559.07 767.811 558.112 772.21C557.646 774.35 557.065 776.463 556.372 778.54C554.159 784.744 550.763 790.46 546.372 795.37C544.97 796.943 543.467 798.423 541.872 799.8C516.702 818 476.702 819 452.392 799.22C449.773 796.932 447.391 794.386 445.282 791.62C440.903 785.87 437.801 779.253 436.182 772.21C435.708 770.034 435.351 767.834 435.112 765.62C434.862 763.362 434.738 761.092 434.742 758.82V758.72H380.532C377.011 758.723 373.636 760.123 371.148 762.613C368.66 765.103 367.262 768.48 367.262 772V1056.68C367.257 1058.43 367.596 1060.16 368.26 1061.77C368.925 1063.39 369.901 1064.86 371.134 1066.09C372.366 1067.33 373.831 1068.31 375.444 1068.98C377.056 1069.65 378.785 1070 380.532 1070H619.472C622.992 1070 626.367 1068.6 628.856 1066.11C631.344 1063.62 632.742 1060.24 632.742 1056.72V778.6C632.742 766.38 626.852 758.72 613.762 758.72Z" fill="#D67070"/>
<path d="M610 758.72C673.54 758.72 683.4 814.72 683.9 891.89C665.3 903.51 634.99 893.2 634.99 893.2L610 758.72Z" fill="#D67070"/>
<path d="M632.74 831.87L610 870L621.38 1000H632.99V894.35L650.27 897.24C644.6 825.07 632.74 831.87 632.74 831.87Z" fill="#C46565"/>
<path d="M386.12 758.72C324.34 758.72 310.29 812.52 309.27 886.38C328.27 906.24 367.27 890.96 367.27 890.96L386.12 758.72Z" fill="#D67070"/>
<path d="M367.232 831.87V891L349.922 895.31C355.592 825.19 367.232 831.87 367.232 831.87Z" fill="#C46565"/>
<path d="M610 758.72C677.41 758.72 688.45 815.01 688.9 892.5C662.7 904.93 634.99 893.2 634.99 893.2" stroke="#592D3D" stroke-width="12" stroke-miterlimit="10" stroke-linecap="square"/>
<path d="M386.119 758.72C319.329 758.72 306.039 813.42 305.359 889.44C325.999 904.22 367.219 891 367.219 891" stroke="#592D3D" stroke-width="12" stroke-miterlimit="10" stroke-linecap="square"/>
<path d="M380.532 1070H497.152C388.002 1070 396.242 838.82 367.262 838.82V1056.68C367.257 1058.43 367.596 1060.16 368.26 1061.77C368.925 1063.39 369.901 1064.86 371.134 1066.09C372.366 1067.33 373.831 1068.31 375.444 1068.98C377.056 1069.65 378.785 1070 380.532 1070Z" fill="#C46565"/>
<path d="M361.259 860.85C361.069 857.18 361.149 853.51 361.309 849.85C361.469 846.19 361.779 842.5 362.169 838.85C362.369 837.01 362.569 835.18 362.819 833.34C363.069 831.5 363.309 829.67 363.669 827.83C364.378 824.022 365.585 820.323 367.259 816.83C368.934 820.322 370.138 824.021 370.839 827.83C371.209 829.67 371.469 831.5 371.699 833.34C371.929 835.18 372.149 837.01 372.349 838.85C372.729 842.52 373.029 846.19 373.199 849.85C373.369 853.51 373.449 857.19 373.259 860.85H361.259Z" fill="#592D3D"/>
<path d="M632.742 870V878C633.002 912 633.002 947 632.742 980.75C632.742 983.62 632.742 986.47 632.742 989.28V1056.69C632.746 1058.44 632.405 1060.16 631.74 1061.78C631.075 1063.39 630.099 1064.86 628.866 1066.1C627.634 1067.33 626.17 1068.31 624.558 1068.98C622.946 1069.65 621.217 1070 619.472 1070H380.532C377.011 1070 373.636 1068.6 371.148 1066.11C368.659 1063.62 367.262 1060.24 367.262 1056.72V998.52C367.262 996.01 367.262 993.45 367.262 990.87C367.012 956 367.012 921 367.262 885.57V860.85" stroke="#592D3D" stroke-width="12" stroke-miterlimit="10"/>
<path d="M626.74 870C626.55 865.83 626.64 861.65 626.8 857.47C626.96 853.29 627.27 849.12 627.65 844.94C627.85 842.85 628.06 840.76 628.3 838.67C628.54 836.58 628.79 834.5 629.16 832.41C629.848 828.105 631.05 823.899 632.74 819.88C634.428 823.9 635.633 828.106 636.33 832.41C636.69 834.5 636.95 836.59 637.18 838.67C637.41 840.75 637.63 842.85 637.83 844.94C638.21 849.12 638.52 853.29 638.68 857.47C638.84 861.65 638.93 865.83 638.74 870H626.74Z" fill="#592D3D"/>
<path d="M380.531 758.82L613.761 758.72" stroke="#592D3D" stroke-width="12" stroke-miterlimit="10"/>
<path d="M559.552 758.82C559.554 763.322 559.071 767.811 558.112 772.21C557.646 774.35 557.066 776.463 556.372 778.54C554.16 784.744 550.764 790.46 546.372 795.37C544.971 796.943 543.467 798.423 541.872 799.8C516.702 818 476.702 819 452.392 799.22C449.773 796.932 447.391 794.386 445.282 791.62C440.904 785.87 437.802 779.253 436.182 772.21C435.708 770.034 435.351 767.834 435.112 765.62C434.862 763.362 434.739 761.092 434.742 758.82" stroke="#592D3D" stroke-width="12" stroke-miterlimit="10"/>
<path d="M503.399 828.39C497.35 829.607 491.161 829.977 485.009 829.49C478.802 829.054 472.681 827.789 466.809 825.73C460.902 823.705 455.338 820.792 450.309 817.09L448.449 815.68C447.839 815.2 447.249 814.68 446.659 814.16C445.471 813.149 444.358 812.052 443.329 810.88C441.276 808.573 439.473 806.056 437.949 803.37C440.089 805.515 442.338 807.548 444.689 809.46C445.269 809.94 445.859 810.41 446.439 810.86C447.019 811.31 447.669 811.68 448.279 812.1C448.889 812.52 449.499 812.94 450.129 813.33L452.039 814.49C457.141 817.512 462.535 820.012 468.139 821.95C473.755 823.914 479.525 825.402 485.389 826.4C491.354 827.376 497.365 828.04 503.399 828.39Z" fill="#592D3D"/>
<path d="M307.832 892.5C308.969 893.537 310.201 894.464 311.512 895.27" stroke="#592D3D" stroke-width="12" stroke-miterlimit="10" stroke-linecap="square"/>
<path d="M674.699 882.69C672.618 883.935 670.327 884.789 667.939 885.21C665.568 885.676 663.155 885.894 660.739 885.86C658.327 885.813 655.924 885.548 653.559 885.07C652.379 884.86 651.229 884.51 650.069 884.2C648.909 883.89 647.799 883.43 646.699 882.96C647.909 882.96 649.079 883.14 650.259 883.24L653.779 883.53C654.949 883.53 656.109 883.73 657.279 883.74C658.449 883.75 659.599 883.85 660.759 883.86C663.093 883.9 665.426 883.837 667.759 883.67C670.093 883.508 672.412 883.181 674.699 882.69Z" fill="#592D3D"/>
<path d="M500 860.85C488.317 860.85 476.896 864.314 467.182 870.805C457.468 877.296 449.897 886.521 445.426 897.315C440.955 908.109 439.785 919.986 442.065 931.444C444.344 942.902 449.97 953.428 458.231 961.689C466.492 969.95 477.017 975.576 488.476 977.855C499.934 980.134 511.811 978.964 522.605 974.494C533.398 970.023 542.624 962.452 549.115 952.738C555.605 943.024 559.07 931.603 559.07 919.92C559.025 904.267 552.787 889.269 541.719 878.201C530.651 867.133 515.652 860.895 500 860.85ZM467.09 952.85C458.545 944.353 453.695 932.83 453.59 920.78L499.59 966.35C487.76 965.91 476 961.69 467.09 952.83V952.85ZM510.09 965.08L454.86 909.8C456.796 901.099 461.2 893.14 467.544 886.877C473.887 880.614 481.901 876.312 490.626 874.487C499.352 872.662 508.418 873.39 516.74 876.584C525.062 879.779 532.287 885.305 537.55 892.5L531.22 898C527.627 893.08 522.932 889.07 517.51 886.292C512.089 883.513 506.092 882.043 500 882C492.152 882.046 484.507 884.497 478.095 889.023C471.683 893.548 466.812 899.931 464.14 907.31L512.66 955.83C518.712 953.681 524.126 950.042 528.403 945.25C532.679 940.458 535.68 934.667 537.13 928.41H516.88V919.97H546.41C546.341 930.478 542.718 940.653 536.131 948.84C529.543 957.027 520.379 962.744 510.13 965.06L510.09 965.08Z" stroke="white" stroke-width="16"/>
<path d="M500 860.85C488.317 860.85 476.896 864.314 467.182 870.805C457.468 877.296 449.897 886.521 445.426 897.315C440.955 908.109 439.785 919.986 442.065 931.444C444.344 942.902 449.97 953.428 458.231 961.689C466.492 969.95 477.017 975.576 488.476 977.855C499.934 980.134 511.811 978.964 522.605 974.494C533.398 970.023 542.624 962.452 549.115 952.738C555.605 943.024 559.07 931.603 559.07 919.92C559.025 904.267 552.787 889.269 541.719 878.201C530.651 867.133 515.652 860.895 500 860.85ZM467.09 952.85C458.545 944.353 453.695 932.83 453.59 920.78L499.59 966.35C487.76 965.91 476 961.69 467.09 952.83V952.85ZM510.09 965.08L454.86 909.8C456.796 901.099 461.2 893.14 467.544 886.877C473.887 880.614 481.901 876.312 490.626 874.487C499.352 872.662 508.418 873.39 516.74 876.584C525.062 879.779 532.287 885.305 537.55 892.5L531.22 898C527.627 893.08 522.932 889.07 517.51 886.292C512.089 883.513 506.092 882.043 500 882C492.152 882.046 484.507 884.497 478.095 889.023C471.683 893.548 466.812 899.931 464.14 907.31L512.66 955.83C518.712 953.681 524.126 950.042 528.403 945.25C532.679 940.458 535.68 934.667 537.13 928.41H516.88V919.97H546.41C546.341 930.478 542.718 940.653 536.131 948.84C529.543 957.027 520.379 962.744 510.13 965.06L510.09 965.08Z" fill="#663795"/>
<path opacity="0.1" d="M426.882 961.63C441.357 961.628 455.469 957.095 467.238 948.666C479.006 940.237 487.841 928.335 492.502 914.63C486.585 924.751 478.255 933.249 468.254 939.366C458.254 945.483 446.894 949.028 435.19 949.686C423.485 950.343 411.8 948.092 401.177 943.134C390.554 938.176 381.324 930.664 374.312 921.27L374.262 936C387.002 951.63 405.152 961.63 426.882 961.63Z" fill="black"/>
<path opacity="0.1" d="M573.12 961.63C558.644 961.628 544.532 957.095 532.764 948.666C520.995 940.237 512.161 928.335 507.5 914.63C513.416 924.751 521.747 933.249 531.747 939.366C541.748 945.483 553.108 949.028 564.812 949.686C576.517 950.343 588.202 948.092 598.825 943.134C609.448 938.176 618.677 930.664 625.69 921.27V935.99C613 951.63 594.85 961.63 573.12 961.63Z" fill="black"/>
<path d="M407.002 943.81C396.331 939.827 386.805 933.277 379.267 924.737C371.73 916.198 366.412 905.933 363.784 894.85C361.156 883.767 361.3 872.208 364.202 861.194C367.104 850.179 372.674 840.05 380.422 831.7" fill="#D67070"/>
<path d="M406.999 943.81C395.176 941.88 384.258 936.283 375.789 927.81L374.169 926.21C373.639 925.67 373.169 925.08 372.639 924.52C372.109 923.96 371.639 923.37 371.159 922.79C370.652 922.219 370.174 921.621 369.729 921C368.829 919.77 367.919 918.54 367.049 917.28L364.679 913.35C361.688 907.965 359.431 902.204 357.969 896.22C356.61 890.22 356.042 884.068 356.279 877.92C356.551 871.812 357.696 865.774 359.679 859.99C359.939 859.28 360.169 858.56 360.439 857.85L361.319 855.75C361.869 854.35 362.579 853.01 363.229 851.66C364.619 849.003 366.203 846.453 367.969 844.03C368.819 842.82 369.789 841.68 370.719 840.54C371.649 839.4 372.659 838.31 373.719 837.31C375.786 835.244 378.039 833.373 380.449 831.72C374.659 841.72 370.549 851.91 368.789 862.39C367.874 867.541 367.479 872.77 367.609 878C367.802 883.187 368.471 888.346 369.609 893.41C370.842 898.446 372.556 903.352 374.729 908.06C376.951 912.816 379.659 917.33 382.809 921.53C385.996 925.871 389.618 929.876 393.619 933.48C397.82 937.247 402.292 940.7 406.999 943.81Z" fill="#592D3D"/>
<path d="M593.051 943.81C603.718 939.822 613.239 933.267 620.771 924.725C628.303 916.184 633.615 905.918 636.238 894.836C638.861 883.753 638.713 872.196 635.807 861.184C632.902 850.173 627.329 840.046 619.581 831.7" fill="#D67070"/>
<path d="M593.051 943.81C597.746 940.711 602.209 937.272 606.401 933.52C610.402 929.915 614.024 925.911 617.211 921.57C620.361 917.37 623.069 912.856 625.291 908.1C627.463 903.392 629.178 898.486 630.411 893.45C631.549 888.385 632.218 883.227 632.411 878.04C632.555 872.791 632.17 867.541 631.261 862.37C629.501 851.89 625.391 841.73 619.601 831.7C622.011 833.353 624.264 835.224 626.331 837.29C627.411 838.29 628.331 839.43 629.331 840.52C630.331 841.61 631.231 842.8 632.081 844.01C633.847 846.433 635.431 848.983 636.821 851.64C637.471 852.99 638.181 854.33 638.731 855.73L639.611 857.83C639.881 858.54 640.111 859.26 640.371 859.97C642.354 865.754 643.499 871.792 643.771 877.9C644.008 884.048 643.44 890.2 642.081 896.2C640.619 902.184 638.362 907.945 635.371 913.33L633.001 917.26C632.131 918.52 631.221 919.75 630.321 920.98C629.876 921.601 629.398 922.199 628.891 922.77C628.401 923.35 627.891 923.93 627.411 924.5C626.931 925.07 626.411 925.65 625.881 926.19L624.261 927.79C615.795 936.27 604.877 941.875 593.051 943.81Z" fill="#592D3D"/>
<path d="M670.061 788.32C672.261 786.107 674.427 783.87 676.561 781.61C721.721 726.9 725.261 669.22 734.431 633.24V619L731.991 619.84C732.821 618.32 733.641 616.84 734.431 615.28C734.371 615.18 730.941 618.66 730.881 618.56C729.296 619.859 727.595 621.01 725.801 622L693.251 633.28C678.785 636.016 664.082 637.296 649.361 637.1C586.361 636.84 586.121 622.23 536.161 617.1L439.671 618.68C413.981 622.52 402.611 630.49 351.671 631.53C307.521 632.43 268.051 621.53 268.051 621.53V634.21C282.051 671.05 272.631 698.64 297.051 744.7C297.051 744.05 297.051 743.39 297.001 742.7C292.611 720.99 297.001 701.13 299.121 693.51C299.331 691.63 299.481 690.59 299.481 690.59V690.52C299.481 690.4 299.481 690.32 299.481 690.32V690.42C299.481 690.56 299.591 690.87 299.701 691.32C299.931 690.6 300.061 690.21 300.061 690.21C300.061 690.21 300.951 695.12 302.601 702.95C306.531 718.43 313.761 745.95 322.051 773.03C322.971 775.46 323.921 777.84 324.891 780.14C324.961 780.35 325.041 780.58 325.121 780.79C353.061 810.67 387.251 836.15 418.261 855.29C421.601 857.29 424.771 859.16 427.741 860.9C424.891 846.574 425.72 831.759 430.151 817.84C430.151 817.84 430.221 818.22 430.361 818.92C430.601 818.15 430.761 817.73 430.761 817.73C430.761 817.73 442.191 865.18 465.281 880.56C465.851 880.8 466.431 881.03 467.011 881.22L466.571 881.38L466.671 881.44C467.251 881.77 467.851 882.09 468.441 882.44C475.392 885.674 482.516 888.521 489.781 890.97C495.191 892.54 499.621 893.36 501.781 893.36C506.531 893.36 533.781 882.75 550.471 844.29C551.571 841.02 552.101 838.97 552.101 838.97L552.381 839.66C552.491 839.39 552.601 839.13 552.701 838.86C558.167 847.946 560.942 858.398 560.701 869C585.983 855.151 610.084 839.248 632.761 821.45V821.34C633.031 820.7 633.291 820.05 633.561 819.4L633.621 819.27L634.431 817.27L635.271 815.19C649.751 779.36 658.851 726.19 658.851 726.19C658.911 726.01 659.131 726.28 659.451 726.93C659.451 726.38 659.451 726.08 659.451 726.08C659.451 726.08 675.721 748.49 670.061 788.32Z" fill="#592D3D"/>
<path d="M670.061 788.32C672.261 786.107 674.427 783.87 676.561 781.61C721.721 726.9 725.261 669.22 734.431 633.24V619L731.991 619.84C732.821 618.32 733.641 616.84 734.431 615.28C734.371 615.18 730.941 618.66 730.881 618.56C729.296 619.859 727.595 621.01 725.801 622L693.251 633.28C678.785 636.016 664.082 637.296 649.361 637.1C586.361 636.84 586.121 622.23 536.161 617.1L439.671 618.68C413.981 622.52 402.611 630.49 351.671 631.53C307.521 632.43 268.051 621.53 268.051 621.53V634.21C282.051 671.05 272.631 698.64 297.051 744.7C297.051 744.05 297.051 743.39 297.001 742.7C292.611 720.99 297.001 701.13 299.121 693.51C299.331 691.63 299.481 690.59 299.481 690.59V690.52C299.481 690.4 299.481 690.32 299.481 690.32V690.42C299.481 690.56 299.591 690.87 299.701 691.32C299.931 690.6 300.061 690.21 300.061 690.21C300.061 690.21 300.951 695.12 302.601 702.95C306.531 718.43 313.761 745.95 322.051 773.03C322.971 775.46 323.921 777.84 324.891 780.14C324.961 780.35 325.041 780.58 325.121 780.79C353.061 810.67 387.251 836.15 418.261 855.29C421.601 857.29 424.771 859.16 427.741 860.9C424.891 846.574 425.72 831.759 430.151 817.84C430.151 817.84 430.221 818.22 430.361 818.92C430.601 818.15 430.761 817.73 430.761 817.73C430.761 817.73 442.191 865.18 465.281 880.56C465.851 880.8 466.431 881.03 467.011 881.22L466.571 881.38L466.671 881.44C467.251 881.77 467.851 882.09 468.441 882.44C475.392 885.674 482.516 888.521 489.781 890.97C495.191 892.54 499.621 893.36 501.781 893.36C506.531 893.36 533.781 882.75 550.471 844.29C551.571 841.02 552.101 838.97 552.101 838.97L552.381 839.66C552.491 839.39 552.601 839.13 552.701 838.86C558.167 847.946 560.942 858.398 560.701 869C585.983 855.151 610.084 839.248 632.761 821.45V821.34C633.031 820.7 633.291 820.05 633.561 819.4L633.621 819.27L634.431 817.27L635.271 815.19C649.751 779.36 658.851 726.19 658.851 726.19C658.911 726.01 659.131 726.28 659.451 726.93C659.451 726.38 659.451 726.08 659.451 726.08C659.451 726.08 675.721 748.49 670.061 788.32Z" fill="#592D3D"/>
<path d="M670.061 788.32C672.261 786.107 674.427 783.87 676.561 781.61C721.721 726.9 725.261 669.22 734.431 633.24V619L731.991 619.84C732.821 618.32 733.641 616.84 734.431 615.28C734.371 615.18 730.941 618.66 730.881 618.56C729.296 619.859 727.595 621.01 725.801 622L693.251 633.28C678.785 636.016 664.082 637.296 649.361 637.1C586.361 636.84 571.061 617.41 536.161 617.1C501.261 616.79 459.211 615.87 439.671 618.68C420.131 621.49 402.611 630.49 351.671 631.53C307.521 632.43 268.051 621.53 268.051 621.53V634.21C282.051 671.05 272.631 698.64 297.051 744.7C297.051 744.05 297.051 743.39 297.001 742.7C292.611 720.99 297.001 701.13 299.121 693.51C299.331 691.63 299.481 690.59 299.481 690.59V690.52C299.481 690.4 299.481 690.32 299.481 690.32V690.42C299.481 690.56 299.591 690.87 299.701 691.32C299.931 690.6 300.061 690.21 300.061 690.21C300.061 690.21 300.951 695.12 302.601 702.95C306.531 718.43 313.761 745.95 322.051 773.03C322.971 775.46 323.921 777.84 324.891 780.14C324.961 780.35 325.041 780.58 325.121 780.79C353.061 810.67 387.251 836.15 418.261 855.29C421.601 857.29 424.771 859.16 427.741 860.9C424.891 846.574 425.72 831.759 430.151 817.84C430.151 817.84 430.221 818.22 430.361 818.92C430.601 818.15 430.761 817.73 430.761 817.73C430.761 817.73 442.191 865.18 465.281 880.56C465.851 880.8 466.431 881.03 467.011 881.22L466.571 881.38L466.671 881.44C467.251 881.77 467.851 882.09 468.441 882.44C475.392 885.674 482.516 888.521 489.781 890.97C495.191 892.54 499.621 893.36 501.781 893.36C506.531 893.36 533.781 882.75 550.471 844.29C551.571 841.02 552.101 838.97 552.101 838.97L552.381 839.66C552.491 839.39 552.601 839.13 552.701 838.86C558.167 847.946 560.942 858.398 560.701 869C585.983 855.151 610.084 839.248 632.761 821.45V821.34C633.031 820.7 633.291 820.05 633.561 819.4L633.621 819.27L634.431 817.27L635.271 815.19C649.751 779.36 658.851 726.19 658.851 726.19C658.911 726.01 659.131 726.28 659.451 726.93C659.451 726.38 659.451 726.08 659.451 726.08C659.451 726.08 675.721 748.49 670.061 788.32Z" fill="#592D3D"/>
<path d="M343.499 706.91C347.326 710.318 352.176 712.358 357.289 712.71C342.999 701.34 337.779 690.32 335.999 685.36C330.813 667.565 327.463 649.287 325.999 630.81C306.47 629.426 287.103 626.304 268.129 621.48V634.16C282.129 671 272.709 698.59 297.129 744.65C297.129 744 297.129 743.34 297.079 742.65C292.689 720.94 297.079 701.08 299.199 693.46C299.409 691.58 299.559 690.54 299.559 690.54V690.47C299.559 690.35 299.559 690.27 299.559 690.27V690.37C299.559 690.51 299.669 690.82 299.779 691.27C300.009 690.55 300.139 690.16 300.139 690.16C300.139 690.16 301.029 695.07 302.679 702.9C306.609 718.38 313.839 745.9 322.129 772.98C323.049 775.41 323.999 777.79 324.969 780.09C325.039 780.3 325.119 780.53 325.199 780.74C353.139 810.62 387.329 836.1 418.339 855.24C421.679 857.24 424.849 859.11 427.819 860.85C424.969 846.524 425.799 831.709 430.229 817.79C430.229 817.79 430.299 818.17 430.439 818.87C430.679 818.1 430.839 817.68 430.839 817.68C430.839 817.68 442.269 865.13 465.359 880.51C465.929 880.75 466.509 880.98 467.089 881.17L466.649 881.33L466.749 881.39C467.329 881.72 467.929 882.04 468.519 882.39C475.47 885.624 482.594 888.471 489.859 890.92C495.269 892.49 499.699 893.31 501.859 893.31C505.389 893.31 521.369 887.43 536.189 868.59C466.939 846.06 380.779 800 343.499 706.91Z" fill="#592D3D"/>
<path d="M433.872 816.78C433.872 816.78 443.362 825.78 463.162 820.87C461.692 824.42 457.232 826.27 457.232 826.27C457.232 826.27 463.402 834.4 476.292 834.02C476.292 834.02 468.562 838.82 460.762 835.67C454.68 834.781 448.555 834.224 442.412 834L428.902 824.62L433.872 816.78Z" fill="#592D3D"/>
<path d="M351.699 631.52C349.939 631.84 348.179 632.12 346.419 632.36C345.529 632.47 344.649 632.61 343.769 632.71L341.109 632.95L335.789 633.33C334.009 633.41 332.229 633.42 330.459 633.47C326.899 633.54 323.349 633.4 319.789 633.27C316.229 633.14 312.689 632.9 309.149 632.56C305.609 632.22 302.079 631.86 298.539 631.46C294.999 631.06 291.489 630.46 287.979 629.9C280.901 628.76 273.89 627.234 266.979 625.33L263.129 624.25L265.229 616.68L269.109 617.62C275.719 619.23 282.579 620.75 289.379 622.11C296.179 623.47 303.059 624.75 309.949 625.83C313.389 626.42 316.839 626.83 320.299 627.39C323.759 627.95 327.219 628.39 330.689 628.7C337.669 629.65 344.639 630.36 351.699 631.52Z" fill="#592D3D"/>
<path d="M669.312 789.07C679.572 778.81 678.602 779.44 687.102 768.13C685.602 733.65 657.102 714.42 657.102 714.42L659.002 726.08C659.842 726.24 666.912 744.55 666.562 772.16L669.312 789.07Z" fill="#592D3D"/>
<path d="M575.361 859.87C569.641 834.97 552.941 830.72 552.941 830.72L556.151 850.17C558.096 856.402 559.402 862.814 560.051 869.31C565.051 866.59 570.211 863.65 575.501 860.53L575.361 859.87Z" fill="#592D3D"/>
<path d="M340.091 735.62C341.491 742.568 343.703 749.328 346.681 755.76C349.596 762.087 353.048 768.153 357.001 773.89L360.091 778.07C360.621 778.75 361.091 779.49 361.651 780.14L363.311 782.14C364.441 783.45 365.501 784.82 366.661 786.14L370.221 789.92C370.821 790.54 371.381 791.2 371.991 791.81L373.891 793.59L377.661 797.17C380.241 799.49 382.991 801.62 385.601 803.92L379.321 807.24L379.261 803.24C379.311 801.92 379.331 800.6 379.461 799.24C379.591 797.88 379.691 796.59 379.921 795.24C380.031 794.58 380.101 793.92 380.241 793.24L380.671 791.24C381.273 788.611 382.117 786.044 383.191 783.57C383.725 782.346 384.33 781.154 385.001 780C385.341 779.4 385.731 778.82 386.131 778.23C386.341 777.94 386.531 777.66 386.771 777.36C387.011 777.06 387.191 776.82 387.551 776.41L392.011 771.35L392.571 777.9C392.671 778.99 392.871 780.3 393.101 781.51C393.331 782.72 393.611 783.97 393.941 785.19C394.588 787.632 395.427 790.02 396.451 792.33C397.517 794.644 398.824 796.84 400.351 798.88C401.971 800.932 403.862 802.755 405.971 804.3C403.422 803.353 401.054 801.977 398.971 800.23C396.859 798.428 394.996 796.353 393.431 794.06C391.868 791.753 390.528 789.302 389.431 786.74C388.891 785.46 388.431 784.16 387.971 782.83C387.513 781.468 387.142 780.079 386.861 778.67L391.861 780.16C391.861 780.24 391.641 780.51 391.521 780.71C391.401 780.91 391.261 781.17 391.131 781.4C390.881 781.88 390.631 782.4 390.401 782.88C389.934 783.908 389.52 784.96 389.161 786.03C388.448 788.215 387.907 790.451 387.541 792.72C387.178 795.017 386.961 797.335 386.891 799.66C386.831 800.82 386.891 802 386.891 803.17L387.051 806.7L387.451 815.34L380.771 810.02C379.331 808.87 377.901 807.73 376.481 806.56L374.341 804.81C373.641 804.22 372.901 803.67 372.251 803.02L368.251 799.19L366.251 797.28C365.611 796.61 365.001 795.92 364.391 795.23L360.721 791.08C359.511 789.69 358.461 788.16 357.341 786.69C355.124 783.737 353.065 780.669 351.171 777.5C347.489 771.105 344.591 764.289 342.541 757.2C340.611 750.19 339.431 742.84 340.091 735.62Z" fill="#592D3D"/>
<path d="M638.779 724.34C639.289 724.809 639.704 725.373 639.999 726C640.32 726.628 640.6 727.276 640.839 727.94C641.31 729.268 641.697 730.624 641.999 732C642.558 734.744 642.919 737.524 643.079 740.32C643.394 745.895 643.214 751.487 642.539 757.03C641.215 768.188 638.18 779.076 633.539 789.31C628.915 799.663 622.389 809.055 614.299 817C606.294 824.867 596.516 830.697 585.789 834C594.743 828.084 602.796 820.906 609.699 812.69C616.374 804.566 621.94 795.591 626.249 786C630.611 776.364 633.992 766.313 636.339 756C637.553 750.8 638.491 745.539 639.149 740.24C639.469 737.59 639.689 734.92 639.779 732.24C639.832 730.906 639.805 729.57 639.699 728.24C639.659 727.568 639.572 726.9 639.439 726.24C639.333 725.573 639.109 724.93 638.779 724.34Z" fill="white"/>
<path d="M262.512 621.57C284.752 665.47 269.732 693.95 297.692 745.87C290.692 716.87 300.122 690.19 300.122 690.19C300.122 690.19 310.002 744.78 325.002 780.12C332.282 803.58 394.852 841.52 428.552 861.29C425.58 846.804 426.379 831.798 430.872 817.71C430.872 817.71 442.762 867.07 466.782 881.42C480.212 889 496.932 893.31 501.912 893.31C506.892 893.31 536.442 881.73 552.832 838.81C558.363 848.063 561.106 858.716 560.732 869.49C582.912 857.49 614.122 843.81 633.182 821.84C659.522 787.15 659.522 726 659.522 726C659.522 726 676.002 748.85 669.932 789.3C731.692 721 724.272 646.16 741.352 613.73" stroke="#592D3D" stroke-width="12" stroke-miterlimit="10"/>
<path d="M734.38 616.77C734.663 617.284 735.06 617.725 735.54 618.06C736.175 618.495 736.921 618.738 737.69 618.76C738.269 618.776 738.844 618.659 739.37 618.42H739.281L739.081 618.53L738.6 618.77L737.6 619.28L735.6 620.28C734.267 620.947 732.934 621.613 731.6 622.28C728.91 623.6 726.19 624.85 723.47 626.09C720.75 627.33 717.971 628.5 715.201 629.66C712.431 630.82 709.6 631.89 706.73 632.92C705.29 633.43 703.841 633.92 702.341 634.35C700.783 634.831 699.196 635.215 697.591 635.5C697.121 635.58 696.78 635.61 696.41 635.66L695.29 635.79C694.55 635.88 693.81 635.95 693.06 636.02C691.57 636.16 690.06 636.32 688.57 636.42C682.542 636.916 676.478 636.772 670.48 635.99C676.34 634.41 682.1 633.1 687.85 631.7L696.44 629.7C697.735 629.32 699.007 628.866 700.25 628.34C701.56 627.82 702.88 627.2 704.25 626.62C706.9 625.43 709.54 624.15 712.18 622.85C714.82 621.55 717.47 620.24 720.11 618.92L728.05 614.92L732.05 612.92L734.05 611.92L735.05 611.44L735.581 611.19L735.88 611.06L736.04 610.98H736.091C736.999 610.567 738.026 610.499 738.981 610.788C739.936 611.077 740.753 611.703 741.281 612.55L743.41 615.93L736.35 620.12L734.38 616.77Z" fill="#592D3D"/>
<path d="M271.401 576.82C270.401 548.46 289.401 524.46 314.681 513.26C317.336 512.173 320.062 511.271 322.841 510.56C336.851 507.08 351.594 508.016 365.051 513.24C368.126 514.419 371.117 515.809 374.001 517.4C403.531 533.28 416.791 570.65 405.361 600.86C404.203 603.906 402.805 606.855 401.181 609.68C397.193 617.988 391.17 625.153 383.671 630.51C381.169 632.351 378.547 634.021 375.821 635.51C348.441 648.51 311.441 644.51 289.371 624.11C287.163 621.765 285.122 619.269 283.261 616.64C281.139 613.637 279.275 610.459 277.691 607.14C274.338 600.351 272.402 592.951 272.001 585.39C271.639 582.547 271.439 579.686 271.401 576.82Z" fill="#EDD494"/>
<path d="M269.772 558.47C268.772 530.11 287.772 506.11 313.052 494.91C315.703 493.823 318.427 492.921 321.202 492.21C335.215 488.728 349.962 489.664 363.422 494.89C366.487 496.07 369.468 497.46 372.342 499.05C401.872 514.94 415.132 552.3 403.702 582.51C402.552 585.559 401.154 588.509 399.522 591.33C398.14 594.039 396.566 596.645 394.812 599.13C393.084 601.592 391.186 603.931 389.132 606.13C386.912 608.327 384.532 610.356 382.012 612.2C379.512 614.043 376.889 615.714 374.162 617.2C346.782 630.2 309.782 626.2 287.722 605.8C285.509 603.46 283.467 600.963 281.612 598.33C279.487 595.327 277.62 592.149 276.032 588.83C272.656 582.02 270.713 574.591 270.322 567C269.968 564.17 269.785 561.322 269.772 558.47Z" fill="white"/>
<path d="M338.51 571.32C345.27 571.32 350.75 565.84 350.75 559.08C350.75 552.32 345.27 546.84 338.51 546.84C331.75 546.84 326.27 552.32 326.27 559.08C326.27 565.84 331.75 571.32 338.51 571.32Z" fill="#592D3D"/>
<path d="M339.2 490.12C330.2 490.109 321.287 491.876 312.972 495.32C304.658 498.765 297.105 503.818 290.75 510.19C288.265 512.68 285.972 515.354 283.89 518.19C279.586 523.79 276.117 529.985 273.59 536.58H403.92C400.54 524.711 393.499 514.211 383.8 506.58C381.799 504.865 379.702 503.266 377.52 501.79C366.202 494.152 352.853 490.087 339.2 490.12Z" fill="#FBE8B3" stroke="#592D3D" stroke-width="8" stroke-miterlimit="10"/>
<path d="M274.09 581.45C279.59 595.2 289.39 607.38 302.01 614.77C305.259 616.612 308.654 618.184 312.16 619.47C336.79 628.56 367.16 624.54 386.65 607.86C389.268 605.51 391.705 602.966 393.94 600.25C395.623 598.222 397.161 596.076 398.54 593.83C400.54 589.853 402.192 585.711 403.48 581.45H274.09Z" fill="#FBE8B3" stroke="#592D3D" stroke-width="8" stroke-miterlimit="10"/>
<path d="M269.772 558.47C268.772 530.11 287.772 506.11 313.052 494.91C315.703 493.823 318.427 492.921 321.202 492.21C335.215 488.728 349.962 489.664 363.422 494.89C366.487 496.07 369.468 497.46 372.342 499.05C401.872 514.94 415.132 552.3 403.702 582.51C402.552 585.559 401.154 588.509 399.522 591.33C398.14 594.039 396.566 596.645 394.812 599.13C393.084 601.592 391.186 603.931 389.132 606.13C386.912 608.327 384.532 610.356 382.012 612.2C379.512 614.043 376.889 615.714 374.162 617.2C346.782 630.2 309.782 626.2 287.722 605.8C285.509 603.46 283.467 600.963 281.612 598.33C279.487 595.327 277.62 592.149 276.032 588.83C272.656 582.02 270.713 574.591 270.322 567C269.968 564.17 269.785 561.322 269.772 558.47Z" stroke="#592D3D" stroke-width="12" stroke-miterlimit="10"/>
<path d="M583.892 568.76C584.322 553.63 590.562 538.67 598.992 527.43C601.144 524.409 603.524 521.558 606.112 518.9C617.618 506.92 633.023 499.44 649.554 497.809C666.085 496.177 682.655 500.5 696.282 510C698.553 511.585 700.734 513.298 702.812 515.13C729.812 536.58 732.932 578.27 718.132 608.36C716.694 610.751 715.097 613.043 713.352 615.22C711.038 618.121 708.504 620.839 705.772 623.35C685.502 641.18 653.962 645.48 628.362 635.77C624.714 634.394 621.186 632.722 617.812 630.77C599.912 619.99 587.442 599.68 584.382 578.54C583.964 575.298 583.801 572.028 583.892 568.76Z" fill="#EDD494"/>
<path d="M589.379 557.26C589.799 543.11 595.799 529.11 603.899 518.6C605.983 515.766 608.276 513.092 610.759 510.6C622.006 499.356 636.812 492.373 652.642 490.846C668.472 489.319 684.34 493.343 697.529 502.23C699.711 503.707 701.808 505.306 703.809 507.02C729.809 527.09 732.809 566.09 718.549 594.24C717.167 596.485 715.63 598.63 713.949 600.66C711.716 603.376 709.279 605.916 706.659 608.26C687.149 625 656.799 629 632.169 619.9C628.657 618.609 625.255 617.034 621.999 615.19C604.779 605.11 592.779 586.11 589.829 566.34C589.435 563.33 589.284 560.294 589.379 557.26Z" fill="white"/>
<path d="M659.209 571.32C665.969 571.32 671.449 565.84 671.449 559.08C671.449 552.32 665.969 546.84 659.209 546.84C652.449 546.84 646.969 552.32 646.969 559.08C646.969 565.84 652.449 571.32 659.209 571.32Z" fill="#592D3D"/>
<path d="M659.212 490.55C650.212 490.539 641.299 492.306 632.984 495.75C624.669 499.195 617.117 504.248 610.762 510.62C608.279 513.112 605.986 515.786 603.902 518.62C599.601 524.219 596.132 530.409 593.602 537H723.932C720.549 525.132 713.508 514.633 703.812 507C701.81 505.286 699.714 503.687 697.532 502.21C686.213 494.576 672.864 490.514 659.212 490.55Z" fill="#FBE8B3" stroke="#592D3D" stroke-width="8" stroke-miterlimit="10"/>
<path d="M594.102 581.87C599.612 595.63 609.402 607.81 622.022 615.19C625.271 617.033 628.666 618.608 632.172 619.9C656.802 628.99 687.172 624.96 706.662 608.28C709.282 605.936 711.719 603.396 713.952 600.68C715.633 598.65 717.17 596.505 718.552 594.26C720.557 590.282 722.21 586.136 723.492 581.87H594.102Z" fill="#FBE8B3" stroke="#592D3D" stroke-width="8" stroke-miterlimit="10"/>
<path d="M589.379 557.26C589.799 543.11 595.799 529.11 603.899 518.6C605.983 515.766 608.276 513.092 610.759 510.6C622.006 499.356 636.812 492.373 652.642 490.846C668.472 489.319 684.34 493.343 697.529 502.23C699.711 503.707 701.808 505.306 703.809 507.02C729.809 527.09 732.809 566.09 718.549 594.24C717.167 596.485 715.63 598.63 713.949 600.66C711.716 603.376 709.279 605.916 706.659 608.26C687.149 625 656.799 629 632.169 619.9C628.657 618.609 625.255 617.034 621.999 615.19C604.779 605.11 592.779 586.11 589.829 566.34C589.435 563.33 589.284 560.294 589.379 557.26Z" stroke="#592D3D" stroke-width="12" stroke-miterlimit="10"/>
<path fill-rule="evenodd" clip-rule="evenodd" d="M243.891 489.13C249.531 504.96 264.791 513.19 277.291 516.07C290.351 495.83 333.941 487.15 366.661 498.63C394.461 503.63 355.851 473.06 294.191 489.63C291.881 490.48 279.631 492.58 263.911 480.44C261.721 478.75 268.591 494.15 276.411 500.44C265.061 500.21 263.201 500.22 243.891 489.13Z" fill="#592D3D"/>
<path fill-rule="evenodd" clip-rule="evenodd" d="M721.209 500.43C729.029 494.18 735.899 478.78 733.709 480.43C717.989 492.57 705.709 490.43 703.429 489.62C641.769 473.02 603.149 503.62 630.949 498.62C663.679 487.14 707.269 495.82 720.329 516.06C732.829 513.18 748.089 504.95 753.729 489.12C734.419 500.22 732.559 500.21 721.209 500.43Z" fill="#592D3D"/>
<path d="M443.141 621.86C443.141 602.96 556.861 605.8 556.861 621.86C556.861 636.94 550.87 651.403 540.207 662.066C529.543 672.729 515.081 678.72 500.001 678.72C484.92 678.72 470.458 672.729 459.795 662.066C449.131 651.403 443.141 636.94 443.141 621.86Z" fill="#592D3D"/>
<path d="M495.002 643C478.052 642 463.272 649.75 458.352 661.22C466.532 669.863 477.219 675.72 488.905 677.968C500.591 680.216 512.688 678.741 523.492 673.75C525.738 672.713 527.913 671.527 530.002 670.2C529.082 656.09 514.062 644.18 495.002 643Z" fill="#F28195"/>
<path d="M443.141 621.86C443.141 602.96 556.861 605.8 556.861 621.86C556.861 636.94 550.87 651.403 540.207 662.066C529.543 672.729 515.081 678.72 500.001 678.72C484.92 678.72 470.458 672.729 459.795 662.066C449.131 651.403 443.141 636.94 443.141 621.86Z" stroke="#592D3D" stroke-width="6" stroke-miterlimit="10"/>
<path d="M478.121 632.46C478.571 632.35 478.751 632.3 479.041 632.25L479.791 632.11C480.281 632.02 480.791 631.97 481.251 631.93C482.211 631.832 483.177 631.799 484.141 631.83C486.096 631.873 488.039 632.145 489.931 632.64C493.893 633.643 497.484 635.76 500.281 638.74C502.912 641.57 504.676 645.097 505.361 648.9C505.986 652.408 505.511 656.023 504.001 659.25C501.931 656.32 500.341 653.69 498.681 651.49C497.934 650.435 497.115 649.433 496.231 648.49C495.423 647.662 494.517 646.936 493.531 646.33C491.664 645.212 489.582 644.499 487.421 644.24C486.287 644.094 485.145 644.014 484.001 644C483.411 644 482.821 644 482.241 644.05L481.391 644.11H481.001C480.901 644.11 480.701 644.11 480.771 644.11L478.121 632.46Z" fill="#592D3D"/>
<path d="M499.701 278.25C559.116 278.25 607.281 230.085 607.281 170.67C607.281 111.255 559.116 63.09 499.701 63.09C440.286 63.09 392.121 111.255 392.121 170.67C392.121 230.085 440.286 278.25 499.701 278.25Z" fill="#592D3D"/>
<path d="M559.289 397.34C546.419 421.34 499.289 434.78 495.459 428.76C491.159 422.03 533.299 373.44 509.359 322.62" fill="#EDD494"/>
<path d="M420.82 134.59C423.577 126.683 427.699 119.322 433 112.84C434.37 111.25 435.72 109.63 437.16 108.1C438.6 106.57 440.16 105.1 441.69 103.69C443.22 102.28 444.9 100.96 446.57 99.69C448.24 98.42 449.98 97.19 451.74 96.04C453.5 94.89 455.34 93.83 457.21 92.85L460.03 91.42C460.96 90.9216 461.915 90.471 462.89 90.07C464.89 89.31 466.78 88.45 468.78 87.78C470.78 87.11 472.78 86.46 474.78 85.97C482.888 83.8623 491.3 83.1854 499.64 83.97C491.482 84.756 483.434 86.4327 475.64 88.97C474.64 89.23 473.74 89.67 472.79 89.97L469.94 90.97C468.06 91.7 466.25 92.62 464.4 93.42C462.55 94.22 460.82 95.27 459.02 96.19C457.22 97.11 455.58 98.28 453.85 99.31C452.12 100.34 450.52 101.59 448.85 102.72C447.18 103.85 445.7 105.24 444.09 106.47C442.48 107.7 441.09 109.15 439.56 110.47L435.28 114.78C429.74 120.826 424.89 127.47 420.82 134.59Z" fill="white"/>
<path d="M409.801 229.76C429.001 259 435.671 233.25 498.001 233.25C605.211 233.25 571.621 258.25 590.691 228.1C563.101 218.45 546.691 208.71 502.561 208.71C460.261 208.71 438.691 219.05 409.801 229.76Z" fill="#592D3D"/>
<path d="M499.701 278.25C559.116 278.25 607.281 230.085 607.281 170.67C607.281 111.255 559.116 63.09 499.701 63.09C440.286 63.09 392.121 111.255 392.121 170.67C392.121 230.085 440.286 278.25 499.701 278.25Z" stroke="#592D3D" stroke-width="12" stroke-miterlimit="10"/>
<path d="M421.521 244.56C335.161 273.62 263.781 346.74 245.061 429.8C213.001 556.34 262.891 634 307.171 681.6C311.541 686.3 237.711 543.34 304.741 440.6C365.841 438.28 457.161 426.22 500.521 377.74C496.181 398.87 484.001 415 486.001 418.18C488.881 422.69 524.191 412.65 533.841 394.64L534.671 391.03C569.391 403.61 626.431 417.62 678.671 397.64C801.811 535.94 691.291 689 700.301 679C744.783 630.004 769.387 566.176 769.301 500C769.301 413.58 725.021 351.11 725.021 351.11C694.501 296.7 641.501 259.24 580.221 242" fill="#592D3D"/>
<path d="M326.66 439.38C332.04 387.16 351.66 326.88 391.36 257.48C388.646 258.733 385.96 260.027 383.3 261.36L382.71 261.65C381.49 262.26 380.27 262.89 379.06 263.53L378.06 264.06C374.3 266.06 370.59 268.137 366.93 270.29L366.03 270.82C364.87 271.51 363.72 272.21 362.57 272.92L361.71 273.46C358.13 275.693 354.61 278.003 351.15 280.39L350.07 281.14C348.99 281.9 347.91 282.66 346.84 283.43L346.19 283.9C344.01 285.493 341.853 287.107 339.72 288.74L339.1 289.22C338.1 290 337.1 290.8 336.1 291.61L334.92 292.55C333.92 293.36 332.92 294.17 331.92 295C329.81 296.75 327.74 298.55 325.68 300.37L324.54 301.37L321.85 303.82L320.53 305C317.683 307.667 314.893 310.39 312.16 313.17L310.79 314.58C309.99 315.4 309.2 316.22 308.42 317.05L307.05 318.53C305.683 320.023 304.333 321.513 303 323C302.54 323.51 302.08 324 301.63 324.54C300.92 325.35 300.22 326.17 299.52 327C299.01 327.59 298.52 328.18 298.01 328.78C297.33 329.59 296.65 330.4 296.01 331.22C295.47 331.88 294.94 332.55 294.4 333.22C293.34 334.55 292.29 335.88 291.25 337.22C290.7 337.92 290.16 338.62 289.63 339.33C289.1 340.04 288.43 340.92 287.84 341.73L286.25 343.91C285.69 344.69 285.12 345.46 284.57 346.24C283.63 347.58 282.69 348.93 281.77 350.29C281.27 351.02 280.77 351.77 280.29 352.51C279.81 353.25 279.18 354.17 278.64 355.01C278.1 355.85 277.64 356.55 277.16 357.32C276.68 358.09 276.03 359.12 275.47 360.03C275.04 360.72 274.61 361.41 274.19 362.1C273.31 363.56 272.443 365.027 271.59 366.5C271.17 367.22 270.77 367.94 270.36 368.66C269.82 369.61 269.28 370.57 268.75 371.53C268.35 372.26 267.95 372.99 267.56 373.72C266.92 374.91 266.29 376.11 265.67 377.31C265.26 378.09 264.86 378.87 264.46 379.65C263.82 380.93 263.18 382.2 262.56 383.49C262.22 384.18 261.89 384.88 261.56 385.58C261.04 386.67 260.56 387.77 260.02 388.87L259.11 390.87C258.37 392.517 257.647 394.183 256.94 395.87C256.72 396.39 256.51 396.92 256.29 397.44C255.76 398.71 255.29 399.98 254.73 401.26C254.47 401.93 254.2 402.6 253.94 403.26C253.45 404.52 252.94 405.79 252.49 407.06L251.88 408.71C251.213 410.463 250.593 412.217 250.02 413.97L249.46 415.67C249.02 417.003 248.59 418.337 248.17 419.67C247.97 420.3 247.77 420.94 247.58 421.58C247.1 423.12 246.64 424.663 246.2 426.21C246.1 426.54 246 426.87 245.91 427.21C245.39 429.05 244.89 430.897 244.41 432.75L243.96 434.53C243.77 435.27 243.59 436.02 243.41 436.77C241.85 443.46 240.53 450 239.41 456.41C239.31 457.06 239.19 457.71 239.09 458.36L238.85 459.87C238.55 461.83 238.277 463.793 238.03 465.76C237.97 466.19 237.92 466.63 237.87 467.06C237.67 468.65 237.49 470.25 237.32 471.85L237.14 473.66C236.97 475.34 236.82 477.03 236.69 478.72L236.6 479.72C236.447 481.72 236.32 483.737 236.22 485.77C236.22 486.3 236.17 486.84 236.14 487.37C236.067 488.943 236.007 490.513 235.96 492.08C235.96 492.67 235.96 493.26 235.91 493.85C235.91 495.9 235.84 497.96 235.84 500.02V500.12C235.84 502.327 235.867 504.533 235.92 506.74C235.92 507.5 235.98 508.26 236 509.02C236.05 510.49 236.1 511.96 236.17 513.43C236.22 514.32 236.28 515.2 236.33 516.09C236.41 517.42 236.49 518.75 236.58 520.09C236.65 521.09 236.74 521.98 236.82 522.92C236.93 524.18 237.03 525.44 237.16 526.69C237.25 527.69 237.37 528.63 237.47 529.6C237.61 530.81 237.74 532.03 237.89 533.24C238.01 534.24 238.15 535.24 238.28 536.19C238.44 537.37 238.61 538.56 238.78 539.74C238.93 540.74 239.09 541.74 239.25 542.74C239.44 543.9 239.62 545.07 239.83 546.23C240 547.23 240.18 548.23 240.37 549.23C240.58 550.38 240.8 551.53 241.03 552.67C241.26 553.81 241.43 554.67 241.64 555.67C241.88 556.81 242.12 557.94 242.38 559.07C242.64 560.2 242.83 561.07 243.06 562C243.32 563.13 243.6 564.25 243.88 565.36C244.16 566.47 244.37 567.31 244.63 568.27C244.92 569.39 245.22 570.5 245.53 571.61C245.8 572.61 246.06 573.53 246.34 574.48C246.66 575.59 246.99 576.69 247.34 577.79C247.69 578.89 247.91 579.68 248.21 580.63C248.51 581.58 248.92 582.82 249.28 583.91C249.59 584.84 249.89 585.78 250.21 586.71L251.36 589.98L252.36 592.72C252.77 593.81 253.19 594.9 253.61 595.99C253.95 596.88 254.29 597.78 254.61 598.67C255.05 599.76 255.5 600.86 255.95 601.95C256.31 602.81 256.66 603.68 257.03 604.54C257.51 605.66 258.03 606.76 258.49 607.87C258.85 608.7 259.21 609.52 259.58 610.34C260.1 611.5 260.65 612.64 261.19 613.78C261.55 614.55 261.9 615.32 262.27 616.08C262.87 617.34 263.5 618.58 264.13 619.83L265.08 621.73C267 625.47 269 629.16 271.08 632.8C271.44 633.42 271.81 634.03 272.17 634.64C272.87 635.84 273.56 637.04 274.28 638.22C274.72 638.94 275.17 639.64 275.61 640.36C276.27 641.43 276.93 642.5 277.61 643.55C278.09 644.31 278.61 645.05 279.08 645.79C279.73 646.79 280.39 647.79 281.08 648.79C281.59 649.55 282.08 650.31 282.64 651.07C283.3 652.07 283.96 652.99 284.64 653.95C285.18 654.72 285.74 655.48 286.29 656.25C286.84 657.02 287.63 658.1 288.29 659.02C288.95 659.94 289.44 660.55 290.01 661.31L292.08 664.01C292.67 664.77 293.27 665.52 293.87 666.27C294.47 667.02 295.28 668.03 295.99 668.9C296.7 669.77 297.22 670.39 297.84 671.13C298.46 671.87 299.28 672.85 300.01 673.7C300.74 674.55 301.28 675.17 301.92 675.9L304.14 678.4C304.79 679.13 305.45 679.84 306.14 680.56L307.29 681.81C310.19 683.73 238.38 542.51 304.78 440.73C311.7 440.33 319 439.94 326.66 439.38Z" fill="#592D3D"/>
<path d="M657.943 378.93C657.943 378.93 655.842 399.74 607.312 407.15C630.423 408.75 655.053 406.69 678.693 397.64C681.913 401.25 657.943 378.93 657.943 378.93Z" fill="#592D3D"/>
<path d="M304.739 441C304.739 441 293.739 442.14 273.969 439.11Z" fill="#592D3D"/>
<path d="M305.349 447C304.839 447.08 304.539 447.11 304.159 447.15C303.779 447.19 303.449 447.22 303.089 447.25C302.389 447.25 301.699 447.33 301.009 447.33C299.639 447.33 298.279 447.33 296.929 447.17C294.238 446.941 291.566 446.533 288.929 445.95C287.619 445.66 286.319 445.36 285.029 444.95C283.727 444.615 282.448 444.197 281.199 443.7C278.511 442.648 276.05 441.09 273.949 439.11C275.266 438.441 276.642 437.895 278.059 437.48C279.355 437.092 280.674 436.788 282.009 436.57C284.599 436.15 287.129 436.02 289.649 435.78C292.169 435.54 294.649 435.39 297.099 435.25C298.319 435.17 299.539 435.13 300.729 435.08H302.509C302.799 435.08 303.099 435.08 303.369 435.08C303.639 435.08 303.969 435.08 304.099 435.08L305.349 447Z" fill="#592D3D"/>
<path d="M677.001 396.19C677.001 396.19 666.291 381.89 636.621 365.19Z" fill="#592D3D"/>
<path d="M672.142 399.78L670.372 397.87L668.372 395.75C666.982 394.34 665.552 392.9 664.102 391.5C661.182 388.68 658.152 385.88 655.102 383.1C652.052 380.32 648.802 377.66 645.672 374.78C644.112 373.34 642.542 371.87 641.042 370.26C639.461 368.665 637.995 366.961 636.652 365.16C638.901 365.433 641.124 365.881 643.302 366.5C645.422 367.131 647.505 367.879 649.542 368.74C651.542 369.63 653.542 370.57 655.452 371.65C657.362 372.73 659.292 373.78 661.172 374.94C664.955 377.247 668.574 379.814 672.002 382.62C673.712 384.07 675.432 385.53 677.002 387.15C677.822 387.94 678.612 388.78 679.392 389.65C679.782 390.1 680.172 390.52 680.552 391C680.932 391.48 681.272 391.89 681.772 392.59L672.142 399.78Z" fill="#592D3D"/>
<path d="M421.521 244.56C335.161 273.62 263.781 346.74 245.061 429.8C213.001 556.34 262.891 634 307.171 681.6C311.541 686.3 237.711 543.34 304.741 440.6C365.841 438.28 457.161 426.22 500.521 377.74C496.181 398.87 484.001 415 486.001 418.18C488.881 422.69 524.191 412.65 533.841 394.64L534.671 391.03C569.391 403.61 626.431 417.62 678.671 397.64C801.811 535.94 691.291 689 700.301 679C744.783 630.004 769.387 566.176 769.301 500C769.301 413.58 725.021 351.11 725.021 351.11C694.501 296.7 641.501 259.24 580.221 242" stroke="#592D3D" stroke-width="12" stroke-miterlimit="10"/>
<path d="M520.11 249.17C505.866 249.987 491.682 251.633 477.63 254.1C474.14 254.78 470.63 255.52 467.19 256.16C463.75 256.8 460.29 257.77 456.84 258.57L446.57 261.29C443.18 262.29 439.81 263.37 436.43 264.4C422.945 268.748 409.772 274.006 397 280.14C384.164 286.369 371.724 293.382 359.75 301.14C370.414 291.409 382.188 282.971 394.83 276C407.476 268.928 420.795 263.133 434.59 258.7C438.06 257.7 441.52 256.62 445.01 255.65C448.5 254.68 452.01 253.83 455.55 253.06C459.09 252.29 462.65 251.65 466.21 251.06C469.77 250.47 473.36 249.98 476.95 249.54C491.276 247.772 505.756 247.648 520.11 249.17Z" fill="white"/>
<path d="M529.832 233.83C534.892 232.62 540.07 231.976 545.272 231.91C547.832 231.85 550.382 231.91 552.942 232.04C555.502 232.17 558.062 232.34 560.622 232.56C565.776 233.006 570.9 233.741 575.972 234.76C581.106 235.757 586.15 237.176 591.052 239L587.152 250.35C582.542 248.97 577.912 247.57 573.212 246.28C568.512 244.99 563.762 243.77 558.962 242.57L551.712 240.81C549.282 240.24 546.842 239.66 544.412 239C539.405 237.723 534.525 235.992 529.832 233.83Z" fill="#592D3D"/>
<path d="M412.449 241.49C416.891 239.772 421.453 238.385 426.099 237.34C430.721 236.285 435.394 235.467 440.099 234.89C442.439 234.61 444.779 234.36 447.099 234.18C449.419 234 451.789 233.85 454.099 233.84C458.903 233.767 463.697 234.298 468.369 235.42C464.171 237.652 459.775 239.493 455.239 240.92C453.049 241.65 450.849 242.29 448.649 242.92L442.099 244.85C437.759 246.17 433.429 247.45 429.159 248.85C424.889 250.25 420.639 251.57 416.369 252.85L412.449 241.49Z" fill="#592D3D"/>
<path d="M514.262 239.09C517.487 239.09 520.102 236.475 520.102 233.25C520.102 230.025 517.487 227.41 514.262 227.41C511.037 227.41 508.422 230.025 508.422 233.25C508.422 236.475 511.037 239.09 514.262 239.09Z" fill="#592D3D"/>
<path d="M497.989 237.38C500.27 237.38 502.119 235.531 502.119 233.25C502.119 230.969 500.27 229.12 497.989 229.12C495.708 229.12 493.859 230.969 493.859 233.25C493.859 235.531 495.708 237.38 497.989 237.38Z" fill="#592D3D"/>
<path d="M603.101 452.29C614.145 449.476 625.331 447.253 636.611 445.63L634.001 446C647.172 444.081 660.538 443.919 673.751 445.52L671.091 445.16C674.371 445.61 677.631 446.16 680.911 446.57L678.251 446.22C688.204 447.586 698.054 449.624 707.731 452.32C712.731 453.72 718.841 450.6 720.031 445.32C720.685 442.762 720.321 440.051 719.015 437.757C717.709 435.462 715.564 433.764 713.031 433.02C701.687 429.913 690.129 427.647 678.451 426.24L681.101 426.6C670.073 424.642 658.852 423.988 647.671 424.65C636.545 425.382 625.484 426.899 614.571 429.19C608.961 430.33 603.381 431.63 597.811 433C592.731 434.25 589.201 440.26 590.811 445.3C591.56 447.83 593.259 449.972 595.552 451.277C597.845 452.582 600.554 452.948 603.111 452.3L603.101 452.29Z" fill="#592D3D"/>
<path d="M261.262 502.22L275.392 500.74L309.062 497.22L350.002 492.93L385.182 489.24C390.902 488.65 396.622 488.07 402.342 487.45H402.582C405.312 487.17 407.652 486.53 409.652 484.52C411.527 482.645 412.58 480.102 412.58 477.45C412.58 474.798 411.527 472.255 409.652 470.38C407.822 468.69 405.172 467.18 402.582 467.45L388.452 468.93L354.782 472.46L313.782 476.75L278.602 480.43C272.882 481.03 267.162 481.61 261.442 482.23H261.202C258.472 482.52 256.132 483.16 254.132 485.16C253.202 486.089 252.465 487.192 251.961 488.406C251.458 489.62 251.199 490.921 251.199 492.235C251.199 493.549 251.458 494.85 251.961 496.064C252.465 497.278 253.202 498.381 254.132 499.31C255.962 500.99 258.612 502.51 261.202 502.23L261.262 502.22Z" fill="#592D3D"/>
<path opacity="0.2" d="M382.91 628.5C401.6 628.5 416.75 613.349 416.75 594.66C416.75 575.971 401.6 560.82 382.91 560.82C364.221 560.82 349.07 575.971 349.07 594.66C349.07 613.349 364.221 628.5 382.91 628.5Z" fill="white"/>
<path opacity="0.4" d="M375.872 631L419.182 589.26C416.879 584.835 414.352 580.529 411.612 576.36L365.742 620.57C367.642 621.9 373.722 630.08 375.872 631Z" fill="white"/>
<path d="M382.91 628.5C401.6 628.5 416.75 613.349 416.75 594.66C416.75 575.971 401.6 560.82 382.91 560.82C364.221 560.82 349.07 575.971 349.07 594.66C349.07 613.349 364.221 628.5 382.91 628.5Z" stroke="#592D3D" stroke-width="12" stroke-miterlimit="10"/>
<path d="M378 580.47C379.22 584.3 374.5 587.25 371 587.84C367.46 587.84 365.1 585.48 363.92 582.53C363.33 579.58 363.92 576.63 366.28 574.86C369.23 573.68 373.36 572.5 375.98 575.53C376.63 576.176 377.144 576.947 377.491 577.795C377.838 578.644 378.011 579.553 378 580.47Z" fill="white"/>
<path d="M384.322 578.21C384.242 578.735 383.982 579.215 383.587 579.569C383.191 579.923 382.685 580.129 382.155 580.152C381.625 580.174 381.103 580.012 380.68 579.692C380.256 579.373 379.956 578.916 379.832 578.4C379.832 576.63 380.422 576.04 382.102 575.98C382.691 575.98 383.255 576.214 383.672 576.63C384.088 577.047 384.322 577.611 384.322 578.2V578.21Z" fill="white"/>
<path opacity="0.2" d="M615.199 628.5C633.889 628.5 649.039 613.349 649.039 594.66C649.039 575.971 633.889 560.82 615.199 560.82C596.51 560.82 581.359 575.971 581.359 594.66C581.359 613.349 596.51 628.5 615.199 628.5Z" fill="white"/>
<path opacity="0.4" d="M610.122 628.11L648.662 589.57C648.452 588.2 642.752 581.47 642.372 580.13L600.652 621.87C602.002 622.24 608.752 627.91 610.122 628.11Z" fill="white"/>
<path d="M615.199 628.5C633.889 628.5 649.039 613.349 649.039 594.66C649.039 575.971 633.889 560.82 615.199 560.82C596.51 560.82 581.359 575.971 581.359 594.66C581.359 613.349 596.51 628.5 615.199 628.5Z" stroke="#592D3D" stroke-width="12" stroke-miterlimit="10"/>
<path d="M607.36 579.91C608.36 583.16 604.36 585.66 601.36 586.16C598.36 586.16 596.36 584.16 595.36 581.66C594.86 579.16 595.36 576.66 597.36 575.16C599.86 574.16 603.36 573.16 605.59 575.73C606.149 576.274 606.593 576.923 606.897 577.641C607.201 578.359 607.358 579.13 607.36 579.91Z" fill="white"/>
<path d="M612.702 578C612.632 578.442 612.411 578.847 612.077 579.145C611.743 579.443 611.315 579.616 610.868 579.635C610.42 579.654 609.98 579.517 609.622 579.248C609.264 578.979 609.009 578.595 608.902 578.16C608.902 576.66 609.402 576.16 610.822 576.16C611.314 576.16 611.786 576.352 612.138 576.696C612.489 577.04 612.692 577.508 612.702 578Z" fill="white"/>
<path d="M416.742 594.66C472.529 574.66 527.406 574.66 581.372 594.66" stroke="#592D3D" stroke-width="12" stroke-miterlimit="10"/>
<path opacity="0.15" d="M615.202 634.5C605.392 634.486 595.93 630.858 588.625 624.31C581.32 617.761 576.684 608.751 575.602 599C525.602 581.35 474.142 581.36 422.502 599C421.869 604.798 419.97 610.386 416.939 615.369C413.908 620.352 409.819 624.608 404.962 627.837C400.104 631.065 394.596 633.186 388.828 634.051C383.06 634.916 377.173 634.502 371.582 632.84C377.056 635.527 383.095 636.856 389.191 636.718C395.287 636.579 401.26 634.975 406.605 632.042C411.95 629.109 416.512 624.932 419.903 619.865C423.295 614.799 425.418 608.99 426.092 602.93C475.312 586.07 524.372 586.05 572.022 602.93C572.683 608.998 574.797 614.817 578.183 619.895C581.569 624.973 586.129 629.161 591.476 632.104C596.824 635.047 602.801 636.658 608.903 636.802C615.005 636.946 621.052 635.618 626.532 632.93C622.85 633.993 619.034 634.522 615.202 634.5Z" fill="black"/>
</g>
</svg>
