<svg width="1000" height="990" viewBox="0 0 1000 990" fill="none" xmlns="http://www.w3.org/2000/svg">
<mask id="mask0_22_435" style="mask-type:luminance" maskUnits="userSpaceOnUse" x="0" y="0" width="1000" height="966">
<path d="M1000 0H0V718.31H179.2C217.58 860.69 346.65 965.41 500 965.41C653.35 965.41 782.42 860.69 820.8 718.31H1000V0Z" fill="white"/>
</mask>
<g mask="url(#mask0_22_435)">
<path d="M500.001 962.602C683.603 962.602 832.443 813.763 832.443 630.16C832.443 446.558 683.603 297.718 500.001 297.718C316.398 297.718 167.559 446.558 167.559 630.16C167.559 813.763 316.398 962.602 500.001 962.602Z" fill="#85C5E5"/>
<path d="M610 758.72C700.76 758.72 682 872.96 682.87 1000H610V758.72Z" fill="#D8985D"/>
<path d="M632.74 831.87L610 870L621.38 1000H653.14C653.91 819.73 632.74 831.87 632.74 831.87Z" fill="#C6854E"/>
<path d="M233.25 500C233.25 352.68 352.68 233.25 500 233.25C647.32 233.25 766.75 352.68 766.75 500C766.788 539.694 757.949 578.895 740.88 614.731C723.811 650.568 698.945 682.135 668.1 707.12C662.627 711.573 656.98 715.803 651.16 719.81C591 758 515 758 446.39 751.89C439.73 750.89 433.09 749.63 426.5 748.18C400.17 742.38 374.68 733.43 351.13 720.38C345.31 716.793 339.667 712.92 334.2 708.76C328.706 704.576 323.432 700.11 318.4 695.38C313.64 690.96 309.044 686.367 304.61 681.6C258.667 632.299 233.161 567.39 233.25 500Z" fill="#D8985D"/>
<path d="M269.612 634.48C270.312 635.68 271.002 636.88 271.722 638.06C272.152 638.78 272.602 639.48 273.052 640.2C273.712 641.27 274.372 642.34 275.052 643.39C275.532 644.15 276.052 644.89 276.512 645.63C277.172 646.63 277.832 647.63 278.512 648.63C279.022 649.39 279.512 650.15 280.072 650.91C280.732 651.91 281.392 652.83 282.072 653.79C282.612 654.56 283.172 655.32 283.722 656.09C284.272 656.86 285.062 657.94 285.722 658.86C286.382 659.78 286.872 660.39 287.452 661.15C288.032 661.91 288.822 662.95 289.522 663.85C290.222 664.75 290.712 665.36 291.312 666.11C291.912 666.86 292.722 667.87 293.432 668.74C294.142 669.61 294.662 670.23 295.282 670.97C295.902 671.71 296.722 672.69 297.452 673.54C298.182 674.39 298.722 675.01 299.362 675.74L301.582 678.24C302.232 678.97 302.892 679.68 303.582 680.4C304.442 681.34 305.312 682.27 306.182 683.19L307.392 684.47C308.682 685.81 309.982 687.15 311.302 688.47L311.562 688.74C312.852 690.02 314.162 691.29 315.472 692.55L317.052 694.05C318.002 694.94 318.952 695.83 319.912 696.71L321.072 697.77C322.072 698.71 323.162 699.63 324.212 700.55C327.478 703.397 330.812 706.127 334.212 708.74C339.672 712.9 345.315 716.773 351.142 720.36C374.692 733.36 400.142 742.36 426.512 748.16C433.102 749.61 439.742 750.86 446.402 751.87C488.502 755.62 533.402 757.05 575.682 748.79C508.452 729 185.592 612.74 388.802 257.48C386.082 258.73 383.402 260.02 380.742 261.36L380.152 261.65C378.932 262.26 377.712 262.89 376.502 263.53L375.502 264.06C371.742 266.06 368.022 268.13 364.372 270.29L363.472 270.82C362.312 271.51 361.162 272.21 360.012 272.92L359.142 273.46C355.568 275.693 352.052 278.003 348.592 280.39L347.512 281.14C346.422 281.9 345.352 282.66 344.282 283.43L343.622 283.9C341.442 285.493 339.288 287.107 337.162 288.74L336.542 289.22C335.542 290 334.542 290.8 333.542 291.61L332.372 292.55C331.372 293.36 330.372 294.17 329.372 295C327.262 296.75 325.182 298.55 323.132 300.37L321.992 301.37L319.302 303.82L318.002 305C315.148 307.667 312.358 310.39 309.632 313.17L308.252 314.58C307.462 315.4 306.672 316.22 305.892 317.05C305.432 317.54 304.972 318.05 304.522 318.53C303.148 319.997 301.795 321.483 300.462 322.99C300.012 323.5 299.552 323.99 299.102 324.53C298.392 325.34 297.692 326.16 296.992 326.98L295.482 328.77C294.802 329.58 294.122 330.39 293.482 331.21C292.942 331.87 292.402 332.54 291.872 333.21C290.802 334.54 289.752 335.87 288.712 337.21C288.172 337.91 287.632 338.61 287.102 339.32C286.572 340.03 285.902 340.91 285.312 341.72C284.722 342.53 284.242 343.17 283.722 343.9C283.202 344.63 282.592 345.45 282.042 346.23C281.095 347.563 280.162 348.913 279.242 350.28C278.742 351.01 278.242 351.76 277.752 352.5C277.262 353.24 276.652 354.16 276.112 355L274.622 357.31L272.942 360.02C272.512 360.71 272.082 361.4 271.662 362.09C270.772 363.55 269.912 365.02 269.052 366.49L267.832 368.65C267.292 369.6 266.752 370.56 266.222 371.52C265.822 372.25 265.422 372.98 265.032 373.71C264.392 374.9 263.762 376.1 263.132 377.3L261.932 379.64C261.292 380.92 260.652 382.19 260.022 383.48C259.692 384.17 259.352 384.87 259.022 385.57C258.502 386.66 258.022 387.76 257.492 388.86C257.182 389.52 256.882 390.18 256.582 390.86C255.842 392.507 255.118 394.173 254.412 395.86C254.192 396.38 253.982 396.91 253.762 397.43C253.232 398.7 252.712 399.97 252.202 401.25C251.932 401.92 251.672 402.59 251.412 403.25C250.912 404.51 250.412 405.78 249.962 407.05C249.752 407.6 249.542 408.15 249.342 408.7C248.715 410.453 248.098 412.207 247.492 413.96L246.932 415.66C246.492 416.993 246.062 418.327 245.642 419.66L245.042 421.57C244.572 423.11 244.112 424.65 243.672 426.2C243.572 426.53 243.472 426.86 243.382 427.2C242.862 429.04 242.362 430.887 241.882 432.74C241.722 433.33 241.582 433.93 241.432 434.52C241.082 435.91 240.742 437.3 240.432 438.7L240.012 440.45C239.582 442.35 239.162 444.25 238.772 446.16L238.622 446.93C238.282 448.63 237.948 450.33 237.622 452.03C237.512 452.64 237.412 453.24 237.302 453.85C237.042 455.34 236.792 456.85 236.562 458.35C236.482 458.86 236.392 459.35 236.322 459.87C236.022 461.82 235.752 463.78 235.492 465.75L235.342 467.05C235.142 468.64 234.962 470.24 234.792 471.84C234.732 472.44 234.662 473.04 234.602 473.65C234.442 475.33 234.292 477.02 234.152 478.71C234.152 479.06 234.092 479.4 234.072 479.71C233.925 481.71 233.795 483.727 233.682 485.76C233.682 486.29 233.682 486.83 233.612 487.36C233.545 488.933 233.485 490.503 233.432 492.07C233.432 492.66 233.432 493.25 233.432 493.84C233.432 495.89 233.352 497.95 233.352 500.01C233.352 500.01 233.352 500.08 233.352 500.11C233.352 502.33 233.352 504.53 233.432 506.73C233.432 507.49 233.492 508.25 233.512 509.01C233.562 510.48 233.612 511.95 233.682 513.42C233.682 514.31 233.792 515.19 233.842 516.08C233.922 517.41 233.992 518.74 234.092 520.08C234.162 521.08 234.252 521.97 234.332 522.91C234.442 524.17 234.542 525.43 234.672 526.68C234.762 527.68 234.882 528.62 234.982 529.59C235.122 530.8 235.252 532.02 235.402 533.23C235.522 534.23 235.662 535.23 235.792 536.18C235.952 537.36 236.112 538.55 236.292 539.73C236.442 540.73 236.602 541.73 236.762 542.73C236.942 543.89 237.132 545.06 237.332 546.22C237.512 547.22 237.692 548.22 237.882 549.22C238.092 550.37 238.312 551.52 238.532 552.66C238.752 553.8 238.942 554.66 239.152 555.66C239.392 556.8 239.632 557.93 239.892 559.06C240.152 560.19 240.332 561.06 240.572 561.99C240.832 563.12 241.112 564.24 241.392 565.35C241.672 566.46 241.882 567.3 242.132 568.26C242.432 569.38 242.732 570.49 243.042 571.6C243.302 572.6 243.572 573.52 243.852 574.47C244.172 575.58 244.502 576.68 244.852 577.78C245.202 578.88 245.432 579.67 245.732 580.62C246.032 581.57 246.432 582.81 246.792 583.9C247.152 584.99 247.412 585.77 247.732 586.7C248.112 587.79 248.492 588.88 248.882 589.97C249.212 590.88 249.532 591.8 249.882 592.71L251.122 595.98C251.472 596.87 251.812 597.77 252.122 598.66C252.562 599.75 253.012 600.85 253.462 601.94C253.822 602.8 254.172 603.67 254.542 604.53C255.012 605.65 255.542 606.75 255.992 607.86C256.362 608.68 256.722 609.51 257.092 610.33C257.612 611.49 258.162 612.63 258.692 613.77L259.772 616.07C260.382 617.33 261.012 618.57 261.642 619.82C261.962 620.45 262.262 621.09 262.592 621.72C264.512 625.46 266.512 629.15 268.592 632.79C268.882 633.26 269.252 633.87 269.612 634.48Z" fill="#C6854E"/>
<path d="M233.25 500C233.25 352.68 352.68 233.25 500 233.25C647.32 233.25 766.75 352.68 766.75 500C766.788 539.694 757.949 578.895 740.88 614.731C723.811 650.568 698.945 682.135 668.1 707.12C662.627 711.573 656.98 715.803 651.16 719.81C591 758 515 758 446.39 751.89C439.73 750.89 433.09 749.63 426.5 748.18C400.17 742.38 374.68 733.43 351.13 720.38C345.31 716.793 339.667 712.92 334.2 708.76C328.706 704.576 323.432 700.11 318.4 695.38C313.64 690.96 309.044 686.367 304.61 681.6C258.667 632.299 233.161 567.39 233.25 500Z" stroke="#592D3D" stroke-width="12" stroke-miterlimit="10"/>
<path d="M386.122 758.72C295.352 758.72 314.122 872.96 313.252 1000H386.122V758.72Z" fill="#D8985D"/>
<path d="M367.232 831.87L390.002 870L378.612 1000H346.882C346.072 819.73 367.232 831.87 367.232 831.87Z" fill="#C6854E"/>
<path d="M619.472 1070H380.532C377.011 1070 373.636 1068.6 371.148 1066.11C368.659 1063.62 367.262 1060.24 367.262 1056.72V772C367.262 768.479 368.659 765.103 371.148 762.613C373.636 760.123 377.011 758.722 380.532 758.72H613.762C626.852 758.72 632.762 766.38 632.762 778.6V1056.68C632.767 1058.43 632.427 1060.16 631.761 1061.78C631.096 1063.39 630.117 1064.86 628.883 1066.1C627.648 1067.34 626.181 1068.32 624.566 1068.99C622.951 1069.66 621.22 1070 619.472 1070Z" fill="#D8985D"/>
<path d="M629.052 766.62C628.055 765.394 627.212 764.051 626.542 762.62C624.141 760.739 621.284 759.527 618.262 759.11C616.773 758.88 615.268 758.766 613.762 758.77H380.532C377.02 758.773 373.652 760.166 371.165 762.646C368.679 765.125 367.275 768.488 367.262 772C396.262 782.42 450.552 788.24 500.002 788.24C563.062 788.24 604.382 778.89 629.052 766.62Z" fill="#C6854E"/>
<path d="M610 758.72C700.76 758.72 682 872.96 682.87 1000H632.74" stroke="#592D3D" stroke-width="12" stroke-miterlimit="10" stroke-linecap="square"/>
<path d="M386.122 758.72C295.352 758.72 314.122 872.96 313.252 1000H363.322" stroke="#592D3D" stroke-width="12" stroke-miterlimit="10" stroke-linecap="square"/>
<path d="M380.531 758.82L613.761 758.72" stroke="#592D3D" stroke-width="12" stroke-miterlimit="10"/>
<path d="M380.532 1070H497.152C388.002 1070 396.242 838.82 367.262 838.82V1056.68C367.257 1058.43 367.596 1060.16 368.26 1061.77C368.925 1063.39 369.901 1064.86 371.134 1066.09C372.366 1067.33 373.831 1068.31 375.444 1068.98C377.056 1069.65 378.785 1070 380.532 1070Z" fill="#C6854E"/>
<path d="M361.259 860.85C361.069 857.18 361.149 853.51 361.309 849.85C361.469 846.19 361.779 842.5 362.169 838.85C362.369 837.01 362.569 835.18 362.819 833.34C363.069 831.5 363.309 829.67 363.669 827.83C364.378 824.022 365.585 820.324 367.259 816.83C368.933 820.324 370.14 824.022 370.849 827.83C371.209 829.67 371.469 831.5 371.699 833.34C371.929 835.18 372.149 837.01 372.349 838.85C372.729 842.52 373.029 846.19 373.199 849.85C373.369 853.51 373.449 857.19 373.259 860.85H361.259Z" fill="#592D3D"/>
<path d="M632.742 870V878C633.002 912 633.002 947 632.742 980.75C632.742 983.62 632.742 986.47 632.742 989.28V1056.69C632.746 1058.44 632.405 1060.17 631.74 1061.78C631.075 1063.39 630.099 1064.86 628.866 1066.1C627.634 1067.33 626.17 1068.31 624.558 1068.98C622.946 1069.65 621.217 1070 619.472 1070H380.532C377.011 1070 373.636 1068.6 371.148 1066.11C368.659 1063.62 367.262 1060.24 367.262 1056.72V998.52C367.262 996.01 367.262 993.45 367.262 990.87C367.012 956 367.012 921 367.262 885.57V860.85" stroke="#592D3D" stroke-width="12" stroke-miterlimit="10"/>
<path d="M626.74 870C626.55 865.83 626.64 861.65 626.8 857.47C626.96 853.29 627.27 849.12 627.65 844.94C627.85 842.85 628.06 840.76 628.3 838.67C628.54 836.58 628.79 834.5 629.15 832.41C629.847 828.106 631.052 823.9 632.74 819.88C634.428 823.9 635.633 828.106 636.33 832.41C636.69 834.5 636.95 836.59 637.18 838.67C637.41 840.75 637.63 842.85 637.83 844.94C638.21 849.12 638.52 853.29 638.68 857.47C638.84 861.65 638.93 865.83 638.74 870H626.74Z" fill="#592D3D"/>
<path d="M570.68 842.45C570.9 833 582.9 829 588.9 835C589.875 835.995 590.644 837.173 591.164 838.466C591.684 839.759 591.944 841.141 591.93 842.535C591.915 843.928 591.627 845.305 591.08 846.587C590.534 847.868 589.74 849.03 588.745 850.005C587.749 850.98 586.572 851.75 585.279 852.269C583.986 852.789 582.603 853.05 581.21 853.035C579.817 853.021 578.44 852.732 577.158 852.186C575.876 851.639 574.715 850.845 573.74 849.85C572.766 848.88 571.994 847.727 571.469 846.456C570.944 845.186 570.675 843.825 570.68 842.45Z" fill="#592D3D"/>
<path d="M408.109 842.15C407.899 834 416.899 830 422.899 833C430.899 836 430.899 847 422.899 852C418.899 854 414.899 852 411.149 849.52C410.182 848.552 409.416 847.403 408.894 846.138C408.372 844.874 408.106 843.518 408.109 842.15Z" fill="#592D3D"/>
<path d="M500 831.77C500.715 833.655 501.218 835.614 501.5 837.61C501.797 839.543 501.961 841.494 501.99 843.45L502.29 855.14C502.38 859.03 502.5 862.93 502.54 866.83L502.71 878.5C502.94 894.07 502.93 909.66 502.99 925.24C503.05 940.82 503.17 956.4 502.99 971.98C502.9 979.77 502.69 987.56 502.46 995.35C502.36 999.24 502.17 1003.14 501.79 1007.03C501.45 1010.96 500.859 1014.87 500.02 1018.72C499.181 1014.87 498.59 1010.96 498.25 1007.03C497.87 1003.14 497.68 999.24 497.58 995.35C497.35 987.56 497.14 979.77 497.05 971.98C496.85 956.4 497.05 940.82 497.05 925.24C497.05 909.66 497.05 894.09 497.23 878.51L497.4 866.81L497.73 855.13L498.06 843.45C498.097 841.494 498.264 839.543 498.56 837.61C498.822 835.616 499.305 833.657 500 831.77Z" fill="#C6854E"/>
<path d="M425.219 883C426.702 882.295 428.272 881.791 429.889 881.5C431.433 881.21 432.998 881.043 434.569 881L443.919 880.67L462.619 880.26C475.079 880.07 487.529 880.02 499.999 879.99C512.469 879.96 524.929 879.83 537.389 879.99C543.619 880.08 549.849 880.29 556.089 880.52C559.199 880.63 562.319 880.82 565.429 881.19C568.587 881.54 571.713 882.135 574.779 882.97C571.715 883.81 568.588 884.402 565.429 884.74C562.319 885.12 559.199 885.31 556.089 885.41C549.849 885.64 543.619 885.84 537.389 885.93C524.929 886.12 512.469 885.93 499.999 885.93C487.529 885.93 475.069 885.93 462.599 885.78C456.369 885.72 450.139 885.52 443.919 885.28L434.569 884.94C433.001 884.898 431.44 884.73 429.899 884.44C428.282 884.17 426.708 883.686 425.219 883Z" fill="#C6854E"/>
<path d="M442.41 914.38C443.591 913.817 444.853 913.442 446.15 913.27C447.349 913.101 448.561 913.051 449.77 913.12C452.16 913.22 454.55 913.28 456.94 913.33C461.72 913.44 466.5 913.48 471.28 913.5C480.91 913.5 490.37 913.58 500.04 913.29C509.71 913 519.3 912.86 528.92 912.9C533.73 912.9 538.54 913.03 543.34 913.14C545.757 913.173 548.17 913.33 550.57 913.61C553.037 913.883 555.472 914.395 557.84 915.14C555.528 916.048 553.129 916.719 550.68 917.14C548.296 917.57 545.888 917.857 543.47 918C538.65 918.35 533.83 918.65 529.02 918.82C519.38 919.18 509.75 919.14 500.14 919.27C495.33 919.27 490.53 919.49 485.66 919.37C480.79 919.25 475.97 919.24 471.14 919.06C466.31 918.88 461.46 918.48 456.64 917.98C454.22 917.71 451.82 917.41 449.41 917.08C448.193 916.931 446.996 916.65 445.84 916.24C444.599 915.82 443.439 915.191 442.41 914.38Z" fill="#C6854E"/>
<path d="M438.93 949.87C440.116 949.172 441.405 948.666 442.75 948.37C444.003 948.078 445.283 947.914 446.57 947.88L454.2 947.56C459.29 947.38 464.39 947.23 469.48 947.15C479.66 947 489.84 947 500 947C510.16 947 520.36 946.83 530.54 947C535.63 947.09 540.72 947.3 545.81 947.53C548.363 947.616 550.91 947.836 553.44 948.19C556.045 948.547 558.61 949.153 561.1 950C558.618 950.831 556.063 951.423 553.47 951.77C550.937 952.132 548.387 952.356 545.83 952.44C540.74 952.67 535.65 952.88 530.56 952.97C520.38 953.17 510.19 953.03 500.01 952.97C489.83 952.91 479.65 952.91 469.47 952.72C464.38 952.62 459.28 952.44 454.19 952.23L446.56 951.86C445.273 951.821 443.993 951.653 442.74 951.36C441.398 951.07 440.112 950.567 438.93 949.87Z" fill="#C6854E"/>
<path d="M568.442 849.8C547.262 856.69 526.442 867.28 505.592 869.47C478.842 872.29 451.492 856.1 423.292 848.39C421.142 845.81 404.942 833.95 389.822 834.45C377.942 834.85 374.732 838.75 371.422 842.64L367.262 1056.12C367.262 1059.64 368.66 1063.01 371.148 1065.5C373.637 1067.99 377.012 1069.39 380.532 1069.39H619.472C622.991 1069.39 626.366 1067.99 628.855 1065.5C631.344 1063.01 632.742 1059.64 632.742 1056.12L630.362 840.76C625.932 840.76 623.262 831.36 609.952 835.67C593.662 841 569.712 848.28 568.442 849.8Z" fill="#85C5E5"/>
<path d="M632.739 831.31L609.949 869.4L621.339 999.43H632.939V893.78L632.739 831.31Z" fill="#67B7D6"/>
<path d="M380.532 1069.39H497.152C387.952 1069.39 396.242 838.25 367.262 838.25V1056.12C367.262 1059.64 368.66 1063.01 371.148 1065.5C373.637 1067.99 377.012 1069.39 380.532 1069.39Z" fill="#67B7D6"/>
<path d="M361.26 860.4C361.047 857.642 361.013 854.872 361.16 852.11C361.287 849.343 361.523 846.573 361.87 843.8C362.05 842.41 362.22 841.03 362.44 839.64C362.66 838.25 362.88 836.87 363.22 835.48C363.905 832.528 365.066 829.707 366.66 827.13C368.347 829.646 369.607 832.423 370.39 835.35C370.78 836.73 371.07 838.11 371.32 839.48C371.57 840.85 371.82 842.24 372.04 843.62C372.48 846.37 372.83 849.13 373.04 851.89C373.295 854.645 373.365 857.415 373.25 860.18L361.26 860.4Z" fill="#592D3D"/>
<path d="M632.742 869.4V877.4C633.002 911.4 633.002 946.4 632.742 980.16C632.742 983.03 632.742 985.88 632.742 988.69V1056.1C632.742 1059.62 631.344 1062.99 628.855 1065.48C626.366 1067.97 622.991 1069.37 619.472 1069.37H380.532C377.012 1069.37 373.637 1067.97 371.148 1065.48C368.66 1062.99 367.262 1059.62 367.262 1056.1V998C367.262 995.493 367.262 992.943 367.262 990.35C367.012 955.49 367.012 920.49 367.262 885.05V860.29" stroke="#592D3D" stroke-width="12" stroke-miterlimit="10"/>
<path d="M626.762 869.38C626.793 866.526 627.01 863.676 627.412 860.85C627.792 858.017 628.278 855.193 628.872 852.38C629.172 850.97 629.472 849.56 629.812 848.16C630.152 846.76 630.502 845.35 630.962 843.95C631.905 840.985 633.316 838.19 635.142 835.67C636.608 838.416 637.621 841.381 638.142 844.45C638.402 845.9 638.562 847.34 638.692 848.78C638.822 850.22 638.942 851.66 639.042 853.09C639.222 855.96 639.322 858.83 639.292 861.68C639.292 864.535 639.112 867.387 638.752 870.22L626.762 869.38Z" fill="#592D3D"/>
<path d="M557.91 889.36C562.32 888.58 566.67 887.97 571.01 887.36L584.01 885.43C588.32 884.78 592.62 884.07 596.92 883.33C601.22 882.59 605.53 881.75 609.99 881.13C606.08 883.32 601.947 885.083 597.66 886.39C593.41 887.721 589.064 888.724 584.66 889.39C580.249 890.074 575.794 890.445 571.33 890.5C566.83 890.58 562.333 890.198 557.91 889.36Z" fill="#592D3D"/>
<path d="M329.09 794.17C385.21 829.75 497.57 869.7 497.57 869.7L497.41 883.7C497.41 883.7 397 879.36 316.32 844.9C316.32 814.38 329.09 794.17 329.09 794.17Z" fill="#85C5E5" stroke="#592D3D" stroke-width="12" stroke-miterlimit="10"/>
<path d="M648.659 870.5C648.659 870.5 666.359 868.65 679.559 861.5C679.449 857.25 678.959 853.39 678.959 853.39L648.109 864.07L648.659 870.5Z" fill="#C6854E"/>
<path d="M671.55 794.43C619 831.8 503 869.7 503 869.7L503.17 883.7C503.17 883.7 603.58 879.4 684.25 844.94C684.29 822.67 671.55 794.43 671.55 794.43Z" fill="#85C5E5" stroke="#592D3D" stroke-width="12" stroke-miterlimit="10"/>
<path d="M320.632 822.65C320.912 822.89 321.462 823.26 321.902 823.57C322.342 823.88 322.902 824.21 323.352 824.52C324.352 825.12 325.352 825.73 326.432 826.29C328.512 827.45 330.662 828.54 332.862 829.57C335.062 830.6 337.282 831.57 339.512 832.57C340.632 833.07 341.742 833.57 342.852 834.15C343.962 834.73 345.072 835.25 346.162 835.91C343.661 835.778 341.177 835.417 338.742 834.83C336.322 834.23 333.932 833.513 331.572 832.68C329.185 831.853 326.848 830.888 324.572 829.79C323.442 829.23 322.312 828.63 321.212 827.95C320.662 827.61 320.122 827.26 319.572 826.89C318.987 826.491 318.429 826.053 317.902 825.58L320.632 822.65Z" fill="#592D3D"/>
<path d="M670.061 788.32C672.261 786.107 674.427 783.87 676.561 781.61C721.721 726.9 725.261 669.22 734.431 633.24V619L731.991 619.84C732.821 618.32 733.641 616.84 734.431 615.28C734.371 615.18 730.941 618.66 730.881 618.56C729.296 619.859 727.595 621.01 725.801 622L693.251 633.28C678.785 636.016 664.082 637.296 649.361 637.1C586.361 636.84 586.121 622.23 536.161 617.1L439.671 618.68C413.981 622.52 402.611 630.49 351.671 631.53C307.521 632.43 268.051 621.53 268.051 621.53V634.21C282.051 671.05 272.631 698.64 297.051 744.7C297.051 744.05 297.051 743.39 297.001 742.7C292.611 720.99 297.001 701.13 299.121 693.51C299.331 691.63 299.481 690.59 299.481 690.59V690.52C299.481 690.4 299.481 690.32 299.481 690.32V690.42C299.481 690.56 299.591 690.87 299.701 691.32C299.931 690.6 300.061 690.21 300.061 690.21C300.061 690.21 300.951 695.12 302.601 702.95C306.531 718.43 313.761 745.95 322.051 773.03C322.971 775.46 323.921 777.84 324.891 780.14C324.961 780.35 325.041 780.58 325.121 780.79C353.061 810.67 387.251 836.15 418.261 855.29C421.601 857.29 424.771 859.16 427.741 860.9C424.891 846.574 425.72 831.759 430.151 817.84C430.151 817.84 430.221 818.22 430.361 818.92C430.601 818.15 430.761 817.73 430.761 817.73C430.761 817.73 442.191 865.18 465.281 880.56C465.851 880.8 466.431 881.03 467.011 881.22L466.571 881.38L466.671 881.44C467.251 881.77 467.851 882.09 468.441 882.44C475.392 885.674 482.516 888.521 489.781 890.97C495.191 892.54 499.621 893.36 501.781 893.36C506.531 893.36 533.781 882.75 550.471 844.29C551.571 841.02 552.101 838.97 552.101 838.97L552.381 839.66C552.491 839.39 552.601 839.13 552.701 838.86C558.167 847.946 560.942 858.398 560.701 869C585.983 855.151 610.084 839.248 632.761 821.45V821.34C633.031 820.7 633.291 820.05 633.561 819.4L633.621 819.27L634.431 817.27L635.271 815.19C649.751 779.36 658.851 726.19 658.851 726.19C658.911 726.01 659.131 726.28 659.451 726.93C659.451 726.38 659.451 726.08 659.451 726.08C659.451 726.08 675.721 748.49 670.061 788.32Z" fill="#FEDC58"/>
<path d="M670.061 788.32C672.261 786.107 674.427 783.87 676.561 781.61C721.721 726.9 725.261 669.22 734.431 633.24V619L731.991 619.84C732.821 618.32 733.641 616.84 734.431 615.28C734.371 615.18 730.941 618.66 730.881 618.56C729.296 619.859 727.595 621.01 725.801 622L693.251 633.28C678.785 636.016 664.082 637.296 649.361 637.1C586.361 636.84 586.121 622.23 536.161 617.1L439.671 618.68C413.981 622.52 402.611 630.49 351.671 631.53C307.521 632.43 268.051 621.53 268.051 621.53V634.21C282.051 671.05 272.631 698.64 297.051 744.7C297.051 744.05 297.051 743.39 297.001 742.7C292.611 720.99 297.001 701.13 299.121 693.51C299.331 691.63 299.481 690.59 299.481 690.59V690.52C299.481 690.4 299.481 690.32 299.481 690.32V690.42C299.481 690.56 299.591 690.87 299.701 691.32C299.931 690.6 300.061 690.21 300.061 690.21C300.061 690.21 300.951 695.12 302.601 702.95C306.531 718.43 313.761 745.95 322.051 773.03C322.971 775.46 323.921 777.84 324.891 780.14C324.961 780.35 325.041 780.58 325.121 780.79C353.061 810.67 387.251 836.15 418.261 855.29C421.601 857.29 424.771 859.16 427.741 860.9C424.891 846.574 425.72 831.759 430.151 817.84C430.151 817.84 430.221 818.22 430.361 818.92C430.601 818.15 430.761 817.73 430.761 817.73C430.761 817.73 442.191 865.18 465.281 880.56C465.851 880.8 466.431 881.03 467.011 881.22L466.571 881.38L466.671 881.44C467.251 881.77 467.851 882.09 468.441 882.44C475.392 885.674 482.516 888.521 489.781 890.97C495.191 892.54 499.621 893.36 501.781 893.36C506.531 893.36 533.781 882.75 550.471 844.29C551.571 841.02 552.101 838.97 552.101 838.97L552.381 839.66C552.491 839.39 552.601 839.13 552.701 838.86C558.167 847.946 560.942 858.398 560.701 869C585.983 855.151 610.084 839.248 632.761 821.45V821.34C633.031 820.7 633.291 820.05 633.561 819.4L633.621 819.27L634.431 817.27L635.271 815.19C649.751 779.36 658.851 726.19 658.851 726.19C658.911 726.01 659.131 726.28 659.451 726.93C659.451 726.38 659.451 726.08 659.451 726.08C659.451 726.08 675.721 748.49 670.061 788.32Z" fill="#FEDC58"/>
<path d="M670.061 788.32C672.261 786.107 674.427 783.87 676.561 781.61C721.721 726.9 725.261 669.22 734.431 633.24V619L731.991 619.84C732.821 618.32 733.641 616.84 734.431 615.28C734.371 615.18 730.941 618.66 730.881 618.56C729.296 619.859 727.595 621.01 725.801 622L693.251 633.28C678.785 636.016 664.082 637.296 649.361 637.1C586.361 636.84 571.061 617.41 536.161 617.1C501.261 616.79 459.211 615.87 439.671 618.68C420.131 621.49 402.611 630.49 351.671 631.53C307.521 632.43 268.051 621.53 268.051 621.53V634.21C282.051 671.05 272.631 698.64 297.051 744.7C297.051 744.05 297.051 743.39 297.001 742.7C292.611 720.99 297.001 701.13 299.121 693.51C299.331 691.63 299.481 690.59 299.481 690.59V690.52C299.481 690.4 299.481 690.32 299.481 690.32V690.42C299.481 690.56 299.591 690.87 299.701 691.32C299.931 690.6 300.061 690.21 300.061 690.21C300.061 690.21 300.951 695.12 302.601 702.95C306.531 718.43 313.761 745.95 322.051 773.03C322.971 775.46 323.921 777.84 324.891 780.14C324.961 780.35 325.041 780.58 325.121 780.79C353.061 810.67 387.251 836.15 418.261 855.29C421.601 857.29 424.771 859.16 427.741 860.9C424.891 846.574 425.72 831.759 430.151 817.84C430.151 817.84 430.221 818.22 430.361 818.92C430.601 818.15 430.761 817.73 430.761 817.73C430.761 817.73 442.191 865.18 465.281 880.56C465.851 880.8 466.431 881.03 467.011 881.22L466.571 881.38L466.671 881.44C467.251 881.77 467.851 882.09 468.441 882.44C475.392 885.674 482.516 888.521 489.781 890.97C495.191 892.54 499.621 893.36 501.781 893.36C506.531 893.36 533.781 882.75 550.471 844.29C551.571 841.02 552.101 838.97 552.101 838.97L552.381 839.66C552.491 839.39 552.601 839.13 552.701 838.86C558.167 847.946 560.942 858.398 560.701 869C585.983 855.151 610.084 839.248 632.761 821.45V821.34C633.031 820.7 633.291 820.05 633.561 819.4L633.621 819.27L634.431 817.27L635.271 815.19C649.751 779.36 658.851 726.19 658.851 726.19C658.911 726.01 659.131 726.28 659.451 726.93C659.451 726.38 659.451 726.08 659.451 726.08C659.451 726.08 675.721 748.49 670.061 788.32Z" fill="#FEDC58"/>
<path d="M343.499 706.91C347.326 710.318 352.176 712.358 357.289 712.71C342.999 701.34 337.779 690.32 335.999 685.36C330.813 667.565 327.463 649.287 325.999 630.81C306.47 629.426 287.103 626.304 268.129 621.48V634.16C282.129 671 272.709 698.59 297.129 744.65C297.129 744 297.129 743.34 297.079 742.65C292.689 720.94 297.079 701.08 299.199 693.46C299.409 691.58 299.559 690.54 299.559 690.54V690.47C299.559 690.35 299.559 690.27 299.559 690.27V690.37C299.559 690.51 299.669 690.82 299.779 691.27C300.009 690.55 300.139 690.16 300.139 690.16C300.139 690.16 301.029 695.07 302.679 702.9C306.609 718.38 313.839 745.9 322.129 772.98C323.049 775.41 323.999 777.79 324.969 780.09C325.039 780.3 325.119 780.53 325.199 780.74C353.139 810.62 387.329 836.1 418.339 855.24C421.679 857.24 424.849 859.11 427.819 860.85C424.969 846.524 425.799 831.709 430.229 817.79C430.229 817.79 430.299 818.17 430.439 818.87C430.679 818.1 430.839 817.68 430.839 817.68C430.839 817.68 442.269 865.13 465.359 880.51C465.929 880.75 466.509 880.98 467.089 881.17L466.649 881.33L466.749 881.39C467.329 881.72 467.929 882.04 468.519 882.39C475.47 885.624 482.594 888.471 489.859 890.92C495.269 892.49 499.699 893.31 501.859 893.31C505.389 893.31 521.369 887.43 536.189 868.59C466.939 846.06 380.779 800 343.499 706.91Z" fill="#EDBF2E"/>
<path d="M433.872 816.78C433.872 816.78 443.362 825.78 463.162 820.87C461.692 824.42 457.232 826.27 457.232 826.27C457.232 826.27 463.402 834.4 476.292 834.02C476.292 834.02 468.562 838.82 460.762 835.67C454.68 834.782 448.555 834.224 442.412 834L428.902 824.62L433.872 816.78Z" fill="#EDBF2E"/>
<path d="M351.699 631.52C349.939 631.84 348.179 632.12 346.419 632.36C345.529 632.47 344.649 632.61 343.769 632.71L341.109 632.95L335.789 633.33C334.009 633.41 332.229 633.42 330.459 633.47C326.899 633.54 323.349 633.4 319.789 633.27C316.229 633.14 312.689 632.9 309.149 632.56C305.609 632.22 302.079 631.86 298.539 631.46C294.999 631.06 291.489 630.46 287.979 629.9C280.901 628.76 273.89 627.235 266.979 625.33L263.129 624.25L265.229 616.68L269.109 617.62C275.719 619.23 282.579 620.75 289.379 622.11C296.179 623.47 303.059 624.75 309.949 625.83C313.389 626.42 316.839 626.83 320.299 627.39C323.759 627.95 327.219 628.39 330.689 628.7C337.669 629.65 344.639 630.36 351.699 631.52Z" fill="#592D3D"/>
<path d="M669.312 789.07C679.572 778.81 678.602 779.44 687.102 768.13C685.602 733.65 657.102 714.42 657.102 714.42L659.002 726.08C659.842 726.24 666.912 744.55 666.562 772.16L669.312 789.07Z" fill="#EDBF2E"/>
<path d="M575.361 859.87C569.641 834.97 552.941 830.72 552.941 830.72L556.151 850.17C558.096 856.401 559.402 862.814 560.051 869.31C565.051 866.59 570.211 863.65 575.501 860.53L575.361 859.87Z" fill="#EDBF2E"/>
<path d="M340.091 735.62C341.491 742.568 343.703 749.328 346.681 755.76C349.596 762.088 353.048 768.153 357.001 773.89L360.091 778.07C360.621 778.75 361.091 779.49 361.651 780.14L363.311 782.14C364.441 783.45 365.501 784.82 366.661 786.14L370.221 789.92C370.821 790.54 371.381 791.2 371.991 791.81L373.891 793.59L377.661 797.17C380.241 799.49 382.991 801.62 385.601 803.92L379.321 807.24L379.261 803.24C379.311 801.92 379.331 800.6 379.461 799.24C379.591 797.88 379.691 796.59 379.921 795.24C380.031 794.58 380.101 793.92 380.241 793.24L380.671 791.24C381.273 788.611 382.117 786.044 383.191 783.57C383.725 782.347 384.33 781.155 385.001 780C385.341 779.4 385.731 778.82 386.131 778.23C386.341 777.94 386.531 777.66 386.771 777.36C387.011 777.06 387.191 776.82 387.551 776.41L392.011 771.35L392.571 777.9C392.671 778.99 392.871 780.3 393.101 781.51C393.331 782.72 393.611 783.97 393.941 785.19C394.588 787.632 395.427 790.02 396.451 792.33C397.517 794.644 398.824 796.84 400.351 798.88C401.971 800.932 403.862 802.755 405.971 804.3C403.422 803.353 401.054 801.977 398.971 800.23C396.859 798.428 394.996 796.353 393.431 794.06C391.868 791.753 390.528 789.302 389.431 786.74C388.891 785.46 388.431 784.16 387.971 782.83C387.513 781.468 387.142 780.079 386.861 778.67L391.861 780.16C391.861 780.24 391.641 780.51 391.521 780.71C391.401 780.91 391.261 781.17 391.131 781.4C390.881 781.88 390.631 782.4 390.401 782.88C389.934 783.908 389.52 784.96 389.161 786.03C388.448 788.215 387.907 790.452 387.541 792.72C387.178 795.017 386.961 797.335 386.891 799.66C386.831 800.82 386.891 802 386.891 803.17L387.051 806.7L387.451 815.34L380.771 810.02C379.331 808.87 377.901 807.73 376.481 806.56L374.341 804.81C373.641 804.22 372.901 803.67 372.251 803.02L368.251 799.19L366.251 797.28C365.611 796.61 365.001 795.92 364.391 795.23L360.721 791.08C359.511 789.69 358.461 788.16 357.341 786.69C355.124 783.737 353.065 780.67 351.171 777.5C347.489 771.105 344.591 764.289 342.541 757.2C340.611 750.19 339.431 742.84 340.091 735.62Z" fill="#592D3D"/>
<path d="M638.779 724.34C639.289 724.809 639.704 725.373 639.999 726C640.32 726.628 640.6 727.276 640.839 727.94C641.31 729.268 641.697 730.624 641.999 732C642.558 734.744 642.919 737.524 643.079 740.32C643.394 745.895 643.214 751.487 642.539 757.03C641.215 768.188 638.18 779.076 633.539 789.31C628.915 799.663 622.389 809.055 614.299 817C606.294 824.867 596.516 830.697 585.789 834C594.743 828.084 602.796 820.906 609.699 812.69C616.374 804.566 621.94 795.591 626.249 786C630.611 776.364 633.992 766.313 636.339 756C637.553 750.8 638.491 745.539 639.149 740.24C639.469 737.59 639.689 734.92 639.779 732.24C639.832 730.906 639.805 729.57 639.699 728.24C639.659 727.568 639.572 726.9 639.439 726.24C639.333 725.573 639.109 724.929 638.779 724.34Z" fill="white"/>
<path d="M262.512 621.57C284.752 665.47 269.732 693.95 297.692 745.87C290.692 716.87 300.122 690.19 300.122 690.19C300.122 690.19 310.002 744.78 325.002 780.12C332.282 803.58 394.852 841.52 428.552 861.29C425.58 846.804 426.379 831.798 430.872 817.71C430.872 817.71 442.762 867.07 466.782 881.42C480.212 889 496.932 893.31 501.912 893.31C506.892 893.31 536.442 881.73 552.832 838.81C558.363 848.063 561.106 858.716 560.732 869.49C582.912 857.49 614.122 843.81 633.182 821.84C659.522 787.15 659.522 726 659.522 726C659.522 726 676.002 748.85 669.932 789.3C731.692 721 724.272 646.16 741.352 613.73" stroke="#592D3D" stroke-width="12" stroke-miterlimit="10"/>
<path d="M734.38 616.77C734.663 617.284 735.06 617.725 735.54 618.06C736.175 618.495 736.921 618.738 737.69 618.76C738.269 618.776 738.844 618.66 739.37 618.42H739.281L739.081 618.53L738.6 618.77L737.6 619.28L735.6 620.28C734.267 620.947 732.934 621.614 731.6 622.28C728.91 623.6 726.19 624.85 723.47 626.09C720.75 627.33 717.971 628.5 715.201 629.66C712.431 630.82 709.6 631.89 706.73 632.92C705.29 633.43 703.841 633.92 702.341 634.35C700.783 634.831 699.196 635.216 697.591 635.5C697.121 635.58 696.78 635.61 696.41 635.66L695.29 635.79C694.55 635.88 693.81 635.95 693.06 636.02C691.57 636.16 690.06 636.32 688.57 636.42C682.542 636.917 676.478 636.773 670.48 635.99C676.34 634.41 682.1 633.1 687.85 631.7L696.44 629.7C697.735 629.32 699.007 628.866 700.25 628.34C701.56 627.82 702.88 627.2 704.25 626.62C706.9 625.43 709.54 624.15 712.18 622.85C714.82 621.55 717.47 620.24 720.11 618.92L728.05 614.92L732.05 612.92L734.05 611.92L735.05 611.44L735.581 611.19L735.88 611.06L736.04 610.98H736.091C736.999 610.567 738.026 610.499 738.981 610.788C739.936 611.077 740.753 611.703 741.281 612.55L743.41 615.93L736.35 620.12L734.38 616.77Z" fill="#592D3D"/>
<path d="M271.401 576.82C270.401 548.46 289.401 524.46 314.681 513.26C317.336 512.173 320.062 511.271 322.841 510.56C336.851 507.08 351.594 508.016 365.051 513.24C368.126 514.419 371.117 515.809 374.001 517.4C403.531 533.28 416.791 570.65 405.361 600.86C404.203 603.906 402.805 606.855 401.181 609.68C397.193 617.988 391.17 625.153 383.671 630.51C381.169 632.351 378.547 634.021 375.821 635.51C348.441 648.51 311.441 644.51 289.371 624.11C287.163 621.765 285.122 619.269 283.261 616.64C281.139 613.637 279.275 610.459 277.691 607.14C274.338 600.351 272.402 592.951 272.001 585.39C271.639 582.547 271.439 579.686 271.401 576.82Z" fill="#C6854E"/>
<path d="M269.772 558.47C268.772 530.11 287.772 506.11 313.052 494.91C315.703 493.823 318.427 492.921 321.202 492.21C335.215 488.728 349.962 489.664 363.422 494.89C366.487 496.07 369.468 497.46 372.342 499.05C401.872 514.94 415.132 552.3 403.702 582.51C402.552 585.559 401.154 588.509 399.522 591.33C398.14 594.039 396.566 596.645 394.812 599.13C393.084 601.592 391.186 603.931 389.132 606.13C386.912 608.327 384.532 610.356 382.012 612.2C379.512 614.043 376.889 615.714 374.162 617.2C346.782 630.2 309.782 626.2 287.722 605.8C285.509 603.46 283.467 600.963 281.612 598.33C279.487 595.327 277.62 592.149 276.032 588.83C272.656 582.02 270.713 574.591 270.322 567C269.968 564.17 269.785 561.322 269.772 558.47Z" fill="white"/>
<path d="M338.51 571.32C345.27 571.32 350.75 565.84 350.75 559.08C350.75 552.32 345.27 546.84 338.51 546.84C331.75 546.84 326.27 552.32 326.27 559.08C326.27 565.84 331.75 571.32 338.51 571.32Z" fill="#592D3D"/>
<path d="M339.2 490.12C330.2 490.109 321.287 491.876 312.972 495.32C304.658 498.764 297.105 503.818 290.75 510.19C288.265 512.68 285.972 515.354 283.89 518.19C279.586 523.79 276.117 529.985 273.59 536.58H403.92C400.54 524.71 393.499 514.211 383.8 506.58C381.799 504.865 379.702 503.266 377.52 501.79C366.202 494.152 352.853 490.087 339.2 490.12Z" fill="#D8985D" stroke="#592D3D" stroke-width="8" stroke-miterlimit="10"/>
<path d="M274.09 581.45C279.59 595.2 289.39 607.38 302.01 614.77C305.259 616.612 308.654 618.184 312.16 619.47C336.79 628.56 367.16 624.54 386.65 607.86C389.268 605.511 391.705 602.967 393.94 600.25C395.623 598.222 397.161 596.076 398.54 593.83C400.54 589.853 402.192 585.711 403.48 581.45H274.09Z" fill="#D8985D" stroke="#592D3D" stroke-width="8" stroke-miterlimit="10"/>
<path d="M269.772 558.47C268.772 530.11 287.772 506.11 313.052 494.91C315.703 493.823 318.427 492.921 321.202 492.21C335.215 488.728 349.962 489.664 363.422 494.89C366.487 496.07 369.468 497.46 372.342 499.05C401.872 514.94 415.132 552.3 403.702 582.51C402.552 585.559 401.154 588.509 399.522 591.33C398.14 594.039 396.566 596.645 394.812 599.13C393.084 601.592 391.186 603.931 389.132 606.13C386.912 608.327 384.532 610.356 382.012 612.2C379.512 614.043 376.889 615.714 374.162 617.2C346.782 630.2 309.782 626.2 287.722 605.8C285.509 603.46 283.467 600.963 281.612 598.33C279.487 595.327 277.62 592.149 276.032 588.83C272.656 582.02 270.713 574.591 270.322 567C269.968 564.17 269.785 561.322 269.772 558.47Z" stroke="#592D3D" stroke-width="12" stroke-miterlimit="10"/>
<path d="M583.892 568.76C584.322 553.63 590.562 538.67 598.992 527.43C601.144 524.409 603.524 521.558 606.112 518.9C617.618 506.92 633.023 499.44 649.554 497.809C666.085 496.177 682.655 500.5 696.282 510C698.553 511.585 700.734 513.298 702.812 515.13C729.812 536.58 732.932 578.27 718.132 608.36C716.694 610.751 715.097 613.043 713.352 615.22C711.038 618.121 708.504 620.839 705.772 623.35C685.502 641.18 653.962 645.48 628.362 635.77C624.714 634.394 621.186 632.722 617.812 630.77C599.912 619.99 587.442 599.68 584.382 578.54C583.964 575.298 583.801 572.028 583.892 568.76Z" fill="#C6854E"/>
<path d="M589.379 557.26C589.799 543.11 595.799 529.11 603.899 518.6C605.983 515.766 608.276 513.092 610.759 510.6C622.006 499.356 636.812 492.373 652.642 490.846C668.472 489.319 684.34 493.344 697.529 502.23C699.711 503.707 701.808 505.306 703.809 507.02C729.809 527.09 732.809 566.09 718.549 594.24C717.167 596.485 715.63 598.63 713.949 600.66C711.716 603.376 709.279 605.917 706.659 608.26C687.149 625 656.799 629 632.169 619.9C628.657 618.609 625.255 617.034 621.999 615.19C604.779 605.11 592.779 586.11 589.829 566.34C589.435 563.331 589.284 560.294 589.379 557.26Z" fill="white"/>
<path d="M659.209 571.32C665.969 571.32 671.449 565.84 671.449 559.08C671.449 552.32 665.969 546.84 659.209 546.84C652.449 546.84 646.969 552.32 646.969 559.08C646.969 565.84 652.449 571.32 659.209 571.32Z" fill="#592D3D"/>
<path d="M659.212 490.55C650.212 490.539 641.299 492.306 632.984 495.75C624.669 499.195 617.117 504.248 610.762 510.62C608.279 513.112 605.986 515.786 603.902 518.62C599.601 524.219 596.132 530.409 593.602 537H723.932C720.549 525.132 713.508 514.633 703.812 507C701.81 505.286 699.714 503.687 697.532 502.21C686.213 494.576 672.864 490.514 659.212 490.55Z" fill="#D8985D" stroke="#592D3D" stroke-width="8" stroke-miterlimit="10"/>
<path d="M594.102 581.87C599.612 595.63 609.402 607.81 622.022 615.19C625.271 617.033 628.666 618.608 632.172 619.9C656.802 628.99 687.172 624.96 706.662 608.28C709.282 605.936 711.719 603.396 713.952 600.68C715.633 598.65 717.17 596.505 718.552 594.26C720.557 590.282 722.21 586.137 723.492 581.87H594.102Z" fill="#D8985D" stroke="#592D3D" stroke-width="8" stroke-miterlimit="10"/>
<path d="M589.379 557.26C589.799 543.11 595.799 529.11 603.899 518.6C605.983 515.766 608.276 513.092 610.759 510.6C622.006 499.356 636.812 492.373 652.642 490.846C668.472 489.319 684.34 493.344 697.529 502.23C699.711 503.707 701.808 505.306 703.809 507.02C729.809 527.09 732.809 566.09 718.549 594.24C717.167 596.485 715.63 598.63 713.949 600.66C711.716 603.376 709.279 605.917 706.659 608.26C687.149 625 656.799 629 632.169 619.9C628.657 618.609 625.255 617.034 621.999 615.19C604.779 605.11 592.779 586.11 589.829 566.34C589.435 563.331 589.284 560.294 589.379 557.26Z" stroke="#592D3D" stroke-width="12" stroke-miterlimit="10"/>
<path d="M538.71 665.74C523.16 665.74 513.59 652.98 502.23 652.98C490.87 652.98 476.31 665.74 461 665.74C445.69 665.74 437.27 654.63 437.27 639.23C437.27 622.58 454.02 593.17 499.88 593.17C545.74 593.17 565.27 620.91 565.27 638.63C565.23 655 554.27 665.74 538.71 665.74Z" fill="#592D3D" stroke="#592D3D" stroke-width="12" stroke-miterlimit="10"/>
<path d="M511.139 655.25C506.579 643 490.999 635 473.289 636.57C458.499 637.91 446.359 645.66 441.449 655.67C445.369 661.93 451.959 665.74 460.959 665.74C476.309 665.74 490.859 652.98 502.229 652.98C505.328 653.086 508.368 653.86 511.139 655.25Z" fill="#F28195"/>
<path d="M455.062 628.66L455.932 628.31L456.663 628.06C457.133 627.9 457.603 627.78 458.073 627.66C459.009 627.419 459.962 627.242 460.923 627.13C462.859 626.872 464.82 626.848 466.763 627.06C470.833 627.449 474.705 629.005 477.913 631.54C480.942 633.936 483.217 637.154 484.462 640.81C485.602 644.187 485.672 647.833 484.663 651.25C482.163 648.67 480.203 646.31 478.233 644.37C477.333 643.445 476.371 642.583 475.353 641.79C474.429 641.093 473.421 640.515 472.353 640.07C470.343 639.236 468.177 638.844 466.003 638.92C464.854 638.952 463.709 639.053 462.573 639.22C462.003 639.32 461.413 639.41 460.853 639.53L460.013 639.72L459.622 639.8C459.532 639.8 459.332 639.88 459.402 639.8L455.062 628.66Z" fill="#592D3D"/>
<path d="M407.291 474.84H286.651C281.091 474.84 275.531 474.76 269.971 474.84H269.731C264.501 474.84 259.491 479.44 259.731 484.84C259.775 487.479 260.842 489.997 262.708 491.863C264.574 493.729 267.092 494.796 269.731 494.84H390.371C395.921 494.84 401.491 494.92 407.051 494.84H407.291C412.521 494.84 417.531 490.24 417.291 484.84C417.245 482.203 416.176 479.686 414.311 477.82C412.445 475.955 409.929 474.886 407.291 474.84Z" fill="#592D3D"/>
<path d="M726.322 474.84H605.682C600.122 474.84 594.562 474.76 589.002 474.84H588.762C583.532 474.84 578.522 479.44 578.762 484.84C578.806 487.479 579.874 489.997 581.739 491.863C583.605 493.729 586.124 494.796 588.762 494.84H709.402C714.962 494.84 720.522 494.92 726.082 494.84H726.322C731.552 494.84 736.562 490.24 736.322 484.84C736.276 482.203 735.208 479.686 733.342 477.82C731.477 475.955 728.96 474.886 726.322 474.84Z" fill="#592D3D"/>
<path opacity="0.15" d="M725 631.82C736.169 613.163 745.002 593.203 751.3 572.39C734.06 608.13 701.46 637.85 659.19 637.85C630.923 637.813 603.825 626.566 583.839 606.577C563.853 586.587 552.612 559.487 552.58 531.22C552.541 517.431 555.201 503.768 560.41 491H758C762.345 501.64 764.919 512.919 765.62 524.39C766.35 516.39 766.74 508.2 766.74 499.97C766.736 490.282 766.208 480.601 765.16 470.97H575H423.14H234.83C233.782 480.601 233.254 490.282 233.25 499.97C233.25 504.7 233.39 509.39 233.63 514.06C234.899 506.152 237.07 498.415 240.1 491H437.7C444.271 507.194 446.764 524.753 444.96 542.136C443.156 559.518 437.11 576.191 427.353 590.69C417.596 605.189 404.428 617.069 389.005 625.287C373.581 633.505 356.376 637.809 338.9 637.82C300.1 637.82 270.08 611.99 251.42 580.93C257.712 599.398 266.015 617.118 276.18 633.77C295.57 645.84 314.43 657.82 338.9 657.82C372.467 657.781 404.648 644.431 428.387 620.698C452.125 596.965 465.482 564.787 465.53 531.22C465.53 529.41 465.53 527.61 465.41 525.82C488.79 517.59 510.93 517.47 532.72 525.46C532.64 527.37 532.58 529.29 532.58 531.22C532.62 564.792 545.974 596.978 569.713 620.717C593.452 644.456 625.638 657.81 659.21 657.85C685 657.85 705 645.1 725 631.82ZM535.26 505.18C511.86 497.63 487.62 497.76 462.93 505.57C461.916 500.639 460.603 495.773 459 491H539.1C537.538 495.646 536.255 500.381 535.26 505.18Z" fill="black"/>
<path opacity="0.95" d="M233.59 469.82C233.59 469.82 234 502.05 234 520.02C234 584.43 274.48 636.65 338.9 636.65C358.593 636.641 377.963 631.648 395.207 622.135C412.45 612.623 427.005 598.901 437.516 582.248C448.028 565.595 454.153 546.552 455.322 526.894C456.49 507.235 452.664 487.601 444.2 469.82H233.59Z" fill="#592D3D"/>
<path opacity="0.95" d="M553.909 469.82C545.445 487.601 541.619 507.235 542.788 526.894C543.956 546.552 550.082 565.595 560.593 582.248C571.104 598.901 585.659 612.623 602.903 622.135C620.146 631.648 639.516 636.641 659.209 636.65C723.629 636.65 766.749 584.43 766.749 520.02C766.749 502.02 764.519 469.82 764.519 469.82H553.909Z" fill="#592D3D"/>
<path opacity="0.25" d="M319.999 626.86L443.069 503.78C440.364 497.681 437.012 491.891 433.069 486.51L302.719 616.88C308.107 620.813 313.9 624.158 319.999 626.86Z" fill="white"/>
<path d="M455.859 507.53C485.379 495.53 514.389 495.11 542.859 507.53" stroke="#592D3D" stroke-width="20" stroke-miterlimit="10"/>
<path d="M274.281 504.75C276.341 511.26 268.341 516.26 262.341 517.26C256.341 517.26 252.341 513.26 250.341 508.26C249.341 503.26 250.341 498.26 254.341 495.26C259.341 493.26 266.341 491.26 270.781 496.38C271.892 497.472 272.774 498.775 273.375 500.212C273.976 501.649 274.284 503.192 274.281 504.75Z" fill="white"/>
<path d="M285.001 500.93C284.391 505.26 278.391 505.26 277.391 501.26C277.391 498.26 278.391 497.26 281.231 497.16C282.23 497.16 283.189 497.557 283.896 498.264C284.603 498.971 285.001 499.93 285.001 500.93Z" fill="white"/>
<path opacity="0.25" d="M645.19 618.92L751.47 512.64C750.896 508.854 750.091 505.107 749.06 501.42L634 616.51C637.678 617.539 641.415 618.344 645.19 618.92Z" fill="white"/>
<path d="M590.68 505.73C592.74 512.24 584.74 517.24 578.74 518.24C572.74 518.24 568.74 514.24 566.74 509.24C565.74 504.24 566.74 499.24 570.74 496.24C575.74 494.24 582.74 492.24 587.19 497.36C588.3 498.452 589.18 499.756 589.779 501.193C590.379 502.63 590.685 504.173 590.68 505.73Z" fill="white"/>
<path d="M601.352 501.91C600.742 506.24 594.742 506.24 593.742 502.24C593.742 499.24 594.742 498.24 597.592 498.14C598.087 498.14 598.577 498.238 599.033 498.427C599.49 498.617 599.905 498.895 600.254 499.245C600.604 499.595 600.88 500.011 601.069 500.468C601.257 500.926 601.353 501.416 601.352 501.91Z" fill="white"/>
<path d="M233.593 469.82C233.593 469.82 233.253 501.51 234.003 520.02C236.603 584.38 274.483 636.65 338.903 636.65C358.596 636.641 377.966 631.648 395.209 622.135C412.453 612.623 427.008 598.901 437.519 582.248C448.03 565.595 454.156 546.552 455.324 526.894C456.493 507.235 452.667 487.601 444.203 469.82H233.593Z" stroke="#592D3D" stroke-width="20" stroke-miterlimit="10"/>
<path d="M553.909 469.82C545.445 487.601 541.619 507.235 542.788 526.894C543.956 546.552 550.082 565.595 560.593 582.248C571.104 598.901 585.659 612.623 602.903 622.135C620.146 631.648 639.516 636.641 659.209 636.65C723.629 636.65 766.749 585.12 766.749 520.71C766.749 502.71 764.519 469.82 764.519 469.82H553.909Z" stroke="#592D3D" stroke-width="20" stroke-miterlimit="10"/>
<path d="M423.141 469.81H574.971" stroke="#592D3D" stroke-width="20" stroke-miterlimit="10"/>
</g>
</svg>
