<svg width="1000" height="990" viewBox="0 0 1000 990" fill="none" xmlns="http://www.w3.org/2000/svg">
<mask id="mask0_22_4211" style="mask-type:luminance" maskUnits="userSpaceOnUse" x="0" y="0" width="1000" height="966">
<path d="M1000 0H0V718.31H179.2C217.58 860.69 346.65 965.41 500 965.41C653.35 965.41 782.42 860.69 820.8 718.31H1000V0Z" fill="white"/>
</mask>
<g mask="url(#mask0_22_4211)">
<path d="M500.001 962.602C683.603 962.602 832.443 813.763 832.443 630.16C832.443 446.557 683.603 297.718 500.001 297.718C316.398 297.718 167.559 446.557 167.559 630.16C167.559 813.763 316.398 962.602 500.001 962.602Z" fill="#85C5E5"/>
<path d="M833.149 369C833.21 357.431 829.83 346.106 823.44 336.463C817.049 326.819 807.936 319.293 797.259 314.84C805.239 309.459 811.77 302.194 816.274 293.687C820.777 285.18 823.115 275.695 823.079 266.07C823.079 238.3 804.079 215.07 778.609 209.19C783.544 200.358 786.129 190.407 786.119 180.29C786.119 148.1 760.549 122 728.999 122C720.623 121.993 712.352 123.87 704.799 127.49C705.25 124.538 705.474 121.556 705.469 118.57C705.469 86.36 679.899 60.24 648.349 60.24C639.964 60.2513 631.687 62.1292 624.118 65.7373C616.549 69.3454 609.878 74.5932 604.589 81.1C602.979 50.36 578.059 25.93 547.589 25.93C537.318 25.9638 527.248 28.777 518.447 34.0711C509.646 39.3651 502.442 46.9427 497.599 56C492.753 46.9433 485.547 39.3666 476.744 34.0727C467.942 28.7789 457.871 25.9653 447.599 25.93C417.099 25.93 392.179 50.36 390.599 81.1C385.307 74.594 378.635 69.3469 371.064 65.739C363.494 62.131 355.215 60.2527 346.829 60.24C315.299 60.24 289.719 86.35 289.719 118.57C289.716 121.556 289.936 124.537 290.379 127.49C282.836 123.87 274.576 121.994 266.209 122C234.669 122 209.089 148.12 209.089 180.33C209.073 190.448 211.659 200.4 216.599 209.23C191.149 215.11 172.139 238.34 172.139 266.11C172.111 275.735 174.456 285.219 178.967 293.722C183.477 302.225 190.014 309.485 197.999 314.86C187.455 319.326 178.443 326.772 172.069 336.285C165.696 345.798 162.236 356.965 162.117 368.415C161.997 379.865 165.221 391.102 171.394 400.746C177.567 410.391 186.421 418.024 196.869 422.71C187.409 433.494 182.216 447.364 182.269 461.71C182.269 490.22 202.319 513.96 228.809 519.04C217.299 529.35 774.169 529.97 762.989 519.59C791.189 516.02 812.989 491.48 812.989 461.72C813.034 447.374 807.838 433.506 798.379 422.72C808.774 418.121 817.6 410.588 823.777 401.046C829.953 391.504 833.21 380.367 833.149 369ZM270.809 513.54C269.879 513.02 268.919 512.54 267.959 512.13C268.929 511.56 270.809 513.54 270.809 513.54Z" fill="#FEDC58"/>
<path d="M469.999 505.43C462.758 512.042 453.765 516.426 444.096 518.058C434.427 519.69 424.493 518.499 415.483 514.63C406.473 510.76 398.77 504.375 393.296 496.24C387.822 488.105 384.81 478.564 384.619 468.76C375.479 471.688 365.698 471.982 356.398 469.609C347.098 467.236 338.655 462.292 332.034 455.343C325.414 448.394 320.884 439.72 318.965 430.316C317.045 420.913 317.812 411.158 321.179 402.17C311.343 401.511 301.907 398.025 294.005 392.131C286.102 386.237 280.07 378.187 276.634 368.948C273.197 359.708 272.501 349.673 274.631 340.048C276.761 330.422 281.625 321.617 288.639 314.69C279.561 310.758 271.813 304.287 266.328 296.054C260.842 287.822 257.853 278.179 257.72 268.288C257.587 258.396 260.315 248.676 265.577 240.299C270.839 231.922 278.41 225.244 287.379 221.07C281.164 213.551 277.216 204.42 275.996 194.742C274.776 185.064 276.334 175.239 280.488 166.413C284.642 157.587 291.221 150.125 299.456 144.897C307.692 139.67 317.244 136.892 326.999 136.89H327.159C325.288 129.302 325.167 121.387 326.805 113.746C328.443 106.104 331.797 98.9343 336.614 92.7796C341.431 86.6248 347.584 81.6459 354.608 78.2192C361.632 74.7925 369.344 73.0077 377.159 73C379.05 73.0023 380.939 73.1057 382.819 73.31C372.725 64.8602 359.983 60.2269 346.819 60.22C315.279 60.22 289.709 86.33 289.709 118.55C289.706 121.536 289.926 124.517 290.369 127.47C282.828 123.858 274.571 121.989 266.209 122C234.669 122 209.089 148.12 209.089 180.33C209.073 190.448 211.659 200.4 216.599 209.23C191.149 215.11 172.139 238.34 172.139 266.11C172.111 275.735 174.456 285.219 178.967 293.722C183.477 302.225 190.014 309.485 197.999 314.86C187.455 319.326 178.443 326.772 172.069 336.285C165.696 345.798 162.236 356.965 162.117 368.415C161.997 379.865 165.221 391.102 171.394 400.746C177.567 410.391 186.421 418.024 196.869 422.71C187.409 433.494 182.216 447.364 182.269 461.71C182.269 490.22 202.319 513.96 228.809 519.04C223.199 524.04 352.619 526.79 485.469 527.04C478.498 521.326 473.161 513.871 469.999 505.43Z" fill="#EDBF2E"/>
<path d="M741.199 386L706.199 464.16L745.669 522.77C757.909 521.86 764.279 520.77 762.979 519.6C791.179 516.03 812.979 491.49 812.979 461.73C812.972 458.48 812.705 455.237 812.179 452.03C792.179 391.39 741.199 386 741.199 386Z" fill="#EDBF2E"/>
<path d="M833.149 369C833.21 357.431 829.83 346.106 823.44 336.463C817.049 326.819 807.936 319.293 797.259 314.84C805.239 309.459 811.77 302.194 816.274 293.687C820.777 285.18 823.115 275.695 823.079 266.07C823.079 238.3 804.079 215.07 778.609 209.19C783.544 200.358 786.129 190.407 786.119 180.29C786.119 148.1 760.549 122 728.999 122C720.623 121.993 712.352 123.87 704.799 127.49C705.25 124.538 705.474 121.556 705.469 118.57C705.469 86.36 679.899 60.24 648.349 60.24C639.964 60.2513 631.687 62.1292 624.118 65.7373C616.549 69.3454 609.878 74.5932 604.589 81.1C602.979 50.36 578.059 25.93 547.589 25.93C537.318 25.9638 527.248 28.777 518.447 34.0711C509.646 39.3651 502.442 46.9427 497.599 56C492.753 46.9433 485.547 39.3666 476.744 34.0727C467.942 28.7789 457.871 25.9653 447.599 25.93C417.099 25.93 392.179 50.36 390.599 81.1C385.307 74.594 378.635 69.3469 371.064 65.739C363.494 62.131 355.215 60.2527 346.829 60.24C315.299 60.24 289.719 86.35 289.719 118.57C289.716 121.556 289.936 124.537 290.379 127.49C282.836 123.87 274.576 121.994 266.209 122C234.669 122 209.089 148.12 209.089 180.33C209.073 190.448 211.659 200.4 216.599 209.23C191.149 215.11 172.139 238.34 172.139 266.11C172.111 275.735 174.456 285.219 178.967 293.722C183.477 302.225 190.014 309.485 197.999 314.86C187.455 319.326 178.443 326.772 172.069 336.285C165.696 345.798 162.236 356.965 162.117 368.415C161.997 379.865 165.221 391.102 171.394 400.746C177.567 410.391 186.421 418.024 196.869 422.71C187.409 433.494 182.216 447.364 182.269 461.71C182.269 490.22 202.319 513.96 228.809 519.04C217.299 529.35 774.169 529.97 762.989 519.59C791.189 516.02 812.989 491.48 812.989 461.72C813.034 447.374 807.838 433.506 798.379 422.72C808.774 418.121 817.6 410.588 823.777 401.046C829.953 391.504 833.21 380.367 833.149 369Z" stroke="#592D3D" stroke-width="12" stroke-miterlimit="10"/>
<path d="M610 758.72C700.76 758.72 682 872.96 682.87 1000H610V758.72Z" fill="#D8985D"/>
<path d="M632.74 831.87L610 870L621.38 1000H653.14C653.91 819.73 632.74 831.87 632.74 831.87Z" fill="#C6854E"/>
<path d="M233.25 500C233.25 352.68 352.68 233.25 500 233.25C647.32 233.25 766.75 352.68 766.75 500C766.788 539.694 757.949 578.895 740.88 614.731C723.811 650.568 698.945 682.135 668.1 707.12C662.627 711.573 656.98 715.803 651.16 719.81C591 758 515 758 446.39 751.89C439.73 750.89 433.09 749.63 426.5 748.18C400.17 742.38 374.68 733.43 351.13 720.38C345.31 716.793 339.667 712.92 334.2 708.76C328.706 704.576 323.432 700.11 318.4 695.38C313.64 690.96 309.044 686.367 304.61 681.6C258.667 632.299 233.161 567.39 233.25 500Z" fill="#D8985D"/>
<path d="M269.612 634.48C270.312 635.68 271.002 636.88 271.722 638.06C272.152 638.78 272.602 639.48 273.052 640.2C273.712 641.27 274.372 642.34 275.052 643.39C275.532 644.15 276.052 644.89 276.512 645.63C277.172 646.63 277.832 647.63 278.512 648.63C279.022 649.39 279.512 650.15 280.072 650.91C280.732 651.91 281.392 652.83 282.072 653.79C282.612 654.56 283.172 655.32 283.722 656.09C284.272 656.86 285.062 657.94 285.722 658.86C286.382 659.78 286.872 660.39 287.452 661.15C288.032 661.91 288.822 662.95 289.522 663.85C290.222 664.75 290.712 665.36 291.312 666.11C291.912 666.86 292.722 667.87 293.432 668.74C294.142 669.61 294.662 670.23 295.282 670.97C295.902 671.71 296.722 672.69 297.452 673.54C298.182 674.39 298.722 675.01 299.362 675.74L301.582 678.24C302.232 678.97 302.892 679.68 303.582 680.4C304.442 681.34 305.312 682.27 306.182 683.19L307.392 684.47C308.682 685.81 309.982 687.15 311.302 688.47L311.562 688.74C312.852 690.02 314.162 691.29 315.472 692.55L317.052 694.05C318.002 694.94 318.952 695.83 319.912 696.71L321.072 697.77C322.072 698.71 323.162 699.63 324.212 700.55C327.478 703.397 330.812 706.127 334.212 708.74C339.672 712.9 345.315 716.773 351.142 720.36C374.692 733.36 400.142 742.36 426.512 748.16C433.102 749.61 439.742 750.86 446.402 751.87C488.502 755.62 533.402 757.05 575.682 748.79C508.452 729 185.592 612.74 388.802 257.48C386.082 258.73 383.402 260.02 380.742 261.36L380.152 261.65C378.932 262.26 377.712 262.89 376.502 263.53L375.502 264.06C371.742 266.06 368.022 268.13 364.372 270.29L363.472 270.82C362.312 271.51 361.162 272.21 360.012 272.92L359.142 273.46C355.568 275.693 352.052 278.003 348.592 280.39L347.512 281.14C346.422 281.9 345.352 282.66 344.282 283.43L343.622 283.9C341.442 285.493 339.288 287.107 337.162 288.74L336.542 289.22C335.542 290 334.542 290.8 333.542 291.61L332.372 292.55C331.372 293.36 330.372 294.17 329.372 295C327.262 296.75 325.182 298.55 323.132 300.37L321.992 301.37L319.302 303.82L318.002 305C315.148 307.667 312.358 310.39 309.632 313.17L308.252 314.58C307.462 315.4 306.672 316.22 305.892 317.05C305.432 317.54 304.972 318.05 304.522 318.53C303.148 319.997 301.795 321.483 300.462 322.99C300.012 323.5 299.552 323.99 299.102 324.53C298.392 325.34 297.692 326.16 296.992 326.98L295.482 328.77C294.802 329.58 294.122 330.39 293.482 331.21C292.942 331.87 292.402 332.54 291.872 333.21C290.802 334.54 289.752 335.87 288.712 337.21C288.172 337.91 287.632 338.61 287.102 339.32C286.572 340.03 285.902 340.91 285.312 341.72C284.722 342.53 284.242 343.17 283.722 343.9C283.202 344.63 282.592 345.45 282.042 346.23C281.095 347.563 280.162 348.913 279.242 350.28C278.742 351.01 278.242 351.76 277.752 352.5C277.262 353.24 276.652 354.16 276.112 355L274.622 357.31L272.942 360.02C272.512 360.71 272.082 361.4 271.662 362.09C270.772 363.55 269.912 365.02 269.052 366.49L267.832 368.65C267.292 369.6 266.752 370.56 266.222 371.52C265.822 372.25 265.422 372.98 265.032 373.71C264.392 374.9 263.762 376.1 263.132 377.3L261.932 379.64C261.292 380.92 260.652 382.19 260.022 383.48C259.692 384.17 259.352 384.87 259.022 385.57C258.502 386.66 258.022 387.76 257.492 388.86C257.182 389.52 256.882 390.18 256.582 390.86C255.842 392.507 255.118 394.173 254.412 395.86C254.192 396.38 253.982 396.91 253.762 397.43C253.232 398.7 252.712 399.97 252.202 401.25C251.932 401.92 251.672 402.59 251.412 403.25C250.912 404.51 250.412 405.78 249.962 407.05C249.752 407.6 249.542 408.15 249.342 408.7C248.715 410.453 248.098 412.207 247.492 413.96L246.932 415.66C246.492 416.993 246.062 418.327 245.642 419.66L245.042 421.57C244.572 423.11 244.112 424.65 243.672 426.2C243.572 426.53 243.472 426.86 243.382 427.2C242.862 429.04 242.362 430.887 241.882 432.74C241.722 433.33 241.582 433.93 241.432 434.52C241.082 435.91 240.742 437.3 240.432 438.7L240.012 440.45C239.582 442.35 239.162 444.25 238.772 446.16L238.622 446.93C238.282 448.63 237.948 450.33 237.622 452.03C237.512 452.64 237.412 453.24 237.302 453.85C237.042 455.34 236.792 456.85 236.562 458.35C236.482 458.86 236.392 459.35 236.322 459.87C236.022 461.82 235.752 463.78 235.492 465.75L235.342 467.05C235.142 468.64 234.962 470.24 234.792 471.84C234.732 472.44 234.662 473.04 234.602 473.65C234.442 475.33 234.292 477.02 234.152 478.71C234.152 479.06 234.092 479.4 234.072 479.71C233.925 481.71 233.795 483.727 233.682 485.76C233.682 486.29 233.682 486.83 233.612 487.36C233.545 488.933 233.485 490.503 233.432 492.07C233.432 492.66 233.432 493.25 233.432 493.84C233.432 495.89 233.352 497.95 233.352 500.01C233.352 500.01 233.352 500.08 233.352 500.11C233.352 502.33 233.352 504.53 233.432 506.73C233.432 507.49 233.492 508.25 233.512 509.01C233.562 510.48 233.612 511.95 233.682 513.42C233.682 514.31 233.792 515.19 233.842 516.08C233.922 517.41 233.992 518.74 234.092 520.08C234.162 521.08 234.252 521.97 234.332 522.91C234.442 524.17 234.542 525.43 234.672 526.68C234.762 527.68 234.882 528.62 234.982 529.59C235.122 530.8 235.252 532.02 235.402 533.23C235.522 534.23 235.662 535.23 235.792 536.18C235.952 537.36 236.112 538.55 236.292 539.73C236.442 540.73 236.602 541.73 236.762 542.73C236.942 543.89 237.132 545.06 237.332 546.22C237.512 547.22 237.692 548.22 237.882 549.22C238.092 550.37 238.312 551.52 238.532 552.66C238.752 553.8 238.942 554.66 239.152 555.66C239.392 556.8 239.632 557.93 239.892 559.06C240.152 560.19 240.332 561.06 240.572 561.99C240.832 563.12 241.112 564.24 241.392 565.35C241.672 566.46 241.882 567.3 242.132 568.26C242.432 569.38 242.732 570.49 243.042 571.6C243.302 572.6 243.572 573.52 243.852 574.47C244.172 575.58 244.502 576.68 244.852 577.78C245.202 578.88 245.432 579.67 245.732 580.62C246.032 581.57 246.432 582.81 246.792 583.9C247.152 584.99 247.412 585.77 247.732 586.7C248.112 587.79 248.492 588.88 248.882 589.97C249.212 590.88 249.532 591.8 249.882 592.71L251.122 595.98C251.472 596.87 251.812 597.77 252.122 598.66C252.562 599.75 253.012 600.85 253.462 601.94C253.822 602.8 254.172 603.67 254.542 604.53C255.012 605.65 255.542 606.75 255.992 607.86C256.362 608.68 256.722 609.51 257.092 610.33C257.612 611.49 258.162 612.63 258.692 613.77L259.772 616.07C260.382 617.33 261.012 618.57 261.642 619.82C261.962 620.45 262.262 621.09 262.592 621.72C264.512 625.46 266.512 629.15 268.592 632.79C268.882 633.26 269.252 633.87 269.612 634.48Z" fill="#C6854E"/>
<path d="M233.25 500C233.25 352.68 352.68 233.25 500 233.25C647.32 233.25 766.75 352.68 766.75 500C766.788 539.694 757.949 578.895 740.88 614.731C723.811 650.568 698.945 682.135 668.1 707.12C662.627 711.573 656.98 715.803 651.16 719.81C591 758 515 758 446.39 751.89C439.73 750.89 433.09 749.63 426.5 748.18C400.17 742.38 374.68 733.43 351.13 720.38C345.31 716.793 339.667 712.92 334.2 708.76C328.706 704.576 323.432 700.11 318.4 695.38C313.64 690.96 309.044 686.367 304.61 681.6C258.667 632.299 233.161 567.39 233.25 500Z" stroke="#592D3D" stroke-width="12" stroke-miterlimit="10"/>
<path d="M386.118 758.72C295.348 758.72 314.118 872.96 313.248 1000H386.118V758.72Z" fill="#D8985D"/>
<path d="M367.228 831.87L389.998 870L378.608 1000H346.878C346.068 819.73 367.228 831.87 367.228 831.87Z" fill="#C6854E"/>
<path d="M619.472 1070H380.532C377.011 1070 373.636 1068.6 371.148 1066.11C368.659 1063.62 367.262 1060.24 367.262 1056.72V772C367.262 768.48 368.659 765.103 371.148 762.613C373.636 760.123 377.011 758.723 380.532 758.72H613.762C626.852 758.72 632.762 766.38 632.762 778.6V1056.68C632.767 1058.43 632.427 1060.16 631.761 1061.78C631.096 1063.39 630.117 1064.86 628.883 1066.1C627.648 1067.34 626.181 1068.32 624.566 1068.99C622.951 1069.66 621.22 1070 619.472 1070Z" fill="#D8985D"/>
<path d="M629.052 766.62C628.055 765.394 627.212 764.051 626.542 762.62C624.141 760.738 621.284 759.527 618.262 759.11C616.773 758.879 615.268 758.766 613.762 758.77H380.532C377.02 758.773 373.652 760.166 371.165 762.645C368.679 765.125 367.275 768.488 367.262 772C396.262 782.42 450.552 788.24 500.002 788.24C563.062 788.24 604.382 778.89 629.052 766.62Z" fill="#C6854E"/>
<path d="M610 758.72C700.76 758.72 682 872.96 682.87 1000H632.74" stroke="#592D3D" stroke-width="12" stroke-miterlimit="10" stroke-linecap="square"/>
<path d="M386.118 758.72C295.348 758.72 314.118 872.96 313.248 1000H363.318" stroke="#592D3D" stroke-width="12" stroke-miterlimit="10" stroke-linecap="square"/>
<path d="M380.531 758.82L613.761 758.72" stroke="#592D3D" stroke-width="12" stroke-miterlimit="10"/>
<path d="M380.532 1070H497.152C388.002 1070 396.242 838.82 367.262 838.82V1056.68C367.257 1058.43 367.596 1060.16 368.26 1061.77C368.925 1063.39 369.901 1064.86 371.134 1066.09C372.366 1067.33 373.831 1068.31 375.444 1068.98C377.056 1069.65 378.785 1070 380.532 1070Z" fill="#C6854E"/>
<path d="M361.259 860.85C361.069 857.18 361.149 853.51 361.309 849.85C361.469 846.19 361.779 842.5 362.169 838.85C362.369 837.01 362.569 835.18 362.819 833.34C363.069 831.5 363.309 829.67 363.669 827.83C364.378 824.022 365.585 820.323 367.259 816.83C368.933 820.323 370.14 824.022 370.849 827.83C371.209 829.67 371.469 831.5 371.699 833.34C371.929 835.18 372.149 837.01 372.349 838.85C372.729 842.52 373.029 846.19 373.199 849.85C373.369 853.51 373.449 857.19 373.259 860.85H361.259Z" fill="#592D3D"/>
<path d="M632.742 870V878C633.002 912 633.002 947 632.742 980.75C632.742 983.62 632.742 986.47 632.742 989.28V1056.69C632.746 1058.44 632.405 1060.16 631.74 1061.78C631.075 1063.39 630.099 1064.86 628.866 1066.1C627.634 1067.33 626.17 1068.31 624.558 1068.98C622.946 1069.65 621.217 1070 619.472 1070H380.532C377.011 1070 373.636 1068.6 371.148 1066.11C368.659 1063.62 367.262 1060.24 367.262 1056.72V998.52C367.262 996.01 367.262 993.45 367.262 990.87C367.012 956 367.012 921 367.262 885.57V860.85" stroke="#592D3D" stroke-width="12" stroke-miterlimit="10"/>
<path d="M626.74 870C626.55 865.83 626.64 861.65 626.8 857.47C626.96 853.29 627.27 849.12 627.65 844.94C627.85 842.85 628.06 840.76 628.3 838.67C628.54 836.58 628.79 834.5 629.15 832.41C629.847 828.106 631.052 823.9 632.74 819.88C634.428 823.9 635.633 828.106 636.33 832.41C636.69 834.5 636.95 836.59 637.18 838.67C637.41 840.75 637.63 842.85 637.83 844.94C638.21 849.12 638.52 853.29 638.68 857.47C638.84 861.65 638.93 865.83 638.74 870H626.74Z" fill="#592D3D"/>
<path d="M570.68 842.45C570.9 833 582.9 829 588.9 835C589.875 835.995 590.644 837.173 591.164 838.466C591.684 839.759 591.944 841.141 591.93 842.535C591.915 843.928 591.627 845.305 591.08 846.587C590.534 847.868 589.74 849.03 588.745 850.005C587.749 850.98 586.572 851.75 585.279 852.269C583.986 852.789 582.603 853.05 581.21 853.035C579.817 853.021 578.44 852.732 577.158 852.186C575.876 851.639 574.715 850.845 573.74 849.85C572.766 848.88 571.994 847.726 571.469 846.456C570.944 845.186 570.675 843.824 570.68 842.45Z" fill="#592D3D"/>
<path d="M408.109 842.15C407.899 834 416.899 830 422.899 833C430.899 836 430.899 847 422.899 852C418.899 854 414.899 852 411.149 849.52C410.182 848.552 409.416 847.403 408.894 846.138C408.372 844.873 408.106 843.518 408.109 842.15Z" fill="#592D3D"/>
<path d="M500 831.77C500.715 833.655 501.218 835.614 501.5 837.61C501.797 839.543 501.961 841.494 501.99 843.45L502.29 855.14C502.38 859.03 502.5 862.93 502.54 866.83L502.71 878.5C502.94 894.07 502.93 909.66 502.99 925.24C503.05 940.82 503.17 956.4 502.99 971.98C502.9 979.77 502.69 987.56 502.46 995.35C502.36 999.24 502.17 1003.14 501.79 1007.03C501.45 1010.96 500.859 1014.87 500.02 1018.72C499.181 1014.87 498.59 1010.96 498.25 1007.03C497.87 1003.14 497.68 999.24 497.58 995.35C497.35 987.56 497.14 979.77 497.05 971.98C496.85 956.4 497.05 940.82 497.05 925.24C497.05 909.66 497.05 894.09 497.23 878.51L497.4 866.81L497.73 855.13L498.06 843.45C498.097 841.494 498.264 839.543 498.56 837.61C498.822 835.616 499.305 833.657 500 831.77Z" fill="#C6854E"/>
<path d="M425.219 883C426.702 882.295 428.272 881.791 429.889 881.5C431.433 881.21 432.998 881.043 434.569 881L443.919 880.67L462.619 880.26C475.079 880.07 487.529 880.02 499.999 879.99C512.469 879.96 524.929 879.83 537.389 879.99C543.619 880.08 549.849 880.29 556.089 880.52C559.199 880.63 562.319 880.82 565.429 881.19C568.587 881.54 571.713 882.135 574.779 882.97C571.715 883.81 568.588 884.402 565.429 884.74C562.319 885.12 559.199 885.31 556.089 885.41C549.849 885.64 543.619 885.84 537.389 885.93C524.929 886.12 512.469 885.93 499.999 885.93C487.529 885.93 475.069 885.93 462.599 885.78C456.369 885.72 450.139 885.52 443.919 885.28L434.569 884.94C433.001 884.898 431.44 884.731 429.899 884.44C428.282 884.17 426.708 883.686 425.219 883Z" fill="#C6854E"/>
<path d="M442.41 914.38C443.591 913.817 444.853 913.442 446.15 913.27C447.349 913.101 448.561 913.05 449.77 913.12C452.16 913.22 454.55 913.28 456.94 913.33C461.72 913.44 466.5 913.48 471.28 913.5C480.91 913.5 490.37 913.58 500.04 913.29C509.71 913 519.3 912.86 528.92 912.9C533.73 912.9 538.54 913.03 543.34 913.14C545.757 913.172 548.17 913.329 550.57 913.61C553.037 913.882 555.472 914.395 557.84 915.14C555.528 916.048 553.129 916.718 550.68 917.14C548.296 917.569 545.888 917.857 543.47 918C538.65 918.35 533.83 918.65 529.02 918.82C519.38 919.18 509.75 919.14 500.14 919.27C495.33 919.27 490.53 919.49 485.66 919.37C480.79 919.25 475.97 919.24 471.14 919.06C466.31 918.88 461.46 918.48 456.64 917.98C454.22 917.71 451.82 917.41 449.41 917.08C448.193 916.931 446.996 916.649 445.84 916.24C444.599 915.82 443.439 915.191 442.41 914.38Z" fill="#C6854E"/>
<path d="M438.93 949.87C440.116 949.172 441.405 948.666 442.75 948.37C444.003 948.079 445.283 947.914 446.57 947.88L454.2 947.56C459.29 947.38 464.39 947.23 469.48 947.15C479.66 947 489.84 947 500 947C510.16 947 520.36 946.83 530.54 947C535.63 947.09 540.72 947.3 545.81 947.53C548.363 947.616 550.91 947.836 553.44 948.19C556.045 948.547 558.61 949.154 561.1 950C558.618 950.831 556.063 951.423 553.47 951.77C550.937 952.132 548.387 952.356 545.83 952.44C540.74 952.67 535.65 952.88 530.56 952.97C520.38 953.17 510.19 953.03 500.01 952.97C489.83 952.91 479.65 952.91 469.47 952.72C464.38 952.62 459.28 952.44 454.19 952.23L446.56 951.86C445.273 951.821 443.993 951.653 442.74 951.36C441.398 951.07 440.112 950.567 438.93 949.87Z" fill="#C6854E"/>
<path d="M677.8 906.35C678.01 869.24 676.59 836.28 670.07 810.96C660 785.6 641.89 770.48 610 770.48L632.79 905C632.79 905 655.31 915.24 677.8 906.35Z" fill="#C6854E"/>
<path d="M686.411 895.79C685.27 896.732 684.029 897.547 682.711 898.22" stroke="#592D3D" stroke-width="12" stroke-miterlimit="10" stroke-linecap="square"/>
<path d="M326.109 809.88C319.279 835.45 318.109 869.01 318.369 906.88C338.269 915.42 368.789 904.73 368.789 904.73L386.119 772.49C355.249 772.46 336.849 786.36 326.109 809.88Z" fill="#C6854E"/>
<path d="M613.762 758.72H559.552V758.82C559.553 763.322 559.07 767.811 558.112 772.21C557.646 774.35 557.065 776.463 556.372 778.54C554.159 784.744 550.763 790.46 546.372 795.37C544.97 796.943 543.467 798.423 541.872 799.8C516.702 818 476.702 819 452.392 799.22C449.773 796.932 447.391 794.386 445.282 791.62C440.903 785.87 437.801 779.253 436.182 772.21C435.708 770.034 435.351 767.834 435.112 765.62C434.862 763.362 434.738 761.092 434.742 758.82V758.72H380.532C377.011 758.723 373.636 760.123 371.148 762.613C368.66 765.103 367.262 768.48 367.262 772V1056.68C367.257 1058.43 367.596 1060.16 368.26 1061.77C368.925 1063.39 369.901 1064.86 371.134 1066.09C372.366 1067.33 373.831 1068.31 375.444 1068.98C377.056 1069.65 378.785 1070 380.532 1070H619.472C622.992 1070 626.367 1068.6 628.856 1066.11C631.344 1063.62 632.742 1060.24 632.742 1056.72V778.6C632.742 766.38 626.852 758.72 613.762 758.72Z" fill="#85C5E5"/>
<path d="M610 758.72C673.54 758.72 683.4 814.72 683.9 891.89C665.3 903.51 634.99 893.2 634.99 893.2L610 758.72Z" fill="#85C5E5"/>
<path d="M632.74 831.87L610 870L621.38 1000H632.99V894.35L650.27 897.24C644.6 825.07 632.74 831.87 632.74 831.87Z" fill="#67B7D6"/>
<path d="M386.12 758.72C324.34 758.72 310.29 812.52 309.27 886.38C328.27 906.24 367.27 890.96 367.27 890.96L386.12 758.72Z" fill="#85C5E5"/>
<path d="M367.232 831.87V891L349.922 895.31C355.592 825.19 367.232 831.87 367.232 831.87Z" fill="#67B7D6"/>
<path d="M610 758.72C677.41 758.72 688.45 815.01 688.9 892.5C662.7 904.93 634.99 893.2 634.99 893.2" stroke="#592D3D" stroke-width="12" stroke-miterlimit="10" stroke-linecap="square"/>
<path d="M386.119 758.72C319.329 758.72 306.039 813.42 305.359 889.44C325.999 904.22 367.219 891 367.219 891" stroke="#592D3D" stroke-width="12" stroke-miterlimit="10" stroke-linecap="square"/>
<path d="M380.532 1070H497.152C388.002 1070 396.242 838.82 367.262 838.82V1056.68C367.257 1058.43 367.596 1060.16 368.26 1061.77C368.925 1063.39 369.901 1064.86 371.134 1066.09C372.366 1067.33 373.831 1068.31 375.444 1068.98C377.056 1069.65 378.785 1070 380.532 1070Z" fill="#67B7D6"/>
<path d="M361.259 860.85C361.069 857.18 361.149 853.51 361.309 849.85C361.469 846.19 361.779 842.5 362.169 838.85C362.369 837.01 362.569 835.18 362.819 833.34C363.069 831.5 363.309 829.67 363.669 827.83C364.378 824.022 365.585 820.323 367.259 816.83C368.934 820.322 370.138 824.021 370.839 827.83C371.209 829.67 371.469 831.5 371.699 833.34C371.929 835.18 372.149 837.01 372.349 838.85C372.729 842.52 373.029 846.19 373.199 849.85C373.369 853.51 373.449 857.19 373.259 860.85H361.259Z" fill="#592D3D"/>
<path d="M632.742 870V878C633.002 912 633.002 947 632.742 980.75C632.742 983.62 632.742 986.47 632.742 989.28V1056.69C632.746 1058.44 632.405 1060.16 631.74 1061.78C631.075 1063.39 630.099 1064.86 628.866 1066.1C627.634 1067.33 626.17 1068.31 624.558 1068.98C622.946 1069.65 621.217 1070 619.472 1070H380.532C377.011 1070 373.636 1068.6 371.148 1066.11C368.659 1063.62 367.262 1060.24 367.262 1056.72V998.52C367.262 996.01 367.262 993.45 367.262 990.87C367.012 956 367.012 921 367.262 885.57V860.85" stroke="#592D3D" stroke-width="12" stroke-miterlimit="10"/>
<path d="M626.74 870C626.55 865.83 626.64 861.65 626.8 857.47C626.96 853.29 627.27 849.12 627.65 844.94C627.85 842.85 628.06 840.76 628.3 838.67C628.54 836.58 628.79 834.5 629.16 832.41C629.848 828.105 631.05 823.899 632.74 819.88C634.428 823.9 635.633 828.106 636.33 832.41C636.69 834.5 636.95 836.59 637.18 838.67C637.41 840.75 637.63 842.85 637.83 844.94C638.21 849.12 638.52 853.29 638.68 857.47C638.84 861.65 638.93 865.83 638.74 870H626.74Z" fill="#592D3D"/>
<path d="M380.531 758.82L613.761 758.72" stroke="#592D3D" stroke-width="12" stroke-miterlimit="10"/>
<path d="M559.548 758.82C559.55 763.322 559.067 767.811 558.108 772.21C557.643 774.35 557.062 776.463 556.368 778.54C554.156 784.744 550.76 790.46 546.368 795.37C544.967 796.943 543.464 798.423 541.868 799.8C516.698 818 476.698 819 452.388 799.22C449.769 796.932 447.387 794.386 445.278 791.62C440.9 785.87 437.798 779.253 436.178 772.21C435.704 770.034 435.347 767.834 435.108 765.62C434.858 763.362 434.735 761.092 434.738 758.82" stroke="#592D3D" stroke-width="12" stroke-miterlimit="10"/>
<path d="M503.399 828.39C497.35 829.607 491.161 829.977 485.009 829.49C478.802 829.054 472.681 827.789 466.809 825.73C460.902 823.705 455.338 820.792 450.309 817.09L448.449 815.68C447.839 815.2 447.249 814.68 446.659 814.16C445.471 813.149 444.358 812.052 443.329 810.88C441.276 808.573 439.473 806.056 437.949 803.37C440.089 805.515 442.338 807.548 444.689 809.46C445.269 809.94 445.859 810.41 446.439 810.86C447.019 811.31 447.669 811.68 448.279 812.1C448.889 812.52 449.499 812.94 450.129 813.33L452.039 814.49C457.141 817.512 462.535 820.012 468.139 821.95C473.755 823.914 479.525 825.402 485.389 826.4C491.354 827.376 497.365 828.04 503.399 828.39Z" fill="#592D3D"/>
<path d="M307.828 892.5C308.965 893.537 310.197 894.464 311.508 895.27" stroke="#592D3D" stroke-width="12" stroke-miterlimit="10" stroke-linecap="square"/>
<path d="M674.699 882.69C672.618 883.935 670.327 884.789 667.939 885.21C665.568 885.676 663.155 885.894 660.739 885.86C658.327 885.813 655.924 885.548 653.559 885.07C652.379 884.86 651.229 884.51 650.069 884.2C648.909 883.89 647.799 883.43 646.699 882.96C647.909 882.96 649.079 883.14 650.259 883.24L653.779 883.53C654.949 883.53 656.109 883.73 657.279 883.74C658.449 883.75 659.599 883.85 660.759 883.86C663.093 883.9 665.426 883.837 667.759 883.67C670.093 883.508 672.412 883.181 674.699 882.69Z" fill="#592D3D"/>
<path d="M341.062 590.04C352.637 590.04 362.022 580.656 362.022 569.08C362.022 557.504 352.637 548.12 341.062 548.12C329.486 548.12 320.102 557.504 320.102 569.08C320.102 580.656 329.486 590.04 341.062 590.04Z" fill="#592D3D"/>
<path d="M340.928 586C342.718 585.9 344.718 585.74 346.628 585.54C348.538 585.34 350.488 585.1 352.418 584.8C354.348 584.5 356.288 584.15 358.228 583.8C360.168 583.45 362.148 583.12 364.228 582.97C362.595 584.227 360.812 585.275 358.918 586.09C357.035 586.877 355.105 587.545 353.138 588.09C351.168 588.665 349.164 589.119 347.138 589.45C345.078 589.81 342.99 589.991 340.898 589.99L340.928 586Z" fill="#592D3D"/>
<path d="M661.769 590.04C673.345 590.04 682.729 580.656 682.729 569.08C682.729 557.504 673.345 548.12 661.769 548.12C650.193 548.12 640.809 557.504 640.809 569.08C640.809 580.656 650.193 590.04 661.769 590.04Z" fill="#592D3D"/>
<path d="M661.77 586C663.57 585.9 665.56 585.74 667.47 585.54C669.38 585.34 671.34 585.1 673.27 584.8C675.2 584.5 677.14 584.15 679.08 583.8C681.02 583.45 683 583.12 685.08 582.97C683.445 584.225 681.662 585.273 679.77 586.09C677.887 586.877 675.957 587.545 673.99 588.09C672.019 588.664 670.016 589.118 667.99 589.45C665.929 589.81 663.842 589.991 661.75 589.99L661.77 586Z" fill="#592D3D"/>
<path d="M443.141 621.86C443.141 602.96 556.861 605.8 556.861 621.86C556.861 636.94 550.87 651.403 540.207 662.066C529.543 672.729 515.081 678.72 500.001 678.72C484.92 678.72 470.458 672.729 459.795 662.066C449.131 651.403 443.141 636.94 443.141 621.86Z" fill="#592D3D"/>
<path d="M495.002 643C478.052 642 463.272 649.75 458.352 661.22C466.532 669.863 477.219 675.72 488.905 677.968C500.591 680.216 512.688 678.741 523.492 673.75C525.738 672.713 527.913 671.527 530.002 670.2C529.082 656.09 514.062 644.18 495.002 643Z" fill="#F28195"/>
<path d="M443.141 621.86C443.141 602.96 556.861 605.8 556.861 621.86C556.861 636.94 550.87 651.403 540.207 662.066C529.543 672.729 515.081 678.72 500.001 678.72C484.92 678.72 470.458 672.729 459.795 662.066C449.131 651.403 443.141 636.94 443.141 621.86Z" stroke="#592D3D" stroke-width="6" stroke-miterlimit="10"/>
<path d="M478.121 632.46C478.571 632.35 478.751 632.3 479.041 632.25L479.791 632.11C480.281 632.02 480.791 631.97 481.251 631.93C482.211 631.832 483.177 631.799 484.141 631.83C486.096 631.873 488.039 632.145 489.931 632.64C493.893 633.643 497.484 635.76 500.281 638.74C502.912 641.57 504.676 645.097 505.361 648.9C505.986 652.408 505.511 656.023 504.001 659.25C501.931 656.32 500.341 653.69 498.681 651.49C497.934 650.435 497.115 649.433 496.231 648.49C495.423 647.662 494.517 646.936 493.531 646.33C491.664 645.212 489.582 644.499 487.421 644.24C486.287 644.094 485.145 644.014 484.001 644C483.411 644 482.821 644 482.241 644.05L481.391 644.11H481.001C480.901 644.11 480.701 644.11 480.771 644.11L478.121 632.46Z" fill="#592D3D"/>
<path d="M558.418 406.88C545.548 430.88 498.418 444.33 494.588 438.3C490.288 431.57 532.438 382.98 508.488 332.16" fill="#C6854E"/>
<path d="M500.15 221.81C369 221.81 247.79 328.25 226 457C226 457 427.33 472.23 500.66 390.25C496.01 412.9 482.94 430.12 485.15 433.58C488.23 438.42 526.07 427.66 536.4 408.36L532.74 402.88C582.65 421 680.23 443.46 746 375.26C702.52 285 604.61 221.81 500.15 221.81Z" fill="#FEDC58"/>
<path d="M331.521 454.81C325.085 447.858 320.709 439.254 318.881 429.958C317.053 420.662 317.846 411.041 321.171 402.17C314.136 401.707 307.273 399.793 301.014 396.55C294.754 393.306 289.233 388.803 284.797 383.323C280.361 377.843 277.107 371.505 275.239 364.706C273.371 357.908 272.929 350.797 273.941 343.82C249.851 377.51 232.941 416.12 225.941 457C261.138 459.044 296.44 458.312 331.521 454.81Z" fill="#EDBF2E"/>
<path d="M739.659 389.6C664.999 447 579.069 424.7 533.509 405.69C523.369 423.63 488.249 433.58 485.359 429.05C483.359 425.97 494.179 411.4 499.139 391.89C424.859 472.16 239.289 463.89 239.289 463.89" stroke="#592D3D" stroke-width="12" stroke-miterlimit="10"/>
<path d="M280.922 140.17C273.906 140.493 267.022 142.192 260.662 145.17C254.649 147.936 249.306 151.972 245.002 157C244.451 157.606 243.94 158.248 243.472 158.92C242.992 159.58 242.472 160.2 242.012 160.92C241.079 162.28 240.224 163.692 239.452 165.15C237.863 168.079 236.557 171.153 235.552 174.33C233.63 181.086 232.856 188.117 233.262 195.13C229.714 188.331 228.372 180.596 229.422 173L229.952 170.14L230.242 168.7C230.352 168.23 230.512 167.77 230.652 167.3C230.932 166.36 231.212 165.42 231.522 164.49C231.832 163.56 232.282 162.69 232.662 161.78C233.462 159.983 234.384 158.242 235.422 156.57C235.932 155.72 236.562 154.96 237.122 154.15C237.681 153.337 238.288 152.559 238.942 151.82C244.075 145.781 250.892 141.408 258.522 139.26C265.879 137.036 273.77 137.357 280.922 140.17Z" fill="white"/>
<path d="M358.881 77.15C352.816 76.944 346.753 77.6177 340.881 79.15C335.374 80.643 330.148 83.0279 325.411 86.21C320.68 89.4301 316.516 93.4144 313.091 98C312.251 99.18 311.291 100.31 310.561 101.58L309.351 103.46C308.921 104.08 308.641 104.76 308.261 105.46C306.718 108.163 305.349 110.962 304.161 113.84C303.737 110.608 303.868 107.327 304.551 104.14C304.721 103.34 304.821 102.51 305.071 101.72L305.811 99.36C306.325 97.775 306.963 96.2334 307.721 94.75C310.743 88.6204 315.323 83.3925 321.001 79.59C326.626 75.8038 333.133 73.5339 339.891 73C346.497 72.4039 353.127 73.8527 358.881 77.15Z" fill="white"/>
<path d="M603.101 452.29C614.145 449.476 625.331 447.253 636.611 445.63L634.001 446C647.172 444.081 660.538 443.919 673.751 445.52L671.091 445.16C674.371 445.61 677.631 446.16 680.911 446.57L678.251 446.22C688.204 447.586 698.054 449.624 707.731 452.32C712.731 453.72 718.841 450.6 720.031 445.32C720.685 442.762 720.321 440.051 719.015 437.757C717.709 435.462 715.564 433.764 713.031 433.02C701.687 429.913 690.129 427.647 678.451 426.24L681.101 426.6C670.073 424.642 658.852 423.988 647.671 424.65C636.545 425.382 625.484 426.899 614.571 429.19C608.961 430.33 603.381 431.63 597.811 433C592.731 434.25 589.201 440.26 590.811 445.3C591.56 447.83 593.259 449.972 595.552 451.277C597.845 452.582 600.554 452.948 603.111 452.3L603.101 452.29Z" fill="#592D3D"/>
<path d="M261.258 502.22L275.388 500.74L309.058 497.22L349.998 492.93L385.178 489.24C390.898 488.65 396.618 488.07 402.338 487.45H402.578C405.308 487.17 407.648 486.53 409.648 484.52C411.523 482.645 412.576 480.102 412.576 477.45C412.576 474.798 411.523 472.255 409.648 470.38C407.818 468.69 405.168 467.18 402.578 467.45L388.448 468.93L354.778 472.46L313.778 476.75L278.598 480.43C272.878 481.03 267.158 481.61 261.438 482.23H261.198C258.468 482.52 256.128 483.16 254.128 485.16C253.198 486.089 252.461 487.192 251.958 488.406C251.454 489.62 251.195 490.921 251.195 492.235C251.195 493.549 251.454 494.85 251.958 496.064C252.461 497.278 253.198 498.381 254.128 499.31C255.958 500.99 258.608 502.51 261.198 502.23L261.258 502.22Z" fill="#592D3D"/>
</g>
</svg>
