<svg width="1000" height="990" viewBox="0 0 1000 990" fill="none" xmlns="http://www.w3.org/2000/svg">
<mask id="mask0_22_2225" style="mask-type:luminance" maskUnits="userSpaceOnUse" x="0" y="0" width="1000" height="966">
<path d="M1000 0H0V718.31H179.2C217.58 860.69 346.65 965.41 500 965.41C653.35 965.41 782.42 860.69 820.8 718.31H1000V0Z" fill="white"/>
</mask>
<g mask="url(#mask0_22_2225)">
<path d="M500.001 962.602C683.603 962.602 832.443 813.763 832.443 630.16C832.443 446.557 683.603 297.718 500.001 297.718C316.398 297.718 167.559 446.557 167.559 630.16C167.559 813.763 316.398 962.602 500.001 962.602Z" fill="#85C5E5"/>
<path d="M610 758.72C700.76 758.72 682 872.96 682.87 1000H610V758.72Z" fill="#FBE8B3"/>
<path d="M632.74 831.87L610 870L621.38 1000H653.14C653.91 819.73 632.74 831.87 632.74 831.87Z" fill="#EDD494"/>
<path d="M233.25 500C233.25 352.68 352.68 233.25 500 233.25C647.32 233.25 766.75 352.68 766.75 500C766.788 539.694 757.949 578.895 740.88 614.731C723.811 650.568 698.945 682.135 668.1 707.12C662.627 711.573 656.98 715.803 651.16 719.81C591 758 515 758 446.39 751.89C439.73 750.89 433.09 749.63 426.5 748.18C400.17 742.38 374.68 733.43 351.13 720.38C345.31 716.793 339.667 712.92 334.2 708.76C328.706 704.576 323.432 700.11 318.4 695.38C313.64 690.96 309.044 686.367 304.61 681.6C258.667 632.299 233.161 567.39 233.25 500Z" fill="#FBE8B3"/>
<path d="M269.612 634.48C270.312 635.68 271.002 636.88 271.722 638.06C272.152 638.78 272.602 639.48 273.052 640.2C273.712 641.27 274.372 642.34 275.052 643.39C275.532 644.15 276.052 644.89 276.512 645.63C277.172 646.63 277.832 647.63 278.512 648.63C279.022 649.39 279.512 650.15 280.072 650.91C280.732 651.91 281.392 652.83 282.072 653.79C282.612 654.56 283.172 655.32 283.722 656.09C284.272 656.86 285.062 657.94 285.722 658.86C286.382 659.78 286.872 660.39 287.452 661.15C288.032 661.91 288.822 662.95 289.522 663.85C290.222 664.75 290.712 665.36 291.312 666.11C291.912 666.86 292.722 667.87 293.432 668.74C294.142 669.61 294.662 670.23 295.282 670.97C295.902 671.71 296.722 672.69 297.452 673.54C298.182 674.39 298.722 675.01 299.362 675.74L301.582 678.24C302.232 678.97 302.892 679.68 303.582 680.4C304.442 681.34 305.312 682.27 306.182 683.19L307.392 684.47C308.682 685.81 309.982 687.15 311.302 688.47L311.562 688.74C312.852 690.02 314.162 691.29 315.472 692.55L317.052 694.05C318.002 694.94 318.952 695.83 319.912 696.71L321.072 697.77C322.072 698.71 323.162 699.63 324.212 700.55C327.478 703.397 330.812 706.127 334.212 708.74C339.672 712.9 345.315 716.773 351.142 720.36C374.692 733.36 400.142 742.36 426.512 748.16C433.102 749.61 439.742 750.86 446.402 751.87C488.502 755.62 533.402 757.05 575.682 748.79C508.452 729 185.592 612.74 388.802 257.48C386.082 258.73 383.402 260.02 380.742 261.36L380.152 261.65C378.932 262.26 377.712 262.89 376.502 263.53L375.502 264.06C371.742 266.06 368.022 268.13 364.372 270.29L363.472 270.82C362.312 271.51 361.162 272.21 360.012 272.92L359.142 273.46C355.568 275.693 352.052 278.003 348.592 280.39L347.512 281.14C346.422 281.9 345.352 282.66 344.282 283.43L343.622 283.9C341.442 285.493 339.288 287.107 337.162 288.74L336.542 289.22C335.542 290 334.542 290.8 333.542 291.61L332.372 292.55C331.372 293.36 330.372 294.17 329.372 295C327.262 296.75 325.182 298.55 323.132 300.37L321.992 301.37L319.302 303.82L318.002 305C315.148 307.667 312.358 310.39 309.632 313.17L308.252 314.58C307.462 315.4 306.672 316.22 305.892 317.05C305.432 317.54 304.972 318.05 304.522 318.53C303.148 319.997 301.795 321.483 300.462 322.99C300.012 323.5 299.552 323.99 299.102 324.53C298.392 325.34 297.692 326.16 296.992 326.98L295.482 328.77C294.802 329.58 294.122 330.39 293.482 331.21C292.942 331.87 292.402 332.54 291.872 333.21C290.802 334.54 289.752 335.87 288.712 337.21C288.172 337.91 287.632 338.61 287.102 339.32C286.572 340.03 285.902 340.91 285.312 341.72C284.722 342.53 284.242 343.17 283.722 343.9C283.202 344.63 282.592 345.45 282.042 346.23C281.095 347.563 280.162 348.913 279.242 350.28C278.742 351.01 278.242 351.76 277.752 352.5C277.262 353.24 276.652 354.16 276.112 355L274.622 357.31L272.942 360.02C272.512 360.71 272.082 361.4 271.662 362.09C270.772 363.55 269.912 365.02 269.052 366.49L267.832 368.65C267.292 369.6 266.752 370.56 266.222 371.52C265.822 372.25 265.422 372.98 265.032 373.71C264.392 374.9 263.762 376.1 263.132 377.3L261.932 379.64C261.292 380.92 260.652 382.19 260.022 383.48C259.692 384.17 259.352 384.87 259.022 385.57C258.502 386.66 258.022 387.76 257.492 388.86C257.182 389.52 256.882 390.18 256.582 390.86C255.842 392.507 255.118 394.173 254.412 395.86C254.192 396.38 253.982 396.91 253.762 397.43C253.232 398.7 252.712 399.97 252.202 401.25C251.932 401.92 251.672 402.59 251.412 403.25C250.912 404.51 250.412 405.78 249.962 407.05C249.752 407.6 249.542 408.15 249.342 408.7C248.715 410.453 248.098 412.207 247.492 413.96L246.932 415.66C246.492 416.993 246.062 418.327 245.642 419.66L245.042 421.57C244.572 423.11 244.112 424.65 243.672 426.2C243.572 426.53 243.472 426.86 243.382 427.2C242.862 429.04 242.362 430.887 241.882 432.74C241.722 433.33 241.582 433.93 241.432 434.52C241.082 435.91 240.742 437.3 240.432 438.7L240.012 440.45C239.582 442.35 239.162 444.25 238.772 446.16L238.622 446.93C238.282 448.63 237.948 450.33 237.622 452.03C237.512 452.64 237.412 453.24 237.302 453.85C237.042 455.34 236.792 456.85 236.562 458.35C236.482 458.86 236.392 459.35 236.322 459.87C236.022 461.82 235.752 463.78 235.492 465.75L235.342 467.05C235.142 468.64 234.962 470.24 234.792 471.84C234.732 472.44 234.662 473.04 234.602 473.65C234.442 475.33 234.292 477.02 234.152 478.71C234.152 479.06 234.092 479.4 234.072 479.71C233.925 481.71 233.795 483.727 233.682 485.76C233.682 486.29 233.682 486.83 233.612 487.36C233.545 488.933 233.485 490.503 233.432 492.07C233.432 492.66 233.432 493.25 233.432 493.84C233.432 495.89 233.352 497.95 233.352 500.01C233.352 500.01 233.352 500.08 233.352 500.11C233.352 502.33 233.352 504.53 233.432 506.73C233.432 507.49 233.492 508.25 233.512 509.01C233.562 510.48 233.612 511.95 233.682 513.42C233.682 514.31 233.792 515.19 233.842 516.08C233.922 517.41 233.992 518.74 234.092 520.08C234.162 521.08 234.252 521.97 234.332 522.91C234.442 524.17 234.542 525.43 234.672 526.68C234.762 527.68 234.882 528.62 234.982 529.59C235.122 530.8 235.252 532.02 235.402 533.23C235.522 534.23 235.662 535.23 235.792 536.18C235.952 537.36 236.112 538.55 236.292 539.73C236.442 540.73 236.602 541.73 236.762 542.73C236.942 543.89 237.132 545.06 237.332 546.22C237.512 547.22 237.692 548.22 237.882 549.22C238.092 550.37 238.312 551.52 238.532 552.66C238.752 553.8 238.942 554.66 239.152 555.66C239.392 556.8 239.632 557.93 239.892 559.06C240.152 560.19 240.332 561.06 240.572 561.99C240.832 563.12 241.112 564.24 241.392 565.35C241.672 566.46 241.882 567.3 242.132 568.26C242.432 569.38 242.732 570.49 243.042 571.6C243.302 572.6 243.572 573.52 243.852 574.47C244.172 575.58 244.502 576.68 244.852 577.78C245.202 578.88 245.432 579.67 245.732 580.62C246.032 581.57 246.432 582.81 246.792 583.9C247.152 584.99 247.412 585.77 247.732 586.7C248.112 587.79 248.492 588.88 248.882 589.97C249.212 590.88 249.532 591.8 249.882 592.71L251.122 595.98C251.472 596.87 251.812 597.77 252.122 598.66C252.562 599.75 253.012 600.85 253.462 601.94C253.822 602.8 254.172 603.67 254.542 604.53C255.012 605.65 255.542 606.75 255.992 607.86C256.362 608.68 256.722 609.51 257.092 610.33C257.612 611.49 258.162 612.63 258.692 613.77L259.772 616.07C260.382 617.33 261.012 618.57 261.642 619.82C261.962 620.45 262.262 621.09 262.592 621.72C264.512 625.46 266.512 629.15 268.592 632.79C268.882 633.26 269.252 633.87 269.612 634.48Z" fill="#EDD494"/>
<path d="M233.25 500C233.25 352.68 352.68 233.25 500 233.25C647.32 233.25 766.75 352.68 766.75 500C766.788 539.694 757.949 578.895 740.88 614.731C723.811 650.568 698.945 682.135 668.1 707.12C662.627 711.573 656.98 715.803 651.16 719.81C591 758 515 758 446.39 751.89C439.73 750.89 433.09 749.63 426.5 748.18C400.17 742.38 374.68 733.43 351.13 720.38C345.31 716.793 339.667 712.92 334.2 708.76C328.706 704.576 323.432 700.11 318.4 695.38C313.64 690.96 309.044 686.367 304.61 681.6C258.667 632.299 233.161 567.39 233.25 500Z" stroke="#592D3D" stroke-width="12" stroke-miterlimit="10"/>
<path d="M386.122 758.72C295.352 758.72 314.122 872.96 313.252 1000H386.122V758.72Z" fill="#FBE8B3"/>
<path d="M367.232 831.87L390.002 870L378.612 1000H346.882C346.072 819.73 367.232 831.87 367.232 831.87Z" fill="#EDD494"/>
<path d="M619.472 1070H380.532C377.011 1070 373.636 1068.6 371.148 1066.11C368.659 1063.62 367.262 1060.24 367.262 1056.72V772C367.262 768.48 368.659 765.103 371.148 762.613C373.636 760.123 377.011 758.723 380.532 758.72H613.762C626.852 758.72 632.762 766.38 632.762 778.6V1056.68C632.767 1058.43 632.427 1060.16 631.761 1061.78C631.096 1063.39 630.117 1064.86 628.883 1066.1C627.648 1067.34 626.181 1068.32 624.566 1068.99C622.951 1069.66 621.22 1070 619.472 1070Z" fill="#FBE8B3"/>
<path d="M629.052 766.62C628.055 765.394 627.212 764.051 626.542 762.62C624.141 760.739 621.284 759.527 618.262 759.11C616.773 758.88 615.268 758.766 613.762 758.77H380.532C377.02 758.773 373.652 760.166 371.165 762.646C368.679 765.125 367.275 768.488 367.262 772C396.262 782.42 450.552 788.24 500.002 788.24C563.062 788.24 604.382 778.89 629.052 766.62Z" fill="#EDD494"/>
<path d="M610 758.72C700.76 758.72 682 872.96 682.87 1000H632.74" stroke="#592D3D" stroke-width="12" stroke-miterlimit="10" stroke-linecap="square"/>
<path d="M386.122 758.72C295.352 758.72 314.122 872.96 313.252 1000H363.322" stroke="#592D3D" stroke-width="12" stroke-miterlimit="10" stroke-linecap="square"/>
<path d="M380.531 758.82L613.761 758.72" stroke="#592D3D" stroke-width="12" stroke-miterlimit="10"/>
<path d="M380.532 1070H497.152C388.002 1070 396.242 838.82 367.262 838.82V1056.68C367.257 1058.43 367.596 1060.16 368.26 1061.77C368.925 1063.39 369.901 1064.86 371.134 1066.09C372.366 1067.33 373.831 1068.31 375.444 1068.98C377.056 1069.65 378.785 1070 380.532 1070Z" fill="#EDD494"/>
<path d="M361.259 860.85C361.069 857.18 361.149 853.51 361.309 849.85C361.469 846.19 361.779 842.5 362.169 838.85C362.369 837.01 362.569 835.18 362.819 833.34C363.069 831.5 363.309 829.67 363.669 827.83C364.378 824.022 365.585 820.324 367.259 816.83C368.933 820.324 370.14 824.022 370.849 827.83C371.209 829.67 371.469 831.5 371.699 833.34C371.929 835.18 372.149 837.01 372.349 838.85C372.729 842.52 373.029 846.19 373.199 849.85C373.369 853.51 373.449 857.19 373.259 860.85H361.259Z" fill="#592D3D"/>
<path d="M632.742 870V878C633.002 912 633.002 947 632.742 980.75C632.742 983.62 632.742 986.47 632.742 989.28V1056.69C632.746 1058.44 632.405 1060.17 631.74 1061.78C631.075 1063.39 630.099 1064.86 628.866 1066.1C627.634 1067.33 626.17 1068.31 624.558 1068.98C622.946 1069.65 621.217 1070 619.472 1070H380.532C377.011 1070 373.636 1068.6 371.148 1066.11C368.659 1063.62 367.262 1060.24 367.262 1056.72V998.52C367.262 996.01 367.262 993.45 367.262 990.87C367.012 956 367.012 921 367.262 885.57V860.85" stroke="#592D3D" stroke-width="12" stroke-miterlimit="10"/>
<path d="M626.74 870C626.55 865.83 626.64 861.65 626.8 857.47C626.96 853.29 627.27 849.12 627.65 844.94C627.85 842.85 628.06 840.76 628.3 838.67C628.54 836.58 628.79 834.5 629.15 832.41C629.847 828.106 631.052 823.9 632.74 819.88C634.428 823.9 635.633 828.106 636.33 832.41C636.69 834.5 636.95 836.59 637.18 838.67C637.41 840.75 637.63 842.85 637.83 844.94C638.21 849.12 638.52 853.29 638.68 857.47C638.84 861.65 638.93 865.83 638.74 870H626.74Z" fill="#592D3D"/>
<path d="M502.069 878.86C502.067 889.337 499.69 899.678 495.117 909.104C490.543 918.53 483.892 926.797 475.663 933.282C467.435 939.768 457.843 944.303 447.609 946.548C437.375 948.793 426.765 948.688 416.578 946.242C406.39 943.796 396.89 939.072 388.79 932.426C380.691 925.779 374.204 917.383 369.818 907.869C365.431 898.354 363.258 887.969 363.462 877.494C363.667 867.019 366.244 856.726 370.999 847.39" stroke="#592D3D" stroke-width="12" stroke-miterlimit="10"/>
<path d="M371 847.39C374.787 839.991 379.867 833.33 386 827.72Z" fill="#FBE8B3"/>
<path d="M365.652 844.66C366.53 842.58 367.666 840.618 369.032 838.82C370.388 837.02 371.904 835.346 373.562 833.82C374.402 833.06 375.252 832.32 376.142 831.63C377.026 830.915 377.966 830.273 378.952 829.71C381.086 828.479 383.49 827.792 385.952 827.71C385.693 830.051 385.104 832.344 384.202 834.52C383.812 835.52 383.372 836.4 382.912 837.29L381.612 839.96C380.762 841.72 379.922 843.45 379.062 845.15C378.23 846.864 377.309 848.533 376.302 850.15L365.652 844.66Z" fill="#592D3D"/>
<path d="M489.332 838.82C497.63 850.507 502.083 864.487 502.072 878.82Z" fill="#FBE8B3"/>
<path d="M489.332 838.82C492.746 840.671 495.712 843.248 498.022 846.37C499.172 847.888 500.208 849.489 501.122 851.16C502.052 852.83 502.892 854.55 503.672 856.31C505.207 859.846 506.366 863.533 507.132 867.31C507.909 871.101 508.225 874.973 508.072 878.84H496.072C495.882 875.59 495.712 872.36 495.372 869.11C495.032 865.86 494.602 862.63 493.972 859.37L493.472 856.93L492.892 854.48C492.472 852.85 492.022 851.22 491.602 849.55C490.657 846.016 489.9 842.434 489.332 838.82Z" fill="#592D3D"/>
<path d="M641.651 878.86C641.662 869.372 639.719 859.983 635.945 851.278C632.17 842.572 626.644 834.737 619.711 828.26" fill="#FBE8B3"/>
<path d="M635.651 878.86C635.49 874.552 635.07 870.257 634.391 866C633.689 861.7 632.646 857.464 631.271 853.33C630.931 852.33 630.531 851.26 630.161 850.22C629.791 849.18 629.321 848.17 628.911 847.13C628.501 846.09 627.971 845.13 627.531 844.08L626.071 841.08C624.071 836.98 621.901 832.89 619.711 828.33C624.345 830.307 628.51 833.241 631.931 836.94C632.761 837.88 633.631 838.8 634.401 839.79C635.171 840.78 635.941 841.79 636.651 842.79C637.361 843.79 638.081 844.88 638.721 845.97C639.361 847.06 640.031 848.15 640.601 849.29C642.981 853.813 644.795 858.613 646.001 863.58C647.233 868.576 647.778 873.717 647.621 878.86H635.651Z" fill="#592D3D"/>
<path d="M503.001 878.86C502.891 888.031 504.602 897.133 508.036 905.638C511.469 914.143 516.557 921.882 523.003 928.407C529.45 934.931 537.127 940.111 545.59 943.647C554.053 947.182 563.134 949.002 572.306 949.002C581.478 949.002 590.559 947.182 599.022 943.647C607.485 940.111 615.163 934.931 621.609 928.407C628.056 921.882 633.143 914.143 636.577 905.638C640.01 897.133 641.721 888.031 641.611 878.86" stroke="#592D3D" stroke-width="12" stroke-miterlimit="10"/>
<path d="M515.769 838.82C507.475 850.508 503.025 864.488 503.039 878.82Z" fill="#FBE8B3"/>
<path d="M515.772 838.82C515.205 842.441 514.448 846.029 513.502 849.57C513.082 851.24 512.632 852.87 512.212 854.5L511.642 856.95L511.142 859.39C510.512 862.65 510.052 865.89 509.732 869.13C509.412 872.37 509.232 875.61 509.042 878.86H497.002C496.84 874.993 497.156 871.12 497.942 867.33C498.703 863.551 499.863 859.864 501.402 856.33C502.172 854.57 503.012 852.85 503.942 851.18C504.86 849.512 505.896 847.911 507.042 846.39C509.364 843.259 512.344 840.675 515.772 838.82Z" fill="#592D3D"/>
<path d="M383.441 837.55V758.72" stroke="#592D3D" stroke-width="12" stroke-miterlimit="10"/>
<path d="M616.461 837.55V758.72" stroke="#592D3D" stroke-width="12" stroke-miterlimit="10"/>
<path d="M470.5 897.78H524.4V917.48C506.66 911.43 488.69 911.58 470.5 917.48V897.78Z" fill="white" stroke="#592D3D" stroke-width="12" stroke-miterlimit="10"/>
<path d="M638.101 878.86C638.126 861.305 631.464 844.399 619.471 831.58C615.251 827.06 575.201 837.77 551.661 858.84C528.551 879.53 508.431 913.33 511.311 917.59C519.607 929.903 531.637 939.226 545.63 944.187C559.624 949.148 574.84 949.485 589.039 945.147C603.238 940.81 615.669 932.028 624.501 920.095C633.334 908.161 638.101 893.707 638.101 878.86Z" fill="white" stroke="#592D3D" stroke-width="12" stroke-miterlimit="10"/>
<path d="M598.112 848.39C591.992 852.06 585.962 855.57 580.112 859.39C574.338 863.08 568.816 867.149 563.582 871.57C558.432 876.03 553.472 880.89 548.582 885.83C543.692 890.77 538.892 895.83 533.832 900.9C536.9 894.462 540.648 888.371 545.012 882.73C549.369 877.001 554.298 871.731 559.722 867C565.241 862.329 571.338 858.387 577.862 855.27C584.289 852.118 591.095 849.805 598.112 848.39Z" fill="white"/>
<path d="M361.902 878.86C361.877 861.305 368.539 844.399 380.532 831.58C384.752 827.06 424.802 837.77 448.342 858.84C471.452 879.53 491.572 913.33 488.692 917.59C480.396 929.903 468.366 939.226 454.373 944.187C440.38 949.148 425.163 949.485 410.964 945.147C396.765 940.81 384.334 932.028 375.502 920.095C366.669 908.161 361.902 893.707 361.902 878.86Z" fill="white" stroke="#592D3D" stroke-width="12" stroke-miterlimit="10"/>
<path d="M455.751 938.92C433.112 938.92 411.4 929.927 395.392 913.919C379.384 897.911 370.391 876.199 370.391 853.56C370.391 850.651 370.537 847.744 370.831 844.85C363.312 858.199 360.428 873.662 362.629 888.823C364.831 903.985 371.993 917.989 382.997 928.648C394.002 939.308 408.227 946.02 423.451 947.738C438.675 949.455 454.038 946.08 467.141 938.14C463.366 938.653 459.561 938.914 455.751 938.92Z" fill="#E2E2E2"/>
<path d="M361.902 878.86C361.877 861.305 368.539 844.399 380.532 831.58C384.752 827.06 424.802 837.77 448.342 858.84C471.452 879.53 491.572 913.33 488.692 917.59C480.396 929.903 468.366 939.226 454.373 944.187C440.38 949.148 425.163 949.485 410.964 945.147C396.765 940.81 384.334 932.028 375.502 920.095C366.669 908.161 361.902 893.707 361.902 878.86Z" stroke="#592D3D" stroke-width="12" stroke-miterlimit="10"/>
<path d="M401.891 848.39C408.907 849.802 415.713 852.111 422.141 855.26C428.666 858.38 434.762 862.325 440.281 867C445.683 871.727 450.592 876.991 454.931 882.71C459.295 888.351 463.043 894.442 466.111 900.88C461.051 895.88 456.271 890.75 451.361 885.81C446.451 880.87 441.521 876.01 436.361 871.55C431.126 867.129 425.604 863.06 419.831 859.37C414.001 855.57 408.001 852.06 401.891 848.39Z" fill="white"/>
<path d="M677.8 906.35C678.01 869.24 676.59 836.28 670.07 810.96C660 785.6 641.89 770.48 610 770.48L632.79 905C632.79 905 655.31 915.24 677.8 906.35Z" fill="#EDD494"/>
<path d="M686.411 895.79C685.27 896.732 684.029 897.547 682.711 898.22" stroke="#592D3D" stroke-width="12" stroke-miterlimit="10" stroke-linecap="square"/>
<path d="M326.109 809.88C319.279 835.45 318.109 869.01 318.369 906.88C338.269 915.42 368.789 904.73 368.789 904.73L386.119 772.49C355.249 772.46 336.849 786.36 326.109 809.88Z" fill="#EDD494"/>
<path d="M613.762 758.72H559.552V758.82C559.553 763.322 559.07 767.811 558.112 772.21C557.646 774.35 557.065 776.463 556.372 778.54C554.159 784.744 550.763 790.46 546.372 795.37C544.97 796.943 543.467 798.423 541.872 799.8C516.702 818 476.702 819 452.392 799.22C449.773 796.932 447.391 794.386 445.282 791.62C440.903 785.87 437.801 779.253 436.182 772.21C435.708 770.034 435.351 767.834 435.112 765.62C434.862 763.362 434.738 761.092 434.742 758.82V758.72H380.532C377.011 758.723 373.636 760.123 371.148 762.613C368.66 765.103 367.262 768.48 367.262 772V1056.68C367.257 1058.43 367.596 1060.16 368.26 1061.77C368.925 1063.39 369.901 1064.86 371.134 1066.09C372.366 1067.33 373.831 1068.31 375.444 1068.98C377.056 1069.65 378.785 1070 380.532 1070H619.472C622.992 1070 626.367 1068.6 628.856 1066.11C631.344 1063.62 632.742 1060.24 632.742 1056.72V778.6C632.742 766.38 626.852 758.72 613.762 758.72Z" fill="white"/>
<path d="M610 758.72C673.54 758.72 683.4 814.72 683.9 891.89C665.3 903.51 634.99 893.2 634.99 893.2L610 758.72Z" fill="white"/>
<path d="M632.74 831.87L610 870L621.38 1000H632.99V894.35L650.27 897.24C644.6 825.07 632.74 831.87 632.74 831.87Z" fill="#E2E2E2"/>
<path d="M386.12 758.72C324.34 758.72 310.29 812.52 309.27 886.38C328.27 906.24 367.27 890.96 367.27 890.96L386.12 758.72Z" fill="white"/>
<path d="M367.232 831.87V891L349.922 895.31C355.592 825.19 367.232 831.87 367.232 831.87Z" fill="#E2E2E2"/>
<path d="M610 758.72C677.41 758.72 688.45 815.01 688.9 892.5C662.7 904.93 634.99 893.2 634.99 893.2" stroke="#592D3D" stroke-width="12" stroke-miterlimit="10" stroke-linecap="square"/>
<path d="M386.119 758.72C319.329 758.72 306.039 813.42 305.359 889.44C325.999 904.22 367.219 891 367.219 891" stroke="#592D3D" stroke-width="12" stroke-miterlimit="10" stroke-linecap="square"/>
<path d="M380.532 1070H497.152C388.002 1070 396.242 838.82 367.262 838.82V1056.68C367.257 1058.43 367.596 1060.16 368.26 1061.77C368.925 1063.39 369.901 1064.86 371.134 1066.09C372.366 1067.33 373.831 1068.31 375.444 1068.98C377.056 1069.65 378.785 1070 380.532 1070Z" fill="#E2E2E2"/>
<path d="M361.259 860.85C361.069 857.18 361.149 853.51 361.309 849.85C361.469 846.19 361.779 842.5 362.169 838.85C362.369 837.01 362.569 835.18 362.819 833.34C363.069 831.5 363.309 829.67 363.669 827.83C364.378 824.022 365.585 820.324 367.259 816.83C368.934 820.322 370.138 824.021 370.839 827.83C371.209 829.67 371.469 831.5 371.699 833.34C371.929 835.18 372.149 837.01 372.349 838.85C372.729 842.52 373.029 846.19 373.199 849.85C373.369 853.51 373.449 857.19 373.259 860.85H361.259Z" fill="#592D3D"/>
<path d="M632.742 870V878C633.002 912 633.002 947 632.742 980.75C632.742 983.62 632.742 986.47 632.742 989.28V1056.69C632.746 1058.44 632.405 1060.17 631.74 1061.78C631.075 1063.39 630.099 1064.86 628.866 1066.1C627.634 1067.33 626.17 1068.31 624.558 1068.98C622.946 1069.65 621.217 1070 619.472 1070H380.532C377.011 1070 373.636 1068.6 371.148 1066.11C368.659 1063.62 367.262 1060.24 367.262 1056.72V998.52C367.262 996.01 367.262 993.45 367.262 990.87C367.012 956 367.012 921 367.262 885.57V860.85" stroke="#592D3D" stroke-width="12" stroke-miterlimit="10"/>
<path d="M626.74 870C626.55 865.83 626.64 861.65 626.8 857.47C626.96 853.29 627.27 849.12 627.65 844.94C627.85 842.85 628.06 840.76 628.3 838.67C628.54 836.58 628.79 834.5 629.16 832.41C629.848 828.105 631.05 823.898 632.74 819.88C634.428 823.9 635.633 828.106 636.33 832.41C636.69 834.5 636.95 836.59 637.18 838.67C637.41 840.75 637.63 842.85 637.83 844.94C638.21 849.12 638.52 853.29 638.68 857.47C638.84 861.65 638.93 865.83 638.74 870H626.74Z" fill="#592D3D"/>
<path d="M380.531 758.82L613.761 758.72" stroke="#592D3D" stroke-width="12" stroke-miterlimit="10"/>
<path d="M559.552 758.82C559.554 763.322 559.071 767.811 558.112 772.21C557.646 774.35 557.066 776.463 556.372 778.54C554.16 784.744 550.764 790.46 546.372 795.37C544.971 796.943 543.467 798.423 541.872 799.8C516.702 818 476.702 819 452.392 799.22C449.773 796.932 447.391 794.386 445.282 791.62C440.904 785.87 437.802 779.253 436.182 772.21C435.708 770.034 435.351 767.834 435.112 765.62C434.862 763.362 434.739 761.092 434.742 758.82" stroke="#592D3D" stroke-width="12" stroke-miterlimit="10"/>
<path d="M503.399 828.39C497.35 829.607 491.161 829.977 485.009 829.49C478.802 829.054 472.681 827.789 466.809 825.73C460.902 823.705 455.338 820.792 450.309 817.09L448.449 815.68C447.839 815.2 447.249 814.68 446.659 814.16C445.471 813.149 444.358 812.053 443.329 810.88C441.276 808.573 439.473 806.056 437.949 803.37C440.089 805.516 442.338 807.548 444.689 809.46C445.269 809.94 445.859 810.41 446.439 810.86C447.019 811.31 447.669 811.68 448.279 812.1C448.889 812.52 449.499 812.94 450.129 813.33L452.039 814.49C457.141 817.513 462.535 820.012 468.139 821.95C473.755 823.914 479.525 825.402 485.389 826.4C491.354 827.376 497.365 828.041 503.399 828.39Z" fill="#592D3D"/>
<path d="M307.832 892.5C308.969 893.537 310.201 894.464 311.512 895.27" stroke="#592D3D" stroke-width="12" stroke-miterlimit="10" stroke-linecap="square"/>
<path d="M674.699 882.69C672.618 883.935 670.327 884.789 667.939 885.21C665.568 885.676 663.155 885.894 660.739 885.86C658.327 885.813 655.924 885.548 653.559 885.07C652.379 884.86 651.229 884.51 650.069 884.2C648.909 883.89 647.799 883.43 646.699 882.96C647.909 882.96 649.079 883.14 650.259 883.24L653.779 883.53C654.949 883.53 656.109 883.73 657.279 883.74C658.449 883.75 659.599 883.85 660.759 883.86C663.093 883.9 665.426 883.837 667.759 883.67C670.093 883.508 672.412 883.181 674.699 882.69Z" fill="#592D3D"/>
<path d="M500 860.85C488.317 860.85 476.896 864.315 467.182 870.805C457.468 877.296 449.897 886.521 445.426 897.315C440.955 908.109 439.785 919.986 442.065 931.444C444.344 942.903 449.97 953.428 458.231 961.689C466.492 969.95 477.017 975.576 488.476 977.855C499.934 980.134 511.811 978.965 522.605 974.494C533.398 970.023 542.624 962.452 549.115 952.738C555.605 943.024 559.07 931.603 559.07 919.92C559.025 904.268 552.787 889.269 541.719 878.201C530.651 867.133 515.652 860.895 500 860.85ZM467.09 952.85C458.545 944.353 453.695 932.83 453.59 920.78L499.59 966.35C487.76 965.91 476 961.69 467.09 952.83V952.85ZM510.09 965.08L454.86 909.8C456.796 901.099 461.2 893.14 467.544 886.877C473.887 880.614 481.901 876.313 490.626 874.487C499.352 872.662 508.418 873.39 516.74 876.585C525.062 879.779 532.287 885.305 537.55 892.5L531.22 898C527.627 893.08 522.932 889.07 517.51 886.292C512.089 883.513 506.092 882.043 500 882C492.152 882.046 484.507 884.497 478.095 889.023C471.683 893.549 466.812 899.931 464.14 907.31L512.66 955.83C518.712 953.681 524.126 950.043 528.403 945.251C532.679 940.459 535.68 934.667 537.13 928.41H516.88V919.97H546.41C546.341 930.478 542.718 940.653 536.131 948.84C529.543 957.027 520.379 962.744 510.13 965.06L510.09 965.08Z" stroke="white" stroke-width="16"/>
<path d="M500 860.85C488.317 860.85 476.896 864.315 467.182 870.805C457.468 877.296 449.897 886.521 445.426 897.315C440.955 908.109 439.785 919.986 442.065 931.444C444.344 942.903 449.97 953.428 458.231 961.689C466.492 969.95 477.017 975.576 488.476 977.855C499.934 980.134 511.811 978.965 522.605 974.494C533.398 970.023 542.624 962.452 549.115 952.738C555.605 943.024 559.07 931.603 559.07 919.92C559.025 904.268 552.787 889.269 541.719 878.201C530.651 867.133 515.652 860.895 500 860.85ZM467.09 952.85C458.545 944.353 453.695 932.83 453.59 920.78L499.59 966.35C487.76 965.91 476 961.69 467.09 952.83V952.85ZM510.09 965.08L454.86 909.8C456.796 901.099 461.2 893.14 467.544 886.877C473.887 880.614 481.901 876.313 490.626 874.487C499.352 872.662 508.418 873.39 516.74 876.585C525.062 879.779 532.287 885.305 537.55 892.5L531.22 898C527.627 893.08 522.932 889.07 517.51 886.292C512.089 883.513 506.092 882.043 500 882C492.152 882.046 484.507 884.497 478.095 889.023C471.683 893.549 466.812 899.931 464.14 907.31L512.66 955.83C518.712 953.681 524.126 950.043 528.403 945.251C532.679 940.459 535.68 934.667 537.13 928.41H516.88V919.97H546.41C546.341 930.478 542.718 940.653 536.131 948.84C529.543 957.027 520.379 962.744 510.13 965.06L510.09 965.08Z" fill="#663795"/>
<path opacity="0.1" d="M426.882 961.63C441.357 961.628 455.469 957.095 467.238 948.666C479.006 940.236 487.841 928.335 492.502 914.63C486.585 924.75 478.255 933.248 468.254 939.365C458.254 945.482 446.894 949.028 435.19 949.686C423.485 950.343 411.8 948.092 401.177 943.134C390.554 938.176 381.324 930.664 374.312 921.27L374.262 936C387.002 951.63 405.152 961.63 426.882 961.63Z" fill="black"/>
<path opacity="0.1" d="M573.12 961.63C558.644 961.628 544.532 957.095 532.764 948.666C520.995 940.236 512.161 928.335 507.5 914.63C513.416 924.75 521.747 933.248 531.747 939.365C541.748 945.482 553.108 949.028 564.812 949.686C576.517 950.343 588.202 948.092 598.825 943.134C609.448 938.176 618.677 930.664 625.69 921.27V935.99C613 951.63 594.85 961.63 573.12 961.63Z" fill="black"/>
<path d="M407.002 943.81C396.331 939.827 386.805 933.277 379.267 924.737C371.73 916.198 366.412 905.933 363.784 894.85C361.156 883.767 361.3 872.208 364.202 861.194C367.104 850.179 372.674 840.05 380.422 831.7" fill="white"/>
<path d="M406.999 943.81C395.176 941.88 384.258 936.283 375.789 927.81L374.169 926.21C373.639 925.67 373.169 925.08 372.639 924.52C372.109 923.96 371.639 923.37 371.159 922.79C370.652 922.219 370.174 921.621 369.729 921C368.829 919.77 367.919 918.54 367.049 917.28L364.679 913.35C361.688 907.965 359.431 902.204 357.969 896.22C356.61 890.22 356.042 884.068 356.279 877.92C356.551 871.812 357.696 865.774 359.679 859.99C359.939 859.28 360.169 858.56 360.439 857.85L361.319 855.75C361.869 854.35 362.579 853.01 363.229 851.66C364.619 849.003 366.203 846.453 367.969 844.03C368.819 842.82 369.789 841.68 370.719 840.54C371.649 839.4 372.659 838.31 373.719 837.31C375.786 835.244 378.039 833.373 380.449 831.72C374.659 841.72 370.549 851.91 368.789 862.39C367.874 867.541 367.479 872.77 367.609 878C367.802 883.187 368.471 888.346 369.609 893.41C370.842 898.446 372.556 903.352 374.729 908.06C376.951 912.816 379.659 917.33 382.809 921.53C385.996 925.871 389.618 929.876 393.619 933.48C397.82 937.247 402.292 940.7 406.999 943.81Z" fill="#592D3D"/>
<path d="M593.051 943.81C603.718 939.822 613.239 933.267 620.771 924.725C628.303 916.184 633.615 905.918 636.238 894.836C638.861 883.753 638.713 872.196 635.807 861.184C632.902 850.173 627.329 840.046 619.581 831.7" fill="white"/>
<path d="M593.051 943.81C597.746 940.711 602.209 937.272 606.401 933.52C610.402 929.915 614.024 925.911 617.211 921.57C620.361 917.37 623.069 912.856 625.291 908.1C627.463 903.392 629.178 898.486 630.411 893.45C631.549 888.385 632.218 883.227 632.411 878.04C632.555 872.791 632.17 867.541 631.261 862.37C629.501 851.89 625.391 841.73 619.601 831.7C622.011 833.353 624.264 835.224 626.331 837.29C627.411 838.29 628.331 839.43 629.331 840.52C630.331 841.61 631.231 842.8 632.081 844.01C633.847 846.433 635.431 848.983 636.821 851.64C637.471 852.99 638.181 854.33 638.731 855.73L639.611 857.83C639.881 858.54 640.111 859.26 640.371 859.97C642.354 865.754 643.499 871.792 643.771 877.9C644.008 884.048 643.44 890.2 642.081 896.2C640.619 902.184 638.362 907.945 635.371 913.33L633.001 917.26C632.131 918.52 631.221 919.75 630.321 920.98C629.876 921.601 629.398 922.199 628.891 922.77C628.401 923.35 627.891 923.93 627.411 924.5C626.931 925.07 626.411 925.65 625.881 926.19L624.261 927.79C615.795 936.27 604.877 941.875 593.051 943.81Z" fill="#592D3D"/>
<path opacity="0.15" d="M664.05 702.32C692.36 679.32 718.46 647.6 734.73 616.22C734.67 616.12 731.24 619.6 731.18 619.5C731.12 619.4 710.11 638.28 649.66 638C573.36 637.69 589.12 616.32 497.15 616.32C415.73 616.32 428.66 628.21 352 632.47C289.91 635.92 268.38 619.47 268.38 619.47L268.18 619.8C279.042 640.719 292.686 660.071 308.74 677.33C313.06 681.98 317.6 686.51 322.22 690.81C327.107 695.407 332.231 699.746 337.57 703.81C342.75 707.76 348.24 711.53 353.9 715.02C375.61 727.02 400.38 736.16 427.53 742.15C434.02 743.58 440.53 744.79 446.84 745.75C512.65 751.6 587.92 752.45 647.58 714.63C653.21 710.78 658.75 706.63 664.05 702.32Z" fill="black"/>
<path d="M311.512 663.32C313.821 663.32 315.692 661.449 315.692 659.14C315.692 656.831 313.821 654.96 311.512 654.96C309.204 654.96 307.332 656.831 307.332 659.14C307.332 661.449 309.204 663.32 311.512 663.32Z" fill="#592D3D"/>
<path d="M338.511 666.28C340.146 666.28 341.471 664.955 341.471 663.32C341.471 661.685 340.146 660.36 338.511 660.36C336.876 660.36 335.551 661.685 335.551 663.32C335.551 664.955 336.876 666.28 338.511 666.28Z" fill="#592D3D"/>
<path d="M401.05 710.94C402.685 710.94 404.01 709.615 404.01 707.98C404.01 706.345 402.685 705.02 401.05 705.02C399.415 705.02 398.09 706.345 398.09 707.98C398.09 709.615 399.415 710.94 401.05 710.94Z" fill="#592D3D"/>
<path d="M506.831 714.27C508.466 714.27 509.791 712.945 509.791 711.31C509.791 709.675 508.466 708.35 506.831 708.35C505.196 708.35 503.871 709.675 503.871 711.31C503.871 712.945 505.196 714.27 506.831 714.27Z" fill="#592D3D"/>
<path d="M517.632 707.46C519.267 707.46 520.592 706.135 520.592 704.5C520.592 702.865 519.267 701.54 517.632 701.54C515.997 701.54 514.672 702.865 514.672 704.5C514.672 706.135 515.997 707.46 517.632 707.46Z" fill="#592D3D"/>
<path d="M578.331 704.5C579.966 704.5 581.291 703.175 581.291 701.54C581.291 699.905 579.966 698.58 578.331 698.58C576.696 698.58 575.371 699.905 575.371 701.54C575.371 703.175 576.696 704.5 578.331 704.5Z" fill="#592D3D"/>
<path d="M581.292 686.11C582.927 686.11 584.252 684.785 584.252 683.15C584.252 681.515 582.927 680.19 581.292 680.19C579.657 680.19 578.332 681.515 578.332 683.15C578.332 684.785 579.657 686.11 581.292 686.11Z" fill="#592D3D"/>
<path d="M391.69 696.09C394.656 696.09 397.06 693.686 397.06 690.72C397.06 687.754 394.656 685.35 391.69 685.35C388.725 685.35 386.32 687.754 386.32 690.72C386.32 693.686 388.725 696.09 391.69 696.09Z" fill="#592D3D"/>
<path d="M600.442 709.54C601.596 709.54 602.532 708.604 602.532 707.45C602.532 706.296 601.596 705.36 600.442 705.36C599.287 705.36 598.352 706.296 598.352 707.45C598.352 708.604 599.287 709.54 600.442 709.54Z" fill="#592D3D"/>
<path d="M642.961 700.26C645.27 700.26 647.141 698.388 647.141 696.08C647.141 693.771 645.27 691.9 642.961 691.9C640.653 691.9 638.781 693.771 638.781 696.08C638.781 698.388 640.653 700.26 642.961 700.26Z" fill="#592D3D"/>
<path d="M462.559 728.22C464.867 728.22 466.739 726.348 466.739 724.04C466.739 721.731 464.867 719.86 462.559 719.86C460.25 719.86 458.379 721.731 458.379 724.04C458.379 726.348 460.25 728.22 462.559 728.22Z" fill="#592D3D"/>
<path d="M642.96 666.18C644.595 666.18 645.92 664.855 645.92 663.22C645.92 661.585 644.595 660.26 642.96 660.26C641.325 660.26 640 661.585 640 663.22C640 664.855 641.325 666.18 642.96 666.18Z" fill="#592D3D"/>
<path d="M654.05 676.02C655.685 676.02 657.01 674.695 657.01 673.06C657.01 671.425 655.685 670.1 654.05 670.1C652.415 670.1 651.09 671.425 651.09 673.06C651.09 674.695 652.415 676.02 654.05 676.02Z" fill="#592D3D"/>
<path d="M341.062 590.04C352.637 590.04 362.022 580.656 362.022 569.08C362.022 557.504 352.637 548.12 341.062 548.12C329.486 548.12 320.102 557.504 320.102 569.08C320.102 580.656 329.486 590.04 341.062 590.04Z" fill="#592D3D"/>
<path d="M340.932 586C342.722 585.9 344.722 585.74 346.632 585.54C348.542 585.34 350.492 585.1 352.422 584.8C354.352 584.5 356.292 584.15 358.232 583.8C360.172 583.45 362.152 583.12 364.232 582.97C362.599 584.227 360.815 585.275 358.922 586.09C357.039 586.877 355.109 587.545 353.142 588.09C351.172 588.665 349.168 589.119 347.142 589.45C345.082 589.81 342.994 589.991 340.902 589.99L340.932 586Z" fill="#592D3D"/>
<path d="M661.773 590.04C673.348 590.04 682.732 580.656 682.732 569.08C682.732 557.504 673.348 548.12 661.773 548.12C650.197 548.12 640.812 557.504 640.812 569.08C640.812 580.656 650.197 590.04 661.773 590.04Z" fill="#592D3D"/>
<path d="M661.77 586C663.57 585.9 665.56 585.74 667.47 585.54C669.38 585.34 671.34 585.1 673.27 584.8C675.2 584.5 677.14 584.15 679.08 583.8C681.02 583.45 683 583.12 685.08 582.97C683.445 584.225 681.662 585.273 679.77 586.09C677.887 586.877 675.957 587.545 673.99 588.09C672.019 588.664 670.016 589.118 667.99 589.45C665.929 589.81 663.842 589.991 661.75 589.99L661.77 586Z" fill="#592D3D"/>
<path d="M538.71 665.74C523.16 665.74 513.59 652.98 502.23 652.98C490.87 652.98 476.31 665.74 461 665.74C445.69 665.74 437.27 654.63 437.27 639.23C437.27 622.58 454.02 593.17 499.88 593.17C545.74 593.17 565.27 620.91 565.27 638.63C565.23 655 554.27 665.74 538.71 665.74Z" fill="#592D3D" stroke="#592D3D" stroke-width="12" stroke-miterlimit="10"/>
<path d="M511.139 655.25C506.579 643 490.999 635 473.289 636.57C458.499 637.91 446.359 645.66 441.449 655.67C445.369 661.93 451.959 665.74 460.959 665.74C476.309 665.74 490.859 652.98 502.229 652.98C505.328 653.085 508.368 653.86 511.139 655.25Z" fill="#F28195"/>
<path d="M455.062 628.66L455.932 628.31L456.663 628.06C457.133 627.9 457.603 627.78 458.073 627.66C459.009 627.419 459.962 627.242 460.923 627.13C462.859 626.871 464.82 626.848 466.763 627.06C470.833 627.449 474.705 629.005 477.913 631.54C480.942 633.935 483.217 637.154 484.462 640.81C485.602 644.186 485.672 647.832 484.663 651.25C482.163 648.67 480.203 646.31 478.233 644.37C477.333 643.444 476.371 642.582 475.353 641.79C474.429 641.093 473.421 640.515 472.353 640.07C470.343 639.236 468.177 638.844 466.003 638.92C464.854 638.952 463.709 639.052 462.573 639.22C462.003 639.32 461.413 639.41 460.853 639.53L460.013 639.72L459.622 639.8C459.532 639.8 459.332 639.88 459.402 639.8L455.062 628.66Z" fill="#592D3D"/>
<path d="M407.291 474.84H286.651C281.091 474.84 275.531 474.76 269.971 474.84H269.731C264.501 474.84 259.491 479.44 259.731 484.84C259.775 487.479 260.842 489.997 262.708 491.863C264.574 493.729 267.092 494.796 269.731 494.84H390.371C395.921 494.84 401.491 494.92 407.051 494.84H407.291C412.521 494.84 417.531 490.24 417.291 484.84C417.245 482.202 416.176 479.686 414.311 477.82C412.445 475.955 409.929 474.886 407.291 474.84Z" fill="#592D3D"/>
<path d="M726.322 474.84H605.682C600.122 474.84 594.562 474.76 589.002 474.84H588.762C583.532 474.84 578.522 479.44 578.762 484.84C578.806 487.479 579.874 489.997 581.739 491.863C583.605 493.729 586.124 494.796 588.762 494.84H709.402C714.962 494.84 720.522 494.92 726.082 494.84H726.322C731.552 494.84 736.562 490.24 736.322 484.84C736.276 482.202 735.208 479.686 733.342 477.82C731.477 475.955 728.96 474.886 726.322 474.84Z" fill="#592D3D"/>
<path opacity="0.2" d="M338.9 641.86C390.434 641.86 432.21 600.084 432.21 548.55C432.21 497.016 390.434 455.24 338.9 455.24C287.366 455.24 245.59 497.016 245.59 548.55C245.59 600.084 287.366 641.86 338.9 641.86Z" fill="white"/>
<path opacity="0.15" d="M744.47 606.82C732.351 624.565 714.998 638.089 694.83 645.505C674.662 652.921 652.682 653.861 631.954 648.194C611.226 642.527 592.782 630.535 579.192 613.889C565.603 597.243 557.544 576.773 556.14 555.33C519.14 540.73 481.71 540.86 441.95 555.72C440.105 581.793 428.457 606.2 409.348 624.034C390.24 641.868 365.088 651.806 338.95 651.85C306.47 651.85 262.95 615.35 267.95 623.46C281.95 644.15 314.95 659.91 340.49 659.91C395.04 659.91 438.36 620.62 442.05 566.99C481.81 552.14 519.28 551.99 556.24 566.6C559.74 620.42 604.63 660.13 659.31 660.13C704 660.13 729.4 626 744.47 606.82Z" fill="black"/>
<path opacity="0.4" d="M319.999 648.75L443.069 525.67C440.364 519.571 437.012 513.781 433.069 508.4L302.719 638.76C308.104 642.7 313.897 646.049 319.999 648.75Z" fill="white"/>
<path d="M338.9 641.86C390.434 641.86 432.21 600.084 432.21 548.55C432.21 497.016 390.434 455.24 338.9 455.24C287.366 455.24 245.59 497.016 245.59 548.55C245.59 600.084 287.366 641.86 338.9 641.86Z" stroke="#592D3D" stroke-width="20" stroke-miterlimit="10"/>
<path d="M659.212 641.86C710.746 641.86 752.522 600.084 752.522 548.55C752.522 497.016 710.746 455.24 659.212 455.24C607.679 455.24 565.902 497.016 565.902 548.55C565.902 600.084 607.679 641.86 659.212 641.86Z" stroke="#592D3D" stroke-width="20" stroke-miterlimit="10"/>
<path d="M432.77 548.55C477.97 530.24 522.38 529.55 565.91 548.55" stroke="#592D3D" stroke-width="20" stroke-miterlimit="10"/>
<path d="M314.699 492.5C316.759 499 308.759 504 302.759 505C296.759 505 292.759 501 290.759 496C289.759 491 290.759 486 294.759 483C299.759 481 306.759 479 311.209 484.13C312.32 485.221 313.202 486.524 313.801 487.962C314.401 489.399 314.706 490.943 314.699 492.5Z" fill="white"/>
<path d="M325.372 488.67C324.762 493 318.762 493 317.762 489C317.762 486 318.762 485 321.612 484.9C322.106 484.9 322.596 484.997 323.053 485.187C323.51 485.377 323.925 485.655 324.274 486.005C324.623 486.355 324.9 486.771 325.088 487.228C325.277 487.685 325.373 488.175 325.372 488.67Z" fill="white"/>
<path opacity="0.2" d="M659.212 641.86C710.746 641.86 752.522 600.084 752.522 548.55C752.522 497.016 710.746 455.24 659.212 455.24C607.679 455.24 565.902 497.016 565.902 548.55C565.902 600.084 607.679 641.86 659.212 641.86Z" fill="white"/>
<path opacity="0.4" d="M645.19 640.81L751.47 534.52C750.894 530.735 750.089 526.988 749.06 523.3L634 638.4C637.678 639.429 641.415 640.234 645.19 640.81Z" fill="white"/>
<path d="M659.212 641.86C710.746 641.86 752.522 600.084 752.522 548.55C752.522 497.016 710.746 455.24 659.212 455.24C607.679 455.24 565.902 497.016 565.902 548.55C565.902 600.084 607.679 641.86 659.212 641.86Z" stroke="#592D3D" stroke-width="20" stroke-miterlimit="10"/>
<path d="M635 492.5C637.06 499 629.06 504 623.06 505C617.06 505 613.06 501 611.06 496C610.06 491 611.06 486 615.06 483C620.06 481 627.06 479 631.51 484.13C632.619 485.223 633.499 486.526 634.099 487.963C634.698 489.4 635.004 490.943 635 492.5Z" fill="white"/>
<path d="M645.692 488.67C645.082 493 639.082 493 638.082 489C638.082 486 639.082 485 641.922 484.9C642.922 484.9 643.881 485.297 644.588 486.004C645.295 486.711 645.692 487.67 645.692 488.67Z" fill="white"/>
</g>
</svg>
