<svg width="1000" height="990" viewBox="0 0 1000 990" fill="none" xmlns="http://www.w3.org/2000/svg">
<mask id="mask0_22_516" style="mask-type:luminance" maskUnits="userSpaceOnUse" x="0" y="0" width="1000" height="966">
<path d="M1000 0H0V718.31H179.2C217.58 860.69 346.65 965.41 500 965.41C653.35 965.41 782.42 860.69 820.8 718.31H1000V0Z" fill="white"/>
</mask>
<g mask="url(#mask0_22_516)">
<path d="M500.001 962.602C683.603 962.602 832.443 813.763 832.443 630.16C832.443 446.558 683.603 297.718 500.001 297.718C316.398 297.718 167.559 446.558 167.559 630.16C167.559 813.763 316.398 962.602 500.001 962.602Z" fill="#85C5E5"/>
<path d="M833.149 369C833.21 357.432 829.83 346.106 823.44 336.463C817.049 326.819 807.936 319.293 797.259 314.84C805.239 309.459 811.77 302.194 816.274 293.687C820.777 285.181 823.115 275.695 823.079 266.07C823.079 238.3 804.079 215.07 778.609 209.19C783.544 200.358 786.129 190.407 786.119 180.29C786.119 148.1 760.549 122 728.999 122C720.623 121.994 712.352 123.87 704.799 127.49C705.25 124.538 705.474 121.556 705.469 118.57C705.469 86.3602 679.899 60.2402 648.349 60.2402C639.964 60.2515 631.687 62.1294 624.118 65.7374C616.549 69.3455 609.878 74.5934 604.589 81.1002C602.979 50.3602 578.059 25.9302 547.589 25.9302C537.318 25.964 527.248 28.7772 518.447 34.0713C509.646 39.3653 502.442 46.9429 497.599 56.0002C492.753 46.9435 485.547 39.3668 476.744 34.0729C467.942 28.7791 457.871 25.9654 447.599 25.9302C417.099 25.9302 392.179 50.3602 390.599 81.1002C385.307 74.5942 378.635 69.3471 371.064 65.7392C363.494 62.1312 355.215 60.2528 346.829 60.2402C315.299 60.2402 289.719 86.3502 289.719 118.57C289.716 121.556 289.936 124.538 290.379 127.49C282.836 123.87 274.576 121.994 266.209 122C234.669 122 209.089 148.12 209.089 180.33C209.073 190.448 211.659 200.4 216.599 209.23C191.149 215.11 172.139 238.34 172.139 266.11C172.111 275.735 174.456 285.219 178.967 293.722C183.477 302.225 190.014 309.485 197.999 314.86C187.455 319.326 178.443 326.772 172.069 336.285C165.696 345.798 162.236 356.965 162.117 368.415C161.997 379.865 165.221 391.102 171.394 400.746C177.567 410.391 186.421 418.024 196.869 422.71C187.409 433.494 182.216 447.365 182.269 461.71C182.269 490.22 202.319 513.96 228.809 519.04C217.299 529.35 774.169 529.97 762.989 519.59C791.189 516.02 812.989 491.48 812.989 461.72C813.034 447.374 807.838 433.506 798.379 422.72C808.774 418.121 817.6 410.589 823.777 401.046C829.953 391.504 833.21 380.367 833.149 369ZM270.809 513.54C269.879 513.02 268.919 512.54 267.959 512.13C268.929 511.56 270.809 513.54 270.809 513.54Z" fill="#85C5E5"/>
<path d="M469.999 505.43C462.758 512.042 453.765 516.426 444.096 518.058C434.427 519.69 424.493 518.5 415.483 514.63C406.473 510.76 398.77 504.375 393.296 496.24C387.822 488.105 384.81 478.564 384.619 468.76C375.479 471.688 365.698 471.982 356.398 469.609C347.098 467.236 338.655 462.292 332.034 455.343C325.414 448.394 320.884 439.721 318.965 430.317C317.045 420.913 317.812 411.158 321.179 402.17C311.343 401.511 301.907 398.025 294.005 392.131C286.102 386.238 280.07 378.187 276.634 368.948C273.197 359.708 272.501 349.673 274.631 340.048C276.761 330.423 281.625 321.617 288.639 314.69C279.561 310.759 271.813 304.287 266.328 296.055C260.842 287.822 257.853 278.18 257.72 268.288C257.587 258.396 260.315 248.677 265.577 240.3C270.839 231.922 278.41 225.245 287.379 221.07C281.164 213.552 277.216 204.42 275.996 194.742C274.776 185.064 276.334 175.239 280.488 166.413C284.642 157.587 291.221 150.125 299.456 144.897C307.692 139.67 317.244 136.893 326.999 136.89H327.159C325.288 129.302 325.167 121.388 326.805 113.746C328.443 106.104 331.797 98.9346 336.614 92.7798C341.431 86.6251 347.584 81.6461 354.608 78.2194C361.632 74.7927 369.344 73.008 377.159 73.0002C379.05 73.0025 380.939 73.106 382.819 73.3102C372.725 64.8605 359.983 60.2272 346.819 60.2202C315.279 60.2202 289.709 86.3302 289.709 118.55C289.706 121.536 289.926 124.518 290.369 127.47C282.828 123.858 274.571 121.989 266.209 122C234.669 122 209.089 148.12 209.089 180.33C209.073 190.448 211.659 200.4 216.599 209.23C191.149 215.11 172.139 238.34 172.139 266.11C172.111 275.735 174.456 285.219 178.967 293.722C183.477 302.225 190.014 309.485 197.999 314.86C187.455 319.326 178.443 326.772 172.069 336.285C165.696 345.798 162.236 356.965 162.117 368.415C161.997 379.865 165.221 391.102 171.394 400.746C177.567 410.391 186.421 418.024 196.869 422.71C187.409 433.494 182.216 447.365 182.269 461.71C182.269 490.22 202.319 513.96 228.809 519.04C223.199 524.04 352.619 526.79 485.469 527.04C478.498 521.326 473.161 513.871 469.999 505.43Z" fill="#67B7D6"/>
<path d="M741.199 386L706.199 464.16L745.669 522.77C757.909 521.86 764.279 520.77 762.979 519.6C791.179 516.03 812.979 491.49 812.979 461.73C812.972 458.48 812.705 455.237 812.179 452.03C792.179 391.39 741.199 386 741.199 386Z" fill="#67B7D6"/>
<path d="M833.149 369C833.21 357.432 829.83 346.106 823.44 336.463C817.049 326.819 807.936 319.293 797.259 314.84C805.239 309.459 811.77 302.194 816.274 293.687C820.777 285.181 823.115 275.695 823.079 266.07C823.079 238.3 804.079 215.07 778.609 209.19C783.544 200.358 786.129 190.407 786.119 180.29C786.119 148.1 760.549 122 728.999 122C720.623 121.994 712.352 123.87 704.799 127.49C705.25 124.538 705.474 121.556 705.469 118.57C705.469 86.3602 679.899 60.2402 648.349 60.2402C639.964 60.2515 631.687 62.1294 624.118 65.7374C616.549 69.3455 609.878 74.5934 604.589 81.1002C602.979 50.3602 578.059 25.9302 547.589 25.9302C537.318 25.964 527.248 28.7772 518.447 34.0713C509.646 39.3653 502.442 46.9429 497.599 56.0002C492.753 46.9435 485.547 39.3668 476.744 34.0729C467.942 28.7791 457.871 25.9654 447.599 25.9302C417.099 25.9302 392.179 50.3602 390.599 81.1002C385.307 74.5942 378.635 69.3471 371.064 65.7392C363.494 62.1312 355.215 60.2528 346.829 60.2402C315.299 60.2402 289.719 86.3502 289.719 118.57C289.716 121.556 289.936 124.538 290.379 127.49C282.836 123.87 274.576 121.994 266.209 122C234.669 122 209.089 148.12 209.089 180.33C209.073 190.448 211.659 200.4 216.599 209.23C191.149 215.11 172.139 238.34 172.139 266.11C172.111 275.735 174.456 285.219 178.967 293.722C183.477 302.225 190.014 309.485 197.999 314.86C187.455 319.326 178.443 326.772 172.069 336.285C165.696 345.798 162.236 356.965 162.117 368.415C161.997 379.865 165.221 391.102 171.394 400.746C177.567 410.391 186.421 418.024 196.869 422.71C187.409 433.494 182.216 447.365 182.269 461.71C182.269 490.22 202.319 513.96 228.809 519.04C217.299 529.35 774.169 529.97 762.989 519.59C791.189 516.02 812.989 491.48 812.989 461.72C813.034 447.374 807.838 433.506 798.379 422.72C808.774 418.121 817.6 410.589 823.777 401.046C829.953 391.504 833.21 380.367 833.149 369Z" stroke="#592D3D" stroke-width="12" stroke-miterlimit="10"/>
<path d="M610 758.72C700.76 758.72 682 872.96 682.87 1000H610V758.72Z" fill="#A56941"/>
<path d="M632.74 831.87L610 870L621.38 1000H653.14C653.91 819.73 632.74 831.87 632.74 831.87Z" fill="#8D5638"/>
<path d="M233.25 500C233.25 352.68 352.68 233.25 500 233.25C647.32 233.25 766.75 352.68 766.75 500C766.788 539.694 757.949 578.895 740.88 614.731C723.811 650.568 698.945 682.135 668.1 707.12C662.627 711.573 656.98 715.803 651.16 719.81C591 758 515 758 446.39 751.89C439.73 750.89 433.09 749.63 426.5 748.18C400.17 742.38 374.68 733.43 351.13 720.38C345.31 716.793 339.667 712.92 334.2 708.76C328.706 704.576 323.432 700.11 318.4 695.38C313.64 690.96 309.044 686.367 304.61 681.6C258.667 632.299 233.161 567.39 233.25 500Z" fill="#A56941"/>
<path d="M269.608 634.48C270.308 635.68 270.998 636.88 271.718 638.06C272.148 638.78 272.598 639.48 273.048 640.2C273.708 641.27 274.368 642.34 275.048 643.39C275.528 644.15 276.048 644.89 276.508 645.63C277.168 646.63 277.828 647.63 278.508 648.63C279.018 649.39 279.508 650.15 280.068 650.91C280.728 651.91 281.388 652.83 282.068 653.79C282.608 654.56 283.168 655.32 283.718 656.09C284.268 656.86 285.058 657.94 285.718 658.86C286.378 659.78 286.868 660.39 287.448 661.15C288.028 661.91 288.818 662.95 289.518 663.85C290.218 664.75 290.708 665.36 291.308 666.11C291.908 666.86 292.718 667.87 293.428 668.74C294.138 669.61 294.658 670.23 295.278 670.97C295.898 671.71 296.718 672.69 297.448 673.54C298.178 674.39 298.718 675.01 299.358 675.74L301.578 678.24C302.228 678.97 302.888 679.68 303.578 680.4C304.438 681.34 305.308 682.27 306.178 683.19L307.388 684.47C308.678 685.81 309.978 687.15 311.298 688.47L311.558 688.74C312.848 690.02 314.158 691.29 315.468 692.55L317.048 694.05C317.998 694.94 318.948 695.83 319.908 696.71L321.068 697.77C322.068 698.71 323.158 699.63 324.208 700.55C327.474 703.397 330.808 706.127 334.208 708.74C339.668 712.9 345.311 716.773 351.138 720.36C374.688 733.36 400.138 742.36 426.508 748.16C433.098 749.61 439.738 750.86 446.398 751.87C488.498 755.62 533.398 757.05 575.678 748.79C508.448 729 185.588 612.74 388.798 257.48C386.078 258.73 383.398 260.02 380.738 261.36L380.148 261.65C378.928 262.26 377.708 262.89 376.498 263.53L375.498 264.06C371.738 266.06 368.018 268.13 364.368 270.29L363.468 270.82C362.308 271.51 361.158 272.21 360.008 272.92L359.138 273.46C355.564 275.693 352.048 278.003 348.588 280.39L347.508 281.14C346.418 281.9 345.348 282.66 344.278 283.43L343.618 283.9C341.438 285.493 339.284 287.107 337.158 288.74L336.538 289.22C335.538 290 334.538 290.8 333.538 291.61L332.368 292.55C331.368 293.36 330.368 294.17 329.368 295C327.258 296.75 325.178 298.55 323.128 300.37L321.988 301.37L319.298 303.82L317.998 305C315.144 307.667 312.354 310.39 309.628 313.17L308.248 314.58C307.458 315.4 306.668 316.22 305.888 317.05C305.428 317.54 304.968 318.05 304.518 318.53C303.144 319.997 301.791 321.483 300.458 322.99C300.008 323.5 299.548 323.99 299.098 324.53C298.388 325.34 297.688 326.16 296.988 326.98L295.478 328.77C294.798 329.58 294.118 330.39 293.478 331.21C292.938 331.87 292.398 332.54 291.868 333.21C290.798 334.54 289.748 335.87 288.708 337.21C288.168 337.91 287.628 338.61 287.098 339.32C286.568 340.03 285.898 340.91 285.308 341.72C284.718 342.53 284.238 343.17 283.718 343.9C283.198 344.63 282.588 345.45 282.038 346.23C281.091 347.563 280.158 348.913 279.238 350.28C278.738 351.01 278.238 351.76 277.748 352.5C277.258 353.24 276.648 354.16 276.108 355L274.618 357.31L272.938 360.02C272.508 360.71 272.078 361.4 271.658 362.09C270.768 363.55 269.908 365.02 269.048 366.49L267.828 368.65C267.288 369.6 266.748 370.56 266.218 371.52C265.818 372.25 265.418 372.98 265.028 373.71C264.388 374.9 263.758 376.1 263.128 377.3L261.928 379.64C261.288 380.92 260.648 382.19 260.018 383.48C259.688 384.17 259.348 384.87 259.018 385.57C258.498 386.66 258.018 387.76 257.488 388.86C257.178 389.52 256.878 390.18 256.578 390.86C255.838 392.507 255.114 394.173 254.408 395.86C254.188 396.38 253.978 396.91 253.758 397.43C253.228 398.7 252.708 399.97 252.198 401.25C251.928 401.92 251.668 402.59 251.408 403.25C250.908 404.51 250.408 405.78 249.958 407.05C249.748 407.6 249.538 408.15 249.338 408.7C248.711 410.453 248.094 412.207 247.488 413.96L246.928 415.66C246.488 416.993 246.058 418.327 245.638 419.66L245.038 421.57C244.568 423.11 244.108 424.65 243.668 426.2C243.568 426.53 243.468 426.86 243.378 427.2C242.858 429.04 242.358 430.887 241.878 432.74C241.718 433.33 241.578 433.93 241.428 434.52C241.078 435.91 240.738 437.3 240.428 438.7L240.008 440.45C239.578 442.35 239.158 444.25 238.768 446.16L238.618 446.93C238.278 448.63 237.944 450.33 237.618 452.03C237.508 452.64 237.408 453.24 237.298 453.85C237.038 455.34 236.788 456.85 236.558 458.35C236.478 458.86 236.388 459.35 236.318 459.87C236.018 461.82 235.748 463.78 235.488 465.75L235.338 467.05C235.138 468.64 234.958 470.24 234.788 471.84C234.728 472.44 234.658 473.04 234.598 473.65C234.438 475.33 234.288 477.02 234.148 478.71C234.148 479.06 234.088 479.4 234.068 479.71C233.921 481.71 233.791 483.727 233.678 485.76C233.678 486.29 233.678 486.83 233.608 487.36C233.541 488.933 233.481 490.503 233.428 492.07C233.428 492.66 233.428 493.25 233.428 493.84C233.428 495.89 233.348 497.95 233.348 500.01C233.348 500.01 233.348 500.08 233.348 500.11C233.348 502.33 233.348 504.53 233.428 506.73C233.428 507.49 233.488 508.25 233.508 509.01C233.558 510.48 233.608 511.95 233.678 513.42C233.678 514.31 233.788 515.19 233.838 516.08C233.918 517.41 233.988 518.74 234.088 520.08C234.158 521.08 234.248 521.97 234.328 522.91C234.438 524.17 234.538 525.43 234.668 526.68C234.758 527.68 234.878 528.62 234.978 529.59C235.118 530.8 235.248 532.02 235.398 533.23C235.518 534.23 235.658 535.23 235.788 536.18C235.948 537.36 236.108 538.55 236.288 539.73C236.438 540.73 236.598 541.73 236.758 542.73C236.938 543.89 237.128 545.06 237.328 546.22C237.508 547.22 237.688 548.22 237.878 549.22C238.088 550.37 238.308 551.52 238.528 552.66C238.748 553.8 238.938 554.66 239.148 555.66C239.388 556.8 239.628 557.93 239.888 559.06C240.148 560.19 240.328 561.06 240.568 561.99C240.828 563.12 241.108 564.24 241.388 565.35C241.668 566.46 241.878 567.3 242.128 568.26C242.428 569.38 242.728 570.49 243.038 571.6C243.298 572.6 243.568 573.52 243.848 574.47C244.168 575.58 244.498 576.68 244.848 577.78C245.198 578.88 245.428 579.67 245.728 580.62C246.028 581.57 246.428 582.81 246.788 583.9C247.148 584.99 247.408 585.77 247.728 586.7C248.108 587.79 248.488 588.88 248.878 589.97C249.208 590.88 249.528 591.8 249.878 592.71L251.118 595.98C251.468 596.87 251.808 597.77 252.118 598.66C252.558 599.75 253.008 600.85 253.458 601.94C253.818 602.8 254.168 603.67 254.538 604.53C255.008 605.65 255.538 606.75 255.988 607.86C256.358 608.68 256.718 609.51 257.088 610.33C257.608 611.49 258.158 612.63 258.688 613.77L259.768 616.07C260.378 617.33 261.008 618.57 261.638 619.82C261.958 620.45 262.258 621.09 262.588 621.72C264.508 625.46 266.508 629.15 268.588 632.79C268.878 633.26 269.248 633.87 269.608 634.48Z" fill="#8D5638"/>
<path d="M233.25 500C233.25 352.68 352.68 233.25 500 233.25C647.32 233.25 766.75 352.68 766.75 500C766.788 539.694 757.949 578.895 740.88 614.731C723.811 650.568 698.945 682.135 668.1 707.12C662.627 711.573 656.98 715.803 651.16 719.81C591 758 515 758 446.39 751.89C439.73 750.89 433.09 749.63 426.5 748.18C400.17 742.38 374.68 733.43 351.13 720.38C345.31 716.793 339.667 712.92 334.2 708.76C328.706 704.576 323.432 700.11 318.4 695.38C313.64 690.96 309.044 686.367 304.61 681.6C258.667 632.299 233.161 567.39 233.25 500Z" stroke="#592D3D" stroke-width="12" stroke-miterlimit="10"/>
<path d="M386.118 758.72C295.348 758.72 314.118 872.96 313.248 1000H386.118V758.72Z" fill="#A56941"/>
<path d="M367.228 831.87L389.998 870L378.608 1000H346.878C346.068 819.73 367.228 831.87 367.228 831.87Z" fill="#8D5638"/>
<path d="M619.468 1070H380.528C377.007 1070 373.632 1068.6 371.144 1066.11C368.656 1063.62 367.258 1060.24 367.258 1056.72V772C367.258 768.48 368.656 765.104 371.144 762.613C373.632 760.123 377.007 758.723 380.528 758.72H613.758C626.848 758.72 632.758 766.38 632.758 778.6V1056.68C632.763 1058.43 632.423 1060.16 631.757 1061.78C631.092 1063.39 630.114 1064.86 628.879 1066.1C627.644 1067.34 626.177 1068.32 624.562 1068.99C622.947 1069.66 621.216 1070 619.468 1070Z" fill="#A56941"/>
<path d="M629.048 766.62C628.051 765.394 627.208 764.051 626.538 762.62C624.137 760.739 621.28 759.527 618.258 759.11C616.769 758.88 615.264 758.766 613.758 758.77H380.528C377.016 758.773 373.648 760.166 371.162 762.646C368.675 765.125 367.271 768.488 367.258 772C396.258 782.42 450.548 788.24 499.998 788.24C563.058 788.24 604.378 778.89 629.048 766.62Z" fill="#8D5638"/>
<path d="M610 758.72C700.76 758.72 682 872.96 682.87 1000H632.74" stroke="#592D3D" stroke-width="12" stroke-miterlimit="10" stroke-linecap="square"/>
<path d="M386.118 758.72C295.348 758.72 314.118 872.96 313.248 1000H363.318" stroke="#592D3D" stroke-width="12" stroke-miterlimit="10" stroke-linecap="square"/>
<path d="M380.527 758.82L613.757 758.72" stroke="#592D3D" stroke-width="12" stroke-miterlimit="10"/>
<path d="M380.528 1070H497.148C387.998 1070 396.238 838.82 367.258 838.82V1056.68C367.253 1058.43 367.592 1060.16 368.256 1061.77C368.921 1063.39 369.897 1064.86 371.13 1066.09C372.362 1067.33 373.827 1068.31 375.44 1068.98C377.052 1069.65 378.781 1070 380.528 1070Z" fill="#8D5638"/>
<path d="M361.259 860.85C361.069 857.18 361.149 853.51 361.309 849.85C361.469 846.19 361.779 842.5 362.169 838.85C362.369 837.01 362.569 835.18 362.819 833.34C363.069 831.5 363.309 829.67 363.669 827.83C364.378 824.022 365.585 820.324 367.259 816.83C368.933 820.324 370.14 824.022 370.849 827.83C371.209 829.67 371.469 831.5 371.699 833.34C371.929 835.18 372.149 837.01 372.349 838.85C372.729 842.52 373.029 846.19 373.199 849.85C373.369 853.51 373.449 857.19 373.259 860.85H361.259Z" fill="#592D3D"/>
<path d="M632.738 870V878C632.998 912 632.998 947 632.738 980.75C632.738 983.62 632.738 986.47 632.738 989.28V1056.69C632.742 1058.44 632.402 1060.17 631.737 1061.78C631.072 1063.39 630.095 1064.86 628.862 1066.1C627.63 1067.33 626.166 1068.31 624.554 1068.98C622.942 1069.65 621.213 1070 619.468 1070H380.528C377.007 1070 373.632 1068.6 371.144 1066.11C368.656 1063.62 367.258 1060.24 367.258 1056.72V998.52C367.258 996.01 367.258 993.45 367.258 990.87C367.008 956 367.008 921 367.258 885.57V860.85" stroke="#592D3D" stroke-width="12" stroke-miterlimit="10"/>
<path d="M626.74 870C626.55 865.83 626.64 861.65 626.8 857.47C626.96 853.29 627.27 849.12 627.65 844.94C627.85 842.85 628.06 840.76 628.3 838.67C628.54 836.58 628.79 834.5 629.15 832.41C629.847 828.106 631.052 823.9 632.74 819.88C634.428 823.9 635.633 828.106 636.33 832.41C636.69 834.5 636.95 836.59 637.18 838.67C637.41 840.75 637.63 842.85 637.83 844.94C638.21 849.12 638.52 853.29 638.68 857.47C638.84 861.65 638.93 865.83 638.74 870H626.74Z" fill="#592D3D"/>
<path d="M570.68 842.45C570.9 833 582.9 829 588.9 835C589.875 835.995 590.644 837.173 591.164 838.466C591.684 839.759 591.944 841.141 591.93 842.535C591.915 843.928 591.627 845.305 591.08 846.587C590.534 847.868 589.74 849.03 588.745 850.005C587.749 850.98 586.572 851.75 585.279 852.269C583.986 852.789 582.603 853.05 581.21 853.035C579.817 853.021 578.44 852.732 577.158 852.186C575.876 851.639 574.715 850.845 573.74 849.85C572.766 848.88 571.994 847.727 571.469 846.456C570.944 845.186 570.675 843.825 570.68 842.45Z" fill="#592D3D"/>
<path d="M408.109 842.15C407.899 834 416.899 830 422.899 833C430.899 836 430.899 847 422.899 852C418.899 854 414.899 852 411.149 849.52C410.182 848.552 409.416 847.403 408.894 846.138C408.372 844.874 408.106 843.518 408.109 842.15Z" fill="#592D3D"/>
<path d="M500 831.77C500.715 833.655 501.218 835.614 501.5 837.61C501.797 839.543 501.961 841.494 501.99 843.45L502.29 855.14C502.38 859.03 502.5 862.93 502.54 866.83L502.71 878.5C502.94 894.07 502.93 909.66 502.99 925.24C503.05 940.82 503.17 956.4 502.99 971.98C502.9 979.77 502.69 987.56 502.46 995.35C502.36 999.24 502.17 1003.14 501.79 1007.03C501.45 1010.96 500.859 1014.87 500.02 1018.72C499.181 1014.87 498.59 1010.96 498.25 1007.03C497.87 1003.14 497.68 999.24 497.58 995.35C497.35 987.56 497.14 979.77 497.05 971.98C496.85 956.4 497.05 940.82 497.05 925.24C497.05 909.66 497.05 894.09 497.23 878.51L497.4 866.81L497.73 855.13L498.06 843.45C498.097 841.494 498.264 839.543 498.56 837.61C498.822 835.616 499.305 833.657 500 831.77Z" fill="#8D5638"/>
<path d="M425.219 883C426.702 882.295 428.272 881.791 429.889 881.5C431.433 881.21 432.998 881.043 434.569 881L443.919 880.67L462.619 880.26C475.079 880.07 487.529 880.02 499.999 879.99C512.469 879.96 524.929 879.83 537.389 879.99C543.619 880.08 549.849 880.29 556.089 880.52C559.199 880.63 562.319 880.82 565.429 881.19C568.587 881.541 571.713 882.136 574.779 882.97C571.715 883.81 568.588 884.402 565.429 884.74C562.319 885.12 559.199 885.31 556.089 885.41C549.849 885.64 543.619 885.84 537.389 885.93C524.929 886.12 512.469 885.93 499.999 885.93C487.529 885.93 475.069 885.93 462.599 885.78C456.369 885.72 450.139 885.52 443.919 885.28L434.569 884.94C433.001 884.898 431.44 884.731 429.899 884.44C428.282 884.17 426.708 883.686 425.219 883Z" fill="#8D5638"/>
<path d="M442.41 914.38C443.591 913.817 444.853 913.442 446.15 913.27C447.349 913.101 448.561 913.051 449.77 913.12C452.16 913.22 454.55 913.28 456.94 913.33C461.72 913.44 466.5 913.48 471.28 913.5C480.91 913.5 490.37 913.58 500.04 913.29C509.71 913 519.3 912.86 528.92 912.9C533.73 912.9 538.54 913.03 543.34 913.14C545.757 913.173 548.17 913.33 550.57 913.61C553.037 913.883 555.472 914.395 557.84 915.14C555.528 916.048 553.129 916.719 550.68 917.14C548.296 917.57 545.888 917.857 543.47 918C538.65 918.35 533.83 918.65 529.02 918.82C519.38 919.18 509.75 919.14 500.14 919.27C495.33 919.27 490.53 919.49 485.66 919.37C480.79 919.25 475.97 919.24 471.14 919.06C466.31 918.88 461.46 918.48 456.64 917.98C454.22 917.71 451.82 917.41 449.41 917.08C448.193 916.931 446.996 916.65 445.84 916.24C444.599 915.82 443.439 915.191 442.41 914.38Z" fill="#8D5638"/>
<path d="M438.93 949.87C440.116 949.172 441.405 948.666 442.75 948.37C444.003 948.079 445.283 947.915 446.57 947.88L454.2 947.56C459.29 947.38 464.39 947.23 469.48 947.15C479.66 947 489.84 947 500 947C510.16 947 520.36 946.83 530.54 947C535.63 947.09 540.72 947.3 545.81 947.53C548.363 947.616 550.91 947.837 553.44 948.19C556.045 948.548 558.61 949.154 561.1 950C558.618 950.831 556.063 951.424 553.47 951.77C550.937 952.132 548.387 952.356 545.83 952.44C540.74 952.67 535.65 952.88 530.56 952.97C520.38 953.17 510.19 953.03 500.01 952.97C489.83 952.91 479.65 952.91 469.47 952.72C464.38 952.62 459.28 952.44 454.19 952.23L446.56 951.86C445.273 951.821 443.993 951.654 442.74 951.36C441.398 951.07 440.112 950.567 438.93 949.87Z" fill="#8D5638"/>
<path d="M547.85 847.98L505.72 813.61L580.35 758.82H419.65L494.28 813.61L452.15 847.98L414.52 791.48V869.96H588.78V786.52L547.85 847.98Z" fill="#8D5638"/>
<path d="M616.658 758.16L573.928 758.26C573.707 762.777 573.23 767.278 572.498 771.74C572.028 773.882 571.447 775.998 570.758 778.08C568.418 784.57 553.498 790.08 549.268 794.81C547.867 796.384 546.364 797.863 544.768 799.24C519.598 817.44 479.598 818.44 455.288 798.66C452.667 796.371 450.284 793.821 448.178 791.05C443.948 785.49 431.778 779.46 430.078 772.11C429.596 769.935 429.236 767.735 428.998 765.52C428.757 763.262 428.637 760.992 428.638 758.72L383.428 758.16C379.908 758.16 376.532 759.558 374.042 762.046C371.551 764.535 370.151 767.91 370.148 771.43V1056.12C370.151 1059.64 371.551 1063.02 374.042 1065.5C376.532 1067.99 379.908 1069.39 383.428 1069.39H622.358C625.878 1069.39 629.253 1067.99 631.742 1065.5C634.23 1063.01 635.628 1059.64 635.628 1056.12V778C635.628 765.82 629.748 758.16 616.658 758.16Z" fill="white"/>
<path d="M612.84 758.16C676.38 758.16 701.36 801.55 691.74 1030.16C673 1036.86 635.83 1034.75 635.83 1034.75L612.84 758.16Z" fill="white"/>
<path d="M451.059 855.4L499.509 831.31L548.089 855.4L511.029 812.38L467.139 813.21L451.059 855.4Z" fill="#E2E2E2"/>
<path d="M635.629 831.31C635.629 831.31 612.839 915.85 616.319 1065.31L649.529 1034.31L653.109 896.73C647.489 824.5 635.629 831.31 635.629 831.31Z" fill="#E2E2E2"/>
<path d="M388.998 758.16C327.218 758.16 300.118 814.61 308.248 1003.64C330.668 1013.55 364.438 1009.22 364.438 1009.22L388.998 758.16Z" fill="white"/>
<path d="M306.938 957.49C307.111 971.13 307.514 985.623 308.147 1000.97C323.417 1001.7 351.838 1001.85 365.258 1000.97L369.438 958.16C358.667 956.9 323.657 956.49 306.938 957.49Z" fill="#E2E2E2"/>
<path d="M370.12 831.31L369.62 1009L356.27 1009.9C353.3 860.85 370.12 831.31 370.12 831.31Z" fill="#E2E2E2"/>
<path d="M612.84 758.16C680.26 758.16 691.29 814.44 691.74 891.94V1030.16C691.74 1030.16 641.74 1035.69 635.83 1034.75L635.73 892.64" stroke="#592D3D" stroke-width="12" stroke-miterlimit="10" stroke-linecap="square"/>
<path d="M388.999 758.16C363.269 758.16 345.479 766.28 333.289 780.6C313.839 803.47 308.659 842.14 308.289 888.87V1012.64C320.349 1015.96 369.649 1009 369.649 1009L370.139 890.4" stroke="#592D3D" stroke-width="12" stroke-miterlimit="10" stroke-linecap="square"/>
<path d="M372.598 1011.24C370.768 1013.85 298.828 1013.16 297.928 1011.24C297.028 1009.32 295.738 973.74 297.928 970.24C299.728 967.36 370.038 967.97 372.598 970.24C375.158 972.51 374.428 1008.63 372.598 1011.24Z" fill="white" stroke="#592D3D" stroke-width="12" stroke-miterlimit="10" stroke-linecap="square"/>
<path d="M383.429 1069.39H499.999C390.809 1069.39 399.089 838.25 370.109 838.25V1056.12C370.111 1057.87 370.456 1059.6 371.127 1061.21C371.797 1062.82 372.779 1064.29 374.017 1065.52C375.254 1066.75 376.722 1067.73 378.337 1068.39C379.953 1069.06 381.683 1069.4 383.429 1069.39Z" fill="#E2E2E2"/>
<path d="M364.149 860.29C363.959 856.62 364.039 852.94 364.209 849.29C364.379 845.64 364.679 841.95 365.059 838.29C365.259 836.46 365.469 834.62 365.709 832.78C365.949 830.94 366.199 829.11 366.559 827.28C367.267 823.472 368.474 819.773 370.149 816.28C371.824 819.773 373.031 823.472 373.739 827.28C374.099 829.11 374.359 830.95 374.589 832.78C374.819 834.61 375.039 836.46 375.239 838.29C375.626 841.97 375.912 845.637 376.099 849.29C376.259 852.96 376.339 856.64 376.099 860.29H364.149Z" fill="#592D3D"/>
<path d="M635.628 869.4V877.4C635.888 911.4 635.888 946.4 635.628 980.16C635.628 983.03 635.628 985.88 635.628 988.69V1056.1C635.628 1059.62 634.23 1062.99 631.741 1065.48C629.253 1067.97 625.878 1069.37 622.358 1069.37H383.428C379.908 1069.37 376.531 1067.97 374.041 1065.48C371.551 1063 370.151 1059.62 370.148 1056.1V990.3C369.888 955.44 369.888 920.44 370.148 885V860.29" stroke="#592D3D" stroke-width="12" stroke-miterlimit="10"/>
<path d="M697.418 970.24C699.638 972.5 699.008 1008.63 697.418 1011.24C695.828 1013.85 633.418 1013.16 632.648 1011.24C631.878 1009.32 630.748 973.74 632.648 970.24C632.918 969.74 634.928 969.35 638.098 969.06" fill="white"/>
<path d="M697.418 970.24C699.638 972.5 699.008 1008.63 697.418 1011.24C695.828 1013.85 633.418 1013.16 632.648 1011.24C631.878 1009.32 630.748 973.74 632.648 970.24C632.918 969.74 634.928 969.35 638.098 969.06" stroke="#592D3D" stroke-width="12" stroke-miterlimit="10" stroke-linecap="square"/>
<path d="M678.918 968.3C679.5 967.543 680.128 966.822 680.798 966.14C681.343 965.595 681.939 965.102 682.578 964.67C683.153 964.288 683.759 963.954 684.388 963.67C684.998 963.38 685.608 963.13 686.218 962.88C687.447 962.383 688.714 961.989 690.008 961.7C690.667 961.554 691.335 961.451 692.008 961.39C692.368 961.39 692.738 961.39 693.178 961.39C693.428 961.39 693.638 961.39 693.998 961.39C694.118 961.39 694.438 961.39 694.708 961.46H695.058L695.548 961.57L695.798 961.63L695.998 961.69L696.568 961.9C697.315 962.226 697.994 962.691 698.568 963.27L702.768 967.56L694.118 976.04L689.998 971.67C690.538 972.236 691.188 972.685 691.908 972.99C692.088 973.07 692.268 973.13 692.448 973.19H692.618L692.808 973.24C692.932 973.281 693.059 973.311 693.188 973.33H693.378C693.478 973.33 693.638 973.33 693.598 973.33C693.558 973.33 693.528 973.33 693.448 973.33H692.698C692.128 973.33 691.508 973.33 690.878 973.33C689.56 973.252 688.249 973.075 686.958 972.8C686.288 972.65 685.618 972.5 684.958 972.31C684.272 972.127 683.603 971.886 682.958 971.59C682.213 971.238 681.514 970.794 680.878 970.27C680.117 969.73 679.454 969.064 678.918 968.3Z" fill="#592D3D"/>
<path d="M592.51 763.64L517.84 818.45L559.98 852.83L619.4 763.59L592.51 763.64Z" fill="#E2E2E2"/>
<path d="M629.63 869.4C629.44 865.22 629.53 861.04 629.69 856.87C629.85 852.7 630.16 848.51 630.55 844.34C630.75 842.25 630.95 840.16 631.19 838.07C631.43 835.98 631.68 833.89 632.05 831.8C632.741 827.496 633.943 823.29 635.63 819.27C637.325 823.288 638.531 827.494 639.22 831.8C639.58 833.89 639.85 835.98 640.07 838.07C640.29 840.16 640.52 842.25 640.72 844.34C641.11 848.51 641.41 852.69 641.57 856.87C641.73 861.05 641.83 865.22 641.63 869.4H629.63Z" fill="#592D3D"/>
<path d="M383.43 758.26L616.66 758.16" stroke="#592D3D" stroke-width="12" stroke-miterlimit="10"/>
<path d="M529.389 835.55L507.039 813.21L484.699 835.55L495.679 846.53L485.959 953.16L506.699 969.33L528.119 953.16L518.409 846.53L529.389 835.55Z" fill="#E2E2E2"/>
<path d="M500.039 813.21V1069.39" stroke="#592D3D" stroke-width="6" stroke-miterlimit="10" stroke-linecap="square"/>
<path d="M500.039 813.21L522.389 828.55L500.039 850.9L477.699 828.55L500.039 813.21Z" fill="#85C5E5"/>
<path d="M419.619 758.8C419.619 758.8 462.889 798.14 494.279 813.61C478.999 838.82 452.149 848 452.149 848L392.719 758.77L419.619 758.8Z" fill="white" stroke="#592D3D" stroke-width="12" stroke-miterlimit="10"/>
<path d="M580.379 758.8C580.379 758.8 540.999 800 505.719 813.61C515.719 833.89 547.849 847.98 547.849 847.98L607.279 758.75L580.379 758.8Z" fill="white" stroke="#592D3D" stroke-width="12" stroke-miterlimit="10"/>
<path fill-rule="evenodd" clip-rule="evenodd" d="M490.592 889C485.892 891.37 475.972 896 470.592 899.65C465.212 903.3 465.892 906.75 463.542 909.12C461.192 911.49 454.142 917.4 449.442 920.95C444.742 924.5 445.912 933.95 444.742 937.51C443.572 941.07 441.212 949.34 440.032 952.89C438.852 956.44 442.382 961.17 444.742 965.89C447.102 970.61 452.962 983.63 455.312 988.37C457.662 993.11 464.722 990.73 470.592 995.46C476.971 1000.58 483.65 1005.33 490.592 1009.66C496.462 1013.21 498.822 1013.21 504.692 1009.66C511.635 1005.33 518.314 1000.59 524.692 995.46C530.572 990.73 537.622 993.1 539.982 988.37C542.342 983.64 548.202 970.62 550.552 965.89C552.902 961.16 556.432 956.42 555.262 952.89C554.092 949.36 551.732 941.06 550.552 937.51C549.372 933.96 550.552 924.51 545.852 920.95C540.946 917.258 536.24 913.309 531.752 909.12C527.752 905.35 529.402 903.2 524.692 899.65C519.982 896.1 509.412 891.37 504.692 889C502.523 887.838 500.102 887.23 497.642 887.23C495.182 887.23 492.76 887.838 490.592 889Z" fill="white"/>
<path fill-rule="evenodd" clip-rule="evenodd" d="M474.001 909.46L496.001 924.46C496.5 924.79 497.083 924.97 497.681 924.98C498.277 924.976 498.859 924.795 499.351 924.46L521.351 909.39C521.773 909.089 522.11 908.684 522.329 908.214C522.547 907.744 522.641 907.226 522.599 906.709C522.558 906.192 522.384 905.695 522.093 905.266C521.803 904.837 521.406 904.49 520.941 904.26L498.941 893.36C498.529 893.162 498.078 893.06 497.621 893.06C497.164 893.06 496.713 893.162 496.301 893.36L474.361 904.26C473.889 904.491 473.486 904.843 473.192 905.279C472.898 905.716 472.725 906.221 472.688 906.746C472.652 907.271 472.754 907.796 472.984 908.269C473.215 908.742 473.566 909.146 474.001 909.44V909.46ZM505.141 929.19C505.138 929.68 505.255 930.163 505.482 930.597C505.709 931.031 506.038 931.403 506.441 931.68L524.081 943.74C524.632 944.11 525.29 944.288 525.952 944.245C526.615 944.201 527.244 943.939 527.741 943.5L542.531 930.27C542.86 929.979 543.121 929.62 543.295 929.217C543.469 928.814 543.553 928.378 543.541 927.94C543.529 927.501 543.42 927.07 543.223 926.678C543.026 926.286 542.746 925.942 542.401 925.67L528.281 914.38C527.782 913.982 527.168 913.753 526.529 913.728C525.891 913.703 525.261 913.882 524.731 914.24L506.441 926.75C506.043 927.022 505.716 927.385 505.488 927.81C505.26 928.235 505.138 928.708 505.131 929.19H505.141ZM461.271 945.59C461.627 945.904 461.903 946.298 462.077 946.74C462.251 947.181 462.317 947.658 462.271 948.13C462.222 948.602 462.061 949.056 461.802 949.454C461.543 949.853 461.193 950.183 460.781 950.42L450.251 956.73C449.729 957.039 449.126 957.182 448.521 957.141C447.916 957.1 447.337 956.877 446.861 956.5C446.382 956.122 446.029 955.606 445.85 955.021C445.671 954.437 445.675 953.812 445.861 953.23L449.761 940.98C449.909 940.502 450.174 940.069 450.532 939.72C450.89 939.37 451.33 939.116 451.811 938.98C452.293 938.843 452.801 938.831 453.288 938.947C453.774 939.062 454.223 939.301 454.591 939.64L461.271 945.59ZM518.401 946.87L499.351 933.87C498.857 933.539 498.276 933.362 497.681 933.362C497.087 933.362 496.505 933.539 496.011 933.87L477.011 946.87C476.635 947.128 476.322 947.468 476.097 947.865C475.871 948.262 475.74 948.705 475.711 949.16C475.688 949.618 475.765 950.076 475.938 950.501C476.11 950.926 476.375 951.308 476.711 951.62L495.711 968.62C496.26 969.112 496.974 969.38 497.711 969.37C498.448 969.374 499.159 969.107 499.711 968.62L518.711 951.62C519.056 951.314 519.325 950.933 519.498 950.507C519.672 950.08 519.745 949.619 519.711 949.16C519.681 948.703 519.546 948.259 519.317 947.862C519.088 947.465 518.772 947.126 518.391 946.87H518.401ZM467.601 943.5L452.821 930.27C452.493 929.971 452.234 929.604 452.061 929.195C451.889 928.786 451.807 928.344 451.821 927.9C451.83 927.461 451.935 927.03 452.128 926.636C452.322 926.242 452.599 925.895 452.941 925.62L467.061 914.26C467.564 913.858 468.182 913.629 468.825 913.606C469.468 913.582 470.101 913.766 470.631 914.13L488.901 926.63C489.318 926.908 489.661 927.284 489.898 927.725C490.135 928.166 490.26 928.659 490.261 929.16C490.263 929.66 490.139 930.153 489.902 930.593C489.664 931.033 489.32 931.407 488.901 931.68L471.281 943.74C470.729 944.115 470.067 944.296 469.4 944.252C468.734 944.209 468.101 943.944 467.601 943.5ZM543.481 962.5L528.431 953.5C527.885 953.179 527.252 953.039 526.621 953.1C525.991 953.161 525.396 953.42 524.921 953.84L506.531 970.25C506.155 970.59 505.872 971.019 505.707 971.498C505.542 971.978 505.501 972.491 505.587 972.99C505.674 973.489 505.886 973.958 506.203 974.354C506.521 974.749 506.933 975.057 507.401 975.25L532.911 985.59C533.632 985.876 534.435 985.873 535.152 985.58C535.87 985.287 536.447 984.728 536.761 984.02L544.661 966.31C544.963 965.642 545.009 964.886 544.792 964.186C544.575 963.486 544.108 962.89 543.481 962.51V962.5ZM545.571 941L549.461 953.25C549.608 953.701 549.646 954.18 549.572 954.649C549.498 955.117 549.314 955.562 549.035 955.945C548.756 956.329 548.39 956.641 547.967 956.855C547.544 957.07 547.076 957.181 546.601 957.18C546.065 957.18 545.539 957.031 545.081 956.75L534.531 950.44C534.125 950.202 533.782 949.87 533.531 949.471C533.281 949.073 533.13 948.619 533.091 948.15C533.045 947.678 533.112 947.201 533.286 946.76C533.46 946.318 533.736 945.924 534.091 945.61L540.781 939.61C541.152 939.279 541.6 939.046 542.083 938.93C542.567 938.815 543.071 938.822 543.551 938.95C544.033 939.095 544.47 939.359 544.823 939.717C545.176 940.075 545.434 940.516 545.571 941ZM489.771 973C489.855 972.493 489.807 971.973 489.632 971.489C489.457 971.006 489.161 970.576 488.771 970.24L470.381 953.83C469.907 953.41 469.312 953.151 468.682 953.09C468.051 953.029 467.417 953.169 466.871 953.49L451.871 962.49C451.239 962.875 450.769 963.478 450.549 964.184C450.328 964.891 450.371 965.653 450.671 966.33L458.591 984.04C458.908 984.744 459.484 985.299 460.199 985.59C460.914 985.88 461.714 985.884 462.431 985.6L487.931 975.27C488.406 975.08 488.824 974.771 489.146 974.374C489.469 973.977 489.684 973.504 489.771 973ZM498.771 978L519.231 986.29C519.736 986.495 520.174 986.834 520.501 987.269C520.827 987.705 521.029 988.221 521.085 988.763C521.14 989.304 521.047 989.851 520.816 990.343C520.585 990.836 520.224 991.257 519.771 991.56L499.291 1005.78C498.803 1006.13 498.22 1006.31 497.621 1006.32C497.023 1006.31 496.442 1006.12 495.951 1005.78L475.491 991.56C475.041 991.254 474.682 990.83 474.453 990.335C474.225 989.84 474.136 989.292 474.196 988.75C474.255 988.209 474.461 987.693 474.792 987.26C475.122 986.826 475.565 986.491 476.071 986.29L496.531 978C497.265 977.734 498.073 977.755 498.791 978.06L498.771 978Z" fill="#C04927"/>
<path d="M478.961 946.16L499.701 962.33L521.121 946.16L511.121 836.38H488.961L478.961 946.16Z" fill="#85C5E5"/>
<path d="M477.699 828.55L488.679 839.53L478.959 946.16L499.699 962.33L521.119 946.16L511.409 839.53L522.389 828.55" stroke="#592D3D" stroke-width="8" stroke-miterlimit="10"/>
<path d="M637.54 963.08C640.468 962.667 643.425 962.51 646.38 962.61C649.28 962.68 652.16 962.91 655.04 963.26C656.47 963.44 657.91 963.63 659.34 963.87C660.784 964.081 662.215 964.365 663.63 964.72C666.65 965.455 669.524 966.696 672.13 968.39C669.486 969.987 666.613 971.167 663.61 971.89C662.2 972.25 660.79 972.52 659.38 972.75C657.97 972.98 656.57 973.22 655.17 973.44C652.37 973.86 649.58 974.22 646.82 974.44C644.06 974.66 641.3 974.94 638.66 974.98L632.66 975.08L631.66 963.95L637.54 963.08Z" fill="#592D3D"/>
<path d="M490.89 836.19L490.96 836.24C491.021 836.273 491.078 836.314 491.13 836.36L491.51 836.65C491.76 836.86 492.03 837.07 492.29 837.3C492.82 837.75 493.38 838.23 493.99 838.69C494.6 839.15 495.26 839.59 495.99 840.11C496.943 840.827 497.848 841.605 498.7 842.44C497.987 843.604 496.874 844.468 495.57 844.87C494.367 845.205 493.109 845.297 491.87 845.14C490.612 845.018 489.384 844.68 488.24 844.14C487.658 843.862 487.105 843.527 486.59 843.14C486.322 842.945 486.065 842.735 485.82 842.51C485.7 842.4 485.57 842.28 485.45 842.15L485.25 841.94L485 841.65L490.89 836.19Z" fill="#592D3D"/>
<path d="M375.878 603.9L306.238 534.26" stroke="#592D3D" stroke-width="16" stroke-miterlimit="10" stroke-linecap="round"/>
<path d="M306.238 603.9L375.878 534.26" stroke="#592D3D" stroke-width="16" stroke-miterlimit="10" stroke-linecap="round"/>
<path d="M695.99 603.9L626.34 534.26" stroke="#592D3D" stroke-width="16" stroke-miterlimit="10" stroke-linecap="round"/>
<path d="M626.34 603.9L695.99 534.26" stroke="#592D3D" stroke-width="16" stroke-miterlimit="10" stroke-linecap="round"/>
<path d="M443.141 621.86C443.141 602.96 556.861 605.8 556.861 621.86C556.861 636.94 550.87 651.403 540.207 662.066C529.543 672.73 515.081 678.72 500.001 678.72C484.92 678.72 470.458 672.73 459.795 662.066C449.131 651.403 443.141 636.94 443.141 621.86Z" fill="#592D3D"/>
<path d="M443.141 621.86C443.141 602.96 556.861 605.8 556.861 621.86C556.861 636.94 550.87 651.403 540.207 662.066C529.543 672.73 515.081 678.72 500.001 678.72C484.92 678.72 470.458 672.73 459.795 662.066C449.131 651.403 443.141 636.94 443.141 621.86Z" stroke="#592D3D" stroke-width="6" stroke-miterlimit="10"/>
<path d="M532.488 646.6C532.488 638.54 517.938 632 499.998 632C482.058 632 467.508 638.54 467.508 646.6V690.94C467.508 705.35 482.058 717.02 499.998 717.02C517.938 717.02 532.488 705.35 532.488 690.94V646.61V646.6Z" fill="#F28195"/>
<path d="M532.488 646.6C532.488 638.54 517.938 632 499.998 632C482.058 632 467.508 638.54 467.508 646.6V690.94C467.508 705.35 482.058 717.02 499.998 717.02C517.938 717.02 532.488 705.35 532.488 690.94V646.61V646.6Z" stroke="#592D3D" stroke-width="8" stroke-miterlimit="10"/>
<path d="M479.309 626.6L480.219 626.39L480.979 626.25C481.469 626.17 481.979 626.11 482.439 626.07C483.399 625.972 484.364 625.938 485.329 625.97C487.284 626.013 489.227 626.285 491.119 626.78C495.078 627.788 498.666 629.908 501.459 632.89C504.086 635.703 505.85 639.213 506.539 643C507.166 646.509 506.687 650.126 505.169 653.35C503.089 650.42 501.509 647.8 499.849 645.59C499.101 644.533 498.279 643.53 497.389 642.59C496.584 641.763 495.68 641.037 494.699 640.43C492.833 639.311 490.75 638.601 488.589 638.35C487.451 638.2 486.306 638.127 485.159 638.13C484.569 638.13 483.979 638.13 483.399 638.13L482.549 638.19H482.149C482.059 638.19 481.859 638.19 481.929 638.19L479.309 626.6Z" fill="#592D3D"/>
<path d="M558.418 406.88C545.548 430.88 498.418 444.33 494.588 438.3C490.288 431.57 532.438 382.98 508.488 332.16" fill="#8D5638"/>
<path d="M500.15 221.81C369 221.81 247.79 328.25 226 457C226 457 427.33 472.23 500.66 390.25C496.01 412.9 482.94 430.12 485.15 433.58C488.23 438.42 526.07 427.66 536.4 408.36L532.74 402.88C582.65 421 680.23 443.46 746 375.26C702.52 285 604.61 221.81 500.15 221.81Z" fill="#85C5E5"/>
<path d="M331.517 454.81C325.081 447.858 320.705 439.254 318.877 429.958C317.049 420.662 317.842 411.041 321.168 402.17C314.133 401.707 307.27 399.793 301.01 396.55C294.75 393.306 289.229 388.803 284.793 383.323C280.357 377.843 277.103 371.505 275.235 364.707C273.367 357.909 272.925 350.797 273.938 343.82C249.847 377.51 232.938 416.12 225.938 457C261.134 459.045 296.436 458.313 331.517 454.81Z" fill="#67B7D6"/>
<path d="M739.659 389.6C664.999 447 579.069 424.7 533.509 405.69C523.369 423.63 488.249 433.58 485.359 429.05C483.359 425.97 494.179 411.4 499.139 391.89C424.859 472.16 239.289 463.89 239.289 463.89" stroke="#592D3D" stroke-width="12" stroke-miterlimit="10"/>
<path d="M280.918 140.17C273.902 140.493 267.018 142.192 260.658 145.17C254.645 147.937 249.302 151.972 244.998 157C244.447 157.606 243.936 158.248 243.468 158.92C242.988 159.58 242.468 160.2 242.008 160.92C241.075 162.28 240.22 163.693 239.448 165.15C237.859 168.079 236.553 171.153 235.548 174.33C233.626 181.087 232.852 188.118 233.258 195.13C229.71 188.332 228.368 180.597 229.418 173L229.948 170.14L230.238 168.7C230.348 168.23 230.508 167.77 230.648 167.3C230.928 166.36 231.208 165.42 231.518 164.49C231.828 163.56 232.278 162.69 232.658 161.78C233.458 159.983 234.381 158.242 235.418 156.57C235.928 155.72 236.558 154.96 237.118 154.15C237.677 153.337 238.285 152.559 238.938 151.82C244.071 145.781 250.888 141.408 258.518 139.26C265.875 137.037 273.766 137.357 280.918 140.17Z" fill="white"/>
<path d="M358.878 77.1501C352.812 76.9441 346.75 77.6178 340.878 79.1501C335.37 80.643 330.144 83.0279 325.408 86.2101C320.676 89.4302 316.512 93.4145 313.088 98.0001C312.248 99.1801 311.288 100.31 310.558 101.58L309.348 103.46C308.918 104.08 308.638 104.76 308.258 105.46C306.714 108.163 305.345 110.962 304.158 113.84C303.733 110.608 303.865 107.327 304.548 104.14C304.718 103.34 304.818 102.51 305.068 101.72L305.808 99.3601C306.321 97.7751 306.959 96.2335 307.718 94.7501C310.74 88.6205 315.319 83.3926 320.998 79.5901C326.622 75.8039 333.129 73.534 339.888 73.0001C346.493 72.404 353.123 73.8527 358.878 77.1501Z" fill="white"/>
<path d="M603.097 452.29C614.141 449.477 625.327 447.253 636.607 445.63L633.997 446C647.168 444.081 660.535 443.92 673.747 445.52L671.087 445.16C674.367 445.61 677.627 446.16 680.907 446.57L678.247 446.22C688.2 447.586 698.05 449.624 707.727 452.32C712.727 453.72 718.837 450.6 720.027 445.32C720.681 442.763 720.317 440.051 719.011 437.757C717.705 435.463 715.56 433.765 713.027 433.02C701.683 429.914 690.125 427.648 678.447 426.24L681.097 426.6C670.069 424.643 658.849 423.988 647.667 424.65C636.541 425.382 625.48 426.899 614.567 429.19C608.957 430.33 603.377 431.63 597.807 433C592.727 434.25 589.197 440.26 590.807 445.3C591.556 447.83 593.255 449.972 595.548 451.277C597.841 452.582 600.55 452.949 603.107 452.3L603.097 452.29Z" fill="#592D3D"/>
<path d="M261.258 502.22L275.388 500.74L309.058 497.22L349.998 492.93L385.178 489.24C390.898 488.65 396.618 488.07 402.338 487.45H402.578C405.308 487.17 407.648 486.53 409.648 484.52C411.523 482.645 412.576 480.102 412.576 477.45C412.576 474.799 411.523 472.256 409.648 470.38C407.818 468.69 405.168 467.18 402.578 467.45L388.448 468.93L354.778 472.46L313.778 476.75L278.598 480.43C272.878 481.03 267.158 481.61 261.438 482.23H261.198C258.468 482.52 256.128 483.16 254.128 485.16C253.198 486.089 252.461 487.192 251.958 488.406C251.454 489.62 251.195 490.921 251.195 492.235C251.195 493.55 251.454 494.851 251.958 496.065C252.461 497.279 253.198 498.382 254.128 499.31C255.958 500.99 258.608 502.51 261.198 502.23L261.258 502.22Z" fill="#592D3D"/>
<path opacity="0.15" d="M725 631.82C736.169 613.163 745.002 593.203 751.3 572.39C734.06 608.13 701.46 637.85 659.19 637.85C630.923 637.813 603.825 626.566 583.839 606.577C563.853 586.587 552.612 559.487 552.58 531.22C552.541 517.431 555.201 503.768 560.41 491H758C762.345 501.64 764.919 512.919 765.62 524.39C766.35 516.39 766.74 508.2 766.74 499.97C766.736 490.282 766.208 480.601 765.16 470.97H575H423.14H234.83C233.782 480.601 233.254 490.282 233.25 499.97C233.25 504.7 233.39 509.39 233.63 514.06C234.899 506.152 237.07 498.415 240.1 491H437.7C444.271 507.194 446.764 524.753 444.96 542.136C443.156 559.518 437.11 576.191 427.353 590.69C417.596 605.189 404.428 617.069 389.005 625.287C373.581 633.505 356.376 637.809 338.9 637.82C300.1 637.82 270.08 611.99 251.42 580.93C257.712 599.398 266.015 617.118 276.18 633.77C295.57 645.84 314.43 657.82 338.9 657.82C372.467 657.781 404.648 644.431 428.387 620.698C452.125 596.965 465.482 564.787 465.53 531.22C465.53 529.41 465.53 527.61 465.41 525.82C488.79 517.59 510.93 517.47 532.72 525.46C532.64 527.37 532.58 529.29 532.58 531.22C532.62 564.792 545.974 596.978 569.713 620.717C593.452 644.456 625.638 657.81 659.21 657.85C685 657.85 705 645.1 725 631.82ZM535.26 505.18C511.86 497.63 487.62 497.76 462.93 505.57C461.916 500.639 460.603 495.773 459 491H539.1C537.538 495.646 536.255 500.381 535.26 505.18Z" fill="black"/>
<path opacity="0.95" d="M233.59 469.82C233.59 469.82 234 502.05 234 520.02C234 584.43 274.48 636.65 338.9 636.65C358.593 636.641 377.963 631.648 395.207 622.136C412.45 612.624 427.005 598.902 437.516 582.249C448.028 565.595 454.153 546.553 455.322 526.894C456.49 507.236 452.664 487.602 444.2 469.82H233.59Z" fill="#592D3D"/>
<path opacity="0.95" d="M553.909 469.82C545.445 487.602 541.619 507.236 542.788 526.894C543.956 546.553 550.082 565.595 560.593 582.249C571.104 598.902 585.659 612.624 602.903 622.136C620.146 631.648 639.516 636.641 659.209 636.65C723.629 636.65 766.749 584.43 766.749 520.02C766.749 502.02 764.519 469.82 764.519 469.82H553.909Z" fill="#592D3D"/>
<path opacity="0.25" d="M319.999 626.86L443.069 503.78C440.364 497.682 437.012 491.892 433.069 486.51L302.719 616.88C308.107 620.813 313.9 624.159 319.999 626.86Z" fill="white"/>
<path d="M455.859 507.53C485.379 495.53 514.389 495.11 542.859 507.53" stroke="#592D3D" stroke-width="20" stroke-miterlimit="10"/>
<path d="M274.277 504.75C276.337 511.26 268.337 516.26 262.337 517.26C256.337 517.26 252.337 513.26 250.337 508.26C249.337 503.26 250.337 498.26 254.337 495.26C259.337 493.26 266.337 491.26 270.777 496.38C271.889 497.472 272.771 498.775 273.372 500.212C273.973 501.649 274.28 503.192 274.277 504.75Z" fill="white"/>
<path d="M285.001 500.93C284.391 505.26 278.391 505.26 277.391 501.26C277.391 498.26 278.391 497.26 281.231 497.16C282.23 497.16 283.189 497.557 283.896 498.264C284.603 498.971 285.001 499.93 285.001 500.93Z" fill="white"/>
<path opacity="0.25" d="M645.19 618.92L751.47 512.64C750.896 508.855 750.091 505.108 749.06 501.42L634 616.51C637.678 617.54 641.415 618.344 645.19 618.92Z" fill="white"/>
<path d="M590.68 505.73C592.74 512.24 584.74 517.24 578.74 518.24C572.74 518.24 568.74 514.24 566.74 509.24C565.74 504.24 566.74 499.24 570.74 496.24C575.74 494.24 582.74 492.24 587.19 497.36C588.3 498.452 589.18 499.756 589.779 501.193C590.379 502.63 590.685 504.173 590.68 505.73Z" fill="white"/>
<path d="M601.348 501.91C600.738 506.24 594.738 506.24 593.738 502.24C593.738 499.24 594.738 498.24 597.588 498.14C598.083 498.14 598.573 498.238 599.029 498.427C599.486 498.617 599.901 498.895 600.251 499.245C600.6 499.595 600.877 500.011 601.065 500.468C601.253 500.926 601.35 501.416 601.348 501.91Z" fill="white"/>
<path d="M233.589 469.82C233.589 469.82 233.249 501.51 233.999 520.02C236.599 584.38 274.479 636.65 338.899 636.65C358.592 636.641 377.962 631.648 395.205 622.136C412.449 612.624 427.004 598.902 437.515 582.249C448.026 565.595 454.152 546.553 455.32 526.894C456.489 507.236 452.663 487.602 444.199 469.82H233.589Z" stroke="#592D3D" stroke-width="20" stroke-miterlimit="10"/>
<path d="M553.909 469.82C545.445 487.602 541.619 507.236 542.788 526.894C543.956 546.553 550.082 565.595 560.593 582.249C571.104 598.902 585.659 612.624 602.903 622.136C620.146 631.648 639.516 636.641 659.209 636.65C723.629 636.65 766.749 585.12 766.749 520.71C766.749 502.71 764.519 469.82 764.519 469.82H553.909Z" stroke="#592D3D" stroke-width="20" stroke-miterlimit="10"/>
<path d="M423.141 469.81H574.971" stroke="#592D3D" stroke-width="20" stroke-miterlimit="10"/>
</g>
</svg>
