<svg width="1000" height="990" viewBox="0 0 1000 990" fill="none" xmlns="http://www.w3.org/2000/svg">
<mask id="mask0_22_3279" style="mask-type:luminance" maskUnits="userSpaceOnUse" x="0" y="0" width="1000" height="966">
<path d="M1000 0H0V718.31H179.2C217.58 860.69 346.65 965.41 500 965.41C653.35 965.41 782.42 860.69 820.8 718.31H1000V0Z" fill="white"/>
</mask>
<g mask="url(#mask0_22_3279)">
<path d="M500.001 962.602C683.603 962.602 832.443 813.763 832.443 630.16C832.443 446.557 683.603 297.718 500.001 297.718C316.398 297.718 167.559 446.557 167.559 630.16C167.559 813.763 316.398 962.602 500.001 962.602Z" fill="#85C5E5"/>
<path d="M610 758.72C700.76 758.72 682 872.96 682.87 1000H610V758.72Z" fill="#D8985D"/>
<path d="M632.74 831.87L610 870L621.38 1000H653.14C653.91 819.73 632.74 831.87 632.74 831.87Z" fill="#C6854E"/>
<path d="M233.25 500C233.25 352.68 352.68 233.25 500 233.25C647.32 233.25 766.75 352.68 766.75 500C766.788 539.694 757.949 578.895 740.88 614.731C723.811 650.568 698.945 682.135 668.1 707.12C662.627 711.573 656.98 715.803 651.16 719.81C591 758 515 758 446.39 751.89C439.73 750.89 433.09 749.63 426.5 748.18C400.17 742.38 374.68 733.43 351.13 720.38C345.31 716.793 339.667 712.92 334.2 708.76C328.706 704.576 323.432 700.11 318.4 695.38C313.64 690.96 309.044 686.367 304.61 681.6C258.667 632.299 233.161 567.39 233.25 500Z" fill="#D8985D"/>
<path d="M269.612 634.48C270.312 635.68 271.002 636.88 271.722 638.06C272.152 638.78 272.602 639.48 273.052 640.2C273.712 641.27 274.372 642.34 275.052 643.39C275.532 644.15 276.052 644.89 276.512 645.63C277.172 646.63 277.832 647.63 278.512 648.63C279.022 649.39 279.512 650.15 280.072 650.91C280.732 651.91 281.392 652.83 282.072 653.79C282.612 654.56 283.172 655.32 283.722 656.09C284.272 656.86 285.062 657.94 285.722 658.86C286.382 659.78 286.872 660.39 287.452 661.15C288.032 661.91 288.822 662.95 289.522 663.85C290.222 664.75 290.712 665.36 291.312 666.11C291.912 666.86 292.722 667.87 293.432 668.74C294.142 669.61 294.662 670.23 295.282 670.97C295.902 671.71 296.722 672.69 297.452 673.54C298.182 674.39 298.722 675.01 299.362 675.74L301.582 678.24C302.232 678.97 302.892 679.68 303.582 680.4C304.442 681.34 305.312 682.27 306.182 683.19L307.392 684.47C308.682 685.81 309.982 687.15 311.302 688.47L311.562 688.74C312.852 690.02 314.162 691.29 315.472 692.55L317.052 694.05C318.002 694.94 318.952 695.83 319.912 696.71L321.072 697.77C322.072 698.71 323.162 699.63 324.212 700.55C327.478 703.397 330.812 706.127 334.212 708.74C339.672 712.9 345.315 716.773 351.142 720.36C374.692 733.36 400.142 742.36 426.512 748.16C433.102 749.61 439.742 750.86 446.402 751.87C488.502 755.62 533.402 757.05 575.682 748.79C508.452 729 185.592 612.74 388.802 257.48C386.082 258.73 383.402 260.02 380.742 261.36L380.152 261.65C378.932 262.26 377.712 262.89 376.502 263.53L375.502 264.06C371.742 266.06 368.022 268.13 364.372 270.29L363.472 270.82C362.312 271.51 361.162 272.21 360.012 272.92L359.142 273.46C355.568 275.693 352.052 278.003 348.592 280.39L347.512 281.14C346.422 281.9 345.352 282.66 344.282 283.43L343.622 283.9C341.442 285.493 339.288 287.107 337.162 288.74L336.542 289.22C335.542 290 334.542 290.8 333.542 291.61L332.372 292.55C331.372 293.36 330.372 294.17 329.372 295C327.262 296.75 325.182 298.55 323.132 300.37L321.992 301.37L319.302 303.82L318.002 305C315.148 307.667 312.358 310.39 309.632 313.17L308.252 314.58C307.462 315.4 306.672 316.22 305.892 317.05C305.432 317.54 304.972 318.05 304.522 318.53C303.148 319.997 301.795 321.483 300.462 322.99C300.012 323.5 299.552 323.99 299.102 324.53C298.392 325.34 297.692 326.16 296.992 326.98L295.482 328.77C294.802 329.58 294.122 330.39 293.482 331.21C292.942 331.87 292.402 332.54 291.872 333.21C290.802 334.54 289.752 335.87 288.712 337.21C288.172 337.91 287.632 338.61 287.102 339.32C286.572 340.03 285.902 340.91 285.312 341.72C284.722 342.53 284.242 343.17 283.722 343.9C283.202 344.63 282.592 345.45 282.042 346.23C281.095 347.563 280.162 348.913 279.242 350.28C278.742 351.01 278.242 351.76 277.752 352.5C277.262 353.24 276.652 354.16 276.112 355L274.622 357.31L272.942 360.02C272.512 360.71 272.082 361.4 271.662 362.09C270.772 363.55 269.912 365.02 269.052 366.49L267.832 368.65C267.292 369.6 266.752 370.56 266.222 371.52C265.822 372.25 265.422 372.98 265.032 373.71C264.392 374.9 263.762 376.1 263.132 377.3L261.932 379.64C261.292 380.92 260.652 382.19 260.022 383.48C259.692 384.17 259.352 384.87 259.022 385.57C258.502 386.66 258.022 387.76 257.492 388.86C257.182 389.52 256.882 390.18 256.582 390.86C255.842 392.507 255.118 394.173 254.412 395.86C254.192 396.38 253.982 396.91 253.762 397.43C253.232 398.7 252.712 399.97 252.202 401.25C251.932 401.92 251.672 402.59 251.412 403.25C250.912 404.51 250.412 405.78 249.962 407.05C249.752 407.6 249.542 408.15 249.342 408.7C248.715 410.453 248.098 412.207 247.492 413.96L246.932 415.66C246.492 416.993 246.062 418.327 245.642 419.66L245.042 421.57C244.572 423.11 244.112 424.65 243.672 426.2C243.572 426.53 243.472 426.86 243.382 427.2C242.862 429.04 242.362 430.887 241.882 432.74C241.722 433.33 241.582 433.93 241.432 434.52C241.082 435.91 240.742 437.3 240.432 438.7L240.012 440.45C239.582 442.35 239.162 444.25 238.772 446.16L238.622 446.93C238.282 448.63 237.948 450.33 237.622 452.03C237.512 452.64 237.412 453.24 237.302 453.85C237.042 455.34 236.792 456.85 236.562 458.35C236.482 458.86 236.392 459.35 236.322 459.87C236.022 461.82 235.752 463.78 235.492 465.75L235.342 467.05C235.142 468.64 234.962 470.24 234.792 471.84C234.732 472.44 234.662 473.04 234.602 473.65C234.442 475.33 234.292 477.02 234.152 478.71C234.152 479.06 234.092 479.4 234.072 479.71C233.925 481.71 233.795 483.727 233.682 485.76C233.682 486.29 233.682 486.83 233.612 487.36C233.545 488.933 233.485 490.503 233.432 492.07C233.432 492.66 233.432 493.25 233.432 493.84C233.432 495.89 233.352 497.95 233.352 500.01C233.352 500.01 233.352 500.08 233.352 500.11C233.352 502.33 233.352 504.53 233.432 506.73C233.432 507.49 233.492 508.25 233.512 509.01C233.562 510.48 233.612 511.95 233.682 513.42C233.682 514.31 233.792 515.19 233.842 516.08C233.922 517.41 233.992 518.74 234.092 520.08C234.162 521.08 234.252 521.97 234.332 522.91C234.442 524.17 234.542 525.43 234.672 526.68C234.762 527.68 234.882 528.62 234.982 529.59C235.122 530.8 235.252 532.02 235.402 533.23C235.522 534.23 235.662 535.23 235.792 536.18C235.952 537.36 236.112 538.55 236.292 539.73C236.442 540.73 236.602 541.73 236.762 542.73C236.942 543.89 237.132 545.06 237.332 546.22C237.512 547.22 237.692 548.22 237.882 549.22C238.092 550.37 238.312 551.52 238.532 552.66C238.752 553.8 238.942 554.66 239.152 555.66C239.392 556.8 239.632 557.93 239.892 559.06C240.152 560.19 240.332 561.06 240.572 561.99C240.832 563.12 241.112 564.24 241.392 565.35C241.672 566.46 241.882 567.3 242.132 568.26C242.432 569.38 242.732 570.49 243.042 571.6C243.302 572.6 243.572 573.52 243.852 574.47C244.172 575.58 244.502 576.68 244.852 577.78C245.202 578.88 245.432 579.67 245.732 580.62C246.032 581.57 246.432 582.81 246.792 583.9C247.152 584.99 247.412 585.77 247.732 586.7C248.112 587.79 248.492 588.88 248.882 589.97C249.212 590.88 249.532 591.8 249.882 592.71L251.122 595.98C251.472 596.87 251.812 597.77 252.122 598.66C252.562 599.75 253.012 600.85 253.462 601.94C253.822 602.8 254.172 603.67 254.542 604.53C255.012 605.65 255.542 606.75 255.992 607.86C256.362 608.68 256.722 609.51 257.092 610.33C257.612 611.49 258.162 612.63 258.692 613.77L259.772 616.07C260.382 617.33 261.012 618.57 261.642 619.82C261.962 620.45 262.262 621.09 262.592 621.72C264.512 625.46 266.512 629.15 268.592 632.79C268.882 633.26 269.252 633.87 269.612 634.48Z" fill="#C6854E"/>
<path d="M233.25 500C233.25 352.68 352.68 233.25 500 233.25C647.32 233.25 766.75 352.68 766.75 500C766.788 539.694 757.949 578.895 740.88 614.731C723.811 650.568 698.945 682.135 668.1 707.12C662.627 711.573 656.98 715.803 651.16 719.81C591 758 515 758 446.39 751.89C439.73 750.89 433.09 749.63 426.5 748.18C400.17 742.38 374.68 733.43 351.13 720.38C345.31 716.793 339.667 712.92 334.2 708.76C328.706 704.576 323.432 700.11 318.4 695.38C313.64 690.96 309.044 686.367 304.61 681.6C258.667 632.299 233.161 567.39 233.25 500Z" stroke="#592D3D" stroke-width="12" stroke-miterlimit="10"/>
<path d="M386.122 758.72C295.352 758.72 314.122 872.96 313.252 1000H386.122V758.72Z" fill="#D8985D"/>
<path d="M367.232 831.87L390.002 870L378.612 1000H346.882C346.072 819.73 367.232 831.87 367.232 831.87Z" fill="#C6854E"/>
<path d="M619.472 1070H380.532C377.011 1070 373.636 1068.6 371.148 1066.11C368.659 1063.62 367.262 1060.24 367.262 1056.72V772C367.262 768.48 368.659 765.103 371.148 762.613C373.636 760.123 377.011 758.723 380.532 758.72H613.762C626.852 758.72 632.762 766.38 632.762 778.6V1056.68C632.767 1058.43 632.427 1060.16 631.761 1061.78C631.096 1063.39 630.117 1064.86 628.883 1066.1C627.648 1067.34 626.181 1068.32 624.566 1068.99C622.951 1069.66 621.22 1070 619.472 1070Z" fill="#D8985D"/>
<path d="M629.052 766.62C628.055 765.394 627.212 764.051 626.542 762.62C624.141 760.738 621.284 759.527 618.262 759.11C616.773 758.879 615.268 758.766 613.762 758.77H380.532C377.02 758.773 373.652 760.166 371.165 762.645C368.679 765.125 367.275 768.488 367.262 772C396.262 782.42 450.552 788.24 500.002 788.24C563.062 788.24 604.382 778.89 629.052 766.62Z" fill="#C6854E"/>
<path d="M610 758.72C700.76 758.72 682 872.96 682.87 1000H632.74" stroke="#592D3D" stroke-width="12" stroke-miterlimit="10" stroke-linecap="square"/>
<path d="M386.122 758.72C295.352 758.72 314.122 872.96 313.252 1000H363.322" stroke="#592D3D" stroke-width="12" stroke-miterlimit="10" stroke-linecap="square"/>
<path d="M380.531 758.82L613.761 758.72" stroke="#592D3D" stroke-width="12" stroke-miterlimit="10"/>
<path d="M380.532 1070H497.152C388.002 1070 396.242 838.82 367.262 838.82V1056.68C367.257 1058.43 367.596 1060.16 368.26 1061.77C368.925 1063.39 369.901 1064.86 371.134 1066.09C372.366 1067.33 373.831 1068.31 375.444 1068.98C377.056 1069.65 378.785 1070 380.532 1070Z" fill="#C6854E"/>
<path d="M361.259 860.85C361.069 857.18 361.149 853.51 361.309 849.85C361.469 846.19 361.779 842.5 362.169 838.85C362.369 837.01 362.569 835.18 362.819 833.34C363.069 831.5 363.309 829.67 363.669 827.83C364.378 824.022 365.585 820.324 367.259 816.83C368.933 820.324 370.14 824.022 370.849 827.83C371.209 829.67 371.469 831.5 371.699 833.34C371.929 835.18 372.149 837.01 372.349 838.85C372.729 842.52 373.029 846.19 373.199 849.85C373.369 853.51 373.449 857.19 373.259 860.85H361.259Z" fill="#592D3D"/>
<path d="M632.742 870V878C633.002 912 633.002 947 632.742 980.75C632.742 983.62 632.742 986.47 632.742 989.28V1056.69C632.746 1058.44 632.405 1060.16 631.74 1061.78C631.075 1063.39 630.099 1064.86 628.866 1066.1C627.634 1067.33 626.17 1068.31 624.558 1068.98C622.946 1069.65 621.217 1070 619.472 1070H380.532C377.011 1070 373.636 1068.6 371.148 1066.11C368.659 1063.62 367.262 1060.24 367.262 1056.72V998.52C367.262 996.01 367.262 993.45 367.262 990.87C367.012 956 367.012 921 367.262 885.57V860.85" stroke="#592D3D" stroke-width="12" stroke-miterlimit="10"/>
<path d="M626.74 870C626.55 865.83 626.64 861.65 626.8 857.47C626.96 853.29 627.27 849.12 627.65 844.94C627.85 842.85 628.06 840.76 628.3 838.67C628.54 836.58 628.79 834.5 629.15 832.41C629.847 828.106 631.052 823.9 632.74 819.88C634.428 823.9 635.633 828.106 636.33 832.41C636.69 834.5 636.95 836.59 637.18 838.67C637.41 840.75 637.63 842.85 637.83 844.94C638.21 849.12 638.52 853.29 638.68 857.47C638.84 861.65 638.93 865.83 638.74 870H626.74Z" fill="#592D3D"/>
<path d="M502.069 878.86C502.067 889.337 499.69 899.678 495.117 909.104C490.543 918.53 483.892 926.797 475.663 933.282C467.435 939.768 457.843 944.303 447.609 946.548C437.375 948.793 426.765 948.688 416.578 946.242C406.39 943.796 396.89 939.072 388.79 932.426C380.691 925.779 374.204 917.383 369.818 907.869C365.431 898.354 363.258 887.969 363.462 877.494C363.667 867.018 366.244 856.726 370.999 847.39" stroke="#592D3D" stroke-width="12" stroke-miterlimit="10"/>
<path d="M371 847.39C374.787 839.991 379.867 833.33 386 827.72Z" fill="#D8985D"/>
<path d="M365.652 844.66C366.53 842.58 367.666 840.618 369.032 838.82C370.388 837.02 371.904 835.346 373.562 833.82C374.402 833.06 375.252 832.32 376.142 831.63C377.026 830.915 377.966 830.273 378.952 829.71C381.086 828.479 383.49 827.792 385.952 827.71C385.693 830.051 385.104 832.344 384.202 834.52C383.812 835.52 383.372 836.4 382.912 837.29L381.612 839.96C380.762 841.72 379.922 843.45 379.062 845.15C378.23 846.864 377.309 848.533 376.302 850.15L365.652 844.66Z" fill="#592D3D"/>
<path d="M489.332 838.82C497.63 850.507 502.083 864.487 502.072 878.82Z" fill="#D8985D"/>
<path d="M489.332 838.82C492.746 840.671 495.712 843.248 498.022 846.37C499.172 847.888 500.208 849.489 501.122 851.16C502.052 852.83 502.892 854.55 503.672 856.31C505.207 859.846 506.366 863.533 507.132 867.31C507.909 871.101 508.225 874.973 508.072 878.84H496.072C495.882 875.59 495.712 872.36 495.372 869.11C495.032 865.86 494.602 862.63 493.972 859.37L493.472 856.93L492.892 854.48C492.472 852.85 492.022 851.22 491.602 849.55C490.657 846.016 489.9 842.434 489.332 838.82Z" fill="#592D3D"/>
<path d="M641.651 878.86C641.662 869.372 639.719 859.983 635.945 851.278C632.17 842.572 626.644 834.737 619.711 828.26" fill="#D8985D"/>
<path d="M635.651 878.86C635.49 874.552 635.07 870.257 634.391 866C633.689 861.7 632.646 857.464 631.271 853.33C630.931 852.33 630.531 851.26 630.161 850.22C629.791 849.18 629.321 848.17 628.911 847.13C628.501 846.09 627.971 845.13 627.531 844.08L626.071 841.08C624.071 836.98 621.901 832.89 619.711 828.33C624.345 830.307 628.51 833.241 631.931 836.94C632.761 837.88 633.631 838.8 634.401 839.79C635.171 840.78 635.941 841.79 636.651 842.79C637.361 843.79 638.081 844.88 638.721 845.97C639.361 847.06 640.031 848.15 640.601 849.29C642.981 853.813 644.795 858.613 646.001 863.58C647.233 868.576 647.778 873.717 647.621 878.86H635.651Z" fill="#592D3D"/>
<path d="M503.001 878.86C502.891 888.031 504.602 897.133 508.036 905.638C511.469 914.143 516.557 921.882 523.003 928.407C529.45 934.931 537.127 940.111 545.59 943.647C554.053 947.182 563.134 949.003 572.306 949.003C581.478 949.003 590.559 947.182 599.022 943.647C607.485 940.111 615.163 934.931 621.609 928.407C628.056 921.882 633.143 914.143 636.577 905.638C640.01 897.133 641.721 888.031 641.611 878.86" stroke="#592D3D" stroke-width="12" stroke-miterlimit="10"/>
<path d="M515.769 838.82C507.475 850.508 503.025 864.488 503.039 878.82Z" fill="#D8985D"/>
<path d="M515.772 838.82C515.205 842.441 514.448 846.029 513.502 849.57C513.082 851.24 512.632 852.87 512.212 854.5L511.642 856.95L511.142 859.39C510.512 862.65 510.052 865.89 509.732 869.13C509.412 872.37 509.232 875.61 509.042 878.86H497.002C496.84 874.993 497.156 871.12 497.942 867.33C498.703 863.551 499.863 859.864 501.402 856.33C502.172 854.57 503.012 852.85 503.942 851.18C504.86 849.512 505.896 847.911 507.042 846.39C509.364 843.259 512.344 840.675 515.772 838.82Z" fill="#592D3D"/>
<path d="M383.441 837.55V758.72" stroke="#592D3D" stroke-width="12" stroke-miterlimit="10"/>
<path d="M616.461 837.55V758.72" stroke="#592D3D" stroke-width="12" stroke-miterlimit="10"/>
<path d="M470.5 897.78H524.4V917.48C506.66 911.43 488.69 911.58 470.5 917.48V897.78Z" fill="#85C5E5" stroke="#592D3D" stroke-width="12" stroke-miterlimit="10"/>
<path d="M638.101 878.86C638.126 861.305 631.464 844.399 619.471 831.58C615.251 827.06 575.201 837.77 551.661 858.84C528.551 879.53 508.431 913.33 511.311 917.59C519.607 929.903 531.637 939.226 545.63 944.187C559.624 949.148 574.84 949.485 589.039 945.147C603.238 940.81 615.669 932.028 624.501 920.095C633.334 908.161 638.101 893.707 638.101 878.86Z" fill="#85C5E5" stroke="#592D3D" stroke-width="12" stroke-miterlimit="10"/>
<path d="M598.112 848.39C591.992 852.06 585.962 855.57 580.112 859.39C574.338 863.08 568.816 867.149 563.582 871.57C558.432 876.03 553.472 880.89 548.582 885.83C543.692 890.77 538.892 895.83 533.832 900.9C536.9 894.462 540.648 888.371 545.012 882.73C549.369 877.001 554.298 871.731 559.722 867C565.241 862.329 571.338 858.386 577.862 855.27C584.289 852.118 591.095 849.805 598.112 848.39Z" fill="white"/>
<path d="M361.902 878.86C361.877 861.305 368.539 844.399 380.532 831.58C384.752 827.06 424.802 837.77 448.342 858.84C471.452 879.53 491.572 913.33 488.692 917.59C480.396 929.903 468.366 939.226 454.373 944.187C440.38 949.148 425.163 949.485 410.964 945.147C396.765 940.81 384.334 932.028 375.502 920.095C366.669 908.161 361.902 893.707 361.902 878.86Z" fill="#85C5E5" stroke="#592D3D" stroke-width="12" stroke-miterlimit="10"/>
<path d="M455.751 938.92C433.112 938.92 411.4 929.927 395.392 913.919C379.384 897.911 370.391 876.199 370.391 853.56C370.391 850.651 370.537 847.744 370.831 844.85C363.312 858.198 360.428 873.662 362.629 888.823C364.831 903.984 371.993 917.989 382.997 928.648C394.002 939.307 408.227 946.02 423.451 947.738C438.675 949.455 454.038 946.08 467.141 938.14C463.366 938.653 459.561 938.914 455.751 938.92Z" fill="#67B7D6"/>
<path d="M361.902 878.86C361.877 861.305 368.539 844.399 380.532 831.58C384.752 827.06 424.802 837.77 448.342 858.84C471.452 879.53 491.572 913.33 488.692 917.59C480.396 929.903 468.366 939.226 454.373 944.187C440.38 949.148 425.163 949.485 410.964 945.147C396.765 940.81 384.334 932.028 375.502 920.095C366.669 908.161 361.902 893.707 361.902 878.86Z" stroke="#592D3D" stroke-width="12" stroke-miterlimit="10"/>
<path d="M401.891 848.39C408.907 849.802 415.713 852.111 422.141 855.26C428.666 858.38 434.762 862.325 440.281 867C445.683 871.727 450.592 876.991 454.931 882.71C459.295 888.351 463.043 894.442 466.111 900.88C461.051 895.88 456.271 890.75 451.361 885.81C446.451 880.87 441.521 876.01 436.361 871.55C431.126 867.129 425.604 863.06 419.831 859.37C414.001 855.57 408.001 852.06 401.891 848.39Z" fill="white"/>
<path d="M680.7 905.78C680.9 868.68 679.49 835.71 672.96 810.39C662.88 785.04 644.78 769.92 612.84 769.92L635.69 904.39C635.69 904.39 658.2 914.68 680.7 905.78Z" fill="#C6854E"/>
<path d="M689.299 895.23C688.161 896.168 686.924 896.98 685.609 897.65" stroke="#592D3D" stroke-width="12" stroke-miterlimit="10" stroke-linecap="square"/>
<path d="M328.999 809.32C322.179 834.89 320.999 868.45 321.259 906.32C341.159 914.87 371.689 904.17 371.689 904.17L388.999 771.89C358.139 771.89 339.739 785.79 328.999 809.32Z" fill="#C6854E"/>
<path d="M616.662 758.16L578.222 758.26C578.222 811.98 502.892 869.4 502.892 869.4C502.892 869.4 422.092 808.82 422.092 758.26L383.432 758.16C379.912 758.16 376.536 759.558 374.046 762.046C371.555 764.534 370.155 767.91 370.152 771.43V1056.12C370.155 1059.64 371.555 1063.02 374.046 1065.5C376.536 1067.99 379.912 1069.39 383.432 1069.39H622.362C625.882 1069.39 629.257 1067.99 631.746 1065.5C634.234 1063.01 635.632 1059.64 635.632 1056.12V778C635.632 765.82 629.752 758.16 616.662 758.16Z" fill="#85C5E5"/>
<path d="M612.84 758.16C676.38 758.16 686.24 814.16 686.74 891.32C668.15 902.94 637.83 892.64 637.83 892.64L612.84 758.16Z" fill="#85C5E5"/>
<path d="M635.63 831.31L612.84 869.4L624.23 999.4H635.83V893.78L653.11 896.67C647.49 824.5 635.63 831.31 635.63 831.31Z" fill="#67B7D6"/>
<path d="M389.002 758.16C327.222 758.16 313.182 811.95 312.152 885.82C331.152 905.67 370.102 890.4 370.102 890.4L389.002 758.16Z" fill="#85C5E5"/>
<path d="M370.122 831.31V890.4L352.812 894.7C358.483 824.63 370.122 831.31 370.122 831.31Z" fill="#67B7D6"/>
<path d="M612.84 758.16C680.26 758.16 691.29 814.44 691.74 891.94C665.54 904.36 637.83 892.64 637.83 892.64" stroke="#592D3D" stroke-width="12" stroke-miterlimit="10" stroke-linecap="square"/>
<path d="M389 758.16C322.21 758.16 308.92 812.85 308.25 888.87C328.84 903.66 370.1 890.4 370.1 890.4" stroke="#592D3D" stroke-width="12" stroke-miterlimit="10" stroke-linecap="square"/>
<path d="M383.429 1069.39H499.999C390.809 1069.39 399.089 838.25 370.109 838.25V1056.12C370.111 1057.87 370.456 1059.6 371.127 1061.21C371.797 1062.82 372.779 1064.29 374.017 1065.52C375.254 1066.75 376.722 1067.73 378.337 1068.39C379.953 1069.06 381.683 1069.4 383.429 1069.39Z" fill="#67B7D6"/>
<path d="M364.149 860.29C363.959 856.62 364.039 852.94 364.209 849.29C364.379 845.64 364.679 841.95 365.059 838.29C365.259 836.46 365.469 834.62 365.709 832.78C365.949 830.94 366.199 829.11 366.559 827.28C367.267 823.471 368.474 819.773 370.149 816.28C371.824 819.773 373.031 823.471 373.739 827.28C374.099 829.11 374.359 830.95 374.589 832.78C374.819 834.61 375.039 836.46 375.239 838.29C375.626 841.97 375.912 845.637 376.099 849.29C376.259 852.96 376.339 856.64 376.099 860.29H364.149Z" fill="#592D3D"/>
<path d="M635.632 869.4V877.4C635.892 911.4 635.892 946.4 635.632 980.16C635.632 983.03 635.632 985.88 635.632 988.69V1056.1C635.632 1059.62 634.234 1062.99 631.745 1065.48C629.257 1067.97 625.881 1069.37 622.362 1069.37H383.432C379.912 1069.37 376.535 1067.97 374.045 1065.48C371.555 1063 370.155 1059.62 370.152 1056.1V990.3C369.892 955.44 369.892 920.44 370.152 885V860.29" stroke="#592D3D" stroke-width="12" stroke-miterlimit="10"/>
<path d="M629.63 869.4C629.44 865.22 629.53 861.04 629.69 856.87C629.85 852.7 630.16 848.51 630.55 844.34C630.75 842.25 630.95 840.16 631.19 838.07C631.43 835.98 631.68 833.89 632.05 831.8C632.741 827.496 633.943 823.29 635.63 819.27C637.325 823.288 638.531 827.494 639.22 831.8C639.58 833.89 639.85 835.98 640.07 838.07C640.29 840.16 640.52 842.25 640.72 844.34C641.11 848.51 641.41 852.69 641.57 856.87C641.73 861.05 641.83 865.22 641.63 869.4H629.63Z" fill="#592D3D"/>
<path d="M383.43 758.26L616.66 758.16" stroke="#592D3D" stroke-width="12" stroke-miterlimit="10"/>
<path d="M310.719 891.94C311.857 892.972 313.089 893.896 314.399 894.7" stroke="#592D3D" stroke-width="12" stroke-miterlimit="10" stroke-linecap="square"/>
<path d="M677.59 882.13C675.509 883.367 673.222 884.22 670.84 884.65C668.465 885.113 666.049 885.327 663.63 885.29C661.221 885.247 658.821 884.986 656.46 884.51C655.28 884.29 654.12 883.94 652.97 883.64C651.82 883.34 650.69 882.86 649.59 882.4C650.8 882.4 651.98 882.57 653.15 882.67L656.67 882.96C657.84 882.96 659 883.16 660.17 883.17C661.34 883.18 662.5 883.28 663.66 883.29C665.98 883.34 668.3 883.29 670.66 883.11C672.99 882.943 675.305 882.616 677.59 882.13Z" fill="#592D3D"/>
<path d="M578.22 758.26C578.22 811.98 502.89 869.4 502.89 869.4C502.89 869.4 422.09 808.82 422.09 758.26" stroke="#592D3D" stroke-width="12" stroke-miterlimit="10"/>
<path fill-rule="evenodd" clip-rule="evenodd" d="M490.592 889C485.892 891.37 475.972 896 470.592 899.65C465.212 903.3 465.892 906.75 463.542 909.12C461.192 911.49 454.142 917.4 449.442 920.95C444.742 924.5 445.912 933.95 444.742 937.51C443.572 941.07 441.212 949.34 440.032 952.89C438.852 956.44 442.382 961.17 444.742 965.89C447.102 970.61 452.962 983.63 455.312 988.37C457.662 993.11 464.722 990.73 470.592 995.46C476.971 1000.59 483.65 1005.33 490.592 1009.66C496.462 1013.21 498.822 1013.21 504.692 1009.66C511.635 1005.33 518.314 1000.59 524.692 995.46C530.572 990.73 537.622 993.1 539.982 988.37C542.342 983.64 548.202 970.62 550.552 965.89C552.902 961.16 556.432 956.42 555.262 952.89C554.092 949.36 551.732 941.06 550.552 937.51C549.372 933.96 550.552 924.51 545.852 920.95C540.946 917.258 536.24 913.309 531.752 909.12C527.752 905.35 529.402 903.2 524.692 899.65C519.982 896.1 509.412 891.37 504.692 889C502.523 887.838 500.102 887.231 497.642 887.231C495.182 887.231 492.76 887.838 490.592 889Z" fill="white"/>
<path fill-rule="evenodd" clip-rule="evenodd" d="M474.001 909.46L496.001 924.46C496.5 924.79 497.083 924.97 497.681 924.98C498.277 924.976 498.859 924.795 499.351 924.46L521.351 909.39C521.773 909.089 522.11 908.684 522.329 908.214C522.547 907.744 522.641 907.226 522.599 906.709C522.558 906.192 522.384 905.695 522.093 905.266C521.803 904.837 521.406 904.49 520.941 904.26L498.941 893.36C498.529 893.162 498.078 893.06 497.621 893.06C497.164 893.06 496.713 893.162 496.301 893.36L474.361 904.26C473.889 904.491 473.486 904.843 473.192 905.279C472.898 905.716 472.725 906.221 472.688 906.746C472.652 907.271 472.754 907.796 472.984 908.269C473.215 908.742 473.566 909.146 474.001 909.44V909.46ZM505.141 929.19C505.138 929.68 505.255 930.163 505.482 930.597C505.709 931.031 506.038 931.403 506.441 931.68L524.081 943.74C524.632 944.11 525.29 944.288 525.952 944.245C526.615 944.201 527.244 943.939 527.741 943.5L542.531 930.27C542.86 929.979 543.121 929.62 543.295 929.217C543.469 928.814 543.553 928.378 543.541 927.94C543.529 927.501 543.42 927.07 543.223 926.678C543.026 926.286 542.746 925.942 542.401 925.67L528.281 914.38C527.782 913.982 527.168 913.753 526.529 913.728C525.891 913.703 525.261 913.882 524.731 914.24L506.441 926.75C506.043 927.022 505.716 927.385 505.488 927.81C505.26 928.235 505.138 928.708 505.131 929.19H505.141ZM461.271 945.59C461.627 945.904 461.903 946.298 462.077 946.74C462.251 947.181 462.317 947.658 462.271 948.13C462.222 948.602 462.061 949.056 461.802 949.454C461.543 949.853 461.193 950.183 460.781 950.42L450.251 956.73C449.729 957.039 449.126 957.182 448.521 957.141C447.916 957.1 447.337 956.877 446.861 956.5C446.382 956.122 446.029 955.606 445.85 955.021C445.671 954.437 445.675 953.812 445.861 953.23L449.761 940.98C449.909 940.502 450.174 940.069 450.532 939.72C450.89 939.37 451.33 939.116 451.811 938.98C452.293 938.843 452.801 938.831 453.288 938.947C453.774 939.062 454.223 939.301 454.591 939.64L461.271 945.59ZM518.401 946.87L499.351 933.87C498.857 933.539 498.276 933.362 497.681 933.362C497.087 933.362 496.505 933.539 496.011 933.87L477.011 946.87C476.635 947.128 476.322 947.468 476.097 947.865C475.871 948.262 475.74 948.705 475.711 949.16C475.688 949.618 475.765 950.076 475.938 950.501C476.11 950.926 476.375 951.308 476.711 951.62L495.711 968.62C496.26 969.112 496.974 969.38 497.711 969.37C498.448 969.374 499.159 969.107 499.711 968.62L518.711 951.62C519.056 951.314 519.325 950.933 519.498 950.507C519.672 950.08 519.745 949.619 519.711 949.16C519.681 948.703 519.546 948.259 519.317 947.862C519.088 947.465 518.772 947.126 518.391 946.87H518.401ZM467.601 943.5L452.821 930.27C452.493 929.971 452.234 929.604 452.061 929.195C451.889 928.786 451.807 928.344 451.821 927.9C451.83 927.461 451.935 927.03 452.128 926.636C452.322 926.242 452.599 925.895 452.941 925.62L467.061 914.26C467.564 913.858 468.182 913.629 468.825 913.606C469.468 913.582 470.101 913.766 470.631 914.13L488.901 926.63C489.318 926.908 489.661 927.284 489.898 927.725C490.135 928.166 490.26 928.659 490.261 929.16C490.263 929.66 490.139 930.153 489.902 930.593C489.664 931.033 489.32 931.407 488.901 931.68L471.281 943.74C470.729 944.115 470.067 944.296 469.4 944.252C468.734 944.209 468.101 943.944 467.601 943.5ZM543.481 962.5L528.431 953.5C527.885 953.179 527.252 953.039 526.621 953.1C525.991 953.161 525.396 953.42 524.921 953.84L506.531 970.25C506.155 970.59 505.872 971.019 505.707 971.498C505.542 971.978 505.501 972.491 505.587 972.99C505.674 973.489 505.886 973.958 506.203 974.354C506.521 974.749 506.933 975.057 507.401 975.25L532.911 985.59C533.632 985.876 534.435 985.873 535.152 985.58C535.87 985.287 536.447 984.728 536.761 984.02L544.661 966.31C544.963 965.642 545.009 964.886 544.792 964.186C544.575 963.486 544.108 962.89 543.481 962.51V962.5ZM545.571 941L549.461 953.25C549.608 953.701 549.646 954.18 549.572 954.649C549.498 955.117 549.314 955.562 549.035 955.945C548.756 956.329 548.39 956.641 547.967 956.855C547.544 957.07 547.076 957.181 546.601 957.18C546.065 957.18 545.539 957.031 545.081 956.75L534.531 950.44C534.125 950.202 533.782 949.87 533.531 949.471C533.281 949.073 533.13 948.619 533.091 948.15C533.045 947.678 533.112 947.201 533.286 946.76C533.46 946.318 533.736 945.924 534.091 945.61L540.781 939.61C541.152 939.279 541.6 939.046 542.083 938.93C542.567 938.815 543.071 938.822 543.551 938.95C544.033 939.095 544.47 939.359 544.823 939.717C545.176 940.075 545.434 940.516 545.571 941ZM489.771 973C489.855 972.493 489.807 971.973 489.632 971.489C489.457 971.006 489.161 970.576 488.771 970.24L470.381 953.83C469.907 953.41 469.312 953.151 468.682 953.09C468.051 953.029 467.417 953.169 466.871 953.49L451.871 962.49C451.239 962.875 450.769 963.478 450.549 964.184C450.328 964.891 450.371 965.653 450.671 966.33L458.591 984.04C458.908 984.744 459.484 985.299 460.199 985.59C460.914 985.88 461.714 985.884 462.431 985.6L487.931 975.27C488.406 975.08 488.824 974.771 489.146 974.374C489.469 973.977 489.684 973.504 489.771 973ZM498.771 978L519.231 986.29C519.736 986.495 520.174 986.834 520.501 987.269C520.827 987.705 521.029 988.221 521.085 988.763C521.14 989.304 521.047 989.851 520.816 990.343C520.585 990.836 520.224 991.257 519.771 991.56L499.291 1005.78C498.803 1006.13 498.22 1006.31 497.621 1006.32C497.023 1006.31 496.442 1006.12 495.951 1005.78L475.491 991.56C475.041 991.254 474.682 990.83 474.453 990.335C474.225 989.84 474.136 989.292 474.196 988.75C474.255 988.209 474.461 987.693 474.792 987.26C475.122 986.826 475.565 986.491 476.071 986.29L496.531 978C497.265 977.734 498.073 977.755 498.791 978.06L498.771 978Z" fill="#C04927"/>
<path opacity="0.1" d="M426.882 961.63C441.357 961.628 455.469 957.095 467.238 948.666C479.006 940.237 487.841 928.335 492.502 914.63C486.585 924.751 478.255 933.249 468.254 939.366C458.254 945.483 446.894 949.028 435.19 949.686C423.485 950.343 411.8 948.092 401.177 943.134C390.554 938.176 381.324 930.664 374.312 921.27L374.262 936C387.002 951.63 405.152 961.63 426.882 961.63Z" fill="black"/>
<path opacity="0.1" d="M573.12 961.63C558.644 961.628 544.532 957.095 532.764 948.666C520.995 940.237 512.161 928.335 507.5 914.63C513.416 924.751 521.747 933.249 531.747 939.366C541.748 945.483 553.108 949.028 564.812 949.686C576.517 950.343 588.202 948.092 598.825 943.134C609.448 938.176 618.677 930.664 625.69 921.27V935.99C613 951.63 594.85 961.63 573.12 961.63Z" fill="black"/>
<path d="M407.002 943.81C396.331 939.827 386.805 933.277 379.267 924.737C371.73 916.198 366.412 905.933 363.784 894.85C361.156 883.767 361.3 872.208 364.202 861.194C367.104 850.179 372.674 840.05 380.422 831.7" fill="#85C5E5"/>
<path d="M406.999 943.81C395.176 941.88 384.258 936.283 375.789 927.81L374.169 926.21C373.639 925.67 373.169 925.08 372.639 924.52C372.109 923.96 371.639 923.37 371.159 922.79C370.652 922.219 370.174 921.621 369.729 921C368.829 919.77 367.919 918.54 367.049 917.28L364.679 913.35C361.688 907.965 359.431 902.204 357.969 896.22C356.61 890.22 356.042 884.068 356.279 877.92C356.551 871.812 357.696 865.774 359.679 859.99C359.939 859.28 360.169 858.56 360.439 857.85L361.319 855.75C361.869 854.35 362.579 853.01 363.229 851.66C364.619 849.003 366.203 846.453 367.969 844.03C368.819 842.82 369.789 841.68 370.719 840.54C371.649 839.4 372.659 838.31 373.719 837.31C375.786 835.244 378.039 833.373 380.449 831.72C374.659 841.72 370.549 851.91 368.789 862.39C367.874 867.541 367.479 872.77 367.609 878C367.802 883.187 368.471 888.346 369.609 893.41C370.842 898.446 372.556 903.352 374.729 908.06C376.951 912.816 379.659 917.33 382.809 921.53C385.996 925.871 389.618 929.876 393.619 933.48C397.82 937.247 402.292 940.7 406.999 943.81Z" fill="#592D3D"/>
<path d="M593.051 943.81C603.718 939.822 613.239 933.267 620.771 924.725C628.303 916.184 633.615 905.918 636.238 894.836C638.861 883.753 638.713 872.196 635.807 861.184C632.902 850.173 627.329 840.046 619.581 831.7" fill="#85C5E5"/>
<path d="M593.051 943.81C597.746 940.711 602.209 937.272 606.401 933.52C610.402 929.915 614.024 925.911 617.211 921.57C620.361 917.37 623.069 912.856 625.291 908.1C627.463 903.392 629.178 898.486 630.411 893.45C631.549 888.385 632.218 883.227 632.411 878.04C632.555 872.791 632.17 867.541 631.261 862.37C629.501 851.89 625.391 841.73 619.601 831.7C622.011 833.353 624.264 835.224 626.331 837.29C627.411 838.29 628.331 839.43 629.331 840.52C630.331 841.61 631.231 842.8 632.081 844.01C633.847 846.433 635.431 848.983 636.821 851.64C637.471 852.99 638.181 854.33 638.731 855.73L639.611 857.83C639.881 858.54 640.111 859.26 640.371 859.97C642.354 865.754 643.499 871.792 643.771 877.9C644.008 884.048 643.44 890.2 642.081 896.2C640.619 902.184 638.362 907.945 635.371 913.33L633.001 917.26C632.131 918.52 631.221 919.75 630.321 920.98C629.876 921.601 629.398 922.199 628.891 922.77C628.401 923.35 627.891 923.93 627.411 924.5C626.931 925.07 626.411 925.65 625.881 926.19L624.261 927.79C615.795 936.27 604.877 941.875 593.051 943.81Z" fill="#592D3D"/>
<path opacity="0.15" d="M664.05 702.32C692.36 679.32 718.46 647.6 734.73 616.22C734.67 616.12 731.24 619.6 731.18 619.5C731.12 619.4 710.11 638.28 649.66 638C573.36 637.69 589.12 616.32 497.15 616.32C415.73 616.32 428.66 628.21 352 632.47C289.91 635.92 268.38 619.47 268.38 619.47L268.18 619.8C279.042 640.719 292.686 660.071 308.74 677.33C313.06 681.98 317.6 686.51 322.22 690.81C327.107 695.407 332.231 699.746 337.57 703.81C342.75 707.76 348.24 711.53 353.9 715.02C375.61 727.02 400.38 736.16 427.53 742.15C434.02 743.58 440.53 744.79 446.84 745.75C512.65 751.6 587.92 752.45 647.58 714.63C653.21 710.78 658.75 706.63 664.05 702.32Z" fill="black"/>
<path d="M311.512 663.32C313.821 663.32 315.692 661.449 315.692 659.14C315.692 656.831 313.821 654.96 311.512 654.96C309.204 654.96 307.332 656.831 307.332 659.14C307.332 661.449 309.204 663.32 311.512 663.32Z" fill="#592D3D"/>
<path d="M338.511 666.28C340.146 666.28 341.471 664.955 341.471 663.32C341.471 661.685 340.146 660.36 338.511 660.36C336.876 660.36 335.551 661.685 335.551 663.32C335.551 664.955 336.876 666.28 338.511 666.28Z" fill="#592D3D"/>
<path d="M401.05 710.94C402.685 710.94 404.01 709.615 404.01 707.98C404.01 706.345 402.685 705.02 401.05 705.02C399.415 705.02 398.09 706.345 398.09 707.98C398.09 709.615 399.415 710.94 401.05 710.94Z" fill="#592D3D"/>
<path d="M506.831 714.27C508.466 714.27 509.791 712.945 509.791 711.31C509.791 709.675 508.466 708.35 506.831 708.35C505.196 708.35 503.871 709.675 503.871 711.31C503.871 712.945 505.196 714.27 506.831 714.27Z" fill="#592D3D"/>
<path d="M517.632 707.46C519.267 707.46 520.592 706.135 520.592 704.5C520.592 702.865 519.267 701.54 517.632 701.54C515.997 701.54 514.672 702.865 514.672 704.5C514.672 706.135 515.997 707.46 517.632 707.46Z" fill="#592D3D"/>
<path d="M578.331 704.5C579.966 704.5 581.291 703.175 581.291 701.54C581.291 699.905 579.966 698.58 578.331 698.58C576.696 698.58 575.371 699.905 575.371 701.54C575.371 703.175 576.696 704.5 578.331 704.5Z" fill="#592D3D"/>
<path d="M581.292 686.11C582.927 686.11 584.252 684.785 584.252 683.15C584.252 681.515 582.927 680.19 581.292 680.19C579.657 680.19 578.332 681.515 578.332 683.15C578.332 684.785 579.657 686.11 581.292 686.11Z" fill="#592D3D"/>
<path d="M391.69 696.09C394.656 696.09 397.06 693.686 397.06 690.72C397.06 687.754 394.656 685.35 391.69 685.35C388.725 685.35 386.32 687.754 386.32 690.72C386.32 693.686 388.725 696.09 391.69 696.09Z" fill="#592D3D"/>
<path d="M600.442 709.54C601.596 709.54 602.532 708.604 602.532 707.45C602.532 706.296 601.596 705.36 600.442 705.36C599.287 705.36 598.352 706.296 598.352 707.45C598.352 708.604 599.287 709.54 600.442 709.54Z" fill="#592D3D"/>
<path d="M642.961 700.26C645.27 700.26 647.141 698.389 647.141 696.08C647.141 693.771 645.27 691.9 642.961 691.9C640.653 691.9 638.781 693.771 638.781 696.08C638.781 698.389 640.653 700.26 642.961 700.26Z" fill="#592D3D"/>
<path d="M462.559 728.22C464.867 728.22 466.739 726.349 466.739 724.04C466.739 721.731 464.867 719.86 462.559 719.86C460.25 719.86 458.379 721.731 458.379 724.04C458.379 726.349 460.25 728.22 462.559 728.22Z" fill="#592D3D"/>
<path d="M642.96 666.18C644.595 666.18 645.92 664.855 645.92 663.22C645.92 661.585 644.595 660.26 642.96 660.26C641.325 660.26 640 661.585 640 663.22C640 664.855 641.325 666.18 642.96 666.18Z" fill="#592D3D"/>
<path d="M654.05 676.02C655.685 676.02 657.01 674.695 657.01 673.06C657.01 671.425 655.685 670.1 654.05 670.1C652.415 670.1 651.09 671.425 651.09 673.06C651.09 674.695 652.415 676.02 654.05 676.02Z" fill="#592D3D"/>
<path d="M271.401 568.53C270.401 540.17 289.401 516.17 314.681 504.97C317.336 503.883 320.062 502.981 322.841 502.27C336.856 498.806 351.599 499.759 365.051 505C368.12 506.18 371.103 507.57 373.981 509.16C403.511 525.05 416.771 562.41 405.341 592.62C404.183 595.666 402.785 598.615 401.161 601.44C397.173 609.748 391.15 616.913 383.651 622.27C381.149 624.111 378.527 625.781 375.801 627.27C348.421 640.27 311.421 636.27 289.351 615.87C287.141 613.527 285.099 611.031 283.241 608.4C281.118 605.397 279.255 602.219 277.671 598.9C274.318 592.095 272.389 584.677 272.001 577.1C271.639 574.257 271.439 571.396 271.401 568.53Z" fill="#C6854E"/>
<path d="M269.772 550.18C268.772 521.82 287.772 497.82 313.052 486.62C315.703 485.533 318.427 484.631 321.202 483.92C335.215 480.437 349.962 481.374 363.422 486.6C366.487 487.78 369.468 489.17 372.342 490.76C401.872 506.65 415.132 544.02 403.702 574.22C402.552 577.269 401.154 580.219 399.522 583.04C398.14 585.749 396.566 588.355 394.812 590.84C393.084 593.302 391.186 595.641 389.132 597.84C386.912 600.037 384.532 602.066 382.012 603.91C379.512 605.753 376.889 607.424 374.162 608.91C346.782 621.91 309.782 617.91 287.722 597.52C285.511 595.174 283.47 592.674 281.612 590.04C279.487 587.037 277.62 583.859 276.032 580.54C272.67 573.761 270.727 566.366 270.322 558.81C269.964 555.947 269.781 553.065 269.772 550.18Z" fill="white" stroke="#592D3D" stroke-width="12" stroke-miterlimit="10"/>
<path d="M338.51 563.03C345.27 563.03 350.75 557.55 350.75 550.79C350.75 544.03 345.27 538.55 338.51 538.55C331.75 538.55 326.27 544.03 326.27 550.79C326.27 557.55 331.75 563.03 338.51 563.03Z" fill="#592D3D"/>
<path d="M583.89 560.47C584.32 545.34 590.56 530.38 598.99 519.14C601.143 516.12 603.523 513.268 606.11 510.61C617.61 498.622 633.013 491.133 649.543 489.492C666.074 487.852 682.648 492.166 696.28 501.66C698.552 503.245 700.732 504.958 702.81 506.79C729.81 528.24 732.93 569.93 718.13 600.02C716.692 602.411 715.096 604.703 713.35 606.88C711.037 609.781 708.503 612.499 705.77 615.01C685.5 632.84 653.96 637.14 628.36 627.43C624.713 626.054 621.185 624.382 617.81 622.43C599.91 611.65 587.44 591.34 584.38 570.2C583.966 566.974 583.802 563.721 583.89 560.47Z" fill="#C6854E"/>
<path d="M589.382 549C589.802 534.85 595.802 520.85 603.902 510.34C605.986 507.506 608.279 504.832 610.762 502.34C622.013 491.101 636.821 484.123 652.651 482.602C668.481 481.08 684.347 485.11 697.532 494C699.714 495.477 701.811 497.076 703.812 498.79C729.812 518.86 732.812 557.86 718.552 586.01C717.17 588.255 715.633 590.4 713.952 592.43C711.72 595.146 709.282 597.686 706.662 600.03C687.152 616.71 656.802 620.74 632.172 611.65C628.658 610.346 625.257 608.758 622.002 606.9C604.782 596.82 592.782 577.82 589.832 558.05C589.439 555.05 589.289 552.024 589.382 549Z" fill="white" stroke="#592D3D" stroke-width="12" stroke-miterlimit="10"/>
<path d="M659.209 563.03C665.969 563.03 671.449 557.55 671.449 550.79C671.449 544.03 665.969 538.55 659.209 538.55C652.449 538.55 646.969 544.03 646.969 550.79C646.969 557.55 652.449 563.03 659.209 563.03Z" fill="#592D3D"/>
<path d="M443.141 621.86C443.141 602.96 556.861 605.8 556.861 621.86C556.861 636.94 550.87 651.403 540.207 662.066C529.543 672.73 515.081 678.72 500.001 678.72C484.92 678.72 470.458 672.73 459.795 662.066C449.131 651.403 443.141 636.94 443.141 621.86Z" fill="#592D3D"/>
<path d="M495.002 643C478.052 642 463.272 649.75 458.352 661.22C466.532 669.863 477.219 675.72 488.905 677.968C500.591 680.216 512.688 678.741 523.492 673.75C525.738 672.713 527.913 671.527 530.002 670.2C529.082 656.09 514.062 644.18 495.002 643Z" fill="#F28195"/>
<path d="M443.141 621.86C443.141 602.96 556.861 605.8 556.861 621.86C556.861 636.94 550.87 651.403 540.207 662.066C529.543 672.73 515.081 678.72 500.001 678.72C484.92 678.72 470.458 672.73 459.795 662.066C449.131 651.403 443.141 636.94 443.141 621.86Z" stroke="#592D3D" stroke-width="6" stroke-miterlimit="10"/>
<path d="M478.121 632.46C478.571 632.35 478.751 632.3 479.041 632.25L479.791 632.11C480.281 632.02 480.791 631.97 481.251 631.93C482.211 631.832 483.177 631.799 484.141 631.83C486.096 631.873 488.039 632.145 489.931 632.64C493.893 633.643 497.484 635.76 500.281 638.74C502.912 641.57 504.676 645.097 505.361 648.9C505.986 652.408 505.511 656.023 504.001 659.25C501.931 656.32 500.341 653.69 498.681 651.49C497.934 650.435 497.115 649.433 496.231 648.49C495.423 647.662 494.517 646.936 493.531 646.33C491.664 645.212 489.582 644.499 487.421 644.24C486.287 644.094 485.145 644.014 484.001 644C483.411 644 482.821 644 482.241 644.05L481.391 644.11H481.001C480.901 644.11 480.701 644.11 480.771 644.11L478.121 632.46Z" fill="#592D3D"/>
<path d="M558.729 399.34C545.869 423.34 498.729 436.78 494.899 430.76C490.609 424.03 532.749 375.44 508.799 324.62" fill="#C6854E"/>
<path d="M784.002 342.85C778.902 337.75 752.942 344.68 726.812 342.62C701.208 307.848 667.936 279.445 629.577 259.615C591.218 239.786 548.805 229.063 505.632 228.28C503.192 207.8 504.882 190.6 503.022 188.18C500.532 184.96 487.532 200.86 484.152 219.18C472.242 204.18 452.012 196.18 451.432 200.38C451.052 203.06 458.872 214.47 466.242 230.28C354.642 243.75 263.162 322.54 231.162 427.28C217.302 439.2 204.302 447.62 204.162 452.97C203.892 462.89 243.472 462.33 260.742 460.79V460.73C321.392 458.73 439.742 446.95 497.162 387.84C491.642 406.93 481.472 421 483.432 424C486.432 428.67 521.752 418.81 533.502 400.76C581.502 420.35 672.992 443.92 752.502 384.6L752.282 384.17C766.772 372.06 790.352 349.25 784.002 342.85Z" fill="#85C5E5"/>
<path d="M726.852 348.62C721.452 348.86 716.192 348.73 710.852 348.48C705.512 348.23 700.262 347.81 694.982 347.22C692.342 346.93 689.702 346.62 687.072 346.22C684.442 345.82 681.802 345.5 679.182 344.99C673.843 344.03 668.62 342.508 663.602 340.45C668.847 339.107 674.201 338.23 679.602 337.83C682.232 337.61 684.862 337.46 687.492 337.35L695.372 337.01C700.622 336.79 705.862 336.67 711.092 336.56C716.322 336.45 721.572 336.44 726.712 336.56L726.852 348.62Z" fill="#592D3D"/>
<path d="M236.599 430C236.599 430 236.599 430.24 236.599 430.39L236.479 430.92L236.199 432.03C235.989 432.78 235.769 433.55 235.539 434.32C235.069 435.87 234.539 437.46 233.999 439.07C233.459 440.68 232.939 442.35 232.229 444.07C231.832 444.968 231.371 445.837 230.849 446.67C230.25 447.658 229.557 448.586 228.779 449.44C227.093 447.964 225.812 446.081 225.059 443.97C224.716 443.029 224.462 442.058 224.299 441.07C224.089 440.07 223.989 439.07 223.869 438.12C223.669 436.125 223.669 434.115 223.869 432.12C223.967 431.111 224.127 430.109 224.349 429.12C224.469 428.62 224.599 428.12 224.759 427.61C224.836 427.349 224.926 427.092 225.029 426.84C225.129 426.56 225.209 426.36 225.389 425.94L236.599 430Z" fill="#592D3D"/>
<path d="M260.742 460.82V460.76C277.742 460.2 299.372 458.86 322.882 455.92C325.512 400 344.882 334.34 388.802 257.48L382.002 254.23C346.132 270.896 314.167 294.917 288.181 324.734C262.195 354.552 242.768 389.499 231.162 427.31C217.302 439.23 204.302 447.65 204.162 453C203.892 462.92 243.472 462.36 260.742 460.82Z" fill="#67B7D6"/>
<path d="M784.002 342.85C778.902 337.75 752.942 344.68 726.812 342.62C701.208 307.848 667.936 279.445 629.577 259.615C591.218 239.786 548.805 229.063 505.632 228.28C503.192 207.8 504.882 190.6 503.022 188.18C500.532 184.96 487.532 200.86 484.152 219.18C472.242 204.18 452.012 196.18 451.432 200.38C451.052 203.06 458.872 214.47 466.242 230.28C354.642 243.75 263.162 322.54 231.162 427.28C217.302 439.2 204.302 447.62 204.162 452.97C203.892 462.89 243.472 462.33 260.742 460.79V460.73C321.392 458.73 439.742 446.95 497.162 387.84C491.642 406.93 481.472 421 483.432 424C486.432 428.67 521.752 418.81 533.502 400.76C581.502 420.35 672.992 443.92 752.502 384.6L752.282 384.17C766.772 372.06 790.352 349.25 784.002 342.85Z" stroke="#592D3D" stroke-width="12" stroke-miterlimit="10"/>
<path d="M505.93 244.31C491.686 245.13 477.502 246.78 463.45 249.25C459.97 249.92 456.5 250.66 453.01 251.3C449.52 251.94 446.11 252.91 442.66 253.71L432.4 256.43C429 257.43 425.63 258.51 422.25 259.55C408.767 263.898 395.594 269.153 382.82 275.28C369.985 281.51 357.545 288.524 345.57 296.28C356.236 286.552 368.011 278.114 380.65 271.14C393.3 264.077 406.618 258.285 420.41 253.85C423.89 252.85 427.35 251.76 430.83 250.8C434.31 249.84 437.83 248.98 441.38 248.2C444.93 247.42 448.48 246.8 452.04 246.2C455.6 245.6 459.19 245.13 462.77 244.68C477.096 242.918 491.576 242.793 505.93 244.31Z" fill="white"/>
<path d="M407.291 474.84H286.651C281.091 474.84 275.531 474.76 269.971 474.84H269.731C264.501 474.84 259.491 479.44 259.731 484.84C259.775 487.479 260.842 489.997 262.708 491.863C264.574 493.729 267.092 494.796 269.731 494.84H390.371C395.921 494.84 401.491 494.92 407.051 494.84H407.291C412.521 494.84 417.531 490.24 417.291 484.84C417.245 482.202 416.176 479.686 414.311 477.82C412.445 475.955 409.929 474.886 407.291 474.84Z" fill="#592D3D"/>
<path d="M726.322 474.84H605.682C600.122 474.84 594.562 474.76 589.002 474.84H588.762C583.532 474.84 578.522 479.44 578.762 484.84C578.806 487.479 579.874 489.997 581.739 491.863C583.605 493.729 586.124 494.796 588.762 494.84H709.402C714.962 494.84 720.522 494.92 726.082 494.84H726.322C731.552 494.84 736.562 490.24 736.322 484.84C736.276 482.202 735.208 479.686 733.342 477.82C731.477 475.955 728.96 474.886 726.322 474.84Z" fill="#592D3D"/>
</g>
</svg>
