<svg width="1000" height="990" viewBox="0 0 1000 990" fill="none" xmlns="http://www.w3.org/2000/svg">
<mask id="mask0_22_2534" style="mask-type:luminance" maskUnits="userSpaceOnUse" x="0" y="0" width="1000" height="966">
<path d="M1000 0H0V718.31H179.2C217.58 860.69 346.65 965.41 500 965.41C653.35 965.41 782.42 860.69 820.8 718.31H1000V0Z" fill="white"/>
</mask>
<g mask="url(#mask0_22_2534)">
<path d="M500.001 962.602C683.603 962.602 832.443 813.763 832.443 630.16C832.443 446.557 683.603 297.718 500.001 297.718C316.398 297.718 167.559 446.557 167.559 630.16C167.559 813.763 316.398 962.602 500.001 962.602Z" fill="#85C5E5"/>
<path d="M610 758.72C700.76 758.72 682 872.96 682.87 1000H610V758.72Z" fill="#FDD2B2"/>
<path d="M632.74 831.87L610 870L621.38 1000H653.14C653.91 819.73 632.74 831.87 632.74 831.87Z" fill="#F3AB98"/>
<path d="M233.25 500C233.25 352.68 352.68 233.25 500 233.25C647.32 233.25 766.75 352.68 766.75 500C766.788 539.694 757.949 578.895 740.88 614.731C723.811 650.568 698.945 682.135 668.1 707.12C662.627 711.573 656.98 715.803 651.16 719.81C591 758 515 758 446.39 751.89C439.73 750.89 433.09 749.63 426.5 748.18C400.17 742.38 374.68 733.43 351.13 720.38C345.31 716.793 339.667 712.92 334.2 708.76C328.706 704.576 323.432 700.11 318.4 695.38C313.64 690.96 309.044 686.367 304.61 681.6C258.667 632.299 233.161 567.39 233.25 500Z" fill="#FDD2B2"/>
<path d="M269.612 634.48C270.312 635.68 271.002 636.88 271.722 638.06C272.152 638.78 272.602 639.48 273.052 640.2C273.712 641.27 274.372 642.34 275.052 643.39C275.532 644.15 276.052 644.89 276.512 645.63C277.172 646.63 277.832 647.63 278.512 648.63C279.022 649.39 279.512 650.15 280.072 650.91C280.732 651.91 281.392 652.83 282.072 653.79C282.612 654.56 283.172 655.32 283.722 656.09C284.272 656.86 285.062 657.94 285.722 658.86C286.382 659.78 286.872 660.39 287.452 661.15C288.032 661.91 288.822 662.95 289.522 663.85C290.222 664.75 290.712 665.36 291.312 666.11C291.912 666.86 292.722 667.87 293.432 668.74C294.142 669.61 294.662 670.23 295.282 670.97C295.902 671.71 296.722 672.69 297.452 673.54C298.182 674.39 298.722 675.01 299.362 675.74L301.582 678.24C302.232 678.97 302.892 679.68 303.582 680.4C304.442 681.34 305.312 682.27 306.182 683.19L307.392 684.47C308.682 685.81 309.982 687.15 311.302 688.47L311.562 688.74C312.852 690.02 314.162 691.29 315.472 692.55L317.052 694.05C318.002 694.94 318.952 695.83 319.912 696.71L321.072 697.77C322.072 698.71 323.162 699.63 324.212 700.55C327.478 703.397 330.812 706.127 334.212 708.74C339.672 712.9 345.315 716.773 351.142 720.36C374.692 733.36 400.142 742.36 426.512 748.16C433.102 749.61 439.742 750.86 446.402 751.87C488.502 755.62 533.402 757.05 575.682 748.79C508.452 729 185.592 612.74 388.802 257.48C386.082 258.73 383.402 260.02 380.742 261.36L380.152 261.65C378.932 262.26 377.712 262.89 376.502 263.53L375.502 264.06C371.742 266.06 368.022 268.13 364.372 270.29L363.472 270.82C362.312 271.51 361.162 272.21 360.012 272.92L359.142 273.46C355.568 275.693 352.052 278.003 348.592 280.39L347.512 281.14C346.422 281.9 345.352 282.66 344.282 283.43L343.622 283.9C341.442 285.493 339.288 287.107 337.162 288.74L336.542 289.22C335.542 290 334.542 290.8 333.542 291.61L332.372 292.55C331.372 293.36 330.372 294.17 329.372 295C327.262 296.75 325.182 298.55 323.132 300.37L321.992 301.37L319.302 303.82L318.002 305C315.148 307.667 312.358 310.39 309.632 313.17L308.252 314.58C307.462 315.4 306.672 316.22 305.892 317.05C305.432 317.54 304.972 318.05 304.522 318.53C303.148 319.997 301.795 321.483 300.462 322.99C300.012 323.5 299.552 323.99 299.102 324.53C298.392 325.34 297.692 326.16 296.992 326.98L295.482 328.77C294.802 329.58 294.122 330.39 293.482 331.21C292.942 331.87 292.402 332.54 291.872 333.21C290.802 334.54 289.752 335.87 288.712 337.21C288.172 337.91 287.632 338.61 287.102 339.32C286.572 340.03 285.902 340.91 285.312 341.72C284.722 342.53 284.242 343.17 283.722 343.9C283.202 344.63 282.592 345.45 282.042 346.23C281.095 347.563 280.162 348.913 279.242 350.28C278.742 351.01 278.242 351.76 277.752 352.5C277.262 353.24 276.652 354.16 276.112 355L274.622 357.31L272.942 360.02C272.512 360.71 272.082 361.4 271.662 362.09C270.772 363.55 269.912 365.02 269.052 366.49L267.832 368.65C267.292 369.6 266.752 370.56 266.222 371.52C265.822 372.25 265.422 372.98 265.032 373.71C264.392 374.9 263.762 376.1 263.132 377.3L261.932 379.64C261.292 380.92 260.652 382.19 260.022 383.48C259.692 384.17 259.352 384.87 259.022 385.57C258.502 386.66 258.022 387.76 257.492 388.86C257.182 389.52 256.882 390.18 256.582 390.86C255.842 392.507 255.118 394.173 254.412 395.86C254.192 396.38 253.982 396.91 253.762 397.43C253.232 398.7 252.712 399.97 252.202 401.25C251.932 401.92 251.672 402.59 251.412 403.25C250.912 404.51 250.412 405.78 249.962 407.05C249.752 407.6 249.542 408.15 249.342 408.7C248.715 410.453 248.098 412.207 247.492 413.96L246.932 415.66C246.492 416.993 246.062 418.327 245.642 419.66L245.042 421.57C244.572 423.11 244.112 424.65 243.672 426.2C243.572 426.53 243.472 426.86 243.382 427.2C242.862 429.04 242.362 430.887 241.882 432.74C241.722 433.33 241.582 433.93 241.432 434.52C241.082 435.91 240.742 437.3 240.432 438.7L240.012 440.45C239.582 442.35 239.162 444.25 238.772 446.16L238.622 446.93C238.282 448.63 237.948 450.33 237.622 452.03C237.512 452.64 237.412 453.24 237.302 453.85C237.042 455.34 236.792 456.85 236.562 458.35C236.482 458.86 236.392 459.35 236.322 459.87C236.022 461.82 235.752 463.78 235.492 465.75L235.342 467.05C235.142 468.64 234.962 470.24 234.792 471.84C234.732 472.44 234.662 473.04 234.602 473.65C234.442 475.33 234.292 477.02 234.152 478.71C234.152 479.06 234.092 479.4 234.072 479.71C233.925 481.71 233.795 483.727 233.682 485.76C233.682 486.29 233.682 486.83 233.612 487.36C233.545 488.933 233.485 490.503 233.432 492.07C233.432 492.66 233.432 493.25 233.432 493.84C233.432 495.89 233.352 497.95 233.352 500.01C233.352 500.01 233.352 500.08 233.352 500.11C233.352 502.33 233.352 504.53 233.432 506.73C233.432 507.49 233.492 508.25 233.512 509.01C233.562 510.48 233.612 511.95 233.682 513.42C233.682 514.31 233.792 515.19 233.842 516.08C233.922 517.41 233.992 518.74 234.092 520.08C234.162 521.08 234.252 521.97 234.332 522.91C234.442 524.17 234.542 525.43 234.672 526.68C234.762 527.68 234.882 528.62 234.982 529.59C235.122 530.8 235.252 532.02 235.402 533.23C235.522 534.23 235.662 535.23 235.792 536.18C235.952 537.36 236.112 538.55 236.292 539.73C236.442 540.73 236.602 541.73 236.762 542.73C236.942 543.89 237.132 545.06 237.332 546.22C237.512 547.22 237.692 548.22 237.882 549.22C238.092 550.37 238.312 551.52 238.532 552.66C238.752 553.8 238.942 554.66 239.152 555.66C239.392 556.8 239.632 557.93 239.892 559.06C240.152 560.19 240.332 561.06 240.572 561.99C240.832 563.12 241.112 564.24 241.392 565.35C241.672 566.46 241.882 567.3 242.132 568.26C242.432 569.38 242.732 570.49 243.042 571.6C243.302 572.6 243.572 573.52 243.852 574.47C244.172 575.58 244.502 576.68 244.852 577.78C245.202 578.88 245.432 579.67 245.732 580.62C246.032 581.57 246.432 582.81 246.792 583.9C247.152 584.99 247.412 585.77 247.732 586.7C248.112 587.79 248.492 588.88 248.882 589.97C249.212 590.88 249.532 591.8 249.882 592.71L251.122 595.98C251.472 596.87 251.812 597.77 252.122 598.66C252.562 599.75 253.012 600.85 253.462 601.94C253.822 602.8 254.172 603.67 254.542 604.53C255.012 605.65 255.542 606.75 255.992 607.86C256.362 608.68 256.722 609.51 257.092 610.33C257.612 611.49 258.162 612.63 258.692 613.77L259.772 616.07C260.382 617.33 261.012 618.57 261.642 619.82C261.962 620.45 262.262 621.09 262.592 621.72C264.512 625.46 266.512 629.15 268.592 632.79C268.882 633.26 269.252 633.87 269.612 634.48Z" fill="#F3AB98"/>
<path d="M233.25 500C233.25 352.68 352.68 233.25 500 233.25C647.32 233.25 766.75 352.68 766.75 500C766.788 539.694 757.949 578.895 740.88 614.731C723.811 650.568 698.945 682.135 668.1 707.12C662.627 711.573 656.98 715.803 651.16 719.81C591 758 515 758 446.39 751.89C439.73 750.89 433.09 749.63 426.5 748.18C400.17 742.38 374.68 733.43 351.13 720.38C345.31 716.793 339.667 712.92 334.2 708.76C328.706 704.576 323.432 700.11 318.4 695.38C313.64 690.96 309.044 686.367 304.61 681.6C258.667 632.299 233.161 567.39 233.25 500Z" stroke="#592D3D" stroke-width="12" stroke-miterlimit="10"/>
<path d="M386.122 758.72C295.352 758.72 314.122 872.96 313.252 1000H386.122V758.72Z" fill="#FDD2B2"/>
<path d="M367.232 831.87L390.002 870L378.612 1000H346.882C346.072 819.73 367.232 831.87 367.232 831.87Z" fill="#F3AB98"/>
<path d="M619.472 1070H380.532C377.011 1070 373.636 1068.6 371.148 1066.11C368.659 1063.62 367.262 1060.24 367.262 1056.72V772C367.262 768.48 368.659 765.103 371.148 762.613C373.636 760.123 377.011 758.723 380.532 758.72H613.762C626.852 758.72 632.762 766.38 632.762 778.6V1056.68C632.767 1058.43 632.427 1060.16 631.761 1061.78C631.096 1063.39 630.117 1064.86 628.883 1066.1C627.648 1067.34 626.181 1068.32 624.566 1068.99C622.951 1069.66 621.22 1070 619.472 1070Z" fill="#FDD2B2"/>
<path d="M629.052 766.62C628.055 765.394 627.212 764.051 626.542 762.62C624.141 760.739 621.284 759.527 618.262 759.11C616.773 758.88 615.268 758.766 613.762 758.77H380.532C377.02 758.773 373.652 760.166 371.165 762.646C368.679 765.125 367.275 768.488 367.262 772C396.262 782.42 450.552 788.24 500.002 788.24C563.062 788.24 604.382 778.89 629.052 766.62Z" fill="#F3AB98"/>
<path d="M610 758.72C700.76 758.72 682 872.96 682.87 1000H632.74" stroke="#592D3D" stroke-width="12" stroke-miterlimit="10" stroke-linecap="square"/>
<path d="M386.122 758.72C295.352 758.72 314.122 872.96 313.252 1000H363.322" stroke="#592D3D" stroke-width="12" stroke-miterlimit="10" stroke-linecap="square"/>
<path d="M380.531 758.82L613.761 758.72" stroke="#592D3D" stroke-width="12" stroke-miterlimit="10"/>
<path d="M380.532 1070H497.152C388.002 1070 396.242 838.82 367.262 838.82V1056.68C367.257 1058.43 367.596 1060.16 368.26 1061.77C368.925 1063.39 369.901 1064.86 371.134 1066.09C372.366 1067.33 373.831 1068.31 375.444 1068.98C377.056 1069.65 378.785 1070 380.532 1070Z" fill="#F3AB98"/>
<path d="M361.259 860.85C361.069 857.18 361.149 853.51 361.309 849.85C361.469 846.19 361.779 842.5 362.169 838.85C362.369 837.01 362.569 835.18 362.819 833.34C363.069 831.5 363.309 829.67 363.669 827.83C364.378 824.022 365.585 820.324 367.259 816.83C368.933 820.324 370.14 824.022 370.849 827.83C371.209 829.67 371.469 831.5 371.699 833.34C371.929 835.18 372.149 837.01 372.349 838.85C372.729 842.52 373.029 846.19 373.199 849.85C373.369 853.51 373.449 857.19 373.259 860.85H361.259Z" fill="#592D3D"/>
<path d="M632.742 870V878C633.002 912 633.002 947 632.742 980.75C632.742 983.62 632.742 986.47 632.742 989.28V1056.69C632.746 1058.44 632.405 1060.17 631.74 1061.78C631.075 1063.39 630.099 1064.86 628.866 1066.1C627.634 1067.33 626.17 1068.31 624.558 1068.98C622.946 1069.65 621.217 1070 619.472 1070H380.532C377.011 1070 373.636 1068.6 371.148 1066.11C368.659 1063.62 367.262 1060.24 367.262 1056.72V998.52C367.262 996.01 367.262 993.45 367.262 990.87C367.012 956 367.012 921 367.262 885.57V860.85" stroke="#592D3D" stroke-width="12" stroke-miterlimit="10"/>
<path d="M626.74 870C626.55 865.83 626.64 861.65 626.8 857.47C626.96 853.29 627.27 849.12 627.65 844.94C627.85 842.85 628.06 840.76 628.3 838.67C628.54 836.58 628.79 834.5 629.15 832.41C629.847 828.106 631.052 823.9 632.74 819.88C634.428 823.9 635.633 828.106 636.33 832.41C636.69 834.5 636.95 836.59 637.18 838.67C637.41 840.75 637.63 842.85 637.83 844.94C638.21 849.12 638.52 853.29 638.68 857.47C638.84 861.65 638.93 865.83 638.74 870H626.74Z" fill="#592D3D"/>
<path d="M502.069 878.86C502.067 889.337 499.69 899.678 495.117 909.104C490.543 918.53 483.892 926.797 475.663 933.282C467.435 939.768 457.843 944.303 447.609 946.548C437.375 948.793 426.765 948.688 416.578 946.242C406.39 943.796 396.89 939.072 388.79 932.426C380.691 925.779 374.204 917.383 369.818 907.869C365.431 898.354 363.258 887.969 363.462 877.494C363.667 867.019 366.244 856.726 370.999 847.39" stroke="#592D3D" stroke-width="12" stroke-miterlimit="10"/>
<path d="M371 847.39C374.787 839.991 379.867 833.33 386 827.72Z" fill="#FDD2B2"/>
<path d="M365.652 844.66C366.53 842.58 367.666 840.618 369.032 838.82C370.388 837.02 371.904 835.346 373.562 833.82C374.402 833.06 375.252 832.32 376.142 831.63C377.026 830.915 377.966 830.273 378.952 829.71C381.086 828.479 383.49 827.792 385.952 827.71C385.693 830.051 385.104 832.344 384.202 834.52C383.812 835.52 383.372 836.4 382.912 837.29L381.612 839.96C380.762 841.72 379.922 843.45 379.062 845.15C378.23 846.864 377.309 848.533 376.302 850.15L365.652 844.66Z" fill="#592D3D"/>
<path d="M489.332 838.82C497.63 850.507 502.083 864.487 502.072 878.82Z" fill="#FDD2B2"/>
<path d="M489.332 838.82C492.746 840.671 495.712 843.248 498.022 846.37C499.172 847.888 500.208 849.489 501.122 851.16C502.052 852.83 502.892 854.55 503.672 856.31C505.207 859.846 506.366 863.533 507.132 867.31C507.909 871.101 508.225 874.973 508.072 878.84H496.072C495.882 875.59 495.712 872.36 495.372 869.11C495.032 865.86 494.602 862.63 493.972 859.37L493.472 856.93L492.892 854.48C492.472 852.85 492.022 851.22 491.602 849.55C490.657 846.016 489.9 842.434 489.332 838.82Z" fill="#592D3D"/>
<path d="M641.651 878.86C641.662 869.372 639.719 859.983 635.945 851.278C632.17 842.572 626.644 834.737 619.711 828.26" fill="#FDD2B2"/>
<path d="M635.651 878.86C635.49 874.552 635.07 870.257 634.391 866C633.689 861.7 632.646 857.464 631.271 853.33C630.931 852.33 630.531 851.26 630.161 850.22C629.791 849.18 629.321 848.17 628.911 847.13C628.501 846.09 627.971 845.13 627.531 844.08L626.071 841.08C624.071 836.98 621.901 832.89 619.711 828.33C624.345 830.307 628.51 833.241 631.931 836.94C632.761 837.88 633.631 838.8 634.401 839.79C635.171 840.78 635.941 841.79 636.651 842.79C637.361 843.79 638.081 844.88 638.721 845.97C639.361 847.06 640.031 848.15 640.601 849.29C642.981 853.813 644.795 858.613 646.001 863.58C647.233 868.576 647.778 873.717 647.621 878.86H635.651Z" fill="#592D3D"/>
<path d="M503.001 878.86C502.891 888.031 504.602 897.133 508.036 905.638C511.469 914.143 516.557 921.882 523.003 928.407C529.45 934.931 537.127 940.111 545.59 943.647C554.053 947.182 563.134 949.002 572.306 949.002C581.478 949.002 590.559 947.182 599.022 943.647C607.485 940.111 615.163 934.931 621.609 928.407C628.056 921.882 633.143 914.143 636.577 905.638C640.01 897.133 641.721 888.031 641.611 878.86" stroke="#592D3D" stroke-width="12" stroke-miterlimit="10"/>
<path d="M515.769 838.82C507.475 850.508 503.025 864.488 503.039 878.82Z" fill="#FDD2B2"/>
<path d="M515.772 838.82C515.205 842.441 514.448 846.029 513.502 849.57C513.082 851.24 512.632 852.87 512.212 854.5L511.642 856.95L511.142 859.39C510.512 862.65 510.052 865.89 509.732 869.13C509.412 872.37 509.232 875.61 509.042 878.86H497.002C496.84 874.993 497.156 871.12 497.942 867.33C498.703 863.551 499.863 859.864 501.402 856.33C502.172 854.57 503.012 852.85 503.942 851.18C504.86 849.512 505.896 847.911 507.042 846.39C509.364 843.259 512.344 840.675 515.772 838.82Z" fill="#592D3D"/>
<path d="M383.441 837.55V758.72" stroke="#592D3D" stroke-width="12" stroke-miterlimit="10"/>
<path d="M616.461 837.55V758.72" stroke="#592D3D" stroke-width="12" stroke-miterlimit="10"/>
<path d="M470.5 897.78H524.4V917.48C506.66 911.43 488.69 911.58 470.5 917.48V897.78Z" fill="#D67070" stroke="#592D3D" stroke-width="12" stroke-miterlimit="10"/>
<path d="M638.101 878.86C638.126 861.305 631.464 844.399 619.471 831.58C615.251 827.06 575.201 837.77 551.661 858.84C528.551 879.53 508.431 913.33 511.311 917.59C519.607 929.903 531.637 939.226 545.63 944.187C559.624 949.148 574.84 949.485 589.039 945.147C603.238 940.81 615.669 932.028 624.501 920.095C633.334 908.161 638.101 893.707 638.101 878.86Z" fill="#D67070" stroke="#592D3D" stroke-width="12" stroke-miterlimit="10"/>
<path d="M598.112 848.39C591.992 852.06 585.962 855.57 580.112 859.39C574.338 863.08 568.816 867.149 563.582 871.57C558.432 876.03 553.472 880.89 548.582 885.83C543.692 890.77 538.892 895.83 533.832 900.9C536.9 894.462 540.648 888.371 545.012 882.73C549.369 877.001 554.298 871.731 559.722 867C565.241 862.329 571.338 858.387 577.862 855.27C584.289 852.118 591.095 849.805 598.112 848.39Z" fill="white"/>
<path d="M361.902 878.86C361.877 861.305 368.539 844.399 380.532 831.58C384.752 827.06 424.802 837.77 448.342 858.84C471.452 879.53 491.572 913.33 488.692 917.59C480.396 929.903 468.366 939.226 454.373 944.187C440.38 949.148 425.163 949.485 410.964 945.147C396.765 940.81 384.334 932.028 375.502 920.095C366.669 908.161 361.902 893.707 361.902 878.86Z" fill="#D67070" stroke="#592D3D" stroke-width="12" stroke-miterlimit="10"/>
<path d="M455.751 938.92C433.112 938.92 411.4 929.927 395.392 913.919C379.384 897.911 370.391 876.199 370.391 853.56C370.391 850.651 370.537 847.744 370.831 844.85C363.312 858.199 360.428 873.662 362.629 888.823C364.831 903.985 371.993 917.989 382.997 928.648C394.002 939.308 408.227 946.02 423.451 947.738C438.675 949.455 454.038 946.08 467.141 938.14C463.366 938.653 459.561 938.914 455.751 938.92Z" fill="#C46565"/>
<path d="M361.902 878.86C361.877 861.305 368.539 844.399 380.532 831.58C384.752 827.06 424.802 837.77 448.342 858.84C471.452 879.53 491.572 913.33 488.692 917.59C480.396 929.903 468.366 939.226 454.373 944.187C440.38 949.148 425.163 949.485 410.964 945.147C396.765 940.81 384.334 932.028 375.502 920.095C366.669 908.161 361.902 893.707 361.902 878.86Z" stroke="#592D3D" stroke-width="12" stroke-miterlimit="10"/>
<path d="M401.891 848.39C408.907 849.802 415.713 852.111 422.141 855.26C428.666 858.38 434.762 862.325 440.281 867C445.683 871.727 450.592 876.991 454.931 882.71C459.295 888.351 463.043 894.442 466.111 900.88C461.051 895.88 456.271 890.75 451.361 885.81C446.451 880.87 441.521 876.01 436.361 871.55C431.126 867.129 425.604 863.06 419.831 859.37C414.001 855.57 408.001 852.06 401.891 848.39Z" fill="white"/>
<path d="M680.7 905.78C680.9 868.68 679.49 835.71 672.96 810.39C662.88 785.04 644.78 769.92 612.84 769.92L635.69 904.39C635.69 904.39 658.2 914.68 680.7 905.78Z" fill="#F3AB98"/>
<path d="M689.299 895.23C688.161 896.168 686.924 896.98 685.609 897.65" stroke="#592D3D" stroke-width="12" stroke-miterlimit="10" stroke-linecap="square"/>
<path d="M328.999 809.32C322.179 834.89 320.999 868.45 321.259 906.32C341.159 914.87 371.689 904.17 371.689 904.17L388.999 771.89C358.139 771.89 339.739 785.79 328.999 809.32Z" fill="#F3AB98"/>
<path d="M616.662 758.16L578.222 758.26C578.222 811.98 502.892 869.4 502.892 869.4C502.892 869.4 422.092 808.82 422.092 758.26L383.432 758.16C379.912 758.16 376.536 759.558 374.046 762.046C371.555 764.534 370.155 767.91 370.152 771.43V1056.12C370.155 1059.64 371.555 1063.02 374.046 1065.5C376.536 1067.99 379.912 1069.39 383.432 1069.39H622.362C625.882 1069.39 629.257 1067.99 631.746 1065.5C634.234 1063.01 635.632 1059.64 635.632 1056.12V778C635.632 765.82 629.752 758.16 616.662 758.16Z" fill="#D67070"/>
<path d="M612.84 758.16C676.38 758.16 686.24 814.16 686.74 891.32C668.15 902.94 637.83 892.64 637.83 892.64L612.84 758.16Z" fill="#D67070"/>
<path d="M635.63 831.31L612.84 869.4L624.23 999.4H635.83V893.78L653.11 896.67C647.49 824.5 635.63 831.31 635.63 831.31Z" fill="#C46565"/>
<path d="M389.002 758.16C327.222 758.16 313.182 811.95 312.152 885.82C331.152 905.67 370.102 890.4 370.102 890.4L389.002 758.16Z" fill="#D67070"/>
<path d="M370.122 831.31V890.4L352.812 894.7C358.483 824.63 370.122 831.31 370.122 831.31Z" fill="#C46565"/>
<path d="M612.84 758.16C680.26 758.16 691.29 814.44 691.74 891.94C665.54 904.36 637.83 892.64 637.83 892.64" stroke="#592D3D" stroke-width="12" stroke-miterlimit="10" stroke-linecap="square"/>
<path d="M389 758.16C322.21 758.16 308.92 812.85 308.25 888.87C328.84 903.66 370.1 890.4 370.1 890.4" stroke="#592D3D" stroke-width="12" stroke-miterlimit="10" stroke-linecap="square"/>
<path d="M383.429 1069.39H499.999C390.809 1069.39 399.089 838.25 370.109 838.25V1056.12C370.111 1057.87 370.456 1059.6 371.127 1061.21C371.797 1062.82 372.779 1064.29 374.017 1065.52C375.254 1066.75 376.722 1067.73 378.337 1068.39C379.953 1069.06 381.683 1069.4 383.429 1069.39Z" fill="#C46565"/>
<path d="M364.149 860.29C363.959 856.62 364.039 852.94 364.209 849.29C364.379 845.64 364.679 841.95 365.059 838.29C365.259 836.46 365.469 834.62 365.709 832.78C365.949 830.94 366.199 829.11 366.559 827.28C367.267 823.471 368.474 819.773 370.149 816.28C371.824 819.773 373.031 823.471 373.739 827.28C374.099 829.11 374.359 830.95 374.589 832.78C374.819 834.61 375.039 836.46 375.239 838.29C375.626 841.97 375.912 845.637 376.099 849.29C376.259 852.96 376.339 856.64 376.099 860.29H364.149Z" fill="#592D3D"/>
<path d="M635.632 869.4V877.4C635.892 911.4 635.892 946.4 635.632 980.16C635.632 983.03 635.632 985.88 635.632 988.69V1056.1C635.632 1059.62 634.234 1062.99 631.745 1065.48C629.257 1067.97 625.881 1069.37 622.362 1069.37H383.432C379.912 1069.37 376.535 1067.97 374.045 1065.48C371.555 1063 370.155 1059.62 370.152 1056.1V990.3C369.892 955.44 369.892 920.44 370.152 885V860.29" stroke="#592D3D" stroke-width="12" stroke-miterlimit="10"/>
<path d="M629.63 869.4C629.44 865.22 629.53 861.04 629.69 856.87C629.85 852.7 630.16 848.51 630.55 844.34C630.75 842.25 630.95 840.16 631.19 838.07C631.43 835.98 631.68 833.89 632.05 831.8C632.741 827.496 633.943 823.29 635.63 819.27C637.325 823.288 638.531 827.494 639.22 831.8C639.58 833.89 639.85 835.98 640.07 838.07C640.29 840.16 640.52 842.25 640.72 844.34C641.11 848.51 641.41 852.69 641.57 856.87C641.73 861.05 641.83 865.22 641.63 869.4H629.63Z" fill="#592D3D"/>
<path d="M383.43 758.26L616.66 758.16" stroke="#592D3D" stroke-width="12" stroke-miterlimit="10"/>
<path d="M310.719 891.94C311.857 892.972 313.089 893.896 314.399 894.7" stroke="#592D3D" stroke-width="12" stroke-miterlimit="10" stroke-linecap="square"/>
<path d="M677.59 882.13C675.509 883.367 673.222 884.22 670.84 884.65C668.465 885.112 666.049 885.327 663.63 885.29C661.221 885.247 658.821 884.986 656.46 884.51C655.28 884.29 654.12 883.94 652.97 883.64C651.82 883.34 650.69 882.86 649.59 882.4C650.8 882.4 651.98 882.57 653.15 882.67L656.67 882.96C657.84 882.96 659 883.16 660.17 883.17C661.34 883.18 662.5 883.28 663.66 883.29C665.98 883.34 668.3 883.29 670.66 883.11C672.99 882.943 675.305 882.615 677.59 882.13Z" fill="#592D3D"/>
<path d="M578.22 758.26C578.22 811.98 502.89 869.4 502.89 869.4C502.89 869.4 422.09 808.82 422.09 758.26" stroke="#592D3D" stroke-width="12" stroke-miterlimit="10"/>
<path d="M500 890.85C488.317 890.85 476.896 894.315 467.182 900.805C457.468 907.296 449.897 916.521 445.426 927.315C440.955 938.109 439.785 949.986 442.065 961.444C444.344 972.903 449.97 983.428 458.231 991.689C466.492 999.95 477.017 1005.58 488.476 1007.86C499.934 1010.13 511.811 1008.96 522.605 1004.49C533.398 1000.02 542.624 992.452 549.115 982.738C555.605 973.024 559.07 961.603 559.07 949.92C559.025 934.268 552.787 919.269 541.719 908.201C530.651 897.133 515.652 890.895 500 890.85ZM467.09 982.85C458.545 974.353 453.695 962.83 453.59 950.78L499.59 996.35C487.76 995.91 476 991.69 467.09 982.83V982.85ZM510.09 995.08L454.86 939.8C456.796 931.099 461.2 923.14 467.544 916.877C473.887 910.614 481.901 906.313 490.626 904.487C499.352 902.662 508.418 903.39 516.74 906.585C525.062 909.779 532.287 915.305 537.55 922.5L531.22 928C527.627 923.08 522.932 919.07 517.51 916.292C512.089 913.513 506.092 912.043 500 912C492.152 912.046 484.507 914.497 478.095 919.023C471.683 923.549 466.812 929.931 464.14 937.31L512.66 985.83C518.712 983.681 524.126 980.043 528.403 975.251C532.679 970.459 535.68 964.667 537.13 958.41H516.88V949.97H546.41C546.341 960.478 542.718 970.653 536.131 978.84C529.543 987.027 520.379 992.744 510.13 995.06L510.09 995.08Z" stroke="white" stroke-width="16"/>
<path d="M500 890.85C488.317 890.85 476.896 894.315 467.182 900.805C457.468 907.296 449.897 916.521 445.426 927.315C440.955 938.109 439.785 949.986 442.065 961.444C444.344 972.903 449.97 983.428 458.231 991.689C466.492 999.95 477.017 1005.58 488.476 1007.86C499.934 1010.13 511.811 1008.96 522.605 1004.49C533.398 1000.02 542.624 992.452 549.115 982.738C555.605 973.024 559.07 961.603 559.07 949.92C559.025 934.268 552.787 919.269 541.719 908.201C530.651 897.133 515.652 890.895 500 890.85ZM467.09 982.85C458.545 974.353 453.695 962.83 453.59 950.78L499.59 996.35C487.76 995.91 476 991.69 467.09 982.83V982.85ZM510.09 995.08L454.86 939.8C456.796 931.099 461.2 923.14 467.544 916.877C473.887 910.614 481.901 906.313 490.626 904.487C499.352 902.662 508.418 903.39 516.74 906.585C525.062 909.779 532.287 915.305 537.55 922.5L531.22 928C527.627 923.08 522.932 919.07 517.51 916.292C512.089 913.513 506.092 912.043 500 912C492.152 912.046 484.507 914.497 478.095 919.023C471.683 923.549 466.812 929.931 464.14 937.31L512.66 985.83C518.712 983.681 524.126 980.043 528.403 975.251C532.679 970.459 535.68 964.667 537.13 958.41H516.88V949.97H546.41C546.341 960.478 542.718 970.653 536.131 978.84C529.543 987.027 520.379 992.744 510.13 995.06L510.09 995.08Z" fill="#663795"/>
<path opacity="0.1" d="M426.882 961.63C441.357 961.628 455.469 957.095 467.238 948.666C479.006 940.236 487.841 928.335 492.502 914.63C486.585 924.75 478.255 933.248 468.254 939.365C458.254 945.482 446.894 949.028 435.19 949.686C423.485 950.343 411.8 948.092 401.177 943.134C390.554 938.176 381.324 930.664 374.312 921.27L374.262 936C387.002 951.63 405.152 961.63 426.882 961.63Z" fill="black"/>
<path opacity="0.1" d="M573.12 961.63C558.644 961.628 544.532 957.095 532.764 948.666C520.995 940.236 512.161 928.335 507.5 914.63C513.416 924.75 521.747 933.248 531.747 939.365C541.748 945.482 553.108 949.028 564.812 949.686C576.517 950.343 588.202 948.092 598.825 943.134C609.448 938.176 618.677 930.664 625.69 921.27V935.99C613 951.63 594.85 961.63 573.12 961.63Z" fill="black"/>
<path d="M407.002 943.81C396.331 939.827 386.805 933.277 379.267 924.737C371.73 916.198 366.412 905.933 363.784 894.85C361.156 883.767 361.3 872.208 364.202 861.194C367.104 850.179 372.674 840.05 380.422 831.7" fill="#D67070"/>
<path d="M406.999 943.81C395.176 941.88 384.258 936.283 375.789 927.81L374.169 926.21C373.639 925.67 373.169 925.08 372.639 924.52C372.109 923.96 371.639 923.37 371.159 922.79C370.652 922.219 370.174 921.621 369.729 921C368.829 919.77 367.919 918.54 367.049 917.28L364.679 913.35C361.688 907.965 359.431 902.204 357.969 896.22C356.61 890.22 356.042 884.068 356.279 877.92C356.551 871.812 357.696 865.774 359.679 859.99C359.939 859.28 360.169 858.56 360.439 857.85L361.319 855.75C361.869 854.35 362.579 853.01 363.229 851.66C364.619 849.003 366.203 846.453 367.969 844.03C368.819 842.82 369.789 841.68 370.719 840.54C371.649 839.4 372.659 838.31 373.719 837.31C375.786 835.244 378.039 833.373 380.449 831.72C374.659 841.72 370.549 851.91 368.789 862.39C367.874 867.541 367.479 872.77 367.609 878C367.802 883.187 368.471 888.346 369.609 893.41C370.842 898.446 372.556 903.352 374.729 908.06C376.951 912.816 379.659 917.33 382.809 921.53C385.996 925.871 389.618 929.876 393.619 933.48C397.82 937.247 402.292 940.7 406.999 943.81Z" fill="#592D3D"/>
<path d="M593.051 943.81C603.718 939.822 613.239 933.267 620.771 924.725C628.303 916.184 633.615 905.918 636.238 894.836C638.861 883.753 638.713 872.196 635.807 861.184C632.902 850.173 627.329 840.046 619.581 831.7" fill="#D67070"/>
<path d="M593.051 943.81C597.746 940.711 602.209 937.272 606.401 933.52C610.402 929.915 614.024 925.911 617.211 921.57C620.361 917.37 623.069 912.856 625.291 908.1C627.463 903.392 629.178 898.486 630.411 893.45C631.549 888.385 632.218 883.227 632.411 878.04C632.555 872.791 632.17 867.541 631.261 862.37C629.501 851.89 625.391 841.73 619.601 831.7C622.011 833.353 624.264 835.224 626.331 837.29C627.411 838.29 628.331 839.43 629.331 840.52C630.331 841.61 631.231 842.8 632.081 844.01C633.847 846.433 635.431 848.983 636.821 851.64C637.471 852.99 638.181 854.33 638.731 855.73L639.611 857.83C639.881 858.54 640.111 859.26 640.371 859.97C642.354 865.754 643.499 871.792 643.771 877.9C644.008 884.048 643.44 890.2 642.081 896.2C640.619 902.184 638.362 907.945 635.371 913.33L633.001 917.26C632.131 918.52 631.221 919.75 630.321 920.98C629.876 921.601 629.398 922.199 628.891 922.77C628.401 923.35 627.891 923.93 627.411 924.5C626.931 925.07 626.411 925.65 625.881 926.19L624.261 927.79C615.795 936.27 604.877 941.875 593.051 943.81Z" fill="#592D3D"/>
<path d="M341.062 590.04C352.637 590.04 362.022 580.656 362.022 569.08C362.022 557.504 352.637 548.12 341.062 548.12C329.486 548.12 320.102 557.504 320.102 569.08C320.102 580.656 329.486 590.04 341.062 590.04Z" fill="#592D3D"/>
<path d="M340.932 586C342.722 585.9 344.722 585.74 346.632 585.54C348.542 585.34 350.492 585.1 352.422 584.8C354.352 584.5 356.292 584.15 358.232 583.8C360.172 583.45 362.152 583.12 364.232 582.97C362.599 584.227 360.815 585.275 358.922 586.09C357.039 586.877 355.109 587.545 353.142 588.09C351.172 588.665 349.168 589.119 347.142 589.45C345.082 589.81 342.994 589.991 340.902 589.99L340.932 586Z" fill="#592D3D"/>
<path d="M661.773 590.04C673.348 590.04 682.732 580.656 682.732 569.08C682.732 557.504 673.348 548.12 661.773 548.12C650.197 548.12 640.812 557.504 640.812 569.08C640.812 580.656 650.197 590.04 661.773 590.04Z" fill="#592D3D"/>
<path d="M661.77 586C663.57 585.9 665.56 585.74 667.47 585.54C669.38 585.34 671.34 585.1 673.27 584.8C675.2 584.5 677.14 584.15 679.08 583.8C681.02 583.45 683 583.12 685.08 582.97C683.445 584.225 681.662 585.273 679.77 586.09C677.887 586.877 675.957 587.545 673.99 588.09C672.019 588.664 670.016 589.118 667.99 589.45C665.929 589.81 663.842 589.991 661.75 589.99L661.77 586Z" fill="#592D3D"/>
<path d="M443.141 621.86C443.141 602.96 556.861 605.8 556.861 621.86C556.861 636.94 550.87 651.403 540.207 662.066C529.543 672.73 515.081 678.72 500.001 678.72C484.92 678.72 470.458 672.73 459.795 662.066C449.131 651.403 443.141 636.94 443.141 621.86Z" fill="#592D3D"/>
<path d="M495.002 643C478.052 642 463.272 649.75 458.352 661.22C466.532 669.863 477.219 675.72 488.905 677.968C500.591 680.216 512.688 678.741 523.492 673.75C525.738 672.713 527.913 671.527 530.002 670.2C529.082 656.09 514.062 644.18 495.002 643Z" fill="#F28195"/>
<path d="M443.141 621.86C443.141 602.96 556.861 605.8 556.861 621.86C556.861 636.94 550.87 651.403 540.207 662.066C529.543 672.73 515.081 678.72 500.001 678.72C484.92 678.72 470.458 672.73 459.795 662.066C449.131 651.403 443.141 636.94 443.141 621.86Z" stroke="#592D3D" stroke-width="6" stroke-miterlimit="10"/>
<path d="M478.121 632.46C478.571 632.35 478.751 632.3 479.041 632.25L479.791 632.11C480.281 632.02 480.791 631.97 481.251 631.93C482.211 631.832 483.177 631.799 484.141 631.83C486.096 631.873 488.039 632.145 489.931 632.64C493.893 633.643 497.484 635.76 500.281 638.74C502.912 641.57 504.676 645.097 505.361 648.9C505.986 652.408 505.511 656.023 504.001 659.25C501.931 656.32 500.341 653.69 498.681 651.49C497.934 650.435 497.115 649.433 496.231 648.49C495.423 647.662 494.517 646.936 493.531 646.33C491.664 645.212 489.582 644.499 487.421 644.24C486.287 644.094 485.145 644.014 484.001 644C483.411 644 482.821 644 482.241 644.05L481.391 644.11H481.001C480.901 644.11 480.701 644.11 480.771 644.11L478.121 632.46Z" fill="#592D3D"/>
<path d="M425.219 300.35C436.479 293.798 448.553 288.754 461.129 285.35C473.798 281.885 486.865 280.087 499.999 280C513.169 279.916 526.289 281.625 538.999 285.08C551.598 288.459 563.657 293.6 574.819 300.35C562.618 296.557 550.199 293.508 537.629 291.22C525.224 289.025 512.646 287.947 500.049 288C487.456 288.093 474.894 289.257 462.499 291.48C449.926 293.785 437.482 296.746 425.219 300.35Z" fill="#592D3D"/>
<path d="M425.219 328.3C436.479 321.747 448.553 316.704 461.129 313.3C473.801 309.857 486.867 308.075 499.999 308C513.165 307.89 526.286 309.572 538.999 313C551.598 316.379 563.657 321.52 574.819 328.27C562.617 324.482 550.198 321.433 537.629 319.14C525.237 316.944 512.673 315.863 500.089 315.91C487.496 316.003 474.934 317.167 462.539 319.39C449.953 321.712 437.496 324.686 425.219 328.3Z" fill="#592D3D"/>
<path d="M574.781 328.43C562.507 331.074 550.084 332.971 537.581 334.11C525.094 335.31 512.568 335.94 500.001 336C487.451 336 474.901 335.53 462.401 334.36C449.882 333.255 437.456 331.28 425.211 328.45C437.801 328.06 450.211 328.11 462.701 328.08L500.001 328L537.291 327.87C549.731 327.87 562.201 327.86 574.781 328.43Z" fill="#F3AB98"/>
<path d="M574.779 300.47C562.474 302.915 550.041 304.657 537.539 305.69C525.059 306.777 512.549 307.347 500.009 307.4C487.479 307.45 474.949 306.98 462.449 305.92C449.933 304.917 437.497 303.096 425.219 300.47C437.789 299.88 450.219 299.77 462.689 299.63L499.999 299.4C512.419 299.4 524.849 299.34 537.309 299.4C549.769 299.46 562.219 299.7 574.779 300.47Z" fill="#F3AB98"/>
<path d="M871.11 500C776.85 494.07 782.75 327.18 727.01 359.86L727.43 360.55C726.35 369.25 716.34 460.67 753.52 584.65C753.93 583.4 754.33 582.14 754.73 580.88C756.73 586.28 771.73 619.98 830.54 604.04C789.96 569.82 799.07 528.77 799.07 528.77C799.07 528.77 843.62 530.09 871.11 500Z" fill="#85C5E5"/>
<path d="M871.11 500C776.85 494.07 782.75 327.18 727.01 359.86L727.43 360.55C726.35 369.25 716.34 460.67 753.52 584.65C753.93 583.4 754.33 582.14 754.73 580.88C756.73 586.28 771.73 619.98 830.54 604.04C789.96 569.82 799.07 528.77 799.07 528.77C799.07 528.77 843.62 530.09 871.11 500Z" stroke="#592D3D" stroke-width="12" stroke-miterlimit="10"/>
<path d="M766.751 500C767.901 507.16 768.409 514.409 768.271 521.66C768.112 528.913 767.578 536.152 766.671 543.35C766.204 546.95 765.664 550.543 765.051 554.13C764.401 557.7 763.701 561.27 762.891 564.82C761.293 571.929 759.29 578.94 756.891 585.82L749.301 583.28C751.411 576.55 753.431 569.79 755.221 562.96L756.541 557.83L757.761 552.67L758.931 547.5L760.001 542.3C761.411 535.36 762.501 528.36 763.531 521.3C764.561 514.24 765.531 507.16 766.751 500Z" fill="#592D3D"/>
<path d="M730.851 358.46C734.951 364.927 738.673 371.624 742.001 378.52C742.831 380.24 743.621 381.98 744.421 383.72L746.721 388.97L748.871 394.29L750.871 399.65C753.48 406.817 755.696 414.122 757.511 421.53C759.307 428.941 760.435 436.498 760.881 444.11C758.121 437 755.591 429.93 752.941 422.92C750.291 415.91 747.621 408.97 744.581 402.16L742.291 397.07L739.901 392.07L737.451 387.07L734.901 382.12C731.471 375.53 727.811 369.12 724.031 362.69L730.851 358.46Z" fill="#592D3D"/>
<path d="M128.891 500C223.151 494.07 217.251 327.18 272.991 359.86L272.571 360.55C273.651 369.25 283.661 460.67 246.481 584.65C246.071 583.4 245.671 582.14 245.271 580.88C243.271 586.28 228.271 619.98 169.461 604.04C210.041 569.82 200.931 528.77 200.931 528.77C200.931 528.77 156.381 530.09 128.891 500Z" fill="#85C5E5"/>
<path d="M128.891 500C223.151 494.07 217.251 327.18 272.991 359.86L272.571 360.55C273.651 369.25 283.661 460.67 246.481 584.65C246.071 583.4 245.671 582.14 245.271 580.88C243.271 586.28 228.271 619.98 169.461 604.04C210.041 569.82 200.931 528.77 200.931 528.77C200.931 528.77 156.381 530.09 128.891 500Z" stroke="#592D3D" stroke-width="12" stroke-miterlimit="10"/>
<path d="M233.251 500C234.471 507.16 235.431 514.24 236.491 521.28C237.551 528.32 238.611 535.33 240.021 542.28L241.091 547.48L242.261 552.65L243.481 557.81L244.801 562.94C246.591 569.77 248.601 576.53 250.721 583.26L243.131 585.8C240.731 578.92 238.728 571.909 237.131 564.8C236.321 561.25 235.621 557.68 234.971 554.11C234.321 550.54 233.821 546.93 233.351 543.33C232.443 536.132 231.909 528.893 231.751 521.64C231.607 514.396 232.109 507.154 233.251 500Z" fill="#592D3D"/>
<path d="M276.001 362.65C272.221 369.04 268.561 375.49 265.131 382.08L262.551 387L260.101 392L257.711 397L255.421 402.09C252.421 408.9 249.681 415.85 247.061 422.85C244.441 429.85 241.881 436.93 239.121 444.04C239.567 436.428 240.695 428.871 242.491 421.46C244.306 414.052 246.523 406.747 249.131 399.58L251.131 394.22L253.301 389L255.601 383.75C256.401 382.01 257.191 380.27 258.021 378.55C261.342 371.655 265.059 364.957 269.151 358.49L276.001 362.65Z" fill="#592D3D"/>
<path d="M198.292 528.85L196.692 513.26C196.432 510.6 196.102 507.94 195.902 505.26C195.832 503.9 195.752 502.54 195.792 501.13C195.785 499.695 195.885 498.261 196.092 496.84C197.913 499.04 199.411 501.488 200.542 504.11C201.112 505.38 201.602 506.68 202.052 507.99C202.502 509.3 202.932 510.62 203.342 511.99C203.752 513.36 204.102 514.66 204.442 515.99C204.782 517.32 205.072 518.71 205.332 520.08C205.592 521.45 205.822 522.83 205.982 524.23C206.171 525.669 206.274 527.119 206.292 528.57L198.292 528.85Z" fill="#592D3D"/>
<path d="M793.652 527.37C793.741 525.128 794.036 522.898 794.532 520.71C794.772 519.64 795.062 518.57 795.352 517.51C795.642 516.45 796.012 515.4 796.352 514.36C797.074 512.265 797.97 510.235 799.032 508.29C800.157 506.265 801.669 504.482 803.482 503.04C803.741 505.257 803.778 507.495 803.592 509.72C803.502 510.72 803.412 511.81 803.282 512.82L803.002 515.9L802.372 522C802.152 524 801.942 526.09 801.652 527.93L793.652 527.37Z" fill="#592D3D"/>
<path d="M600.889 460.57C611.932 457.755 623.118 455.535 634.399 453.92L631.739 454.27C644.919 452.53 658.279 452.02 671.489 453.79L668.829 453.43C672.099 453.89 675.369 454.43 678.649 454.85L675.989 454.49C685.943 455.854 695.793 457.896 705.469 460.6C710.469 461.99 716.569 458.87 717.769 453.6C718.423 451.042 718.058 448.331 716.753 446.037C715.447 443.742 713.302 442.044 710.769 441.3C699.422 438.192 687.86 435.926 676.179 434.52L678.839 434.88C667.807 432.922 656.584 432.268 645.399 432.93C634.275 433.66 623.217 435.181 612.309 437.48C606.689 438.61 601.109 439.91 595.549 441.28C590.469 442.53 586.929 448.54 588.549 453.58C589.293 456.113 590.991 458.258 593.286 459.564C595.58 460.869 598.291 461.234 600.849 460.58L600.889 460.57Z" fill="#592D3D"/>
<path d="M286.14 460.6C295.724 457.819 305.501 455.75 315.39 454.41L312.73 454.77C329.786 452.537 347.061 452.563 364.11 454.85L361.45 454.5C371.395 455.856 381.235 457.894 390.9 460.6C395.9 462 402 458.87 403.2 453.6C403.854 451.042 403.489 448.331 402.184 446.037C400.878 443.742 398.733 442.044 396.2 441.3C381.757 437.282 366.951 434.703 352 433.6C327.993 432.037 303.896 434.646 280.78 441.31C278.273 442.035 276.131 443.678 274.78 445.91C273.444 448.244 273.085 451.012 273.78 453.61C275.43 458.72 280.69 462.15 286.08 460.61L286.14 460.6Z" fill="#592D3D"/>
<path opacity="0.2" d="M338.9 641.86C390.434 641.86 432.21 600.084 432.21 548.55C432.21 497.016 390.434 455.24 338.9 455.24C287.366 455.24 245.59 497.016 245.59 548.55C245.59 600.084 287.366 641.86 338.9 641.86Z" fill="white"/>
<path opacity="0.15" d="M744.47 606.82C732.351 624.565 714.998 638.089 694.83 645.505C674.662 652.921 652.682 653.861 631.954 648.194C611.226 642.527 592.782 630.535 579.192 613.889C565.603 597.243 557.544 576.773 556.14 555.33C519.14 540.73 481.71 540.86 441.95 555.72C440.105 581.793 428.457 606.2 409.348 624.034C390.24 641.868 365.088 651.806 338.95 651.85C306.47 651.85 262.95 615.35 267.95 623.46C281.95 644.15 314.95 659.91 340.49 659.91C395.04 659.91 438.36 620.62 442.05 566.99C481.81 552.14 519.28 551.99 556.24 566.6C559.74 620.42 604.63 660.13 659.31 660.13C704 660.13 729.4 626 744.47 606.82Z" fill="black"/>
<path opacity="0.4" d="M319.999 648.75L443.069 525.67C440.364 519.571 437.012 513.781 433.069 508.4L302.719 638.76C308.104 642.7 313.897 646.049 319.999 648.75Z" fill="white"/>
<path d="M338.9 641.86C390.434 641.86 432.21 600.084 432.21 548.55C432.21 497.016 390.434 455.24 338.9 455.24C287.366 455.24 245.59 497.016 245.59 548.55C245.59 600.084 287.366 641.86 338.9 641.86Z" stroke="#592D3D" stroke-width="20" stroke-miterlimit="10"/>
<path d="M659.212 641.86C710.746 641.86 752.522 600.084 752.522 548.55C752.522 497.016 710.746 455.24 659.212 455.24C607.679 455.24 565.902 497.016 565.902 548.55C565.902 600.084 607.679 641.86 659.212 641.86Z" stroke="#592D3D" stroke-width="20" stroke-miterlimit="10"/>
<path d="M432.77 548.55C477.97 530.24 522.38 529.55 565.91 548.55" stroke="#592D3D" stroke-width="20" stroke-miterlimit="10"/>
<path d="M314.699 492.5C316.759 499 308.759 504 302.759 505C296.759 505 292.759 501 290.759 496C289.759 491 290.759 486 294.759 483C299.759 481 306.759 479 311.209 484.13C312.32 485.221 313.202 486.524 313.801 487.962C314.401 489.399 314.706 490.943 314.699 492.5Z" fill="white"/>
<path d="M325.372 488.67C324.762 493 318.762 493 317.762 489C317.762 486 318.762 485 321.612 484.9C322.106 484.9 322.596 484.997 323.053 485.187C323.51 485.377 323.925 485.655 324.274 486.005C324.623 486.355 324.9 486.771 325.088 487.228C325.277 487.685 325.373 488.175 325.372 488.67Z" fill="white"/>
<path opacity="0.2" d="M659.212 641.86C710.746 641.86 752.522 600.084 752.522 548.55C752.522 497.016 710.746 455.24 659.212 455.24C607.679 455.24 565.902 497.016 565.902 548.55C565.902 600.084 607.679 641.86 659.212 641.86Z" fill="white"/>
<path opacity="0.4" d="M645.19 640.81L751.47 534.52C750.894 530.735 750.089 526.988 749.06 523.3L634 638.4C637.678 639.429 641.415 640.234 645.19 640.81Z" fill="white"/>
<path d="M659.212 641.86C710.746 641.86 752.522 600.084 752.522 548.55C752.522 497.016 710.746 455.24 659.212 455.24C607.679 455.24 565.902 497.016 565.902 548.55C565.902 600.084 607.679 641.86 659.212 641.86Z" stroke="#592D3D" stroke-width="20" stroke-miterlimit="10"/>
<path d="M635 492.5C637.06 499 629.06 504 623.06 505C617.06 505 613.06 501 611.06 496C610.06 491 611.06 486 615.06 483C620.06 481 627.06 479 631.51 484.13C632.619 485.223 633.499 486.526 634.099 487.963C634.698 489.4 635.004 490.943 635 492.5Z" fill="white"/>
<path d="M645.692 488.67C645.082 493 639.082 493 638.082 489C638.082 486 639.082 485 641.922 484.9C642.922 484.9 643.881 485.297 644.588 486.004C645.295 486.711 645.692 487.67 645.692 488.67Z" fill="white"/>
</g>
</svg>
