<svg width="1000" height="990" viewBox="0 0 1000 990" fill="none" xmlns="http://www.w3.org/2000/svg">
<mask id="mask0_22_4122" style="mask-type:luminance" maskUnits="userSpaceOnUse" x="0" y="0" width="1000" height="966">
<path d="M1000 0H0V718.31H179.2C217.58 860.69 346.65 965.41 500 965.41C653.35 965.41 782.42 860.69 820.8 718.31H1000V0Z" fill="white"/>
</mask>
<g mask="url(#mask0_22_4122)">
<path d="M500.001 962.602C683.603 962.602 832.443 813.763 832.443 630.16C832.443 446.557 683.603 297.718 500.001 297.718C316.398 297.718 167.559 446.557 167.559 630.16C167.559 813.763 316.398 962.602 500.001 962.602Z" fill="#85C5E5"/>
<path d="M833.149 369C833.21 357.431 829.83 346.106 823.44 336.463C817.049 326.819 807.936 319.293 797.259 314.84C805.239 309.459 811.77 302.194 816.274 293.687C820.777 285.18 823.115 275.695 823.079 266.07C823.079 238.3 804.079 215.07 778.609 209.19C783.544 200.358 786.129 190.407 786.119 180.29C786.119 148.1 760.549 122 728.999 122C720.623 121.993 712.352 123.87 704.799 127.49C705.25 124.538 705.474 121.556 705.469 118.57C705.469 86.36 679.899 60.24 648.349 60.24C639.964 60.2513 631.687 62.1292 624.118 65.7373C616.549 69.3454 609.878 74.5932 604.589 81.1C602.979 50.36 578.059 25.93 547.589 25.93C537.318 25.9638 527.248 28.777 518.447 34.0711C509.646 39.3651 502.442 46.9427 497.599 56C492.753 46.9433 485.547 39.3666 476.744 34.0727C467.942 28.7789 457.871 25.9653 447.599 25.93C417.099 25.93 392.179 50.36 390.599 81.1C385.307 74.594 378.635 69.3469 371.064 65.739C363.494 62.131 355.215 60.2527 346.829 60.24C315.299 60.24 289.719 86.35 289.719 118.57C289.716 121.556 289.936 124.537 290.379 127.49C282.836 123.87 274.576 121.994 266.209 122C234.669 122 209.089 148.12 209.089 180.33C209.073 190.448 211.659 200.4 216.599 209.23C191.149 215.11 172.139 238.34 172.139 266.11C172.111 275.735 174.456 285.219 178.967 293.722C183.477 302.225 190.014 309.485 197.999 314.86C187.455 319.326 178.443 326.772 172.069 336.285C165.696 345.798 162.236 356.965 162.117 368.415C161.997 379.865 165.221 391.102 171.394 400.746C177.567 410.391 186.421 418.024 196.869 422.71C187.409 433.494 182.216 447.364 182.269 461.71C182.269 490.22 202.319 513.96 228.809 519.04C217.299 529.35 774.169 529.97 762.989 519.59C791.189 516.02 812.989 491.48 812.989 461.72C813.034 447.374 807.838 433.506 798.379 422.72C808.774 418.121 817.6 410.588 823.777 401.046C829.953 391.504 833.21 380.367 833.149 369ZM270.809 513.54C269.879 513.02 268.919 512.54 267.959 512.13C268.929 511.56 270.809 513.54 270.809 513.54Z" fill="#A56941"/>
<path d="M469.999 505.43C462.758 512.042 453.765 516.426 444.096 518.058C434.427 519.69 424.493 518.499 415.483 514.63C406.473 510.76 398.77 504.375 393.296 496.24C387.822 488.105 384.81 478.564 384.619 468.76C375.479 471.688 365.698 471.982 356.398 469.609C347.098 467.236 338.655 462.292 332.034 455.343C325.414 448.394 320.884 439.72 318.965 430.316C317.045 420.913 317.812 411.158 321.179 402.17C311.343 401.511 301.907 398.025 294.005 392.131C286.102 386.237 280.07 378.187 276.634 368.948C273.197 359.708 272.501 349.673 274.631 340.048C276.761 330.422 281.625 321.617 288.639 314.69C279.561 310.758 271.813 304.287 266.328 296.054C260.842 287.822 257.853 278.179 257.72 268.288C257.587 258.396 260.315 248.676 265.577 240.299C270.839 231.922 278.41 225.244 287.379 221.07C281.164 213.551 277.216 204.42 275.996 194.742C274.776 185.064 276.334 175.239 280.488 166.413C284.642 157.587 291.221 150.125 299.456 144.897C307.692 139.67 317.244 136.892 326.999 136.89H327.159C325.288 129.302 325.167 121.387 326.805 113.746C328.443 106.104 331.797 98.9343 336.614 92.7796C341.431 86.6248 347.584 81.6459 354.608 78.2192C361.632 74.7925 369.344 73.0077 377.159 73C379.05 73.0023 380.939 73.1057 382.819 73.31C372.725 64.8602 359.983 60.2269 346.819 60.22C315.279 60.22 289.709 86.33 289.709 118.55C289.706 121.536 289.926 124.517 290.369 127.47C282.828 123.858 274.571 121.989 266.209 122C234.669 122 209.089 148.12 209.089 180.33C209.073 190.448 211.659 200.4 216.599 209.23C191.149 215.11 172.139 238.34 172.139 266.11C172.111 275.735 174.456 285.219 178.967 293.722C183.477 302.225 190.014 309.485 197.999 314.86C187.455 319.326 178.443 326.772 172.069 336.285C165.696 345.798 162.236 356.965 162.117 368.415C161.997 379.865 165.221 391.102 171.394 400.746C177.567 410.391 186.421 418.024 196.869 422.71C187.409 433.494 182.216 447.364 182.269 461.71C182.269 490.22 202.319 513.96 228.809 519.04C223.199 524.04 352.619 526.79 485.469 527.04C478.498 521.326 473.161 513.871 469.999 505.43Z" fill="#8D5638"/>
<path d="M741.199 386L706.199 464.16L745.669 522.77C757.909 521.86 764.279 520.77 762.979 519.6C791.179 516.03 812.979 491.49 812.979 461.73C812.972 458.48 812.705 455.237 812.179 452.03C792.179 391.39 741.199 386 741.199 386Z" fill="#8D5638"/>
<path d="M833.149 369C833.21 357.431 829.83 346.106 823.44 336.463C817.049 326.819 807.936 319.293 797.259 314.84C805.239 309.459 811.77 302.194 816.274 293.687C820.777 285.18 823.115 275.695 823.079 266.07C823.079 238.3 804.079 215.07 778.609 209.19C783.544 200.358 786.129 190.407 786.119 180.29C786.119 148.1 760.549 122 728.999 122C720.623 121.993 712.352 123.87 704.799 127.49C705.25 124.538 705.474 121.556 705.469 118.57C705.469 86.36 679.899 60.24 648.349 60.24C639.964 60.2513 631.687 62.1292 624.118 65.7373C616.549 69.3454 609.878 74.5932 604.589 81.1C602.979 50.36 578.059 25.93 547.589 25.93C537.318 25.9638 527.248 28.777 518.447 34.0711C509.646 39.3651 502.442 46.9427 497.599 56C492.753 46.9433 485.547 39.3666 476.744 34.0727C467.942 28.7789 457.871 25.9653 447.599 25.93C417.099 25.93 392.179 50.36 390.599 81.1C385.307 74.594 378.635 69.3469 371.064 65.739C363.494 62.131 355.215 60.2527 346.829 60.24C315.299 60.24 289.719 86.35 289.719 118.57C289.716 121.556 289.936 124.537 290.379 127.49C282.836 123.87 274.576 121.994 266.209 122C234.669 122 209.089 148.12 209.089 180.33C209.073 190.448 211.659 200.4 216.599 209.23C191.149 215.11 172.139 238.34 172.139 266.11C172.111 275.735 174.456 285.219 178.967 293.722C183.477 302.225 190.014 309.485 197.999 314.86C187.455 319.326 178.443 326.772 172.069 336.285C165.696 345.798 162.236 356.965 162.117 368.415C161.997 379.865 165.221 391.102 171.394 400.746C177.567 410.391 186.421 418.024 196.869 422.71C187.409 433.494 182.216 447.364 182.269 461.71C182.269 490.22 202.319 513.96 228.809 519.04C217.299 529.35 774.169 529.97 762.989 519.59C791.189 516.02 812.989 491.48 812.989 461.72C813.034 447.374 807.838 433.506 798.379 422.72C808.774 418.121 817.6 410.588 823.777 401.046C829.953 391.504 833.21 380.367 833.149 369Z" stroke="#592D3D" stroke-width="12" stroke-miterlimit="10"/>
<path d="M610 758.72C700.76 758.72 682 872.96 682.87 1000H610V758.72Z" fill="#A56941"/>
<path d="M632.74 831.87L610 870L621.38 1000H653.14C653.91 819.73 632.74 831.87 632.74 831.87Z" fill="#8D5638"/>
<path d="M233.25 500C233.25 352.68 352.68 233.25 500 233.25C647.32 233.25 766.75 352.68 766.75 500C766.788 539.694 757.949 578.895 740.88 614.731C723.811 650.568 698.945 682.135 668.1 707.12C662.627 711.573 656.98 715.803 651.16 719.81C591 758 515 758 446.39 751.89C439.73 750.89 433.09 749.63 426.5 748.18C400.17 742.38 374.68 733.43 351.13 720.38C345.31 716.793 339.667 712.92 334.2 708.76C328.706 704.576 323.432 700.11 318.4 695.38C313.64 690.96 309.044 686.367 304.61 681.6C258.667 632.299 233.161 567.39 233.25 500Z" fill="#A56941"/>
<path d="M269.608 634.48C270.308 635.68 270.998 636.88 271.718 638.06C272.148 638.78 272.598 639.48 273.048 640.2C273.708 641.27 274.368 642.34 275.048 643.39C275.528 644.15 276.048 644.89 276.508 645.63C277.168 646.63 277.828 647.63 278.508 648.63C279.018 649.39 279.508 650.15 280.068 650.91C280.728 651.91 281.388 652.83 282.068 653.79C282.608 654.56 283.168 655.32 283.718 656.09C284.268 656.86 285.058 657.94 285.718 658.86C286.378 659.78 286.868 660.39 287.448 661.15C288.028 661.91 288.818 662.95 289.518 663.85C290.218 664.75 290.708 665.36 291.308 666.11C291.908 666.86 292.718 667.87 293.428 668.74C294.138 669.61 294.658 670.23 295.278 670.97C295.898 671.71 296.718 672.69 297.448 673.54C298.178 674.39 298.718 675.01 299.358 675.74L301.578 678.24C302.228 678.97 302.888 679.68 303.578 680.4C304.438 681.34 305.308 682.27 306.178 683.19L307.388 684.47C308.678 685.81 309.978 687.15 311.298 688.47L311.558 688.74C312.848 690.02 314.158 691.29 315.468 692.55L317.048 694.05C317.998 694.94 318.948 695.83 319.908 696.71L321.068 697.77C322.068 698.71 323.158 699.63 324.208 700.55C327.474 703.397 330.808 706.127 334.208 708.74C339.668 712.9 345.311 716.773 351.138 720.36C374.688 733.36 400.138 742.36 426.508 748.16C433.098 749.61 439.738 750.86 446.398 751.87C488.498 755.62 533.398 757.05 575.678 748.79C508.448 729 185.588 612.74 388.798 257.48C386.078 258.73 383.398 260.02 380.738 261.36L380.148 261.65C378.928 262.26 377.708 262.89 376.498 263.53L375.498 264.06C371.738 266.06 368.018 268.13 364.368 270.29L363.468 270.82C362.308 271.51 361.158 272.21 360.008 272.92L359.138 273.46C355.564 275.693 352.048 278.003 348.588 280.39L347.508 281.14C346.418 281.9 345.348 282.66 344.278 283.43L343.618 283.9C341.438 285.493 339.284 287.107 337.158 288.74L336.538 289.22C335.538 290 334.538 290.8 333.538 291.61L332.368 292.55C331.368 293.36 330.368 294.17 329.368 295C327.258 296.75 325.178 298.55 323.128 300.37L321.988 301.37L319.298 303.82L317.998 305C315.144 307.667 312.354 310.39 309.628 313.17L308.248 314.58C307.458 315.4 306.668 316.22 305.888 317.05C305.428 317.54 304.968 318.05 304.518 318.53C303.144 319.997 301.791 321.483 300.458 322.99C300.008 323.5 299.548 323.99 299.098 324.53C298.388 325.34 297.688 326.16 296.988 326.98L295.478 328.77C294.798 329.58 294.118 330.39 293.478 331.21C292.938 331.87 292.398 332.54 291.868 333.21C290.798 334.54 289.748 335.87 288.708 337.21C288.168 337.91 287.628 338.61 287.098 339.32C286.568 340.03 285.898 340.91 285.308 341.72C284.718 342.53 284.238 343.17 283.718 343.9C283.198 344.63 282.588 345.45 282.038 346.23C281.091 347.563 280.158 348.913 279.238 350.28C278.738 351.01 278.238 351.76 277.748 352.5C277.258 353.24 276.648 354.16 276.108 355L274.618 357.31L272.938 360.02C272.508 360.71 272.078 361.4 271.658 362.09C270.768 363.55 269.908 365.02 269.048 366.49L267.828 368.65C267.288 369.6 266.748 370.56 266.218 371.52C265.818 372.25 265.418 372.98 265.028 373.71C264.388 374.9 263.758 376.1 263.128 377.3L261.928 379.64C261.288 380.92 260.648 382.19 260.018 383.48C259.688 384.17 259.348 384.87 259.018 385.57C258.498 386.66 258.018 387.76 257.488 388.86C257.178 389.52 256.878 390.18 256.578 390.86C255.838 392.507 255.114 394.173 254.408 395.86C254.188 396.38 253.978 396.91 253.758 397.43C253.228 398.7 252.708 399.97 252.198 401.25C251.928 401.92 251.668 402.59 251.408 403.25C250.908 404.51 250.408 405.78 249.958 407.05C249.748 407.6 249.538 408.15 249.338 408.7C248.711 410.453 248.094 412.207 247.488 413.96L246.928 415.66C246.488 416.993 246.058 418.327 245.638 419.66L245.038 421.57C244.568 423.11 244.108 424.65 243.668 426.2C243.568 426.53 243.468 426.86 243.378 427.2C242.858 429.04 242.358 430.887 241.878 432.74C241.718 433.33 241.578 433.93 241.428 434.52C241.078 435.91 240.738 437.3 240.428 438.7L240.008 440.45C239.578 442.35 239.158 444.25 238.768 446.16L238.618 446.93C238.278 448.63 237.944 450.33 237.618 452.03C237.508 452.64 237.408 453.24 237.298 453.85C237.038 455.34 236.788 456.85 236.558 458.35C236.478 458.86 236.388 459.35 236.318 459.87C236.018 461.82 235.748 463.78 235.488 465.75L235.338 467.05C235.138 468.64 234.958 470.24 234.788 471.84C234.728 472.44 234.658 473.04 234.598 473.65C234.438 475.33 234.288 477.02 234.148 478.71C234.148 479.06 234.088 479.4 234.068 479.71C233.921 481.71 233.791 483.727 233.678 485.76C233.678 486.29 233.678 486.83 233.608 487.36C233.541 488.933 233.481 490.503 233.428 492.07C233.428 492.66 233.428 493.25 233.428 493.84C233.428 495.89 233.348 497.95 233.348 500.01C233.348 500.01 233.348 500.08 233.348 500.11C233.348 502.33 233.348 504.53 233.428 506.73C233.428 507.49 233.488 508.25 233.508 509.01C233.558 510.48 233.608 511.95 233.678 513.42C233.678 514.31 233.788 515.19 233.838 516.08C233.918 517.41 233.988 518.74 234.088 520.08C234.158 521.08 234.248 521.97 234.328 522.91C234.438 524.17 234.538 525.43 234.668 526.68C234.758 527.68 234.878 528.62 234.978 529.59C235.118 530.8 235.248 532.02 235.398 533.23C235.518 534.23 235.658 535.23 235.788 536.18C235.948 537.36 236.108 538.55 236.288 539.73C236.438 540.73 236.598 541.73 236.758 542.73C236.938 543.89 237.128 545.06 237.328 546.22C237.508 547.22 237.688 548.22 237.878 549.22C238.088 550.37 238.308 551.52 238.528 552.66C238.748 553.8 238.938 554.66 239.148 555.66C239.388 556.8 239.628 557.93 239.888 559.06C240.148 560.19 240.328 561.06 240.568 561.99C240.828 563.12 241.108 564.24 241.388 565.35C241.668 566.46 241.878 567.3 242.128 568.26C242.428 569.38 242.728 570.49 243.038 571.6C243.298 572.6 243.568 573.52 243.848 574.47C244.168 575.58 244.498 576.68 244.848 577.78C245.198 578.88 245.428 579.67 245.728 580.62C246.028 581.57 246.428 582.81 246.788 583.9C247.148 584.99 247.408 585.77 247.728 586.7C248.108 587.79 248.488 588.88 248.878 589.97C249.208 590.88 249.528 591.8 249.878 592.71L251.118 595.98C251.468 596.87 251.808 597.77 252.118 598.66C252.558 599.75 253.008 600.85 253.458 601.94C253.818 602.8 254.168 603.67 254.538 604.53C255.008 605.65 255.538 606.75 255.988 607.86C256.358 608.68 256.718 609.51 257.088 610.33C257.608 611.49 258.158 612.63 258.688 613.77L259.768 616.07C260.378 617.33 261.008 618.57 261.638 619.82C261.958 620.45 262.258 621.09 262.588 621.72C264.508 625.46 266.508 629.15 268.588 632.79C268.878 633.26 269.248 633.87 269.608 634.48Z" fill="#8D5638"/>
<path d="M233.25 500C233.25 352.68 352.68 233.25 500 233.25C647.32 233.25 766.75 352.68 766.75 500C766.788 539.694 757.949 578.895 740.88 614.731C723.811 650.568 698.945 682.135 668.1 707.12C662.627 711.573 656.98 715.803 651.16 719.81C591 758 515 758 446.39 751.89C439.73 750.89 433.09 749.63 426.5 748.18C400.17 742.38 374.68 733.43 351.13 720.38C345.31 716.793 339.667 712.92 334.2 708.76C328.706 704.576 323.432 700.11 318.4 695.38C313.64 690.96 309.044 686.367 304.61 681.6C258.667 632.299 233.161 567.39 233.25 500Z" stroke="#592D3D" stroke-width="12" stroke-miterlimit="10"/>
<path d="M386.118 758.72C295.348 758.72 314.118 872.96 313.248 1000H386.118V758.72Z" fill="#A56941"/>
<path d="M367.228 831.87L389.998 870L378.608 1000H346.878C346.068 819.73 367.228 831.87 367.228 831.87Z" fill="#8D5638"/>
<path d="M619.468 1070H380.528C377.007 1070 373.632 1068.6 371.144 1066.11C368.656 1063.62 367.258 1060.24 367.258 1056.72V772C367.258 768.48 368.656 765.103 371.144 762.613C373.632 760.123 377.007 758.723 380.528 758.72H613.758C626.848 758.72 632.758 766.38 632.758 778.6V1056.68C632.763 1058.43 632.423 1060.16 631.757 1061.78C631.092 1063.39 630.114 1064.86 628.879 1066.1C627.644 1067.34 626.177 1068.32 624.562 1068.99C622.947 1069.66 621.216 1070 619.468 1070Z" fill="#A56941"/>
<path d="M629.048 766.62C628.051 765.394 627.208 764.051 626.538 762.62C624.137 760.738 621.28 759.527 618.258 759.11C616.769 758.879 615.264 758.766 613.758 758.77H380.528C377.016 758.773 373.648 760.166 371.162 762.645C368.675 765.125 367.271 768.488 367.258 772C396.258 782.42 450.548 788.24 499.998 788.24C563.058 788.24 604.378 778.89 629.048 766.62Z" fill="#8D5638"/>
<path d="M610 758.72C700.76 758.72 682 872.96 682.87 1000H632.74" stroke="#592D3D" stroke-width="12" stroke-miterlimit="10" stroke-linecap="square"/>
<path d="M386.118 758.72C295.348 758.72 314.118 872.96 313.248 1000H363.318" stroke="#592D3D" stroke-width="12" stroke-miterlimit="10" stroke-linecap="square"/>
<path d="M380.527 758.82L613.757 758.72" stroke="#592D3D" stroke-width="12" stroke-miterlimit="10"/>
<path d="M380.528 1070H497.148C387.998 1070 396.238 838.82 367.258 838.82V1056.68C367.253 1058.43 367.592 1060.16 368.256 1061.77C368.921 1063.39 369.897 1064.86 371.13 1066.09C372.362 1067.33 373.827 1068.31 375.44 1068.98C377.052 1069.65 378.781 1070 380.528 1070Z" fill="#8D5638"/>
<path d="M361.259 860.85C361.069 857.18 361.149 853.51 361.309 849.85C361.469 846.19 361.779 842.5 362.169 838.85C362.369 837.01 362.569 835.18 362.819 833.34C363.069 831.5 363.309 829.67 363.669 827.83C364.378 824.022 365.585 820.323 367.259 816.83C368.933 820.323 370.14 824.022 370.849 827.83C371.209 829.67 371.469 831.5 371.699 833.34C371.929 835.18 372.149 837.01 372.349 838.85C372.729 842.52 373.029 846.19 373.199 849.85C373.369 853.51 373.449 857.19 373.259 860.85H361.259Z" fill="#592D3D"/>
<path d="M632.738 870V878C632.998 912 632.998 947 632.738 980.75C632.738 983.62 632.738 986.47 632.738 989.28V1056.69C632.742 1058.44 632.402 1060.16 631.737 1061.78C631.072 1063.39 630.095 1064.86 628.862 1066.1C627.63 1067.33 626.166 1068.31 624.554 1068.98C622.942 1069.65 621.213 1070 619.468 1070H380.528C377.007 1070 373.632 1068.6 371.144 1066.11C368.656 1063.62 367.258 1060.24 367.258 1056.72V998.52C367.258 996.01 367.258 993.45 367.258 990.87C367.008 956 367.008 921 367.258 885.57V860.85" stroke="#592D3D" stroke-width="12" stroke-miterlimit="10"/>
<path d="M626.74 870C626.55 865.83 626.64 861.65 626.8 857.47C626.96 853.29 627.27 849.12 627.65 844.94C627.85 842.85 628.06 840.76 628.3 838.67C628.54 836.58 628.79 834.5 629.15 832.41C629.847 828.106 631.052 823.9 632.74 819.88C634.428 823.9 635.633 828.106 636.33 832.41C636.69 834.5 636.95 836.59 637.18 838.67C637.41 840.75 637.63 842.85 637.83 844.94C638.21 849.12 638.52 853.29 638.68 857.47C638.84 861.65 638.93 865.83 638.74 870H626.74Z" fill="#592D3D"/>
<path d="M570.68 842.45C570.9 833 582.9 829 588.9 835C589.875 835.995 590.644 837.173 591.164 838.466C591.684 839.759 591.944 841.141 591.93 842.535C591.915 843.928 591.627 845.305 591.08 846.587C590.534 847.868 589.74 849.03 588.745 850.005C587.749 850.98 586.572 851.75 585.279 852.269C583.986 852.789 582.603 853.05 581.21 853.035C579.817 853.021 578.44 852.732 577.158 852.186C575.876 851.639 574.715 850.845 573.74 849.85C572.766 848.88 571.994 847.726 571.469 846.456C570.944 845.186 570.675 843.824 570.68 842.45Z" fill="#592D3D"/>
<path d="M408.109 842.15C407.899 834 416.899 830 422.899 833C430.899 836 430.899 847 422.899 852C418.899 854 414.899 852 411.149 849.52C410.182 848.552 409.416 847.403 408.894 846.138C408.372 844.873 408.106 843.518 408.109 842.15Z" fill="#592D3D"/>
<path d="M500 831.77C500.715 833.655 501.218 835.614 501.5 837.61C501.797 839.543 501.961 841.494 501.99 843.45L502.29 855.14C502.38 859.03 502.5 862.93 502.54 866.83L502.71 878.5C502.94 894.07 502.93 909.66 502.99 925.24C503.05 940.82 503.17 956.4 502.99 971.98C502.9 979.77 502.69 987.56 502.46 995.35C502.36 999.24 502.17 1003.14 501.79 1007.03C501.45 1010.96 500.859 1014.87 500.02 1018.72C499.181 1014.87 498.59 1010.96 498.25 1007.03C497.87 1003.14 497.68 999.24 497.58 995.35C497.35 987.56 497.14 979.77 497.05 971.98C496.85 956.4 497.05 940.82 497.05 925.24C497.05 909.66 497.05 894.09 497.23 878.51L497.4 866.81L497.73 855.13L498.06 843.45C498.097 841.494 498.264 839.543 498.56 837.61C498.822 835.616 499.305 833.657 500 831.77Z" fill="#8D5638"/>
<path d="M425.219 883C426.702 882.295 428.272 881.791 429.889 881.5C431.433 881.21 432.998 881.043 434.569 881L443.919 880.67L462.619 880.26C475.079 880.07 487.529 880.02 499.999 879.99C512.469 879.96 524.929 879.83 537.389 879.99C543.619 880.08 549.849 880.29 556.089 880.52C559.199 880.63 562.319 880.82 565.429 881.19C568.587 881.54 571.713 882.135 574.779 882.97C571.715 883.81 568.588 884.402 565.429 884.74C562.319 885.12 559.199 885.31 556.089 885.41C549.849 885.64 543.619 885.84 537.389 885.93C524.929 886.12 512.469 885.93 499.999 885.93C487.529 885.93 475.069 885.93 462.599 885.78C456.369 885.72 450.139 885.52 443.919 885.28L434.569 884.94C433.001 884.898 431.44 884.731 429.899 884.44C428.282 884.17 426.708 883.686 425.219 883Z" fill="#8D5638"/>
<path d="M442.41 914.38C443.591 913.817 444.853 913.442 446.15 913.27C447.349 913.101 448.561 913.05 449.77 913.12C452.16 913.22 454.55 913.28 456.94 913.33C461.72 913.44 466.5 913.48 471.28 913.5C480.91 913.5 490.37 913.58 500.04 913.29C509.71 913 519.3 912.86 528.92 912.9C533.73 912.9 538.54 913.03 543.34 913.14C545.757 913.172 548.17 913.329 550.57 913.61C553.037 913.882 555.472 914.395 557.84 915.14C555.528 916.048 553.129 916.718 550.68 917.14C548.296 917.569 545.888 917.857 543.47 918C538.65 918.35 533.83 918.65 529.02 918.82C519.38 919.18 509.75 919.14 500.14 919.27C495.33 919.27 490.53 919.49 485.66 919.37C480.79 919.25 475.97 919.24 471.14 919.06C466.31 918.88 461.46 918.48 456.64 917.98C454.22 917.71 451.82 917.41 449.41 917.08C448.193 916.931 446.996 916.649 445.84 916.24C444.599 915.82 443.439 915.191 442.41 914.38Z" fill="#8D5638"/>
<path d="M438.93 949.87C440.116 949.172 441.405 948.666 442.75 948.37C444.003 948.079 445.283 947.914 446.57 947.88L454.2 947.56C459.29 947.38 464.39 947.23 469.48 947.15C479.66 947 489.84 947 500 947C510.16 947 520.36 946.83 530.54 947C535.63 947.09 540.72 947.3 545.81 947.53C548.363 947.616 550.91 947.836 553.44 948.19C556.045 948.547 558.61 949.154 561.1 950C558.618 950.831 556.063 951.423 553.47 951.77C550.937 952.132 548.387 952.356 545.83 952.44C540.74 952.67 535.65 952.88 530.56 952.97C520.38 953.17 510.19 953.03 500.01 952.97C489.83 952.91 479.65 952.91 469.47 952.72C464.38 952.62 459.28 952.44 454.19 952.23L446.56 951.86C445.273 951.821 443.993 951.653 442.74 951.36C441.398 951.07 440.112 950.567 438.93 949.87Z" fill="#8D5638"/>
<path d="M677.8 906.35C678.01 869.24 676.59 836.28 670.07 810.96C660 785.6 641.89 770.48 610 770.48L632.79 905C632.79 905 655.31 915.24 677.8 906.35Z" fill="#8D5638"/>
<path d="M686.411 895.79C685.27 896.732 684.029 897.547 682.711 898.22" stroke="#592D3D" stroke-width="12" stroke-miterlimit="10" stroke-linecap="square"/>
<path d="M326.109 809.88C319.279 835.45 318.109 869.01 318.369 906.88C338.269 915.42 368.789 904.73 368.789 904.73L386.119 772.49C355.249 772.46 336.849 786.36 326.109 809.88Z" fill="#8D5638"/>
<path d="M613.758 758.72H559.548V758.82C559.549 763.322 559.067 767.811 558.108 772.21C557.642 774.35 557.061 776.463 556.368 778.54C554.155 784.744 550.759 790.46 546.368 795.37C544.966 796.943 543.463 798.423 541.868 799.8C516.698 818 476.698 819 452.388 799.22C449.769 796.932 447.387 794.386 445.278 791.62C440.899 785.87 437.797 779.253 436.178 772.21C435.704 770.034 435.347 767.834 435.108 765.62C434.858 763.362 434.734 761.092 434.738 758.82V758.72H380.528C377.008 758.723 373.632 760.123 371.144 762.613C368.656 765.103 367.258 768.48 367.258 772V1056.68C367.253 1058.43 367.592 1060.16 368.256 1061.77C368.921 1063.39 369.897 1064.86 371.13 1066.09C372.362 1067.33 373.827 1068.31 375.44 1068.98C377.052 1069.65 378.781 1070 380.528 1070H619.468C622.988 1070 626.363 1068.6 628.852 1066.11C631.34 1063.62 632.738 1060.24 632.738 1056.72V778.6C632.738 766.38 626.848 758.72 613.758 758.72Z" fill="#633749"/>
<path d="M610 758.72C673.54 758.72 683.4 814.72 683.9 891.89C665.3 903.51 634.99 893.2 634.99 893.2L610 758.72Z" fill="#633749"/>
<path d="M632.74 831.87L610 870L621.38 1000H632.99V894.35L650.27 897.24C644.6 825.07 632.74 831.87 632.74 831.87Z" fill="#5E3244"/>
<path d="M386.12 758.72C324.34 758.72 310.29 812.52 309.27 886.38C328.27 906.24 367.27 890.96 367.27 890.96L386.12 758.72Z" fill="#633749"/>
<path d="M367.228 831.87V891L349.918 895.31C355.588 825.19 367.228 831.87 367.228 831.87Z" fill="#5E3244"/>
<path d="M610 758.72C677.41 758.72 688.45 815.01 688.9 892.5C662.7 904.93 634.99 893.2 634.99 893.2" stroke="#592D3D" stroke-width="12" stroke-miterlimit="10" stroke-linecap="square"/>
<path d="M386.119 758.72C319.329 758.72 306.039 813.42 305.359 889.44C325.999 904.22 367.219 891 367.219 891" stroke="#592D3D" stroke-width="12" stroke-miterlimit="10" stroke-linecap="square"/>
<path d="M380.528 1070H497.148C387.998 1070 396.238 838.82 367.258 838.82V1056.68C367.253 1058.43 367.592 1060.16 368.256 1061.77C368.921 1063.39 369.897 1064.86 371.13 1066.09C372.362 1067.33 373.827 1068.31 375.44 1068.98C377.052 1069.65 378.781 1070 380.528 1070Z" fill="#5E3244"/>
<path d="M361.259 860.85C361.069 857.18 361.149 853.51 361.309 849.85C361.469 846.19 361.779 842.5 362.169 838.85C362.369 837.01 362.569 835.18 362.819 833.34C363.069 831.5 363.309 829.67 363.669 827.83C364.378 824.022 365.585 820.323 367.259 816.83C368.934 820.322 370.138 824.021 370.839 827.83C371.209 829.67 371.469 831.5 371.699 833.34C371.929 835.18 372.149 837.01 372.349 838.85C372.729 842.52 373.029 846.19 373.199 849.85C373.369 853.51 373.449 857.19 373.259 860.85H361.259Z" fill="#592D3D"/>
<path d="M632.738 870V878C632.998 912 632.998 947 632.738 980.75C632.738 983.62 632.738 986.47 632.738 989.28V1056.69C632.742 1058.44 632.402 1060.16 631.737 1061.78C631.072 1063.39 630.095 1064.86 628.862 1066.1C627.63 1067.33 626.166 1068.31 624.554 1068.98C622.942 1069.65 621.213 1070 619.468 1070H380.528C377.007 1070 373.632 1068.6 371.144 1066.11C368.656 1063.62 367.258 1060.24 367.258 1056.72V998.52C367.258 996.01 367.258 993.45 367.258 990.87C367.008 956 367.008 921 367.258 885.57V860.85" stroke="#592D3D" stroke-width="12" stroke-miterlimit="10"/>
<path d="M626.74 870C626.55 865.83 626.64 861.65 626.8 857.47C626.96 853.29 627.27 849.12 627.65 844.94C627.85 842.85 628.06 840.76 628.3 838.67C628.54 836.58 628.79 834.5 629.16 832.41C629.848 828.105 631.05 823.899 632.74 819.88C634.428 823.9 635.633 828.106 636.33 832.41C636.69 834.5 636.95 836.59 637.18 838.67C637.41 840.75 637.63 842.85 637.83 844.94C638.21 849.12 638.52 853.29 638.68 857.47C638.84 861.65 638.93 865.83 638.74 870H626.74Z" fill="#592D3D"/>
<path d="M380.527 758.82L613.757 758.72" stroke="#592D3D" stroke-width="12" stroke-miterlimit="10"/>
<path d="M559.548 758.82C559.55 763.322 559.067 767.811 558.108 772.21C557.643 774.35 557.062 776.463 556.368 778.54C554.156 784.744 550.76 790.46 546.368 795.37C544.967 796.943 543.464 798.423 541.868 799.8C516.698 818 476.698 819 452.388 799.22C449.769 796.932 447.387 794.386 445.278 791.62C440.9 785.87 437.798 779.253 436.178 772.21C435.704 770.034 435.347 767.834 435.108 765.62C434.858 763.362 434.735 761.092 434.738 758.82" stroke="#592D3D" stroke-width="12" stroke-miterlimit="10"/>
<path d="M503.399 828.39C497.35 829.607 491.161 829.977 485.009 829.49C478.802 829.054 472.681 827.789 466.809 825.73C460.902 823.705 455.338 820.792 450.309 817.09L448.449 815.68C447.839 815.2 447.249 814.68 446.659 814.16C445.471 813.149 444.358 812.052 443.329 810.88C441.276 808.573 439.473 806.056 437.949 803.37C440.089 805.515 442.338 807.548 444.689 809.46C445.269 809.94 445.859 810.41 446.439 810.86C447.019 811.31 447.669 811.68 448.279 812.1C448.889 812.52 449.499 812.94 450.129 813.33L452.039 814.49C457.141 817.512 462.535 820.012 468.139 821.95C473.755 823.914 479.525 825.402 485.389 826.4C491.354 827.376 497.365 828.04 503.399 828.39Z" fill="#592D3D"/>
<path d="M307.828 892.5C308.965 893.537 310.197 894.464 311.508 895.27" stroke="#592D3D" stroke-width="12" stroke-miterlimit="10" stroke-linecap="square"/>
<path d="M674.699 882.69C672.618 883.935 670.327 884.789 667.939 885.21C665.568 885.676 663.155 885.894 660.739 885.86C658.327 885.813 655.924 885.548 653.559 885.07C652.379 884.86 651.229 884.51 650.069 884.2C648.909 883.89 647.799 883.43 646.699 882.96C647.909 882.96 649.079 883.14 650.259 883.24L653.779 883.53C654.949 883.53 656.109 883.73 657.279 883.74C658.449 883.75 659.599 883.85 660.759 883.86C663.093 883.9 665.426 883.837 667.759 883.67C670.093 883.508 672.412 883.181 674.699 882.69Z" fill="#592D3D"/>
<path d="M670.061 788.32C672.261 786.107 674.427 783.87 676.561 781.61C721.721 726.9 725.261 669.22 734.431 633.24V619L731.991 619.84C732.821 618.32 733.641 616.84 734.431 615.28C734.371 615.18 730.941 618.66 730.881 618.56C729.296 619.859 727.595 621.01 725.801 622L693.251 633.28C678.785 636.016 664.082 637.296 649.361 637.1C586.361 636.84 586.121 622.23 536.161 617.1L439.671 618.68C413.981 622.52 402.611 630.49 351.671 631.53C307.521 632.43 268.051 621.53 268.051 621.53V634.21C282.051 671.05 272.631 698.64 297.051 744.7C297.051 744.05 297.051 743.39 297.001 742.7C292.611 720.99 297.001 701.13 299.121 693.51C299.331 691.63 299.481 690.59 299.481 690.59V690.52C299.481 690.4 299.481 690.32 299.481 690.32V690.42C299.481 690.56 299.591 690.87 299.701 691.32C299.931 690.6 300.061 690.21 300.061 690.21C300.061 690.21 300.951 695.12 302.601 702.95C306.531 718.43 313.761 745.95 322.051 773.03C322.971 775.46 323.921 777.84 324.891 780.14C324.961 780.35 325.041 780.58 325.121 780.79C353.061 810.67 387.251 836.15 418.261 855.29C421.601 857.29 424.771 859.16 427.741 860.9C424.891 846.574 425.72 831.759 430.151 817.84C430.151 817.84 430.221 818.22 430.361 818.92C430.601 818.15 430.761 817.73 430.761 817.73C430.761 817.73 442.191 865.18 465.281 880.56C465.851 880.8 466.431 881.03 467.011 881.22L466.571 881.38L466.671 881.44C467.251 881.77 467.851 882.09 468.441 882.44C475.392 885.674 482.516 888.521 489.781 890.97C495.191 892.54 499.621 893.36 501.781 893.36C506.531 893.36 533.781 882.75 550.471 844.29C551.571 841.02 552.101 838.97 552.101 838.97L552.381 839.66C552.491 839.39 552.601 839.13 552.701 838.86C558.167 847.947 560.942 858.399 560.701 869C585.983 855.151 610.084 839.248 632.761 821.45V821.34C633.031 820.7 633.291 820.05 633.561 819.4L633.621 819.27L634.431 817.27L635.271 815.19C649.751 779.36 658.851 726.19 658.851 726.19C658.911 726.01 659.131 726.28 659.451 726.93C659.451 726.38 659.451 726.08 659.451 726.08C659.451 726.08 675.721 748.49 670.061 788.32Z" fill="#A56941"/>
<path d="M670.061 788.32C672.261 786.107 674.427 783.87 676.561 781.61C721.721 726.9 725.261 669.22 734.431 633.24V619L731.991 619.84C732.821 618.32 733.641 616.84 734.431 615.28C734.371 615.18 730.941 618.66 730.881 618.56C729.296 619.859 727.595 621.01 725.801 622L693.251 633.28C678.785 636.016 664.082 637.296 649.361 637.1C586.361 636.84 586.121 622.23 536.161 617.1L439.671 618.68C413.981 622.52 402.611 630.49 351.671 631.53C307.521 632.43 268.051 621.53 268.051 621.53V634.21C282.051 671.05 272.631 698.64 297.051 744.7C297.051 744.05 297.051 743.39 297.001 742.7C292.611 720.99 297.001 701.13 299.121 693.51C299.331 691.63 299.481 690.59 299.481 690.59V690.52C299.481 690.4 299.481 690.32 299.481 690.32V690.42C299.481 690.56 299.591 690.87 299.701 691.32C299.931 690.6 300.061 690.21 300.061 690.21C300.061 690.21 300.951 695.12 302.601 702.95C306.531 718.43 313.761 745.95 322.051 773.03C322.971 775.46 323.921 777.84 324.891 780.14C324.961 780.35 325.041 780.58 325.121 780.79C353.061 810.67 387.251 836.15 418.261 855.29C421.601 857.29 424.771 859.16 427.741 860.9C424.891 846.574 425.72 831.759 430.151 817.84C430.151 817.84 430.221 818.22 430.361 818.92C430.601 818.15 430.761 817.73 430.761 817.73C430.761 817.73 442.191 865.18 465.281 880.56C465.851 880.8 466.431 881.03 467.011 881.22L466.571 881.38L466.671 881.44C467.251 881.77 467.851 882.09 468.441 882.44C475.392 885.674 482.516 888.521 489.781 890.97C495.191 892.54 499.621 893.36 501.781 893.36C506.531 893.36 533.781 882.75 550.471 844.29C551.571 841.02 552.101 838.97 552.101 838.97L552.381 839.66C552.491 839.39 552.601 839.13 552.701 838.86C558.167 847.947 560.942 858.399 560.701 869C585.983 855.151 610.084 839.248 632.761 821.45V821.34C633.031 820.7 633.291 820.05 633.561 819.4L633.621 819.27L634.431 817.27L635.271 815.19C649.751 779.36 658.851 726.19 658.851 726.19C658.911 726.01 659.131 726.28 659.451 726.93C659.451 726.38 659.451 726.08 659.451 726.08C659.451 726.08 675.721 748.49 670.061 788.32Z" fill="#A56941"/>
<path d="M670.061 788.32C672.261 786.107 674.427 783.87 676.561 781.61C721.721 726.9 725.261 669.22 734.431 633.24V619L731.991 619.84C732.821 618.32 733.641 616.84 734.431 615.28C734.371 615.18 730.941 618.66 730.881 618.56C729.296 619.859 727.595 621.01 725.801 622L693.251 633.28C678.785 636.016 664.082 637.296 649.361 637.1C586.361 636.84 571.061 617.41 536.161 617.1C501.261 616.79 459.211 615.87 439.671 618.68C420.131 621.49 402.611 630.49 351.671 631.53C307.521 632.43 268.051 621.53 268.051 621.53V634.21C282.051 671.05 272.631 698.64 297.051 744.7C297.051 744.05 297.051 743.39 297.001 742.7C292.611 720.99 297.001 701.13 299.121 693.51C299.331 691.63 299.481 690.59 299.481 690.59V690.52C299.481 690.4 299.481 690.32 299.481 690.32V690.42C299.481 690.56 299.591 690.87 299.701 691.32C299.931 690.6 300.061 690.21 300.061 690.21C300.061 690.21 300.951 695.12 302.601 702.95C306.531 718.43 313.761 745.95 322.051 773.03C322.971 775.46 323.921 777.84 324.891 780.14C324.961 780.35 325.041 780.58 325.121 780.79C353.061 810.67 387.251 836.15 418.261 855.29C421.601 857.29 424.771 859.16 427.741 860.9C424.891 846.574 425.72 831.759 430.151 817.84C430.151 817.84 430.221 818.22 430.361 818.92C430.601 818.15 430.761 817.73 430.761 817.73C430.761 817.73 442.191 865.18 465.281 880.56C465.851 880.8 466.431 881.03 467.011 881.22L466.571 881.38L466.671 881.44C467.251 881.77 467.851 882.09 468.441 882.44C475.392 885.674 482.516 888.521 489.781 890.97C495.191 892.54 499.621 893.36 501.781 893.36C506.531 893.36 533.781 882.75 550.471 844.29C551.571 841.02 552.101 838.97 552.101 838.97L552.381 839.66C552.491 839.39 552.601 839.13 552.701 838.86C558.167 847.947 560.942 858.399 560.701 869C585.983 855.151 610.084 839.248 632.761 821.45V821.34C633.031 820.7 633.291 820.05 633.561 819.4L633.621 819.27L634.431 817.27L635.271 815.19C649.751 779.36 658.851 726.19 658.851 726.19C658.911 726.01 659.131 726.28 659.451 726.93C659.451 726.38 659.451 726.08 659.451 726.08C659.451 726.08 675.721 748.49 670.061 788.32Z" fill="#A56941"/>
<path d="M343.499 706.91C347.326 710.318 352.176 712.358 357.289 712.71C342.999 701.34 337.779 690.32 335.999 685.36C330.813 667.565 327.463 649.287 325.999 630.81C306.47 629.426 287.103 626.304 268.129 621.48V634.16C282.129 671 272.709 698.59 297.129 744.65C297.129 744 297.129 743.34 297.079 742.65C292.689 720.94 297.079 701.08 299.199 693.46C299.409 691.58 299.559 690.54 299.559 690.54V690.47C299.559 690.35 299.559 690.27 299.559 690.27V690.37C299.559 690.51 299.669 690.82 299.779 691.27C300.009 690.55 300.139 690.16 300.139 690.16C300.139 690.16 301.029 695.07 302.679 702.9C306.609 718.38 313.839 745.9 322.129 772.98C323.049 775.41 323.999 777.79 324.969 780.09C325.039 780.3 325.119 780.53 325.199 780.74C353.139 810.62 387.329 836.1 418.339 855.24C421.679 857.24 424.849 859.11 427.819 860.85C424.969 846.524 425.799 831.709 430.229 817.79C430.229 817.79 430.299 818.17 430.439 818.87C430.679 818.1 430.839 817.68 430.839 817.68C430.839 817.68 442.269 865.13 465.359 880.51C465.929 880.75 466.509 880.98 467.089 881.17L466.649 881.33L466.749 881.39C467.329 881.72 467.929 882.04 468.519 882.39C475.47 885.624 482.594 888.471 489.859 890.92C495.269 892.49 499.699 893.31 501.859 893.31C505.389 893.31 521.369 887.43 536.189 868.59C466.939 846.06 380.779 800 343.499 706.91Z" fill="#8D5638"/>
<path d="M433.868 816.78C433.868 816.78 443.358 825.78 463.158 820.87C461.688 824.42 457.228 826.27 457.228 826.27C457.228 826.27 463.398 834.4 476.288 834.02C476.288 834.02 468.558 838.82 460.758 835.67C454.677 834.781 448.551 834.224 442.408 834L428.898 824.62L433.868 816.78Z" fill="#8D5638"/>
<path d="M351.699 631.52C349.939 631.84 348.179 632.12 346.419 632.36C345.529 632.47 344.649 632.61 343.769 632.71L341.109 632.95L335.789 633.33C334.009 633.41 332.229 633.42 330.459 633.47C326.899 633.54 323.349 633.4 319.789 633.27C316.229 633.14 312.689 632.9 309.149 632.56C305.609 632.22 302.079 631.86 298.539 631.46C294.999 631.06 291.489 630.46 287.979 629.9C280.901 628.76 273.89 627.235 266.979 625.33L263.129 624.25L265.229 616.68L269.109 617.62C275.719 619.23 282.579 620.75 289.379 622.11C296.179 623.47 303.059 624.75 309.949 625.83C313.389 626.42 316.839 626.83 320.299 627.39C323.759 627.95 327.219 628.39 330.689 628.7C337.669 629.65 344.639 630.36 351.699 631.52Z" fill="#592D3D"/>
<path d="M669.308 789.07C679.568 778.81 678.598 779.44 687.098 768.13C685.598 733.65 657.098 714.42 657.098 714.42L658.998 726.08C659.838 726.24 666.908 744.55 666.558 772.16L669.308 789.07Z" fill="#8D5638"/>
<path d="M575.357 859.87C569.637 834.97 552.938 830.72 552.938 830.72L556.148 850.17C558.092 856.402 559.398 862.814 560.047 869.31C565.047 866.59 570.207 863.65 575.497 860.53L575.357 859.87Z" fill="#8D5638"/>
<path d="M340.091 735.62C341.491 742.568 343.703 749.328 346.681 755.76C349.596 762.087 353.048 768.153 357.001 773.89L360.091 778.07C360.621 778.75 361.091 779.49 361.651 780.14L363.311 782.14C364.441 783.45 365.501 784.82 366.661 786.14L370.221 789.92C370.821 790.54 371.381 791.2 371.991 791.81L373.891 793.59L377.661 797.17C380.241 799.49 382.991 801.62 385.601 803.92L379.321 807.24L379.261 803.24C379.311 801.92 379.331 800.6 379.461 799.24C379.591 797.88 379.691 796.59 379.921 795.24C380.031 794.58 380.101 793.92 380.241 793.24L380.671 791.24C381.273 788.611 382.117 786.044 383.191 783.57C383.725 782.346 384.33 781.154 385.001 780C385.341 779.4 385.731 778.82 386.131 778.23C386.341 777.94 386.531 777.66 386.771 777.36C387.011 777.06 387.191 776.82 387.551 776.41L392.011 771.35L392.571 777.9C392.671 778.99 392.871 780.3 393.101 781.51C393.331 782.72 393.611 783.97 393.941 785.19C394.588 787.632 395.427 790.02 396.451 792.33C397.517 794.644 398.824 796.84 400.351 798.88C401.971 800.932 403.862 802.755 405.971 804.3C403.422 803.353 401.054 801.977 398.971 800.23C396.859 798.428 394.996 796.353 393.431 794.06C391.868 791.753 390.528 789.302 389.431 786.74C388.891 785.46 388.431 784.16 387.971 782.83C387.513 781.468 387.142 780.079 386.861 778.67L391.861 780.16C391.861 780.24 391.641 780.51 391.521 780.71C391.401 780.91 391.261 781.17 391.131 781.4C390.881 781.88 390.631 782.4 390.401 782.88C389.934 783.908 389.52 784.96 389.161 786.03C388.448 788.215 387.907 790.451 387.541 792.72C387.178 795.017 386.961 797.335 386.891 799.66C386.831 800.82 386.891 802 386.891 803.17L387.051 806.7L387.451 815.34L380.771 810.02C379.331 808.87 377.901 807.73 376.481 806.56L374.341 804.81C373.641 804.22 372.901 803.67 372.251 803.02L368.251 799.19L366.251 797.28C365.611 796.61 365.001 795.92 364.391 795.23L360.721 791.08C359.511 789.69 358.461 788.16 357.341 786.69C355.124 783.737 353.065 780.669 351.171 777.5C347.489 771.105 344.591 764.289 342.541 757.2C340.611 750.19 339.431 742.84 340.091 735.62Z" fill="#592D3D"/>
<path d="M638.779 724.34C639.289 724.809 639.704 725.373 639.999 726C640.32 726.628 640.6 727.276 640.839 727.94C641.31 729.268 641.697 730.624 641.999 732C642.558 734.744 642.919 737.524 643.079 740.32C643.394 745.895 643.214 751.487 642.539 757.03C641.215 768.189 638.18 779.076 633.539 789.31C628.915 799.663 622.389 809.056 614.299 817C606.294 824.867 596.516 830.697 585.789 834C594.743 828.084 602.796 820.906 609.699 812.69C616.374 804.566 621.94 795.591 626.249 786C630.611 776.364 633.992 766.313 636.339 756C637.553 750.8 638.491 745.539 639.149 740.24C639.469 737.59 639.689 734.92 639.779 732.24C639.832 730.906 639.805 729.571 639.699 728.24C639.659 727.568 639.572 726.9 639.439 726.24C639.333 725.573 639.109 724.93 638.779 724.34Z" fill="white"/>
<path d="M262.508 621.57C284.748 665.47 269.728 693.95 297.688 745.87C290.688 716.87 300.118 690.19 300.118 690.19C300.118 690.19 309.998 744.78 324.998 780.12C332.278 803.58 394.848 841.52 428.548 861.29C425.576 846.804 426.375 831.798 430.868 817.71C430.868 817.71 442.758 867.07 466.778 881.42C480.208 889 496.928 893.31 501.908 893.31C506.888 893.31 536.438 881.73 552.828 838.81C558.359 848.063 561.102 858.716 560.728 869.49C582.908 857.49 614.118 843.81 633.178 821.84C659.518 787.15 659.518 726 659.518 726C659.518 726 675.998 748.85 669.928 789.3C731.688 721 724.268 646.16 741.348 613.73" stroke="#592D3D" stroke-width="12" stroke-miterlimit="10"/>
<path d="M734.38 616.77C734.663 617.284 735.06 617.725 735.54 618.06C736.175 618.495 736.921 618.738 737.69 618.76C738.269 618.776 738.844 618.659 739.37 618.42H739.281L739.081 618.53L738.6 618.77L737.6 619.28L735.6 620.28C734.267 620.947 732.934 621.613 731.6 622.28C728.91 623.6 726.19 624.85 723.47 626.09C720.75 627.33 717.971 628.5 715.201 629.66C712.431 630.82 709.6 631.89 706.73 632.92C705.29 633.43 703.841 633.92 702.341 634.35C700.783 634.831 699.196 635.215 697.591 635.5C697.121 635.58 696.78 635.61 696.41 635.66L695.29 635.79C694.55 635.88 693.81 635.95 693.06 636.02C691.57 636.16 690.06 636.32 688.57 636.42C682.542 636.917 676.478 636.772 670.48 635.99C676.34 634.41 682.1 633.1 687.85 631.7L696.44 629.7C697.735 629.32 699.007 628.866 700.25 628.34C701.56 627.82 702.88 627.2 704.25 626.62C706.9 625.43 709.54 624.15 712.18 622.85C714.82 621.55 717.47 620.24 720.11 618.92L728.05 614.92L732.05 612.92L734.05 611.92L735.05 611.44L735.581 611.19L735.88 611.06L736.04 610.98H736.091C736.999 610.567 738.026 610.499 738.981 610.788C739.936 611.077 740.753 611.703 741.281 612.55L743.41 615.93L736.35 620.12L734.38 616.77Z" fill="#592D3D"/>
<path d="M341.058 590.04C352.634 590.04 362.018 580.656 362.018 569.08C362.018 557.504 352.634 548.12 341.058 548.12C329.482 548.12 320.098 557.504 320.098 569.08C320.098 580.656 329.482 590.04 341.058 590.04Z" fill="#592D3D"/>
<path d="M340.928 586C342.718 585.9 344.718 585.74 346.628 585.54C348.538 585.34 350.488 585.1 352.418 584.8C354.348 584.5 356.288 584.15 358.228 583.8C360.168 583.45 362.148 583.12 364.228 582.97C362.595 584.227 360.812 585.275 358.918 586.09C357.035 586.877 355.105 587.545 353.138 588.09C351.168 588.665 349.164 589.119 347.138 589.45C345.078 589.81 342.99 589.991 340.898 589.99L340.928 586Z" fill="#592D3D"/>
<path d="M661.769 590.04C673.345 590.04 682.729 580.656 682.729 569.08C682.729 557.504 673.345 548.12 661.769 548.12C650.193 548.12 640.809 557.504 640.809 569.08C640.809 580.656 650.193 590.04 661.769 590.04Z" fill="#592D3D"/>
<path d="M661.77 586C663.57 585.9 665.56 585.74 667.47 585.54C669.38 585.34 671.34 585.1 673.27 584.8C675.2 584.5 677.14 584.15 679.08 583.8C681.02 583.45 683 583.12 685.08 582.97C683.445 584.225 681.662 585.273 679.77 586.09C677.887 586.877 675.957 587.545 673.99 588.09C672.019 588.664 670.016 589.118 667.99 589.45C665.929 589.81 663.842 589.991 661.75 589.99L661.77 586Z" fill="#592D3D"/>
<path d="M446.66 606.02H542.53" stroke="#592D3D" stroke-width="12" stroke-miterlimit="10" stroke-linecap="round"/>
<path d="M558.418 406.88C545.548 430.88 498.418 444.33 494.588 438.3C490.288 431.57 532.438 382.98 508.488 332.16" fill="#8D5638"/>
<path d="M500.15 221.81C369 221.81 247.79 328.25 226 457C226 457 427.33 472.23 500.66 390.25C496.01 412.9 482.94 430.12 485.15 433.58C488.23 438.42 526.07 427.66 536.4 408.36L532.74 402.88C582.65 421 680.23 443.46 746 375.26C702.52 285 604.61 221.81 500.15 221.81Z" fill="#A56941"/>
<path d="M331.517 454.81C325.081 447.858 320.705 439.254 318.877 429.958C317.049 420.662 317.842 411.041 321.168 402.17C314.133 401.707 307.27 399.793 301.01 396.55C294.75 393.306 289.229 388.803 284.793 383.323C280.357 377.843 277.103 371.505 275.235 364.706C273.367 357.908 272.925 350.797 273.938 343.82C249.847 377.51 232.938 416.12 225.938 457C261.134 459.044 296.436 458.312 331.517 454.81Z" fill="#8D5638"/>
<path d="M739.659 389.6C664.999 447 579.069 424.7 533.509 405.69C523.369 423.63 488.249 433.58 485.359 429.05C483.359 425.97 494.179 411.4 499.139 391.89C424.859 472.16 239.289 463.89 239.289 463.89" stroke="#592D3D" stroke-width="12" stroke-miterlimit="10"/>
<path d="M280.918 140.17C273.902 140.493 267.018 142.192 260.658 145.17C254.645 147.936 249.302 151.972 244.998 157C244.447 157.606 243.936 158.248 243.468 158.92C242.988 159.58 242.468 160.2 242.008 160.92C241.075 162.28 240.22 163.692 239.448 165.15C237.859 168.079 236.553 171.153 235.548 174.33C233.626 181.086 232.852 188.117 233.258 195.13C229.71 188.331 228.368 180.596 229.418 173L229.948 170.14L230.238 168.7C230.348 168.23 230.508 167.77 230.648 167.3C230.928 166.36 231.208 165.42 231.518 164.49C231.828 163.56 232.278 162.69 232.658 161.78C233.458 159.983 234.381 158.242 235.418 156.57C235.928 155.72 236.558 154.96 237.118 154.15C237.677 153.337 238.285 152.559 238.938 151.82C244.071 145.781 250.888 141.408 258.518 139.26C265.875 137.036 273.766 137.357 280.918 140.17Z" fill="white"/>
<path d="M358.878 77.15C352.812 76.944 346.75 77.6176 340.878 79.15C335.37 80.6429 330.144 83.0278 325.408 86.21C320.676 89.4301 316.512 93.4144 313.088 98C312.248 99.18 311.288 100.31 310.558 101.58L309.348 103.46C308.918 104.08 308.638 104.76 308.258 105.46C306.714 108.163 305.345 110.962 304.158 113.84C303.733 110.608 303.865 107.327 304.548 104.14C304.718 103.34 304.818 102.51 305.068 101.72L305.808 99.36C306.321 97.7749 306.959 96.2334 307.718 94.75C310.74 88.6204 315.319 83.3925 320.998 79.59C326.622 75.8038 333.129 73.5339 339.888 73C346.493 72.4039 353.123 73.8526 358.878 77.15Z" fill="white"/>
<path d="M255.061 519.62L268.061 515.22L299.261 504.68L336.861 491.98L369.351 480.98C374.621 479.2 379.901 477.47 385.151 475.64L385.381 475.57C387.878 474.826 390.014 473.189 391.381 470.97C392.72 468.681 393.095 465.954 392.424 463.389C391.752 460.823 390.09 458.63 387.801 457.29C386.648 456.617 385.371 456.182 384.047 456.01C382.723 455.838 381.378 455.934 380.091 456.29L367.091 460.68L335.891 471.22L298.291 483.93L265.801 494.93C260.531 496.71 255.251 498.45 250.001 500.27L249.771 500.35C247.274 501.094 245.138 502.731 243.771 504.95C242.432 507.239 242.057 509.966 242.728 512.531C243.4 515.097 245.062 517.29 247.351 518.63C248.504 519.303 249.781 519.738 251.105 519.91C252.429 520.082 253.774 519.987 255.061 519.63V519.62Z" fill="#592D3D"/>
<path d="M617.557 475L630.287 480.13L660.827 492.44L697.637 507.28L729.447 520.11C734.597 522.18 739.707 524.41 744.917 526.35L745.137 526.43C747.387 527.34 750.847 526.59 752.847 525.43C753.982 524.767 754.975 523.886 755.769 522.839C756.563 521.792 757.142 520.598 757.475 519.327C757.807 518.056 757.886 516.731 757.706 515.429C757.527 514.127 757.092 512.874 756.427 511.74L754.867 509.74C753.644 508.516 752.125 507.631 750.457 507.17L737.727 502L707.187 489.68L670.377 474.84L638.567 462C633.417 459.92 628.307 457.69 623.097 455.76L622.877 455.67C620.627 454.76 617.167 455.51 615.167 456.67C612.879 458.01 611.216 460.203 610.545 462.769C609.873 465.334 610.248 468.061 611.587 470.35L613.147 472.35C614.371 473.575 615.89 474.463 617.557 474.93V475Z" fill="#592D3D"/>
<path opacity="0.2" d="M338.9 641.86C390.434 641.86 432.21 600.084 432.21 548.55C432.21 497.016 390.434 455.24 338.9 455.24C287.366 455.24 245.59 497.016 245.59 548.55C245.59 600.084 287.366 641.86 338.9 641.86Z" fill="white"/>
<path opacity="0.15" d="M744.47 606.82C732.351 624.565 714.998 638.089 694.83 645.505C674.662 652.921 652.682 653.861 631.954 648.194C611.226 642.527 592.782 630.535 579.192 613.889C565.603 597.243 557.544 576.773 556.14 555.33C519.14 540.73 481.71 540.86 441.95 555.72C440.105 581.793 428.457 606.2 409.348 624.034C390.24 641.869 365.088 651.806 338.95 651.85C306.47 651.85 262.95 615.35 267.95 623.46C281.95 644.15 314.95 659.91 340.49 659.91C395.04 659.91 438.36 620.62 442.05 566.99C481.81 552.14 519.28 551.99 556.24 566.6C559.74 620.42 604.63 660.13 659.31 660.13C704 660.13 729.4 626 744.47 606.82Z" fill="black"/>
<path opacity="0.4" d="M319.999 648.75L443.069 525.67C440.364 519.571 437.012 513.782 433.069 508.4L302.719 638.76C308.104 642.7 313.897 646.049 319.999 648.75Z" fill="white"/>
<path d="M338.9 641.86C390.434 641.86 432.21 600.084 432.21 548.55C432.21 497.016 390.434 455.24 338.9 455.24C287.366 455.24 245.59 497.016 245.59 548.55C245.59 600.084 287.366 641.86 338.9 641.86Z" stroke="#592D3D" stroke-width="20" stroke-miterlimit="10"/>
<path d="M659.208 641.86C710.742 641.86 752.518 600.084 752.518 548.55C752.518 497.016 710.742 455.24 659.208 455.24C607.675 455.24 565.898 497.016 565.898 548.55C565.898 600.084 607.675 641.86 659.208 641.86Z" stroke="#592D3D" stroke-width="20" stroke-miterlimit="10"/>
<path d="M432.77 548.55C477.97 530.24 522.38 529.55 565.91 548.55" stroke="#592D3D" stroke-width="20" stroke-miterlimit="10"/>
<path d="M314.699 492.5C316.759 499 308.759 504 302.759 505C296.759 505 292.759 501 290.759 496C289.759 491 290.759 486 294.759 483C299.759 481 306.759 479 311.209 484.13C312.32 485.221 313.202 486.524 313.801 487.962C314.401 489.399 314.706 490.942 314.699 492.5Z" fill="white"/>
<path d="M325.368 488.67C324.758 493 318.758 493 317.758 489C317.758 486 318.758 485 321.608 484.9C322.102 484.9 322.592 484.998 323.049 485.187C323.506 485.377 323.921 485.655 324.27 486.005C324.619 486.355 324.896 486.771 325.084 487.228C325.273 487.685 325.369 488.175 325.368 488.67Z" fill="white"/>
<path opacity="0.2" d="M659.208 641.86C710.742 641.86 752.518 600.084 752.518 548.55C752.518 497.016 710.742 455.24 659.208 455.24C607.675 455.24 565.898 497.016 565.898 548.55C565.898 600.084 607.675 641.86 659.208 641.86Z" fill="white"/>
<path opacity="0.4" d="M645.19 640.81L751.47 534.52C750.894 530.735 750.089 526.988 749.06 523.3L634 638.4C637.678 639.429 641.415 640.234 645.19 640.81Z" fill="white"/>
<path d="M659.208 641.86C710.742 641.86 752.518 600.084 752.518 548.55C752.518 497.016 710.742 455.24 659.208 455.24C607.675 455.24 565.898 497.016 565.898 548.55C565.898 600.084 607.675 641.86 659.208 641.86Z" stroke="#592D3D" stroke-width="20" stroke-miterlimit="10"/>
<path d="M635 492.5C637.06 499 629.06 504 623.06 505C617.06 505 613.06 501 611.06 496C610.06 491 611.06 486 615.06 483C620.06 481 627.06 479 631.51 484.13C632.619 485.223 633.499 486.526 634.099 487.963C634.698 489.4 635.004 490.943 635 492.5Z" fill="white"/>
<path d="M645.688 488.67C645.078 493 639.078 493 638.078 489C638.078 486 639.078 485 641.918 484.9C642.918 484.9 643.877 485.297 644.584 486.004C645.291 486.711 645.688 487.67 645.688 488.67Z" fill="white"/>
</g>
</svg>
