<svg width="1000" height="990" viewBox="0 0 1000 990" fill="none" xmlns="http://www.w3.org/2000/svg">
<mask id="mask0_22_1404" style="mask-type:luminance" maskUnits="userSpaceOnUse" x="0" y="0" width="1000" height="966">
<path d="M1000 0H0V718.31H179.2C217.58 860.69 346.65 965.41 500 965.41C653.35 965.41 782.42 860.69 820.8 718.31H1000V0Z" fill="white"/>
</mask>
<g mask="url(#mask0_22_1404)">
<path d="M500.001 962.602C683.603 962.602 832.443 813.763 832.443 630.16C832.443 446.557 683.603 297.718 500.001 297.718C316.398 297.718 167.559 446.557 167.559 630.16C167.559 813.763 316.398 962.602 500.001 962.602Z" fill="#85C5E5"/>
<path d="M833.149 369C833.21 357.431 829.83 346.106 823.44 336.463C817.049 326.819 807.936 319.293 797.259 314.84C805.239 309.459 811.77 302.193 816.274 293.687C820.777 285.18 823.115 275.695 823.079 266.07C823.079 238.3 804.079 215.07 778.609 209.19C783.544 200.358 786.129 190.407 786.119 180.29C786.119 148.1 760.549 122 728.999 122C720.623 121.993 712.352 123.87 704.799 127.49C705.25 124.538 705.474 121.556 705.469 118.57C705.469 86.3599 679.899 60.2399 648.349 60.2399C639.964 60.2513 631.687 62.1291 624.118 65.7372C616.549 69.3453 609.878 74.5931 604.589 81.0999C602.979 50.3599 578.059 25.9299 547.589 25.9299C537.318 25.9638 527.248 28.7769 518.447 34.071C509.646 39.3651 502.442 46.9427 497.599 55.9999C492.753 46.9433 485.547 39.3665 476.744 34.0727C467.942 28.7789 457.871 25.9652 447.599 25.9299C417.099 25.9299 392.179 50.3599 390.599 81.0999C385.307 74.594 378.635 69.3469 371.064 65.7389C363.494 62.131 355.215 60.2526 346.829 60.2399C315.299 60.2399 289.719 86.3499 289.719 118.57C289.716 121.556 289.936 124.537 290.379 127.49C282.836 123.87 274.576 121.993 266.209 122C234.669 122 209.089 148.12 209.089 180.33C209.073 190.448 211.659 200.4 216.599 209.23C191.149 215.11 172.139 238.34 172.139 266.11C172.111 275.735 174.456 285.219 178.967 293.722C183.477 302.225 190.014 309.485 197.999 314.86C187.455 319.326 178.443 326.772 172.069 336.285C165.696 345.798 162.236 356.965 162.117 368.415C161.997 379.865 165.221 391.102 171.394 400.746C177.567 410.391 186.421 418.024 196.869 422.71C187.409 433.494 182.216 447.364 182.269 461.71C182.269 490.22 202.319 513.96 228.809 519.04C217.299 529.35 774.169 529.97 762.989 519.59C791.189 516.02 812.989 491.48 812.989 461.72C813.034 447.374 807.838 433.506 798.379 422.72C808.774 418.121 817.6 410.588 823.777 401.046C829.953 391.504 833.21 380.366 833.149 369ZM270.809 513.54C269.879 513.02 268.919 512.54 267.959 512.13C268.929 511.56 270.809 513.54 270.809 513.54Z" fill="white"/>
<path d="M469.999 505.43C462.758 512.042 453.765 516.426 444.096 518.058C434.427 519.69 424.493 518.499 415.483 514.63C406.473 510.76 398.77 504.375 393.296 496.24C387.822 488.105 384.81 478.564 384.619 468.76C375.479 471.688 365.698 471.982 356.398 469.609C347.098 467.236 338.655 462.292 332.034 455.343C325.414 448.394 320.884 439.72 318.965 430.316C317.045 420.913 317.812 411.158 321.179 402.17C311.343 401.511 301.907 398.025 294.005 392.131C286.102 386.237 280.07 378.187 276.634 368.948C273.197 359.708 272.501 349.673 274.631 340.048C276.761 330.422 281.625 321.617 288.639 314.69C279.561 310.758 271.813 304.287 266.328 296.054C260.842 287.822 257.853 278.179 257.72 268.288C257.587 258.396 260.315 248.676 265.577 240.299C270.839 231.922 278.41 225.244 287.379 221.07C281.164 213.551 277.216 204.42 275.996 194.742C274.776 185.064 276.334 175.239 280.488 166.413C284.642 157.587 291.221 150.125 299.456 144.897C307.692 139.67 317.244 136.892 326.999 136.89H327.159C325.288 129.302 325.167 121.387 326.805 113.746C328.443 106.104 331.797 98.9343 336.614 92.7796C341.431 86.6248 347.584 81.6459 354.608 78.2192C361.632 74.7925 369.344 73.0077 377.159 73C379.05 73.0023 380.939 73.1057 382.819 73.31C372.725 64.8602 359.983 60.2269 346.819 60.22C315.279 60.22 289.709 86.33 289.709 118.55C289.706 121.536 289.926 124.517 290.369 127.47C282.828 123.858 274.571 121.989 266.209 122C234.669 122 209.089 148.12 209.089 180.33C209.073 190.448 211.659 200.4 216.599 209.23C191.149 215.11 172.139 238.34 172.139 266.11C172.111 275.735 174.456 285.219 178.967 293.722C183.477 302.225 190.014 309.485 197.999 314.86C187.455 319.326 178.443 326.772 172.069 336.285C165.696 345.798 162.236 356.965 162.117 368.415C161.997 379.865 165.221 391.102 171.394 400.746C177.567 410.391 186.421 418.024 196.869 422.71C187.409 433.494 182.216 447.364 182.269 461.71C182.269 490.22 202.319 513.96 228.809 519.04C223.199 524.04 352.619 526.79 485.469 527.04C478.498 521.326 473.161 513.871 469.999 505.43Z" fill="#E2E2E2"/>
<path d="M741.199 386L706.199 464.16L745.669 522.77C757.909 521.86 764.279 520.77 762.979 519.6C791.179 516.03 812.979 491.49 812.979 461.73C812.972 458.48 812.705 455.237 812.179 452.03C792.179 391.39 741.199 386 741.199 386Z" fill="#E2E2E2"/>
<path d="M833.149 369C833.21 357.431 829.83 346.106 823.44 336.463C817.049 326.819 807.936 319.293 797.259 314.84C805.239 309.459 811.77 302.193 816.274 293.687C820.777 285.18 823.115 275.695 823.079 266.07C823.079 238.3 804.079 215.07 778.609 209.19C783.544 200.358 786.129 190.407 786.119 180.29C786.119 148.1 760.549 122 728.999 122C720.623 121.993 712.352 123.87 704.799 127.49C705.25 124.538 705.474 121.556 705.469 118.57C705.469 86.3599 679.899 60.2399 648.349 60.2399C639.964 60.2513 631.687 62.1291 624.118 65.7372C616.549 69.3453 609.878 74.5931 604.589 81.0999C602.979 50.3599 578.059 25.9299 547.589 25.9299C537.318 25.9638 527.248 28.7769 518.447 34.071C509.646 39.3651 502.442 46.9427 497.599 55.9999C492.753 46.9433 485.547 39.3665 476.744 34.0727C467.942 28.7789 457.871 25.9652 447.599 25.9299C417.099 25.9299 392.179 50.3599 390.599 81.0999C385.307 74.594 378.635 69.3469 371.064 65.7389C363.494 62.131 355.215 60.2526 346.829 60.2399C315.299 60.2399 289.719 86.3499 289.719 118.57C289.716 121.556 289.936 124.537 290.379 127.49C282.836 123.87 274.576 121.993 266.209 122C234.669 122 209.089 148.12 209.089 180.33C209.073 190.448 211.659 200.4 216.599 209.23C191.149 215.11 172.139 238.34 172.139 266.11C172.111 275.735 174.456 285.219 178.967 293.722C183.477 302.225 190.014 309.485 197.999 314.86C187.455 319.326 178.443 326.772 172.069 336.285C165.696 345.798 162.236 356.965 162.117 368.415C161.997 379.865 165.221 391.102 171.394 400.746C177.567 410.391 186.421 418.024 196.869 422.71C187.409 433.494 182.216 447.364 182.269 461.71C182.269 490.22 202.319 513.96 228.809 519.04C217.299 529.35 774.169 529.97 762.989 519.59C791.189 516.02 812.989 491.48 812.989 461.72C813.034 447.374 807.838 433.506 798.379 422.72C808.774 418.121 817.6 410.588 823.777 401.046C829.953 391.504 833.21 380.366 833.149 369Z" stroke="#592D3D" stroke-width="12" stroke-miterlimit="10"/>
<path d="M610 758.72C700.76 758.72 682 872.96 682.87 1000H610V758.72Z" fill="#CC734C"/>
<path d="M632.74 831.87L610 870L621.38 1000H653.14C653.91 819.73 632.74 831.87 632.74 831.87Z" fill="#B56241"/>
<path d="M233.25 500C233.25 352.68 352.68 233.25 500 233.25C647.32 233.25 766.75 352.68 766.75 500C766.788 539.694 757.949 578.895 740.88 614.731C723.811 650.568 698.945 682.135 668.1 707.12C662.627 711.573 656.98 715.803 651.16 719.81C591 758 515 758 446.39 751.89C439.73 750.89 433.09 749.63 426.5 748.18C400.17 742.38 374.68 733.43 351.13 720.38C345.31 716.793 339.667 712.92 334.2 708.76C328.706 704.576 323.432 700.11 318.4 695.38C313.64 690.96 309.044 686.367 304.61 681.6C258.667 632.299 233.161 567.39 233.25 500Z" fill="#CC734C"/>
<path d="M269.608 634.48C270.308 635.68 270.998 636.88 271.718 638.06C272.148 638.78 272.598 639.48 273.048 640.2C273.708 641.27 274.368 642.34 275.048 643.39C275.528 644.15 276.048 644.89 276.508 645.63C277.168 646.63 277.828 647.63 278.508 648.63C279.018 649.39 279.508 650.15 280.068 650.91C280.728 651.91 281.388 652.83 282.068 653.79C282.608 654.56 283.168 655.32 283.718 656.09C284.268 656.86 285.058 657.94 285.718 658.86C286.378 659.78 286.868 660.39 287.448 661.15C288.028 661.91 288.818 662.95 289.518 663.85C290.218 664.75 290.708 665.36 291.308 666.11C291.908 666.86 292.718 667.87 293.428 668.74C294.138 669.61 294.658 670.23 295.278 670.97C295.898 671.71 296.718 672.69 297.448 673.54C298.178 674.39 298.718 675.01 299.358 675.74L301.578 678.24C302.228 678.97 302.888 679.68 303.578 680.4C304.438 681.34 305.308 682.27 306.178 683.19L307.388 684.47C308.678 685.81 309.978 687.15 311.298 688.47L311.558 688.74C312.848 690.02 314.158 691.29 315.468 692.55L317.048 694.05C317.998 694.94 318.948 695.83 319.908 696.71L321.068 697.77C322.068 698.71 323.158 699.63 324.208 700.55C327.474 703.397 330.808 706.127 334.208 708.74C339.668 712.9 345.311 716.773 351.138 720.36C374.688 733.36 400.138 742.36 426.508 748.16C433.098 749.61 439.738 750.86 446.398 751.87C488.498 755.62 533.398 757.05 575.678 748.79C508.448 729 185.588 612.74 388.798 257.48C386.078 258.73 383.398 260.02 380.738 261.36L380.148 261.65C378.928 262.26 377.708 262.89 376.498 263.53L375.498 264.06C371.738 266.06 368.018 268.13 364.368 270.29L363.468 270.82C362.308 271.51 361.158 272.21 360.008 272.92L359.138 273.46C355.564 275.693 352.048 278.003 348.588 280.39L347.508 281.14C346.418 281.9 345.348 282.66 344.278 283.43L343.618 283.9C341.438 285.493 339.284 287.107 337.158 288.74L336.538 289.22C335.538 290 334.538 290.8 333.538 291.61L332.368 292.55C331.368 293.36 330.368 294.17 329.368 295C327.258 296.75 325.178 298.55 323.128 300.37L321.988 301.37L319.298 303.82L317.998 305C315.144 307.667 312.354 310.39 309.628 313.17L308.248 314.58C307.458 315.4 306.668 316.22 305.888 317.05C305.428 317.54 304.968 318.05 304.518 318.53C303.144 319.997 301.791 321.483 300.458 322.99C300.008 323.5 299.548 323.99 299.098 324.53C298.388 325.34 297.688 326.16 296.988 326.98L295.478 328.77C294.798 329.58 294.118 330.39 293.478 331.21C292.938 331.87 292.398 332.54 291.868 333.21C290.798 334.54 289.748 335.87 288.708 337.21C288.168 337.91 287.628 338.61 287.098 339.32C286.568 340.03 285.898 340.91 285.308 341.72C284.718 342.53 284.238 343.17 283.718 343.9C283.198 344.63 282.588 345.45 282.038 346.23C281.091 347.563 280.158 348.913 279.238 350.28C278.738 351.01 278.238 351.76 277.748 352.5C277.258 353.24 276.648 354.16 276.108 355L274.618 357.31L272.938 360.02C272.508 360.71 272.078 361.4 271.658 362.09C270.768 363.55 269.908 365.02 269.048 366.49L267.828 368.65C267.288 369.6 266.748 370.56 266.218 371.52C265.818 372.25 265.418 372.98 265.028 373.71C264.388 374.9 263.758 376.1 263.128 377.3L261.928 379.64C261.288 380.92 260.648 382.19 260.018 383.48C259.688 384.17 259.348 384.87 259.018 385.57C258.498 386.66 258.018 387.76 257.488 388.86C257.178 389.52 256.878 390.18 256.578 390.86C255.838 392.507 255.114 394.173 254.408 395.86C254.188 396.38 253.978 396.91 253.758 397.43C253.228 398.7 252.708 399.97 252.198 401.25C251.928 401.92 251.668 402.59 251.408 403.25C250.908 404.51 250.408 405.78 249.958 407.05C249.748 407.6 249.538 408.15 249.338 408.7C248.711 410.453 248.094 412.207 247.488 413.96L246.928 415.66C246.488 416.993 246.058 418.327 245.638 419.66L245.038 421.57C244.568 423.11 244.108 424.65 243.668 426.2C243.568 426.53 243.468 426.86 243.378 427.2C242.858 429.04 242.358 430.887 241.878 432.74C241.718 433.33 241.578 433.93 241.428 434.52C241.078 435.91 240.738 437.3 240.428 438.7L240.008 440.45C239.578 442.35 239.158 444.25 238.768 446.16L238.618 446.93C238.278 448.63 237.944 450.33 237.618 452.03C237.508 452.64 237.408 453.24 237.298 453.85C237.038 455.34 236.788 456.85 236.558 458.35C236.478 458.86 236.388 459.35 236.318 459.87C236.018 461.82 235.748 463.78 235.488 465.75L235.338 467.05C235.138 468.64 234.958 470.24 234.788 471.84C234.728 472.44 234.658 473.04 234.598 473.65C234.438 475.33 234.288 477.02 234.148 478.71C234.148 479.06 234.088 479.4 234.068 479.71C233.921 481.71 233.791 483.727 233.678 485.76C233.678 486.29 233.678 486.83 233.608 487.36C233.541 488.933 233.481 490.503 233.428 492.07C233.428 492.66 233.428 493.25 233.428 493.84C233.428 495.89 233.348 497.95 233.348 500.01C233.348 500.01 233.348 500.08 233.348 500.11C233.348 502.33 233.348 504.53 233.428 506.73C233.428 507.49 233.488 508.25 233.508 509.01C233.558 510.48 233.608 511.95 233.678 513.42C233.678 514.31 233.788 515.19 233.838 516.08C233.918 517.41 233.988 518.74 234.088 520.08C234.158 521.08 234.248 521.97 234.328 522.91C234.438 524.17 234.538 525.43 234.668 526.68C234.758 527.68 234.878 528.62 234.978 529.59C235.118 530.8 235.248 532.02 235.398 533.23C235.518 534.23 235.658 535.23 235.788 536.18C235.948 537.36 236.108 538.55 236.288 539.73C236.438 540.73 236.598 541.73 236.758 542.73C236.938 543.89 237.128 545.06 237.328 546.22C237.508 547.22 237.688 548.22 237.878 549.22C238.088 550.37 238.308 551.52 238.528 552.66C238.748 553.8 238.938 554.66 239.148 555.66C239.388 556.8 239.628 557.93 239.888 559.06C240.148 560.19 240.328 561.06 240.568 561.99C240.828 563.12 241.108 564.24 241.388 565.35C241.668 566.46 241.878 567.3 242.128 568.26C242.428 569.38 242.728 570.49 243.038 571.6C243.298 572.6 243.568 573.52 243.848 574.47C244.168 575.58 244.498 576.68 244.848 577.78C245.198 578.88 245.428 579.67 245.728 580.62C246.028 581.57 246.428 582.81 246.788 583.9C247.148 584.99 247.408 585.77 247.728 586.7C248.108 587.79 248.488 588.88 248.878 589.97C249.208 590.88 249.528 591.8 249.878 592.71L251.118 595.98C251.468 596.87 251.808 597.77 252.118 598.66C252.558 599.75 253.008 600.85 253.458 601.94C253.818 602.8 254.168 603.67 254.538 604.53C255.008 605.65 255.538 606.75 255.988 607.86C256.358 608.68 256.718 609.51 257.088 610.33C257.608 611.49 258.158 612.63 258.688 613.77L259.768 616.07C260.378 617.33 261.008 618.57 261.638 619.82C261.958 620.45 262.258 621.09 262.588 621.72C264.508 625.46 266.508 629.15 268.588 632.79C268.878 633.26 269.248 633.87 269.608 634.48Z" fill="#B56241"/>
<path d="M233.25 500C233.25 352.68 352.68 233.25 500 233.25C647.32 233.25 766.75 352.68 766.75 500C766.788 539.694 757.949 578.895 740.88 614.731C723.811 650.568 698.945 682.135 668.1 707.12C662.627 711.573 656.98 715.803 651.16 719.81C591 758 515 758 446.39 751.89C439.73 750.89 433.09 749.63 426.5 748.18C400.17 742.38 374.68 733.43 351.13 720.38C345.31 716.793 339.667 712.92 334.2 708.76C328.706 704.576 323.432 700.11 318.4 695.38C313.64 690.96 309.044 686.367 304.61 681.6C258.667 632.299 233.161 567.39 233.25 500Z" stroke="#592D3D" stroke-width="12" stroke-miterlimit="10"/>
<path d="M386.118 758.72C295.348 758.72 314.118 872.96 313.248 1000H386.118V758.72Z" fill="#CC734C"/>
<path d="M367.228 831.87L389.998 870L378.608 1000H346.878C346.068 819.73 367.228 831.87 367.228 831.87Z" fill="#B56241"/>
<path d="M619.468 1070H380.528C377.007 1070 373.632 1068.6 371.144 1066.11C368.656 1063.62 367.258 1060.24 367.258 1056.72V772C367.258 768.48 368.656 765.103 371.144 762.613C373.632 760.123 377.007 758.723 380.528 758.72H613.758C626.848 758.72 632.758 766.38 632.758 778.6V1056.68C632.763 1058.43 632.423 1060.16 631.757 1061.78C631.092 1063.39 630.114 1064.86 628.879 1066.1C627.644 1067.34 626.177 1068.32 624.562 1068.99C622.947 1069.66 621.216 1070 619.468 1070Z" fill="#CC734C"/>
<path d="M629.048 766.62C628.051 765.394 627.208 764.051 626.538 762.62C624.137 760.738 621.28 759.527 618.258 759.11C616.769 758.879 615.264 758.766 613.758 758.77H380.528C377.016 758.773 373.648 760.166 371.162 762.645C368.675 765.125 367.271 768.488 367.258 772C396.258 782.42 450.548 788.24 499.998 788.24C563.058 788.24 604.378 778.89 629.048 766.62Z" fill="#B56241"/>
<path d="M610 758.72C700.76 758.72 682 872.96 682.87 1000H632.74" stroke="#592D3D" stroke-width="12" stroke-miterlimit="10" stroke-linecap="square"/>
<path d="M386.118 758.72C295.348 758.72 314.118 872.96 313.248 1000H363.318" stroke="#592D3D" stroke-width="12" stroke-miterlimit="10" stroke-linecap="square"/>
<path d="M380.527 758.82L613.757 758.72" stroke="#592D3D" stroke-width="12" stroke-miterlimit="10"/>
<path d="M380.528 1070H497.148C387.998 1070 396.238 838.82 367.258 838.82V1056.68C367.253 1058.43 367.592 1060.16 368.256 1061.77C368.921 1063.39 369.897 1064.86 371.13 1066.09C372.362 1067.33 373.827 1068.31 375.44 1068.98C377.052 1069.65 378.781 1070 380.528 1070Z" fill="#B56241"/>
<path d="M361.259 860.85C361.069 857.18 361.149 853.51 361.309 849.85C361.469 846.19 361.779 842.5 362.169 838.85C362.369 837.01 362.569 835.18 362.819 833.34C363.069 831.5 363.309 829.67 363.669 827.83C364.378 824.022 365.585 820.324 367.259 816.83C368.933 820.324 370.14 824.022 370.849 827.83C371.209 829.67 371.469 831.5 371.699 833.34C371.929 835.18 372.149 837.01 372.349 838.85C372.729 842.52 373.029 846.19 373.199 849.85C373.369 853.51 373.449 857.19 373.259 860.85H361.259Z" fill="#592D3D"/>
<path d="M632.738 870V878C632.998 912 632.998 947 632.738 980.75C632.738 983.62 632.738 986.47 632.738 989.28V1056.69C632.742 1058.44 632.402 1060.16 631.737 1061.78C631.072 1063.39 630.095 1064.86 628.862 1066.1C627.63 1067.33 626.166 1068.31 624.554 1068.98C622.942 1069.65 621.213 1070 619.468 1070H380.528C377.007 1070 373.632 1068.6 371.144 1066.11C368.656 1063.62 367.258 1060.24 367.258 1056.72V998.52C367.258 996.01 367.258 993.45 367.258 990.87C367.008 956 367.008 921 367.258 885.57V860.85" stroke="#592D3D" stroke-width="12" stroke-miterlimit="10"/>
<path d="M626.74 870C626.55 865.83 626.64 861.65 626.8 857.47C626.96 853.29 627.27 849.12 627.65 844.94C627.85 842.85 628.06 840.76 628.3 838.67C628.54 836.58 628.79 834.5 629.15 832.41C629.847 828.106 631.052 823.9 632.74 819.88C634.428 823.9 635.633 828.106 636.33 832.41C636.69 834.5 636.95 836.59 637.18 838.67C637.41 840.75 637.63 842.85 637.83 844.94C638.21 849.12 638.52 853.29 638.68 857.47C638.84 861.65 638.93 865.83 638.74 870H626.74Z" fill="#592D3D"/>
<path d="M570.68 842.45C570.9 833 582.9 829 588.9 835C589.875 835.995 590.644 837.173 591.164 838.466C591.684 839.759 591.944 841.141 591.93 842.535C591.915 843.928 591.627 845.305 591.08 846.587C590.534 847.868 589.74 849.03 588.745 850.005C587.749 850.98 586.572 851.75 585.279 852.269C583.986 852.789 582.603 853.05 581.21 853.035C579.817 853.021 578.44 852.732 577.158 852.186C575.876 851.639 574.715 850.845 573.74 849.85C572.766 848.88 571.994 847.727 571.469 846.456C570.944 845.186 570.675 843.825 570.68 842.45Z" fill="#592D3D"/>
<path d="M408.109 842.15C407.899 834 416.899 830 422.899 833C430.899 836 430.899 847 422.899 852C418.899 854 414.899 852 411.149 849.52C410.182 848.552 409.416 847.403 408.894 846.138C408.372 844.873 408.106 843.518 408.109 842.15Z" fill="#592D3D"/>
<path d="M500 831.77C500.715 833.655 501.218 835.614 501.5 837.61C501.797 839.543 501.961 841.494 501.99 843.45L502.29 855.14C502.38 859.03 502.5 862.93 502.54 866.83L502.71 878.5C502.94 894.07 502.93 909.66 502.99 925.24C503.05 940.82 503.17 956.4 502.99 971.98C502.9 979.77 502.69 987.56 502.46 995.35C502.36 999.24 502.17 1003.14 501.79 1007.03C501.45 1010.96 500.859 1014.87 500.02 1018.72C499.181 1014.87 498.59 1010.96 498.25 1007.03C497.87 1003.14 497.68 999.24 497.58 995.35C497.35 987.56 497.14 979.77 497.05 971.98C496.85 956.4 497.05 940.82 497.05 925.24C497.05 909.66 497.05 894.09 497.23 878.51L497.4 866.81L497.73 855.13L498.06 843.45C498.097 841.494 498.264 839.543 498.56 837.61C498.822 835.616 499.305 833.657 500 831.77Z" fill="#B56241"/>
<path d="M425.219 883C426.702 882.295 428.272 881.791 429.889 881.5C431.433 881.21 432.998 881.043 434.569 881L443.919 880.67L462.619 880.26C475.079 880.07 487.529 880.02 499.999 879.99C512.469 879.96 524.929 879.83 537.389 879.99C543.619 880.08 549.849 880.29 556.089 880.52C559.199 880.63 562.319 880.82 565.429 881.19C568.587 881.54 571.713 882.135 574.779 882.97C571.715 883.81 568.588 884.402 565.429 884.74C562.319 885.12 559.199 885.31 556.089 885.41C549.849 885.64 543.619 885.84 537.389 885.93C524.929 886.12 512.469 885.93 499.999 885.93C487.529 885.93 475.069 885.93 462.599 885.78C456.369 885.72 450.139 885.52 443.919 885.28L434.569 884.94C433.001 884.898 431.44 884.73 429.899 884.44C428.282 884.17 426.708 883.686 425.219 883Z" fill="#B56241"/>
<path d="M442.41 914.38C443.591 913.817 444.853 913.442 446.15 913.27C447.349 913.101 448.561 913.05 449.77 913.12C452.16 913.22 454.55 913.28 456.94 913.33C461.72 913.44 466.5 913.48 471.28 913.5C480.91 913.5 490.37 913.58 500.04 913.29C509.71 913 519.3 912.86 528.92 912.9C533.73 912.9 538.54 913.03 543.34 913.14C545.757 913.172 548.17 913.329 550.57 913.61C553.037 913.882 555.472 914.395 557.84 915.14C555.528 916.048 553.129 916.718 550.68 917.14C548.296 917.569 545.888 917.857 543.47 918C538.65 918.35 533.83 918.65 529.02 918.82C519.38 919.18 509.75 919.14 500.14 919.27C495.33 919.27 490.53 919.49 485.66 919.37C480.79 919.25 475.97 919.24 471.14 919.06C466.31 918.88 461.46 918.48 456.64 917.98C454.22 917.71 451.82 917.41 449.41 917.08C448.193 916.931 446.996 916.649 445.84 916.24C444.599 915.82 443.439 915.191 442.41 914.38Z" fill="#B56241"/>
<path d="M438.93 949.87C440.116 949.172 441.405 948.666 442.75 948.37C444.003 948.078 445.283 947.914 446.57 947.88L454.2 947.56C459.29 947.38 464.39 947.23 469.48 947.15C479.66 947 489.84 947 500 947C510.16 947 520.36 946.83 530.54 947C535.63 947.09 540.72 947.3 545.81 947.53C548.363 947.616 550.91 947.836 553.44 948.19C556.045 948.547 558.61 949.153 561.1 950C558.618 950.831 556.063 951.423 553.47 951.77C550.937 952.132 548.387 952.356 545.83 952.44C540.74 952.67 535.65 952.88 530.56 952.97C520.38 953.17 510.19 953.03 500.01 952.97C489.83 952.91 479.65 952.91 469.47 952.72C464.38 952.62 459.28 952.44 454.19 952.23L446.56 951.86C445.273 951.821 443.993 951.653 442.74 951.36C441.398 951.07 440.112 950.567 438.93 949.87Z" fill="#B56241"/>
<path d="M680.7 905.78C680.9 868.68 679.49 835.71 672.96 810.39C662.88 785.04 644.78 769.92 612.84 769.92L635.69 904.39C635.69 904.39 658.2 914.68 680.7 905.78Z" fill="#B56241"/>
<path d="M689.299 895.23C688.161 896.168 686.924 896.98 685.609 897.65" stroke="#592D3D" stroke-width="12" stroke-miterlimit="10" stroke-linecap="square"/>
<path d="M328.999 809.32C322.179 834.89 320.999 868.45 321.259 906.32C341.159 914.87 371.689 904.17 371.689 904.17L388.999 771.89C358.139 771.89 339.739 785.79 328.999 809.32Z" fill="#B56241"/>
<path d="M616.658 758.16L578.218 758.26C578.218 811.98 502.888 869.4 502.888 869.4C502.888 869.4 422.088 808.82 422.088 758.26L383.428 758.16C379.908 758.16 376.532 759.558 374.042 762.046C371.551 764.534 370.151 767.91 370.148 771.43V1056.12C370.151 1059.64 371.551 1063.02 374.042 1065.5C376.532 1067.99 379.908 1069.39 383.428 1069.39H622.358C625.878 1069.39 629.253 1067.99 631.742 1065.5C634.23 1063.01 635.628 1059.64 635.628 1056.12V778C635.628 765.82 629.748 758.16 616.658 758.16Z" fill="#D67070"/>
<path d="M612.84 758.16C676.38 758.16 686.24 814.16 686.74 891.32C668.15 902.94 637.83 892.64 637.83 892.64L612.84 758.16Z" fill="#D67070"/>
<path d="M635.63 831.31L612.84 869.4L624.23 999.4H635.83V893.78L653.11 896.67C647.49 824.5 635.63 831.31 635.63 831.31Z" fill="#C46565"/>
<path d="M388.998 758.16C327.218 758.16 313.178 811.95 312.148 885.82C331.148 905.67 370.098 890.4 370.098 890.4L388.998 758.16Z" fill="#D67070"/>
<path d="M370.119 831.31V890.4L352.809 894.7C358.479 824.63 370.119 831.31 370.119 831.31Z" fill="#C46565"/>
<path d="M612.84 758.16C680.26 758.16 691.29 814.44 691.74 891.94C665.54 904.36 637.83 892.64 637.83 892.64" stroke="#592D3D" stroke-width="12" stroke-miterlimit="10" stroke-linecap="square"/>
<path d="M389 758.16C322.21 758.16 308.92 812.85 308.25 888.87C328.84 903.66 370.1 890.4 370.1 890.4" stroke="#592D3D" stroke-width="12" stroke-miterlimit="10" stroke-linecap="square"/>
<path d="M383.429 1069.39H499.999C390.809 1069.39 399.089 838.25 370.109 838.25V1056.12C370.111 1057.87 370.456 1059.6 371.127 1061.21C371.797 1062.82 372.779 1064.29 374.017 1065.52C375.254 1066.75 376.722 1067.73 378.337 1068.39C379.953 1069.06 381.683 1069.4 383.429 1069.39Z" fill="#C46565"/>
<path d="M364.149 860.29C363.959 856.62 364.039 852.94 364.209 849.29C364.379 845.64 364.679 841.95 365.059 838.29C365.259 836.46 365.469 834.62 365.709 832.78C365.949 830.94 366.199 829.11 366.559 827.28C367.267 823.471 368.474 819.773 370.149 816.28C371.824 819.773 373.031 823.471 373.739 827.28C374.099 829.11 374.359 830.95 374.589 832.78C374.819 834.61 375.039 836.46 375.239 838.29C375.626 841.97 375.912 845.637 376.099 849.29C376.259 852.96 376.339 856.64 376.099 860.29H364.149Z" fill="#592D3D"/>
<path d="M635.628 869.4V877.4C635.888 911.4 635.888 946.4 635.628 980.16C635.628 983.03 635.628 985.88 635.628 988.69V1056.1C635.628 1059.62 634.23 1062.99 631.741 1065.48C629.253 1067.97 625.878 1069.37 622.358 1069.37H383.428C379.908 1069.37 376.531 1067.97 374.041 1065.48C371.551 1063 370.151 1059.62 370.148 1056.1V990.3C369.888 955.44 369.888 920.44 370.148 885V860.29" stroke="#592D3D" stroke-width="12" stroke-miterlimit="10"/>
<path d="M629.63 869.4C629.44 865.22 629.53 861.04 629.69 856.87C629.85 852.7 630.16 848.51 630.55 844.34C630.75 842.25 630.95 840.16 631.19 838.07C631.43 835.98 631.68 833.89 632.05 831.8C632.741 827.496 633.943 823.29 635.63 819.27C637.325 823.288 638.531 827.494 639.22 831.8C639.58 833.89 639.85 835.98 640.07 838.07C640.29 840.16 640.52 842.25 640.72 844.34C641.11 848.51 641.41 852.69 641.57 856.87C641.73 861.05 641.83 865.22 641.63 869.4H629.63Z" fill="#592D3D"/>
<path d="M383.43 758.26L616.66 758.16" stroke="#592D3D" stroke-width="12" stroke-miterlimit="10"/>
<path d="M310.719 891.94C311.857 892.972 313.089 893.896 314.399 894.7" stroke="#592D3D" stroke-width="12" stroke-miterlimit="10" stroke-linecap="square"/>
<path d="M677.59 882.13C675.509 883.367 673.222 884.22 670.84 884.65C668.465 885.112 666.049 885.327 663.63 885.29C661.221 885.247 658.821 884.986 656.46 884.51C655.28 884.29 654.12 883.94 652.97 883.64C651.82 883.34 650.69 882.86 649.59 882.4C650.8 882.4 651.98 882.57 653.15 882.67L656.67 882.96C657.84 882.96 659 883.16 660.17 883.17C661.34 883.18 662.5 883.28 663.66 883.29C665.98 883.34 668.3 883.29 670.66 883.11C672.99 882.943 675.305 882.615 677.59 882.13Z" fill="#592D3D"/>
<path d="M578.22 758.26C578.22 811.98 502.89 869.4 502.89 869.4C502.89 869.4 422.09 808.82 422.09 758.26" stroke="#592D3D" stroke-width="12" stroke-miterlimit="10"/>
<path d="M517.8 896.62L503.4 921.56L489 896.62H441L503.36 1004.62L565.72 896.62H517.8Z" stroke="white" stroke-width="16"/>
<path d="M517.8 896.62L503.4 921.56L489 896.62H441L503.36 1004.62L565.72 896.62H517.8Z" fill="#44B783"/>
<path d="M517.8 896.62L503.4 921.56L489 896.62H466L503.42 961.43L540.84 896.62H517.8Z" fill="#364A5E"/>
<path d="M271.401 568.53C270.401 540.17 289.401 516.17 314.681 504.97C317.336 503.883 320.062 502.981 322.841 502.27C336.856 498.805 351.599 499.759 365.051 505C368.12 506.18 371.103 507.57 373.981 509.16C403.511 525.05 416.771 562.41 405.341 592.62C404.183 595.666 402.785 598.615 401.161 601.44C397.173 609.748 391.15 616.913 383.651 622.27C381.149 624.111 378.527 625.781 375.801 627.27C348.421 640.27 311.421 636.27 289.351 615.87C287.141 613.527 285.099 611.031 283.241 608.4C281.118 605.397 279.255 602.219 277.671 598.9C274.318 592.094 272.389 584.676 272.001 577.1C271.639 574.257 271.439 571.396 271.401 568.53Z" fill="#B56241"/>
<path d="M269.768 550.18C268.768 521.82 287.768 497.82 313.048 486.62C315.699 485.533 318.423 484.631 321.198 483.92C335.211 480.437 349.958 481.374 363.418 486.6C366.484 487.78 369.464 489.17 372.338 490.76C401.868 506.65 415.128 544.02 403.698 574.22C402.548 577.269 401.15 580.219 399.518 583.04C398.136 585.749 396.562 588.355 394.808 590.84C393.08 593.302 391.182 595.641 389.128 597.84C386.908 600.037 384.529 602.066 382.008 603.91C379.508 605.753 376.885 607.424 374.158 608.91C346.778 621.91 309.778 617.91 287.718 597.52C285.508 595.174 283.466 592.674 281.608 590.04C279.483 587.037 277.616 583.859 276.028 580.54C272.666 573.761 270.723 566.366 270.318 558.81C269.96 555.947 269.777 553.065 269.768 550.18Z" fill="white" stroke="#592D3D" stroke-width="12" stroke-miterlimit="10"/>
<path d="M338.51 563.03C345.27 563.03 350.75 557.55 350.75 550.79C350.75 544.03 345.27 538.55 338.51 538.55C331.75 538.55 326.27 544.03 326.27 550.79C326.27 557.55 331.75 563.03 338.51 563.03Z" fill="#592D3D"/>
<path d="M583.89 560.47C584.32 545.34 590.56 530.38 598.99 519.14C601.143 516.119 603.523 513.268 606.11 510.61C617.61 498.622 633.013 491.133 649.543 489.492C666.074 487.851 682.648 492.166 696.28 501.66C698.552 503.245 700.732 504.958 702.81 506.79C729.81 528.24 732.93 569.93 718.13 600.02C716.692 602.411 715.096 604.703 713.35 606.88C711.037 609.781 708.503 612.499 705.77 615.01C685.5 632.84 653.96 637.14 628.36 627.43C624.713 626.054 621.185 624.382 617.81 622.43C599.91 611.65 587.44 591.34 584.38 570.2C583.966 566.974 583.802 563.721 583.89 560.47Z" fill="#B56241"/>
<path d="M589.378 549C589.798 534.85 595.798 520.85 603.898 510.34C605.982 507.506 608.275 504.832 610.758 502.34C622.009 491.101 636.817 484.123 652.647 482.602C668.477 481.08 684.343 485.11 697.528 494C699.71 495.477 701.807 497.076 703.808 498.79C729.808 518.86 732.808 557.86 718.548 586.01C717.167 588.255 715.63 590.4 713.948 592.43C711.716 595.146 709.279 597.686 706.658 600.03C687.148 616.71 656.798 620.74 632.168 611.65C628.655 610.346 625.253 608.758 621.998 606.9C604.778 596.82 592.778 577.82 589.828 558.05C589.436 555.05 589.285 552.024 589.378 549Z" fill="white" stroke="#592D3D" stroke-width="12" stroke-miterlimit="10"/>
<path d="M659.209 563.03C665.969 563.03 671.449 557.55 671.449 550.79C671.449 544.03 665.969 538.55 659.209 538.55C652.449 538.55 646.969 544.03 646.969 550.79C646.969 557.55 652.449 563.03 659.209 563.03Z" fill="#592D3D"/>
<path d="M463.75 593.17C479.3 593.17 488.87 605.93 500.24 605.93C511.61 605.93 526.15 593.17 541.51 593.17C556.87 593.17 565.23 604.29 565.23 619.69C565.23 636.34 548.48 665.69 502.63 665.69C456.78 665.69 437.23 637.95 437.23 620.24C437.23 603.89 448.2 593.17 463.75 593.17Z" fill="white" stroke="#592D3D" stroke-width="12" stroke-miterlimit="10"/>
<path d="M477.848 596.6V662.1" stroke="#592D3D" stroke-width="12" stroke-miterlimit="10"/>
<path d="M526.988 596.6V662.1" stroke="#592D3D" stroke-width="12" stroke-miterlimit="10"/>
<path d="M558.418 406.88C545.548 430.88 498.418 444.33 494.588 438.3C490.288 431.57 532.438 382.98 508.488 332.16" fill="#B56241"/>
<path d="M500.15 221.81C369 221.81 247.79 328.25 226 457C226 457 427.33 472.23 500.66 390.25C496.01 412.9 482.94 430.12 485.15 433.58C488.23 438.42 526.07 427.66 536.4 408.36L532.74 402.88C582.65 421 680.23 443.46 746 375.26C702.52 285 604.61 221.81 500.15 221.81Z" fill="white"/>
<path d="M331.517 454.81C325.081 447.858 320.705 439.253 318.877 429.958C317.049 420.662 317.842 411.041 321.168 402.17C314.133 401.706 307.27 399.793 301.01 396.549C294.75 393.306 289.229 388.803 284.793 383.323C280.357 377.843 277.103 371.504 275.235 364.706C273.367 357.908 272.925 350.797 273.938 343.82C249.847 377.51 232.938 416.12 225.938 457C261.134 459.044 296.436 458.312 331.517 454.81Z" fill="#E2E2E2"/>
<path d="M739.659 389.6C664.999 447 579.069 424.7 533.509 405.69C523.369 423.63 488.249 433.58 485.359 429.05C483.359 425.97 494.179 411.4 499.139 391.89C424.859 472.16 239.289 463.89 239.289 463.89" stroke="#592D3D" stroke-width="12" stroke-miterlimit="10"/>
<path d="M280.918 140.17C273.902 140.493 267.018 142.192 260.658 145.17C254.645 147.936 249.302 151.972 244.998 157C244.447 157.606 243.936 158.248 243.468 158.92C242.988 159.58 242.468 160.2 242.008 160.92C241.075 162.28 240.22 163.692 239.448 165.15C237.859 168.079 236.553 171.153 235.548 174.33C233.626 181.086 232.852 188.117 233.258 195.13C229.71 188.331 228.368 180.596 229.418 173L229.948 170.14L230.238 168.7C230.348 168.23 230.508 167.77 230.648 167.3C230.928 166.36 231.208 165.42 231.518 164.49C231.828 163.56 232.278 162.69 232.658 161.78C233.458 159.983 234.381 158.242 235.418 156.57C235.928 155.72 236.558 154.96 237.118 154.15C237.677 153.337 238.285 152.559 238.938 151.82C244.071 145.781 250.888 141.408 258.518 139.26C265.875 137.036 273.766 137.357 280.918 140.17Z" fill="white"/>
<path d="M358.878 77.1498C352.812 76.9439 346.75 77.6175 340.878 79.1498C335.37 80.6428 330.144 83.0277 325.408 86.2098C320.676 89.4299 316.512 93.4143 313.088 97.9998C312.248 99.1798 311.288 100.31 310.558 101.58L309.348 103.46C308.918 104.08 308.638 104.76 308.258 105.46C306.714 108.163 305.345 110.962 304.158 113.84C303.733 110.608 303.865 107.327 304.548 104.14C304.718 103.34 304.818 102.51 305.068 101.72L305.808 99.3598C306.321 97.7748 306.959 96.2333 307.718 94.7498C310.74 88.6202 315.319 83.3923 320.998 79.5898C326.622 75.8037 333.129 73.5337 339.888 72.9998C346.493 72.4037 353.123 73.8525 358.878 77.1498Z" fill="white"/>
<path d="M427.29 501.13L414.29 496.74L383.09 486.2L345.49 473.49L313 462.49C307.73 460.71 302.49 458.81 297.19 457.15L296.97 457.07C294.412 456.365 291.678 456.704 289.371 458.014C287.063 459.324 285.37 461.497 284.665 464.055C283.959 466.613 284.299 469.347 285.609 471.654C286.919 473.962 289.092 475.655 291.65 476.36L304.65 480.75L335.85 491.29L373.45 503.99L405.94 514.99C411.2 516.77 416.44 518.66 421.75 520.33L421.97 520.41C423.236 520.759 424.559 520.856 425.863 520.694C427.167 520.532 428.426 520.115 429.569 519.466C430.712 518.817 431.715 517.95 432.523 516.914C433.33 515.877 433.925 514.692 434.275 513.425C434.624 512.158 434.721 510.835 434.559 509.532C434.397 508.228 433.979 506.969 433.331 505.826C432.682 504.683 431.815 503.68 430.778 502.872C429.742 502.065 428.556 501.469 427.29 501.12V501.13Z" fill="#592D3D"/>
<path d="M697.177 453.9L684.457 459L653.917 471.31L617.107 486.15L585.297 499C580.137 501.08 574.981 503.16 569.827 505.24L569.607 505.32C567.097 506.32 565.047 507.49 563.607 509.92C562.267 512.256 561.908 515.029 562.607 517.63C563.302 520.152 564.952 522.304 567.207 523.63C569.427 524.81 572.467 525.63 574.907 524.63L587.637 519.5L618.177 507.19L654.997 492.33L686.807 479.51C691.957 477.43 697.127 475.36 702.277 473.27L702.497 473.18C705.007 472.18 707.057 471.01 708.497 468.59C709.162 467.456 709.596 466.201 709.775 464.899C709.954 463.597 709.874 462.272 709.541 461.001C709.207 459.729 708.627 458.536 707.831 457.489C707.036 456.442 706.043 455.562 704.907 454.9C702.687 453.73 699.637 452.9 697.197 453.9H697.177Z" fill="#592D3D"/>
</g>
</svg>
