<svg width="1000" height="990" viewBox="0 0 1000 990" fill="none" xmlns="http://www.w3.org/2000/svg">
<mask id="mask0_22_2639" style="mask-type:luminance" maskUnits="userSpaceOnUse" x="0" y="0" width="1000" height="966">
<path d="M1000 0H0V718.31H179.2C217.58 860.69 346.65 965.41 500 965.41C653.35 965.41 782.42 860.69 820.8 718.31H1000V0Z" fill="white"/>
</mask>
<g mask="url(#mask0_22_2639)">
<path d="M500.001 962.602C683.603 962.602 832.443 813.763 832.443 630.16C832.443 446.558 683.603 297.718 500.001 297.718C316.398 297.718 167.559 446.558 167.559 630.16C167.559 813.763 316.398 962.602 500.001 962.602Z" fill="#85C5E5"/>
<path d="M610 758.72C700.76 758.72 682 872.96 682.87 1000H610V758.72Z" fill="#D8985D"/>
<path d="M632.74 831.87L610 870L621.38 1000H653.14C653.91 819.73 632.74 831.87 632.74 831.87Z" fill="#C6854E"/>
<path d="M233.25 500C233.25 352.68 352.68 233.25 500 233.25C647.32 233.25 766.75 352.68 766.75 500C766.788 539.694 757.949 578.895 740.88 614.731C723.811 650.568 698.945 682.135 668.1 707.12C662.627 711.573 656.98 715.803 651.16 719.81C591 758 515 758 446.39 751.89C439.73 750.89 433.09 749.63 426.5 748.18C400.17 742.38 374.68 733.43 351.13 720.38C345.31 716.793 339.667 712.92 334.2 708.76C328.706 704.576 323.432 700.11 318.4 695.38C313.64 690.96 309.044 686.367 304.61 681.6C258.667 632.299 233.161 567.39 233.25 500Z" fill="#D8985D"/>
<path d="M269.612 634.48C270.312 635.68 271.002 636.88 271.722 638.06C272.152 638.78 272.602 639.48 273.052 640.2C273.712 641.27 274.372 642.34 275.052 643.39C275.532 644.15 276.052 644.89 276.512 645.63C277.172 646.63 277.832 647.63 278.512 648.63C279.022 649.39 279.512 650.15 280.072 650.91C280.732 651.91 281.392 652.83 282.072 653.79C282.612 654.56 283.172 655.32 283.722 656.09C284.272 656.86 285.062 657.94 285.722 658.86C286.382 659.78 286.872 660.39 287.452 661.15C288.032 661.91 288.822 662.95 289.522 663.85C290.222 664.75 290.712 665.36 291.312 666.11C291.912 666.86 292.722 667.87 293.432 668.74C294.142 669.61 294.662 670.23 295.282 670.97C295.902 671.71 296.722 672.69 297.452 673.54C298.182 674.39 298.722 675.01 299.362 675.74L301.582 678.24C302.232 678.97 302.892 679.68 303.582 680.4C304.442 681.34 305.312 682.27 306.182 683.19L307.392 684.47C308.682 685.81 309.982 687.15 311.302 688.47L311.562 688.74C312.852 690.02 314.162 691.29 315.472 692.55L317.052 694.05C318.002 694.94 318.952 695.83 319.912 696.71L321.072 697.77C322.072 698.71 323.162 699.63 324.212 700.55C327.478 703.397 330.812 706.127 334.212 708.74C339.672 712.9 345.315 716.773 351.142 720.36C374.692 733.36 400.142 742.36 426.512 748.16C433.102 749.61 439.742 750.86 446.402 751.87C488.502 755.62 533.402 757.05 575.682 748.79C508.452 729 185.592 612.74 388.802 257.48C386.082 258.73 383.402 260.02 380.742 261.36L380.152 261.65C378.932 262.26 377.712 262.89 376.502 263.53L375.502 264.06C371.742 266.06 368.022 268.13 364.372 270.29L363.472 270.82C362.312 271.51 361.162 272.21 360.012 272.92L359.142 273.46C355.568 275.693 352.052 278.003 348.592 280.39L347.512 281.14C346.422 281.9 345.352 282.66 344.282 283.43L343.622 283.9C341.442 285.493 339.288 287.107 337.162 288.74L336.542 289.22C335.542 290 334.542 290.8 333.542 291.61L332.372 292.55C331.372 293.36 330.372 294.17 329.372 295C327.262 296.75 325.182 298.55 323.132 300.37L321.992 301.37L319.302 303.82L318.002 305C315.148 307.667 312.358 310.39 309.632 313.17L308.252 314.58C307.462 315.4 306.672 316.22 305.892 317.05C305.432 317.54 304.972 318.05 304.522 318.53C303.148 319.997 301.795 321.483 300.462 322.99C300.012 323.5 299.552 323.99 299.102 324.53C298.392 325.34 297.692 326.16 296.992 326.98L295.482 328.77C294.802 329.58 294.122 330.39 293.482 331.21C292.942 331.87 292.402 332.54 291.872 333.21C290.802 334.54 289.752 335.87 288.712 337.21C288.172 337.91 287.632 338.61 287.102 339.32C286.572 340.03 285.902 340.91 285.312 341.72C284.722 342.53 284.242 343.17 283.722 343.9C283.202 344.63 282.592 345.45 282.042 346.23C281.095 347.563 280.162 348.913 279.242 350.28C278.742 351.01 278.242 351.76 277.752 352.5C277.262 353.24 276.652 354.16 276.112 355L274.622 357.31L272.942 360.02C272.512 360.71 272.082 361.4 271.662 362.09C270.772 363.55 269.912 365.02 269.052 366.49L267.832 368.65C267.292 369.6 266.752 370.56 266.222 371.52C265.822 372.25 265.422 372.98 265.032 373.71C264.392 374.9 263.762 376.1 263.132 377.3L261.932 379.64C261.292 380.92 260.652 382.19 260.022 383.48C259.692 384.17 259.352 384.87 259.022 385.57C258.502 386.66 258.022 387.76 257.492 388.86C257.182 389.52 256.882 390.18 256.582 390.86C255.842 392.507 255.118 394.173 254.412 395.86C254.192 396.38 253.982 396.91 253.762 397.43C253.232 398.7 252.712 399.97 252.202 401.25C251.932 401.92 251.672 402.59 251.412 403.25C250.912 404.51 250.412 405.78 249.962 407.05C249.752 407.6 249.542 408.15 249.342 408.7C248.715 410.453 248.098 412.207 247.492 413.96L246.932 415.66C246.492 416.993 246.062 418.327 245.642 419.66L245.042 421.57C244.572 423.11 244.112 424.65 243.672 426.2C243.572 426.53 243.472 426.86 243.382 427.2C242.862 429.04 242.362 430.887 241.882 432.74C241.722 433.33 241.582 433.93 241.432 434.52C241.082 435.91 240.742 437.3 240.432 438.7L240.012 440.45C239.582 442.35 239.162 444.25 238.772 446.16L238.622 446.93C238.282 448.63 237.948 450.33 237.622 452.03C237.512 452.64 237.412 453.24 237.302 453.85C237.042 455.34 236.792 456.85 236.562 458.35C236.482 458.86 236.392 459.35 236.322 459.87C236.022 461.82 235.752 463.78 235.492 465.75L235.342 467.05C235.142 468.64 234.962 470.24 234.792 471.84C234.732 472.44 234.662 473.04 234.602 473.65C234.442 475.33 234.292 477.02 234.152 478.71C234.152 479.06 234.092 479.4 234.072 479.71C233.925 481.71 233.795 483.727 233.682 485.76C233.682 486.29 233.682 486.83 233.612 487.36C233.545 488.933 233.485 490.503 233.432 492.07C233.432 492.66 233.432 493.25 233.432 493.84C233.432 495.89 233.352 497.95 233.352 500.01C233.352 500.01 233.352 500.08 233.352 500.11C233.352 502.33 233.352 504.53 233.432 506.73C233.432 507.49 233.492 508.25 233.512 509.01C233.562 510.48 233.612 511.95 233.682 513.42C233.682 514.31 233.792 515.19 233.842 516.08C233.922 517.41 233.992 518.74 234.092 520.08C234.162 521.08 234.252 521.97 234.332 522.91C234.442 524.17 234.542 525.43 234.672 526.68C234.762 527.68 234.882 528.62 234.982 529.59C235.122 530.8 235.252 532.02 235.402 533.23C235.522 534.23 235.662 535.23 235.792 536.18C235.952 537.36 236.112 538.55 236.292 539.73C236.442 540.73 236.602 541.73 236.762 542.73C236.942 543.89 237.132 545.06 237.332 546.22C237.512 547.22 237.692 548.22 237.882 549.22C238.092 550.37 238.312 551.52 238.532 552.66C238.752 553.8 238.942 554.66 239.152 555.66C239.392 556.8 239.632 557.93 239.892 559.06C240.152 560.19 240.332 561.06 240.572 561.99C240.832 563.12 241.112 564.24 241.392 565.35C241.672 566.46 241.882 567.3 242.132 568.26C242.432 569.38 242.732 570.49 243.042 571.6C243.302 572.6 243.572 573.52 243.852 574.47C244.172 575.58 244.502 576.68 244.852 577.78C245.202 578.88 245.432 579.67 245.732 580.62C246.032 581.57 246.432 582.81 246.792 583.9C247.152 584.99 247.412 585.77 247.732 586.7C248.112 587.79 248.492 588.88 248.882 589.97C249.212 590.88 249.532 591.8 249.882 592.71L251.122 595.98C251.472 596.87 251.812 597.77 252.122 598.66C252.562 599.75 253.012 600.85 253.462 601.94C253.822 602.8 254.172 603.67 254.542 604.53C255.012 605.65 255.542 606.75 255.992 607.86C256.362 608.68 256.722 609.51 257.092 610.33C257.612 611.49 258.162 612.63 258.692 613.77L259.772 616.07C260.382 617.33 261.012 618.57 261.642 619.82C261.962 620.45 262.262 621.09 262.592 621.72C264.512 625.46 266.512 629.15 268.592 632.79C268.882 633.26 269.252 633.87 269.612 634.48Z" fill="#C6854E"/>
<path d="M233.25 500C233.25 352.68 352.68 233.25 500 233.25C647.32 233.25 766.75 352.68 766.75 500C766.788 539.694 757.949 578.895 740.88 614.731C723.811 650.568 698.945 682.135 668.1 707.12C662.627 711.573 656.98 715.803 651.16 719.81C591 758 515 758 446.39 751.89C439.73 750.89 433.09 749.63 426.5 748.18C400.17 742.38 374.68 733.43 351.13 720.38C345.31 716.793 339.667 712.92 334.2 708.76C328.706 704.576 323.432 700.11 318.4 695.38C313.64 690.96 309.044 686.367 304.61 681.6C258.667 632.299 233.161 567.39 233.25 500Z" stroke="#592D3D" stroke-width="12" stroke-miterlimit="10"/>
<path d="M386.122 758.72C295.352 758.72 314.122 872.96 313.252 1000H386.122V758.72Z" fill="#D8985D"/>
<path d="M367.232 831.87L390.002 870L378.612 1000H346.882C346.072 819.73 367.232 831.87 367.232 831.87Z" fill="#C6854E"/>
<path d="M619.472 1070H380.532C377.011 1070 373.636 1068.6 371.148 1066.11C368.659 1063.62 367.262 1060.24 367.262 1056.72V772C367.262 768.48 368.659 765.103 371.148 762.613C373.636 760.123 377.011 758.723 380.532 758.72H613.762C626.852 758.72 632.762 766.38 632.762 778.6V1056.68C632.767 1058.43 632.427 1060.16 631.761 1061.78C631.096 1063.39 630.117 1064.86 628.883 1066.1C627.648 1067.34 626.181 1068.32 624.566 1068.99C622.951 1069.66 621.22 1070 619.472 1070Z" fill="#D8985D"/>
<path d="M629.052 766.62C628.055 765.394 627.212 764.051 626.542 762.62C624.141 760.739 621.284 759.527 618.262 759.11C616.773 758.88 615.268 758.766 613.762 758.77H380.532C377.02 758.773 373.652 760.166 371.165 762.646C368.679 765.125 367.275 768.488 367.262 772C396.262 782.42 450.552 788.24 500.002 788.24C563.062 788.24 604.382 778.89 629.052 766.62Z" fill="#C6854E"/>
<path d="M610 758.72C700.76 758.72 682 872.96 682.87 1000H632.74" stroke="#592D3D" stroke-width="12" stroke-miterlimit="10" stroke-linecap="square"/>
<path d="M386.122 758.72C295.352 758.72 314.122 872.96 313.252 1000H363.322" stroke="#592D3D" stroke-width="12" stroke-miterlimit="10" stroke-linecap="square"/>
<path d="M380.531 758.82L613.761 758.72" stroke="#592D3D" stroke-width="12" stroke-miterlimit="10"/>
<path d="M380.532 1070H497.152C388.002 1070 396.242 838.82 367.262 838.82V1056.68C367.257 1058.43 367.596 1060.16 368.26 1061.77C368.925 1063.39 369.901 1064.86 371.134 1066.09C372.366 1067.33 373.831 1068.31 375.444 1068.98C377.056 1069.65 378.785 1070 380.532 1070Z" fill="#C6854E"/>
<path d="M361.259 860.85C361.069 857.18 361.149 853.51 361.309 849.85C361.469 846.19 361.779 842.5 362.169 838.85C362.369 837.01 362.569 835.18 362.819 833.34C363.069 831.5 363.309 829.67 363.669 827.83C364.378 824.022 365.585 820.324 367.259 816.83C368.933 820.324 370.14 824.022 370.849 827.83C371.209 829.67 371.469 831.5 371.699 833.34C371.929 835.18 372.149 837.01 372.349 838.85C372.729 842.52 373.029 846.19 373.199 849.85C373.369 853.51 373.449 857.19 373.259 860.85H361.259Z" fill="#592D3D"/>
<path d="M632.742 870V878C633.002 912 633.002 947 632.742 980.75C632.742 983.62 632.742 986.47 632.742 989.28V1056.69C632.746 1058.44 632.405 1060.17 631.74 1061.78C631.075 1063.39 630.099 1064.86 628.866 1066.1C627.634 1067.33 626.17 1068.31 624.558 1068.98C622.946 1069.65 621.217 1070 619.472 1070H380.532C377.011 1070 373.636 1068.6 371.148 1066.11C368.659 1063.62 367.262 1060.24 367.262 1056.72V998.52C367.262 996.01 367.262 993.45 367.262 990.87C367.012 956 367.012 921 367.262 885.57V860.85" stroke="#592D3D" stroke-width="12" stroke-miterlimit="10"/>
<path d="M626.74 870C626.55 865.83 626.64 861.65 626.8 857.47C626.96 853.29 627.27 849.12 627.65 844.94C627.85 842.85 628.06 840.76 628.3 838.67C628.54 836.58 628.79 834.5 629.15 832.41C629.847 828.106 631.052 823.9 632.74 819.88C634.428 823.9 635.633 828.106 636.33 832.41C636.69 834.5 636.95 836.59 637.18 838.67C637.41 840.75 637.63 842.85 637.83 844.94C638.21 849.12 638.52 853.29 638.68 857.47C638.84 861.65 638.93 865.83 638.74 870H626.74Z" fill="#592D3D"/>
<path d="M502.069 878.86C502.067 889.337 499.69 899.678 495.117 909.104C490.543 918.53 483.892 926.797 475.663 933.282C467.435 939.768 457.843 944.303 447.609 946.548C437.375 948.793 426.765 948.688 416.578 946.242C406.39 943.796 396.89 939.072 388.79 932.426C380.691 925.779 374.204 917.383 369.818 907.869C365.431 898.354 363.258 887.969 363.462 877.494C363.667 867.019 366.244 856.726 370.999 847.39" stroke="#592D3D" stroke-width="12" stroke-miterlimit="10"/>
<path d="M371 847.39C374.787 839.991 379.867 833.33 386 827.72Z" fill="#D8985D"/>
<path d="M365.652 844.66C366.53 842.58 367.666 840.618 369.032 838.82C370.388 837.02 371.904 835.346 373.562 833.82C374.402 833.06 375.252 832.32 376.142 831.63C377.026 830.915 377.966 830.273 378.952 829.71C381.086 828.479 383.49 827.792 385.952 827.71C385.693 830.051 385.104 832.344 384.202 834.52C383.812 835.52 383.372 836.4 382.912 837.29L381.612 839.96C380.762 841.72 379.922 843.45 379.062 845.15C378.23 846.864 377.309 848.533 376.302 850.15L365.652 844.66Z" fill="#592D3D"/>
<path d="M489.332 838.82C497.63 850.507 502.083 864.487 502.072 878.82Z" fill="#D8985D"/>
<path d="M489.332 838.82C492.746 840.671 495.712 843.248 498.022 846.37C499.172 847.888 500.208 849.489 501.122 851.16C502.052 852.83 502.892 854.55 503.672 856.31C505.207 859.846 506.366 863.533 507.132 867.31C507.909 871.101 508.225 874.973 508.072 878.84H496.072C495.882 875.59 495.712 872.36 495.372 869.11C495.032 865.86 494.602 862.63 493.972 859.37L493.472 856.93L492.892 854.48C492.472 852.85 492.022 851.22 491.602 849.55C490.657 846.016 489.9 842.434 489.332 838.82Z" fill="#592D3D"/>
<path d="M641.651 878.86C641.662 869.372 639.719 859.983 635.945 851.278C632.17 842.572 626.644 834.737 619.711 828.26" fill="#D8985D"/>
<path d="M635.651 878.86C635.49 874.552 635.07 870.257 634.391 866C633.689 861.7 632.646 857.464 631.271 853.33C630.931 852.33 630.531 851.26 630.161 850.22C629.791 849.18 629.321 848.17 628.911 847.13C628.501 846.09 627.971 845.13 627.531 844.08L626.071 841.08C624.071 836.98 621.901 832.89 619.711 828.33C624.345 830.307 628.51 833.241 631.931 836.94C632.761 837.88 633.631 838.8 634.401 839.79C635.171 840.78 635.941 841.79 636.651 842.79C637.361 843.79 638.081 844.88 638.721 845.97C639.361 847.06 640.031 848.15 640.601 849.29C642.981 853.813 644.795 858.613 646.001 863.58C647.233 868.576 647.778 873.717 647.621 878.86H635.651Z" fill="#592D3D"/>
<path d="M503.001 878.86C502.891 888.031 504.602 897.133 508.036 905.638C511.469 914.144 516.557 921.883 523.003 928.407C529.45 934.931 537.127 940.111 545.59 943.647C554.053 947.182 563.134 949.003 572.306 949.003C581.478 949.003 590.559 947.182 599.022 943.647C607.485 940.111 615.163 934.931 621.609 928.407C628.056 921.883 633.143 914.144 636.577 905.638C640.01 897.133 641.721 888.031 641.611 878.86" stroke="#592D3D" stroke-width="12" stroke-miterlimit="10"/>
<path d="M515.769 838.82C507.475 850.508 503.025 864.488 503.039 878.82Z" fill="#D8985D"/>
<path d="M515.772 838.82C515.205 842.441 514.448 846.029 513.502 849.57C513.082 851.24 512.632 852.87 512.212 854.5L511.642 856.95L511.142 859.39C510.512 862.65 510.052 865.89 509.732 869.13C509.412 872.37 509.232 875.61 509.042 878.86H497.002C496.84 874.993 497.156 871.12 497.942 867.33C498.703 863.551 499.863 859.864 501.402 856.33C502.172 854.57 503.012 852.85 503.942 851.18C504.86 849.512 505.896 847.911 507.042 846.39C509.364 843.259 512.344 840.675 515.772 838.82Z" fill="#592D3D"/>
<path d="M470.5 897.78H524.4V917.48C506.66 911.43 488.69 911.58 470.5 917.48V897.78Z" fill="white" stroke="#592D3D" stroke-width="12" stroke-miterlimit="10"/>
<path d="M638.101 878.86C638.126 861.305 631.464 844.4 619.471 831.58C615.251 827.06 575.201 837.77 551.661 858.84C528.551 879.53 508.431 913.33 511.311 917.59C519.607 929.903 531.637 939.226 545.63 944.187C559.624 949.148 574.84 949.485 589.039 945.148C603.238 940.81 615.669 932.028 624.501 920.095C633.334 908.161 638.101 893.707 638.101 878.86Z" fill="white" stroke="#592D3D" stroke-width="12" stroke-miterlimit="10"/>
<path d="M598.112 848.39C591.992 852.06 585.962 855.57 580.112 859.39C574.338 863.08 568.816 867.149 563.582 871.57C558.432 876.03 553.472 880.89 548.582 885.83C543.692 890.77 538.892 895.83 533.832 900.9C536.9 894.462 540.648 888.371 545.012 882.73C549.369 877.001 554.298 871.731 559.722 867C565.241 862.329 571.338 858.387 577.862 855.27C584.289 852.118 591.095 849.805 598.112 848.39Z" fill="white"/>
<path d="M361.902 878.86C361.877 861.305 368.539 844.4 380.532 831.58C384.752 827.06 424.802 837.77 448.342 858.84C471.452 879.53 491.572 913.33 488.692 917.59C480.396 929.903 468.366 939.226 454.373 944.187C440.38 949.148 425.163 949.485 410.964 945.148C396.765 940.81 384.334 932.028 375.502 920.095C366.669 908.161 361.902 893.707 361.902 878.86Z" fill="white" stroke="#592D3D" stroke-width="12" stroke-miterlimit="10"/>
<path d="M455.751 938.92C433.112 938.92 411.4 929.927 395.392 913.919C379.384 897.911 370.391 876.199 370.391 853.56C370.391 850.651 370.537 847.744 370.831 844.85C363.312 858.199 360.428 873.662 362.629 888.823C364.831 903.985 371.993 917.989 382.997 928.648C394.002 939.308 408.227 946.02 423.451 947.738C438.675 949.455 454.038 946.08 467.141 938.14C463.366 938.653 459.561 938.914 455.751 938.92Z" fill="#E2E2E2"/>
<path d="M361.902 878.86C361.877 861.305 368.539 844.4 380.532 831.58C384.752 827.06 424.802 837.77 448.342 858.84C471.452 879.53 491.572 913.33 488.692 917.59C480.396 929.903 468.366 939.226 454.373 944.187C440.38 949.148 425.163 949.485 410.964 945.148C396.765 940.81 384.334 932.028 375.502 920.095C366.669 908.161 361.902 893.707 361.902 878.86Z" stroke="#592D3D" stroke-width="12" stroke-miterlimit="10"/>
<path d="M401.891 848.39C408.907 849.802 415.713 852.111 422.141 855.26C428.666 858.38 434.762 862.325 440.281 867C445.683 871.727 450.592 876.991 454.931 882.71C459.295 888.351 463.043 894.442 466.111 900.88C461.051 895.88 456.271 890.75 451.361 885.81C446.451 880.87 441.521 876.01 436.361 871.55C431.126 867.129 425.604 863.06 419.831 859.37C414.001 855.57 408.001 852.06 401.891 848.39Z" fill="white"/>
<path d="M568.442 849.8C547.262 856.69 526.442 867.28 505.592 869.47C478.842 872.29 451.492 856.1 423.292 848.39C421.142 845.81 404.942 833.95 389.822 834.45C377.942 834.85 374.732 838.75 371.422 842.64L367.262 1056.12C367.262 1059.64 368.66 1063.01 371.148 1065.5C373.637 1067.99 377.012 1069.39 380.532 1069.39H619.472C622.991 1069.39 626.366 1067.99 628.855 1065.5C631.344 1063.01 632.742 1059.64 632.742 1056.12L630.362 840.76C625.932 840.76 623.262 831.36 609.952 835.67C593.662 841 569.712 848.28 568.442 849.8Z" fill="white"/>
<path d="M632.739 831.31L609.949 869.4L621.339 999.43H632.939V893.78L632.739 831.31Z" fill="#E2E2E2"/>
<path d="M380.532 1069.39H497.152C387.952 1069.39 396.242 838.25 367.262 838.25V1056.12C367.262 1059.64 368.66 1063.01 371.148 1065.5C373.637 1067.99 377.012 1069.39 380.532 1069.39Z" fill="#E2E2E2"/>
<path d="M361.26 860.4C361.047 857.642 361.013 854.873 361.16 852.11C361.287 849.343 361.523 846.573 361.87 843.8C362.05 842.41 362.22 841.03 362.44 839.64C362.66 838.25 362.88 836.87 363.22 835.48C363.905 832.528 365.066 829.708 366.66 827.13C368.347 829.646 369.607 832.424 370.39 835.35C370.78 836.73 371.07 838.11 371.32 839.48C371.57 840.85 371.82 842.24 372.04 843.62C372.48 846.37 372.83 849.13 373.04 851.89C373.295 854.646 373.365 857.415 373.25 860.18L361.26 860.4Z" fill="#592D3D"/>
<path d="M632.742 869.4V877.4C633.002 911.4 633.002 946.4 632.742 980.16C632.742 983.03 632.742 985.88 632.742 988.69V1056.1C632.742 1059.62 631.344 1062.99 628.855 1065.48C626.366 1067.97 622.991 1069.37 619.472 1069.37H380.532C377.012 1069.37 373.637 1067.97 371.148 1065.48C368.66 1062.99 367.262 1059.62 367.262 1056.1V998C367.262 995.493 367.262 992.943 367.262 990.35C367.012 955.49 367.012 920.49 367.262 885.05V860.29" stroke="#592D3D" stroke-width="12" stroke-miterlimit="10"/>
<path d="M626.762 869.38C626.793 866.526 627.01 863.676 627.412 860.85C627.792 858.017 628.278 855.193 628.872 852.38C629.172 850.97 629.472 849.56 629.812 848.16C630.152 846.76 630.502 845.35 630.962 843.95C631.905 840.985 633.316 838.19 635.142 835.67C636.608 838.416 637.621 841.381 638.142 844.45C638.402 845.9 638.562 847.34 638.692 848.78C638.822 850.22 638.942 851.66 639.042 853.09C639.222 855.96 639.322 858.83 639.292 861.68C639.292 864.535 639.112 867.387 638.752 870.22L626.762 869.38Z" fill="#592D3D"/>
<path d="M557.91 889.36C562.32 888.58 566.67 887.97 571.01 887.36L584.01 885.43C588.32 884.78 592.62 884.07 596.92 883.33C601.22 882.59 605.53 881.75 609.99 881.13C606.08 883.32 601.947 885.083 597.66 886.39C593.41 887.721 589.064 888.724 584.66 889.39C580.249 890.074 575.794 890.445 571.33 890.5C566.83 890.581 562.333 890.199 557.91 889.36Z" fill="#592D3D"/>
<path opacity="0.1" d="M426.882 961.63C441.357 961.628 455.469 957.095 467.238 948.666C479.006 940.237 487.841 928.335 492.502 914.63C486.585 924.751 478.255 933.249 468.254 939.366C458.254 945.483 446.894 949.028 435.19 949.686C423.485 950.343 411.8 948.093 401.177 943.134C390.554 938.176 381.324 930.664 374.312 921.27L374.262 936C387.002 951.63 405.152 961.63 426.882 961.63Z" fill="black"/>
<path opacity="0.1" d="M573.12 961.63C558.644 961.628 544.532 957.095 532.764 948.666C520.995 940.237 512.161 928.335 507.5 914.63C513.416 924.751 521.747 933.249 531.747 939.366C541.748 945.483 553.108 949.028 564.812 949.686C576.517 950.343 588.202 948.093 598.825 943.134C609.448 938.176 618.677 930.664 625.69 921.27V935.99C613 951.63 594.85 961.63 573.12 961.63Z" fill="black"/>
<path d="M407.002 943.81C396.331 939.827 386.805 933.277 379.267 924.738C371.73 916.198 366.412 905.934 363.784 894.851C361.156 883.768 361.3 872.208 364.202 861.194C367.104 850.179 372.674 840.05 380.422 831.7" fill="white"/>
<path d="M406.999 943.81C395.176 941.88 384.258 936.283 375.789 927.81L374.169 926.21C373.639 925.67 373.169 925.08 372.639 924.52C372.109 923.96 371.639 923.37 371.159 922.79C370.652 922.219 370.174 921.621 369.729 921C368.829 919.77 367.919 918.54 367.049 917.28L364.679 913.35C361.688 907.965 359.431 902.204 357.969 896.22C356.61 890.22 356.042 884.068 356.279 877.92C356.551 871.812 357.696 865.774 359.679 859.99C359.939 859.28 360.169 858.56 360.439 857.85L361.319 855.75C361.869 854.35 362.579 853.01 363.229 851.66C364.619 849.003 366.203 846.453 367.969 844.03C368.819 842.82 369.789 841.68 370.719 840.54C371.649 839.4 372.659 838.31 373.719 837.31C375.786 835.244 378.039 833.373 380.449 831.72C374.659 841.72 370.549 851.91 368.789 862.39C367.874 867.541 367.479 872.77 367.609 878C367.802 883.187 368.471 888.346 369.609 893.41C370.842 898.446 372.556 903.352 374.729 908.06C376.951 912.816 379.659 917.33 382.809 921.53C385.996 925.871 389.618 929.876 393.619 933.48C397.82 937.247 402.292 940.7 406.999 943.81Z" fill="#592D3D"/>
<path d="M593.051 943.81C603.718 939.822 613.239 933.267 620.771 924.726C628.303 916.184 633.615 905.918 636.238 894.836C638.861 883.754 638.713 872.196 635.807 861.184C632.902 850.173 627.329 840.046 619.581 831.7" fill="white"/>
<path d="M593.051 943.81C597.746 940.711 602.209 937.272 606.401 933.52C610.402 929.916 614.024 925.912 617.211 921.57C620.361 917.371 623.069 912.857 625.291 908.1C627.463 903.392 629.178 898.486 630.411 893.45C631.549 888.386 632.218 883.227 632.411 878.04C632.555 872.791 632.17 867.542 631.261 862.37C629.501 851.89 625.391 841.73 619.601 831.7C622.011 833.353 624.264 835.224 626.331 837.29C627.411 838.29 628.331 839.43 629.331 840.52C630.331 841.61 631.231 842.8 632.081 844.01C633.847 846.433 635.431 848.983 636.821 851.64C637.471 852.99 638.181 854.33 638.731 855.73L639.611 857.83C639.881 858.54 640.111 859.26 640.371 859.97C642.354 865.754 643.499 871.792 643.771 877.9C644.008 884.048 643.44 890.2 642.081 896.2C640.619 902.184 638.362 907.945 635.371 913.33L633.001 917.26C632.131 918.52 631.221 919.75 630.321 920.98C629.876 921.601 629.398 922.199 628.891 922.77C628.401 923.35 627.891 923.93 627.411 924.5C626.931 925.07 626.411 925.65 625.881 926.19L624.261 927.79C615.795 936.271 604.877 941.875 593.051 943.81Z" fill="#592D3D"/>
<path d="M329.09 794.17C385.21 829.75 497.57 869.7 497.57 869.7L497.41 883.7C497.41 883.7 397 879.36 316.32 844.9C316.32 814.38 329.09 794.17 329.09 794.17Z" fill="white" stroke="#592D3D" stroke-width="12" stroke-miterlimit="10"/>
<path d="M648.659 870.5C648.659 870.5 666.359 868.65 679.559 861.5C679.449 857.25 678.959 853.39 678.959 853.39L648.109 864.07L648.659 870.5Z" fill="#C6854E"/>
<path d="M671.55 794.43C619 831.8 503 869.7 503 869.7L503.17 883.7C503.17 883.7 603.58 879.4 684.25 844.94C684.29 822.67 671.55 794.43 671.55 794.43Z" fill="white" stroke="#592D3D" stroke-width="12" stroke-miterlimit="10"/>
<path d="M320.632 822.65C320.912 822.89 321.462 823.26 321.902 823.57C322.342 823.88 322.902 824.21 323.352 824.52C324.352 825.12 325.352 825.73 326.432 826.29C328.512 827.45 330.662 828.54 332.862 829.57C335.062 830.6 337.282 831.57 339.512 832.57C340.632 833.07 341.742 833.57 342.852 834.15C343.962 834.73 345.072 835.25 346.162 835.91C343.661 835.778 341.177 835.417 338.742 834.83C336.322 834.23 333.932 833.513 331.572 832.68C329.185 831.854 326.848 830.889 324.572 829.79C323.442 829.23 322.312 828.63 321.212 827.95C320.662 827.61 320.122 827.26 319.572 826.89C318.987 826.491 318.429 826.053 317.902 825.58L320.632 822.65Z" fill="#592D3D"/>
<path d="M271.401 576.82C270.401 548.46 289.401 524.46 314.681 513.26C317.336 512.173 320.062 511.271 322.841 510.56C336.851 507.08 351.594 508.016 365.051 513.24C368.126 514.419 371.117 515.809 374.001 517.4C403.531 533.28 416.791 570.65 405.361 600.86C404.203 603.906 402.805 606.855 401.181 609.68C397.193 617.988 391.17 625.153 383.671 630.51C381.169 632.351 378.547 634.021 375.821 635.51C348.441 648.51 311.441 644.51 289.371 624.11C287.163 621.765 285.122 619.269 283.261 616.64C281.139 613.637 279.275 610.459 277.691 607.14C274.338 600.351 272.402 592.951 272.001 585.39C271.639 582.547 271.439 579.686 271.401 576.82Z" fill="#C6854E"/>
<path d="M269.772 558.47C268.772 530.11 287.772 506.11 313.052 494.91C315.703 493.823 318.427 492.921 321.202 492.21C335.215 488.728 349.962 489.664 363.422 494.89C366.487 496.07 369.468 497.46 372.342 499.05C401.872 514.94 415.132 552.3 403.702 582.51C402.552 585.559 401.154 588.509 399.522 591.33C398.14 594.039 396.566 596.645 394.812 599.13C393.084 601.592 391.186 603.931 389.132 606.13C386.912 608.327 384.532 610.356 382.012 612.2C379.512 614.043 376.889 615.714 374.162 617.2C346.782 630.2 309.782 626.2 287.722 605.8C285.509 603.46 283.467 600.963 281.612 598.33C279.487 595.327 277.62 592.149 276.032 588.83C272.656 582.02 270.713 574.591 270.322 567C269.968 564.17 269.785 561.322 269.772 558.47Z" fill="white" stroke="#592D3D" stroke-width="12" stroke-miterlimit="10"/>
<path d="M338.51 571.32C345.27 571.32 350.75 565.84 350.75 559.08C350.75 552.32 345.27 546.84 338.51 546.84C331.75 546.84 326.27 552.32 326.27 559.08C326.27 565.84 331.75 571.32 338.51 571.32Z" fill="#592D3D"/>
<path d="M715.032 559.08H603.402" stroke="#592D3D" stroke-width="16" stroke-miterlimit="10" stroke-linecap="round"/>
<path d="M627 574.16C631.323 573.389 635.687 572.868 640.07 572.6C644.43 572.3 648.79 572.17 653.15 572.16C657.51 572.15 661.86 572.3 666.22 572.59C670.607 572.862 674.974 573.386 679.3 574.16C674.975 574.943 670.607 575.47 666.22 575.74C661.86 576.027 657.503 576.167 653.15 576.16C648.797 576.153 644.437 576.01 640.07 575.73C635.686 575.464 631.322 574.939 627 574.16Z" fill="#592D3D"/>
<path d="M463.75 593.17C479.3 593.17 488.87 605.93 500.24 605.93C511.61 605.93 526.15 593.17 541.51 593.17C556.87 593.17 565.23 604.29 565.23 619.69C565.23 636.34 548.48 665.69 502.63 665.69C456.78 665.69 437.23 637.95 437.23 620.24C437.23 603.89 448.2 593.17 463.75 593.17Z" fill="white" stroke="#592D3D" stroke-width="12" stroke-miterlimit="10"/>
<path d="M477.852 596.6V662.1" stroke="#592D3D" stroke-width="12" stroke-miterlimit="10"/>
<path d="M526.992 596.6V662.1" stroke="#592D3D" stroke-width="12" stroke-miterlimit="10"/>
<path d="M499.701 278.25C559.116 278.25 607.281 230.085 607.281 170.67C607.281 111.255 559.116 63.0901 499.701 63.0901C440.286 63.0901 392.121 111.255 392.121 170.67C392.121 230.085 440.286 278.25 499.701 278.25Z" fill="white"/>
<path d="M559.289 397.34C546.419 421.34 499.289 434.78 495.459 428.76C491.159 422.03 533.299 373.44 509.359 322.62" fill="#C6854E"/>
<path d="M420.82 134.59C423.577 126.683 427.699 119.322 433 112.84C434.37 111.25 435.72 109.63 437.16 108.1C438.6 106.57 440.16 105.1 441.69 103.69C443.22 102.28 444.9 100.96 446.57 99.6901C448.24 98.4201 449.98 97.1901 451.74 96.0401C453.5 94.8901 455.34 93.8301 457.21 92.8501L460.03 91.4201C460.96 90.9217 461.915 90.4711 462.89 90.0701C464.89 89.3101 466.78 88.4501 468.78 87.7801C470.78 87.1101 472.78 86.4601 474.78 85.9701C482.888 83.8623 491.3 83.1855 499.64 83.9701C491.482 84.7561 483.434 86.4327 475.64 88.9701C474.64 89.2301 473.74 89.6701 472.79 89.9701L469.94 90.9701C468.06 91.7001 466.25 92.6201 464.4 93.4201C462.55 94.2201 460.82 95.2701 459.02 96.1901C457.22 97.1101 455.58 98.2801 453.85 99.3101C452.12 100.34 450.52 101.59 448.85 102.72C447.18 103.85 445.7 105.24 444.09 106.47C442.48 107.7 441.09 109.15 439.56 110.47L435.28 114.78C429.74 120.826 424.89 127.47 420.82 134.59Z" fill="white"/>
<path d="M409.801 229.76C429.001 259 435.671 233.25 498.001 233.25C605.211 233.25 571.621 258.25 590.691 228.1C563.101 218.45 546.691 208.71 502.561 208.71C460.261 208.71 438.691 219.05 409.801 229.76Z" fill="#E2E2E2"/>
<path d="M499.701 278.25C559.116 278.25 607.281 230.085 607.281 170.67C607.281 111.255 559.116 63.0901 499.701 63.0901C440.286 63.0901 392.121 111.255 392.121 170.67C392.121 230.085 440.286 278.25 499.701 278.25Z" stroke="#592D3D" stroke-width="12" stroke-miterlimit="10"/>
<path d="M421.521 244.56C335.161 273.62 263.781 346.74 245.061 429.8C213.001 556.34 262.891 634 307.171 681.6C311.541 686.3 237.711 543.34 304.741 440.6C365.841 438.28 457.161 426.22 500.521 377.74C496.181 398.87 484.001 415 486.001 418.18C488.881 422.69 524.191 412.65 533.841 394.64L534.671 391.03C569.391 403.61 626.431 417.62 678.671 397.64C801.811 535.94 691.291 689 700.301 679C744.783 630.004 769.387 566.176 769.301 500C769.301 413.58 725.021 351.11 725.021 351.11C694.501 296.7 641.501 259.24 580.221 242" fill="white"/>
<path d="M326.66 439.38C332.04 387.16 351.66 326.88 391.36 257.48C388.646 258.733 385.96 260.027 383.3 261.36L382.71 261.65C381.49 262.26 380.27 262.89 379.06 263.53L378.06 264.06C374.3 266.06 370.59 268.137 366.93 270.29L366.03 270.82C364.87 271.51 363.72 272.21 362.57 272.92L361.71 273.46C358.13 275.693 354.61 278.003 351.15 280.39L350.07 281.14C348.99 281.9 347.91 282.66 346.84 283.43L346.19 283.9C344.01 285.493 341.853 287.107 339.72 288.74L339.1 289.22C338.1 290 337.1 290.8 336.1 291.61L334.92 292.55C333.92 293.36 332.92 294.17 331.92 295C329.81 296.75 327.74 298.55 325.68 300.37L324.54 301.37L321.85 303.82L320.53 305C317.683 307.667 314.893 310.39 312.16 313.17L310.79 314.58C309.99 315.4 309.2 316.22 308.42 317.05L307.05 318.53C305.683 320.023 304.333 321.513 303 323C302.54 323.51 302.08 324 301.63 324.54C300.92 325.35 300.22 326.17 299.52 327C299.01 327.59 298.52 328.18 298.01 328.78C297.33 329.59 296.65 330.4 296.01 331.22C295.47 331.88 294.94 332.55 294.4 333.22C293.34 334.55 292.29 335.88 291.25 337.22C290.7 337.92 290.16 338.62 289.63 339.33C289.1 340.04 288.43 340.92 287.84 341.73L286.25 343.91C285.69 344.69 285.12 345.46 284.57 346.24C283.63 347.58 282.69 348.93 281.77 350.29C281.27 351.02 280.77 351.77 280.29 352.51C279.81 353.25 279.18 354.17 278.64 355.01C278.1 355.85 277.64 356.55 277.16 357.32C276.68 358.09 276.03 359.12 275.47 360.03C275.04 360.72 274.61 361.41 274.19 362.1C273.31 363.56 272.443 365.027 271.59 366.5C271.17 367.22 270.77 367.94 270.36 368.66C269.82 369.61 269.28 370.57 268.75 371.53C268.35 372.26 267.95 372.99 267.56 373.72C266.92 374.91 266.29 376.11 265.67 377.31C265.26 378.09 264.86 378.87 264.46 379.65C263.82 380.93 263.18 382.2 262.56 383.49C262.22 384.18 261.89 384.88 261.56 385.58C261.04 386.67 260.56 387.77 260.02 388.87L259.11 390.87C258.37 392.517 257.647 394.183 256.94 395.87C256.72 396.39 256.51 396.92 256.29 397.44C255.76 398.71 255.29 399.98 254.73 401.26C254.47 401.93 254.2 402.6 253.94 403.26C253.45 404.52 252.94 405.79 252.49 407.06L251.88 408.71C251.213 410.463 250.593 412.217 250.02 413.97L249.46 415.67C249.02 417.003 248.59 418.337 248.17 419.67C247.97 420.3 247.77 420.94 247.58 421.58C247.1 423.12 246.64 424.663 246.2 426.21C246.1 426.54 246 426.87 245.91 427.21C245.39 429.05 244.89 430.897 244.41 432.75L243.96 434.53C243.77 435.27 243.59 436.02 243.41 436.77C241.85 443.46 240.53 450 239.41 456.41C239.31 457.06 239.19 457.71 239.09 458.36L238.85 459.87C238.55 461.83 238.277 463.793 238.03 465.76C237.97 466.19 237.92 466.63 237.87 467.06C237.67 468.65 237.49 470.25 237.32 471.85L237.14 473.66C236.97 475.34 236.82 477.03 236.69 478.72L236.6 479.72C236.447 481.72 236.32 483.737 236.22 485.77C236.22 486.3 236.17 486.84 236.14 487.37C236.067 488.943 236.007 490.513 235.96 492.08C235.96 492.67 235.96 493.26 235.91 493.85C235.91 495.9 235.84 497.96 235.84 500.02V500.12C235.84 502.327 235.867 504.533 235.92 506.74C235.92 507.5 235.98 508.26 236 509.02C236.05 510.49 236.1 511.96 236.17 513.43C236.22 514.32 236.28 515.2 236.33 516.09C236.41 517.42 236.49 518.75 236.58 520.09C236.65 521.09 236.74 521.98 236.82 522.92C236.93 524.18 237.03 525.44 237.16 526.69C237.25 527.69 237.37 528.63 237.47 529.6C237.61 530.81 237.74 532.03 237.89 533.24C238.01 534.24 238.15 535.24 238.28 536.19C238.44 537.37 238.61 538.56 238.78 539.74C238.93 540.74 239.09 541.74 239.25 542.74C239.44 543.9 239.62 545.07 239.83 546.23C240 547.23 240.18 548.23 240.37 549.23C240.58 550.38 240.8 551.53 241.03 552.67C241.26 553.81 241.43 554.67 241.64 555.67C241.88 556.81 242.12 557.94 242.38 559.07C242.64 560.2 242.83 561.07 243.06 562C243.32 563.13 243.6 564.25 243.88 565.36C244.16 566.47 244.37 567.31 244.63 568.27C244.92 569.39 245.22 570.5 245.53 571.61C245.8 572.61 246.06 573.53 246.34 574.48C246.66 575.59 246.99 576.69 247.34 577.79C247.69 578.89 247.91 579.68 248.21 580.63C248.51 581.58 248.92 582.82 249.28 583.91C249.59 584.84 249.89 585.78 250.21 586.71L251.36 589.98L252.36 592.72C252.77 593.81 253.19 594.9 253.61 595.99C253.95 596.88 254.29 597.78 254.61 598.67C255.05 599.76 255.5 600.86 255.95 601.95C256.31 602.81 256.66 603.68 257.03 604.54C257.51 605.66 258.03 606.76 258.49 607.87C258.85 608.7 259.21 609.52 259.58 610.34C260.1 611.5 260.65 612.64 261.19 613.78C261.55 614.55 261.9 615.32 262.27 616.08C262.87 617.34 263.5 618.58 264.13 619.83L265.08 621.73C267 625.47 269 629.16 271.08 632.8C271.44 633.42 271.81 634.03 272.17 634.64C272.87 635.84 273.56 637.04 274.28 638.22C274.72 638.94 275.17 639.64 275.61 640.36C276.27 641.43 276.93 642.5 277.61 643.55C278.09 644.31 278.61 645.05 279.08 645.79C279.73 646.79 280.39 647.79 281.08 648.79C281.59 649.55 282.08 650.31 282.64 651.07C283.3 652.07 283.96 652.99 284.64 653.95C285.18 654.72 285.74 655.48 286.29 656.25C286.84 657.02 287.63 658.1 288.29 659.02C288.95 659.94 289.44 660.55 290.01 661.31L292.08 664.01C292.67 664.77 293.27 665.52 293.87 666.27C294.47 667.02 295.28 668.03 295.99 668.9C296.7 669.77 297.22 670.39 297.84 671.13C298.46 671.87 299.28 672.85 300.01 673.7C300.74 674.55 301.28 675.17 301.92 675.9L304.14 678.4C304.79 679.13 305.45 679.84 306.14 680.56L307.29 681.81C310.19 683.73 238.38 542.51 304.78 440.73C311.7 440.33 319 439.94 326.66 439.38Z" fill="#E2E2E2"/>
<path d="M657.943 378.93C657.943 378.93 655.842 399.74 607.312 407.15C630.423 408.75 655.053 406.69 678.693 397.64C681.913 401.25 657.943 378.93 657.943 378.93Z" fill="#E2E2E2"/>
<path d="M304.739 441C304.739 441 293.739 442.14 273.969 439.11Z" fill="white"/>
<path d="M305.349 447C304.839 447.08 304.539 447.11 304.159 447.15C303.779 447.19 303.449 447.22 303.089 447.25C302.389 447.25 301.699 447.33 301.009 447.33C299.639 447.33 298.279 447.33 296.929 447.17C294.238 446.941 291.566 446.533 288.929 445.95C287.619 445.66 286.319 445.36 285.029 444.95C283.727 444.615 282.448 444.198 281.199 443.7C278.511 442.648 276.05 441.09 273.949 439.11C275.266 438.441 276.642 437.895 278.059 437.48C279.355 437.092 280.674 436.788 282.009 436.57C284.599 436.15 287.129 436.02 289.649 435.78C292.169 435.54 294.649 435.39 297.099 435.25C298.319 435.17 299.539 435.13 300.729 435.08H302.509C302.799 435.08 303.099 435.08 303.369 435.08C303.639 435.08 303.969 435.08 304.099 435.08L305.349 447Z" fill="#592D3D"/>
<path d="M677.001 396.19C677.001 396.19 666.291 381.89 636.621 365.19Z" fill="white"/>
<path d="M672.142 399.78L670.372 397.87L668.372 395.75C666.982 394.34 665.552 392.9 664.102 391.5C661.182 388.68 658.152 385.88 655.102 383.1C652.052 380.32 648.802 377.66 645.672 374.78C644.112 373.34 642.542 371.87 641.042 370.26C639.461 368.665 637.995 366.961 636.652 365.16C638.901 365.433 641.124 365.881 643.302 366.5C645.422 367.131 647.505 367.879 649.542 368.74C651.542 369.63 653.542 370.57 655.452 371.65C657.362 372.73 659.292 373.78 661.172 374.94C664.955 377.248 668.574 379.814 672.002 382.62C673.712 384.07 675.432 385.53 677.002 387.15C677.822 387.94 678.612 388.78 679.392 389.65C679.782 390.1 680.172 390.52 680.552 391C680.932 391.48 681.272 391.89 681.772 392.59L672.142 399.78Z" fill="#592D3D"/>
<path d="M421.521 244.56C335.161 273.62 263.781 346.74 245.061 429.8C213.001 556.34 262.891 634 307.171 681.6C311.541 686.3 237.711 543.34 304.741 440.6C365.841 438.28 457.161 426.22 500.521 377.74C496.181 398.87 484.001 415 486.001 418.18C488.881 422.69 524.191 412.65 533.841 394.64L534.671 391.03C569.391 403.61 626.431 417.62 678.671 397.64C801.811 535.94 691.291 689 700.301 679C744.783 630.004 769.387 566.176 769.301 500C769.301 413.58 725.021 351.11 725.021 351.11C694.501 296.7 641.501 259.24 580.221 242" stroke="#592D3D" stroke-width="12" stroke-miterlimit="10"/>
<path d="M520.11 249.17C505.866 249.987 491.682 251.633 477.63 254.1C474.14 254.78 470.63 255.52 467.19 256.16C463.75 256.8 460.29 257.77 456.84 258.57L446.57 261.29C443.18 262.29 439.81 263.37 436.43 264.4C422.945 268.748 409.772 274.006 397 280.14C384.164 286.369 371.724 293.382 359.75 301.14C370.414 291.409 382.188 282.971 394.83 276C407.476 268.928 420.795 263.133 434.59 258.7C438.06 257.7 441.52 256.62 445.01 255.65C448.5 254.68 452.01 253.83 455.55 253.06C459.09 252.29 462.65 251.65 466.21 251.06C469.77 250.47 473.36 249.98 476.95 249.54C491.276 247.772 505.756 247.648 520.11 249.17Z" fill="white"/>
<path d="M529.832 233.83C534.892 232.62 540.07 231.976 545.272 231.91C547.832 231.85 550.382 231.91 552.942 232.04C555.502 232.17 558.062 232.34 560.622 232.56C565.776 233.007 570.9 233.741 575.972 234.76C581.106 235.757 586.15 237.176 591.052 239L587.152 250.35C582.542 248.97 577.912 247.57 573.212 246.28C568.512 244.99 563.762 243.77 558.962 242.57L551.712 240.81C549.282 240.24 546.842 239.66 544.412 239C539.405 237.723 534.525 235.992 529.832 233.83Z" fill="#592D3D"/>
<path d="M412.449 241.49C416.891 239.772 421.453 238.385 426.099 237.34C430.721 236.285 435.394 235.467 440.099 234.89C442.439 234.61 444.779 234.36 447.099 234.18C449.419 234 451.789 233.85 454.099 233.84C458.903 233.767 463.697 234.298 468.369 235.42C464.171 237.652 459.775 239.494 455.239 240.92C453.049 241.65 450.849 242.29 448.649 242.92L442.099 244.85C437.759 246.17 433.429 247.45 429.159 248.85C424.889 250.25 420.639 251.57 416.369 252.85L412.449 241.49Z" fill="#592D3D"/>
<path d="M514.262 239.09C517.487 239.09 520.102 236.475 520.102 233.25C520.102 230.025 517.487 227.41 514.262 227.41C511.037 227.41 508.422 230.025 508.422 233.25C508.422 236.475 511.037 239.09 514.262 239.09Z" fill="#592D3D"/>
<path d="M497.989 237.38C500.27 237.38 502.119 235.531 502.119 233.25C502.119 230.969 500.27 229.12 497.989 229.12C495.708 229.12 493.859 230.969 493.859 233.25C493.859 235.531 495.708 237.38 497.989 237.38Z" fill="#592D3D"/>
<path d="M407.291 474.84H286.651C281.091 474.84 275.531 474.76 269.971 474.84H269.731C264.501 474.84 259.491 479.44 259.731 484.84C259.775 487.479 260.842 489.997 262.708 491.863C264.574 493.729 267.092 494.796 269.731 494.84H390.371C395.921 494.84 401.491 494.92 407.051 494.84H407.291C412.521 494.84 417.531 490.24 417.291 484.84C417.245 482.202 416.176 479.686 414.311 477.82C412.445 475.955 409.929 474.886 407.291 474.84Z" fill="#592D3D"/>
<path d="M726.322 474.84H605.682C600.122 474.84 594.562 474.76 589.002 474.84H588.762C583.532 474.84 578.522 479.44 578.762 484.84C578.806 487.479 579.874 489.997 581.739 491.863C583.605 493.729 586.124 494.796 588.762 494.84H709.402C714.962 494.84 720.522 494.92 726.082 494.84H726.322C731.552 494.84 736.562 490.24 736.322 484.84C736.276 482.202 735.208 479.686 733.342 477.82C731.477 475.955 728.96 474.886 726.322 474.84Z" fill="#592D3D"/>
<path opacity="0.15" d="M725 631.82C736.169 613.163 745.002 593.203 751.3 572.39C734.06 608.13 701.46 637.85 659.19 637.85C630.923 637.813 603.825 626.566 583.839 606.577C563.853 586.587 552.612 559.487 552.58 531.22C552.541 517.431 555.201 503.768 560.41 491H758C762.345 501.64 764.919 512.919 765.62 524.39C766.35 516.39 766.74 508.2 766.74 499.97C766.736 490.282 766.208 480.601 765.16 470.97H575H423.14H234.83C233.782 480.601 233.254 490.282 233.25 499.97C233.25 504.7 233.39 509.39 233.63 514.06C234.899 506.152 237.07 498.415 240.1 491H437.7C444.271 507.194 446.764 524.753 444.96 542.136C443.156 559.518 437.11 576.191 427.353 590.69C417.596 605.189 404.428 617.069 389.005 625.287C373.581 633.505 356.376 637.809 338.9 637.82C300.1 637.82 270.08 611.99 251.42 580.93C257.712 599.398 266.015 617.118 276.18 633.77C295.57 645.84 314.43 657.82 338.9 657.82C372.467 657.781 404.648 644.431 428.387 620.698C452.125 596.965 465.482 564.787 465.53 531.22C465.53 529.41 465.53 527.61 465.41 525.82C488.79 517.59 510.93 517.47 532.72 525.46C532.64 527.37 532.58 529.29 532.58 531.22C532.62 564.792 545.974 596.978 569.713 620.717C593.452 644.456 625.638 657.81 659.21 657.85C685 657.85 705 645.1 725 631.82ZM535.26 505.18C511.86 497.63 487.62 497.76 462.93 505.57C461.916 500.639 460.603 495.773 459 491H539.1C537.538 495.646 536.255 500.381 535.26 505.18Z" fill="black"/>
<path opacity="0.95" d="M233.59 469.82C233.59 469.82 234 502.05 234 520.02C234 584.43 274.48 636.65 338.9 636.65C358.593 636.641 377.963 631.648 395.207 622.136C412.45 612.623 427.005 598.902 437.516 582.248C448.028 565.595 454.153 546.552 455.322 526.894C456.49 507.236 452.664 487.601 444.2 469.82H233.59Z" fill="#592D3D"/>
<path opacity="0.95" d="M553.909 469.82C545.445 487.601 541.619 507.236 542.788 526.894C543.956 546.552 550.082 565.595 560.593 582.248C571.104 598.902 585.659 612.623 602.903 622.136C620.146 631.648 639.516 636.641 659.209 636.65C723.629 636.65 766.749 584.43 766.749 520.02C766.749 502.02 764.519 469.82 764.519 469.82H553.909Z" fill="#592D3D"/>
<path opacity="0.25" d="M319.999 626.86L443.069 503.78C440.364 497.681 437.012 491.892 433.069 486.51L302.719 616.88C308.107 620.813 313.9 624.158 319.999 626.86Z" fill="white"/>
<path d="M455.859 507.53C485.379 495.53 514.389 495.11 542.859 507.53" stroke="#592D3D" stroke-width="20" stroke-miterlimit="10"/>
<path d="M274.281 504.75C276.341 511.26 268.341 516.26 262.341 517.26C256.341 517.26 252.341 513.26 250.341 508.26C249.341 503.26 250.341 498.26 254.341 495.26C259.341 493.26 266.341 491.26 270.781 496.38C271.892 497.472 272.774 498.775 273.375 500.212C273.976 501.649 274.284 503.192 274.281 504.75Z" fill="white"/>
<path d="M285.001 500.93C284.391 505.26 278.391 505.26 277.391 501.26C277.391 498.26 278.391 497.26 281.231 497.16C282.23 497.16 283.189 497.557 283.896 498.264C284.603 498.971 285.001 499.93 285.001 500.93Z" fill="white"/>
<path opacity="0.25" d="M645.19 618.92L751.47 512.64C750.896 508.855 750.091 505.108 749.06 501.42L634 616.51C637.678 617.539 641.415 618.344 645.19 618.92Z" fill="white"/>
<path d="M590.68 505.73C592.74 512.24 584.74 517.24 578.74 518.24C572.74 518.24 568.74 514.24 566.74 509.24C565.74 504.24 566.74 499.24 570.74 496.24C575.74 494.24 582.74 492.24 587.19 497.36C588.3 498.452 589.18 499.756 589.779 501.193C590.379 502.63 590.685 504.173 590.68 505.73Z" fill="white"/>
<path d="M601.352 501.91C600.742 506.24 594.742 506.24 593.742 502.24C593.742 499.24 594.742 498.24 597.592 498.14C598.087 498.14 598.577 498.238 599.033 498.427C599.49 498.617 599.905 498.895 600.254 499.245C600.604 499.595 600.88 500.011 601.069 500.468C601.257 500.926 601.353 501.416 601.352 501.91Z" fill="white"/>
<path d="M233.593 469.82C233.593 469.82 233.253 501.51 234.003 520.02C236.603 584.38 274.483 636.65 338.903 636.65C358.596 636.641 377.966 631.648 395.209 622.136C412.453 612.623 427.008 598.902 437.519 582.248C448.03 565.595 454.156 546.552 455.324 526.894C456.493 507.236 452.667 487.601 444.203 469.82H233.593Z" stroke="#592D3D" stroke-width="20" stroke-miterlimit="10"/>
<path d="M553.909 469.82C545.445 487.601 541.619 507.236 542.788 526.894C543.956 546.552 550.082 565.595 560.593 582.248C571.104 598.902 585.659 612.623 602.903 622.136C620.146 631.648 639.516 636.641 659.209 636.65C723.629 636.65 766.749 585.12 766.749 520.71C766.749 502.71 764.519 469.82 764.519 469.82H553.909Z" stroke="#592D3D" stroke-width="20" stroke-miterlimit="10"/>
<path d="M423.141 469.81H574.971" stroke="#592D3D" stroke-width="20" stroke-miterlimit="10"/>
</g>
</svg>
