<svg width="1000" height="990" viewBox="0 0 1000 990" fill="none" xmlns="http://www.w3.org/2000/svg">
<mask id="mask0_22_3489" style="mask-type:luminance" maskUnits="userSpaceOnUse" x="0" y="0" width="1000" height="966">
<path d="M1000 0H0V718.31H179.2C217.58 860.69 346.65 965.41 500 965.41C653.35 965.41 782.42 860.69 820.8 718.31H1000V0Z" fill="white"/>
</mask>
<g mask="url(#mask0_22_3489)">
<path d="M500.001 962.602C683.603 962.602 832.443 813.763 832.443 630.16C832.443 446.557 683.603 297.718 500.001 297.718C316.398 297.718 167.559 446.557 167.559 630.16C167.559 813.763 316.398 962.602 500.001 962.602Z" fill="#85C5E5"/>
<path d="M610 758.72C700.76 758.72 682 872.96 682.87 1000H610V758.72Z" fill="#FDD2B2"/>
<path d="M632.74 831.87L610 870L621.38 1000H653.14C653.91 819.73 632.74 831.87 632.74 831.87Z" fill="#F3AB98"/>
<path d="M233.25 500C233.25 352.68 352.68 233.25 500 233.25C647.32 233.25 766.75 352.68 766.75 500C766.788 539.694 757.949 578.895 740.88 614.731C723.811 650.568 698.945 682.135 668.1 707.12C662.627 711.573 656.98 715.803 651.16 719.81C591 758 515 758 446.39 751.89C439.73 750.89 433.09 749.63 426.5 748.18C400.17 742.38 374.68 733.43 351.13 720.38C345.31 716.793 339.667 712.92 334.2 708.76C328.706 704.576 323.432 700.11 318.4 695.38C313.64 690.96 309.044 686.367 304.61 681.6C258.667 632.299 233.161 567.39 233.25 500Z" fill="#FDD2B2"/>
<path d="M269.612 634.48C270.312 635.68 271.002 636.88 271.722 638.06C272.152 638.78 272.602 639.48 273.052 640.2C273.712 641.27 274.372 642.34 275.052 643.39C275.532 644.15 276.052 644.89 276.512 645.63C277.172 646.63 277.832 647.63 278.512 648.63C279.022 649.39 279.512 650.15 280.072 650.91C280.732 651.91 281.392 652.83 282.072 653.79C282.612 654.56 283.172 655.32 283.722 656.09C284.272 656.86 285.062 657.94 285.722 658.86C286.382 659.78 286.872 660.39 287.452 661.15C288.032 661.91 288.822 662.95 289.522 663.85C290.222 664.75 290.712 665.36 291.312 666.11C291.912 666.86 292.722 667.87 293.432 668.74C294.142 669.61 294.662 670.23 295.282 670.97C295.902 671.71 296.722 672.69 297.452 673.54C298.182 674.39 298.722 675.01 299.362 675.74L301.582 678.24C302.232 678.97 302.892 679.68 303.582 680.4C304.442 681.34 305.312 682.27 306.182 683.19L307.392 684.47C308.682 685.81 309.982 687.15 311.302 688.47L311.562 688.74C312.852 690.02 314.162 691.29 315.472 692.55L317.052 694.05C318.002 694.94 318.952 695.83 319.912 696.71L321.072 697.77C322.072 698.71 323.162 699.63 324.212 700.55C327.478 703.397 330.812 706.127 334.212 708.74C339.672 712.9 345.315 716.773 351.142 720.36C374.692 733.36 400.142 742.36 426.512 748.16C433.102 749.61 439.742 750.86 446.402 751.87C488.502 755.62 533.402 757.05 575.682 748.79C508.452 729 185.592 612.74 388.802 257.48C386.082 258.73 383.402 260.02 380.742 261.36L380.152 261.65C378.932 262.26 377.712 262.89 376.502 263.53L375.502 264.06C371.742 266.06 368.022 268.13 364.372 270.29L363.472 270.82C362.312 271.51 361.162 272.21 360.012 272.92L359.142 273.46C355.568 275.693 352.052 278.003 348.592 280.39L347.512 281.14C346.422 281.9 345.352 282.66 344.282 283.43L343.622 283.9C341.442 285.493 339.288 287.107 337.162 288.74L336.542 289.22C335.542 290 334.542 290.8 333.542 291.61L332.372 292.55C331.372 293.36 330.372 294.17 329.372 295C327.262 296.75 325.182 298.55 323.132 300.37L321.992 301.37L319.302 303.82L318.002 305C315.148 307.667 312.358 310.39 309.632 313.17L308.252 314.58C307.462 315.4 306.672 316.22 305.892 317.05C305.432 317.54 304.972 318.05 304.522 318.53C303.148 319.997 301.795 321.483 300.462 322.99C300.012 323.5 299.552 323.99 299.102 324.53C298.392 325.34 297.692 326.16 296.992 326.98L295.482 328.77C294.802 329.58 294.122 330.39 293.482 331.21C292.942 331.87 292.402 332.54 291.872 333.21C290.802 334.54 289.752 335.87 288.712 337.21C288.172 337.91 287.632 338.61 287.102 339.32C286.572 340.03 285.902 340.91 285.312 341.72C284.722 342.53 284.242 343.17 283.722 343.9C283.202 344.63 282.592 345.45 282.042 346.23C281.095 347.563 280.162 348.913 279.242 350.28C278.742 351.01 278.242 351.76 277.752 352.5C277.262 353.24 276.652 354.16 276.112 355L274.622 357.31L272.942 360.02C272.512 360.71 272.082 361.4 271.662 362.09C270.772 363.55 269.912 365.02 269.052 366.49L267.832 368.65C267.292 369.6 266.752 370.56 266.222 371.52C265.822 372.25 265.422 372.98 265.032 373.71C264.392 374.9 263.762 376.1 263.132 377.3L261.932 379.64C261.292 380.92 260.652 382.19 260.022 383.48C259.692 384.17 259.352 384.87 259.022 385.57C258.502 386.66 258.022 387.76 257.492 388.86C257.182 389.52 256.882 390.18 256.582 390.86C255.842 392.507 255.118 394.173 254.412 395.86C254.192 396.38 253.982 396.91 253.762 397.43C253.232 398.7 252.712 399.97 252.202 401.25C251.932 401.92 251.672 402.59 251.412 403.25C250.912 404.51 250.412 405.78 249.962 407.05C249.752 407.6 249.542 408.15 249.342 408.7C248.715 410.453 248.098 412.207 247.492 413.96L246.932 415.66C246.492 416.993 246.062 418.327 245.642 419.66L245.042 421.57C244.572 423.11 244.112 424.65 243.672 426.2C243.572 426.53 243.472 426.86 243.382 427.2C242.862 429.04 242.362 430.887 241.882 432.74C241.722 433.33 241.582 433.93 241.432 434.52C241.082 435.91 240.742 437.3 240.432 438.7L240.012 440.45C239.582 442.35 239.162 444.25 238.772 446.16L238.622 446.93C238.282 448.63 237.948 450.33 237.622 452.03C237.512 452.64 237.412 453.24 237.302 453.85C237.042 455.34 236.792 456.85 236.562 458.35C236.482 458.86 236.392 459.35 236.322 459.87C236.022 461.82 235.752 463.78 235.492 465.75L235.342 467.05C235.142 468.64 234.962 470.24 234.792 471.84C234.732 472.44 234.662 473.04 234.602 473.65C234.442 475.33 234.292 477.02 234.152 478.71C234.152 479.06 234.092 479.4 234.072 479.71C233.925 481.71 233.795 483.727 233.682 485.76C233.682 486.29 233.682 486.83 233.612 487.36C233.545 488.933 233.485 490.503 233.432 492.07C233.432 492.66 233.432 493.25 233.432 493.84C233.432 495.89 233.352 497.95 233.352 500.01C233.352 500.01 233.352 500.08 233.352 500.11C233.352 502.33 233.352 504.53 233.432 506.73C233.432 507.49 233.492 508.25 233.512 509.01C233.562 510.48 233.612 511.95 233.682 513.42C233.682 514.31 233.792 515.19 233.842 516.08C233.922 517.41 233.992 518.74 234.092 520.08C234.162 521.08 234.252 521.97 234.332 522.91C234.442 524.17 234.542 525.43 234.672 526.68C234.762 527.68 234.882 528.62 234.982 529.59C235.122 530.8 235.252 532.02 235.402 533.23C235.522 534.23 235.662 535.23 235.792 536.18C235.952 537.36 236.112 538.55 236.292 539.73C236.442 540.73 236.602 541.73 236.762 542.73C236.942 543.89 237.132 545.06 237.332 546.22C237.512 547.22 237.692 548.22 237.882 549.22C238.092 550.37 238.312 551.52 238.532 552.66C238.752 553.8 238.942 554.66 239.152 555.66C239.392 556.8 239.632 557.93 239.892 559.06C240.152 560.19 240.332 561.06 240.572 561.99C240.832 563.12 241.112 564.24 241.392 565.35C241.672 566.46 241.882 567.3 242.132 568.26C242.432 569.38 242.732 570.49 243.042 571.6C243.302 572.6 243.572 573.52 243.852 574.47C244.172 575.58 244.502 576.68 244.852 577.78C245.202 578.88 245.432 579.67 245.732 580.62C246.032 581.57 246.432 582.81 246.792 583.9C247.152 584.99 247.412 585.77 247.732 586.7C248.112 587.79 248.492 588.88 248.882 589.97C249.212 590.88 249.532 591.8 249.882 592.71L251.122 595.98C251.472 596.87 251.812 597.77 252.122 598.66C252.562 599.75 253.012 600.85 253.462 601.94C253.822 602.8 254.172 603.67 254.542 604.53C255.012 605.65 255.542 606.75 255.992 607.86C256.362 608.68 256.722 609.51 257.092 610.33C257.612 611.49 258.162 612.63 258.692 613.77L259.772 616.07C260.382 617.33 261.012 618.57 261.642 619.82C261.962 620.45 262.262 621.09 262.592 621.72C264.512 625.46 266.512 629.15 268.592 632.79C268.882 633.26 269.252 633.87 269.612 634.48Z" fill="#F3AB98"/>
<path d="M233.25 500C233.25 352.68 352.68 233.25 500 233.25C647.32 233.25 766.75 352.68 766.75 500C766.788 539.694 757.949 578.895 740.88 614.731C723.811 650.568 698.945 682.135 668.1 707.12C662.627 711.573 656.98 715.803 651.16 719.81C591 758 515 758 446.39 751.89C439.73 750.89 433.09 749.63 426.5 748.18C400.17 742.38 374.68 733.43 351.13 720.38C345.31 716.793 339.667 712.92 334.2 708.76C328.706 704.576 323.432 700.11 318.4 695.38C313.64 690.96 309.044 686.367 304.61 681.6C258.667 632.299 233.161 567.39 233.25 500Z" stroke="#592D3D" stroke-width="12" stroke-miterlimit="10"/>
<path d="M386.122 758.72C295.352 758.72 314.122 872.96 313.252 1000H386.122V758.72Z" fill="#FDD2B2"/>
<path d="M367.232 831.87L390.002 870L378.612 1000H346.882C346.072 819.73 367.232 831.87 367.232 831.87Z" fill="#F3AB98"/>
<path d="M619.472 1070H380.532C377.011 1070 373.636 1068.6 371.148 1066.11C368.659 1063.62 367.262 1060.24 367.262 1056.72V772C367.262 768.48 368.659 765.103 371.148 762.613C373.636 760.123 377.011 758.723 380.532 758.72H613.762C626.852 758.72 632.762 766.38 632.762 778.6V1056.68C632.767 1058.43 632.427 1060.16 631.761 1061.78C631.096 1063.39 630.117 1064.86 628.883 1066.1C627.648 1067.34 626.181 1068.32 624.566 1068.99C622.951 1069.66 621.22 1070 619.472 1070Z" fill="#FDD2B2"/>
<path d="M629.052 766.62C628.055 765.394 627.212 764.051 626.542 762.62C624.141 760.738 621.284 759.527 618.262 759.11C616.773 758.879 615.268 758.766 613.762 758.77H380.532C377.02 758.773 373.652 760.166 371.165 762.645C368.679 765.125 367.275 768.488 367.262 772C396.262 782.42 450.552 788.24 500.002 788.24C563.062 788.24 604.382 778.89 629.052 766.62Z" fill="#F3AB98"/>
<path d="M610 758.72C700.76 758.72 682 872.96 682.87 1000H632.74" stroke="#592D3D" stroke-width="12" stroke-miterlimit="10" stroke-linecap="square"/>
<path d="M386.122 758.72C295.352 758.72 314.122 872.96 313.252 1000H363.322" stroke="#592D3D" stroke-width="12" stroke-miterlimit="10" stroke-linecap="square"/>
<path d="M380.531 758.82L613.761 758.72" stroke="#592D3D" stroke-width="12" stroke-miterlimit="10"/>
<path d="M380.532 1070H497.152C388.002 1070 396.242 838.82 367.262 838.82V1056.68C367.257 1058.43 367.596 1060.16 368.26 1061.77C368.925 1063.39 369.901 1064.86 371.134 1066.09C372.366 1067.33 373.831 1068.31 375.444 1068.98C377.056 1069.65 378.785 1070 380.532 1070Z" fill="#F3AB98"/>
<path d="M361.259 860.85C361.069 857.18 361.149 853.51 361.309 849.85C361.469 846.19 361.779 842.5 362.169 838.85C362.369 837.01 362.569 835.18 362.819 833.34C363.069 831.5 363.309 829.67 363.669 827.83C364.378 824.022 365.585 820.324 367.259 816.83C368.933 820.324 370.14 824.022 370.849 827.83C371.209 829.67 371.469 831.5 371.699 833.34C371.929 835.18 372.149 837.01 372.349 838.85C372.729 842.52 373.029 846.19 373.199 849.85C373.369 853.51 373.449 857.19 373.259 860.85H361.259Z" fill="#592D3D"/>
<path d="M632.742 870V878C633.002 912 633.002 947 632.742 980.75C632.742 983.62 632.742 986.47 632.742 989.28V1056.69C632.746 1058.44 632.405 1060.16 631.74 1061.78C631.075 1063.39 630.099 1064.86 628.866 1066.1C627.634 1067.33 626.17 1068.31 624.558 1068.98C622.946 1069.65 621.217 1070 619.472 1070H380.532C377.011 1070 373.636 1068.6 371.148 1066.11C368.659 1063.62 367.262 1060.24 367.262 1056.72V998.52C367.262 996.01 367.262 993.45 367.262 990.87C367.012 956 367.012 921 367.262 885.57V860.85" stroke="#592D3D" stroke-width="12" stroke-miterlimit="10"/>
<path d="M626.74 870C626.55 865.83 626.64 861.65 626.8 857.47C626.96 853.29 627.27 849.12 627.65 844.94C627.85 842.85 628.06 840.76 628.3 838.67C628.54 836.58 628.79 834.5 629.15 832.41C629.847 828.106 631.052 823.9 632.74 819.88C634.428 823.9 635.633 828.106 636.33 832.41C636.69 834.5 636.95 836.59 637.18 838.67C637.41 840.75 637.63 842.85 637.83 844.94C638.21 849.12 638.52 853.29 638.68 857.47C638.84 861.65 638.93 865.83 638.74 870H626.74Z" fill="#592D3D"/>
<path d="M502.069 878.86C502.067 889.337 499.69 899.678 495.117 909.104C490.543 918.53 483.892 926.797 475.663 933.282C467.435 939.768 457.843 944.303 447.609 946.548C437.375 948.793 426.765 948.688 416.578 946.242C406.39 943.796 396.89 939.072 388.79 932.426C380.691 925.779 374.204 917.383 369.818 907.869C365.431 898.354 363.258 887.969 363.462 877.494C363.667 867.018 366.244 856.726 370.999 847.39" stroke="#592D3D" stroke-width="12" stroke-miterlimit="10"/>
<path d="M371 847.39C374.787 839.991 379.867 833.33 386 827.72Z" fill="#FDD2B2"/>
<path d="M365.652 844.66C366.53 842.58 367.666 840.618 369.032 838.82C370.388 837.02 371.904 835.346 373.562 833.82C374.402 833.06 375.252 832.32 376.142 831.63C377.026 830.915 377.966 830.273 378.952 829.71C381.086 828.479 383.49 827.792 385.952 827.71C385.693 830.051 385.104 832.344 384.202 834.52C383.812 835.52 383.372 836.4 382.912 837.29L381.612 839.96C380.762 841.72 379.922 843.45 379.062 845.15C378.23 846.864 377.309 848.533 376.302 850.15L365.652 844.66Z" fill="#592D3D"/>
<path d="M489.332 838.82C497.63 850.507 502.083 864.487 502.072 878.82Z" fill="#FDD2B2"/>
<path d="M489.332 838.82C492.746 840.671 495.712 843.248 498.022 846.37C499.172 847.888 500.208 849.489 501.122 851.16C502.052 852.83 502.892 854.55 503.672 856.31C505.207 859.846 506.366 863.533 507.132 867.31C507.909 871.101 508.225 874.973 508.072 878.84H496.072C495.882 875.59 495.712 872.36 495.372 869.11C495.032 865.86 494.602 862.63 493.972 859.37L493.472 856.93L492.892 854.48C492.472 852.85 492.022 851.22 491.602 849.55C490.657 846.016 489.9 842.434 489.332 838.82Z" fill="#592D3D"/>
<path d="M641.651 878.86C641.662 869.372 639.719 859.983 635.945 851.278C632.17 842.572 626.644 834.737 619.711 828.26" fill="#FDD2B2"/>
<path d="M635.651 878.86C635.49 874.552 635.07 870.257 634.391 866C633.689 861.7 632.646 857.464 631.271 853.33C630.931 852.33 630.531 851.26 630.161 850.22C629.791 849.18 629.321 848.17 628.911 847.13C628.501 846.09 627.971 845.13 627.531 844.08L626.071 841.08C624.071 836.98 621.901 832.89 619.711 828.33C624.345 830.307 628.51 833.241 631.931 836.94C632.761 837.88 633.631 838.8 634.401 839.79C635.171 840.78 635.941 841.79 636.651 842.79C637.361 843.79 638.081 844.88 638.721 845.97C639.361 847.06 640.031 848.15 640.601 849.29C642.981 853.813 644.795 858.613 646.001 863.58C647.233 868.576 647.778 873.717 647.621 878.86H635.651Z" fill="#592D3D"/>
<path d="M503.001 878.86C502.891 888.031 504.602 897.133 508.036 905.638C511.469 914.143 516.557 921.882 523.003 928.407C529.45 934.931 537.127 940.111 545.59 943.647C554.053 947.182 563.134 949.003 572.306 949.003C581.478 949.003 590.559 947.182 599.022 943.647C607.485 940.111 615.163 934.931 621.609 928.407C628.056 921.882 633.143 914.143 636.577 905.638C640.01 897.133 641.721 888.031 641.611 878.86" stroke="#592D3D" stroke-width="12" stroke-miterlimit="10"/>
<path d="M515.769 838.82C507.475 850.508 503.025 864.488 503.039 878.82Z" fill="#FDD2B2"/>
<path d="M515.772 838.82C515.205 842.441 514.448 846.029 513.502 849.57C513.082 851.24 512.632 852.87 512.212 854.5L511.642 856.95L511.142 859.39C510.512 862.65 510.052 865.89 509.732 869.13C509.412 872.37 509.232 875.61 509.042 878.86H497.002C496.84 874.993 497.156 871.12 497.942 867.33C498.703 863.551 499.863 859.864 501.402 856.33C502.172 854.57 503.012 852.85 503.942 851.18C504.86 849.512 505.896 847.911 507.042 846.39C509.364 843.259 512.344 840.675 515.772 838.82Z" fill="#592D3D"/>
<path d="M470.5 897.78H524.4V917.48C506.66 911.43 488.69 911.58 470.5 917.48V897.78Z" fill="#633749" stroke="#592D3D" stroke-width="12" stroke-miterlimit="10"/>
<path d="M638.101 878.86C638.126 861.305 631.464 844.399 619.471 831.58C615.251 827.06 575.201 837.77 551.661 858.84C528.551 879.53 508.431 913.33 511.311 917.59C519.607 929.903 531.637 939.226 545.63 944.187C559.624 949.148 574.84 949.485 589.039 945.147C603.238 940.81 615.669 932.028 624.501 920.095C633.334 908.161 638.101 893.707 638.101 878.86Z" fill="#633749" stroke="#592D3D" stroke-width="12" stroke-miterlimit="10"/>
<path d="M598.112 848.39C591.992 852.06 585.962 855.57 580.112 859.39C574.338 863.08 568.816 867.149 563.582 871.57C558.432 876.03 553.472 880.89 548.582 885.83C543.692 890.77 538.892 895.83 533.832 900.9C536.9 894.462 540.648 888.371 545.012 882.73C549.369 877.001 554.298 871.731 559.722 867C565.241 862.329 571.338 858.386 577.862 855.27C584.289 852.118 591.095 849.805 598.112 848.39Z" fill="white"/>
<path d="M361.902 878.86C361.877 861.305 368.539 844.399 380.532 831.58C384.752 827.06 424.802 837.77 448.342 858.84C471.452 879.53 491.572 913.33 488.692 917.59C480.396 929.903 468.366 939.226 454.373 944.187C440.38 949.148 425.163 949.485 410.964 945.147C396.765 940.81 384.334 932.028 375.502 920.095C366.669 908.161 361.902 893.707 361.902 878.86Z" fill="#633749" stroke="#592D3D" stroke-width="12" stroke-miterlimit="10"/>
<path d="M455.751 938.92C433.112 938.92 411.4 929.927 395.392 913.919C379.384 897.911 370.391 876.199 370.391 853.56C370.391 850.651 370.537 847.744 370.831 844.85C363.312 858.198 360.428 873.662 362.629 888.823C364.831 903.984 371.993 917.989 382.997 928.648C394.002 939.307 408.227 946.02 423.451 947.738C438.675 949.455 454.038 946.08 467.141 938.14C463.366 938.653 459.561 938.914 455.751 938.92Z" fill="#5E3244"/>
<path d="M361.902 878.86C361.877 861.305 368.539 844.399 380.532 831.58C384.752 827.06 424.802 837.77 448.342 858.84C471.452 879.53 491.572 913.33 488.692 917.59C480.396 929.903 468.366 939.226 454.373 944.187C440.38 949.148 425.163 949.485 410.964 945.147C396.765 940.81 384.334 932.028 375.502 920.095C366.669 908.161 361.902 893.707 361.902 878.86Z" stroke="#592D3D" stroke-width="12" stroke-miterlimit="10"/>
<path d="M401.891 848.39C408.907 849.802 415.713 852.111 422.141 855.26C428.666 858.38 434.762 862.325 440.281 867C445.683 871.727 450.592 876.991 454.931 882.71C459.295 888.351 463.043 894.442 466.111 900.88C461.051 895.88 456.271 890.75 451.361 885.81C446.451 880.87 441.521 876.01 436.361 871.55C431.126 867.129 425.604 863.06 419.831 859.37C414.001 855.57 408.001 852.06 401.891 848.39Z" fill="white"/>
<path d="M568.442 849.8C547.262 856.69 526.442 867.28 505.592 869.47C478.842 872.29 451.492 856.1 423.292 848.39C421.142 845.81 404.942 833.95 389.822 834.45C377.942 834.85 374.732 838.75 371.422 842.64L367.262 1056.12C367.262 1059.64 368.66 1063.01 371.148 1065.5C373.637 1067.99 377.012 1069.39 380.532 1069.39H619.472C622.991 1069.39 626.366 1067.99 628.855 1065.5C631.344 1063.01 632.742 1059.64 632.742 1056.12L630.362 840.76C625.932 840.76 623.262 831.36 609.952 835.67C593.662 841 569.712 848.28 568.442 849.8Z" fill="#633749"/>
<path d="M632.739 831.31L609.949 869.4L621.339 999.43H632.939V893.78L632.739 831.31Z" fill="#5E3244"/>
<path d="M380.532 1069.39H497.152C387.952 1069.39 396.242 838.25 367.262 838.25V1056.12C367.262 1059.64 368.66 1063.01 371.148 1065.5C373.637 1067.99 377.012 1069.39 380.532 1069.39Z" fill="#5E3244"/>
<path d="M361.26 860.4C361.047 857.642 361.013 854.873 361.16 852.11C361.287 849.343 361.523 846.573 361.87 843.8C362.05 842.41 362.22 841.03 362.44 839.64C362.66 838.25 362.88 836.87 363.22 835.48C363.905 832.528 365.066 829.708 366.66 827.13C368.347 829.646 369.607 832.423 370.39 835.35C370.78 836.73 371.07 838.11 371.32 839.48C371.57 840.85 371.82 842.24 372.04 843.62C372.48 846.37 372.83 849.13 373.04 851.89C373.295 854.646 373.365 857.415 373.25 860.18L361.26 860.4Z" fill="#592D3D"/>
<path d="M632.742 869.4V877.4C633.002 911.4 633.002 946.4 632.742 980.16C632.742 983.03 632.742 985.88 632.742 988.69V1056.1C632.742 1059.62 631.344 1062.99 628.855 1065.48C626.366 1067.97 622.991 1069.37 619.472 1069.37H380.532C377.012 1069.37 373.637 1067.97 371.148 1065.48C368.66 1062.99 367.262 1059.62 367.262 1056.1V998C367.262 995.493 367.262 992.943 367.262 990.35C367.012 955.49 367.012 920.49 367.262 885.05V860.29" stroke="#592D3D" stroke-width="12" stroke-miterlimit="10"/>
<path d="M626.762 869.38C626.793 866.526 627.01 863.676 627.412 860.85C627.792 858.017 628.278 855.193 628.872 852.38C629.172 850.97 629.472 849.56 629.812 848.16C630.152 846.76 630.502 845.35 630.962 843.95C631.905 840.985 633.316 838.19 635.142 835.67C636.608 838.416 637.621 841.381 638.142 844.45C638.402 845.9 638.562 847.34 638.692 848.78C638.822 850.22 638.942 851.66 639.042 853.09C639.222 855.96 639.322 858.83 639.292 861.68C639.292 864.535 639.112 867.387 638.752 870.22L626.762 869.38Z" fill="#592D3D"/>
<path d="M557.91 889.36C562.32 888.58 566.67 887.97 571.01 887.36L584.01 885.43C588.32 884.78 592.62 884.07 596.92 883.33C601.22 882.59 605.53 881.75 609.99 881.13C606.08 883.32 601.947 885.083 597.66 886.39C593.41 887.721 589.064 888.724 584.66 889.39C580.249 890.074 575.794 890.445 571.33 890.5C566.83 890.581 562.333 890.199 557.91 889.36Z" fill="#592D3D"/>
<path opacity="0.1" d="M426.882 961.63C441.357 961.628 455.469 957.095 467.238 948.666C479.006 940.237 487.841 928.335 492.502 914.63C486.585 924.751 478.255 933.249 468.254 939.366C458.254 945.483 446.894 949.028 435.19 949.686C423.485 950.343 411.8 948.092 401.177 943.134C390.554 938.176 381.324 930.664 374.312 921.27L374.262 936C387.002 951.63 405.152 961.63 426.882 961.63Z" fill="black"/>
<path opacity="0.1" d="M573.12 961.63C558.644 961.628 544.532 957.095 532.764 948.666C520.995 940.237 512.161 928.335 507.5 914.63C513.416 924.751 521.747 933.249 531.747 939.366C541.748 945.483 553.108 949.028 564.812 949.686C576.517 950.343 588.202 948.092 598.825 943.134C609.448 938.176 618.677 930.664 625.69 921.27V935.99C613 951.63 594.85 961.63 573.12 961.63Z" fill="black"/>
<path d="M407.002 943.81C396.331 939.827 386.805 933.277 379.267 924.737C371.73 916.198 366.412 905.933 363.784 894.85C361.156 883.767 361.3 872.208 364.202 861.194C367.104 850.179 372.674 840.05 380.422 831.7" fill="#633749"/>
<path d="M406.999 943.81C395.176 941.88 384.258 936.283 375.789 927.81L374.169 926.21C373.639 925.67 373.169 925.08 372.639 924.52C372.109 923.96 371.639 923.37 371.159 922.79C370.652 922.219 370.174 921.621 369.729 921C368.829 919.77 367.919 918.54 367.049 917.28L364.679 913.35C361.688 907.965 359.431 902.204 357.969 896.22C356.61 890.22 356.042 884.068 356.279 877.92C356.551 871.812 357.696 865.774 359.679 859.99C359.939 859.28 360.169 858.56 360.439 857.85L361.319 855.75C361.869 854.35 362.579 853.01 363.229 851.66C364.619 849.003 366.203 846.453 367.969 844.03C368.819 842.82 369.789 841.68 370.719 840.54C371.649 839.4 372.659 838.31 373.719 837.31C375.786 835.244 378.039 833.373 380.449 831.72C374.659 841.72 370.549 851.91 368.789 862.39C367.874 867.541 367.479 872.77 367.609 878C367.802 883.187 368.471 888.346 369.609 893.41C370.842 898.446 372.556 903.352 374.729 908.06C376.951 912.816 379.659 917.33 382.809 921.53C385.996 925.871 389.618 929.876 393.619 933.48C397.82 937.247 402.292 940.7 406.999 943.81Z" fill="#592D3D"/>
<path d="M593.051 943.81C603.718 939.822 613.239 933.267 620.771 924.725C628.303 916.184 633.615 905.918 636.238 894.836C638.861 883.753 638.713 872.196 635.807 861.184C632.902 850.173 627.329 840.046 619.581 831.7" fill="#633749"/>
<path d="M593.051 943.81C597.746 940.711 602.209 937.272 606.401 933.52C610.402 929.915 614.024 925.911 617.211 921.57C620.361 917.37 623.069 912.856 625.291 908.1C627.463 903.392 629.178 898.486 630.411 893.45C631.549 888.385 632.218 883.227 632.411 878.04C632.555 872.791 632.17 867.541 631.261 862.37C629.501 851.89 625.391 841.73 619.601 831.7C622.011 833.353 624.264 835.224 626.331 837.29C627.411 838.29 628.331 839.43 629.331 840.52C630.331 841.61 631.231 842.8 632.081 844.01C633.847 846.433 635.431 848.983 636.821 851.64C637.471 852.99 638.181 854.33 638.731 855.73L639.611 857.83C639.881 858.54 640.111 859.26 640.371 859.97C642.354 865.754 643.499 871.792 643.771 877.9C644.008 884.048 643.44 890.2 642.081 896.2C640.619 902.184 638.362 907.945 635.371 913.33L633.001 917.26C632.131 918.52 631.221 919.75 630.321 920.98C629.876 921.601 629.398 922.199 628.891 922.77C628.401 923.35 627.891 923.93 627.411 924.5C626.931 925.07 626.411 925.65 625.881 926.19L624.261 927.79C615.795 936.27 604.877 941.875 593.051 943.81Z" fill="#592D3D"/>
<path d="M329.09 794.17C385.21 829.75 497.57 869.7 497.57 869.7L497.41 883.7C497.41 883.7 397 879.36 316.32 844.9C316.32 814.38 329.09 794.17 329.09 794.17Z" fill="#633749" stroke="#592D3D" stroke-width="12" stroke-miterlimit="10"/>
<path d="M648.659 870.5C648.659 870.5 666.359 868.65 679.559 861.5C679.449 857.25 678.959 853.39 678.959 853.39L648.109 864.07L648.659 870.5Z" fill="#F3AB98"/>
<path d="M671.55 794.43C619 831.8 503 869.7 503 869.7L503.17 883.7C503.17 883.7 603.58 879.4 684.25 844.94C684.29 822.67 671.55 794.43 671.55 794.43Z" fill="#633749" stroke="#592D3D" stroke-width="12" stroke-miterlimit="10"/>
<path d="M320.632 822.65C320.912 822.89 321.462 823.26 321.902 823.57C322.342 823.88 322.902 824.21 323.352 824.52C324.352 825.12 325.352 825.73 326.432 826.29C328.512 827.45 330.662 828.54 332.862 829.57C335.062 830.6 337.282 831.57 339.512 832.57C340.632 833.07 341.742 833.57 342.852 834.15C343.962 834.73 345.072 835.25 346.162 835.91C343.661 835.778 341.177 835.417 338.742 834.83C336.322 834.23 333.932 833.513 331.572 832.68C329.185 831.854 326.848 830.889 324.572 829.79C323.442 829.23 322.312 828.63 321.212 827.95C320.662 827.61 320.122 827.26 319.572 826.89C318.987 826.491 318.429 826.053 317.902 825.58L320.632 822.65Z" fill="#592D3D"/>
<path d="M271.401 576.82C270.401 548.46 289.401 524.46 314.681 513.26C317.336 512.173 320.062 511.271 322.841 510.56C336.851 507.08 351.594 508.016 365.051 513.24C368.126 514.419 371.117 515.809 374.001 517.4C403.531 533.28 416.791 570.65 405.361 600.86C404.203 603.906 402.805 606.855 401.181 609.68C397.193 617.988 391.17 625.153 383.671 630.51C381.169 632.351 378.547 634.021 375.821 635.51C348.441 648.51 311.441 644.51 289.371 624.11C287.163 621.765 285.122 619.269 283.261 616.64C281.139 613.637 279.275 610.459 277.691 607.14C274.338 600.351 272.402 592.951 272.001 585.39C271.639 582.547 271.439 579.686 271.401 576.82Z" fill="#F3AB98"/>
<path d="M269.772 558.47C268.772 530.11 287.772 506.11 313.052 494.91C315.703 493.823 318.427 492.921 321.202 492.21C335.215 488.728 349.962 489.664 363.422 494.89C366.487 496.07 369.468 497.46 372.342 499.05C401.872 514.94 415.132 552.3 403.702 582.51C402.552 585.559 401.154 588.509 399.522 591.33C398.14 594.039 396.566 596.645 394.812 599.13C393.084 601.592 391.186 603.931 389.132 606.13C386.912 608.327 384.532 610.356 382.012 612.2C379.512 614.043 376.889 615.714 374.162 617.2C346.782 630.2 309.782 626.2 287.722 605.8C285.509 603.46 283.467 600.963 281.612 598.33C279.487 595.327 277.62 592.149 276.032 588.83C272.656 582.02 270.713 574.591 270.322 567C269.968 564.17 269.785 561.322 269.772 558.47Z" fill="white" stroke="#592D3D" stroke-width="12" stroke-miterlimit="10"/>
<path d="M338.51 571.32C345.27 571.32 350.75 565.84 350.75 559.08C350.75 552.32 345.27 546.84 338.51 546.84C331.75 546.84 326.27 552.32 326.27 559.08C326.27 565.84 331.75 571.32 338.51 571.32Z" fill="#592D3D"/>
<path d="M715.032 559.08H603.402" stroke="#592D3D" stroke-width="16" stroke-miterlimit="10" stroke-linecap="round"/>
<path d="M627 574.16C631.323 573.389 635.687 572.868 640.07 572.6C644.43 572.3 648.79 572.17 653.15 572.16C657.51 572.15 661.86 572.3 666.22 572.59C670.607 572.861 674.974 573.386 679.3 574.16C674.975 574.942 670.607 575.47 666.22 575.74C661.86 576.027 657.503 576.167 653.15 576.16C648.797 576.153 644.437 576.01 640.07 575.73C635.686 575.463 631.322 574.939 627 574.16Z" fill="#592D3D"/>
<path fill-rule="evenodd" clip-rule="evenodd" d="M243.891 489.13C249.531 504.96 264.791 513.19 277.291 516.07C290.351 495.83 333.941 487.15 366.661 498.63C394.461 503.63 355.851 473.06 294.191 489.63C291.881 490.48 279.631 492.58 263.911 480.44C261.721 478.75 268.591 494.15 276.411 500.44C265.061 500.21 263.201 500.22 243.891 489.13Z" fill="#592D3D"/>
<path d="M443.141 621.86C443.141 602.96 556.861 605.8 556.861 621.86C556.861 636.94 550.87 651.403 540.207 662.066C529.543 672.73 515.081 678.72 500.001 678.72C484.92 678.72 470.458 672.73 459.795 662.066C449.131 651.403 443.141 636.94 443.141 621.86Z" fill="#592D3D"/>
<path d="M495.002 643C478.052 642 463.272 649.75 458.352 661.22C466.532 669.863 477.219 675.72 488.905 677.968C500.591 680.216 512.688 678.741 523.492 673.75C525.738 672.713 527.913 671.527 530.002 670.2C529.082 656.09 514.062 644.18 495.002 643Z" fill="#F28195"/>
<path d="M443.141 621.86C443.141 602.96 556.861 605.8 556.861 621.86C556.861 636.94 550.87 651.403 540.207 662.066C529.543 672.73 515.081 678.72 500.001 678.72C484.92 678.72 470.458 672.73 459.795 662.066C449.131 651.403 443.141 636.94 443.141 621.86Z" stroke="#592D3D" stroke-width="6" stroke-miterlimit="10"/>
<path d="M478.121 632.46C478.571 632.35 478.751 632.3 479.041 632.25L479.791 632.11C480.281 632.02 480.791 631.97 481.251 631.93C482.211 631.832 483.177 631.799 484.141 631.83C486.096 631.873 488.039 632.145 489.931 632.64C493.893 633.643 497.484 635.76 500.281 638.74C502.912 641.57 504.676 645.097 505.361 648.9C505.986 652.408 505.511 656.023 504.001 659.25C501.931 656.32 500.341 653.69 498.681 651.49C497.934 650.435 497.115 649.433 496.231 648.49C495.423 647.662 494.517 646.936 493.531 646.33C491.664 645.212 489.582 644.499 487.421 644.24C486.287 644.094 485.145 644.014 484.001 644C483.411 644 482.821 644 482.241 644.05L481.391 644.11H481.001C480.901 644.11 480.701 644.11 480.771 644.11L478.121 632.46Z" fill="#592D3D"/>
<path d="M500.001 233.25C364.301 233.25 252.271 334.58 235.441 465.7C265.17 437.721 289.021 404.095 305.601 366.79C369.465 380.73 434.634 387.82 500.001 387.94C565.377 387.975 630.562 380.883 694.401 366.79C710.982 404.095 734.833 437.721 764.561 465.7C747.731 334.58 635.701 233.25 500.001 233.25Z" fill="#D69AC7"/>
<path d="M305.6 366.79C316.226 369.09 326.916 371.207 337.67 373.14C348.28 337.74 364.9 299.26 388.8 257.48C387.47 258.1 386.14 258.72 384.8 259.35L384.63 259.43C383.32 260.06 382.01 260.7 380.71 261.36L380.12 261.65C378.9 262.26 377.68 262.89 376.47 263.53L375.47 264.06C371.71 266.06 367.99 268.13 364.34 270.29L363.54 270.76L363.4 270.85C362.246 271.517 361.106 272.207 359.98 272.92L359.11 273.46C355.536 275.693 352.02 278.003 348.56 280.39L347.48 281.14C346.48 281.85 345.48 282.56 344.48 283.28L343.77 283.8L343.62 283.9C341.44 285.493 339.286 287.107 337.16 288.74L336.54 289.22C335.54 290 334.54 290.8 333.54 291.61L332.37 292.55L329.96 294.55L329.18 295.2C327.13 296.91 325.12 298.65 323.12 300.42L321.98 301.42L319.29 303.87L318 305C315.146 307.667 312.356 310.39 309.63 313.17L308.63 314.17C308.41 314.39 308.2 314.61 307.99 314.84C307.29 315.56 306.6 316.28 305.91 317.01C305.45 317.5 304.99 318.01 304.54 318.49C303.166 319.957 301.813 321.443 300.48 322.95L300 323.5C299.69 323.85 299.37 324.2 299.06 324.56L297 327C296.89 327.14 296.78 327.27 296.66 327.4L295.46 328.83C294.85 329.55 294.25 330.28 293.65 331.01C293.26 331.48 292.87 332.01 292.48 332.45L291.82 333.27C290.76 334.603 289.716 335.937 288.69 337.27L288.62 337.36C288.09 338.04 287.57 338.72 287.05 339.41C286.65 339.93 286.26 340.46 285.88 340.98L284.88 342.31L283.66 343.99L282.66 345.34L281.25 347.34C280.68 348.15 280.12 348.96 279.56 349.78C279 350.6 278.45 351.42 277.91 352.24L277.66 352.6L276.14 354.91L274.4 357.63C273.88 358.46 273.4 359.29 272.85 360.12C272.28 361.04 271.71 361.96 271.15 362.89C270.59 363.82 270.15 364.57 269.67 365.41C269.19 366.25 268.75 366.97 268.31 367.75L267.74 368.75L266.61 370.75C266.19 371.52 265.76 372.28 265.35 373.05C265.21 373.3 265.07 373.55 264.94 373.8C264.52 374.58 264.1 375.37 263.69 376.16C263.28 376.95 263.01 377.45 262.69 378.1L261.85 379.73L260.92 381.61C260.53 382.39 260.14 383.16 259.76 383.95L258.94 385.66L258.64 386.31C258.2 387.23 257.77 388.16 257.34 389.09L256.62 390.68C256.21 391.59 255.81 392.51 255.41 393.43L254.41 395.77C253.96 396.84 253.53 397.91 253.09 398.98C252.77 399.75 252.46 400.51 252.15 401.28C252.04 401.54 251.94 401.81 251.84 402.08C251.49 402.96 251.15 403.85 250.84 404.74C250.53 405.63 250.23 406.31 249.94 407.1L249.78 407.53C249.4 408.53 249.04 409.53 248.68 410.59C248.32 411.65 248.04 412.38 247.68 413.28C247.31 414.36 246.95 415.43 246.6 416.51C246.3 417.42 246 418.33 245.71 419.24C245.36 420.33 245.03 421.41 244.71 422.5C244.43 423.42 244.16 424.34 243.89 425.27C243.57 426.36 243.25 427.46 242.95 428.56C242.69 429.48 242.44 430.41 242.2 431.34C241.9 432.45 241.61 433.56 241.33 434.68C241.09 435.6 240.87 436.54 240.65 437.47C240.38 438.59 240.11 439.72 239.85 440.84C239.64 441.77 239.44 442.71 239.24 443.64C239 444.78 238.75 445.93 238.51 447.08C238.33 447.99 238.16 448.9 237.99 449.82C237.82 450.74 237.6 451.82 237.42 452.82L237.24 453.82L236.91 455.82C236.73 456.91 236.54 458.01 236.37 459.11C236.37 459.32 236.3 459.53 236.27 459.74C235.97 461.74 235.69 463.74 235.43 465.74C265.166 437.75 289.021 404.111 305.6 366.79Z" fill="#C683B4"/>
<path d="M500.001 233.25C364.301 233.25 252.271 334.58 235.441 465.7C265.17 437.721 289.021 404.095 305.601 366.79C369.465 380.73 434.634 387.82 500.001 387.94C565.377 387.975 630.562 380.883 694.401 366.79C710.982 404.095 734.833 437.721 764.561 465.7C747.731 334.58 635.701 233.25 500.001 233.25Z" stroke="#592D3D" stroke-width="12" stroke-miterlimit="10"/>
<path d="M506.21 250.1C493.64 251.78 481.27 253.48 469.05 255.86C456.83 258.24 444.76 261.04 432.87 264.5C420.98 267.96 409.25 271.98 397.69 276.57C386.13 281.16 374.74 286.3 363.23 291.62C373.043 283.523 383.733 276.552 395.1 270.84C417.914 259.26 442.701 252.071 468.17 249.65C480.828 248.399 493.586 248.55 506.21 250.1Z" fill="white"/>
<path d="M600.889 460.57C611.932 457.755 623.118 455.535 634.399 453.92L631.739 454.27C644.919 452.53 658.279 452.02 671.489 453.79L668.829 453.43C672.099 453.89 675.369 454.43 678.649 454.85L675.989 454.49C685.943 455.854 695.793 457.896 705.469 460.6C710.469 461.99 716.569 458.87 717.769 453.6C718.423 451.042 718.058 448.331 716.753 446.037C715.447 443.742 713.302 442.044 710.769 441.3C699.422 438.192 687.86 435.926 676.179 434.52L678.839 434.88C667.807 432.922 656.584 432.268 645.399 432.93C634.275 433.66 623.217 435.181 612.309 437.48C606.689 438.61 601.109 439.91 595.549 441.28C590.469 442.53 586.929 448.54 588.549 453.58C589.293 456.113 590.991 458.258 593.286 459.564C595.58 460.869 598.291 461.234 600.849 460.58L600.889 460.57Z" fill="#592D3D"/>
<path d="M286.14 460.6C295.724 457.819 305.501 455.75 315.39 454.41L312.73 454.77C329.786 452.537 347.061 452.563 364.11 454.85L361.45 454.5C371.395 455.856 381.235 457.894 390.9 460.6C395.9 462 402 458.87 403.2 453.6C403.854 451.042 403.489 448.331 402.184 446.037C400.878 443.742 398.733 442.044 396.2 441.3C381.757 437.282 366.951 434.703 352 433.6C327.993 432.037 303.896 434.646 280.78 441.31C278.273 442.035 276.131 443.678 274.78 445.91C273.444 448.244 273.085 451.012 273.78 453.61C275.43 458.72 280.69 462.15 286.08 460.61L286.14 460.6Z" fill="#592D3D"/>
</g>
</svg>
