<svg width="1000" height="990" viewBox="0 0 1000 990" fill="none" xmlns="http://www.w3.org/2000/svg">
<mask id="mask0_22_3144" style="mask-type:luminance" maskUnits="userSpaceOnUse" x="0" y="0" width="1000" height="966">
<path d="M1000 0H0V718.31H179.2C217.58 860.69 346.65 965.41 500 965.41C653.35 965.41 782.42 860.69 820.8 718.31H1000V0Z" fill="white"/>
</mask>
<g mask="url(#mask0_22_3144)">
<path d="M500.001 962.602C683.603 962.602 832.443 813.763 832.443 630.16C832.443 446.557 683.603 297.718 500.001 297.718C316.398 297.718 167.559 446.557 167.559 630.16C167.559 813.763 316.398 962.602 500.001 962.602Z" fill="#85C5E5"/>
<path d="M225.35 498C408.77 575.95 596.49 577.06 781.29 498C798.82 490.5 798.72 358.13 781.29 364.19C600.82 427.02 409.96 427.69 225.35 364.19C203.39 356.6 205.53 489.53 225.35 498Z" fill="#592D3D" stroke="#592D3D" stroke-width="12" stroke-miterlimit="10"/>
<path d="M610 758.72C700.76 758.72 682 872.96 682.87 1000H610V758.72Z" fill="#D8985D"/>
<path d="M632.74 831.87L610 870L621.38 1000H653.14C653.91 819.73 632.74 831.87 632.74 831.87Z" fill="#C6854E"/>
<path d="M233.25 500C233.25 352.68 352.68 233.25 500 233.25C647.32 233.25 766.75 352.68 766.75 500C766.788 539.694 757.949 578.895 740.88 614.731C723.811 650.568 698.945 682.135 668.1 707.12C662.627 711.573 656.98 715.803 651.16 719.81C591 758 515 758 446.39 751.89C439.73 750.89 433.09 749.63 426.5 748.18C400.17 742.38 374.68 733.43 351.13 720.38C345.31 716.793 339.667 712.92 334.2 708.76C328.706 704.576 323.432 700.11 318.4 695.38C313.64 690.96 309.044 686.367 304.61 681.6C258.667 632.299 233.161 567.39 233.25 500Z" fill="#D8985D"/>
<path d="M269.612 634.48C270.312 635.68 271.002 636.88 271.722 638.06C272.152 638.78 272.602 639.48 273.052 640.2C273.712 641.27 274.372 642.34 275.052 643.39C275.532 644.15 276.052 644.89 276.512 645.63C277.172 646.63 277.832 647.63 278.512 648.63C279.022 649.39 279.512 650.15 280.072 650.91C280.732 651.91 281.392 652.83 282.072 653.79C282.612 654.56 283.172 655.32 283.722 656.09C284.272 656.86 285.062 657.94 285.722 658.86C286.382 659.78 286.872 660.39 287.452 661.15C288.032 661.91 288.822 662.95 289.522 663.85C290.222 664.75 290.712 665.36 291.312 666.11C291.912 666.86 292.722 667.87 293.432 668.74C294.142 669.61 294.662 670.23 295.282 670.97C295.902 671.71 296.722 672.69 297.452 673.54C298.182 674.39 298.722 675.01 299.362 675.74L301.582 678.24C302.232 678.97 302.892 679.68 303.582 680.4C304.442 681.34 305.312 682.27 306.182 683.19L307.392 684.47C308.682 685.81 309.982 687.15 311.302 688.47L311.562 688.74C312.852 690.02 314.162 691.29 315.472 692.55L317.052 694.05C318.002 694.94 318.952 695.83 319.912 696.71L321.072 697.77C322.072 698.71 323.162 699.63 324.212 700.55C327.478 703.397 330.812 706.127 334.212 708.74C339.672 712.9 345.315 716.773 351.142 720.36C374.692 733.36 400.142 742.36 426.512 748.16C433.102 749.61 439.742 750.86 446.402 751.87C488.502 755.62 533.402 757.05 575.682 748.79C508.452 729 185.592 612.74 388.802 257.48C386.082 258.73 383.402 260.02 380.742 261.36L380.152 261.65C378.932 262.26 377.712 262.89 376.502 263.53L375.502 264.06C371.742 266.06 368.022 268.13 364.372 270.29L363.472 270.82C362.312 271.51 361.162 272.21 360.012 272.92L359.142 273.46C355.568 275.693 352.052 278.003 348.592 280.39L347.512 281.14C346.422 281.9 345.352 282.66 344.282 283.43L343.622 283.9C341.442 285.493 339.288 287.107 337.162 288.74L336.542 289.22C335.542 290 334.542 290.8 333.542 291.61L332.372 292.55C331.372 293.36 330.372 294.17 329.372 295C327.262 296.75 325.182 298.55 323.132 300.37L321.992 301.37L319.302 303.82L318.002 305C315.148 307.667 312.358 310.39 309.632 313.17L308.252 314.58C307.462 315.4 306.672 316.22 305.892 317.05C305.432 317.54 304.972 318.05 304.522 318.53C303.148 319.997 301.795 321.483 300.462 322.99C300.012 323.5 299.552 323.99 299.102 324.53C298.392 325.34 297.692 326.16 296.992 326.98L295.482 328.77C294.802 329.58 294.122 330.39 293.482 331.21C292.942 331.87 292.402 332.54 291.872 333.21C290.802 334.54 289.752 335.87 288.712 337.21C288.172 337.91 287.632 338.61 287.102 339.32C286.572 340.03 285.902 340.91 285.312 341.72C284.722 342.53 284.242 343.17 283.722 343.9C283.202 344.63 282.592 345.45 282.042 346.23C281.095 347.563 280.162 348.913 279.242 350.28C278.742 351.01 278.242 351.76 277.752 352.5C277.262 353.24 276.652 354.16 276.112 355L274.622 357.31L272.942 360.02C272.512 360.71 272.082 361.4 271.662 362.09C270.772 363.55 269.912 365.02 269.052 366.49L267.832 368.65C267.292 369.6 266.752 370.56 266.222 371.52C265.822 372.25 265.422 372.98 265.032 373.71C264.392 374.9 263.762 376.1 263.132 377.3L261.932 379.64C261.292 380.92 260.652 382.19 260.022 383.48C259.692 384.17 259.352 384.87 259.022 385.57C258.502 386.66 258.022 387.76 257.492 388.86C257.182 389.52 256.882 390.18 256.582 390.86C255.842 392.507 255.118 394.173 254.412 395.86C254.192 396.38 253.982 396.91 253.762 397.43C253.232 398.7 252.712 399.97 252.202 401.25C251.932 401.92 251.672 402.59 251.412 403.25C250.912 404.51 250.412 405.78 249.962 407.05C249.752 407.6 249.542 408.15 249.342 408.7C248.715 410.453 248.098 412.207 247.492 413.96L246.932 415.66C246.492 416.993 246.062 418.327 245.642 419.66L245.042 421.57C244.572 423.11 244.112 424.65 243.672 426.2C243.572 426.53 243.472 426.86 243.382 427.2C242.862 429.04 242.362 430.887 241.882 432.74C241.722 433.33 241.582 433.93 241.432 434.52C241.082 435.91 240.742 437.3 240.432 438.7L240.012 440.45C239.582 442.35 239.162 444.25 238.772 446.16L238.622 446.93C238.282 448.63 237.948 450.33 237.622 452.03C237.512 452.64 237.412 453.24 237.302 453.85C237.042 455.34 236.792 456.85 236.562 458.35C236.482 458.86 236.392 459.35 236.322 459.87C236.022 461.82 235.752 463.78 235.492 465.75L235.342 467.05C235.142 468.64 234.962 470.24 234.792 471.84C234.732 472.44 234.662 473.04 234.602 473.65C234.442 475.33 234.292 477.02 234.152 478.71C234.152 479.06 234.092 479.4 234.072 479.71C233.925 481.71 233.795 483.727 233.682 485.76C233.682 486.29 233.682 486.83 233.612 487.36C233.545 488.933 233.485 490.503 233.432 492.07C233.432 492.66 233.432 493.25 233.432 493.84C233.432 495.89 233.352 497.95 233.352 500.01C233.352 500.01 233.352 500.08 233.352 500.11C233.352 502.33 233.352 504.53 233.432 506.73C233.432 507.49 233.492 508.25 233.512 509.01C233.562 510.48 233.612 511.95 233.682 513.42C233.682 514.31 233.792 515.19 233.842 516.08C233.922 517.41 233.992 518.74 234.092 520.08C234.162 521.08 234.252 521.97 234.332 522.91C234.442 524.17 234.542 525.43 234.672 526.68C234.762 527.68 234.882 528.62 234.982 529.59C235.122 530.8 235.252 532.02 235.402 533.23C235.522 534.23 235.662 535.23 235.792 536.18C235.952 537.36 236.112 538.55 236.292 539.73C236.442 540.73 236.602 541.73 236.762 542.73C236.942 543.89 237.132 545.06 237.332 546.22C237.512 547.22 237.692 548.22 237.882 549.22C238.092 550.37 238.312 551.52 238.532 552.66C238.752 553.8 238.942 554.66 239.152 555.66C239.392 556.8 239.632 557.93 239.892 559.06C240.152 560.19 240.332 561.06 240.572 561.99C240.832 563.12 241.112 564.24 241.392 565.35C241.672 566.46 241.882 567.3 242.132 568.26C242.432 569.38 242.732 570.49 243.042 571.6C243.302 572.6 243.572 573.52 243.852 574.47C244.172 575.58 244.502 576.68 244.852 577.78C245.202 578.88 245.432 579.67 245.732 580.62C246.032 581.57 246.432 582.81 246.792 583.9C247.152 584.99 247.412 585.77 247.732 586.7C248.112 587.79 248.492 588.88 248.882 589.97C249.212 590.88 249.532 591.8 249.882 592.71L251.122 595.98C251.472 596.87 251.812 597.77 252.122 598.66C252.562 599.75 253.012 600.85 253.462 601.94C253.822 602.8 254.172 603.67 254.542 604.53C255.012 605.65 255.542 606.75 255.992 607.86C256.362 608.68 256.722 609.51 257.092 610.33C257.612 611.49 258.162 612.63 258.692 613.77L259.772 616.07C260.382 617.33 261.012 618.57 261.642 619.82C261.962 620.45 262.262 621.09 262.592 621.72C264.512 625.46 266.512 629.15 268.592 632.79C268.882 633.26 269.252 633.87 269.612 634.48Z" fill="#C6854E"/>
<path d="M233.25 500C233.25 352.68 352.68 233.25 500 233.25C647.32 233.25 766.75 352.68 766.75 500C766.788 539.694 757.949 578.895 740.88 614.731C723.811 650.568 698.945 682.135 668.1 707.12C662.627 711.573 656.98 715.803 651.16 719.81C591 758 515 758 446.39 751.89C439.73 750.89 433.09 749.63 426.5 748.18C400.17 742.38 374.68 733.43 351.13 720.38C345.31 716.793 339.667 712.92 334.2 708.76C328.706 704.576 323.432 700.11 318.4 695.38C313.64 690.96 309.044 686.367 304.61 681.6C258.667 632.299 233.161 567.39 233.25 500Z" stroke="#592D3D" stroke-width="12" stroke-miterlimit="10"/>
<path d="M386.122 758.72C295.352 758.72 314.122 872.96 313.252 1000H386.122V758.72Z" fill="#D8985D"/>
<path d="M367.232 831.87L390.002 870L378.612 1000H346.882C346.072 819.73 367.232 831.87 367.232 831.87Z" fill="#C6854E"/>
<path d="M619.472 1070H380.532C377.011 1070 373.636 1068.6 371.148 1066.11C368.659 1063.62 367.262 1060.24 367.262 1056.72V772C367.262 768.48 368.659 765.103 371.148 762.613C373.636 760.123 377.011 758.723 380.532 758.72H613.762C626.852 758.72 632.762 766.38 632.762 778.6V1056.68C632.767 1058.43 632.427 1060.16 631.761 1061.78C631.096 1063.39 630.117 1064.86 628.883 1066.1C627.648 1067.34 626.181 1068.32 624.566 1068.99C622.951 1069.66 621.22 1070 619.472 1070Z" fill="#D8985D"/>
<path d="M629.052 766.62C628.055 765.394 627.212 764.051 626.542 762.62C624.141 760.738 621.284 759.527 618.262 759.11C616.773 758.879 615.268 758.766 613.762 758.77H380.532C377.02 758.773 373.652 760.166 371.165 762.645C368.679 765.125 367.275 768.488 367.262 772C396.262 782.42 450.552 788.24 500.002 788.24C563.062 788.24 604.382 778.89 629.052 766.62Z" fill="#C6854E"/>
<path d="M610 758.72C700.76 758.72 682 872.96 682.87 1000H632.74" stroke="#592D3D" stroke-width="12" stroke-miterlimit="10" stroke-linecap="square"/>
<path d="M386.122 758.72C295.352 758.72 314.122 872.96 313.252 1000H363.322" stroke="#592D3D" stroke-width="12" stroke-miterlimit="10" stroke-linecap="square"/>
<path d="M380.531 758.82L613.761 758.72" stroke="#592D3D" stroke-width="12" stroke-miterlimit="10"/>
<path d="M380.532 1070H497.152C388.002 1070 396.242 838.82 367.262 838.82V1056.68C367.257 1058.43 367.596 1060.16 368.26 1061.77C368.925 1063.39 369.901 1064.86 371.134 1066.09C372.366 1067.33 373.831 1068.31 375.444 1068.98C377.056 1069.65 378.785 1070 380.532 1070Z" fill="#C6854E"/>
<path d="M361.259 860.85C361.069 857.18 361.149 853.51 361.309 849.85C361.469 846.19 361.779 842.5 362.169 838.85C362.369 837.01 362.569 835.18 362.819 833.34C363.069 831.5 363.309 829.67 363.669 827.83C364.378 824.022 365.585 820.324 367.259 816.83C368.933 820.324 370.14 824.022 370.849 827.83C371.209 829.67 371.469 831.5 371.699 833.34C371.929 835.18 372.149 837.01 372.349 838.85C372.729 842.52 373.029 846.19 373.199 849.85C373.369 853.51 373.449 857.19 373.259 860.85H361.259Z" fill="#592D3D"/>
<path d="M632.742 870V878C633.002 912 633.002 947 632.742 980.75C632.742 983.62 632.742 986.47 632.742 989.28V1056.69C632.746 1058.44 632.405 1060.16 631.74 1061.78C631.075 1063.39 630.099 1064.86 628.866 1066.1C627.634 1067.33 626.17 1068.31 624.558 1068.98C622.946 1069.65 621.217 1070 619.472 1070H380.532C377.011 1070 373.636 1068.6 371.148 1066.11C368.659 1063.62 367.262 1060.24 367.262 1056.72V998.52C367.262 996.01 367.262 993.45 367.262 990.87C367.012 956 367.012 921 367.262 885.57V860.85" stroke="#592D3D" stroke-width="12" stroke-miterlimit="10"/>
<path d="M626.74 870C626.55 865.83 626.64 861.65 626.8 857.47C626.96 853.29 627.27 849.12 627.65 844.94C627.85 842.85 628.06 840.76 628.3 838.67C628.54 836.58 628.79 834.5 629.15 832.41C629.847 828.106 631.052 823.9 632.74 819.88C634.428 823.9 635.633 828.106 636.33 832.41C636.69 834.5 636.95 836.59 637.18 838.67C637.41 840.75 637.63 842.85 637.83 844.94C638.21 849.12 638.52 853.29 638.68 857.47C638.84 861.65 638.93 865.83 638.74 870H626.74Z" fill="#592D3D"/>
<path d="M502.069 878.86C502.067 889.337 499.69 899.678 495.117 909.104C490.543 918.53 483.892 926.797 475.663 933.282C467.435 939.768 457.843 944.303 447.609 946.548C437.375 948.793 426.765 948.688 416.578 946.242C406.39 943.796 396.89 939.072 388.79 932.426C380.691 925.779 374.204 917.383 369.818 907.869C365.431 898.354 363.258 887.969 363.462 877.494C363.667 867.018 366.244 856.726 370.999 847.39" stroke="#592D3D" stroke-width="12" stroke-miterlimit="10"/>
<path d="M371 847.39C374.787 839.991 379.867 833.33 386 827.72Z" fill="#D8985D"/>
<path d="M365.652 844.66C366.53 842.58 367.666 840.618 369.032 838.82C370.388 837.02 371.904 835.346 373.562 833.82C374.402 833.06 375.252 832.32 376.142 831.63C377.026 830.915 377.966 830.273 378.952 829.71C381.086 828.479 383.49 827.792 385.952 827.71C385.693 830.051 385.104 832.344 384.202 834.52C383.812 835.52 383.372 836.4 382.912 837.29L381.612 839.96C380.762 841.72 379.922 843.45 379.062 845.15C378.23 846.864 377.309 848.533 376.302 850.15L365.652 844.66Z" fill="#592D3D"/>
<path d="M489.332 838.82C497.63 850.507 502.083 864.487 502.072 878.82Z" fill="#D8985D"/>
<path d="M489.332 838.82C492.746 840.671 495.712 843.248 498.022 846.37C499.172 847.888 500.208 849.489 501.122 851.16C502.052 852.83 502.892 854.55 503.672 856.31C505.207 859.846 506.366 863.533 507.132 867.31C507.909 871.101 508.225 874.973 508.072 878.84H496.072C495.882 875.59 495.712 872.36 495.372 869.11C495.032 865.86 494.602 862.63 493.972 859.37L493.472 856.93L492.892 854.48C492.472 852.85 492.022 851.22 491.602 849.55C490.657 846.016 489.9 842.434 489.332 838.82Z" fill="#592D3D"/>
<path d="M641.651 878.86C641.662 869.372 639.719 859.983 635.945 851.278C632.17 842.572 626.644 834.737 619.711 828.26" fill="#D8985D"/>
<path d="M635.651 878.86C635.49 874.552 635.07 870.257 634.391 866C633.689 861.7 632.646 857.464 631.271 853.33C630.931 852.33 630.531 851.26 630.161 850.22C629.791 849.18 629.321 848.17 628.911 847.13C628.501 846.09 627.971 845.13 627.531 844.08L626.071 841.08C624.071 836.98 621.901 832.89 619.711 828.33C624.345 830.307 628.51 833.241 631.931 836.94C632.761 837.88 633.631 838.8 634.401 839.79C635.171 840.78 635.941 841.79 636.651 842.79C637.361 843.79 638.081 844.88 638.721 845.97C639.361 847.06 640.031 848.15 640.601 849.29C642.981 853.813 644.795 858.613 646.001 863.58C647.233 868.576 647.778 873.717 647.621 878.86H635.651Z" fill="#592D3D"/>
<path d="M503.001 878.86C502.891 888.031 504.602 897.133 508.036 905.638C511.469 914.143 516.557 921.882 523.003 928.407C529.45 934.931 537.127 940.111 545.59 943.647C554.053 947.182 563.134 949.003 572.306 949.003C581.478 949.003 590.559 947.182 599.022 943.647C607.485 940.111 615.163 934.931 621.609 928.407C628.056 921.882 633.143 914.143 636.577 905.638C640.01 897.133 641.721 888.031 641.611 878.86" stroke="#592D3D" stroke-width="12" stroke-miterlimit="10"/>
<path d="M515.769 838.82C507.475 850.508 503.025 864.488 503.039 878.82Z" fill="#D8985D"/>
<path d="M515.772 838.82C515.205 842.441 514.448 846.029 513.502 849.57C513.082 851.24 512.632 852.87 512.212 854.5L511.642 856.95L511.142 859.39C510.512 862.65 510.052 865.89 509.732 869.13C509.412 872.37 509.232 875.61 509.042 878.86H497.002C496.84 874.993 497.156 871.12 497.942 867.33C498.703 863.551 499.863 859.864 501.402 856.33C502.172 854.57 503.012 852.85 503.942 851.18C504.86 849.512 505.896 847.911 507.042 846.39C509.364 843.259 512.344 840.675 515.772 838.82Z" fill="#592D3D"/>
<path d="M383.441 837.55V758.72" stroke="#592D3D" stroke-width="12" stroke-miterlimit="10"/>
<path d="M616.461 837.55V758.72" stroke="#592D3D" stroke-width="12" stroke-miterlimit="10"/>
<path d="M470.5 897.78H524.4V917.48C506.66 911.43 488.69 911.58 470.5 917.48V897.78Z" fill="white" stroke="#592D3D" stroke-width="12" stroke-miterlimit="10"/>
<path d="M638.101 878.86C638.126 861.305 631.464 844.399 619.471 831.58C615.251 827.06 575.201 837.77 551.661 858.84C528.551 879.53 508.431 913.33 511.311 917.59C519.607 929.903 531.637 939.226 545.63 944.187C559.624 949.148 574.84 949.485 589.039 945.148C603.238 940.81 615.669 932.028 624.501 920.095C633.334 908.161 638.101 893.707 638.101 878.86Z" fill="white" stroke="#592D3D" stroke-width="12" stroke-miterlimit="10"/>
<path d="M598.112 848.39C591.992 852.06 585.962 855.57 580.112 859.39C574.338 863.08 568.816 867.149 563.582 871.57C558.432 876.03 553.472 880.89 548.582 885.83C543.692 890.77 538.892 895.83 533.832 900.9C536.9 894.462 540.648 888.371 545.012 882.73C549.369 877.001 554.298 871.731 559.722 867C565.241 862.329 571.338 858.386 577.862 855.27C584.289 852.118 591.095 849.805 598.112 848.39Z" fill="white"/>
<path d="M361.902 878.86C361.877 861.305 368.539 844.399 380.532 831.58C384.752 827.06 424.802 837.77 448.342 858.84C471.452 879.53 491.572 913.33 488.692 917.59C480.396 929.903 468.366 939.226 454.373 944.187C440.38 949.148 425.163 949.485 410.964 945.148C396.765 940.81 384.334 932.028 375.502 920.095C366.669 908.161 361.902 893.707 361.902 878.86Z" fill="white" stroke="#592D3D" stroke-width="12" stroke-miterlimit="10"/>
<path d="M455.751 938.92C433.112 938.92 411.4 929.927 395.392 913.919C379.384 897.911 370.391 876.199 370.391 853.56C370.391 850.651 370.537 847.744 370.831 844.85C363.312 858.198 360.428 873.662 362.629 888.823C364.831 903.984 371.993 917.989 382.997 928.648C394.002 939.307 408.227 946.02 423.451 947.738C438.675 949.455 454.038 946.08 467.141 938.14C463.366 938.653 459.561 938.914 455.751 938.92Z" fill="#E2E2E2"/>
<path d="M361.902 878.86C361.877 861.305 368.539 844.399 380.532 831.58C384.752 827.06 424.802 837.77 448.342 858.84C471.452 879.53 491.572 913.33 488.692 917.59C480.396 929.903 468.366 939.226 454.373 944.187C440.38 949.148 425.163 949.485 410.964 945.148C396.765 940.81 384.334 932.028 375.502 920.095C366.669 908.161 361.902 893.707 361.902 878.86Z" stroke="#592D3D" stroke-width="12" stroke-miterlimit="10"/>
<path d="M401.891 848.39C408.907 849.802 415.713 852.111 422.141 855.26C428.666 858.38 434.762 862.325 440.281 867C445.683 871.727 450.592 876.991 454.931 882.71C459.295 888.351 463.043 894.442 466.111 900.88C461.051 895.88 456.271 890.75 451.361 885.81C446.451 880.87 441.521 876.01 436.361 871.55C431.126 867.129 425.604 863.06 419.831 859.37C414.001 855.57 408.001 852.06 401.891 848.39Z" fill="white"/>
<path d="M547.85 847.98L505.72 813.61L580.35 758.82H419.65L494.28 813.61L452.15 847.98L414.52 791.48V869.96H588.78V786.52L547.85 847.98Z" fill="#C6854E"/>
<path d="M616.662 758.16L573.932 758.26C573.711 762.777 573.234 767.277 572.502 771.74C572.032 773.882 571.451 775.998 570.762 778.08C568.422 784.57 553.502 790.08 549.272 794.81C547.871 796.383 546.368 797.863 544.772 799.24C519.602 817.44 479.602 818.44 455.292 798.66C452.671 796.371 450.288 793.821 448.182 791.05C443.952 785.49 431.782 779.46 430.082 772.11C429.6 769.935 429.24 767.735 429.002 765.52C428.761 763.261 428.641 760.992 428.642 758.72L383.432 758.16C379.912 758.16 376.536 759.558 374.046 762.046C371.555 764.534 370.155 767.91 370.152 771.43V1056.12C370.155 1059.64 371.555 1063.02 374.046 1065.5C376.536 1067.99 379.912 1069.39 383.432 1069.39H622.362C625.882 1069.39 629.257 1067.99 631.746 1065.5C634.234 1063.01 635.632 1059.64 635.632 1056.12V778C635.632 765.82 629.752 758.16 616.662 758.16Z" fill="white"/>
<path d="M612.84 758.16C676.38 758.16 701.36 801.55 691.74 1030.16C673 1036.86 635.83 1034.75 635.83 1034.75L612.84 758.16Z" fill="white"/>
<path d="M451.062 855.4L499.513 831.31L548.093 855.4L511.033 812.38L467.143 813.21L451.062 855.4Z" fill="#E2E2E2"/>
<path d="M635.632 831.31C635.632 831.31 612.842 915.85 616.322 1065.31L649.532 1034.31L653.112 896.73C647.492 824.5 635.632 831.31 635.632 831.31Z" fill="#E2E2E2"/>
<path d="M389.002 758.16C327.222 758.16 300.122 814.61 308.252 1003.64C330.672 1013.55 364.442 1009.22 364.442 1009.22L389.002 758.16Z" fill="white"/>
<path d="M306.941 957.49C307.115 971.13 307.518 985.623 308.151 1000.97C323.421 1001.7 351.841 1001.85 365.261 1000.97L369.441 958.16C358.671 956.9 323.661 956.49 306.941 957.49Z" fill="#E2E2E2"/>
<path d="M370.12 831.31L369.62 1009L356.27 1009.9C353.3 860.85 370.12 831.31 370.12 831.31Z" fill="#E2E2E2"/>
<path d="M612.84 758.16C680.26 758.16 691.29 814.44 691.74 891.94V1030.16C691.74 1030.16 641.74 1035.69 635.83 1034.75L635.73 892.64" stroke="#592D3D" stroke-width="12" stroke-miterlimit="10" stroke-linecap="square"/>
<path d="M388.999 758.16C363.269 758.16 345.479 766.28 333.289 780.6C313.839 803.47 308.659 842.14 308.289 888.87V1012.64C320.349 1015.96 369.649 1009 369.649 1009L370.139 890.4" stroke="#592D3D" stroke-width="12" stroke-miterlimit="10" stroke-linecap="square"/>
<path d="M372.602 1011.24C370.772 1013.85 298.832 1013.16 297.932 1011.24C297.032 1009.32 295.742 973.74 297.932 970.24C299.732 967.36 370.042 967.97 372.602 970.24C375.162 972.51 374.432 1008.63 372.602 1011.24Z" fill="white" stroke="#592D3D" stroke-width="12" stroke-miterlimit="10" stroke-linecap="square"/>
<path d="M383.429 1069.39H499.999C390.809 1069.39 399.089 838.25 370.109 838.25V1056.12C370.111 1057.87 370.456 1059.6 371.127 1061.21C371.797 1062.82 372.779 1064.29 374.017 1065.52C375.254 1066.75 376.722 1067.73 378.337 1068.39C379.953 1069.06 381.683 1069.4 383.429 1069.39Z" fill="#E2E2E2"/>
<path d="M364.149 860.29C363.959 856.62 364.039 852.94 364.209 849.29C364.379 845.64 364.679 841.95 365.059 838.29C365.259 836.46 365.469 834.62 365.709 832.78C365.949 830.94 366.199 829.11 366.559 827.28C367.267 823.471 368.474 819.773 370.149 816.28C371.824 819.773 373.031 823.471 373.739 827.28C374.099 829.11 374.359 830.95 374.589 832.78C374.819 834.61 375.039 836.46 375.239 838.29C375.626 841.97 375.912 845.637 376.099 849.29C376.259 852.96 376.339 856.64 376.099 860.29H364.149Z" fill="#592D3D"/>
<path d="M635.632 869.4V877.4C635.892 911.4 635.892 946.4 635.632 980.16C635.632 983.03 635.632 985.88 635.632 988.69V1056.1C635.632 1059.62 634.234 1062.99 631.745 1065.48C629.257 1067.97 625.881 1069.37 622.362 1069.37H383.432C379.912 1069.37 376.535 1067.97 374.045 1065.48C371.555 1063 370.155 1059.62 370.152 1056.1V990.3C369.892 955.44 369.892 920.44 370.152 885V860.29" stroke="#592D3D" stroke-width="12" stroke-miterlimit="10"/>
<path d="M697.422 970.24C699.642 972.5 699.012 1008.63 697.422 1011.24C695.832 1013.85 633.422 1013.16 632.652 1011.24C631.882 1009.32 630.752 973.74 632.652 970.24C632.922 969.74 634.932 969.35 638.102 969.06" fill="white"/>
<path d="M697.422 970.24C699.642 972.5 699.012 1008.63 697.422 1011.24C695.832 1013.85 633.422 1013.16 632.652 1011.24C631.882 1009.32 630.752 973.74 632.652 970.24C632.922 969.74 634.932 969.35 638.102 969.06" stroke="#592D3D" stroke-width="12" stroke-miterlimit="10" stroke-linecap="square"/>
<path d="M678.922 968.3C679.504 967.543 680.132 966.821 680.802 966.14C681.347 965.595 681.943 965.102 682.582 964.67C683.157 964.288 683.762 963.954 684.392 963.67C685.002 963.38 685.612 963.13 686.222 962.88C687.451 962.383 688.718 961.988 690.012 961.7C690.671 961.554 691.339 961.451 692.012 961.39C692.372 961.39 692.742 961.39 693.182 961.39C693.432 961.39 693.642 961.39 694.002 961.39C694.122 961.39 694.442 961.39 694.712 961.46H695.062L695.552 961.57L695.802 961.63L696.002 961.69L696.572 961.9C697.319 962.226 697.998 962.691 698.572 963.27L702.772 967.56L694.122 976.04L690.002 971.67C690.542 972.236 691.192 972.685 691.912 972.99C692.092 973.07 692.272 973.13 692.452 973.19H692.622L692.812 973.24C692.936 973.281 693.063 973.311 693.192 973.33H693.382C693.482 973.33 693.642 973.33 693.602 973.33C693.562 973.33 693.532 973.33 693.452 973.33H692.702C692.132 973.33 691.512 973.33 690.882 973.33C689.564 973.252 688.253 973.075 686.962 972.8C686.292 972.65 685.622 972.5 684.962 972.31C684.276 972.127 683.607 971.886 682.962 971.59C682.217 971.237 681.518 970.794 680.882 970.27C680.121 969.73 679.458 969.064 678.922 968.3Z" fill="#592D3D"/>
<path d="M592.51 763.64L517.84 818.45L559.98 852.83L619.4 763.59L592.51 763.64Z" fill="#E2E2E2"/>
<path d="M629.63 869.4C629.44 865.22 629.53 861.04 629.69 856.87C629.85 852.7 630.16 848.51 630.55 844.34C630.75 842.25 630.95 840.16 631.19 838.07C631.43 835.98 631.68 833.89 632.05 831.8C632.741 827.496 633.943 823.29 635.63 819.27C637.325 823.288 638.531 827.494 639.22 831.8C639.58 833.89 639.85 835.98 640.07 838.07C640.29 840.16 640.52 842.25 640.72 844.34C641.11 848.51 641.41 852.69 641.57 856.87C641.73 861.05 641.83 865.22 641.63 869.4H629.63Z" fill="#592D3D"/>
<path d="M383.43 758.26L616.66 758.16" stroke="#592D3D" stroke-width="12" stroke-miterlimit="10"/>
<path d="M529.389 835.55L507.039 813.21L484.699 835.55L495.679 846.53L485.959 953.16L506.699 969.33L528.119 953.16L518.409 846.53L529.389 835.55Z" fill="#E2E2E2"/>
<path d="M500.039 813.21V1069.39" stroke="#592D3D" stroke-width="6" stroke-miterlimit="10" stroke-linecap="square"/>
<path d="M500.039 813.21L522.389 828.55L500.039 850.9L477.699 828.55L500.039 813.21Z" fill="white"/>
<path d="M419.619 758.8C419.619 758.8 462.889 798.14 494.279 813.61C478.999 838.82 452.149 848 452.149 848L392.719 758.77L419.619 758.8Z" fill="white" stroke="#592D3D" stroke-width="12" stroke-miterlimit="10"/>
<path d="M580.379 758.8C580.379 758.8 540.999 800 505.719 813.61C515.719 833.89 547.849 847.98 547.849 847.98L607.279 758.75L580.379 758.8Z" fill="white" stroke="#592D3D" stroke-width="12" stroke-miterlimit="10"/>
<path d="M478.961 946.16L499.701 962.33L521.121 946.16L511.121 836.38H488.961L478.961 946.16Z" fill="white"/>
<path d="M477.699 828.55L488.679 839.53L478.959 946.16L499.699 962.33L521.119 946.16L511.409 839.53L522.389 828.55" stroke="#592D3D" stroke-width="8" stroke-miterlimit="10"/>
<path d="M637.54 963.08C640.468 962.667 643.425 962.51 646.38 962.61C649.28 962.68 652.16 962.91 655.04 963.26C656.47 963.44 657.91 963.63 659.34 963.87C660.784 964.081 662.215 964.365 663.63 964.72C666.65 965.455 669.524 966.696 672.13 968.39C669.486 969.986 666.613 971.167 663.61 971.89C662.2 972.25 660.79 972.52 659.38 972.75C657.97 972.98 656.57 973.22 655.17 973.44C652.37 973.86 649.58 974.22 646.82 974.44C644.06 974.66 641.3 974.94 638.66 974.98L632.66 975.08L631.66 963.95L637.54 963.08Z" fill="#592D3D"/>
<path d="M490.89 836.19L490.96 836.24C491.021 836.273 491.078 836.313 491.13 836.36L491.51 836.65C491.76 836.86 492.03 837.07 492.29 837.3C492.82 837.75 493.38 838.23 493.99 838.69C494.6 839.15 495.26 839.59 495.99 840.11C496.943 840.827 497.848 841.605 498.7 842.44C497.987 843.604 496.874 844.468 495.57 844.87C494.367 845.205 493.109 845.296 491.87 845.14C490.612 845.018 489.384 844.679 488.24 844.14C487.658 843.862 487.105 843.527 486.59 843.14C486.322 842.945 486.065 842.734 485.82 842.51C485.7 842.4 485.57 842.28 485.45 842.15L485.25 841.94L485 841.65L490.89 836.19Z" fill="#592D3D"/>
<path opacity="0.1" d="M426.882 961.63C441.357 961.628 455.469 957.095 467.238 948.666C479.006 940.237 487.841 928.335 492.502 914.63C486.585 924.751 478.255 933.249 468.254 939.366C458.254 945.483 446.894 949.028 435.19 949.686C423.485 950.343 411.8 948.092 401.177 943.134C390.554 938.176 381.324 930.664 374.312 921.27L374.262 936C387.002 951.63 405.152 961.63 426.882 961.63Z" fill="black"/>
<path opacity="0.1" d="M573.12 961.63C558.644 961.628 544.532 957.095 532.764 948.666C520.995 940.237 512.161 928.335 507.5 914.63C513.416 924.751 521.747 933.249 531.747 939.366C541.748 945.483 553.108 949.028 564.812 949.686C576.517 950.343 588.202 948.092 598.825 943.134C609.448 938.176 618.677 930.664 625.69 921.27V935.99C613 951.63 594.85 961.63 573.12 961.63Z" fill="black"/>
<path d="M407.002 943.81C396.331 939.827 386.805 933.277 379.267 924.738C371.73 916.198 366.412 905.933 363.784 894.851C361.156 883.768 361.3 872.208 364.202 861.194C367.104 850.179 372.674 840.05 380.422 831.7" fill="white"/>
<path d="M406.999 943.81C395.176 941.88 384.258 936.283 375.789 927.81L374.169 926.21C373.639 925.67 373.169 925.08 372.639 924.52C372.109 923.96 371.639 923.37 371.159 922.79C370.652 922.219 370.174 921.621 369.729 921C368.829 919.77 367.919 918.54 367.049 917.28L364.679 913.35C361.688 907.965 359.431 902.204 357.969 896.22C356.61 890.22 356.042 884.068 356.279 877.92C356.551 871.812 357.696 865.774 359.679 859.99C359.939 859.28 360.169 858.56 360.439 857.85L361.319 855.75C361.869 854.35 362.579 853.01 363.229 851.66C364.619 849.003 366.203 846.453 367.969 844.03C368.819 842.82 369.789 841.68 370.719 840.54C371.649 839.4 372.659 838.31 373.719 837.31C375.786 835.244 378.039 833.373 380.449 831.72C374.659 841.72 370.549 851.91 368.789 862.39C367.874 867.541 367.479 872.77 367.609 878C367.802 883.187 368.471 888.346 369.609 893.41C370.842 898.446 372.556 903.352 374.729 908.06C376.951 912.816 379.659 917.33 382.809 921.53C385.996 925.871 389.618 929.876 393.619 933.48C397.82 937.247 402.292 940.7 406.999 943.81Z" fill="#592D3D"/>
<path d="M593.051 943.81C603.718 939.822 613.239 933.267 620.771 924.726C628.303 916.184 633.615 905.918 636.238 894.836C638.861 883.754 638.713 872.196 635.807 861.184C632.902 850.173 627.329 840.046 619.581 831.7" fill="white"/>
<path d="M593.051 943.81C597.746 940.711 602.209 937.272 606.401 933.52C610.402 929.916 614.024 925.911 617.211 921.57C620.361 917.37 623.069 912.856 625.291 908.1C627.463 903.392 629.178 898.486 630.411 893.45C631.549 888.386 632.218 883.227 632.411 878.04C632.555 872.791 632.17 867.541 631.261 862.37C629.501 851.89 625.391 841.73 619.601 831.7C622.011 833.353 624.264 835.224 626.331 837.29C627.411 838.29 628.331 839.43 629.331 840.52C630.331 841.61 631.231 842.8 632.081 844.01C633.847 846.433 635.431 848.983 636.821 851.64C637.471 852.99 638.181 854.33 638.731 855.73L639.611 857.83C639.881 858.54 640.111 859.26 640.371 859.97C642.354 865.754 643.499 871.792 643.771 877.9C644.008 884.048 643.44 890.2 642.081 896.2C640.619 902.184 638.362 907.945 635.371 913.33L633.001 917.26C632.131 918.52 631.221 919.75 630.321 920.98C629.876 921.601 629.398 922.199 628.891 922.77C628.401 923.35 627.891 923.93 627.411 924.5C626.931 925.07 626.411 925.65 625.881 926.19L624.261 927.79C615.795 936.271 604.877 941.875 593.051 943.81Z" fill="#592D3D"/>
<path d="M271.401 568.53C270.401 540.17 289.401 516.17 314.681 504.97C317.336 503.884 320.062 502.981 322.841 502.27C336.856 498.806 351.599 499.759 365.051 505C368.12 506.18 371.103 507.57 373.981 509.16C403.511 525.05 416.771 562.41 405.341 592.62C404.183 595.666 402.785 598.615 401.161 601.44C397.173 609.748 391.15 616.913 383.651 622.27C381.149 624.111 378.527 625.781 375.801 627.27C348.421 640.27 311.421 636.27 289.351 615.87C287.141 613.527 285.099 611.031 283.241 608.4C281.118 605.397 279.255 602.219 277.671 598.9C274.318 592.095 272.389 584.677 272.001 577.1C271.639 574.257 271.439 571.396 271.401 568.53Z" fill="#C6854E"/>
<path d="M269.772 550.18C268.772 521.82 287.772 497.82 313.052 486.62C315.703 485.534 318.427 484.631 321.202 483.92C335.215 480.438 349.962 481.374 363.422 486.6C366.487 487.78 369.468 489.17 372.342 490.76C401.872 506.65 415.132 544.02 403.702 574.22C402.552 577.269 401.154 580.219 399.522 583.04C398.14 585.749 396.566 588.356 394.812 590.84C393.084 593.303 391.186 595.641 389.132 597.84C386.912 600.037 384.532 602.066 382.012 603.91C379.512 605.753 376.889 607.424 374.162 608.91C346.782 621.91 309.782 617.91 287.722 597.52C285.511 595.174 283.47 592.674 281.612 590.04C279.487 587.037 277.62 583.859 276.032 580.54C272.67 573.761 270.727 566.367 270.322 558.81C269.964 555.947 269.781 553.065 269.772 550.18Z" fill="white" stroke="#592D3D" stroke-width="12" stroke-miterlimit="10"/>
<path d="M338.51 563.03C345.27 563.03 350.75 557.55 350.75 550.79C350.75 544.03 345.27 538.55 338.51 538.55C331.75 538.55 326.27 544.03 326.27 550.79C326.27 557.55 331.75 563.03 338.51 563.03Z" fill="#592D3D"/>
<path d="M583.89 560.47C584.32 545.34 590.56 530.38 598.99 519.14C601.143 516.12 603.523 513.268 606.11 510.61C617.61 498.622 633.013 491.133 649.543 489.492C666.074 487.852 682.648 492.166 696.28 501.66C698.552 503.245 700.732 504.958 702.81 506.79C729.81 528.24 732.93 569.93 718.13 600.02C716.692 602.411 715.096 604.703 713.35 606.88C711.037 609.781 708.503 612.499 705.77 615.01C685.5 632.84 653.96 637.14 628.36 627.43C624.713 626.054 621.185 624.382 617.81 622.43C599.91 611.65 587.44 591.34 584.38 570.2C583.966 566.974 583.802 563.721 583.89 560.47Z" fill="#C6854E"/>
<path d="M589.382 549C589.802 534.85 595.802 520.85 603.902 510.34C605.986 507.506 608.279 504.832 610.762 502.34C622.013 491.101 636.821 484.123 652.651 482.602C668.481 481.08 684.347 485.11 697.532 494C699.714 495.477 701.811 497.076 703.812 498.79C729.812 518.86 732.812 557.86 718.552 586.01C717.17 588.255 715.633 590.4 713.952 592.43C711.72 595.146 709.282 597.686 706.662 600.03C687.152 616.71 656.802 620.74 632.172 611.65C628.658 610.346 625.257 608.758 622.002 606.9C604.782 596.82 592.782 577.82 589.832 558.05C589.439 555.05 589.289 552.024 589.382 549Z" fill="white" stroke="#592D3D" stroke-width="12" stroke-miterlimit="10"/>
<path d="M659.209 563.03C665.969 563.03 671.449 557.55 671.449 550.79C671.449 544.03 665.969 538.55 659.209 538.55C652.449 538.55 646.969 544.03 646.969 550.79C646.969 557.55 652.449 563.03 659.209 563.03Z" fill="#592D3D"/>
<path fill-rule="evenodd" clip-rule="evenodd" d="M243.891 484.13C249.531 499.96 264.791 508.19 277.291 511.07C290.351 490.83 333.941 482.15 366.661 493.63C394.461 498.63 355.851 468.06 294.191 484.63C291.881 485.48 279.631 487.58 263.911 475.44C261.721 473.75 268.591 489.15 276.411 495.44C265.061 495.21 263.201 495.22 243.891 484.13Z" fill="#592D3D"/>
<path fill-rule="evenodd" clip-rule="evenodd" d="M721.209 495.43C729.029 489.18 735.899 473.78 733.709 475.43C717.989 487.57 705.709 485.43 703.429 484.62C641.769 468.02 603.149 498.62 630.949 493.62C663.679 482.14 707.269 490.82 720.329 511.06C732.829 508.18 748.089 499.95 753.729 484.12C734.419 495.22 732.559 495.21 721.209 495.43Z" fill="#592D3D"/>
<path d="M443.141 621.86C443.141 602.96 556.861 605.8 556.861 621.86C556.861 636.94 550.87 651.403 540.207 662.066C529.543 672.73 515.081 678.72 500.001 678.72C484.92 678.72 470.458 672.73 459.795 662.066C449.131 651.403 443.141 636.94 443.141 621.86Z" fill="#592D3D"/>
<path d="M495.002 643C478.052 642 463.272 649.75 458.352 661.22C466.532 669.863 477.219 675.72 488.905 677.968C500.591 680.216 512.688 678.741 523.492 673.75C525.738 672.713 527.913 671.527 530.002 670.2C529.082 656.09 514.062 644.18 495.002 643Z" fill="#F28195"/>
<path d="M443.141 621.86C443.141 602.96 556.861 605.8 556.861 621.86C556.861 636.94 550.87 651.403 540.207 662.066C529.543 672.73 515.081 678.72 500.001 678.72C484.92 678.72 470.458 672.73 459.795 662.066C449.131 651.403 443.141 636.94 443.141 621.86Z" stroke="#592D3D" stroke-width="6" stroke-miterlimit="10"/>
<path d="M478.121 632.46C478.571 632.35 478.751 632.3 479.041 632.25L479.791 632.11C480.281 632.02 480.791 631.97 481.251 631.93C482.211 631.832 483.177 631.799 484.141 631.83C486.096 631.873 488.039 632.145 489.931 632.64C493.893 633.643 497.484 635.76 500.281 638.74C502.912 641.57 504.676 645.097 505.361 648.9C505.986 652.408 505.511 656.023 504.001 659.25C501.931 656.32 500.341 653.69 498.681 651.49C497.934 650.435 497.115 649.433 496.231 648.49C495.423 647.662 494.517 646.936 493.531 646.33C491.664 645.212 489.582 644.499 487.421 644.24C486.287 644.094 485.145 644.014 484.001 644C483.411 644 482.821 644 482.241 644.05L481.391 644.11H481.001C480.901 644.11 480.701 644.11 480.771 644.11L478.121 632.46Z" fill="#592D3D"/>
<path d="M558.729 399.34C545.869 423.34 498.729 436.78 494.899 430.76C490.609 424.03 532.749 375.44 508.799 324.62" fill="#C6854E"/>
<path d="M784.002 342.85C778.902 337.75 752.942 344.68 726.812 342.62C701.208 307.848 667.936 279.445 629.577 259.615C591.218 239.786 548.805 229.063 505.632 228.28C503.192 207.8 504.882 190.6 503.022 188.18C500.532 184.96 487.532 200.86 484.152 219.18C472.242 204.18 452.012 196.18 451.432 200.38C451.052 203.06 458.872 214.47 466.242 230.28C354.642 243.75 263.162 322.54 231.162 427.28C217.302 439.2 204.302 447.62 204.162 452.97C203.892 462.89 243.472 462.33 260.742 460.79V460.73C321.392 458.73 439.742 446.95 497.162 387.84C491.642 406.93 481.472 421 483.432 424C486.432 428.67 521.752 418.81 533.502 400.76C581.502 420.35 672.992 443.92 752.502 384.6L752.282 384.17C766.772 372.06 790.352 349.25 784.002 342.85Z" fill="#A56941"/>
<path d="M726.852 348.62C721.452 348.86 716.192 348.73 710.852 348.48C705.512 348.23 700.262 347.81 694.982 347.22C692.342 346.93 689.702 346.62 687.072 346.22C684.442 345.82 681.802 345.5 679.182 344.99C673.843 344.03 668.62 342.509 663.602 340.45C668.847 339.107 674.201 338.23 679.602 337.83C682.232 337.61 684.862 337.46 687.492 337.35L695.372 337.01C700.622 336.79 705.862 336.67 711.092 336.56C716.322 336.45 721.572 336.44 726.712 336.56L726.852 348.62Z" fill="#592D3D"/>
<path d="M236.599 430C236.599 430 236.599 430.24 236.599 430.39L236.479 430.92L236.199 432.03C235.989 432.78 235.769 433.55 235.539 434.32C235.069 435.87 234.539 437.46 233.999 439.07C233.459 440.68 232.939 442.35 232.229 444.07C231.832 444.969 231.371 445.837 230.849 446.67C230.25 447.658 229.557 448.586 228.779 449.44C227.093 447.964 225.812 446.081 225.059 443.97C224.716 443.029 224.462 442.058 224.299 441.07C224.089 440.07 223.989 439.07 223.869 438.12C223.669 436.125 223.669 434.115 223.869 432.12C223.967 431.111 224.127 430.109 224.349 429.12C224.469 428.62 224.599 428.12 224.759 427.61C224.836 427.349 224.926 427.092 225.029 426.84C225.129 426.56 225.209 426.36 225.389 425.94L236.599 430Z" fill="#592D3D"/>
<path d="M260.742 460.82V460.76C277.742 460.2 299.372 458.86 322.882 455.92C325.512 400 344.882 334.34 388.802 257.48L382.002 254.23C346.132 270.896 314.167 294.917 288.181 324.734C262.195 354.552 242.768 389.499 231.162 427.31C217.302 439.23 204.302 447.65 204.162 453C203.892 462.92 243.472 462.36 260.742 460.82Z" fill="#8D5638"/>
<path d="M784.002 342.85C778.902 337.75 752.942 344.68 726.812 342.62C701.208 307.848 667.936 279.445 629.577 259.615C591.218 239.786 548.805 229.063 505.632 228.28C503.192 207.8 504.882 190.6 503.022 188.18C500.532 184.96 487.532 200.86 484.152 219.18C472.242 204.18 452.012 196.18 451.432 200.38C451.052 203.06 458.872 214.47 466.242 230.28C354.642 243.75 263.162 322.54 231.162 427.28C217.302 439.2 204.302 447.62 204.162 452.97C203.892 462.89 243.472 462.33 260.742 460.79V460.73C321.392 458.73 439.742 446.95 497.162 387.84C491.642 406.93 481.472 421 483.432 424C486.432 428.67 521.752 418.81 533.502 400.76C581.502 420.35 672.992 443.92 752.502 384.6L752.282 384.17C766.772 372.06 790.352 349.25 784.002 342.85Z" stroke="#592D3D" stroke-width="12" stroke-miterlimit="10"/>
<path d="M505.93 244.31C491.686 245.131 477.502 246.78 463.45 249.25C459.97 249.92 456.5 250.66 453.01 251.3C449.52 251.94 446.11 252.91 442.66 253.71L432.4 256.43C429 257.43 425.63 258.51 422.25 259.55C408.767 263.898 395.594 269.154 382.82 275.28C369.985 281.511 357.545 288.524 345.57 296.28C356.236 286.552 368.011 278.114 380.65 271.14C393.3 264.077 406.618 258.285 420.41 253.85C423.89 252.85 427.35 251.76 430.83 250.8C434.31 249.84 437.83 248.98 441.38 248.2C444.93 247.42 448.48 246.8 452.04 246.2C455.6 245.6 459.19 245.13 462.77 244.68C477.096 242.918 491.576 242.794 505.93 244.31Z" fill="white"/>
<path d="M407.291 474.84H286.651C281.091 474.84 275.531 474.76 269.971 474.84H269.731C264.501 474.84 259.491 479.44 259.731 484.84C259.775 487.479 260.842 489.997 262.708 491.863C264.574 493.729 267.092 494.796 269.731 494.84H390.371C395.921 494.84 401.491 494.92 407.051 494.84H407.291C412.521 494.84 417.531 490.24 417.291 484.84C417.245 482.202 416.176 479.686 414.311 477.82C412.445 475.955 409.929 474.886 407.291 474.84Z" fill="#592D3D"/>
<path d="M726.322 474.84H605.682C600.122 474.84 594.562 474.76 589.002 474.84H588.762C583.532 474.84 578.522 479.44 578.762 484.84C578.806 487.479 579.874 489.997 581.739 491.863C583.605 493.729 586.124 494.796 588.762 494.84H709.402C714.962 494.84 720.522 494.92 726.082 494.84H726.322C731.552 494.84 736.562 490.24 736.322 484.84C736.276 482.202 735.208 479.686 733.342 477.82C731.477 475.955 728.96 474.886 726.322 474.84Z" fill="#592D3D"/>
<path d="M491.441 204.62C517.663 204.62 538.921 183.363 538.921 157.14C538.921 130.918 517.663 109.66 491.441 109.66C465.218 109.66 443.961 130.918 443.961 157.14C443.961 183.363 465.218 204.62 491.441 204.62Z" fill="#89D86F"/>
<path d="M491.441 204.62C498.512 204.623 505.494 203.047 511.877 200.006C518.261 196.965 523.884 192.536 528.337 187.044C532.79 181.551 535.959 175.133 537.614 168.259C539.269 161.384 539.367 154.227 537.901 147.31C507.121 142.54 475.201 145.31 444.131 153.31C444.031 154.57 443.961 155.84 443.961 157.13C443.96 163.366 445.187 169.541 447.572 175.303C449.958 181.065 453.455 186.3 457.864 190.71C462.273 195.12 467.508 198.618 473.269 201.005C479.03 203.392 485.205 204.62 491.441 204.62Z" fill="#7DC462"/>
<path d="M491.441 204.62C517.663 204.62 538.921 183.363 538.921 157.14C538.921 130.918 517.663 109.66 491.441 109.66C465.218 109.66 443.961 130.918 443.961 157.14C443.961 183.363 465.218 204.62 491.441 204.62Z" stroke="#592D3D" stroke-width="12" stroke-miterlimit="10"/>
<path d="M240.258 423.13C240.246 403.777 242.44 384.486 246.798 365.63C247.658 361.93 248.595 358.263 249.608 354.63C252.508 322.33 269.608 295.69 292.468 271.9C297.228 268.09 298.178 259.53 302.938 254.77C319.118 240.5 333.388 226.22 351.468 214.77C425.688 167.19 523.698 141.5 602.678 185.27C618.848 193.83 636.928 198.59 650.248 210.01C675.948 231.89 694.018 257.59 719.718 278.52C742.548 297.52 746.358 328 754.458 354.59C755.478 358.217 756.415 361.883 757.268 365.59C761.626 384.446 763.82 403.737 763.808 423.09L240.258 423.13Z" fill="#89D86F"/>
<path d="M246.798 365.63C242.44 384.486 240.246 403.777 240.258 423.13H323.258C321.698 342.47 300.998 275.11 405.998 193C330.678 221.59 262.048 284.38 246.798 365.63Z" fill="#7DC462"/>
<path d="M258.178 321.12C253.562 331.765 250.67 343.076 249.608 354.63C248.595 358.257 247.658 361.923 246.798 365.63C242.44 384.486 240.246 403.777 240.258 423.13H440.308C482.774 419.845 525.431 419.845 567.898 423.13H763.808C763.82 403.777 761.626 384.486 757.268 365.63C756.408 361.93 755.471 358.263 754.458 354.63C750.998 343.26 748.308 331.19 744.598 319.63C582.708 259.73 418.998 261 258.178 321.12Z" fill="#7DC462"/>
<path d="M240.258 423.13C240.246 403.777 242.44 384.486 246.798 365.63C247.658 361.93 248.595 358.263 249.608 354.63C252.508 322.33 269.608 295.69 292.468 271.9C297.228 268.09 298.178 259.53 302.938 254.77C319.118 240.5 333.388 226.22 351.468 214.77C425.688 167.19 523.698 141.5 602.678 185.27C618.848 193.83 636.928 198.59 650.248 210.01C675.948 231.89 694.018 257.59 719.718 278.52C742.548 297.52 746.358 328 754.458 354.59C755.478 358.217 756.415 361.883 757.268 365.59C761.626 384.446 763.82 403.737 763.808 423.09L240.258 423.13Z" stroke="#592D3D" stroke-width="12" stroke-miterlimit="10"/>
<path d="M225.35 356.43C408.77 278.43 596.49 277.37 781.29 356.43C798.82 363.93 798.72 496.3 781.29 490.24C600.82 427.41 409.96 426.74 225.35 490.24C203.39 497.79 205.53 364.86 225.35 356.43Z" fill="#89D86F"/>
<path d="M751.328 443.71C752.156 446.947 752.609 450.269 752.678 453.61C752.768 456.88 752.568 460.13 752.418 463.39L752.058 468.26C751.898 469.88 751.738 471.5 751.538 473.11C751.138 476.34 750.648 479.55 749.948 482.72L742.078 481.31C742.518 478.14 743.078 475 743.718 471.86L744.718 467.15L745.718 462.45C746.458 459.32 747.088 456.18 747.938 453.05C748.778 449.839 749.913 446.712 751.328 443.71Z" fill="#592D3D"/>
<path d="M749.911 342.47C751.47 348.732 752.682 355.075 753.541 361.47C753.971 364.66 754.321 367.86 754.631 371.06C754.941 374.26 755.121 377.48 755.291 380.69C755.551 387.11 755.661 393.53 755.351 399.94C755.073 406.368 754.254 412.76 752.901 419.05C751.901 412.66 751.231 406.35 750.581 400.05C749.931 393.75 749.371 387.5 748.531 381.27C748.141 378.15 747.701 375.05 747.231 371.95C746.761 368.85 746.231 365.76 745.711 362.68C744.641 356.51 743.411 350.39 742.121 344.27L749.911 342.47Z" fill="#592D3D"/>
<path d="M668.781 322C676.341 364.87 675.491 411.49 668.781 460.73" stroke="#592D3D" stroke-width="8" stroke-miterlimit="10"/>
<path d="M598.191 307.61C603.341 350.51 602.761 397.16 598.191 446.44" stroke="#592D3D" stroke-width="8" stroke-miterlimit="10"/>
<path d="M533.849 356.47C535.054 363.309 535.845 370.215 536.219 377.15C536.619 384.05 536.739 390.95 536.869 397.86V408.22C536.869 411.67 536.869 415.12 536.749 418.57C536.599 425.47 536.349 432.37 535.879 439.26L527.879 438.86C528.099 431.99 528.449 425.13 528.819 418.27L530.029 397.7C530.489 390.84 530.849 383.97 531.379 377.1C531.909 370.23 532.689 363.36 533.849 356.47Z" fill="#592D3D"/>
<path d="M535.93 299.88C536.138 301.99 536.232 304.11 536.21 306.23C536.21 307.29 536.16 308.35 536.13 309.41L536 312.6C535.83 314.72 535.68 316.85 535.32 318.98C534.954 321.209 534.252 323.37 533.24 325.39C532.042 323.463 531.133 321.37 530.54 319.18C529.97 317.1 529.61 315.02 529.23 312.93L528.74 309.81C528.61 308.76 528.46 307.72 528.35 306.68C528.113 304.592 527.996 302.492 528 300.39L535.93 299.88Z" fill="#592D3D"/>
<path d="M467.758 299.65C468.108 342.65 468.068 389.32 467.758 438.65" stroke="#592D3D" stroke-width="8" stroke-miterlimit="10"/>
<path d="M403.378 306.18C401.318 349.18 401.548 395.91 403.378 445.29" stroke="#592D3D" stroke-width="8" stroke-miterlimit="10"/>
<path d="M333.37 391.65C334.567 397.192 335.472 402.793 336.08 408.43C336.71 414.02 337.17 419.6 337.73 425.18L339.24 441.91C339.71 447.48 340.17 453.06 340.49 458.65L332.49 459.29C331.91 453.68 331.56 448.05 331.31 442.42C331.18 439.6 331.11 436.78 331.03 433.96L330.93 425.5C330.93 419.86 330.98 414.21 331.28 408.57C331.566 402.887 332.264 397.232 333.37 391.65Z" fill="#592D3D"/>
<path d="M340.48 320.18C340.23 323.83 339.84 327.46 339.43 331.09L338.77 336.54L338.05 341.99C337.51 345.63 337.1 349.27 336.45 352.92C335.823 356.632 334.886 360.285 333.65 363.84C332.606 360.204 331.936 356.472 331.65 352.7C331.35 348.98 331.33 345.28 331.27 341.56V336C331.33 334.14 331.38 332.29 331.47 330.44C331.67 326.73 331.96 323.03 332.47 319.35L340.48 320.18Z" fill="#592D3D"/>
<path d="M264.861 340.45C258.001 383.45 258.771 430.3 264.861 479.75" stroke="#592D3D" stroke-width="8" stroke-miterlimit="10"/>
<path d="M753.07 434.58C753.812 434.58 754.537 434.36 755.154 433.948C755.77 433.536 756.251 432.95 756.535 432.265C756.819 431.58 756.893 430.826 756.748 430.098C756.604 429.371 756.246 428.703 755.722 428.178C755.198 427.654 754.529 427.297 753.802 427.152C753.074 427.007 752.32 427.082 751.635 427.366C750.95 427.649 750.364 428.13 749.952 428.747C749.54 429.363 749.32 430.088 749.32 430.83C749.333 431.821 749.733 432.767 750.433 433.467C751.133 434.168 752.08 434.567 753.07 434.58Z" fill="#592D3D"/>
<path d="M758.281 341.38C768.281 384.22 767.131 430.81 758.281 480.02" stroke="#7DC462" stroke-width="8" stroke-miterlimit="10"/>
<path d="M681 320C688.56 362.87 687.71 409.49 681 458.74" stroke="#7DC462" stroke-width="8" stroke-miterlimit="10"/>
<path d="M610.379 305.45C615.529 348.35 614.949 395 610.379 444.28" stroke="#7DC462" stroke-width="8" stroke-miterlimit="10"/>
<path d="M544.059 297.82C546.799 340.74 546.499 387.43 544.059 436.74" stroke="#7DC462" stroke-width="8" stroke-miterlimit="10"/>
<path d="M479.801 297.16C480.141 340.11 480.111 386.83 479.801 436.16" stroke="#7DC462" stroke-width="8" stroke-miterlimit="10"/>
<path d="M415.339 303.53C413.279 346.53 413.509 393.26 415.339 442.64" stroke="#7DC462" stroke-width="8" stroke-miterlimit="10"/>
<path d="M348.409 317C343.949 360 344.409 406.79 348.409 456.21" stroke="#7DC462" stroke-width="8" stroke-miterlimit="10"/>
<path d="M276.739 337.64C269.879 380.64 270.649 427.49 276.739 476.94" stroke="#7DC462" stroke-width="8" stroke-miterlimit="10"/>
<path d="M225.35 356.43C408.77 278.43 596.49 277.37 781.29 356.43C798.82 363.93 798.72 496.3 781.29 490.24C600.82 427.41 409.96 426.74 225.35 490.24C203.39 497.79 205.53 364.86 225.35 356.43Z" stroke="#592D3D" stroke-width="12" stroke-miterlimit="10"/>
<path d="M426.758 283.72C439.503 281.05 452.396 279.14 465.368 278C468.618 277.72 471.858 277.44 475.108 277.22L484.858 276.66C488.118 276.52 491.368 276.46 494.628 276.36L504.398 276.23C517.398 276.23 530.448 276.86 543.398 278.07C556.369 279.227 569.259 281.164 581.998 283.87C568.998 283.58 555.998 283.08 543.118 282.74C530.238 282.4 517.278 282.25 504.368 282.22H494.688C491.458 282.22 488.228 282.34 484.998 282.33L475.318 282.47C472.088 282.58 468.858 282.63 465.618 282.67C452.718 283 439.778 283.46 426.758 283.72Z" fill="#592D3D"/>
<path d="M347.309 233.83C354.381 228.176 361.861 223.052 369.689 218.5C377.469 213.88 385.499 209.66 393.689 205.84C395.689 204.84 397.819 203.98 399.889 203.06C401.959 202.14 404.019 201.2 406.129 200.39C410.349 198.74 414.529 197.01 418.829 195.59C427.35 192.549 436.054 190.044 444.889 188.09C442.819 189 440.729 189.87 438.639 190.72C436.549 191.57 434.449 192.36 432.389 193.28C428.239 195.02 424.079 196.7 419.959 198.5L416.869 199.83C415.869 200.26 414.789 200.68 413.769 201.15L407.619 203.88C405.559 204.76 403.529 205.71 401.479 206.63C399.429 207.55 397.389 208.47 395.379 209.46L389.279 212.29C387.279 213.29 385.279 214.29 383.229 215.29C379.229 217.23 375.229 219.29 371.179 221.29C363.189 225.31 355.229 229.48 347.309 233.83Z" fill="white"/>
</g>
</svg>
