<svg width="1000" height="990" viewBox="0 0 1000 990" fill="none" xmlns="http://www.w3.org/2000/svg">
<mask id="mask0_22_4676" style="mask-type:luminance" maskUnits="userSpaceOnUse" x="0" y="0" width="1000" height="966">
<path d="M1000 0H0V718.31H179.2C217.58 860.69 346.65 965.41 500 965.41C653.35 965.41 782.42 860.69 820.8 718.31H1000V0Z" fill="white"/>
</mask>
<g mask="url(#mask0_22_4676)">
<path d="M500.001 962.602C683.603 962.602 832.443 813.763 832.443 630.16C832.443 446.557 683.603 297.718 500.001 297.718C316.398 297.718 167.559 446.557 167.559 630.16C167.559 813.763 316.398 962.602 500.001 962.602Z" fill="#85C5E5"/>
<path d="M501.709 209.52C335.569 209.52 200.879 344.2 200.879 510.35V816.78C200.879 982.92 335.569 1117.61 501.709 1117.61C667.849 1117.61 802.539 982.92 802.539 816.78V510.35C802.539 344.2 667.849 209.52 501.709 209.52Z" fill="#A56941" stroke="#592D3D" stroke-width="12" stroke-miterlimit="10"/>
<path d="M610 758.72C700.76 758.72 682 872.96 682.87 1000H610V758.72Z" fill="#D8985D"/>
<path d="M632.74 831.87L610 870L621.38 1000H653.14C653.91 819.73 632.74 831.87 632.74 831.87Z" fill="#C6854E"/>
<path d="M233.25 500C233.25 352.68 352.68 233.25 500 233.25C647.32 233.25 766.75 352.68 766.75 500C766.788 539.694 757.949 578.895 740.88 614.731C723.811 650.568 698.945 682.135 668.1 707.12C662.627 711.573 656.98 715.803 651.16 719.81C591 758 515 758 446.39 751.89C439.73 750.89 433.09 749.63 426.5 748.18C400.17 742.38 374.68 733.43 351.13 720.38C345.31 716.793 339.667 712.92 334.2 708.76C328.706 704.576 323.432 700.11 318.4 695.38C313.64 690.96 309.044 686.367 304.61 681.6C258.667 632.299 233.161 567.39 233.25 500Z" fill="#D8985D"/>
<path d="M269.612 634.48C270.312 635.68 271.002 636.88 271.722 638.06C272.152 638.78 272.602 639.48 273.052 640.2C273.712 641.27 274.372 642.34 275.052 643.39C275.532 644.15 276.052 644.89 276.512 645.63C277.172 646.63 277.832 647.63 278.512 648.63C279.022 649.39 279.512 650.15 280.072 650.91C280.732 651.91 281.392 652.83 282.072 653.79C282.612 654.56 283.172 655.32 283.722 656.09C284.272 656.86 285.062 657.94 285.722 658.86C286.382 659.78 286.872 660.39 287.452 661.15C288.032 661.91 288.822 662.95 289.522 663.85C290.222 664.75 290.712 665.36 291.312 666.11C291.912 666.86 292.722 667.87 293.432 668.74C294.142 669.61 294.662 670.23 295.282 670.97C295.902 671.71 296.722 672.69 297.452 673.54C298.182 674.39 298.722 675.01 299.362 675.74L301.582 678.24C302.232 678.97 302.892 679.68 303.582 680.4C304.442 681.34 305.312 682.27 306.182 683.19L307.392 684.47C308.682 685.81 309.982 687.15 311.302 688.47L311.562 688.74C312.852 690.02 314.162 691.29 315.472 692.55L317.052 694.05C318.002 694.94 318.952 695.83 319.912 696.71L321.072 697.77C322.072 698.71 323.162 699.63 324.212 700.55C327.478 703.397 330.812 706.127 334.212 708.74C339.672 712.9 345.315 716.773 351.142 720.36C374.692 733.36 400.142 742.36 426.512 748.16C433.102 749.61 439.742 750.86 446.402 751.87C488.502 755.62 533.402 757.05 575.682 748.79C508.452 729 185.592 612.74 388.802 257.48C386.082 258.73 383.402 260.02 380.742 261.36L380.152 261.65C378.932 262.26 377.712 262.89 376.502 263.53L375.502 264.06C371.742 266.06 368.022 268.13 364.372 270.29L363.472 270.82C362.312 271.51 361.162 272.21 360.012 272.92L359.142 273.46C355.568 275.693 352.052 278.003 348.592 280.39L347.512 281.14C346.422 281.9 345.352 282.66 344.282 283.43L343.622 283.9C341.442 285.493 339.288 287.107 337.162 288.74L336.542 289.22C335.542 290 334.542 290.8 333.542 291.61L332.372 292.55C331.372 293.36 330.372 294.17 329.372 295C327.262 296.75 325.182 298.55 323.132 300.37L321.992 301.37L319.302 303.82L318.002 305C315.148 307.667 312.358 310.39 309.632 313.17L308.252 314.58C307.462 315.4 306.672 316.22 305.892 317.05C305.432 317.54 304.972 318.05 304.522 318.53C303.148 319.997 301.795 321.483 300.462 322.99C300.012 323.5 299.552 323.99 299.102 324.53C298.392 325.34 297.692 326.16 296.992 326.98L295.482 328.77C294.802 329.58 294.122 330.39 293.482 331.21C292.942 331.87 292.402 332.54 291.872 333.21C290.802 334.54 289.752 335.87 288.712 337.21C288.172 337.91 287.632 338.61 287.102 339.32C286.572 340.03 285.902 340.91 285.312 341.72C284.722 342.53 284.242 343.17 283.722 343.9C283.202 344.63 282.592 345.45 282.042 346.23C281.095 347.563 280.162 348.913 279.242 350.28C278.742 351.01 278.242 351.76 277.752 352.5C277.262 353.24 276.652 354.16 276.112 355L274.622 357.31L272.942 360.02C272.512 360.71 272.082 361.4 271.662 362.09C270.772 363.55 269.912 365.02 269.052 366.49L267.832 368.65C267.292 369.6 266.752 370.56 266.222 371.52C265.822 372.25 265.422 372.98 265.032 373.71C264.392 374.9 263.762 376.1 263.132 377.3L261.932 379.64C261.292 380.92 260.652 382.19 260.022 383.48C259.692 384.17 259.352 384.87 259.022 385.57C258.502 386.66 258.022 387.76 257.492 388.86C257.182 389.52 256.882 390.18 256.582 390.86C255.842 392.507 255.118 394.173 254.412 395.86C254.192 396.38 253.982 396.91 253.762 397.43C253.232 398.7 252.712 399.97 252.202 401.25C251.932 401.92 251.672 402.59 251.412 403.25C250.912 404.51 250.412 405.78 249.962 407.05C249.752 407.6 249.542 408.15 249.342 408.7C248.715 410.453 248.098 412.207 247.492 413.96L246.932 415.66C246.492 416.993 246.062 418.327 245.642 419.66L245.042 421.57C244.572 423.11 244.112 424.65 243.672 426.2C243.572 426.53 243.472 426.86 243.382 427.2C242.862 429.04 242.362 430.887 241.882 432.74C241.722 433.33 241.582 433.93 241.432 434.52C241.082 435.91 240.742 437.3 240.432 438.7L240.012 440.45C239.582 442.35 239.162 444.25 238.772 446.16L238.622 446.93C238.282 448.63 237.948 450.33 237.622 452.03C237.512 452.64 237.412 453.24 237.302 453.85C237.042 455.34 236.792 456.85 236.562 458.35C236.482 458.86 236.392 459.35 236.322 459.87C236.022 461.82 235.752 463.78 235.492 465.75L235.342 467.05C235.142 468.64 234.962 470.24 234.792 471.84C234.732 472.44 234.662 473.04 234.602 473.65C234.442 475.33 234.292 477.02 234.152 478.71C234.152 479.06 234.092 479.4 234.072 479.71C233.925 481.71 233.795 483.727 233.682 485.76C233.682 486.29 233.682 486.83 233.612 487.36C233.545 488.933 233.485 490.503 233.432 492.07C233.432 492.66 233.432 493.25 233.432 493.84C233.432 495.89 233.352 497.95 233.352 500.01C233.352 500.01 233.352 500.08 233.352 500.11C233.352 502.33 233.352 504.53 233.432 506.73C233.432 507.49 233.492 508.25 233.512 509.01C233.562 510.48 233.612 511.95 233.682 513.42C233.682 514.31 233.792 515.19 233.842 516.08C233.922 517.41 233.992 518.74 234.092 520.08C234.162 521.08 234.252 521.97 234.332 522.91C234.442 524.17 234.542 525.43 234.672 526.68C234.762 527.68 234.882 528.62 234.982 529.59C235.122 530.8 235.252 532.02 235.402 533.23C235.522 534.23 235.662 535.23 235.792 536.18C235.952 537.36 236.112 538.55 236.292 539.73C236.442 540.73 236.602 541.73 236.762 542.73C236.942 543.89 237.132 545.06 237.332 546.22C237.512 547.22 237.692 548.22 237.882 549.22C238.092 550.37 238.312 551.52 238.532 552.66C238.752 553.8 238.942 554.66 239.152 555.66C239.392 556.8 239.632 557.93 239.892 559.06C240.152 560.19 240.332 561.06 240.572 561.99C240.832 563.12 241.112 564.24 241.392 565.35C241.672 566.46 241.882 567.3 242.132 568.26C242.432 569.38 242.732 570.49 243.042 571.6C243.302 572.6 243.572 573.52 243.852 574.47C244.172 575.58 244.502 576.68 244.852 577.78C245.202 578.88 245.432 579.67 245.732 580.62C246.032 581.57 246.432 582.81 246.792 583.9C247.152 584.99 247.412 585.77 247.732 586.7C248.112 587.79 248.492 588.88 248.882 589.97C249.212 590.88 249.532 591.8 249.882 592.71L251.122 595.98C251.472 596.87 251.812 597.77 252.122 598.66C252.562 599.75 253.012 600.85 253.462 601.94C253.822 602.8 254.172 603.67 254.542 604.53C255.012 605.65 255.542 606.75 255.992 607.86C256.362 608.68 256.722 609.51 257.092 610.33C257.612 611.49 258.162 612.63 258.692 613.77L259.772 616.07C260.382 617.33 261.012 618.57 261.642 619.82C261.962 620.45 262.262 621.09 262.592 621.72C264.512 625.46 266.512 629.15 268.592 632.79C268.882 633.26 269.252 633.87 269.612 634.48Z" fill="#C6854E"/>
<path d="M233.25 500C233.25 352.68 352.68 233.25 500 233.25C647.32 233.25 766.75 352.68 766.75 500C766.788 539.694 757.949 578.895 740.88 614.731C723.811 650.568 698.945 682.135 668.1 707.12C662.627 711.573 656.98 715.803 651.16 719.81C591 758 515 758 446.39 751.89C439.73 750.89 433.09 749.63 426.5 748.18C400.17 742.38 374.68 733.43 351.13 720.38C345.31 716.793 339.667 712.92 334.2 708.76C328.706 704.576 323.432 700.11 318.4 695.38C313.64 690.96 309.044 686.367 304.61 681.6C258.667 632.299 233.161 567.39 233.25 500Z" stroke="#592D3D" stroke-width="12" stroke-miterlimit="10"/>
<path d="M386.122 758.72C295.352 758.72 314.122 872.96 313.252 1000H386.122V758.72Z" fill="#D8985D"/>
<path d="M367.232 831.87L390.002 870L378.612 1000H346.882C346.072 819.73 367.232 831.87 367.232 831.87Z" fill="#C6854E"/>
<path d="M619.472 1070H380.532C377.011 1070 373.636 1068.6 371.148 1066.11C368.659 1063.62 367.262 1060.24 367.262 1056.72V772C367.262 768.48 368.659 765.103 371.148 762.613C373.636 760.123 377.011 758.723 380.532 758.72H613.762C626.852 758.72 632.762 766.38 632.762 778.6V1056.68C632.767 1058.43 632.427 1060.16 631.761 1061.78C631.096 1063.39 630.117 1064.86 628.883 1066.1C627.648 1067.34 626.181 1068.32 624.566 1068.99C622.951 1069.66 621.22 1070 619.472 1070Z" fill="#D8985D"/>
<path d="M629.052 766.62C628.055 765.394 627.212 764.051 626.542 762.62C624.141 760.738 621.284 759.527 618.262 759.11C616.773 758.879 615.268 758.766 613.762 758.77H380.532C377.02 758.773 373.652 760.166 371.165 762.645C368.679 765.125 367.275 768.488 367.262 772C396.262 782.42 450.552 788.24 500.002 788.24C563.062 788.24 604.382 778.89 629.052 766.62Z" fill="#C6854E"/>
<path d="M610 758.72C700.76 758.72 682 872.96 682.87 1000H632.74" stroke="#592D3D" stroke-width="12" stroke-miterlimit="10" stroke-linecap="square"/>
<path d="M386.122 758.72C295.352 758.72 314.122 872.96 313.252 1000H363.322" stroke="#592D3D" stroke-width="12" stroke-miterlimit="10" stroke-linecap="square"/>
<path d="M380.531 758.82L613.761 758.72" stroke="#592D3D" stroke-width="12" stroke-miterlimit="10"/>
<path d="M380.532 1070H497.152C388.002 1070 396.242 838.82 367.262 838.82V1056.68C367.257 1058.43 367.596 1060.16 368.26 1061.77C368.925 1063.39 369.901 1064.86 371.134 1066.09C372.366 1067.33 373.831 1068.31 375.444 1068.98C377.056 1069.65 378.785 1070 380.532 1070Z" fill="#C6854E"/>
<path d="M361.259 860.85C361.069 857.18 361.149 853.51 361.309 849.85C361.469 846.19 361.779 842.5 362.169 838.85C362.369 837.01 362.569 835.18 362.819 833.34C363.069 831.5 363.309 829.67 363.669 827.83C364.378 824.022 365.585 820.323 367.259 816.83C368.933 820.323 370.14 824.022 370.849 827.83C371.209 829.67 371.469 831.5 371.699 833.34C371.929 835.18 372.149 837.01 372.349 838.85C372.729 842.52 373.029 846.19 373.199 849.85C373.369 853.51 373.449 857.19 373.259 860.85H361.259Z" fill="#592D3D"/>
<path d="M632.742 870V878C633.002 912 633.002 947 632.742 980.75C632.742 983.62 632.742 986.47 632.742 989.28V1056.69C632.746 1058.44 632.405 1060.16 631.74 1061.78C631.075 1063.39 630.099 1064.86 628.866 1066.1C627.634 1067.33 626.17 1068.31 624.558 1068.98C622.946 1069.65 621.217 1070 619.472 1070H380.532C377.011 1070 373.636 1068.6 371.148 1066.11C368.659 1063.62 367.262 1060.24 367.262 1056.72V998.52C367.262 996.01 367.262 993.45 367.262 990.87C367.012 956 367.012 921 367.262 885.57V860.85" stroke="#592D3D" stroke-width="12" stroke-miterlimit="10"/>
<path d="M626.74 870C626.55 865.83 626.64 861.65 626.8 857.47C626.96 853.29 627.27 849.12 627.65 844.94C627.85 842.85 628.06 840.76 628.3 838.67C628.54 836.58 628.79 834.5 629.15 832.41C629.847 828.106 631.052 823.9 632.74 819.88C634.428 823.9 635.633 828.106 636.33 832.41C636.69 834.5 636.95 836.59 637.18 838.67C637.41 840.75 637.63 842.85 637.83 844.94C638.21 849.12 638.52 853.29 638.68 857.47C638.84 861.65 638.93 865.83 638.74 870H626.74Z" fill="#592D3D"/>
<path d="M570.68 842.45C570.9 833 582.9 829 588.9 835C589.875 835.995 590.644 837.173 591.164 838.466C591.684 839.759 591.944 841.141 591.93 842.535C591.915 843.928 591.627 845.305 591.08 846.587C590.534 847.868 589.74 849.03 588.745 850.005C587.749 850.98 586.572 851.75 585.279 852.269C583.986 852.789 582.603 853.05 581.21 853.035C579.817 853.021 578.44 852.732 577.158 852.186C575.876 851.639 574.715 850.845 573.74 849.85C572.766 848.88 571.994 847.726 571.469 846.456C570.944 845.186 570.675 843.824 570.68 842.45Z" fill="#592D3D"/>
<path d="M408.109 842.15C407.899 834 416.899 830 422.899 833C430.899 836 430.899 847 422.899 852C418.899 854 414.899 852 411.149 849.52C410.182 848.552 409.416 847.403 408.894 846.138C408.372 844.873 408.106 843.518 408.109 842.15Z" fill="#592D3D"/>
<path d="M500 831.77C500.715 833.655 501.218 835.614 501.5 837.61C501.797 839.543 501.961 841.494 501.99 843.45L502.29 855.14C502.38 859.03 502.5 862.93 502.54 866.83L502.71 878.5C502.94 894.07 502.93 909.66 502.99 925.24C503.05 940.82 503.17 956.4 502.99 971.98C502.9 979.77 502.69 987.56 502.46 995.35C502.36 999.24 502.17 1003.14 501.79 1007.03C501.45 1010.96 500.859 1014.87 500.02 1018.72C499.181 1014.87 498.59 1010.96 498.25 1007.03C497.87 1003.14 497.68 999.24 497.58 995.35C497.35 987.56 497.14 979.77 497.05 971.98C496.85 956.4 497.05 940.82 497.05 925.24C497.05 909.66 497.05 894.09 497.23 878.51L497.4 866.81L497.73 855.13L498.06 843.45C498.097 841.494 498.264 839.543 498.56 837.61C498.822 835.616 499.305 833.657 500 831.77Z" fill="#C6854E"/>
<path d="M425.219 883C426.702 882.295 428.272 881.791 429.889 881.5C431.433 881.21 432.998 881.043 434.569 881L443.919 880.67L462.619 880.26C475.079 880.07 487.529 880.02 499.999 879.99C512.469 879.96 524.929 879.83 537.389 879.99C543.619 880.08 549.849 880.29 556.089 880.52C559.199 880.63 562.319 880.82 565.429 881.19C568.587 881.54 571.713 882.135 574.779 882.97C571.715 883.81 568.588 884.402 565.429 884.74C562.319 885.12 559.199 885.31 556.089 885.41C549.849 885.64 543.619 885.84 537.389 885.93C524.929 886.12 512.469 885.93 499.999 885.93C487.529 885.93 475.069 885.93 462.599 885.78C456.369 885.72 450.139 885.52 443.919 885.28L434.569 884.94C433.001 884.898 431.44 884.731 429.899 884.44C428.282 884.17 426.708 883.686 425.219 883Z" fill="#C6854E"/>
<path d="M442.41 914.38C443.591 913.817 444.853 913.442 446.15 913.27C447.349 913.101 448.561 913.05 449.77 913.12C452.16 913.22 454.55 913.28 456.94 913.33C461.72 913.44 466.5 913.48 471.28 913.5C480.91 913.5 490.37 913.58 500.04 913.29C509.71 913 519.3 912.86 528.92 912.9C533.73 912.9 538.54 913.03 543.34 913.14C545.757 913.172 548.17 913.329 550.57 913.61C553.037 913.882 555.472 914.395 557.84 915.14C555.528 916.048 553.129 916.718 550.68 917.14C548.296 917.569 545.888 917.857 543.47 918C538.65 918.35 533.83 918.65 529.02 918.82C519.38 919.18 509.75 919.14 500.14 919.27C495.33 919.27 490.53 919.49 485.66 919.37C480.79 919.25 475.97 919.24 471.14 919.06C466.31 918.88 461.46 918.48 456.64 917.98C454.22 917.71 451.82 917.41 449.41 917.08C448.193 916.931 446.996 916.649 445.84 916.24C444.599 915.82 443.439 915.191 442.41 914.38Z" fill="#C6854E"/>
<path d="M438.93 949.87C440.116 949.172 441.405 948.666 442.75 948.37C444.003 948.079 445.283 947.914 446.57 947.88L454.2 947.56C459.29 947.38 464.39 947.23 469.48 947.15C479.66 947 489.84 947 500 947C510.16 947 520.36 946.83 530.54 947C535.63 947.09 540.72 947.3 545.81 947.53C548.363 947.616 550.91 947.836 553.44 948.19C556.045 948.547 558.61 949.154 561.1 950C558.618 950.831 556.063 951.423 553.47 951.77C550.937 952.132 548.387 952.356 545.83 952.44C540.74 952.67 535.65 952.88 530.56 952.97C520.38 953.17 510.19 953.03 500.01 952.97C489.83 952.91 479.65 952.91 469.47 952.72C464.38 952.62 459.28 952.44 454.19 952.23L446.56 951.86C445.273 951.821 443.993 951.653 442.74 951.36C441.398 951.07 440.112 950.567 438.93 949.87Z" fill="#C6854E"/>
<path d="M613.762 758.16H559.552V758.26H589.002C589.004 767.375 588.295 776.476 586.882 785.48C586.215 789.86 585.358 794.153 584.312 798.36C581.275 810.482 576.308 822.036 569.602 832.58C567.583 835.711 565.375 838.717 562.992 841.58C525.932 878.58 467.042 880.58 431.252 840.39C427.29 835.602 423.79 830.449 420.802 825C414.14 812.69 409.609 799.342 407.402 785.52C406.735 781.14 406.208 776.677 405.822 772.13C405.472 767.59 405.282 762.98 405.282 758.31H434.752V758.21H380.532C381.352 780.5 378.942 833.85 371.422 842.69L367.262 1056.17C367.262 1059.69 368.66 1063.06 371.148 1065.55C373.637 1068.04 377.012 1069.44 380.532 1069.44H619.472C622.991 1069.44 626.366 1068.04 628.855 1065.55C631.344 1063.06 632.742 1059.69 632.742 1056.17L630.362 840.81C620.612 840.76 613.422 783.07 613.762 758.16Z" fill="#633749"/>
<path d="M632.739 831.31L609.949 869.4L621.339 999.43H632.939V893.78L632.739 831.31Z" fill="#5E3244"/>
<path d="M380.532 1069.39H497.152C387.952 1069.39 396.242 838.25 367.262 838.25V1056.12C367.262 1059.64 368.66 1063.01 371.148 1065.5C373.637 1067.99 377.012 1069.39 380.532 1069.39Z" fill="#5E3244"/>
<path d="M361.26 860.4C361.047 857.642 361.013 854.873 361.16 852.11C361.287 849.343 361.523 846.573 361.87 843.8C362.05 842.41 362.22 841.03 362.44 839.64C362.66 838.25 362.88 836.87 363.22 835.48C363.905 832.528 365.066 829.708 366.66 827.13C368.347 829.646 369.607 832.423 370.39 835.35C370.78 836.73 371.07 838.11 371.32 839.48C371.57 840.85 371.82 842.24 372.04 843.62C372.48 846.37 372.83 849.13 373.04 851.89C373.295 854.646 373.365 857.415 373.25 860.18L361.26 860.4Z" fill="#592D3D"/>
<path d="M632.742 869.4V877.4C633.002 911.4 633.002 946.4 632.742 980.16C632.742 983.03 632.742 985.88 632.742 988.69V1056.1C632.742 1059.62 631.344 1062.99 628.855 1065.48C626.366 1067.97 622.991 1069.37 619.472 1069.37H380.532C377.012 1069.37 373.637 1067.97 371.148 1065.48C368.66 1062.99 367.262 1059.62 367.262 1056.1V998C367.262 995.493 367.262 992.943 367.262 990.35C367.012 955.49 367.012 920.49 367.262 885.05V860.29" stroke="#592D3D" stroke-width="12" stroke-miterlimit="10"/>
<path d="M626.762 869.38C626.793 866.526 627.01 863.676 627.412 860.85C627.792 858.017 628.278 855.193 628.872 852.38C629.172 850.97 629.472 849.56 629.812 848.16C630.152 846.76 630.502 845.35 630.962 843.95C631.905 840.985 633.316 838.19 635.142 835.67C636.608 838.416 637.621 841.381 638.142 844.45C638.402 845.9 638.562 847.34 638.692 848.78C638.822 850.22 638.942 851.66 639.042 853.09C639.222 855.96 639.322 858.83 639.292 861.68C639.292 864.535 639.112 867.388 638.752 870.22L626.762 869.38Z" fill="#592D3D"/>
<path d="M368.102 833C389.682 827.73 380.532 758.27 380.532 758.27L613.762 758.17C613.762 758.17 617.692 834.79 632.942 841.09" stroke="#592D3D" stroke-width="12" stroke-miterlimit="10"/>
<path d="M589.001 758.26C589.007 767.374 588.301 776.475 586.891 785.48C586.225 789.86 585.368 794.153 584.321 798.36C581.285 810.482 576.318 822.036 569.611 832.58C567.592 835.711 565.385 838.717 563.001 841.58C525.941 878.58 467.051 880.58 431.261 840.39C427.296 835.602 423.793 830.449 420.801 825C414.14 812.69 409.609 799.342 407.401 785.52C406.735 781.14 406.208 776.677 405.821 772.13C405.471 767.59 405.281 762.98 405.281 758.31" stroke="#592D3D" stroke-width="12" stroke-miterlimit="10"/>
<path d="M551.551 969.73C550.613 969.189 549.603 968.785 548.551 968.53V937.92C549.625 937.666 550.656 937.255 551.611 936.7C553.045 935.879 554.286 934.759 555.248 933.415C556.21 932.072 556.871 930.536 557.185 928.914C557.5 927.291 557.461 925.62 557.071 924.014C556.681 922.408 555.949 920.905 554.925 919.608C553.901 918.311 552.609 917.25 551.138 916.497C549.667 915.744 548.05 915.318 546.399 915.247C544.748 915.176 543.101 915.462 541.571 916.086C540.04 916.709 538.662 917.655 537.531 918.86L511.001 903.57C511.472 901.991 511.598 900.329 511.37 898.696C511.142 897.064 510.565 895.5 509.679 894.111C508.792 892.721 507.617 891.539 506.233 890.644C504.849 889.75 503.289 889.163 501.658 888.925C500.027 888.687 498.364 888.803 496.782 889.265C495.2 889.727 493.736 890.525 492.49 891.603C491.244 892.681 490.244 894.015 489.559 895.514C488.874 897.013 488.52 898.642 488.521 900.29C488.522 901.393 488.681 902.491 488.991 903.55L462.491 918.85C461.729 918.047 460.857 917.357 459.901 916.8C458.592 916.005 457.138 915.479 455.624 915.253C454.109 915.028 452.565 915.107 451.082 915.487C449.598 915.867 448.206 916.539 446.986 917.464C445.766 918.39 444.744 919.55 443.979 920.876C443.214 922.203 442.721 923.668 442.531 925.188C442.34 926.707 442.455 928.249 442.869 929.723C443.283 931.197 443.987 932.574 444.94 933.772C445.894 934.97 447.077 935.966 448.421 936.7C449.375 937.255 450.406 937.666 451.481 937.92V968.52C450.429 968.783 449.42 969.19 448.481 969.73C447.137 970.464 445.954 971.46 445 972.658C444.047 973.856 443.343 975.233 442.929 976.707C442.515 978.181 442.4 979.723 442.591 981.242C442.781 982.762 443.274 984.227 444.039 985.554C444.804 986.88 445.826 988.04 447.046 988.965C448.266 989.891 449.658 990.563 451.142 990.943C452.625 991.323 454.169 991.402 455.684 991.177C457.198 990.951 458.652 990.425 459.961 989.63C460.907 989.087 461.772 988.414 462.531 987.63L489.001 1002.9C488.686 1003.95 488.527 1005.05 488.531 1006.15C488.531 1009.2 489.742 1012.13 491.899 1014.28C494.056 1016.44 496.981 1017.65 500.031 1017.65C503.081 1017.65 506.006 1016.44 508.162 1014.28C510.319 1012.13 511.531 1009.2 511.531 1006.15C511.529 1004.92 511.333 1003.7 510.951 1002.53L537.281 987.33C538.095 988.246 539.055 989.023 540.121 989.63C542.754 991.07 545.847 991.421 548.737 990.61C551.626 989.799 554.084 987.889 555.584 985.289C557.084 982.689 557.507 979.606 556.762 976.698C556.018 973.79 554.165 971.289 551.601 969.73H551.551ZM465.351 977C465.092 975.947 464.685 974.937 464.141 974C463.597 973.057 462.924 972.195 462.141 971.44L496.821 911.38C497.861 911.678 498.938 911.829 500.021 911.83C501.107 911.831 502.188 911.676 503.231 911.37L537.901 971.43C536.308 972.948 535.187 974.892 534.671 977.03L465.351 977ZM534.801 923.64C534.376 925.12 534.255 926.671 534.443 928.199C534.632 929.727 535.126 931.202 535.897 932.535C536.668 933.867 537.7 935.031 538.931 935.957C540.161 936.882 541.566 937.55 543.061 937.92V968.57L542.621 968.68L507.941 908.61L508.241 908.31L534.801 923.64ZM491.741 908.3L492.071 908.62L457.391 968.69L456.941 968.57V937.89C458.436 937.52 459.842 936.852 461.073 935.926C462.304 934.999 463.335 933.834 464.106 932.5C464.876 931.166 465.369 929.69 465.556 928.161C465.742 926.631 465.618 925.08 465.191 923.6L491.741 908.3ZM508.491 998.44C507.431 997.281 506.145 996.351 504.713 995.708C503.28 995.065 501.731 994.722 500.16 994.7C498.59 994.679 497.032 994.979 495.582 995.583C494.132 996.186 492.822 997.08 491.731 998.21L465.221 982.9L465.341 982.46H534.661C534.721 982.71 534.791 982.97 534.871 983.21L508.491 998.44Z" fill="black" stroke="white" stroke-width="16"/>
<path d="M551.551 969.73C550.613 969.189 549.603 968.785 548.551 968.53V937.92C549.625 937.666 550.656 937.255 551.611 936.7C553.045 935.879 554.286 934.759 555.248 933.415C556.21 932.072 556.871 930.536 557.185 928.914C557.5 927.291 557.461 925.62 557.071 924.014C556.681 922.408 555.949 920.905 554.925 919.608C553.901 918.311 552.609 917.25 551.138 916.497C549.667 915.744 548.05 915.318 546.399 915.247C544.748 915.176 543.101 915.462 541.571 916.086C540.04 916.709 538.662 917.655 537.531 918.86L511.001 903.57C511.472 901.991 511.598 900.329 511.37 898.696C511.142 897.064 510.565 895.5 509.679 894.111C508.792 892.721 507.617 891.539 506.233 890.644C504.849 889.75 503.289 889.163 501.658 888.925C500.027 888.687 498.364 888.803 496.782 889.265C495.2 889.727 493.736 890.525 492.49 891.603C491.244 892.681 490.244 894.015 489.559 895.514C488.874 897.013 488.52 898.642 488.521 900.29C488.522 901.393 488.681 902.491 488.991 903.55L462.491 918.85C461.729 918.047 460.857 917.357 459.901 916.8C458.592 916.005 457.138 915.479 455.624 915.253C454.109 915.028 452.565 915.107 451.082 915.487C449.598 915.867 448.206 916.539 446.986 917.464C445.766 918.39 444.744 919.55 443.979 920.876C443.214 922.203 442.721 923.668 442.531 925.188C442.34 926.707 442.455 928.249 442.869 929.723C443.283 931.197 443.987 932.574 444.94 933.772C445.894 934.97 447.077 935.966 448.421 936.7C449.375 937.255 450.406 937.666 451.481 937.92V968.52C450.429 968.783 449.42 969.19 448.481 969.73C447.137 970.464 445.954 971.46 445 972.658C444.047 973.856 443.343 975.233 442.929 976.707C442.515 978.181 442.4 979.723 442.591 981.242C442.781 982.762 443.274 984.227 444.039 985.554C444.804 986.88 445.826 988.04 447.046 988.965C448.266 989.891 449.658 990.563 451.142 990.943C452.625 991.323 454.169 991.402 455.684 991.177C457.198 990.951 458.652 990.425 459.961 989.63C460.907 989.087 461.772 988.414 462.531 987.63L489.001 1002.9C488.686 1003.95 488.527 1005.05 488.531 1006.15C488.531 1009.2 489.742 1012.13 491.899 1014.28C494.056 1016.44 496.981 1017.65 500.031 1017.65C503.081 1017.65 506.006 1016.44 508.162 1014.28C510.319 1012.13 511.531 1009.2 511.531 1006.15C511.529 1004.92 511.333 1003.7 510.951 1002.53L537.281 987.33C538.095 988.246 539.055 989.023 540.121 989.63C542.754 991.07 545.847 991.421 548.737 990.61C551.626 989.799 554.084 987.889 555.584 985.289C557.084 982.689 557.507 979.606 556.762 976.698C556.018 973.79 554.165 971.289 551.601 969.73H551.551ZM465.351 977C465.092 975.947 464.685 974.937 464.141 974C463.597 973.057 462.924 972.195 462.141 971.44L496.821 911.38C497.861 911.678 498.938 911.829 500.021 911.83C501.107 911.831 502.188 911.676 503.231 911.37L537.901 971.43C536.308 972.948 535.187 974.892 534.671 977.03L465.351 977ZM534.801 923.64C534.376 925.12 534.255 926.671 534.443 928.199C534.632 929.727 535.126 931.202 535.897 932.535C536.668 933.867 537.7 935.031 538.931 935.957C540.161 936.882 541.566 937.55 543.061 937.92V968.57L542.621 968.68L507.941 908.61L508.241 908.31L534.801 923.64ZM491.741 908.3L492.071 908.62L457.391 968.69L456.941 968.57V937.89C458.436 937.52 459.842 936.852 461.073 935.926C462.304 934.999 463.335 933.834 464.106 932.5C464.876 931.166 465.369 929.69 465.556 928.161C465.742 926.631 465.618 925.08 465.191 923.6L491.741 908.3ZM508.491 998.44C507.431 997.281 506.145 996.351 504.713 995.708C503.28 995.065 501.731 994.722 500.16 994.7C498.59 994.679 497.032 994.979 495.582 995.583C494.132 996.186 492.822 997.08 491.731 998.21L465.221 982.9L465.341 982.46H534.661C534.721 982.71 534.791 982.97 534.871 983.21L508.491 998.44Z" fill="#E535AB"/>
<path d="M296.491 572.61V559.68C294.929 551.215 295.598 542.489 298.431 534.36C299.365 531.708 300.539 529.147 301.941 526.71C305.291 518 314.291 511 323.291 508C337.291 504 354.291 506 365.291 517C379.291 532 377.291 554 377.741 572.62" stroke="#592D3D" stroke-width="12" stroke-miterlimit="10" stroke-linecap="round"/>
<path d="M623.31 573C620.97 546.38 624.97 509.38 659.44 505.83C662.141 505.585 664.859 505.585 667.56 505.83C675.695 506.536 683.469 509.509 690 514.41C708 529.41 704 553.41 703.95 573.04" stroke="#592D3D" stroke-width="12" stroke-miterlimit="10" stroke-linecap="round"/>
<path d="M443.141 621.86C443.141 602.96 556.861 605.8 556.861 621.86C556.861 636.94 550.87 651.403 540.207 662.066C529.543 672.729 515.081 678.72 500.001 678.72C484.92 678.72 470.458 672.729 459.795 662.066C449.131 651.403 443.141 636.94 443.141 621.86Z" fill="#592D3D"/>
<path d="M495.002 643C478.052 642 463.272 649.75 458.352 661.22C466.532 669.863 477.219 675.72 488.905 677.968C500.591 680.216 512.688 678.741 523.492 673.75C525.738 672.713 527.913 671.527 530.002 670.2C529.082 656.09 514.062 644.18 495.002 643Z" fill="#F28195"/>
<path d="M443.141 621.86C443.141 602.96 556.861 605.8 556.861 621.86C556.861 636.94 550.87 651.403 540.207 662.066C529.543 672.729 515.081 678.72 500.001 678.72C484.92 678.72 470.458 672.729 459.795 662.066C449.131 651.403 443.141 636.94 443.141 621.86Z" stroke="#592D3D" stroke-width="6" stroke-miterlimit="10"/>
<path d="M478.121 632.46C478.571 632.35 478.751 632.3 479.041 632.25L479.791 632.11C480.281 632.02 480.791 631.97 481.251 631.93C482.211 631.832 483.177 631.799 484.141 631.83C486.096 631.873 488.039 632.145 489.931 632.64C493.893 633.643 497.484 635.76 500.281 638.74C502.912 641.57 504.676 645.097 505.361 648.9C505.986 652.408 505.511 656.023 504.001 659.25C501.931 656.32 500.341 653.69 498.681 651.49C497.934 650.435 497.115 649.433 496.231 648.49C495.423 647.662 494.517 646.936 493.531 646.33C491.664 645.212 489.582 644.499 487.421 644.24C486.287 644.094 485.145 644.014 484.001 644C483.411 644 482.821 644 482.241 644.05L481.391 644.11H481.001C480.901 644.11 480.701 644.11 480.771 644.11L478.121 632.46Z" fill="#592D3D"/>
<path d="M559.289 397.34C546.419 421.34 499.289 434.78 495.459 428.76C491.159 422.03 533.299 373.44 509.359 322.62" fill="#C6854E"/>
<path d="M746.9 365.72C703.39 275.43 606.63 223.72 502.16 223.72C370.97 223.72 248.66 318.72 226.84 447.46C226.84 447.46 429.25 462.78 502.09 380.06C511.7 384.77 658.18 457.67 746.9 365.72Z" fill="#A56941"/>
<path d="M502.161 233.15C484.72 234.338 467.388 236.787 450.301 240.48L437.621 243.53C433.421 244.66 429.261 245.9 425.081 247.08L412.691 251.08C408.601 252.54 404.561 254.08 400.491 255.62C384.309 261.977 368.639 269.57 353.621 278.33C338.555 287.206 324.106 297.088 310.371 307.91C322.652 295.213 336.336 283.954 351.161 274.35C365.998 264.65 381.795 256.504 398.301 250.04C402.471 248.54 406.621 246.98 410.801 245.53C415.041 244.24 419.241 242.83 423.501 241.63C427.761 240.43 432.081 239.44 436.391 238.42C440.701 237.4 445.071 236.66 449.391 235.89C466.812 232.906 484.525 231.986 502.161 233.15Z" fill="#592D3D"/>
<path d="M537.229 398.81C526.899 418.12 489.069 428.88 485.999 424C482.549 418.6 516.379 379.58 497.159 338.78" fill="#A56941"/>
<path d="M240.152 454.33C240.152 454.33 425.722 462.61 500.012 382.33C495.012 401.85 484.262 416.42 486.222 419.49C489.112 424.02 524.222 414.07 534.382 396.14C579.942 415.14 665.862 437.47 740.532 380.05" stroke="#592D3D" stroke-width="12" stroke-miterlimit="10"/>
<path d="M603.101 452.29C614.145 449.476 625.331 447.253 636.611 445.63L634.001 446C647.172 444.081 660.538 443.919 673.751 445.52L671.091 445.16C674.371 445.61 677.631 446.16 680.911 446.57L678.251 446.22C688.204 447.586 698.054 449.624 707.731 452.32C712.731 453.72 718.841 450.6 720.031 445.32C720.685 442.762 720.321 440.051 719.015 437.757C717.709 435.462 715.564 433.764 713.031 433.02C701.687 429.913 690.129 427.647 678.451 426.24L681.101 426.6C670.073 424.642 658.852 423.988 647.671 424.65C636.545 425.382 625.484 426.899 614.571 429.19C608.961 430.33 603.381 431.63 597.811 433C592.731 434.25 589.201 440.26 590.811 445.3C591.56 447.83 593.259 449.972 595.552 451.277C597.845 452.582 600.554 452.949 603.111 452.3L603.101 452.29Z" fill="#592D3D"/>
<path d="M261.262 502.22L275.392 500.74L309.062 497.22L350.002 492.93L385.182 489.24C390.902 488.65 396.622 488.07 402.342 487.45H402.582C405.312 487.17 407.652 486.53 409.652 484.52C411.527 482.645 412.58 480.102 412.58 477.45C412.58 474.798 411.527 472.255 409.652 470.38C407.822 468.69 405.172 467.18 402.582 467.45L388.452 468.93L354.782 472.46L313.782 476.75L278.602 480.43C272.882 481.03 267.162 481.61 261.442 482.23H261.202C258.472 482.52 256.132 483.16 254.132 485.16C253.202 486.089 252.465 487.192 251.961 488.406C251.458 489.62 251.199 490.921 251.199 492.235C251.199 493.549 251.458 494.85 251.961 496.064C252.465 497.278 253.202 498.381 254.132 499.31C255.962 500.99 258.612 502.51 261.202 502.23L261.262 502.22Z" fill="#592D3D"/>
</g>
</svg>
