<svg width="1000" height="990" viewBox="0 0 1000 990" fill="none" xmlns="http://www.w3.org/2000/svg">
<mask id="mask0_22_4585" style="mask-type:luminance" maskUnits="userSpaceOnUse" x="0" y="0" width="1000" height="966">
<path d="M1000 0H0V718.31H179.2C217.58 860.69 346.65 965.41 500 965.41C653.35 965.41 782.42 860.69 820.8 718.31H1000V0Z" fill="white"/>
</mask>
<g mask="url(#mask0_22_4585)">
<path d="M500.001 962.602C683.603 962.602 832.443 813.763 832.443 630.16C832.443 446.557 683.603 297.718 500.001 297.718C316.398 297.718 167.559 446.557 167.559 630.16C167.559 813.763 316.398 962.602 500.001 962.602Z" fill="#85C5E5"/>
<path d="M610 758.72C700.76 758.72 682 872.96 682.87 1000H610V758.72Z" fill="#FBE8B3"/>
<path d="M632.74 831.87L610 870L621.38 1000H653.14C653.91 819.73 632.74 831.87 632.74 831.87Z" fill="#EDD494"/>
<path d="M233.25 500C233.25 352.68 352.68 233.25 500 233.25C647.32 233.25 766.75 352.68 766.75 500C766.788 539.694 757.949 578.895 740.88 614.731C723.811 650.568 698.945 682.135 668.1 707.12C662.627 711.573 656.98 715.803 651.16 719.81C591 758 515 758 446.39 751.89C439.73 750.89 433.09 749.63 426.5 748.18C400.17 742.38 374.68 733.43 351.13 720.38C345.31 716.793 339.667 712.92 334.2 708.76C328.706 704.576 323.432 700.11 318.4 695.38C313.64 690.96 309.044 686.367 304.61 681.6C258.667 632.299 233.161 567.39 233.25 500Z" fill="#FBE8B3"/>
<path d="M269.612 634.48C270.312 635.68 271.002 636.88 271.722 638.06C272.152 638.78 272.602 639.48 273.052 640.2C273.712 641.27 274.372 642.34 275.052 643.39C275.532 644.15 276.052 644.89 276.512 645.63C277.172 646.63 277.832 647.63 278.512 648.63C279.022 649.39 279.512 650.15 280.072 650.91C280.732 651.91 281.392 652.83 282.072 653.79C282.612 654.56 283.172 655.32 283.722 656.09C284.272 656.86 285.062 657.94 285.722 658.86C286.382 659.78 286.872 660.39 287.452 661.15C288.032 661.91 288.822 662.95 289.522 663.85C290.222 664.75 290.712 665.36 291.312 666.11C291.912 666.86 292.722 667.87 293.432 668.74C294.142 669.61 294.662 670.23 295.282 670.97C295.902 671.71 296.722 672.69 297.452 673.54C298.182 674.39 298.722 675.01 299.362 675.74L301.582 678.24C302.232 678.97 302.892 679.68 303.582 680.4C304.442 681.34 305.312 682.27 306.182 683.19L307.392 684.47C308.682 685.81 309.982 687.15 311.302 688.47L311.562 688.74C312.852 690.02 314.162 691.29 315.472 692.55L317.052 694.05C318.002 694.94 318.952 695.83 319.912 696.71L321.072 697.77C322.072 698.71 323.162 699.63 324.212 700.55C327.478 703.397 330.812 706.127 334.212 708.74C339.672 712.9 345.315 716.773 351.142 720.36C374.692 733.36 400.142 742.36 426.512 748.16C433.102 749.61 439.742 750.86 446.402 751.87C488.502 755.62 533.402 757.05 575.682 748.79C508.452 729 185.592 612.74 388.802 257.48C386.082 258.73 383.402 260.02 380.742 261.36L380.152 261.65C378.932 262.26 377.712 262.89 376.502 263.53L375.502 264.06C371.742 266.06 368.022 268.13 364.372 270.29L363.472 270.82C362.312 271.51 361.162 272.21 360.012 272.92L359.142 273.46C355.568 275.693 352.052 278.003 348.592 280.39L347.512 281.14C346.422 281.9 345.352 282.66 344.282 283.43L343.622 283.9C341.442 285.493 339.288 287.107 337.162 288.74L336.542 289.22C335.542 290 334.542 290.8 333.542 291.61L332.372 292.55C331.372 293.36 330.372 294.17 329.372 295C327.262 296.75 325.182 298.55 323.132 300.37L321.992 301.37L319.302 303.82L318.002 305C315.148 307.667 312.358 310.39 309.632 313.17L308.252 314.58C307.462 315.4 306.672 316.22 305.892 317.05C305.432 317.54 304.972 318.05 304.522 318.53C303.148 319.997 301.795 321.483 300.462 322.99C300.012 323.5 299.552 323.99 299.102 324.53C298.392 325.34 297.692 326.16 296.992 326.98L295.482 328.77C294.802 329.58 294.122 330.39 293.482 331.21C292.942 331.87 292.402 332.54 291.872 333.21C290.802 334.54 289.752 335.87 288.712 337.21C288.172 337.91 287.632 338.61 287.102 339.32C286.572 340.03 285.902 340.91 285.312 341.72C284.722 342.53 284.242 343.17 283.722 343.9C283.202 344.63 282.592 345.45 282.042 346.23C281.095 347.563 280.162 348.913 279.242 350.28C278.742 351.01 278.242 351.76 277.752 352.5C277.262 353.24 276.652 354.16 276.112 355L274.622 357.31L272.942 360.02C272.512 360.71 272.082 361.4 271.662 362.09C270.772 363.55 269.912 365.02 269.052 366.49L267.832 368.65C267.292 369.6 266.752 370.56 266.222 371.52C265.822 372.25 265.422 372.98 265.032 373.71C264.392 374.9 263.762 376.1 263.132 377.3L261.932 379.64C261.292 380.92 260.652 382.19 260.022 383.48C259.692 384.17 259.352 384.87 259.022 385.57C258.502 386.66 258.022 387.76 257.492 388.86C257.182 389.52 256.882 390.18 256.582 390.86C255.842 392.507 255.118 394.173 254.412 395.86C254.192 396.38 253.982 396.91 253.762 397.43C253.232 398.7 252.712 399.97 252.202 401.25C251.932 401.92 251.672 402.59 251.412 403.25C250.912 404.51 250.412 405.78 249.962 407.05C249.752 407.6 249.542 408.15 249.342 408.7C248.715 410.453 248.098 412.207 247.492 413.96L246.932 415.66C246.492 416.993 246.062 418.327 245.642 419.66L245.042 421.57C244.572 423.11 244.112 424.65 243.672 426.2C243.572 426.53 243.472 426.86 243.382 427.2C242.862 429.04 242.362 430.887 241.882 432.74C241.722 433.33 241.582 433.93 241.432 434.52C241.082 435.91 240.742 437.3 240.432 438.7L240.012 440.45C239.582 442.35 239.162 444.25 238.772 446.16L238.622 446.93C238.282 448.63 237.948 450.33 237.622 452.03C237.512 452.64 237.412 453.24 237.302 453.85C237.042 455.34 236.792 456.85 236.562 458.35C236.482 458.86 236.392 459.35 236.322 459.87C236.022 461.82 235.752 463.78 235.492 465.75L235.342 467.05C235.142 468.64 234.962 470.24 234.792 471.84C234.732 472.44 234.662 473.04 234.602 473.65C234.442 475.33 234.292 477.02 234.152 478.71C234.152 479.06 234.092 479.4 234.072 479.71C233.925 481.71 233.795 483.727 233.682 485.76C233.682 486.29 233.682 486.83 233.612 487.36C233.545 488.933 233.485 490.503 233.432 492.07C233.432 492.66 233.432 493.25 233.432 493.84C233.432 495.89 233.352 497.95 233.352 500.01C233.352 500.01 233.352 500.08 233.352 500.11C233.352 502.33 233.352 504.53 233.432 506.73C233.432 507.49 233.492 508.25 233.512 509.01C233.562 510.48 233.612 511.95 233.682 513.42C233.682 514.31 233.792 515.19 233.842 516.08C233.922 517.41 233.992 518.74 234.092 520.08C234.162 521.08 234.252 521.97 234.332 522.91C234.442 524.17 234.542 525.43 234.672 526.68C234.762 527.68 234.882 528.62 234.982 529.59C235.122 530.8 235.252 532.02 235.402 533.23C235.522 534.23 235.662 535.23 235.792 536.18C235.952 537.36 236.112 538.55 236.292 539.73C236.442 540.73 236.602 541.73 236.762 542.73C236.942 543.89 237.132 545.06 237.332 546.22C237.512 547.22 237.692 548.22 237.882 549.22C238.092 550.37 238.312 551.52 238.532 552.66C238.752 553.8 238.942 554.66 239.152 555.66C239.392 556.8 239.632 557.93 239.892 559.06C240.152 560.19 240.332 561.06 240.572 561.99C240.832 563.12 241.112 564.24 241.392 565.35C241.672 566.46 241.882 567.3 242.132 568.26C242.432 569.38 242.732 570.49 243.042 571.6C243.302 572.6 243.572 573.52 243.852 574.47C244.172 575.58 244.502 576.68 244.852 577.78C245.202 578.88 245.432 579.67 245.732 580.62C246.032 581.57 246.432 582.81 246.792 583.9C247.152 584.99 247.412 585.77 247.732 586.7C248.112 587.79 248.492 588.88 248.882 589.97C249.212 590.88 249.532 591.8 249.882 592.71L251.122 595.98C251.472 596.87 251.812 597.77 252.122 598.66C252.562 599.75 253.012 600.85 253.462 601.94C253.822 602.8 254.172 603.67 254.542 604.53C255.012 605.65 255.542 606.75 255.992 607.86C256.362 608.68 256.722 609.51 257.092 610.33C257.612 611.49 258.162 612.63 258.692 613.77L259.772 616.07C260.382 617.33 261.012 618.57 261.642 619.82C261.962 620.45 262.262 621.09 262.592 621.72C264.512 625.46 266.512 629.15 268.592 632.79C268.882 633.26 269.252 633.87 269.612 634.48Z" fill="#EDD494"/>
<path d="M233.25 500C233.25 352.68 352.68 233.25 500 233.25C647.32 233.25 766.75 352.68 766.75 500C766.788 539.694 757.949 578.895 740.88 614.731C723.811 650.568 698.945 682.135 668.1 707.12C662.627 711.573 656.98 715.803 651.16 719.81C591 758 515 758 446.39 751.89C439.73 750.89 433.09 749.63 426.5 748.18C400.17 742.38 374.68 733.43 351.13 720.38C345.31 716.793 339.667 712.92 334.2 708.76C328.706 704.576 323.432 700.11 318.4 695.38C313.64 690.96 309.044 686.367 304.61 681.6C258.667 632.299 233.161 567.39 233.25 500Z" stroke="#592D3D" stroke-width="12" stroke-miterlimit="10"/>
<path d="M386.122 758.72C295.352 758.72 314.122 872.96 313.252 1000H386.122V758.72Z" fill="#FBE8B3"/>
<path d="M367.232 831.87L390.002 870L378.612 1000H346.882C346.072 819.73 367.232 831.87 367.232 831.87Z" fill="#EDD494"/>
<path d="M619.472 1070H380.532C377.011 1070 373.636 1068.6 371.148 1066.11C368.659 1063.62 367.262 1060.24 367.262 1056.72V772C367.262 768.48 368.659 765.103 371.148 762.613C373.636 760.123 377.011 758.723 380.532 758.72H613.762C626.852 758.72 632.762 766.38 632.762 778.6V1056.68C632.767 1058.43 632.427 1060.16 631.761 1061.78C631.096 1063.39 630.117 1064.86 628.883 1066.1C627.648 1067.34 626.181 1068.32 624.566 1068.99C622.951 1069.66 621.22 1070 619.472 1070Z" fill="#FBE8B3"/>
<path d="M629.052 766.62C628.055 765.394 627.212 764.051 626.542 762.62C624.141 760.738 621.284 759.527 618.262 759.11C616.773 758.879 615.268 758.766 613.762 758.77H380.532C377.02 758.773 373.652 760.166 371.165 762.645C368.679 765.125 367.275 768.488 367.262 772C396.262 782.42 450.552 788.24 500.002 788.24C563.062 788.24 604.382 778.89 629.052 766.62Z" fill="#EDD494"/>
<path d="M610 758.72C700.76 758.72 682 872.96 682.87 1000H632.74" stroke="#592D3D" stroke-width="12" stroke-miterlimit="10" stroke-linecap="square"/>
<path d="M386.122 758.72C295.352 758.72 314.122 872.96 313.252 1000H363.322" stroke="#592D3D" stroke-width="12" stroke-miterlimit="10" stroke-linecap="square"/>
<path d="M380.531 758.82L613.761 758.72" stroke="#592D3D" stroke-width="12" stroke-miterlimit="10"/>
<path d="M380.532 1070H497.152C388.002 1070 396.242 838.82 367.262 838.82V1056.68C367.257 1058.43 367.596 1060.16 368.26 1061.77C368.925 1063.39 369.901 1064.86 371.134 1066.09C372.366 1067.33 373.831 1068.31 375.444 1068.98C377.056 1069.65 378.785 1070 380.532 1070Z" fill="#EDD494"/>
<path d="M361.259 860.85C361.069 857.18 361.149 853.51 361.309 849.85C361.469 846.19 361.779 842.5 362.169 838.85C362.369 837.01 362.569 835.18 362.819 833.34C363.069 831.5 363.309 829.67 363.669 827.83C364.378 824.022 365.585 820.323 367.259 816.83C368.933 820.323 370.14 824.022 370.849 827.83C371.209 829.67 371.469 831.5 371.699 833.34C371.929 835.18 372.149 837.01 372.349 838.85C372.729 842.52 373.029 846.19 373.199 849.85C373.369 853.51 373.449 857.19 373.259 860.85H361.259Z" fill="#592D3D"/>
<path d="M632.742 870V878C633.002 912 633.002 947 632.742 980.75C632.742 983.62 632.742 986.47 632.742 989.28V1056.69C632.746 1058.44 632.405 1060.16 631.74 1061.78C631.075 1063.39 630.099 1064.86 628.866 1066.1C627.634 1067.33 626.17 1068.31 624.558 1068.98C622.946 1069.65 621.217 1070 619.472 1070H380.532C377.011 1070 373.636 1068.6 371.148 1066.11C368.659 1063.62 367.262 1060.24 367.262 1056.72V998.52C367.262 996.01 367.262 993.45 367.262 990.87C367.012 956 367.012 921 367.262 885.57V860.85" stroke="#592D3D" stroke-width="12" stroke-miterlimit="10"/>
<path d="M626.74 870C626.55 865.83 626.64 861.65 626.8 857.47C626.96 853.29 627.27 849.12 627.65 844.94C627.85 842.85 628.06 840.76 628.3 838.67C628.54 836.58 628.79 834.5 629.15 832.41C629.847 828.106 631.052 823.9 632.74 819.88C634.428 823.9 635.633 828.106 636.33 832.41C636.69 834.5 636.95 836.59 637.18 838.67C637.41 840.75 637.63 842.85 637.83 844.94C638.21 849.12 638.52 853.29 638.68 857.47C638.84 861.65 638.93 865.83 638.74 870H626.74Z" fill="#592D3D"/>
<path d="M502.069 878.86C502.067 889.337 499.69 899.678 495.117 909.104C490.543 918.53 483.892 926.797 475.663 933.282C467.435 939.768 457.843 944.303 447.609 946.548C437.375 948.793 426.765 948.688 416.578 946.242C406.39 943.796 396.89 939.072 388.79 932.426C380.691 925.779 374.204 917.383 369.818 907.869C365.431 898.354 363.258 887.969 363.462 877.494C363.667 867.018 366.244 856.726 370.999 847.39" stroke="#592D3D" stroke-width="12" stroke-miterlimit="10"/>
<path d="M371 847.39C374.787 839.991 379.867 833.33 386 827.72Z" fill="#FBE8B3"/>
<path d="M365.652 844.66C366.53 842.58 367.666 840.618 369.032 838.82C370.388 837.02 371.904 835.346 373.562 833.82C374.402 833.06 375.252 832.32 376.142 831.63C377.026 830.915 377.966 830.273 378.952 829.71C381.086 828.479 383.49 827.792 385.952 827.71C385.693 830.051 385.104 832.344 384.202 834.52C383.812 835.52 383.372 836.4 382.912 837.29L381.612 839.96C380.762 841.72 379.922 843.45 379.062 845.15C378.23 846.864 377.309 848.533 376.302 850.15L365.652 844.66Z" fill="#592D3D"/>
<path d="M489.332 838.82C497.63 850.507 502.083 864.487 502.072 878.82Z" fill="#FBE8B3"/>
<path d="M489.332 838.82C492.746 840.671 495.712 843.248 498.022 846.37C499.172 847.888 500.208 849.489 501.122 851.16C502.052 852.83 502.892 854.55 503.672 856.31C505.207 859.846 506.366 863.532 507.132 867.31C507.909 871.101 508.225 874.973 508.072 878.84H496.072C495.882 875.59 495.712 872.36 495.372 869.11C495.032 865.86 494.602 862.63 493.972 859.37L493.472 856.93L492.892 854.48C492.472 852.85 492.022 851.22 491.602 849.55C490.657 846.016 489.9 842.434 489.332 838.82Z" fill="#592D3D"/>
<path d="M641.651 878.86C641.662 869.372 639.719 859.983 635.945 851.278C632.17 842.572 626.644 834.737 619.711 828.26" fill="#FBE8B3"/>
<path d="M635.651 878.86C635.49 874.552 635.07 870.257 634.391 866C633.689 861.7 632.646 857.464 631.271 853.33C630.931 852.33 630.531 851.26 630.161 850.22C629.791 849.18 629.321 848.17 628.911 847.13C628.501 846.09 627.971 845.13 627.531 844.08L626.071 841.08C624.071 836.98 621.901 832.89 619.711 828.33C624.345 830.307 628.51 833.241 631.931 836.94C632.761 837.88 633.631 838.8 634.401 839.79C635.171 840.78 635.941 841.79 636.651 842.79C637.361 843.79 638.081 844.88 638.721 845.97C639.361 847.06 640.031 848.15 640.601 849.29C642.981 853.813 644.795 858.613 646.001 863.58C647.233 868.576 647.778 873.717 647.621 878.86H635.651Z" fill="#592D3D"/>
<path d="M503.001 878.86C502.891 888.031 504.602 897.133 508.036 905.638C511.469 914.143 516.557 921.882 523.003 928.407C529.45 934.931 537.127 940.111 545.59 943.647C554.053 947.182 563.134 949.003 572.306 949.003C581.478 949.003 590.559 947.182 599.022 943.647C607.485 940.111 615.163 934.931 621.609 928.407C628.056 921.882 633.143 914.143 636.577 905.638C640.01 897.133 641.721 888.031 641.611 878.86" stroke="#592D3D" stroke-width="12" stroke-miterlimit="10"/>
<path d="M515.769 838.82C507.475 850.508 503.025 864.488 503.039 878.82Z" fill="#FBE8B3"/>
<path d="M515.772 838.82C515.205 842.441 514.448 846.029 513.502 849.57C513.082 851.24 512.632 852.87 512.212 854.5L511.642 856.95L511.142 859.39C510.512 862.65 510.052 865.89 509.732 869.13C509.412 872.37 509.232 875.61 509.042 878.86H497.002C496.84 874.993 497.156 871.12 497.942 867.33C498.703 863.551 499.863 859.864 501.402 856.33C502.172 854.57 503.012 852.85 503.942 851.18C504.86 849.512 505.896 847.911 507.042 846.39C509.364 843.259 512.344 840.675 515.772 838.82Z" fill="#592D3D"/>
<path d="M383.441 837.55V758.72" stroke="#592D3D" stroke-width="12" stroke-miterlimit="10"/>
<path d="M616.461 837.55V758.72" stroke="#592D3D" stroke-width="12" stroke-miterlimit="10"/>
<path d="M470.5 897.78H524.4V917.48C506.66 911.43 488.69 911.58 470.5 917.48V897.78Z" fill="#85C5E5" stroke="#592D3D" stroke-width="12" stroke-miterlimit="10"/>
<path d="M638.101 878.86C638.126 861.305 631.464 844.399 619.471 831.58C615.251 827.06 575.201 837.77 551.661 858.84C528.551 879.53 508.431 913.33 511.311 917.59C519.607 929.903 531.637 939.226 545.63 944.187C559.624 949.148 574.84 949.485 589.039 945.148C603.238 940.81 615.669 932.028 624.501 920.095C633.334 908.161 638.101 893.707 638.101 878.86Z" fill="#85C5E5" stroke="#592D3D" stroke-width="12" stroke-miterlimit="10"/>
<path d="M598.112 848.39C591.992 852.06 585.962 855.57 580.112 859.39C574.338 863.08 568.816 867.149 563.582 871.57C558.432 876.03 553.472 880.89 548.582 885.83C543.692 890.77 538.892 895.83 533.832 900.9C536.9 894.462 540.648 888.371 545.012 882.73C549.369 877.001 554.298 871.731 559.722 867C565.241 862.329 571.338 858.386 577.862 855.27C584.289 852.118 591.095 849.805 598.112 848.39Z" fill="white"/>
<path d="M361.902 878.86C361.877 861.305 368.539 844.399 380.532 831.58C384.752 827.06 424.802 837.77 448.342 858.84C471.452 879.53 491.572 913.33 488.692 917.59C480.396 929.903 468.366 939.226 454.373 944.187C440.38 949.148 425.163 949.485 410.964 945.148C396.765 940.81 384.334 932.028 375.502 920.095C366.669 908.161 361.902 893.707 361.902 878.86Z" fill="#85C5E5" stroke="#592D3D" stroke-width="12" stroke-miterlimit="10"/>
<path d="M455.751 938.92C433.112 938.92 411.4 929.927 395.392 913.919C379.384 897.911 370.391 876.199 370.391 853.56C370.391 850.651 370.537 847.744 370.831 844.85C363.312 858.198 360.428 873.662 362.629 888.823C364.831 903.984 371.993 917.989 382.997 928.648C394.002 939.307 408.227 946.02 423.451 947.738C438.675 949.455 454.038 946.08 467.141 938.14C463.366 938.653 459.561 938.914 455.751 938.92Z" fill="#67B7D6"/>
<path d="M361.902 878.86C361.877 861.305 368.539 844.399 380.532 831.58C384.752 827.06 424.802 837.77 448.342 858.84C471.452 879.53 491.572 913.33 488.692 917.59C480.396 929.903 468.366 939.226 454.373 944.187C440.38 949.148 425.163 949.485 410.964 945.148C396.765 940.81 384.334 932.028 375.502 920.095C366.669 908.161 361.902 893.707 361.902 878.86Z" stroke="#592D3D" stroke-width="12" stroke-miterlimit="10"/>
<path d="M401.891 848.39C408.907 849.802 415.713 852.111 422.141 855.26C428.666 858.38 434.762 862.325 440.281 867C445.683 871.727 450.592 876.991 454.931 882.71C459.295 888.351 463.043 894.442 466.111 900.88C461.051 895.88 456.271 890.75 451.361 885.81C446.451 880.87 441.521 876.01 436.361 871.55C431.126 867.129 425.604 863.06 419.831 859.37C414.001 855.57 408.001 852.06 401.891 848.39Z" fill="white"/>
<path d="M677.8 906.35C678.01 869.24 676.59 836.28 670.07 810.96C660 785.6 641.89 770.48 610 770.48L632.79 905C632.79 905 655.31 915.24 677.8 906.35Z" fill="#EDD494"/>
<path d="M686.411 895.79C685.27 896.732 684.029 897.547 682.711 898.22" stroke="#592D3D" stroke-width="12" stroke-miterlimit="10" stroke-linecap="square"/>
<path d="M326.109 809.88C319.279 835.45 318.109 869.01 318.369 906.88C338.269 915.42 368.789 904.73 368.789 904.73L386.119 772.49C355.249 772.46 336.849 786.36 326.109 809.88Z" fill="#EDD494"/>
<path d="M613.762 758.72H559.552V758.82C559.553 763.322 559.07 767.811 558.112 772.21C557.646 774.35 557.065 776.463 556.372 778.54C554.159 784.744 550.763 790.46 546.372 795.37C544.97 796.943 543.467 798.423 541.872 799.8C516.702 818 476.702 819 452.392 799.22C449.773 796.932 447.391 794.386 445.282 791.62C440.903 785.87 437.801 779.253 436.182 772.21C435.708 770.034 435.351 767.834 435.112 765.62C434.862 763.362 434.738 761.092 434.742 758.82V758.72H380.532C377.011 758.723 373.636 760.123 371.148 762.613C368.66 765.103 367.262 768.48 367.262 772V1056.68C367.257 1058.43 367.596 1060.16 368.26 1061.77C368.925 1063.39 369.901 1064.86 371.134 1066.09C372.366 1067.33 373.831 1068.31 375.444 1068.98C377.056 1069.65 378.785 1070 380.532 1070H619.472C622.992 1070 626.367 1068.6 628.856 1066.11C631.344 1063.62 632.742 1060.24 632.742 1056.72V778.6C632.742 766.38 626.852 758.72 613.762 758.72Z" fill="#85C5E5"/>
<path d="M610 758.72C673.54 758.72 683.4 814.72 683.9 891.89C665.3 903.51 634.99 893.2 634.99 893.2L610 758.72Z" fill="#85C5E5"/>
<path d="M632.74 831.87L610 870L621.38 1000H632.99V894.35L650.27 897.24C644.6 825.07 632.74 831.87 632.74 831.87Z" fill="#67B7D6"/>
<path d="M386.12 758.72C324.34 758.72 310.29 812.52 309.27 886.38C328.27 906.24 367.27 890.96 367.27 890.96L386.12 758.72Z" fill="#85C5E5"/>
<path d="M367.232 831.87V891L349.922 895.31C355.592 825.19 367.232 831.87 367.232 831.87Z" fill="#67B7D6"/>
<path d="M610 758.72C677.41 758.72 688.45 815.01 688.9 892.5C662.7 904.93 634.99 893.2 634.99 893.2" stroke="#592D3D" stroke-width="12" stroke-miterlimit="10" stroke-linecap="square"/>
<path d="M386.119 758.72C319.329 758.72 306.039 813.42 305.359 889.44C325.999 904.22 367.219 891 367.219 891" stroke="#592D3D" stroke-width="12" stroke-miterlimit="10" stroke-linecap="square"/>
<path d="M380.532 1070H497.152C388.002 1070 396.242 838.82 367.262 838.82V1056.68C367.257 1058.43 367.596 1060.16 368.26 1061.77C368.925 1063.39 369.901 1064.86 371.134 1066.09C372.366 1067.33 373.831 1068.31 375.444 1068.98C377.056 1069.65 378.785 1070 380.532 1070Z" fill="#67B7D6"/>
<path d="M361.259 860.85C361.069 857.18 361.149 853.51 361.309 849.85C361.469 846.19 361.779 842.5 362.169 838.85C362.369 837.01 362.569 835.18 362.819 833.34C363.069 831.5 363.309 829.67 363.669 827.83C364.378 824.022 365.585 820.323 367.259 816.83C368.934 820.322 370.138 824.021 370.839 827.83C371.209 829.67 371.469 831.5 371.699 833.34C371.929 835.18 372.149 837.01 372.349 838.85C372.729 842.52 373.029 846.19 373.199 849.85C373.369 853.51 373.449 857.19 373.259 860.85H361.259Z" fill="#592D3D"/>
<path d="M632.742 870V878C633.002 912 633.002 947 632.742 980.75C632.742 983.62 632.742 986.47 632.742 989.28V1056.69C632.746 1058.44 632.405 1060.16 631.74 1061.78C631.075 1063.39 630.099 1064.86 628.866 1066.1C627.634 1067.33 626.17 1068.31 624.558 1068.98C622.946 1069.65 621.217 1070 619.472 1070H380.532C377.011 1070 373.636 1068.6 371.148 1066.11C368.659 1063.62 367.262 1060.24 367.262 1056.72V998.52C367.262 996.01 367.262 993.45 367.262 990.87C367.012 956 367.012 921 367.262 885.57V860.85" stroke="#592D3D" stroke-width="12" stroke-miterlimit="10"/>
<path d="M626.74 870C626.55 865.83 626.64 861.65 626.8 857.47C626.96 853.29 627.27 849.12 627.65 844.94C627.85 842.85 628.06 840.76 628.3 838.67C628.54 836.58 628.79 834.5 629.16 832.41C629.848 828.105 631.05 823.899 632.74 819.88C634.428 823.9 635.633 828.106 636.33 832.41C636.69 834.5 636.95 836.59 637.18 838.67C637.41 840.75 637.63 842.85 637.83 844.94C638.21 849.12 638.52 853.29 638.68 857.47C638.84 861.65 638.93 865.83 638.74 870H626.74Z" fill="#592D3D"/>
<path d="M380.531 758.82L613.761 758.72" stroke="#592D3D" stroke-width="12" stroke-miterlimit="10"/>
<path d="M559.552 758.82C559.554 763.322 559.071 767.811 558.112 772.21C557.646 774.35 557.066 776.463 556.372 778.54C554.16 784.744 550.764 790.46 546.372 795.37C544.971 796.943 543.467 798.423 541.872 799.8C516.702 818 476.702 819 452.392 799.22C449.773 796.932 447.391 794.386 445.282 791.62C440.904 785.87 437.802 779.253 436.182 772.21C435.708 770.034 435.351 767.834 435.112 765.62C434.862 763.362 434.739 761.092 434.742 758.82" stroke="#592D3D" stroke-width="12" stroke-miterlimit="10"/>
<path d="M503.399 828.39C497.35 829.607 491.161 829.977 485.009 829.49C478.802 829.054 472.681 827.789 466.809 825.73C460.902 823.705 455.338 820.792 450.309 817.09L448.449 815.68C447.839 815.2 447.249 814.68 446.659 814.16C445.471 813.149 444.358 812.052 443.329 810.88C441.276 808.573 439.473 806.056 437.949 803.37C440.089 805.515 442.338 807.548 444.689 809.46C445.269 809.94 445.859 810.41 446.439 810.86C447.019 811.31 447.669 811.68 448.279 812.1C448.889 812.52 449.499 812.94 450.129 813.33L452.039 814.49C457.141 817.512 462.535 820.012 468.139 821.95C473.755 823.914 479.525 825.402 485.389 826.4C491.354 827.376 497.365 828.04 503.399 828.39Z" fill="#592D3D"/>
<path d="M307.832 892.5C308.969 893.537 310.201 894.464 311.512 895.27" stroke="#592D3D" stroke-width="12" stroke-miterlimit="10" stroke-linecap="square"/>
<path d="M674.699 882.69C672.618 883.935 670.327 884.789 667.939 885.21C665.568 885.676 663.155 885.894 660.739 885.86C658.327 885.813 655.924 885.548 653.559 885.07C652.379 884.86 651.229 884.51 650.069 884.2C648.909 883.89 647.799 883.43 646.699 882.96C647.909 882.96 649.079 883.14 650.259 883.24L653.779 883.53C654.949 883.53 656.109 883.73 657.279 883.74C658.449 883.75 659.599 883.85 660.759 883.86C663.093 883.9 665.426 883.837 667.759 883.67C670.093 883.508 672.412 883.181 674.699 882.69Z" fill="#592D3D"/>
<path d="M566.881 917.83C566.881 908.97 555.781 900.57 538.771 895.36C542.701 878.02 540.951 864.23 533.261 859.81C531.468 858.621 529.326 858.071 527.181 858.25C519.181 858.38 509.871 863.6 499.951 872.87C490.001 863.65 479.001 858.2 472.711 858.36C469.551 858.45 468.341 858.88 466.551 859.92C458.881 864.33 457.171 878.1 461.121 895.39C444.121 900.62 433.121 909 433.121 917.83C433.121 926.66 444.221 935.09 461.231 940.3C457.301 957.64 459.051 971.43 466.741 975.85C468.61 976.902 470.727 977.43 472.871 977.38C480.371 977.38 490.181 972.03 500.111 962.76C510.031 971.98 519.851 977.27 527.351 977.27C529.504 977.317 531.63 976.789 533.511 975.74C541.171 971.32 542.891 957.55 538.931 940.27C555.841 935.06 566.881 926.66 566.881 917.83ZM527.161 864.34C528.238 864.309 529.305 864.553 530.261 865.05C533.971 867.18 535.581 875.28 534.331 885.69C534.031 888.25 533.541 890.95 532.941 893.69C527.24 892.309 521.454 891.307 515.621 890.69C512.149 885.899 508.361 881.346 504.281 877.06C513.161 868.87 521.491 864.35 527.161 864.34ZM475.841 931.79C477.121 933.97 478.431 936.097 479.771 938.17C475.901 937.6 472.161 936.89 468.591 936.02C469.591 932.5 470.851 928.87 472.271 925.25C473.391 927.43 474.561 929.61 475.841 931.79ZM468.511 899.64C472.081 898.8 475.841 898.06 479.741 897.49C478.411 899.59 477.071 901.74 475.821 903.95C474.571 906.16 473.391 908.31 472.271 910.49C470.838 906.938 469.583 903.317 468.511 899.64ZM475.461 917.91C477.151 914.26 479.061 910.6 481.111 907.03C483.161 903.46 485.411 899.86 487.681 896.62C491.741 896.26 495.861 896.07 500.001 896.07C504.141 896.07 508.231 896.26 512.271 896.59C514.531 899.83 516.741 903.3 518.871 906.95C521.001 910.6 522.871 914.15 524.541 917.8C522.821 921.46 520.941 925.11 518.891 928.68C516.841 932.25 514.591 935.85 512.321 939.1C508.261 939.45 504.141 939.64 500.001 939.64C495.861 939.64 491.771 939.45 487.731 939.12C485.471 935.88 483.261 932.42 481.131 928.76C479.001 925.1 477.181 921.56 475.461 917.91ZM524.161 931.71C525.411 929.53 526.581 927.32 527.701 925.14C529.135 928.695 530.39 932.319 531.461 936C527.891 936.87 524.131 937.61 520.231 938.18C521.571 936.07 522.901 933.92 524.161 931.71ZM524.161 903.87C522.911 901.69 521.571 899.56 520.231 897.49C524.111 898.057 527.838 898.773 531.411 899.64C530.411 903.16 529.151 906.79 527.731 910.41C526.581 908.23 525.411 906.05 524.131 903.87H524.161ZM507.501 890.15C505.041 890.05 502.501 889.96 500.001 889.96C497.501 889.96 494.901 890.02 492.421 890.15C494.761 887.109 497.265 884.198 499.921 881.43C502.593 884.207 505.123 887.117 507.501 890.15ZM469.571 865.15C470.535 864.636 471.62 864.39 472.711 864.44C478.351 864.44 486.711 868.94 495.611 877.15C491.553 881.422 487.79 885.966 484.351 890.75C478.51 891.354 472.716 892.357 467.011 893.75C466.381 891.03 465.921 888.38 465.591 885.85C464.311 875.43 465.891 867.33 469.571 865.18V865.15ZM462.701 934.38C460.001 933.53 457.441 932.6 455.071 931.6C445.411 927.48 439.171 922.08 439.171 917.8C439.171 913.52 445.411 908.09 455.071 904C457.411 903 459.971 902.09 462.621 901.25C464.287 906.915 466.335 912.461 468.751 917.85C466.364 923.227 464.343 928.76 462.701 934.41V934.38ZM472.821 971.29C471.75 971.307 470.691 971.056 469.741 970.56C466.031 968.43 464.421 960.33 465.671 949.92C465.971 947.35 466.461 944.66 467.061 941.92C472.761 943.306 478.547 944.308 484.381 944.92C487.851 949.716 491.639 954.273 495.721 958.56C486.831 966.8 478.491 971.32 472.821 971.32V971.29ZM500.051 954.2C497.379 951.419 494.849 948.506 492.471 945.47C494.931 945.58 497.471 945.66 499.971 945.66C502.471 945.66 505.071 945.61 507.551 945.47C505.212 948.524 502.708 951.448 500.051 954.23V954.2ZM530.431 970.45C529.467 970.964 528.383 971.21 527.291 971.16C521.651 971.16 513.291 966.66 504.391 958.45C508.45 954.178 512.212 949.634 515.651 944.85C521.493 944.246 527.286 943.243 532.991 941.85C533.605 944.466 534.079 947.113 534.411 949.78C535.691 960.23 534.111 968.32 530.431 970.48V970.45ZM544.911 931.6C542.561 932.6 540.001 933.5 537.351 934.35C535.683 928.682 533.635 923.133 531.221 917.74C533.594 912.376 535.599 906.857 537.221 901.22C539.921 902.07 542.481 902.99 544.881 904C554.541 908.12 560.781 913.52 560.781 917.8C560.781 922.08 554.561 927.54 544.911 931.63V931.6Z" fill="black" stroke="white" stroke-width="16"/>
<path d="M499.972 930.29C506.853 930.29 512.432 924.711 512.432 917.83C512.432 910.949 506.853 905.37 499.972 905.37C493.09 905.37 487.512 910.949 487.512 917.83C487.512 924.711 493.09 930.29 499.972 930.29Z" fill="black" stroke="white" stroke-width="24"/>
<path d="M566.881 917.83C566.881 908.97 555.781 900.57 538.771 895.36C542.701 878.02 540.951 864.23 533.261 859.81C531.468 858.621 529.326 858.071 527.181 858.25C519.181 858.38 509.871 863.6 499.951 872.87C490.001 863.65 479.001 858.2 472.711 858.36C469.551 858.45 468.341 858.88 466.551 859.92C458.881 864.33 457.171 878.1 461.121 895.39C444.121 900.62 433.121 909 433.121 917.83C433.121 926.66 444.221 935.09 461.231 940.3C457.301 957.64 459.051 971.43 466.741 975.85C468.61 976.902 470.727 977.43 472.871 977.38C480.371 977.38 490.181 972.03 500.111 962.76C510.031 971.98 519.851 977.27 527.351 977.27C529.504 977.317 531.63 976.789 533.511 975.74C541.171 971.32 542.891 957.55 538.931 940.27C555.841 935.06 566.881 926.66 566.881 917.83ZM527.161 864.34C528.238 864.309 529.305 864.553 530.261 865.05C533.971 867.18 535.581 875.28 534.331 885.69C534.031 888.25 533.541 890.95 532.941 893.69C527.24 892.309 521.454 891.307 515.621 890.69C512.149 885.899 508.361 881.346 504.281 877.06C513.161 868.87 521.491 864.35 527.161 864.34ZM475.841 931.79C477.121 933.97 478.431 936.097 479.771 938.17C475.901 937.6 472.161 936.89 468.591 936.02C469.591 932.5 470.851 928.87 472.271 925.25C473.391 927.43 474.561 929.61 475.841 931.79ZM468.511 899.64C472.081 898.8 475.841 898.06 479.741 897.49C478.411 899.59 477.071 901.74 475.821 903.95C474.571 906.16 473.391 908.31 472.271 910.49C470.838 906.938 469.583 903.317 468.511 899.64ZM475.461 917.91C477.151 914.26 479.061 910.6 481.111 907.03C483.161 903.46 485.411 899.86 487.681 896.62C491.741 896.26 495.861 896.07 500.001 896.07C504.141 896.07 508.231 896.26 512.271 896.59C514.531 899.83 516.741 903.3 518.871 906.95C521.001 910.6 522.871 914.15 524.541 917.8C522.821 921.46 520.941 925.11 518.891 928.68C516.841 932.25 514.591 935.85 512.321 939.1C508.261 939.45 504.141 939.64 500.001 939.64C495.861 939.64 491.771 939.45 487.731 939.12C485.471 935.88 483.261 932.42 481.131 928.76C479.001 925.1 477.181 921.56 475.461 917.91ZM524.161 931.71C525.411 929.53 526.581 927.32 527.701 925.14C529.135 928.695 530.39 932.319 531.461 936C527.891 936.87 524.131 937.61 520.231 938.18C521.571 936.07 522.901 933.92 524.161 931.71ZM524.161 903.87C522.911 901.69 521.571 899.56 520.231 897.49C524.111 898.057 527.838 898.773 531.411 899.64C530.411 903.16 529.151 906.79 527.731 910.41C526.581 908.23 525.411 906.05 524.131 903.87H524.161ZM507.501 890.15C505.041 890.05 502.501 889.96 500.001 889.96C497.501 889.96 494.901 890.02 492.421 890.15C494.761 887.109 497.265 884.198 499.921 881.43C502.593 884.207 505.123 887.117 507.501 890.15ZM469.571 865.15C470.535 864.636 471.62 864.39 472.711 864.44C478.351 864.44 486.711 868.94 495.611 877.15C491.553 881.422 487.79 885.966 484.351 890.75C478.51 891.354 472.716 892.357 467.011 893.75C466.381 891.03 465.921 888.38 465.591 885.85C464.311 875.43 465.891 867.33 469.571 865.18V865.15ZM462.701 934.38C460.001 933.53 457.441 932.6 455.071 931.6C445.411 927.48 439.171 922.08 439.171 917.8C439.171 913.52 445.411 908.09 455.071 904C457.411 903 459.971 902.09 462.621 901.25C464.287 906.915 466.335 912.461 468.751 917.85C466.364 923.227 464.343 928.76 462.701 934.41V934.38ZM472.821 971.29C471.75 971.307 470.691 971.056 469.741 970.56C466.031 968.43 464.421 960.33 465.671 949.92C465.971 947.35 466.461 944.66 467.061 941.92C472.761 943.306 478.547 944.308 484.381 944.92C487.851 949.716 491.639 954.273 495.721 958.56C486.831 966.8 478.491 971.32 472.821 971.32V971.29ZM500.051 954.2C497.379 951.419 494.849 948.506 492.471 945.47C494.931 945.58 497.471 945.66 499.971 945.66C502.471 945.66 505.071 945.61 507.551 945.47C505.212 948.524 502.708 951.448 500.051 954.23V954.2ZM530.431 970.45C529.467 970.964 528.383 971.21 527.291 971.16C521.651 971.16 513.291 966.66 504.391 958.45C508.45 954.178 512.212 949.634 515.651 944.85C521.493 944.246 527.286 943.243 532.991 941.85C533.605 944.466 534.079 947.113 534.411 949.78C535.691 960.23 534.111 968.32 530.431 970.48V970.45ZM544.911 931.6C542.561 932.6 540.001 933.5 537.351 934.35C535.683 928.682 533.635 923.133 531.221 917.74C533.594 912.376 535.599 906.857 537.221 901.22C539.921 902.07 542.481 902.99 544.881 904C554.541 908.12 560.781 913.52 560.781 917.8C560.781 922.08 554.561 927.54 544.911 931.63V931.6Z" fill="#61DAFB"/>
<path d="M499.972 930.29C506.853 930.29 512.432 924.711 512.432 917.83C512.432 910.949 506.853 905.37 499.972 905.37C493.09 905.37 487.512 910.949 487.512 917.83C487.512 924.711 493.09 930.29 499.972 930.29Z" fill="#61DAFB"/>
<path opacity="0.1" d="M426.882 961.63C441.357 961.628 455.469 957.095 467.238 948.666C479.006 940.237 487.841 928.335 492.502 914.63C486.585 924.751 478.255 933.249 468.254 939.366C458.254 945.483 446.894 949.028 435.19 949.686C423.485 950.343 411.8 948.092 401.177 943.134C390.554 938.176 381.324 930.664 374.312 921.27L374.262 936C387.002 951.63 405.152 961.63 426.882 961.63Z" fill="black"/>
<path opacity="0.1" d="M573.12 961.63C558.644 961.628 544.532 957.095 532.764 948.666C520.995 940.237 512.161 928.335 507.5 914.63C513.416 924.751 521.747 933.249 531.747 939.366C541.748 945.483 553.108 949.028 564.812 949.686C576.517 950.343 588.202 948.092 598.825 943.134C609.448 938.176 618.677 930.664 625.69 921.27V935.99C613 951.63 594.85 961.63 573.12 961.63Z" fill="black"/>
<path d="M407.002 943.81C396.331 939.827 386.805 933.277 379.267 924.737C371.73 916.198 366.412 905.933 363.784 894.85C361.156 883.768 361.3 872.208 364.202 861.194C367.104 850.179 372.674 840.05 380.422 831.7" fill="#85C5E5"/>
<path d="M406.999 943.81C395.176 941.88 384.258 936.283 375.789 927.81L374.169 926.21C373.639 925.67 373.169 925.08 372.639 924.52C372.109 923.96 371.639 923.37 371.159 922.79C370.652 922.219 370.174 921.621 369.729 921C368.829 919.77 367.919 918.54 367.049 917.28L364.679 913.35C361.688 907.965 359.431 902.204 357.969 896.22C356.61 890.22 356.042 884.068 356.279 877.92C356.551 871.812 357.696 865.774 359.679 859.99C359.939 859.28 360.169 858.56 360.439 857.85L361.319 855.75C361.869 854.35 362.579 853.01 363.229 851.66C364.619 849.003 366.203 846.453 367.969 844.03C368.819 842.82 369.789 841.68 370.719 840.54C371.649 839.4 372.659 838.31 373.719 837.31C375.786 835.244 378.039 833.373 380.449 831.72C374.659 841.72 370.549 851.91 368.789 862.39C367.874 867.541 367.479 872.77 367.609 878C367.802 883.187 368.471 888.346 369.609 893.41C370.842 898.446 372.556 903.352 374.729 908.06C376.951 912.816 379.659 917.33 382.809 921.53C385.996 925.871 389.618 929.876 393.619 933.48C397.82 937.247 402.292 940.7 406.999 943.81Z" fill="#592D3D"/>
<path d="M593.051 943.81C603.718 939.822 613.239 933.267 620.771 924.726C628.303 916.184 633.615 905.918 636.238 894.836C638.861 883.754 638.713 872.196 635.807 861.184C632.902 850.173 627.329 840.046 619.581 831.7" fill="#85C5E5"/>
<path d="M593.051 943.81C597.746 940.711 602.209 937.272 606.401 933.52C610.402 929.916 614.024 925.911 617.211 921.57C620.361 917.37 623.069 912.856 625.291 908.1C627.463 903.392 629.178 898.486 630.411 893.45C631.549 888.386 632.218 883.227 632.411 878.04C632.555 872.791 632.17 867.541 631.261 862.37C629.501 851.89 625.391 841.73 619.601 831.7C622.011 833.353 624.264 835.224 626.331 837.29C627.411 838.29 628.331 839.43 629.331 840.52C630.331 841.61 631.231 842.8 632.081 844.01C633.847 846.433 635.431 848.983 636.821 851.64C637.471 852.99 638.181 854.33 638.731 855.73L639.611 857.83C639.881 858.54 640.111 859.26 640.371 859.97C642.354 865.754 643.499 871.792 643.771 877.9C644.008 884.048 643.44 890.2 642.081 896.2C640.619 902.184 638.362 907.945 635.371 913.33L633.001 917.26C632.131 918.52 631.221 919.75 630.321 920.98C629.876 921.601 629.398 922.199 628.891 922.77C628.401 923.35 627.891 923.93 627.411 924.5C626.931 925.07 626.411 925.65 625.881 926.19L624.261 927.79C615.795 936.27 604.877 941.875 593.051 943.81Z" fill="#592D3D"/>
<path d="M271.401 568.53C270.401 540.17 289.401 516.17 314.681 504.97C317.336 503.883 320.062 502.981 322.841 502.27C336.856 498.806 351.599 499.759 365.051 505C368.12 506.18 371.103 507.57 373.981 509.16C403.511 525.05 416.771 562.41 405.341 592.62C404.183 595.666 402.785 598.615 401.161 601.44C397.173 609.748 391.15 616.913 383.651 622.27C381.149 624.111 378.527 625.781 375.801 627.27C348.421 640.27 311.421 636.27 289.351 615.87C287.141 613.527 285.099 611.031 283.241 608.4C281.118 605.397 279.255 602.219 277.671 598.9C274.318 592.095 272.389 584.677 272.001 577.1C271.639 574.257 271.439 571.396 271.401 568.53Z" fill="#EDD494"/>
<path d="M269.772 550.18C268.772 521.82 287.772 497.82 313.052 486.62C315.703 485.533 318.427 484.631 321.202 483.92C335.215 480.438 349.962 481.374 363.422 486.6C366.487 487.78 369.468 489.17 372.342 490.76C401.872 506.65 415.132 544.02 403.702 574.22C402.552 577.269 401.154 580.219 399.522 583.04C398.14 585.749 396.566 588.356 394.812 590.84C393.084 593.302 391.186 595.641 389.132 597.84C386.912 600.037 384.532 602.066 382.012 603.91C379.512 605.753 376.889 607.424 374.162 608.91C346.782 621.91 309.782 617.91 287.722 597.52C285.511 595.174 283.47 592.674 281.612 590.04C279.487 587.037 277.62 583.859 276.032 580.54C272.67 573.761 270.727 566.366 270.322 558.81C269.964 555.947 269.781 553.065 269.772 550.18Z" fill="white" stroke="#592D3D" stroke-width="12" stroke-miterlimit="10"/>
<path d="M338.51 563.03C345.27 563.03 350.75 557.55 350.75 550.79C350.75 544.03 345.27 538.55 338.51 538.55C331.75 538.55 326.27 544.03 326.27 550.79C326.27 557.55 331.75 563.03 338.51 563.03Z" fill="#592D3D"/>
<path d="M583.89 560.47C584.32 545.34 590.56 530.38 598.99 519.14C601.143 516.12 603.523 513.268 606.11 510.61C617.61 498.622 633.013 491.133 649.543 489.492C666.074 487.852 682.648 492.166 696.28 501.66C698.552 503.245 700.732 504.958 702.81 506.79C729.81 528.24 732.93 569.93 718.13 600.02C716.692 602.411 715.096 604.703 713.35 606.88C711.037 609.781 708.503 612.499 705.77 615.01C685.5 632.84 653.96 637.14 628.36 627.43C624.713 626.054 621.185 624.382 617.81 622.43C599.91 611.65 587.44 591.34 584.38 570.2C583.966 566.974 583.802 563.721 583.89 560.47Z" fill="#EDD494"/>
<path d="M589.382 549C589.802 534.85 595.802 520.85 603.902 510.34C605.986 507.506 608.279 504.832 610.762 502.34C622.013 491.101 636.821 484.123 652.651 482.602C668.481 481.08 684.347 485.11 697.532 494C699.714 495.477 701.811 497.076 703.812 498.79C729.812 518.86 732.812 557.86 718.552 586.01C717.17 588.255 715.633 590.4 713.952 592.43C711.72 595.146 709.282 597.686 706.662 600.03C687.152 616.71 656.802 620.74 632.172 611.65C628.658 610.346 625.257 608.758 622.002 606.9C604.782 596.82 592.782 577.82 589.832 558.05C589.439 555.05 589.289 552.024 589.382 549Z" fill="white" stroke="#592D3D" stroke-width="12" stroke-miterlimit="10"/>
<path d="M659.209 563.03C665.969 563.03 671.449 557.55 671.449 550.79C671.449 544.03 665.969 538.55 659.209 538.55C652.449 538.55 646.969 544.03 646.969 550.79C646.969 557.55 652.449 563.03 659.209 563.03Z" fill="#592D3D"/>
<path fill-rule="evenodd" clip-rule="evenodd" d="M243.891 484.13C249.531 499.96 264.791 508.19 277.291 511.07C290.351 490.83 333.941 482.15 366.661 493.63C394.461 498.63 355.851 468.06 294.191 484.63C291.881 485.48 279.631 487.58 263.911 475.44C261.721 473.75 268.591 489.15 276.411 495.44C265.061 495.21 263.201 495.22 243.891 484.13Z" fill="#592D3D"/>
<path fill-rule="evenodd" clip-rule="evenodd" d="M721.209 495.43C729.029 489.18 735.899 473.78 733.709 475.43C717.989 487.57 705.709 485.43 703.429 484.62C641.769 468.02 603.149 498.62 630.949 493.62C663.679 482.14 707.269 490.82 720.329 511.06C732.829 508.18 748.089 499.95 753.729 484.12C734.419 495.22 732.559 495.21 721.209 495.43Z" fill="#592D3D"/>
<path d="M463.75 593.17C479.3 593.17 488.87 605.93 500.24 605.93C511.61 605.93 526.15 593.17 541.51 593.17C556.87 593.17 565.23 604.29 565.23 619.69C565.23 636.34 548.48 665.69 502.63 665.69C456.78 665.69 437.23 637.95 437.23 620.24C437.23 603.89 448.2 593.17 463.75 593.17Z" fill="white" stroke="#592D3D" stroke-width="12" stroke-miterlimit="10"/>
<path d="M477.852 596.6V662.1" stroke="#592D3D" stroke-width="12" stroke-miterlimit="10"/>
<path d="M526.992 596.6V662.1" stroke="#592D3D" stroke-width="12" stroke-miterlimit="10"/>
<path d="M558.729 399.34C545.869 423.34 498.729 436.78 494.899 430.76C490.609 424.03 532.749 375.44 508.799 324.62" fill="#EDD494"/>
<path d="M784.002 342.85C778.902 337.75 752.942 344.68 726.812 342.62C701.208 307.848 667.936 279.445 629.577 259.615C591.218 239.786 548.805 229.063 505.632 228.28C503.192 207.8 504.882 190.6 503.022 188.18C500.532 184.96 487.532 200.86 484.152 219.18C472.242 204.18 452.012 196.18 451.432 200.38C451.052 203.06 458.872 214.47 466.242 230.28C354.642 243.75 263.162 322.54 231.162 427.28C217.302 439.2 204.302 447.62 204.162 452.97C203.892 462.89 243.472 462.33 260.742 460.79V460.73C321.392 458.73 439.742 446.95 497.162 387.84C491.642 406.93 481.472 421 483.432 424C486.432 428.67 521.752 418.81 533.502 400.76C581.502 420.35 672.992 443.92 752.502 384.6L752.282 384.17C766.772 372.06 790.352 349.25 784.002 342.85Z" fill="#85C5E5"/>
<path d="M726.852 348.62C721.452 348.86 716.192 348.73 710.852 348.48C705.512 348.23 700.262 347.81 694.982 347.22C692.342 346.93 689.702 346.62 687.072 346.22C684.442 345.82 681.802 345.5 679.182 344.99C673.843 344.03 668.62 342.509 663.602 340.45C668.847 339.107 674.201 338.23 679.602 337.83C682.232 337.61 684.862 337.46 687.492 337.35L695.372 337.01C700.622 336.79 705.862 336.67 711.092 336.56C716.322 336.45 721.572 336.44 726.712 336.56L726.852 348.62Z" fill="#592D3D"/>
<path d="M236.599 430C236.599 430 236.599 430.24 236.599 430.39L236.479 430.92L236.199 432.03C235.989 432.78 235.769 433.55 235.539 434.32C235.069 435.87 234.539 437.46 233.999 439.07C233.459 440.68 232.939 442.35 232.229 444.07C231.832 444.968 231.371 445.837 230.849 446.67C230.25 447.658 229.557 448.586 228.779 449.44C227.093 447.964 225.812 446.081 225.059 443.97C224.716 443.029 224.462 442.058 224.299 441.07C224.089 440.07 223.989 439.07 223.869 438.12C223.669 436.125 223.669 434.115 223.869 432.12C223.967 431.111 224.127 430.109 224.349 429.12C224.469 428.62 224.599 428.12 224.759 427.61C224.836 427.349 224.926 427.092 225.029 426.84C225.129 426.56 225.209 426.36 225.389 425.94L236.599 430Z" fill="#592D3D"/>
<path d="M260.742 460.82V460.76C277.742 460.2 299.372 458.86 322.882 455.92C325.512 400 344.882 334.34 388.802 257.48L382.002 254.23C346.132 270.896 314.167 294.917 288.181 324.734C262.195 354.552 242.768 389.499 231.162 427.31C217.302 439.23 204.302 447.65 204.162 453C203.892 462.92 243.472 462.36 260.742 460.82Z" fill="#67B7D6"/>
<path d="M784.002 342.85C778.902 337.75 752.942 344.68 726.812 342.62C701.208 307.848 667.936 279.445 629.577 259.615C591.218 239.786 548.805 229.063 505.632 228.28C503.192 207.8 504.882 190.6 503.022 188.18C500.532 184.96 487.532 200.86 484.152 219.18C472.242 204.18 452.012 196.18 451.432 200.38C451.052 203.06 458.872 214.47 466.242 230.28C354.642 243.75 263.162 322.54 231.162 427.28C217.302 439.2 204.302 447.62 204.162 452.97C203.892 462.89 243.472 462.33 260.742 460.79V460.73C321.392 458.73 439.742 446.95 497.162 387.84C491.642 406.93 481.472 421 483.432 424C486.432 428.67 521.752 418.81 533.502 400.76C581.502 420.35 672.992 443.92 752.502 384.6L752.282 384.17C766.772 372.06 790.352 349.25 784.002 342.85Z" stroke="#592D3D" stroke-width="12" stroke-miterlimit="10"/>
<path d="M505.93 244.31C491.686 245.13 477.502 246.78 463.45 249.25C459.97 249.92 456.5 250.66 453.01 251.3C449.52 251.94 446.11 252.91 442.66 253.71L432.4 256.43C429 257.43 425.63 258.51 422.25 259.55C408.767 263.898 395.594 269.153 382.82 275.28C369.985 281.51 357.545 288.524 345.57 296.28C356.236 286.552 368.011 278.114 380.65 271.14C393.3 264.077 406.618 258.285 420.41 253.85C423.89 252.85 427.35 251.76 430.83 250.8C434.31 249.84 437.83 248.98 441.38 248.2C444.93 247.42 448.48 246.8 452.04 246.2C455.6 245.6 459.19 245.13 462.77 244.68C477.096 242.918 491.576 242.793 505.93 244.31Z" fill="white"/>
<path d="M407.291 474.84H286.651C281.091 474.84 275.531 474.76 269.971 474.84H269.731C264.501 474.84 259.491 479.44 259.731 484.84C259.775 487.479 260.842 489.997 262.708 491.863C264.574 493.729 267.092 494.796 269.731 494.84H390.371C395.921 494.84 401.491 494.92 407.051 494.84H407.291C412.521 494.84 417.531 490.24 417.291 484.84C417.245 482.202 416.176 479.686 414.311 477.82C412.445 475.955 409.929 474.886 407.291 474.84Z" fill="#592D3D"/>
<path d="M726.322 474.84H605.682C600.122 474.84 594.562 474.76 589.002 474.84H588.762C583.532 474.84 578.522 479.44 578.762 484.84C578.806 487.479 579.874 489.997 581.739 491.863C583.605 493.729 586.124 494.796 588.762 494.84H709.402C714.962 494.84 720.522 494.92 726.082 494.84H726.322C731.552 494.84 736.562 490.24 736.322 484.84C736.276 482.202 735.208 479.686 733.342 477.82C731.477 475.955 728.96 474.886 726.322 474.84Z" fill="#592D3D"/>
</g>
</svg>
