<svg width="1000" height="990" viewBox="0 0 1000 990" fill="none" xmlns="http://www.w3.org/2000/svg">
<mask id="mask0_22_3951" style="mask-type:luminance" maskUnits="userSpaceOnUse" x="0" y="0" width="1000" height="966">
<path d="M1000 0H0V718.31H179.2C217.58 860.69 346.65 965.41 500 965.41C653.35 965.41 782.42 860.69 820.8 718.31H1000V0Z" fill="white"/>
</mask>
<g mask="url(#mask0_22_3951)">
<path d="M500.001 962.602C683.603 962.602 832.443 813.763 832.443 630.16C832.443 446.557 683.603 297.718 500.001 297.718C316.398 297.718 167.559 446.557 167.559 630.16C167.559 813.763 316.398 962.602 500.001 962.602Z" fill="#85C5E5"/>
<path d="M501.709 209.52C335.569 209.52 200.879 344.2 200.879 510.35V816.78C200.879 982.92 335.569 1117.61 501.709 1117.61C667.849 1117.61 802.539 982.92 802.539 816.78V510.35C802.539 344.2 667.849 209.52 501.709 209.52Z" fill="#A56941" stroke="#592D3D" stroke-width="12" stroke-miterlimit="10"/>
<path d="M610 758.72C700.76 758.72 682 872.96 682.87 1000H610V758.72Z" fill="#FBE8B3"/>
<path d="M632.74 831.87L610 870L621.38 1000H653.14C653.91 819.73 632.74 831.87 632.74 831.87Z" fill="#EDD494"/>
<path d="M233.25 500C233.25 352.68 352.68 233.25 500 233.25C647.32 233.25 766.75 352.68 766.75 500C766.788 539.694 757.949 578.895 740.88 614.731C723.811 650.568 698.945 682.135 668.1 707.12C662.627 711.573 656.98 715.803 651.16 719.81C591 758 515 758 446.39 751.89C439.73 750.89 433.09 749.63 426.5 748.18C400.17 742.38 374.68 733.43 351.13 720.38C345.31 716.793 339.667 712.92 334.2 708.76C328.706 704.576 323.432 700.11 318.4 695.38C313.64 690.96 309.044 686.367 304.61 681.6C258.667 632.299 233.161 567.39 233.25 500Z" fill="#FBE8B3"/>
<path d="M269.612 634.48C270.312 635.68 271.002 636.88 271.722 638.06C272.152 638.78 272.602 639.48 273.052 640.2C273.712 641.27 274.372 642.34 275.052 643.39C275.532 644.15 276.052 644.89 276.512 645.63C277.172 646.63 277.832 647.63 278.512 648.63C279.022 649.39 279.512 650.15 280.072 650.91C280.732 651.91 281.392 652.83 282.072 653.79C282.612 654.56 283.172 655.32 283.722 656.09C284.272 656.86 285.062 657.94 285.722 658.86C286.382 659.78 286.872 660.39 287.452 661.15C288.032 661.91 288.822 662.95 289.522 663.85C290.222 664.75 290.712 665.36 291.312 666.11C291.912 666.86 292.722 667.87 293.432 668.74C294.142 669.61 294.662 670.23 295.282 670.97C295.902 671.71 296.722 672.69 297.452 673.54C298.182 674.39 298.722 675.01 299.362 675.74L301.582 678.24C302.232 678.97 302.892 679.68 303.582 680.4C304.442 681.34 305.312 682.27 306.182 683.19L307.392 684.47C308.682 685.81 309.982 687.15 311.302 688.47L311.562 688.74C312.852 690.02 314.162 691.29 315.472 692.55L317.052 694.05C318.002 694.94 318.952 695.83 319.912 696.71L321.072 697.77C322.072 698.71 323.162 699.63 324.212 700.55C327.478 703.397 330.812 706.127 334.212 708.74C339.672 712.9 345.315 716.773 351.142 720.36C374.692 733.36 400.142 742.36 426.512 748.16C433.102 749.61 439.742 750.86 446.402 751.87C488.502 755.62 533.402 757.05 575.682 748.79C508.452 729 185.592 612.74 388.802 257.48C386.082 258.73 383.402 260.02 380.742 261.36L380.152 261.65C378.932 262.26 377.712 262.89 376.502 263.53L375.502 264.06C371.742 266.06 368.022 268.13 364.372 270.29L363.472 270.82C362.312 271.51 361.162 272.21 360.012 272.92L359.142 273.46C355.568 275.693 352.052 278.003 348.592 280.39L347.512 281.14C346.422 281.9 345.352 282.66 344.282 283.43L343.622 283.9C341.442 285.493 339.288 287.107 337.162 288.74L336.542 289.22C335.542 290 334.542 290.8 333.542 291.61L332.372 292.55C331.372 293.36 330.372 294.17 329.372 295C327.262 296.75 325.182 298.55 323.132 300.37L321.992 301.37L319.302 303.82L318.002 305C315.148 307.667 312.358 310.39 309.632 313.17L308.252 314.58C307.462 315.4 306.672 316.22 305.892 317.05C305.432 317.54 304.972 318.05 304.522 318.53C303.148 319.997 301.795 321.483 300.462 322.99C300.012 323.5 299.552 323.99 299.102 324.53C298.392 325.34 297.692 326.16 296.992 326.98L295.482 328.77C294.802 329.58 294.122 330.39 293.482 331.21C292.942 331.87 292.402 332.54 291.872 333.21C290.802 334.54 289.752 335.87 288.712 337.21C288.172 337.91 287.632 338.61 287.102 339.32C286.572 340.03 285.902 340.91 285.312 341.72C284.722 342.53 284.242 343.17 283.722 343.9C283.202 344.63 282.592 345.45 282.042 346.23C281.095 347.563 280.162 348.913 279.242 350.28C278.742 351.01 278.242 351.76 277.752 352.5C277.262 353.24 276.652 354.16 276.112 355L274.622 357.31L272.942 360.02C272.512 360.71 272.082 361.4 271.662 362.09C270.772 363.55 269.912 365.02 269.052 366.49L267.832 368.65C267.292 369.6 266.752 370.56 266.222 371.52C265.822 372.25 265.422 372.98 265.032 373.71C264.392 374.9 263.762 376.1 263.132 377.3L261.932 379.64C261.292 380.92 260.652 382.19 260.022 383.48C259.692 384.17 259.352 384.87 259.022 385.57C258.502 386.66 258.022 387.76 257.492 388.86C257.182 389.52 256.882 390.18 256.582 390.86C255.842 392.507 255.118 394.173 254.412 395.86C254.192 396.38 253.982 396.91 253.762 397.43C253.232 398.7 252.712 399.97 252.202 401.25C251.932 401.92 251.672 402.59 251.412 403.25C250.912 404.51 250.412 405.78 249.962 407.05C249.752 407.6 249.542 408.15 249.342 408.7C248.715 410.453 248.098 412.207 247.492 413.96L246.932 415.66C246.492 416.993 246.062 418.327 245.642 419.66L245.042 421.57C244.572 423.11 244.112 424.65 243.672 426.2C243.572 426.53 243.472 426.86 243.382 427.2C242.862 429.04 242.362 430.887 241.882 432.74C241.722 433.33 241.582 433.93 241.432 434.52C241.082 435.91 240.742 437.3 240.432 438.7L240.012 440.45C239.582 442.35 239.162 444.25 238.772 446.16L238.622 446.93C238.282 448.63 237.948 450.33 237.622 452.03C237.512 452.64 237.412 453.24 237.302 453.85C237.042 455.34 236.792 456.85 236.562 458.35C236.482 458.86 236.392 459.35 236.322 459.87C236.022 461.82 235.752 463.78 235.492 465.75L235.342 467.05C235.142 468.64 234.962 470.24 234.792 471.84C234.732 472.44 234.662 473.04 234.602 473.65C234.442 475.33 234.292 477.02 234.152 478.71C234.152 479.06 234.092 479.4 234.072 479.71C233.925 481.71 233.795 483.727 233.682 485.76C233.682 486.29 233.682 486.83 233.612 487.36C233.545 488.933 233.485 490.503 233.432 492.07C233.432 492.66 233.432 493.25 233.432 493.84C233.432 495.89 233.352 497.95 233.352 500.01C233.352 500.01 233.352 500.08 233.352 500.11C233.352 502.33 233.352 504.53 233.432 506.73C233.432 507.49 233.492 508.25 233.512 509.01C233.562 510.48 233.612 511.95 233.682 513.42C233.682 514.31 233.792 515.19 233.842 516.08C233.922 517.41 233.992 518.74 234.092 520.08C234.162 521.08 234.252 521.97 234.332 522.91C234.442 524.17 234.542 525.43 234.672 526.68C234.762 527.68 234.882 528.62 234.982 529.59C235.122 530.8 235.252 532.02 235.402 533.23C235.522 534.23 235.662 535.23 235.792 536.18C235.952 537.36 236.112 538.55 236.292 539.73C236.442 540.73 236.602 541.73 236.762 542.73C236.942 543.89 237.132 545.06 237.332 546.22C237.512 547.22 237.692 548.22 237.882 549.22C238.092 550.37 238.312 551.52 238.532 552.66C238.752 553.8 238.942 554.66 239.152 555.66C239.392 556.8 239.632 557.93 239.892 559.06C240.152 560.19 240.332 561.06 240.572 561.99C240.832 563.12 241.112 564.24 241.392 565.35C241.672 566.46 241.882 567.3 242.132 568.26C242.432 569.38 242.732 570.49 243.042 571.6C243.302 572.6 243.572 573.52 243.852 574.47C244.172 575.58 244.502 576.68 244.852 577.78C245.202 578.88 245.432 579.67 245.732 580.62C246.032 581.57 246.432 582.81 246.792 583.9C247.152 584.99 247.412 585.77 247.732 586.7C248.112 587.79 248.492 588.88 248.882 589.97C249.212 590.88 249.532 591.8 249.882 592.71L251.122 595.98C251.472 596.87 251.812 597.77 252.122 598.66C252.562 599.75 253.012 600.85 253.462 601.94C253.822 602.8 254.172 603.67 254.542 604.53C255.012 605.65 255.542 606.75 255.992 607.86C256.362 608.68 256.722 609.51 257.092 610.33C257.612 611.49 258.162 612.63 258.692 613.77L259.772 616.07C260.382 617.33 261.012 618.57 261.642 619.82C261.962 620.45 262.262 621.09 262.592 621.72C264.512 625.46 266.512 629.15 268.592 632.79C268.882 633.26 269.252 633.87 269.612 634.48Z" fill="#EDD494"/>
<path d="M233.25 500C233.25 352.68 352.68 233.25 500 233.25C647.32 233.25 766.75 352.68 766.75 500C766.788 539.694 757.949 578.895 740.88 614.731C723.811 650.568 698.945 682.135 668.1 707.12C662.627 711.573 656.98 715.803 651.16 719.81C591 758 515 758 446.39 751.89C439.73 750.89 433.09 749.63 426.5 748.18C400.17 742.38 374.68 733.43 351.13 720.38C345.31 716.793 339.667 712.92 334.2 708.76C328.706 704.576 323.432 700.11 318.4 695.38C313.64 690.96 309.044 686.367 304.61 681.6C258.667 632.299 233.161 567.39 233.25 500Z" stroke="#592D3D" stroke-width="12" stroke-miterlimit="10"/>
<path d="M386.122 758.72C295.352 758.72 314.122 872.96 313.252 1000H386.122V758.72Z" fill="#FBE8B3"/>
<path d="M367.232 831.87L390.002 870L378.612 1000H346.882C346.072 819.73 367.232 831.87 367.232 831.87Z" fill="#EDD494"/>
<path d="M619.472 1070H380.532C377.011 1070 373.636 1068.6 371.148 1066.11C368.659 1063.62 367.262 1060.24 367.262 1056.72V772C367.262 768.48 368.659 765.103 371.148 762.613C373.636 760.123 377.011 758.723 380.532 758.72H613.762C626.852 758.72 632.762 766.38 632.762 778.6V1056.68C632.767 1058.43 632.427 1060.16 631.761 1061.78C631.096 1063.39 630.117 1064.86 628.883 1066.1C627.648 1067.34 626.181 1068.32 624.566 1068.99C622.951 1069.66 621.22 1070 619.472 1070Z" fill="#FBE8B3"/>
<path d="M629.052 766.62C628.055 765.394 627.212 764.051 626.542 762.62C624.141 760.738 621.284 759.527 618.262 759.11C616.773 758.879 615.268 758.766 613.762 758.77H380.532C377.02 758.773 373.652 760.166 371.165 762.645C368.679 765.125 367.275 768.488 367.262 772C396.262 782.42 450.552 788.24 500.002 788.24C563.062 788.24 604.382 778.89 629.052 766.62Z" fill="#EDD494"/>
<path d="M610 758.72C700.76 758.72 682 872.96 682.87 1000H632.74" stroke="#592D3D" stroke-width="12" stroke-miterlimit="10" stroke-linecap="square"/>
<path d="M386.122 758.72C295.352 758.72 314.122 872.96 313.252 1000H363.322" stroke="#592D3D" stroke-width="12" stroke-miterlimit="10" stroke-linecap="square"/>
<path d="M380.531 758.82L613.761 758.72" stroke="#592D3D" stroke-width="12" stroke-miterlimit="10"/>
<path d="M380.532 1070H497.152C388.002 1070 396.242 838.82 367.262 838.82V1056.68C367.257 1058.43 367.596 1060.16 368.26 1061.77C368.925 1063.39 369.901 1064.86 371.134 1066.09C372.366 1067.33 373.831 1068.31 375.444 1068.98C377.056 1069.65 378.785 1070 380.532 1070Z" fill="#EDD494"/>
<path d="M361.259 860.85C361.069 857.18 361.149 853.51 361.309 849.85C361.469 846.19 361.779 842.5 362.169 838.85C362.369 837.01 362.569 835.18 362.819 833.34C363.069 831.5 363.309 829.67 363.669 827.83C364.378 824.022 365.585 820.324 367.259 816.83C368.933 820.324 370.14 824.022 370.849 827.83C371.209 829.67 371.469 831.5 371.699 833.34C371.929 835.18 372.149 837.01 372.349 838.85C372.729 842.52 373.029 846.19 373.199 849.85C373.369 853.51 373.449 857.19 373.259 860.85H361.259Z" fill="#592D3D"/>
<path d="M632.742 870V878C633.002 912 633.002 947 632.742 980.75C632.742 983.62 632.742 986.47 632.742 989.28V1056.69C632.746 1058.44 632.405 1060.16 631.74 1061.78C631.075 1063.39 630.099 1064.86 628.866 1066.1C627.634 1067.33 626.17 1068.31 624.558 1068.98C622.946 1069.65 621.217 1070 619.472 1070H380.532C377.011 1070 373.636 1068.6 371.148 1066.11C368.659 1063.62 367.262 1060.24 367.262 1056.72V998.52C367.262 996.01 367.262 993.45 367.262 990.87C367.012 956 367.012 921 367.262 885.57V860.85" stroke="#592D3D" stroke-width="12" stroke-miterlimit="10"/>
<path d="M626.74 870C626.55 865.83 626.64 861.65 626.8 857.47C626.96 853.29 627.27 849.12 627.65 844.94C627.85 842.85 628.06 840.76 628.3 838.67C628.54 836.58 628.79 834.5 629.15 832.41C629.847 828.106 631.052 823.9 632.74 819.88C634.428 823.9 635.633 828.106 636.33 832.41C636.69 834.5 636.95 836.59 637.18 838.67C637.41 840.75 637.63 842.85 637.83 844.94C638.21 849.12 638.52 853.29 638.68 857.47C638.84 861.65 638.93 865.83 638.74 870H626.74Z" fill="#592D3D"/>
<path d="M502.069 878.86C502.067 889.337 499.69 899.678 495.117 909.104C490.543 918.53 483.892 926.797 475.663 933.282C467.435 939.768 457.843 944.303 447.609 946.548C437.375 948.793 426.765 948.688 416.578 946.242C406.39 943.796 396.89 939.072 388.79 932.426C380.691 925.779 374.204 917.383 369.818 907.869C365.431 898.354 363.258 887.969 363.462 877.494C363.667 867.018 366.244 856.726 370.999 847.39" stroke="#592D3D" stroke-width="12" stroke-miterlimit="10"/>
<path d="M371 847.39C374.787 839.991 379.867 833.33 386 827.72Z" fill="#FBE8B3"/>
<path d="M365.652 844.66C366.53 842.58 367.666 840.618 369.032 838.82C370.388 837.02 371.904 835.346 373.562 833.82C374.402 833.06 375.252 832.32 376.142 831.63C377.026 830.915 377.966 830.273 378.952 829.71C381.086 828.479 383.49 827.792 385.952 827.71C385.693 830.051 385.104 832.344 384.202 834.52C383.812 835.52 383.372 836.4 382.912 837.29L381.612 839.96C380.762 841.72 379.922 843.45 379.062 845.15C378.23 846.864 377.309 848.533 376.302 850.15L365.652 844.66Z" fill="#592D3D"/>
<path d="M489.332 838.82C497.63 850.507 502.083 864.487 502.072 878.82Z" fill="#FBE8B3"/>
<path d="M489.332 838.82C492.746 840.671 495.712 843.248 498.022 846.37C499.172 847.888 500.208 849.489 501.122 851.16C502.052 852.83 502.892 854.55 503.672 856.31C505.207 859.846 506.366 863.533 507.132 867.31C507.909 871.101 508.225 874.973 508.072 878.84H496.072C495.882 875.59 495.712 872.36 495.372 869.11C495.032 865.86 494.602 862.63 493.972 859.37L493.472 856.93L492.892 854.48C492.472 852.85 492.022 851.22 491.602 849.55C490.657 846.016 489.9 842.434 489.332 838.82Z" fill="#592D3D"/>
<path d="M641.651 878.86C641.662 869.372 639.719 859.983 635.945 851.278C632.17 842.572 626.644 834.737 619.711 828.26" fill="#FBE8B3"/>
<path d="M635.651 878.86C635.49 874.552 635.07 870.257 634.391 866C633.689 861.7 632.646 857.464 631.271 853.33C630.931 852.33 630.531 851.26 630.161 850.22C629.791 849.18 629.321 848.17 628.911 847.13C628.501 846.09 627.971 845.13 627.531 844.08L626.071 841.08C624.071 836.98 621.901 832.89 619.711 828.33C624.345 830.307 628.51 833.241 631.931 836.94C632.761 837.88 633.631 838.8 634.401 839.79C635.171 840.78 635.941 841.79 636.651 842.79C637.361 843.79 638.081 844.88 638.721 845.97C639.361 847.06 640.031 848.15 640.601 849.29C642.981 853.813 644.795 858.613 646.001 863.58C647.233 868.576 647.778 873.717 647.621 878.86H635.651Z" fill="#592D3D"/>
<path d="M503.001 878.86C502.891 888.031 504.602 897.133 508.036 905.638C511.469 914.143 516.557 921.882 523.003 928.407C529.45 934.931 537.127 940.111 545.59 943.647C554.053 947.182 563.134 949.003 572.306 949.003C581.478 949.003 590.559 947.182 599.022 943.647C607.485 940.111 615.163 934.931 621.609 928.407C628.056 921.882 633.143 914.143 636.577 905.638C640.01 897.133 641.721 888.031 641.611 878.86" stroke="#592D3D" stroke-width="12" stroke-miterlimit="10"/>
<path d="M515.769 838.82C507.475 850.508 503.025 864.488 503.039 878.82Z" fill="#FBE8B3"/>
<path d="M515.772 838.82C515.205 842.441 514.448 846.029 513.502 849.57C513.082 851.24 512.632 852.87 512.212 854.5L511.642 856.95L511.142 859.39C510.512 862.65 510.052 865.89 509.732 869.13C509.412 872.37 509.232 875.61 509.042 878.86H497.002C496.84 874.993 497.156 871.12 497.942 867.33C498.703 863.551 499.863 859.864 501.402 856.33C502.172 854.57 503.012 852.85 503.942 851.18C504.86 849.512 505.896 847.911 507.042 846.39C509.364 843.259 512.344 840.675 515.772 838.82Z" fill="#592D3D"/>
<path d="M383.441 837.55V758.72" stroke="#592D3D" stroke-width="12" stroke-miterlimit="10"/>
<path d="M616.461 837.55V758.72" stroke="#592D3D" stroke-width="12" stroke-miterlimit="10"/>
<path d="M470.5 897.78H524.4V917.48C506.66 911.43 488.69 911.58 470.5 917.48V897.78Z" fill="#633749" stroke="#592D3D" stroke-width="12" stroke-miterlimit="10"/>
<path d="M638.101 878.86C638.126 861.305 631.464 844.399 619.471 831.58C615.251 827.06 575.201 837.77 551.661 858.84C528.551 879.53 508.431 913.33 511.311 917.59C519.607 929.903 531.637 939.226 545.63 944.187C559.624 949.148 574.84 949.485 589.039 945.147C603.238 940.81 615.669 932.028 624.501 920.095C633.334 908.161 638.101 893.707 638.101 878.86Z" fill="#633749" stroke="#592D3D" stroke-width="12" stroke-miterlimit="10"/>
<path d="M598.112 848.39C591.992 852.06 585.962 855.57 580.112 859.39C574.338 863.08 568.816 867.149 563.582 871.57C558.432 876.03 553.472 880.89 548.582 885.83C543.692 890.77 538.892 895.83 533.832 900.9C536.9 894.462 540.648 888.371 545.012 882.73C549.369 877.001 554.298 871.731 559.722 867C565.241 862.329 571.338 858.386 577.862 855.27C584.289 852.118 591.095 849.805 598.112 848.39Z" fill="white"/>
<path d="M361.902 878.86C361.877 861.305 368.539 844.399 380.532 831.58C384.752 827.06 424.802 837.77 448.342 858.84C471.452 879.53 491.572 913.33 488.692 917.59C480.396 929.903 468.366 939.226 454.373 944.187C440.38 949.148 425.163 949.485 410.964 945.147C396.765 940.81 384.334 932.028 375.502 920.095C366.669 908.161 361.902 893.707 361.902 878.86Z" fill="#633749" stroke="#592D3D" stroke-width="12" stroke-miterlimit="10"/>
<path d="M455.751 938.92C433.112 938.92 411.4 929.927 395.392 913.919C379.384 897.911 370.391 876.199 370.391 853.56C370.391 850.651 370.537 847.744 370.831 844.85C363.312 858.198 360.428 873.662 362.629 888.823C364.831 903.984 371.993 917.989 382.997 928.648C394.002 939.307 408.227 946.02 423.451 947.738C438.675 949.455 454.038 946.08 467.141 938.14C463.366 938.653 459.561 938.914 455.751 938.92Z" fill="#5E3244"/>
<path d="M361.902 878.86C361.877 861.305 368.539 844.399 380.532 831.58C384.752 827.06 424.802 837.77 448.342 858.84C471.452 879.53 491.572 913.33 488.692 917.59C480.396 929.903 468.366 939.226 454.373 944.187C440.38 949.148 425.163 949.485 410.964 945.147C396.765 940.81 384.334 932.028 375.502 920.095C366.669 908.161 361.902 893.707 361.902 878.86Z" stroke="#592D3D" stroke-width="12" stroke-miterlimit="10"/>
<path d="M401.891 848.39C408.907 849.802 415.713 852.111 422.141 855.26C428.666 858.38 434.762 862.325 440.281 867C445.683 871.727 450.592 876.991 454.931 882.71C459.295 888.351 463.043 894.442 466.111 900.88C461.051 895.88 456.271 890.75 451.361 885.81C446.451 880.87 441.521 876.01 436.361 871.55C431.126 867.129 425.604 863.06 419.831 859.37C414.001 855.57 408.001 852.06 401.891 848.39Z" fill="white"/>
<path d="M547.85 847.98L505.72 813.61L580.35 758.82H419.65L494.28 813.61L452.15 847.98L414.52 791.48V869.96H588.78V786.52L547.85 847.98Z" fill="#EDD494"/>
<path d="M616.662 758.16L573.932 758.26C573.711 762.777 573.234 767.277 572.502 771.74C572.032 773.882 571.451 775.998 570.762 778.08C568.422 784.57 553.502 790.08 549.272 794.81C547.871 796.383 546.368 797.863 544.772 799.24C519.602 817.44 479.602 818.44 455.292 798.66C452.671 796.371 450.288 793.821 448.182 791.05C443.952 785.49 431.782 779.46 430.082 772.11C429.6 769.935 429.24 767.735 429.002 765.52C428.761 763.261 428.641 760.991 428.642 758.72L383.432 758.16C379.912 758.16 376.536 759.558 374.046 762.046C371.555 764.534 370.155 767.91 370.152 771.43V1056.12C370.155 1059.64 371.555 1063.02 374.046 1065.5C376.536 1067.99 379.912 1069.39 383.432 1069.39H622.362C625.882 1069.39 629.257 1067.99 631.746 1065.5C634.234 1063.01 635.632 1059.64 635.632 1056.12V778C635.632 765.82 629.752 758.16 616.662 758.16Z" fill="white"/>
<path d="M612.84 758.16C676.38 758.16 701.36 801.55 691.74 1030.16C673 1036.86 635.83 1034.75 635.83 1034.75L612.84 758.16Z" fill="white"/>
<path d="M451.062 855.4L499.513 831.31L548.093 855.4L511.033 812.38L467.143 813.21L451.062 855.4Z" fill="#E2E2E2"/>
<path d="M635.632 831.31C635.632 831.31 612.842 915.85 616.322 1065.31L649.532 1034.31L653.112 896.73C647.492 824.5 635.632 831.31 635.632 831.31Z" fill="#E2E2E2"/>
<path d="M389.002 758.16C327.222 758.16 300.122 814.61 308.252 1003.64C330.672 1013.55 364.442 1009.22 364.442 1009.22L389.002 758.16Z" fill="white"/>
<path d="M306.941 957.49C307.115 971.13 307.518 985.623 308.151 1000.97C323.421 1001.7 351.841 1001.85 365.261 1000.97L369.441 958.16C358.671 956.9 323.661 956.49 306.941 957.49Z" fill="#E2E2E2"/>
<path d="M370.12 831.31L369.62 1009L356.27 1009.9C353.3 860.85 370.12 831.31 370.12 831.31Z" fill="#E2E2E2"/>
<path d="M612.84 758.16C680.26 758.16 691.29 814.44 691.74 891.94V1030.16C691.74 1030.16 641.74 1035.69 635.83 1034.75L635.73 892.64" stroke="#592D3D" stroke-width="12" stroke-miterlimit="10" stroke-linecap="square"/>
<path d="M388.999 758.16C363.269 758.16 345.479 766.28 333.289 780.6C313.839 803.47 308.659 842.14 308.289 888.87V1012.64C320.349 1015.96 369.649 1009 369.649 1009L370.139 890.4" stroke="#592D3D" stroke-width="12" stroke-miterlimit="10" stroke-linecap="square"/>
<path d="M372.602 1011.24C370.772 1013.85 298.832 1013.16 297.932 1011.24C297.032 1009.32 295.742 973.74 297.932 970.24C299.732 967.36 370.042 967.97 372.602 970.24C375.162 972.51 374.432 1008.63 372.602 1011.24Z" fill="white" stroke="#592D3D" stroke-width="12" stroke-miterlimit="10" stroke-linecap="square"/>
<path d="M383.429 1069.39H499.999C390.809 1069.39 399.089 838.25 370.109 838.25V1056.12C370.111 1057.87 370.456 1059.6 371.127 1061.21C371.797 1062.82 372.779 1064.29 374.017 1065.52C375.254 1066.75 376.722 1067.73 378.337 1068.39C379.953 1069.06 381.683 1069.4 383.429 1069.39Z" fill="#E2E2E2"/>
<path d="M364.149 860.29C363.959 856.62 364.039 852.94 364.209 849.29C364.379 845.64 364.679 841.95 365.059 838.29C365.259 836.46 365.469 834.62 365.709 832.78C365.949 830.94 366.199 829.11 366.559 827.28C367.267 823.471 368.474 819.773 370.149 816.28C371.824 819.773 373.031 823.471 373.739 827.28C374.099 829.11 374.359 830.95 374.589 832.78C374.819 834.61 375.039 836.46 375.239 838.29C375.626 841.97 375.912 845.637 376.099 849.29C376.259 852.96 376.339 856.64 376.099 860.29H364.149Z" fill="#592D3D"/>
<path d="M635.632 869.4V877.4C635.892 911.4 635.892 946.4 635.632 980.16C635.632 983.03 635.632 985.88 635.632 988.69V1056.1C635.632 1059.62 634.234 1062.99 631.745 1065.48C629.257 1067.97 625.881 1069.37 622.362 1069.37H383.432C379.912 1069.37 376.535 1067.97 374.045 1065.48C371.555 1063 370.155 1059.62 370.152 1056.1V990.3C369.892 955.44 369.892 920.44 370.152 885V860.29" stroke="#592D3D" stroke-width="12" stroke-miterlimit="10"/>
<path d="M697.422 970.24C699.642 972.5 699.012 1008.63 697.422 1011.24C695.832 1013.85 633.422 1013.16 632.652 1011.24C631.882 1009.32 630.752 973.74 632.652 970.24C632.922 969.74 634.932 969.35 638.102 969.06" fill="white"/>
<path d="M697.422 970.24C699.642 972.5 699.012 1008.63 697.422 1011.24C695.832 1013.85 633.422 1013.16 632.652 1011.24C631.882 1009.32 630.752 973.74 632.652 970.24C632.922 969.74 634.932 969.35 638.102 969.06" stroke="#592D3D" stroke-width="12" stroke-miterlimit="10" stroke-linecap="square"/>
<path d="M678.922 968.3C679.504 967.543 680.132 966.821 680.802 966.14C681.347 965.595 681.943 965.102 682.582 964.67C683.157 964.288 683.762 963.954 684.392 963.67C685.002 963.38 685.612 963.13 686.222 962.88C687.451 962.383 688.718 961.988 690.012 961.7C690.671 961.554 691.339 961.451 692.012 961.39C692.372 961.39 692.742 961.39 693.182 961.39C693.432 961.39 693.642 961.39 694.002 961.39C694.122 961.39 694.442 961.39 694.712 961.46H695.062L695.552 961.57L695.802 961.63L696.002 961.69L696.572 961.9C697.319 962.226 697.998 962.691 698.572 963.27L702.772 967.56L694.122 976.04L690.002 971.67C690.542 972.236 691.192 972.685 691.912 972.99C692.092 973.07 692.272 973.13 692.452 973.19H692.622L692.812 973.24C692.936 973.281 693.063 973.311 693.192 973.33H693.382C693.482 973.33 693.642 973.33 693.602 973.33C693.562 973.33 693.532 973.33 693.452 973.33H692.702C692.132 973.33 691.512 973.33 690.882 973.33C689.564 973.252 688.253 973.075 686.962 972.8C686.292 972.65 685.622 972.5 684.962 972.31C684.276 972.127 683.607 971.886 682.962 971.59C682.217 971.237 681.518 970.794 680.882 970.27C680.121 969.73 679.458 969.064 678.922 968.3Z" fill="#592D3D"/>
<path d="M592.51 763.64L517.84 818.45L559.98 852.83L619.4 763.59L592.51 763.64Z" fill="#E2E2E2"/>
<path d="M629.63 869.4C629.44 865.22 629.53 861.04 629.69 856.87C629.85 852.7 630.16 848.51 630.55 844.34C630.75 842.25 630.95 840.16 631.19 838.07C631.43 835.98 631.68 833.89 632.05 831.8C632.741 827.496 633.943 823.29 635.63 819.27C637.325 823.288 638.531 827.494 639.22 831.8C639.58 833.89 639.85 835.98 640.07 838.07C640.29 840.16 640.52 842.25 640.72 844.34C641.11 848.51 641.41 852.69 641.57 856.87C641.73 861.05 641.83 865.22 641.63 869.4H629.63Z" fill="#592D3D"/>
<path d="M383.43 758.26L616.66 758.16" stroke="#592D3D" stroke-width="12" stroke-miterlimit="10"/>
<path d="M529.389 835.55L507.039 813.21L484.699 835.55L495.679 846.53L485.959 953.16L506.699 969.33L528.119 953.16L518.409 846.53L529.389 835.55Z" fill="#E2E2E2"/>
<path d="M500.039 813.21V1069.39" stroke="#592D3D" stroke-width="6" stroke-miterlimit="10" stroke-linecap="square"/>
<path d="M500.039 813.21L522.389 828.55L500.039 850.9L477.699 828.55L500.039 813.21Z" fill="#633749"/>
<path d="M419.619 758.8C419.619 758.8 462.889 798.14 494.279 813.61C478.999 838.82 452.149 848 452.149 848L392.719 758.77L419.619 758.8Z" fill="white" stroke="#592D3D" stroke-width="12" stroke-miterlimit="10"/>
<path d="M580.379 758.8C580.379 758.8 540.999 800 505.719 813.61C515.719 833.89 547.849 847.98 547.849 847.98L607.279 758.75L580.379 758.8Z" fill="white" stroke="#592D3D" stroke-width="12" stroke-miterlimit="10"/>
<path d="M566.881 947.83C566.881 938.97 555.781 930.57 538.771 925.36C542.701 908.02 540.951 894.23 533.261 889.81C531.468 888.621 529.326 888.071 527.181 888.25C519.181 888.38 509.871 893.6 499.951 902.87C490.001 893.65 479.001 888.2 472.711 888.36C469.551 888.45 468.341 888.88 466.551 889.92C458.881 894.33 457.171 908.1 461.121 925.39C444.121 930.62 433.121 939 433.121 947.83C433.121 956.66 444.221 965.09 461.231 970.3C457.301 987.64 459.051 1001.43 466.741 1005.85C468.61 1006.9 470.727 1007.43 472.871 1007.38C480.371 1007.38 490.181 1002.03 500.111 992.76C510.031 1001.98 519.851 1007.27 527.351 1007.27C529.504 1007.32 531.63 1006.79 533.511 1005.74C541.171 1001.32 542.891 987.55 538.931 970.27C555.841 965.06 566.881 956.66 566.881 947.83ZM527.161 894.34C528.238 894.309 529.305 894.553 530.261 895.05C533.971 897.18 535.581 905.28 534.331 915.69C534.031 918.25 533.541 920.95 532.941 923.69C527.24 922.309 521.454 921.307 515.621 920.69C512.149 915.899 508.361 911.346 504.281 907.06C513.161 898.87 521.491 894.35 527.161 894.34ZM475.841 961.79C477.121 963.97 478.431 966.097 479.771 968.17C475.901 967.6 472.161 966.89 468.591 966.02C469.591 962.5 470.851 958.87 472.271 955.25C473.391 957.43 474.561 959.61 475.841 961.79ZM468.511 929.64C472.081 928.8 475.841 928.06 479.741 927.49C478.411 929.59 477.071 931.74 475.821 933.95C474.571 936.16 473.391 938.31 472.271 940.49C470.838 936.938 469.583 933.317 468.511 929.64ZM475.461 947.91C477.151 944.26 479.061 940.6 481.111 937.03C483.161 933.46 485.411 929.86 487.681 926.62C491.741 926.26 495.861 926.07 500.001 926.07C504.141 926.07 508.231 926.26 512.271 926.59C514.531 929.83 516.741 933.3 518.871 936.95C521.001 940.6 522.871 944.15 524.541 947.8C522.821 951.46 520.941 955.11 518.891 958.68C516.841 962.25 514.591 965.85 512.321 969.1C508.261 969.45 504.141 969.64 500.001 969.64C495.861 969.64 491.771 969.45 487.731 969.12C485.471 965.88 483.261 962.42 481.131 958.76C479.001 955.1 477.181 951.56 475.461 947.91ZM524.161 961.71C525.411 959.53 526.581 957.32 527.701 955.14C529.135 958.695 530.39 962.319 531.461 966C527.891 966.87 524.131 967.61 520.231 968.18C521.571 966.07 522.901 963.92 524.161 961.71ZM524.161 933.87C522.911 931.69 521.571 929.56 520.231 927.49C524.111 928.057 527.838 928.773 531.411 929.64C530.411 933.16 529.151 936.79 527.731 940.41C526.581 938.23 525.411 936.05 524.131 933.87H524.161ZM507.501 920.15C505.041 920.05 502.501 919.96 500.001 919.96C497.501 919.96 494.901 920.02 492.421 920.15C494.761 917.109 497.265 914.198 499.921 911.43C502.593 914.207 505.123 917.117 507.501 920.15ZM469.571 895.15C470.535 894.636 471.62 894.39 472.711 894.44C478.351 894.44 486.711 898.94 495.611 907.15C491.553 911.422 487.79 915.966 484.351 920.75C478.51 921.354 472.716 922.357 467.011 923.75C466.381 921.03 465.921 918.38 465.591 915.85C464.311 905.43 465.891 897.33 469.571 895.18V895.15ZM462.701 964.38C460.001 963.53 457.441 962.6 455.071 961.6C445.411 957.48 439.171 952.08 439.171 947.8C439.171 943.52 445.411 938.09 455.071 934C457.411 933 459.971 932.09 462.621 931.25C464.287 936.915 466.335 942.461 468.751 947.85C466.364 953.227 464.343 958.76 462.701 964.41V964.38ZM472.821 1001.29C471.75 1001.31 470.691 1001.06 469.741 1000.56C466.031 998.43 464.421 990.33 465.671 979.92C465.971 977.35 466.461 974.66 467.061 971.92C472.761 973.306 478.547 974.308 484.381 974.92C487.851 979.716 491.639 984.273 495.721 988.56C486.831 996.8 478.491 1001.32 472.821 1001.32V1001.29ZM500.051 984.2C497.379 981.419 494.849 978.506 492.471 975.47C494.931 975.58 497.471 975.66 499.971 975.66C502.471 975.66 505.071 975.61 507.551 975.47C505.212 978.524 502.708 981.448 500.051 984.23V984.2ZM530.431 1000.45C529.467 1000.96 528.383 1001.21 527.291 1001.16C521.651 1001.16 513.291 996.66 504.391 988.45C508.45 984.178 512.212 979.634 515.651 974.85C521.493 974.246 527.286 973.243 532.991 971.85C533.605 974.466 534.079 977.113 534.411 979.78C535.691 990.23 534.111 998.32 530.431 1000.48V1000.45ZM544.911 961.6C542.561 962.6 540.001 963.5 537.351 964.35C535.683 958.682 533.635 953.133 531.221 947.74C533.594 942.376 535.599 936.857 537.221 931.22C539.921 932.07 542.481 932.99 544.881 934C554.541 938.12 560.781 943.52 560.781 947.8C560.781 952.08 554.561 957.54 544.911 961.63V961.6Z" fill="black" stroke="white" stroke-width="16"/>
<path d="M499.972 960.29C506.853 960.29 512.432 954.711 512.432 947.83C512.432 940.949 506.853 935.37 499.972 935.37C493.09 935.37 487.512 940.949 487.512 947.83C487.512 954.711 493.09 960.29 499.972 960.29Z" fill="black" stroke="white" stroke-width="24"/>
<path d="M566.881 947.83C566.881 938.97 555.781 930.57 538.771 925.36C542.701 908.02 540.951 894.23 533.261 889.81C531.468 888.621 529.326 888.071 527.181 888.25C519.181 888.38 509.871 893.6 499.951 902.87C490.001 893.65 479.001 888.2 472.711 888.36C469.551 888.45 468.341 888.88 466.551 889.92C458.881 894.33 457.171 908.1 461.121 925.39C444.121 930.62 433.121 939 433.121 947.83C433.121 956.66 444.221 965.09 461.231 970.3C457.301 987.64 459.051 1001.43 466.741 1005.85C468.61 1006.9 470.727 1007.43 472.871 1007.38C480.371 1007.38 490.181 1002.03 500.111 992.76C510.031 1001.98 519.851 1007.27 527.351 1007.27C529.504 1007.32 531.63 1006.79 533.511 1005.74C541.171 1001.32 542.891 987.55 538.931 970.27C555.841 965.06 566.881 956.66 566.881 947.83ZM527.161 894.34C528.238 894.309 529.305 894.553 530.261 895.05C533.971 897.18 535.581 905.28 534.331 915.69C534.031 918.25 533.541 920.95 532.941 923.69C527.24 922.309 521.454 921.307 515.621 920.69C512.149 915.899 508.361 911.346 504.281 907.06C513.161 898.87 521.491 894.35 527.161 894.34ZM475.841 961.79C477.121 963.97 478.431 966.097 479.771 968.17C475.901 967.6 472.161 966.89 468.591 966.02C469.591 962.5 470.851 958.87 472.271 955.25C473.391 957.43 474.561 959.61 475.841 961.79ZM468.511 929.64C472.081 928.8 475.841 928.06 479.741 927.49C478.411 929.59 477.071 931.74 475.821 933.95C474.571 936.16 473.391 938.31 472.271 940.49C470.838 936.938 469.583 933.317 468.511 929.64ZM475.461 947.91C477.151 944.26 479.061 940.6 481.111 937.03C483.161 933.46 485.411 929.86 487.681 926.62C491.741 926.26 495.861 926.07 500.001 926.07C504.141 926.07 508.231 926.26 512.271 926.59C514.531 929.83 516.741 933.3 518.871 936.95C521.001 940.6 522.871 944.15 524.541 947.8C522.821 951.46 520.941 955.11 518.891 958.68C516.841 962.25 514.591 965.85 512.321 969.1C508.261 969.45 504.141 969.64 500.001 969.64C495.861 969.64 491.771 969.45 487.731 969.12C485.471 965.88 483.261 962.42 481.131 958.76C479.001 955.1 477.181 951.56 475.461 947.91ZM524.161 961.71C525.411 959.53 526.581 957.32 527.701 955.14C529.135 958.695 530.39 962.319 531.461 966C527.891 966.87 524.131 967.61 520.231 968.18C521.571 966.07 522.901 963.92 524.161 961.71ZM524.161 933.87C522.911 931.69 521.571 929.56 520.231 927.49C524.111 928.057 527.838 928.773 531.411 929.64C530.411 933.16 529.151 936.79 527.731 940.41C526.581 938.23 525.411 936.05 524.131 933.87H524.161ZM507.501 920.15C505.041 920.05 502.501 919.96 500.001 919.96C497.501 919.96 494.901 920.02 492.421 920.15C494.761 917.109 497.265 914.198 499.921 911.43C502.593 914.207 505.123 917.117 507.501 920.15ZM469.571 895.15C470.535 894.636 471.62 894.39 472.711 894.44C478.351 894.44 486.711 898.94 495.611 907.15C491.553 911.422 487.79 915.966 484.351 920.75C478.51 921.354 472.716 922.357 467.011 923.75C466.381 921.03 465.921 918.38 465.591 915.85C464.311 905.43 465.891 897.33 469.571 895.18V895.15ZM462.701 964.38C460.001 963.53 457.441 962.6 455.071 961.6C445.411 957.48 439.171 952.08 439.171 947.8C439.171 943.52 445.411 938.09 455.071 934C457.411 933 459.971 932.09 462.621 931.25C464.287 936.915 466.335 942.461 468.751 947.85C466.364 953.227 464.343 958.76 462.701 964.41V964.38ZM472.821 1001.29C471.75 1001.31 470.691 1001.06 469.741 1000.56C466.031 998.43 464.421 990.33 465.671 979.92C465.971 977.35 466.461 974.66 467.061 971.92C472.761 973.306 478.547 974.308 484.381 974.92C487.851 979.716 491.639 984.273 495.721 988.56C486.831 996.8 478.491 1001.32 472.821 1001.32V1001.29ZM500.051 984.2C497.379 981.419 494.849 978.506 492.471 975.47C494.931 975.58 497.471 975.66 499.971 975.66C502.471 975.66 505.071 975.61 507.551 975.47C505.212 978.524 502.708 981.448 500.051 984.23V984.2ZM530.431 1000.45C529.467 1000.96 528.383 1001.21 527.291 1001.16C521.651 1001.16 513.291 996.66 504.391 988.45C508.45 984.178 512.212 979.634 515.651 974.85C521.493 974.246 527.286 973.243 532.991 971.85C533.605 974.466 534.079 977.113 534.411 979.78C535.691 990.23 534.111 998.32 530.431 1000.48V1000.45ZM544.911 961.6C542.561 962.6 540.001 963.5 537.351 964.35C535.683 958.682 533.635 953.133 531.221 947.74C533.594 942.376 535.599 936.857 537.221 931.22C539.921 932.07 542.481 932.99 544.881 934C554.541 938.12 560.781 943.52 560.781 947.8C560.781 952.08 554.561 957.54 544.911 961.63V961.6Z" fill="#61DAFB"/>
<path d="M499.972 960.29C506.853 960.29 512.432 954.711 512.432 947.83C512.432 940.949 506.853 935.37 499.972 935.37C493.09 935.37 487.512 940.949 487.512 947.83C487.512 954.711 493.09 960.29 499.972 960.29Z" fill="#61DAFB"/>
<path d="M478.961 946.16L499.701 962.33L521.121 946.16L511.121 836.38H488.961L478.961 946.16Z" fill="#633749"/>
<path d="M477.699 828.55L488.679 839.53L478.959 946.16L499.699 962.33L521.119 946.16L511.409 839.53L522.389 828.55" stroke="#592D3D" stroke-width="8" stroke-miterlimit="10"/>
<path d="M637.54 963.08C640.468 962.667 643.425 962.51 646.38 962.61C649.28 962.68 652.16 962.91 655.04 963.26C656.47 963.44 657.91 963.63 659.34 963.87C660.784 964.081 662.215 964.365 663.63 964.72C666.65 965.455 669.524 966.696 672.13 968.39C669.486 969.986 666.613 971.167 663.61 971.89C662.2 972.25 660.79 972.52 659.38 972.75C657.97 972.98 656.57 973.22 655.17 973.44C652.37 973.86 649.58 974.22 646.82 974.44C644.06 974.66 641.3 974.94 638.66 974.98L632.66 975.08L631.66 963.95L637.54 963.08Z" fill="#592D3D"/>
<path d="M490.89 836.19L490.96 836.24C491.021 836.273 491.078 836.313 491.13 836.36L491.51 836.65C491.76 836.86 492.03 837.07 492.29 837.3C492.82 837.75 493.38 838.23 493.99 838.69C494.6 839.15 495.26 839.59 495.99 840.11C496.943 840.827 497.848 841.605 498.7 842.44C497.987 843.604 496.874 844.468 495.57 844.87C494.367 845.205 493.109 845.296 491.87 845.14C490.612 845.018 489.384 844.679 488.24 844.14C487.658 843.862 487.105 843.527 486.59 843.14C486.322 842.945 486.065 842.734 485.82 842.51C485.7 842.4 485.57 842.28 485.45 842.15L485.25 841.94L485 841.65L490.89 836.19Z" fill="#592D3D"/>
<path opacity="0.1" d="M426.882 961.63C441.357 961.628 455.469 957.095 467.238 948.666C479.006 940.237 487.841 928.335 492.502 914.63C486.585 924.751 478.255 933.249 468.254 939.366C458.254 945.483 446.894 949.028 435.19 949.686C423.485 950.343 411.8 948.092 401.177 943.134C390.554 938.176 381.324 930.664 374.312 921.27L374.262 936C387.002 951.63 405.152 961.63 426.882 961.63Z" fill="black"/>
<path opacity="0.1" d="M573.12 961.63C558.644 961.628 544.532 957.095 532.764 948.666C520.995 940.237 512.161 928.335 507.5 914.63C513.416 924.751 521.747 933.249 531.747 939.366C541.748 945.483 553.108 949.028 564.812 949.686C576.517 950.343 588.202 948.092 598.825 943.134C609.448 938.176 618.677 930.664 625.69 921.27V935.99C613 951.63 594.85 961.63 573.12 961.63Z" fill="black"/>
<path d="M407.002 943.81C396.331 939.827 386.805 933.277 379.267 924.737C371.73 916.198 366.412 905.933 363.784 894.85C361.156 883.767 361.3 872.208 364.202 861.194C367.104 850.179 372.674 840.05 380.422 831.7" fill="white"/>
<path d="M406.999 943.81C395.176 941.88 384.258 936.283 375.789 927.81L374.169 926.21C373.639 925.67 373.169 925.08 372.639 924.52C372.109 923.96 371.639 923.37 371.159 922.79C370.652 922.219 370.174 921.621 369.729 921C368.829 919.77 367.919 918.54 367.049 917.28L364.679 913.35C361.688 907.965 359.431 902.204 357.969 896.22C356.61 890.22 356.042 884.068 356.279 877.92C356.551 871.812 357.696 865.774 359.679 859.99C359.939 859.28 360.169 858.56 360.439 857.85L361.319 855.75C361.869 854.35 362.579 853.01 363.229 851.66C364.619 849.003 366.203 846.453 367.969 844.03C368.819 842.82 369.789 841.68 370.719 840.54C371.649 839.4 372.659 838.31 373.719 837.31C375.786 835.244 378.039 833.373 380.449 831.72C374.659 841.72 370.549 851.91 368.789 862.39C367.874 867.541 367.479 872.77 367.609 878C367.802 883.187 368.471 888.346 369.609 893.41C370.842 898.446 372.556 903.352 374.729 908.06C376.951 912.816 379.659 917.33 382.809 921.53C385.996 925.871 389.618 929.876 393.619 933.48C397.82 937.247 402.292 940.7 406.999 943.81Z" fill="#592D3D"/>
<path d="M593.051 943.81C603.718 939.822 613.239 933.267 620.771 924.725C628.303 916.184 633.615 905.918 636.238 894.836C638.861 883.753 638.713 872.196 635.807 861.184C632.902 850.173 627.329 840.046 619.581 831.7" fill="white"/>
<path d="M593.051 943.81C597.746 940.711 602.209 937.272 606.401 933.52C610.402 929.915 614.024 925.911 617.211 921.57C620.361 917.37 623.069 912.856 625.291 908.1C627.463 903.392 629.178 898.486 630.411 893.45C631.549 888.385 632.218 883.227 632.411 878.04C632.555 872.791 632.17 867.541 631.261 862.37C629.501 851.89 625.391 841.73 619.601 831.7C622.011 833.353 624.264 835.224 626.331 837.29C627.411 838.29 628.331 839.43 629.331 840.52C630.331 841.61 631.231 842.8 632.081 844.01C633.847 846.433 635.431 848.983 636.821 851.64C637.471 852.99 638.181 854.33 638.731 855.73L639.611 857.83C639.881 858.54 640.111 859.26 640.371 859.97C642.354 865.754 643.499 871.792 643.771 877.9C644.008 884.048 643.44 890.2 642.081 896.2C640.619 902.184 638.362 907.945 635.371 913.33L633.001 917.26C632.131 918.52 631.221 919.75 630.321 920.98C629.876 921.601 629.398 922.199 628.891 922.77C628.401 923.35 627.891 923.93 627.411 924.5C626.931 925.07 626.411 925.65 625.881 926.19L624.261 927.79C615.795 936.27 604.877 941.875 593.051 943.81Z" fill="#592D3D"/>
<path d="M271.401 576.82C270.401 548.46 289.401 524.46 314.681 513.26C317.336 512.173 320.062 511.271 322.841 510.56C336.851 507.08 351.594 508.016 365.051 513.24C368.126 514.419 371.117 515.809 374.001 517.4C403.531 533.28 416.791 570.65 405.361 600.86C404.203 603.906 402.805 606.855 401.181 609.68C397.193 617.988 391.17 625.153 383.671 630.51C381.169 632.351 378.547 634.021 375.821 635.51C348.441 648.51 311.441 644.51 289.371 624.11C287.163 621.765 285.122 619.269 283.261 616.64C281.139 613.637 279.275 610.459 277.691 607.14C274.338 600.351 272.402 592.951 272.001 585.39C271.639 582.547 271.439 579.686 271.401 576.82Z" fill="#EDD494"/>
<path d="M269.772 558.47C268.772 530.11 287.772 506.11 313.052 494.91C315.703 493.823 318.427 492.921 321.202 492.21C335.215 488.728 349.962 489.664 363.422 494.89C366.487 496.07 369.468 497.46 372.342 499.05C401.872 514.94 415.132 552.3 403.702 582.51C402.552 585.559 401.154 588.509 399.522 591.33C398.14 594.039 396.566 596.645 394.812 599.13C393.084 601.592 391.186 603.931 389.132 606.13C386.912 608.327 384.532 610.356 382.012 612.2C379.512 614.043 376.889 615.714 374.162 617.2C346.782 630.2 309.782 626.2 287.722 605.8C285.509 603.46 283.467 600.963 281.612 598.33C279.487 595.327 277.62 592.149 276.032 588.83C272.656 582.02 270.713 574.591 270.322 567C269.968 564.17 269.785 561.322 269.772 558.47Z" fill="white" stroke="#592D3D" stroke-width="12" stroke-miterlimit="10"/>
<path d="M338.51 571.32C345.27 571.32 350.75 565.84 350.75 559.08C350.75 552.32 345.27 546.84 338.51 546.84C331.75 546.84 326.27 552.32 326.27 559.08C326.27 565.84 331.75 571.32 338.51 571.32Z" fill="#592D3D"/>
<path d="M715.032 559.08H603.402" stroke="#592D3D" stroke-width="16" stroke-miterlimit="10" stroke-linecap="round"/>
<path d="M627 574.16C631.323 573.389 635.687 572.868 640.07 572.6C644.43 572.3 648.79 572.17 653.15 572.16C657.51 572.15 661.86 572.3 666.22 572.59C670.607 572.861 674.974 573.386 679.3 574.16C674.975 574.942 670.607 575.47 666.22 575.74C661.86 576.027 657.503 576.167 653.15 576.16C648.797 576.153 644.437 576.01 640.07 575.73C635.686 575.463 631.322 574.939 627 574.16Z" fill="#592D3D"/>
<path d="M443.141 621.86C443.141 602.96 556.861 605.8 556.861 621.86C556.861 636.94 550.87 651.403 540.207 662.066C529.543 672.73 515.081 678.72 500.001 678.72C484.92 678.72 470.458 672.73 459.795 662.066C449.131 651.403 443.141 636.94 443.141 621.86Z" fill="#592D3D"/>
<path d="M495.002 643C478.052 642 463.272 649.75 458.352 661.22C466.532 669.863 477.219 675.72 488.905 677.968C500.591 680.216 512.688 678.741 523.492 673.75C525.738 672.713 527.913 671.527 530.002 670.2C529.082 656.09 514.062 644.18 495.002 643Z" fill="#F28195"/>
<path d="M443.141 621.86C443.141 602.96 556.861 605.8 556.861 621.86C556.861 636.94 550.87 651.403 540.207 662.066C529.543 672.73 515.081 678.72 500.001 678.72C484.92 678.72 470.458 672.73 459.795 662.066C449.131 651.403 443.141 636.94 443.141 621.86Z" stroke="#592D3D" stroke-width="6" stroke-miterlimit="10"/>
<path d="M478.121 632.46C478.571 632.35 478.751 632.3 479.041 632.25L479.791 632.11C480.281 632.02 480.791 631.97 481.251 631.93C482.211 631.832 483.177 631.799 484.141 631.83C486.096 631.873 488.039 632.145 489.931 632.64C493.893 633.643 497.484 635.76 500.281 638.74C502.912 641.57 504.676 645.097 505.361 648.9C505.986 652.408 505.511 656.023 504.001 659.25C501.931 656.32 500.341 653.69 498.681 651.49C497.934 650.435 497.115 649.433 496.231 648.49C495.423 647.662 494.517 646.936 493.531 646.33C491.664 645.212 489.582 644.499 487.421 644.24C486.287 644.094 485.145 644.014 484.001 644C483.411 644 482.821 644 482.241 644.05L481.391 644.11H481.001C480.901 644.11 480.701 644.11 480.771 644.11L478.121 632.46Z" fill="#592D3D"/>
<path d="M559.289 397.34C546.419 421.34 499.289 434.78 495.459 428.76C491.159 422.03 533.299 373.44 509.359 322.62" fill="#EDD494"/>
<path d="M746.9 365.72C703.39 275.43 606.63 223.72 502.16 223.72C370.97 223.72 248.66 318.72 226.84 447.46C226.84 447.46 429.25 462.78 502.09 380.06C511.7 384.77 658.18 457.67 746.9 365.72Z" fill="#A56941"/>
<path d="M502.161 233.15C484.72 234.338 467.388 236.788 450.301 240.48L437.621 243.53C433.421 244.66 429.261 245.9 425.081 247.08L412.691 251.08C408.601 252.54 404.561 254.08 400.491 255.62C384.309 261.977 368.639 269.57 353.621 278.33C338.555 287.206 324.106 297.088 310.371 307.91C322.652 295.213 336.336 283.954 351.161 274.35C365.998 264.65 381.795 256.504 398.301 250.04C402.471 248.54 406.621 246.98 410.801 245.53C415.041 244.24 419.241 242.83 423.501 241.63C427.761 240.43 432.081 239.44 436.391 238.42C440.701 237.4 445.071 236.66 449.391 235.89C466.812 232.906 484.525 231.986 502.161 233.15Z" fill="#592D3D"/>
<path d="M537.229 398.81C526.899 418.12 489.069 428.88 485.999 424C482.549 418.6 516.379 379.58 497.159 338.78" fill="#A56941"/>
<path d="M240.152 454.33C240.152 454.33 425.722 462.61 500.012 382.33C495.012 401.85 484.262 416.42 486.222 419.49C489.112 424.02 524.222 414.07 534.382 396.14C579.942 415.14 665.862 437.47 740.532 380.05" stroke="#592D3D" stroke-width="12" stroke-miterlimit="10"/>
<path d="M427.29 501.13L414.29 496.74L383.09 486.2L345.49 473.49L313 462.49C307.73 460.71 302.49 458.81 297.19 457.15L296.97 457.07C294.412 456.365 291.678 456.704 289.371 458.014C287.063 459.324 285.37 461.497 284.665 464.055C283.959 466.613 284.299 469.347 285.609 471.654C286.919 473.962 289.092 475.655 291.65 476.36L304.65 480.75L335.85 491.29L373.45 503.99L405.94 514.99C411.2 516.77 416.44 518.66 421.75 520.33L421.97 520.41C423.236 520.759 424.559 520.856 425.863 520.694C427.167 520.532 428.426 520.115 429.569 519.466C430.712 518.817 431.715 517.95 432.523 516.914C433.33 515.877 433.925 514.692 434.275 513.425C434.624 512.158 434.721 510.835 434.559 509.532C434.397 508.228 433.979 506.969 433.331 505.826C432.682 504.683 431.815 503.68 430.778 502.872C429.742 502.065 428.556 501.469 427.29 501.12V501.13Z" fill="#592D3D"/>
<path d="M697.181 453.9L684.461 459L653.921 471.31L617.111 486.15L585.301 499C580.141 501.08 574.985 503.16 569.831 505.24L569.611 505.32C567.101 506.32 565.051 507.49 563.611 509.92C562.271 512.256 561.912 515.029 562.611 517.63C563.306 520.152 564.956 522.304 567.211 523.63C569.431 524.81 572.471 525.63 574.911 524.63L587.641 519.5L618.181 507.19L655.001 492.33L686.811 479.51C691.961 477.43 697.131 475.36 702.281 473.27L702.501 473.18C705.011 472.18 707.061 471.01 708.501 468.59C709.166 467.456 709.6 466.201 709.779 464.899C709.958 463.597 709.878 462.272 709.545 461.001C709.211 459.729 708.63 458.536 707.835 457.489C707.04 456.442 706.047 455.562 704.911 454.9C702.691 453.73 699.641 452.9 697.201 453.9H697.181Z" fill="#592D3D"/>
<path opacity="0.2" d="M338.9 641.86C390.434 641.86 432.21 600.084 432.21 548.55C432.21 497.016 390.434 455.24 338.9 455.24C287.366 455.24 245.59 497.016 245.59 548.55C245.59 600.084 287.366 641.86 338.9 641.86Z" fill="white"/>
<path opacity="0.15" d="M744.47 606.82C732.351 624.565 714.998 638.089 694.83 645.505C674.662 652.921 652.682 653.861 631.954 648.194C611.226 642.527 592.782 630.535 579.192 613.889C565.603 597.243 557.544 576.773 556.14 555.33C519.14 540.73 481.71 540.86 441.95 555.72C440.105 581.793 428.457 606.2 409.348 624.034C390.24 641.868 365.088 651.806 338.95 651.85C306.47 651.85 262.95 615.35 267.95 623.46C281.95 644.15 314.95 659.91 340.49 659.91C395.04 659.91 438.36 620.62 442.05 566.99C481.81 552.14 519.28 551.99 556.24 566.6C559.74 620.42 604.63 660.13 659.31 660.13C704 660.13 729.4 626 744.47 606.82Z" fill="black"/>
<path opacity="0.4" d="M319.999 648.75L443.069 525.67C440.364 519.572 437.012 513.782 433.069 508.4L302.719 638.76C308.104 642.7 313.897 646.049 319.999 648.75Z" fill="white"/>
<path d="M338.9 641.86C390.434 641.86 432.21 600.084 432.21 548.55C432.21 497.016 390.434 455.24 338.9 455.24C287.366 455.24 245.59 497.016 245.59 548.55C245.59 600.084 287.366 641.86 338.9 641.86Z" stroke="#592D3D" stroke-width="20" stroke-miterlimit="10"/>
<path d="M659.212 641.86C710.746 641.86 752.522 600.084 752.522 548.55C752.522 497.016 710.746 455.24 659.212 455.24C607.679 455.24 565.902 497.016 565.902 548.55C565.902 600.084 607.679 641.86 659.212 641.86Z" stroke="#592D3D" stroke-width="20" stroke-miterlimit="10"/>
<path d="M432.77 548.55C477.97 530.24 522.38 529.55 565.91 548.55" stroke="#592D3D" stroke-width="20" stroke-miterlimit="10"/>
<path d="M314.699 492.5C316.759 499 308.759 504 302.759 505C296.759 505 292.759 501 290.759 496C289.759 491 290.759 486 294.759 483C299.759 481 306.759 479 311.209 484.13C312.32 485.221 313.202 486.524 313.801 487.962C314.401 489.399 314.706 490.943 314.699 492.5Z" fill="white"/>
<path d="M325.372 488.67C324.762 493 318.762 493 317.762 489C317.762 486 318.762 485 321.612 484.9C322.106 484.9 322.596 484.998 323.053 485.187C323.51 485.377 323.925 485.655 324.274 486.005C324.623 486.355 324.9 486.771 325.088 487.228C325.277 487.685 325.373 488.175 325.372 488.67Z" fill="white"/>
<path opacity="0.2" d="M659.212 641.86C710.746 641.86 752.522 600.084 752.522 548.55C752.522 497.016 710.746 455.24 659.212 455.24C607.679 455.24 565.902 497.016 565.902 548.55C565.902 600.084 607.679 641.86 659.212 641.86Z" fill="white"/>
<path opacity="0.4" d="M645.19 640.81L751.47 534.52C750.894 530.735 750.089 526.988 749.06 523.3L634 638.4C637.678 639.429 641.415 640.234 645.19 640.81Z" fill="white"/>
<path d="M659.212 641.86C710.746 641.86 752.522 600.084 752.522 548.55C752.522 497.016 710.746 455.24 659.212 455.24C607.679 455.24 565.902 497.016 565.902 548.55C565.902 600.084 607.679 641.86 659.212 641.86Z" stroke="#592D3D" stroke-width="20" stroke-miterlimit="10"/>
<path d="M635 492.5C637.06 499 629.06 504 623.06 505C617.06 505 613.06 501 611.06 496C610.06 491 611.06 486 615.06 483C620.06 481 627.06 479 631.51 484.13C632.619 485.223 633.499 486.526 634.099 487.963C634.698 489.4 635.004 490.943 635 492.5Z" fill="white"/>
<path d="M645.692 488.67C645.082 493 639.082 493 638.082 489C638.082 486 639.082 485 641.922 484.9C642.922 484.9 643.881 485.297 644.588 486.004C645.295 486.711 645.692 487.67 645.692 488.67Z" fill="white"/>
</g>
</svg>
