<svg width="1000" height="990" viewBox="0 0 1000 990" fill="none" xmlns="http://www.w3.org/2000/svg">
<mask id="mask0_22_4480" style="mask-type:luminance" maskUnits="userSpaceOnUse" x="0" y="0" width="1000" height="966">
<path d="M1000 0H0V718.31H179.2C217.58 860.69 346.65 965.41 500 965.41C653.35 965.41 782.42 860.69 820.8 718.31H1000V0Z" fill="white"/>
</mask>
<g mask="url(#mask0_22_4480)">
<path d="M500.001 962.602C683.603 962.602 832.443 813.763 832.443 630.16C832.443 446.557 683.603 297.718 500.001 297.718C316.398 297.718 167.559 446.557 167.559 630.16C167.559 813.763 316.398 962.602 500.001 962.602Z" fill="#85C5E5"/>
<path d="M225.35 498C408.77 575.95 596.49 577.06 781.29 498C798.82 490.5 798.72 358.13 781.29 364.19C600.82 427.02 409.96 427.69 225.35 364.19C203.39 356.6 205.53 489.53 225.35 498Z" fill="#592D3D" stroke="#592D3D" stroke-width="12" stroke-miterlimit="10"/>
<path d="M610 758.72C700.76 758.72 682 872.96 682.87 1000H610V758.72Z" fill="#FDD2B2"/>
<path d="M632.74 831.87L610 870L621.38 1000H653.14C653.91 819.73 632.74 831.87 632.74 831.87Z" fill="#F3AB98"/>
<path d="M233.25 500C233.25 352.68 352.68 233.25 500 233.25C647.32 233.25 766.75 352.68 766.75 500C766.788 539.694 757.949 578.895 740.88 614.731C723.811 650.568 698.945 682.135 668.1 707.12C662.627 711.573 656.98 715.803 651.16 719.81C591 758 515 758 446.39 751.89C439.73 750.89 433.09 749.63 426.5 748.18C400.17 742.38 374.68 733.43 351.13 720.38C345.31 716.793 339.667 712.92 334.2 708.76C328.706 704.576 323.432 700.11 318.4 695.38C313.64 690.96 309.044 686.367 304.61 681.6C258.667 632.299 233.161 567.39 233.25 500Z" fill="#FDD2B2"/>
<path d="M269.612 634.48C270.312 635.68 271.002 636.88 271.722 638.06C272.152 638.78 272.602 639.48 273.052 640.2C273.712 641.27 274.372 642.34 275.052 643.39C275.532 644.15 276.052 644.89 276.512 645.63C277.172 646.63 277.832 647.63 278.512 648.63C279.022 649.39 279.512 650.15 280.072 650.91C280.732 651.91 281.392 652.83 282.072 653.79C282.612 654.56 283.172 655.32 283.722 656.09C284.272 656.86 285.062 657.94 285.722 658.86C286.382 659.78 286.872 660.39 287.452 661.15C288.032 661.91 288.822 662.95 289.522 663.85C290.222 664.75 290.712 665.36 291.312 666.11C291.912 666.86 292.722 667.87 293.432 668.74C294.142 669.61 294.662 670.23 295.282 670.97C295.902 671.71 296.722 672.69 297.452 673.54C298.182 674.39 298.722 675.01 299.362 675.74L301.582 678.24C302.232 678.97 302.892 679.68 303.582 680.4C304.442 681.34 305.312 682.27 306.182 683.19L307.392 684.47C308.682 685.81 309.982 687.15 311.302 688.47L311.562 688.74C312.852 690.02 314.162 691.29 315.472 692.55L317.052 694.05C318.002 694.94 318.952 695.83 319.912 696.71L321.072 697.77C322.072 698.71 323.162 699.63 324.212 700.55C327.478 703.397 330.812 706.127 334.212 708.74C339.672 712.9 345.315 716.773 351.142 720.36C374.692 733.36 400.142 742.36 426.512 748.16C433.102 749.61 439.742 750.86 446.402 751.87C488.502 755.62 533.402 757.05 575.682 748.79C508.452 729 185.592 612.74 388.802 257.48C386.082 258.73 383.402 260.02 380.742 261.36L380.152 261.65C378.932 262.26 377.712 262.89 376.502 263.53L375.502 264.06C371.742 266.06 368.022 268.13 364.372 270.29L363.472 270.82C362.312 271.51 361.162 272.21 360.012 272.92L359.142 273.46C355.568 275.693 352.052 278.003 348.592 280.39L347.512 281.14C346.422 281.9 345.352 282.66 344.282 283.43L343.622 283.9C341.442 285.493 339.288 287.107 337.162 288.74L336.542 289.22C335.542 290 334.542 290.8 333.542 291.61L332.372 292.55C331.372 293.36 330.372 294.17 329.372 295C327.262 296.75 325.182 298.55 323.132 300.37L321.992 301.37L319.302 303.82L318.002 305C315.148 307.667 312.358 310.39 309.632 313.17L308.252 314.58C307.462 315.4 306.672 316.22 305.892 317.05C305.432 317.54 304.972 318.05 304.522 318.53C303.148 319.997 301.795 321.483 300.462 322.99C300.012 323.5 299.552 323.99 299.102 324.53C298.392 325.34 297.692 326.16 296.992 326.98L295.482 328.77C294.802 329.58 294.122 330.39 293.482 331.21C292.942 331.87 292.402 332.54 291.872 333.21C290.802 334.54 289.752 335.87 288.712 337.21C288.172 337.91 287.632 338.61 287.102 339.32C286.572 340.03 285.902 340.91 285.312 341.72C284.722 342.53 284.242 343.17 283.722 343.9C283.202 344.63 282.592 345.45 282.042 346.23C281.095 347.563 280.162 348.913 279.242 350.28C278.742 351.01 278.242 351.76 277.752 352.5C277.262 353.24 276.652 354.16 276.112 355L274.622 357.31L272.942 360.02C272.512 360.71 272.082 361.4 271.662 362.09C270.772 363.55 269.912 365.02 269.052 366.49L267.832 368.65C267.292 369.6 266.752 370.56 266.222 371.52C265.822 372.25 265.422 372.98 265.032 373.71C264.392 374.9 263.762 376.1 263.132 377.3L261.932 379.64C261.292 380.92 260.652 382.19 260.022 383.48C259.692 384.17 259.352 384.87 259.022 385.57C258.502 386.66 258.022 387.76 257.492 388.86C257.182 389.52 256.882 390.18 256.582 390.86C255.842 392.507 255.118 394.173 254.412 395.86C254.192 396.38 253.982 396.91 253.762 397.43C253.232 398.7 252.712 399.97 252.202 401.25C251.932 401.92 251.672 402.59 251.412 403.25C250.912 404.51 250.412 405.78 249.962 407.05C249.752 407.6 249.542 408.15 249.342 408.7C248.715 410.453 248.098 412.207 247.492 413.96L246.932 415.66C246.492 416.993 246.062 418.327 245.642 419.66L245.042 421.57C244.572 423.11 244.112 424.65 243.672 426.2C243.572 426.53 243.472 426.86 243.382 427.2C242.862 429.04 242.362 430.887 241.882 432.74C241.722 433.33 241.582 433.93 241.432 434.52C241.082 435.91 240.742 437.3 240.432 438.7L240.012 440.45C239.582 442.35 239.162 444.25 238.772 446.16L238.622 446.93C238.282 448.63 237.948 450.33 237.622 452.03C237.512 452.64 237.412 453.24 237.302 453.85C237.042 455.34 236.792 456.85 236.562 458.35C236.482 458.86 236.392 459.35 236.322 459.87C236.022 461.82 235.752 463.78 235.492 465.75L235.342 467.05C235.142 468.64 234.962 470.24 234.792 471.84C234.732 472.44 234.662 473.04 234.602 473.65C234.442 475.33 234.292 477.02 234.152 478.71C234.152 479.06 234.092 479.4 234.072 479.71C233.925 481.71 233.795 483.727 233.682 485.76C233.682 486.29 233.682 486.83 233.612 487.36C233.545 488.933 233.485 490.503 233.432 492.07C233.432 492.66 233.432 493.25 233.432 493.84C233.432 495.89 233.352 497.95 233.352 500.01C233.352 500.01 233.352 500.08 233.352 500.11C233.352 502.33 233.352 504.53 233.432 506.73C233.432 507.49 233.492 508.25 233.512 509.01C233.562 510.48 233.612 511.95 233.682 513.42C233.682 514.31 233.792 515.19 233.842 516.08C233.922 517.41 233.992 518.74 234.092 520.08C234.162 521.08 234.252 521.97 234.332 522.91C234.442 524.17 234.542 525.43 234.672 526.68C234.762 527.68 234.882 528.62 234.982 529.59C235.122 530.8 235.252 532.02 235.402 533.23C235.522 534.23 235.662 535.23 235.792 536.18C235.952 537.36 236.112 538.55 236.292 539.73C236.442 540.73 236.602 541.73 236.762 542.73C236.942 543.89 237.132 545.06 237.332 546.22C237.512 547.22 237.692 548.22 237.882 549.22C238.092 550.37 238.312 551.52 238.532 552.66C238.752 553.8 238.942 554.66 239.152 555.66C239.392 556.8 239.632 557.93 239.892 559.06C240.152 560.19 240.332 561.06 240.572 561.99C240.832 563.12 241.112 564.24 241.392 565.35C241.672 566.46 241.882 567.3 242.132 568.26C242.432 569.38 242.732 570.49 243.042 571.6C243.302 572.6 243.572 573.52 243.852 574.47C244.172 575.58 244.502 576.68 244.852 577.78C245.202 578.88 245.432 579.67 245.732 580.62C246.032 581.57 246.432 582.81 246.792 583.9C247.152 584.99 247.412 585.77 247.732 586.7C248.112 587.79 248.492 588.88 248.882 589.97C249.212 590.88 249.532 591.8 249.882 592.71L251.122 595.98C251.472 596.87 251.812 597.77 252.122 598.66C252.562 599.75 253.012 600.85 253.462 601.94C253.822 602.8 254.172 603.67 254.542 604.53C255.012 605.65 255.542 606.75 255.992 607.86C256.362 608.68 256.722 609.51 257.092 610.33C257.612 611.49 258.162 612.63 258.692 613.77L259.772 616.07C260.382 617.33 261.012 618.57 261.642 619.82C261.962 620.45 262.262 621.09 262.592 621.72C264.512 625.46 266.512 629.15 268.592 632.79C268.882 633.26 269.252 633.87 269.612 634.48Z" fill="#F3AB98"/>
<path d="M233.25 500C233.25 352.68 352.68 233.25 500 233.25C647.32 233.25 766.75 352.68 766.75 500C766.788 539.694 757.949 578.895 740.88 614.731C723.811 650.568 698.945 682.135 668.1 707.12C662.627 711.573 656.98 715.803 651.16 719.81C591 758 515 758 446.39 751.89C439.73 750.89 433.09 749.63 426.5 748.18C400.17 742.38 374.68 733.43 351.13 720.38C345.31 716.793 339.667 712.92 334.2 708.76C328.706 704.576 323.432 700.11 318.4 695.38C313.64 690.96 309.044 686.367 304.61 681.6C258.667 632.299 233.161 567.39 233.25 500Z" stroke="#592D3D" stroke-width="12" stroke-miterlimit="10"/>
<path d="M386.122 758.72C295.352 758.72 314.122 872.96 313.252 1000H386.122V758.72Z" fill="#FDD2B2"/>
<path d="M367.232 831.87L390.002 870L378.612 1000H346.882C346.072 819.73 367.232 831.87 367.232 831.87Z" fill="#F3AB98"/>
<path d="M619.472 1070H380.532C377.011 1070 373.636 1068.6 371.148 1066.11C368.659 1063.62 367.262 1060.24 367.262 1056.72V772C367.262 768.48 368.659 765.103 371.148 762.613C373.636 760.123 377.011 758.723 380.532 758.72H613.762C626.852 758.72 632.762 766.38 632.762 778.6V1056.68C632.767 1058.43 632.427 1060.16 631.761 1061.78C631.096 1063.39 630.117 1064.86 628.883 1066.1C627.648 1067.34 626.181 1068.32 624.566 1068.99C622.951 1069.66 621.22 1070 619.472 1070Z" fill="#FDD2B2"/>
<path d="M629.052 766.62C628.055 765.394 627.212 764.051 626.542 762.62C624.141 760.738 621.284 759.527 618.262 759.11C616.773 758.879 615.268 758.766 613.762 758.77H380.532C377.02 758.773 373.652 760.166 371.165 762.645C368.679 765.125 367.275 768.488 367.262 772C396.262 782.42 450.552 788.24 500.002 788.24C563.062 788.24 604.382 778.89 629.052 766.62Z" fill="#F3AB98"/>
<path d="M610 758.72C700.76 758.72 682 872.96 682.87 1000H632.74" stroke="#592D3D" stroke-width="12" stroke-miterlimit="10" stroke-linecap="square"/>
<path d="M386.122 758.72C295.352 758.72 314.122 872.96 313.252 1000H363.322" stroke="#592D3D" stroke-width="12" stroke-miterlimit="10" stroke-linecap="square"/>
<path d="M380.531 758.82L613.761 758.72" stroke="#592D3D" stroke-width="12" stroke-miterlimit="10"/>
<path d="M380.532 1070H497.152C388.002 1070 396.242 838.82 367.262 838.82V1056.68C367.257 1058.43 367.596 1060.16 368.26 1061.77C368.925 1063.39 369.901 1064.86 371.134 1066.09C372.366 1067.33 373.831 1068.31 375.444 1068.98C377.056 1069.65 378.785 1070 380.532 1070Z" fill="#F3AB98"/>
<path d="M361.259 860.85C361.069 857.18 361.149 853.51 361.309 849.85C361.469 846.19 361.779 842.5 362.169 838.85C362.369 837.01 362.569 835.18 362.819 833.34C363.069 831.5 363.309 829.67 363.669 827.83C364.378 824.022 365.585 820.323 367.259 816.83C368.933 820.323 370.14 824.022 370.849 827.83C371.209 829.67 371.469 831.5 371.699 833.34C371.929 835.18 372.149 837.01 372.349 838.85C372.729 842.52 373.029 846.19 373.199 849.85C373.369 853.51 373.449 857.19 373.259 860.85H361.259Z" fill="#592D3D"/>
<path d="M632.742 870V878C633.002 912 633.002 947 632.742 980.75C632.742 983.62 632.742 986.47 632.742 989.28V1056.69C632.746 1058.44 632.405 1060.16 631.74 1061.78C631.075 1063.39 630.099 1064.86 628.866 1066.1C627.634 1067.33 626.17 1068.31 624.558 1068.98C622.946 1069.65 621.217 1070 619.472 1070H380.532C377.011 1070 373.636 1068.6 371.148 1066.11C368.659 1063.62 367.262 1060.24 367.262 1056.72V998.52C367.262 996.01 367.262 993.45 367.262 990.87C367.012 956 367.012 921 367.262 885.57V860.85" stroke="#592D3D" stroke-width="12" stroke-miterlimit="10"/>
<path d="M626.74 870C626.55 865.83 626.64 861.65 626.8 857.47C626.96 853.29 627.27 849.12 627.65 844.94C627.85 842.85 628.06 840.76 628.3 838.67C628.54 836.58 628.79 834.5 629.15 832.41C629.847 828.106 631.052 823.9 632.74 819.88C634.428 823.9 635.633 828.106 636.33 832.41C636.69 834.5 636.95 836.59 637.18 838.67C637.41 840.75 637.63 842.85 637.83 844.94C638.21 849.12 638.52 853.29 638.68 857.47C638.84 861.65 638.93 865.83 638.74 870H626.74Z" fill="#592D3D"/>
<path d="M570.68 842.45C570.9 833 582.9 829 588.9 835C589.875 835.995 590.644 837.173 591.164 838.466C591.684 839.759 591.944 841.141 591.93 842.535C591.915 843.928 591.627 845.305 591.08 846.587C590.534 847.868 589.74 849.03 588.745 850.005C587.749 850.98 586.572 851.75 585.279 852.269C583.986 852.789 582.603 853.05 581.21 853.035C579.817 853.021 578.44 852.732 577.158 852.186C575.876 851.639 574.715 850.845 573.74 849.85C572.766 848.88 571.994 847.726 571.469 846.456C570.944 845.186 570.675 843.824 570.68 842.45Z" fill="#592D3D"/>
<path d="M408.109 842.15C407.899 834 416.899 830 422.899 833C430.899 836 430.899 847 422.899 852C418.899 854 414.899 852 411.149 849.52C410.182 848.552 409.416 847.403 408.894 846.138C408.372 844.873 408.106 843.518 408.109 842.15Z" fill="#592D3D"/>
<path d="M500 831.77C500.715 833.655 501.218 835.614 501.5 837.61C501.797 839.543 501.961 841.494 501.99 843.45L502.29 855.14C502.38 859.03 502.5 862.93 502.54 866.83L502.71 878.5C502.94 894.07 502.93 909.66 502.99 925.24C503.05 940.82 503.17 956.4 502.99 971.98C502.9 979.77 502.69 987.56 502.46 995.35C502.36 999.24 502.17 1003.14 501.79 1007.03C501.45 1010.96 500.859 1014.87 500.02 1018.72C499.181 1014.87 498.59 1010.96 498.25 1007.03C497.87 1003.14 497.68 999.24 497.58 995.35C497.35 987.56 497.14 979.77 497.05 971.98C496.85 956.4 497.05 940.82 497.05 925.24C497.05 909.66 497.05 894.09 497.23 878.51L497.4 866.81L497.73 855.13L498.06 843.45C498.097 841.494 498.264 839.543 498.56 837.61C498.822 835.616 499.305 833.657 500 831.77Z" fill="#F3AB98"/>
<path d="M425.219 883C426.702 882.295 428.272 881.791 429.889 881.5C431.433 881.21 432.998 881.043 434.569 881L443.919 880.67L462.619 880.26C475.079 880.07 487.529 880.02 499.999 879.99C512.469 879.96 524.929 879.83 537.389 879.99C543.619 880.08 549.849 880.29 556.089 880.52C559.199 880.63 562.319 880.82 565.429 881.19C568.587 881.54 571.713 882.135 574.779 882.97C571.715 883.81 568.588 884.402 565.429 884.74C562.319 885.12 559.199 885.31 556.089 885.41C549.849 885.64 543.619 885.84 537.389 885.93C524.929 886.12 512.469 885.93 499.999 885.93C487.529 885.93 475.069 885.93 462.599 885.78C456.369 885.72 450.139 885.52 443.919 885.28L434.569 884.94C433.001 884.898 431.44 884.731 429.899 884.44C428.282 884.17 426.708 883.686 425.219 883Z" fill="#F3AB98"/>
<path d="M442.41 914.38C443.591 913.817 444.853 913.442 446.15 913.27C447.349 913.101 448.561 913.05 449.77 913.12C452.16 913.22 454.55 913.28 456.94 913.33C461.72 913.44 466.5 913.48 471.28 913.5C480.91 913.5 490.37 913.58 500.04 913.29C509.71 913 519.3 912.86 528.92 912.9C533.73 912.9 538.54 913.03 543.34 913.14C545.757 913.172 548.17 913.329 550.57 913.61C553.037 913.882 555.472 914.395 557.84 915.14C555.528 916.048 553.129 916.718 550.68 917.14C548.296 917.569 545.888 917.857 543.47 918C538.65 918.35 533.83 918.65 529.02 918.82C519.38 919.18 509.75 919.14 500.14 919.27C495.33 919.27 490.53 919.49 485.66 919.37C480.79 919.25 475.97 919.24 471.14 919.06C466.31 918.88 461.46 918.48 456.64 917.98C454.22 917.71 451.82 917.41 449.41 917.08C448.193 916.931 446.996 916.649 445.84 916.24C444.599 915.82 443.439 915.191 442.41 914.38Z" fill="#F3AB98"/>
<path d="M438.93 949.87C440.116 949.172 441.405 948.666 442.75 948.37C444.003 948.079 445.283 947.914 446.57 947.88L454.2 947.56C459.29 947.38 464.39 947.23 469.48 947.15C479.66 947 489.84 947 500 947C510.16 947 520.36 946.83 530.54 947C535.63 947.09 540.72 947.3 545.81 947.53C548.363 947.616 550.91 947.836 553.44 948.19C556.045 948.547 558.61 949.154 561.1 950C558.618 950.831 556.063 951.423 553.47 951.77C550.937 952.132 548.387 952.356 545.83 952.44C540.74 952.67 535.65 952.88 530.56 952.97C520.38 953.17 510.19 953.03 500.01 952.97C489.83 952.91 479.65 952.91 469.47 952.72C464.38 952.62 459.28 952.44 454.19 952.23L446.56 951.86C445.273 951.821 443.993 951.653 442.74 951.36C441.398 951.07 440.112 950.567 438.93 949.87Z" fill="#F3AB98"/>
<path d="M568.442 849.8C547.262 856.69 526.442 867.28 505.592 869.47C478.842 872.29 451.492 856.1 423.292 848.39C421.142 845.81 404.942 833.95 389.822 834.45C377.942 834.85 374.732 838.75 371.422 842.64L367.262 1056.12C367.262 1059.64 368.66 1063.01 371.148 1065.5C373.637 1067.99 377.012 1069.39 380.532 1069.39H619.472C622.991 1069.39 626.366 1067.99 628.855 1065.5C631.344 1063.01 632.742 1059.64 632.742 1056.12L630.362 840.76C625.932 840.76 623.262 831.36 609.952 835.67C593.662 841 569.712 848.28 568.442 849.8Z" fill="#D67070"/>
<path d="M632.739 831.31L609.949 869.4L621.339 999.43H632.939V893.78L632.739 831.31Z" fill="#C46565"/>
<path d="M380.532 1069.39H497.152C387.952 1069.39 396.242 838.25 367.262 838.25V1056.12C367.262 1059.64 368.66 1063.01 371.148 1065.5C373.637 1067.99 377.012 1069.39 380.532 1069.39Z" fill="#C46565"/>
<path d="M361.26 860.4C361.047 857.642 361.013 854.873 361.16 852.11C361.287 849.343 361.523 846.573 361.87 843.8C362.05 842.41 362.22 841.03 362.44 839.64C362.66 838.25 362.88 836.87 363.22 835.48C363.905 832.528 365.066 829.708 366.66 827.13C368.347 829.646 369.607 832.423 370.39 835.35C370.78 836.73 371.07 838.11 371.32 839.48C371.57 840.85 371.82 842.24 372.04 843.62C372.48 846.37 372.83 849.13 373.04 851.89C373.295 854.646 373.365 857.415 373.25 860.18L361.26 860.4Z" fill="#592D3D"/>
<path d="M632.742 869.4V877.4C633.002 911.4 633.002 946.4 632.742 980.16C632.742 983.03 632.742 985.88 632.742 988.69V1056.1C632.742 1059.62 631.344 1062.99 628.855 1065.48C626.366 1067.97 622.991 1069.37 619.472 1069.37H380.532C377.012 1069.37 373.637 1067.97 371.148 1065.48C368.66 1062.99 367.262 1059.62 367.262 1056.1V998C367.262 995.493 367.262 992.943 367.262 990.35C367.012 955.49 367.012 920.49 367.262 885.05V860.29" stroke="#592D3D" stroke-width="12" stroke-miterlimit="10"/>
<path d="M626.762 869.38C626.793 866.526 627.01 863.676 627.412 860.85C627.792 858.017 628.278 855.193 628.872 852.38C629.172 850.97 629.472 849.56 629.812 848.16C630.152 846.76 630.502 845.35 630.962 843.95C631.905 840.985 633.316 838.19 635.142 835.67C636.608 838.416 637.621 841.381 638.142 844.45C638.402 845.9 638.562 847.34 638.692 848.78C638.822 850.22 638.942 851.66 639.042 853.09C639.222 855.96 639.322 858.83 639.292 861.68C639.292 864.535 639.112 867.388 638.752 870.22L626.762 869.38Z" fill="#592D3D"/>
<path d="M557.91 889.36C562.32 888.58 566.67 887.97 571.01 887.36L584.01 885.43C588.32 884.78 592.62 884.07 596.92 883.33C601.22 882.59 605.53 881.75 609.99 881.13C606.08 883.32 601.947 885.083 597.66 886.39C593.41 887.721 589.064 888.724 584.66 889.39C580.249 890.074 575.794 890.445 571.33 890.5C566.83 890.581 562.333 890.199 557.91 889.36Z" fill="#592D3D"/>
<path d="M329.09 794.17C385.21 829.75 497.57 869.7 497.57 869.7L497.41 883.7C497.41 883.7 397 879.36 316.32 844.9C316.32 814.38 329.09 794.17 329.09 794.17Z" fill="#D67070" stroke="#592D3D" stroke-width="12" stroke-miterlimit="10"/>
<path d="M648.659 870.5C648.659 870.5 666.359 868.65 679.559 861.5C679.449 857.25 678.959 853.39 678.959 853.39L648.109 864.07L648.659 870.5Z" fill="#F3AB98"/>
<path d="M671.55 794.43C619 831.8 503 869.7 503 869.7L503.17 883.7C503.17 883.7 603.58 879.4 684.25 844.94C684.29 822.67 671.55 794.43 671.55 794.43Z" fill="#D67070" stroke="#592D3D" stroke-width="12" stroke-miterlimit="10"/>
<path d="M320.632 822.65C320.912 822.89 321.462 823.26 321.902 823.57C322.342 823.88 322.902 824.21 323.352 824.52C324.352 825.12 325.352 825.73 326.432 826.29C328.512 827.45 330.662 828.54 332.862 829.57C335.062 830.6 337.282 831.57 339.512 832.57C340.632 833.07 341.742 833.57 342.852 834.15C343.962 834.73 345.072 835.25 346.162 835.91C343.661 835.778 341.177 835.417 338.742 834.83C336.322 834.23 333.932 833.513 331.572 832.68C329.185 831.854 326.848 830.889 324.572 829.79C323.442 829.23 322.312 828.63 321.212 827.95C320.662 827.61 320.122 827.26 319.572 826.89C318.987 826.491 318.429 826.053 317.902 825.58L320.632 822.65Z" fill="#592D3D"/>
<path d="M271.401 568.53C270.401 540.17 289.401 516.17 314.681 504.97C317.336 503.883 320.062 502.981 322.841 502.27C336.856 498.806 351.599 499.759 365.051 505C368.12 506.18 371.103 507.57 373.981 509.16C403.511 525.05 416.771 562.41 405.341 592.62C404.183 595.666 402.785 598.615 401.161 601.44C397.173 609.748 391.15 616.913 383.651 622.27C381.149 624.111 378.527 625.781 375.801 627.27C348.421 640.27 311.421 636.27 289.351 615.87C287.141 613.527 285.099 611.031 283.241 608.4C281.118 605.397 279.255 602.219 277.671 598.9C274.318 592.095 272.389 584.677 272.001 577.1C271.639 574.257 271.439 571.396 271.401 568.53Z" fill="#F3AB98"/>
<path d="M269.772 550.18C268.772 521.82 287.772 497.82 313.052 486.62C315.703 485.533 318.427 484.631 321.202 483.92C335.215 480.438 349.962 481.374 363.422 486.6C366.487 487.78 369.468 489.17 372.342 490.76C401.872 506.65 415.132 544.02 403.702 574.22C402.552 577.269 401.154 580.219 399.522 583.04C398.14 585.749 396.566 588.356 394.812 590.84C393.084 593.302 391.186 595.641 389.132 597.84C386.912 600.037 384.532 602.066 382.012 603.91C379.512 605.753 376.889 607.424 374.162 608.91C346.782 621.91 309.782 617.91 287.722 597.52C285.511 595.174 283.47 592.674 281.612 590.04C279.487 587.037 277.62 583.859 276.032 580.54C272.67 573.761 270.727 566.366 270.322 558.81C269.964 555.947 269.781 553.065 269.772 550.18Z" fill="white" stroke="#592D3D" stroke-width="12" stroke-miterlimit="10"/>
<path d="M338.51 563.03C345.27 563.03 350.75 557.55 350.75 550.79C350.75 544.03 345.27 538.55 338.51 538.55C331.75 538.55 326.27 544.03 326.27 550.79C326.27 557.55 331.75 563.03 338.51 563.03Z" fill="#592D3D"/>
<path d="M583.89 560.47C584.32 545.34 590.56 530.38 598.99 519.14C601.143 516.12 603.523 513.268 606.11 510.61C617.61 498.622 633.013 491.133 649.543 489.492C666.074 487.852 682.648 492.166 696.28 501.66C698.552 503.245 700.732 504.958 702.81 506.79C729.81 528.24 732.93 569.93 718.13 600.02C716.692 602.411 715.096 604.703 713.35 606.88C711.037 609.781 708.503 612.499 705.77 615.01C685.5 632.84 653.96 637.14 628.36 627.43C624.713 626.054 621.185 624.382 617.81 622.43C599.91 611.65 587.44 591.34 584.38 570.2C583.966 566.974 583.802 563.721 583.89 560.47Z" fill="#F3AB98"/>
<path d="M589.382 549C589.802 534.85 595.802 520.85 603.902 510.34C605.986 507.506 608.279 504.832 610.762 502.34C622.013 491.101 636.821 484.123 652.651 482.602C668.481 481.08 684.347 485.11 697.532 494C699.714 495.477 701.811 497.076 703.812 498.79C729.812 518.86 732.812 557.86 718.552 586.01C717.17 588.255 715.633 590.4 713.952 592.43C711.72 595.146 709.282 597.686 706.662 600.03C687.152 616.71 656.802 620.74 632.172 611.65C628.658 610.346 625.257 608.758 622.002 606.9C604.782 596.82 592.782 577.82 589.832 558.05C589.439 555.05 589.289 552.024 589.382 549Z" fill="white" stroke="#592D3D" stroke-width="12" stroke-miterlimit="10"/>
<path d="M659.209 563.03C665.969 563.03 671.449 557.55 671.449 550.79C671.449 544.03 665.969 538.55 659.209 538.55C652.449 538.55 646.969 544.03 646.969 550.79C646.969 557.55 652.449 563.03 659.209 563.03Z" fill="#592D3D"/>
<path d="M446.66 606.02H542.53" stroke="#592D3D" stroke-width="12" stroke-miterlimit="10" stroke-linecap="round"/>
<path d="M729.47 414.02H290.23V478.17H729.47V414.02Z" fill="#F3AB98"/>
<path d="M710.001 667.66C706.861 671.54 703.624 675.33 700.291 679.03C697.791 681.8 702.871 677.91 710.001 667.66ZM725.001 351.11C694.501 296.7 641.501 259.24 580.221 242L573.871 240.29C551.171 234.01 527.251 233.29 502.551 233.29C475.861 233.29 450.091 236.03 425.781 243.29L421.521 244.56C335.161 273.62 263.781 346.74 245.061 429.8C213.001 556.34 262.891 634 307.171 681.6C311.541 686.3 249.241 579.75 289.751 465.6C297.481 465.31 309.991 465.09 325.941 464.93L341.441 414.32L358.881 464.7C386.281 464.57 418.761 464.55 452.761 464.58L465.081 412.22L479.001 464.6C553.371 464.74 630.441 465.12 674.281 465.37L687.481 413.2L702.481 465.53L710.691 465.58C760.781 572 728.501 641.13 710.001 667.66C748.445 620.247 769.386 561.04 769.301 500C769.301 413.58 725.001 351.11 725.001 351.11Z" fill="#FEDC58"/>
<path d="M325.142 464.92C326.042 407.07 345.022 338.49 391.362 257.48C388.649 258.733 385.962 260.027 383.302 261.36L382.712 261.65C381.492 262.26 380.272 262.89 379.062 263.53L378.062 264.06C374.302 266.06 370.592 268.137 366.932 270.29L366.032 270.82C364.872 271.51 363.722 272.21 362.572 272.92L361.712 273.46C358.132 275.693 354.612 278.003 351.152 280.39L350.072 281.14C348.992 281.9 347.912 282.66 346.842 283.43L346.192 283.9C344.012 285.493 341.855 287.107 339.722 288.74L339.102 289.22C338.102 290 337.102 290.8 336.102 291.61L334.922 292.55C333.922 293.36 332.922 294.17 331.922 295C329.812 296.75 327.742 298.55 325.682 300.37L324.542 301.37L321.852 303.82L320.532 305C317.685 307.667 314.895 310.39 312.162 313.17L310.792 314.58C309.992 315.4 309.202 316.22 308.422 317.05L307.052 318.53C305.685 320.023 304.335 321.513 303.002 323C302.542 323.51 302.082 324 301.632 324.54C300.922 325.35 300.222 326.17 299.522 326.99L298.002 328.8C297.322 329.61 296.642 330.42 296.002 331.24C295.462 331.9 294.932 332.57 294.392 333.24C293.332 334.57 292.282 335.9 291.242 337.24C290.692 337.94 290.152 338.64 289.622 339.35C289.092 340.06 288.422 340.94 287.832 341.75L286.242 343.93C285.682 344.71 285.112 345.48 284.562 346.26C283.622 347.6 282.682 348.95 281.762 350.31C281.262 351.04 280.762 351.79 280.282 352.53C279.802 353.27 279.172 354.19 278.632 355.03C278.092 355.87 277.632 356.57 277.152 357.34C276.672 358.11 276.022 359.14 275.462 360.05C275.032 360.74 274.602 361.43 274.182 362.12C273.302 363.58 272.435 365.047 271.582 366.52C271.162 367.24 270.762 367.96 270.352 368.68C269.812 369.63 269.272 370.59 268.742 371.55C268.342 372.28 267.942 373.01 267.552 373.74C266.912 374.93 266.282 376.13 265.662 377.33C265.252 378.11 264.852 378.89 264.452 379.67C263.812 380.95 263.172 382.22 262.552 383.51C262.212 384.2 261.882 384.9 261.552 385.6C261.032 386.69 260.552 387.79 260.012 388.89L259.102 390.89C258.362 392.537 257.639 394.203 256.932 395.89C256.712 396.41 256.502 396.94 256.282 397.46C255.752 398.73 255.282 400 254.722 401.28C254.452 401.95 254.192 402.62 253.932 403.28C253.442 404.54 252.932 405.81 252.482 407.08L251.872 408.73C251.205 410.483 250.585 412.237 250.012 413.99L249.452 415.69C249.012 417.023 248.582 418.357 248.162 419.69C247.962 420.32 247.762 420.96 247.572 421.6C247.092 423.14 246.632 424.683 246.192 426.23C246.092 426.56 245.992 426.89 245.902 427.23C245.382 429.07 244.882 430.917 244.402 432.77L243.952 434.55C243.762 435.29 243.582 436.04 243.402 436.79C241.842 443.48 240.522 450.02 239.402 456.42C239.302 457.08 239.182 457.73 239.082 458.42L238.842 459.94C238.542 461.893 238.269 463.853 238.022 465.82C237.962 466.25 237.912 466.69 237.862 467.12C237.662 468.71 237.482 470.31 237.312 471.91L237.132 473.72C236.962 475.4 236.812 477.09 236.682 478.78L236.592 479.78C236.439 481.78 236.312 483.797 236.212 485.83C236.212 486.36 236.162 486.9 236.132 487.43C236.059 489.003 235.999 490.573 235.952 492.14C235.952 492.73 235.952 493.32 235.902 493.91C235.902 495.96 235.832 498.02 235.832 500.08V500.18C235.832 502.4 235.832 504.6 235.912 506.8C235.912 507.56 235.972 508.32 235.992 509.08C236.042 510.55 236.092 512.02 236.162 513.49C236.212 514.38 236.272 515.26 236.322 516.15C236.402 517.48 236.482 518.81 236.572 520.15L236.812 522.98C236.922 524.24 237.022 525.5 237.152 526.75C237.242 527.75 237.362 528.69 237.462 529.66C237.602 530.87 237.732 532.09 237.882 533.3C238.002 534.3 238.142 535.3 238.272 536.25C238.432 537.43 238.602 538.62 238.772 539.8C238.922 540.8 239.082 541.8 239.242 542.8C239.432 543.96 239.612 545.13 239.822 546.29C239.992 547.29 240.172 548.29 240.362 549.29C240.572 550.44 240.792 551.59 241.022 552.73C241.252 553.87 241.422 554.73 241.632 555.73C241.872 556.87 242.112 558 242.372 559.13C242.632 560.26 242.822 561.13 243.052 562.06C243.322 563.19 243.592 564.31 243.872 565.42C244.152 566.53 244.362 567.37 244.622 568.34C244.882 569.31 245.212 570.56 245.522 571.67C245.782 572.67 246.052 573.59 246.332 574.54C246.652 575.65 246.982 576.75 247.332 577.85C247.682 578.95 247.902 579.74 248.202 580.69C248.502 581.64 248.912 582.88 249.272 583.97C249.582 584.9 249.882 585.84 250.202 586.77C250.582 587.86 250.962 588.95 251.352 590.04L252.352 592.78C252.762 593.87 253.182 594.96 253.602 596.05C253.942 596.94 254.282 597.84 254.602 598.73C255.042 599.82 255.492 600.92 255.942 602.01C256.302 602.87 256.652 603.74 257.022 604.6C257.502 605.72 258.022 606.82 258.482 607.93C258.842 608.76 259.202 609.58 259.572 610.4C260.092 611.56 260.642 612.7 261.182 613.84C261.542 614.61 261.892 615.38 262.262 616.14C262.862 617.4 263.492 618.64 264.122 619.89L265.072 621.79C266.992 625.53 268.992 629.22 271.072 632.86C271.432 633.48 271.802 634.09 272.162 634.7C272.862 635.9 273.552 637.1 274.272 638.28C274.712 639 275.162 639.7 275.602 640.42C276.262 641.49 276.922 642.56 277.602 643.61C278.082 644.37 278.602 645.11 279.072 645.85C279.722 646.85 280.382 647.85 281.072 648.85C281.582 649.61 282.072 650.37 282.632 651.13C283.292 652.13 283.952 653.05 284.632 654.01C285.172 654.78 285.732 655.54 286.282 656.31C286.832 657.08 287.622 658.16 288.282 659.08C288.942 660 289.432 660.61 290.002 661.37L292.072 664.07C292.662 664.83 293.262 665.58 293.862 666.33C294.462 667.08 295.272 668.09 295.982 668.96C296.692 669.83 297.212 670.45 297.832 671.19C298.452 671.93 299.272 672.91 300.002 673.76L301.912 675.96L304.132 678.46C304.782 679.19 305.442 679.9 306.132 680.62C306.532 681.06 306.942 681.49 307.352 681.93C309.722 683.3 249.872 578.24 289.782 465.78C297.342 465.29 309.572 465.08 325.142 464.92Z" fill="#EDBF2E"/>
<path d="M420.82 134.59C423.577 126.683 427.699 119.322 433 112.84C434.37 111.25 435.72 109.63 437.16 108.1C438.6 106.57 440.16 105.1 441.69 103.69C443.22 102.28 444.9 100.96 446.57 99.69C448.24 98.42 449.98 97.19 451.74 96.04C453.5 94.89 455.34 93.83 457.21 92.85L460.03 91.42C460.96 90.9216 461.915 90.471 462.89 90.07C464.89 89.31 466.78 88.45 468.78 87.78C470.78 87.11 472.78 86.46 474.78 85.97C482.888 83.8623 491.3 83.1854 499.64 83.97C491.482 84.756 483.434 86.4327 475.64 88.97C474.64 89.23 473.74 89.67 472.79 89.97L469.94 90.97C468.06 91.7 466.25 92.62 464.4 93.42C462.55 94.22 460.82 95.27 459.02 96.19C457.22 97.11 455.58 98.28 453.85 99.31C452.12 100.34 450.52 101.59 448.85 102.72C447.18 103.85 445.7 105.24 444.09 106.47C442.48 107.7 441.09 109.15 439.56 110.47L435.28 114.78C429.74 120.826 424.89 127.47 420.82 134.59Z" fill="white"/>
<path d="M520.11 249.17C505.866 249.987 491.682 251.633 477.63 254.1C474.14 254.78 470.63 255.52 467.19 256.16C463.75 256.8 460.29 257.77 456.84 258.57L446.57 261.29C443.18 262.29 439.81 263.37 436.43 264.4C422.945 268.748 409.772 274.006 397 280.14C384.164 286.369 371.724 293.382 359.75 301.14C370.414 291.409 382.188 282.971 394.83 276C407.476 268.928 420.795 263.133 434.59 258.7C438.06 257.7 441.52 256.62 445.01 255.65C448.5 254.68 452.01 253.83 455.55 253.06C459.09 252.29 462.65 251.65 466.21 251.06C469.77 250.47 473.36 249.98 476.95 249.54C491.276 247.772 505.756 247.648 520.11 249.17Z" fill="white"/>
<path d="M529.832 233.83C534.892 232.62 540.07 231.976 545.272 231.91C547.832 231.85 550.382 231.91 552.942 232.04C555.502 232.17 558.062 232.34 560.622 232.56C565.776 233.006 570.9 233.741 575.972 234.76C581.106 235.757 586.15 237.176 591.052 239L587.162 250.35C582.542 248.97 577.912 247.57 573.212 246.28C568.512 244.99 563.762 243.77 558.962 242.57L551.712 240.81C549.282 240.24 546.842 239.66 544.412 239C539.405 237.723 534.525 235.992 529.832 233.83Z" fill="#592D3D"/>
<path d="M710.001 667.66C706.861 671.54 703.624 675.33 700.291 679.03C697.791 681.8 702.871 677.91 710.001 667.66ZM710.001 667.66C728.501 641.13 760.781 572 710.691 465.58L702.481 465.53L687.481 413.2L674.281 465.37C630.441 465.12 553.371 464.74 479.001 464.6L465.081 412.22L452.761 464.58C418.761 464.55 386.281 464.57 358.881 464.7L341.441 414.32L325.941 464.93C309.991 465.09 297.481 465.31 289.751 465.6C249.241 579.75 311.541 686.3 307.171 681.6C262.891 634 213.001 556.34 245.061 429.8C263.781 346.74 335.161 273.62 421.521 244.56L425.781 243.29C450.091 236.03 475.861 233.29 502.551 233.29C527.251 233.29 551.171 234.01 573.871 240.29L580.221 242C641.501 259.24 694.501 296.7 725.001 351.11C725.001 351.11 769.301 413.58 769.301 500C769.386 561.04 748.445 620.247 710.001 667.66Z" stroke="#592D3D" stroke-width="12" stroke-miterlimit="10"/>
<path d="M284.48 462.85C284.66 462.1 284.81 461.53 285.01 460.91C285.21 460.29 285.41 459.71 285.63 459.13C286.09 457.96 286.63 456.82 287.14 455.71C288.256 453.474 289.544 451.328 290.99 449.29C292.42 447.214 294.055 445.288 295.87 443.54C297.849 441.665 300.25 440.293 302.87 439.54C302.902 442.126 302.61 444.706 302 447.22C301.72 448.36 301.41 449.47 301.07 450.54L300.07 453.79C299.404 455.943 298.737 458.073 298.07 460.18C297.74 461.24 297.39 462.27 297.07 463.31C296.9 463.82 296.7 464.31 296.51 464.84C296.32 465.37 296.12 465.84 295.95 466.24L284.48 462.85Z" fill="#592D3D"/>
<path d="M710.68 459.58C712.754 459.415 714.839 459.435 716.91 459.64C719.003 459.819 721.086 460.106 723.15 460.5C724.15 460.7 725.23 460.9 726.27 461.14C727.323 461.361 728.362 461.649 729.38 462C731.674 462.774 733.794 463.99 735.62 465.58C733.791 467.169 731.672 468.388 729.38 469.17C728.362 469.518 727.323 469.802 726.27 470.02C725.27 470.27 724.19 470.47 723.15 470.67C721.07 471.057 718.99 471.343 716.91 471.53C714.839 471.732 712.754 471.749 710.68 471.58V459.58Z" fill="#592D3D"/>
<path d="M444.84 452.07C445.079 447.297 445.576 442.54 446.33 437.82C447.05 433.12 447.93 428.45 448.94 423.82C449.95 419.19 451.09 414.57 452.38 409.99C453.672 405.38 455.215 400.843 457 396.4C456.759 401.174 456.258 405.931 455.5 410.65C454.78 415.35 453.91 420.017 452.89 424.65C451.87 429.283 450.723 433.893 449.45 438.48C448.152 443.087 446.613 447.624 444.84 452.07Z" fill="white"/>
<path d="M668 452.07C668.244 447.297 668.741 442.54 669.49 437.82C670.217 433.12 671.087 428.453 672.1 423.82C673.113 419.187 674.243 414.58 675.49 410C676.767 405.394 678.292 400.861 680.06 396.42C679.822 401.194 679.325 405.951 678.57 410.67C677.837 415.37 676.967 420.037 675.96 424.67C674.96 429.31 673.8 433.92 672.51 438.5C671.248 443.1 669.743 447.63 668 452.07Z" fill="white"/>
<path d="M603.101 452.29C614.145 449.476 625.331 447.253 636.611 445.63L634.001 446C647.172 444.081 660.538 443.919 673.751 445.52L671.091 445.16C674.371 445.61 677.631 446.16 680.911 446.57L678.251 446.22C688.204 447.586 698.054 449.624 707.731 452.32C712.731 453.72 718.841 450.6 720.031 445.32C720.685 442.762 720.321 440.051 719.015 437.757C717.709 435.462 715.564 433.764 713.031 433.02C701.687 429.913 690.129 427.647 678.451 426.24L681.101 426.6C670.073 424.642 658.852 423.988 647.671 424.65C636.545 425.382 625.484 426.899 614.571 429.19C608.961 430.33 603.381 431.63 597.811 433C592.731 434.25 589.201 440.26 590.811 445.3C591.56 447.83 593.259 449.972 595.552 451.277C597.845 452.582 600.554 452.948 603.111 452.3L603.101 452.29Z" fill="#592D3D"/>
<path d="M261.262 502.22L275.392 500.74L309.062 497.22L350.002 492.93L385.182 489.24C390.902 488.65 396.622 488.07 402.342 487.45H402.582C405.312 487.17 407.652 486.53 409.652 484.52C411.527 482.645 412.58 480.102 412.58 477.45C412.58 474.798 411.527 472.255 409.652 470.38C407.822 468.69 405.172 467.18 402.582 467.45L388.452 468.93L354.782 472.46L313.782 476.75L278.602 480.43C272.882 481.03 267.162 481.61 261.442 482.23H261.202C258.472 482.52 256.132 483.16 254.132 485.16C253.202 486.089 252.465 487.192 251.961 488.406C251.458 489.62 251.199 490.921 251.199 492.235C251.199 493.549 251.458 494.85 251.961 496.064C252.465 497.278 253.202 498.381 254.132 499.31C255.962 500.99 258.612 502.51 261.202 502.23L261.262 502.22Z" fill="#592D3D"/>
<path d="M491.441 204.62C517.663 204.62 538.921 183.362 538.921 157.14C538.921 130.917 517.663 109.66 491.441 109.66C465.218 109.66 443.961 130.917 443.961 157.14C443.961 183.362 465.218 204.62 491.441 204.62Z" fill="#D67070"/>
<path d="M491.441 204.62C498.512 204.623 505.494 203.047 511.877 200.006C518.261 196.965 523.884 192.536 528.337 187.044C532.79 181.551 535.959 175.133 537.614 168.259C539.269 161.384 539.367 154.227 537.901 147.31C507.121 142.54 475.201 145.31 444.131 153.31C444.031 154.57 443.961 155.84 443.961 157.13C443.96 163.366 445.187 169.541 447.572 175.303C449.958 181.065 453.455 186.3 457.864 190.71C462.273 195.12 467.508 198.618 473.269 201.005C479.03 203.392 485.205 204.62 491.441 204.62Z" fill="#C46565"/>
<path d="M491.441 204.62C517.663 204.62 538.921 183.362 538.921 157.14C538.921 130.917 517.663 109.66 491.441 109.66C465.218 109.66 443.961 130.917 443.961 157.14C443.961 183.362 465.218 204.62 491.441 204.62Z" stroke="#592D3D" stroke-width="12" stroke-miterlimit="10"/>
<path d="M240.258 423.13C240.246 403.777 242.44 384.486 246.798 365.63C247.658 361.93 248.595 358.263 249.608 354.63C252.508 322.33 269.608 295.69 292.468 271.9C297.228 268.09 298.178 259.53 302.938 254.77C319.118 240.5 333.388 226.22 351.468 214.77C425.688 167.19 523.698 141.5 602.678 185.27C618.848 193.83 636.928 198.59 650.248 210.01C675.948 231.89 694.018 257.59 719.718 278.52C742.548 297.52 746.358 328 754.458 354.59C755.478 358.217 756.415 361.883 757.268 365.59C761.626 384.446 763.82 403.737 763.808 423.09L240.258 423.13Z" fill="#D67070"/>
<path d="M246.798 365.63C242.44 384.486 240.246 403.777 240.258 423.13H323.258C321.698 342.47 300.998 275.11 405.998 193C330.678 221.59 262.048 284.38 246.798 365.63Z" fill="#C46565"/>
<path d="M258.178 321.12C253.562 331.765 250.67 343.076 249.608 354.63C248.595 358.257 247.658 361.923 246.798 365.63C242.44 384.486 240.246 403.777 240.258 423.13H440.308C482.774 419.845 525.431 419.845 567.898 423.13H763.808C763.82 403.777 761.626 384.486 757.268 365.63C756.408 361.93 755.471 358.263 754.458 354.63C750.998 343.26 748.308 331.19 744.598 319.63C582.708 259.73 418.998 261 258.178 321.12Z" fill="#C46565"/>
<path d="M240.258 423.13C240.246 403.777 242.44 384.486 246.798 365.63C247.658 361.93 248.595 358.263 249.608 354.63C252.508 322.33 269.608 295.69 292.468 271.9C297.228 268.09 298.178 259.53 302.938 254.77C319.118 240.5 333.388 226.22 351.468 214.77C425.688 167.19 523.698 141.5 602.678 185.27C618.848 193.83 636.928 198.59 650.248 210.01C675.948 231.89 694.018 257.59 719.718 278.52C742.548 297.52 746.358 328 754.458 354.59C755.478 358.217 756.415 361.883 757.268 365.59C761.626 384.446 763.82 403.737 763.808 423.09L240.258 423.13Z" stroke="#592D3D" stroke-width="12" stroke-miterlimit="10"/>
<path d="M225.35 356.43C408.77 278.43 596.49 277.37 781.29 356.43C798.82 363.93 798.72 496.3 781.29 490.24C600.82 427.41 409.96 426.74 225.35 490.24C203.39 497.79 205.53 364.86 225.35 356.43Z" fill="#D67070"/>
<path d="M751.328 443.71C752.156 446.947 752.609 450.269 752.678 453.61C752.768 456.88 752.568 460.13 752.418 463.39L752.058 468.26C751.898 469.88 751.738 471.5 751.538 473.11C751.138 476.34 750.648 479.55 749.948 482.72L742.078 481.31C742.518 478.14 743.078 475 743.718 471.86L744.718 467.15L745.718 462.45C746.458 459.32 747.088 456.18 747.938 453.05C748.778 449.839 749.913 446.712 751.328 443.71Z" fill="#592D3D"/>
<path d="M749.911 342.47C751.47 348.732 752.682 355.075 753.541 361.47C753.971 364.66 754.321 367.86 754.631 371.06C754.941 374.26 755.121 377.48 755.291 380.69C755.551 387.11 755.661 393.53 755.351 399.94C755.073 406.368 754.254 412.76 752.901 419.05C751.901 412.66 751.231 406.35 750.581 400.05C749.931 393.75 749.371 387.5 748.531 381.27C748.141 378.15 747.701 375.05 747.231 371.95C746.761 368.85 746.231 365.76 745.711 362.68C744.641 356.51 743.411 350.39 742.121 344.27L749.911 342.47Z" fill="#592D3D"/>
<path d="M668.781 322C676.341 364.87 675.491 411.49 668.781 460.73" stroke="#592D3D" stroke-width="8" stroke-miterlimit="10"/>
<path d="M598.191 307.61C603.341 350.51 602.761 397.16 598.191 446.44" stroke="#592D3D" stroke-width="8" stroke-miterlimit="10"/>
<path d="M533.849 356.47C535.054 363.309 535.845 370.215 536.219 377.15C536.619 384.05 536.739 390.95 536.869 397.86V408.22C536.869 411.67 536.869 415.12 536.749 418.57C536.599 425.47 536.349 432.37 535.879 439.26L527.879 438.86C528.099 431.99 528.449 425.13 528.819 418.27L530.029 397.7C530.489 390.84 530.849 383.97 531.379 377.1C531.909 370.23 532.689 363.36 533.849 356.47Z" fill="#592D3D"/>
<path d="M535.93 299.88C536.138 301.99 536.232 304.11 536.21 306.23C536.21 307.29 536.16 308.35 536.13 309.41L536 312.6C535.83 314.72 535.68 316.85 535.32 318.98C534.954 321.209 534.252 323.37 533.24 325.39C532.042 323.463 531.133 321.37 530.54 319.18C529.97 317.1 529.61 315.02 529.23 312.93L528.74 309.81C528.61 308.76 528.46 307.72 528.35 306.68C528.113 304.592 527.996 302.492 528 300.39L535.93 299.88Z" fill="#592D3D"/>
<path d="M467.758 299.65C468.108 342.65 468.068 389.32 467.758 438.65" stroke="#592D3D" stroke-width="8" stroke-miterlimit="10"/>
<path d="M403.378 306.18C401.318 349.18 401.548 395.91 403.378 445.29" stroke="#592D3D" stroke-width="8" stroke-miterlimit="10"/>
<path d="M333.37 391.65C334.567 397.192 335.472 402.793 336.08 408.43C336.71 414.02 337.17 419.6 337.73 425.18L339.24 441.91C339.71 447.48 340.17 453.06 340.49 458.65L332.49 459.29C331.91 453.68 331.56 448.05 331.31 442.42C331.18 439.6 331.11 436.78 331.03 433.96L330.93 425.5C330.93 419.86 330.98 414.21 331.28 408.57C331.566 402.887 332.264 397.232 333.37 391.65Z" fill="#592D3D"/>
<path d="M340.48 320.18C340.23 323.83 339.84 327.46 339.43 331.09L338.77 336.54L338.05 341.99C337.51 345.63 337.1 349.27 336.45 352.92C335.823 356.632 334.886 360.285 333.65 363.84C332.606 360.204 331.936 356.472 331.65 352.7C331.35 348.98 331.33 345.28 331.27 341.56V336C331.33 334.14 331.38 332.29 331.47 330.44C331.67 326.73 331.96 323.03 332.47 319.35L340.48 320.18Z" fill="#592D3D"/>
<path d="M264.861 340.45C258.001 383.45 258.771 430.3 264.861 479.75" stroke="#592D3D" stroke-width="8" stroke-miterlimit="10"/>
<path d="M753.07 434.58C753.812 434.58 754.537 434.36 755.154 433.948C755.77 433.536 756.251 432.95 756.535 432.265C756.819 431.58 756.893 430.826 756.748 430.098C756.604 429.371 756.246 428.703 755.722 428.178C755.198 427.654 754.529 427.297 753.802 427.152C753.074 427.007 752.32 427.082 751.635 427.365C750.95 427.649 750.364 428.13 749.952 428.747C749.54 429.363 749.32 430.088 749.32 430.83C749.333 431.82 749.733 432.767 750.433 433.467C751.133 434.168 752.08 434.567 753.07 434.58Z" fill="#592D3D"/>
<path d="M758.281 341.38C768.281 384.22 767.131 430.81 758.281 480.02" stroke="#C46565" stroke-width="8" stroke-miterlimit="10"/>
<path d="M681 320C688.56 362.87 687.71 409.49 681 458.74" stroke="#C46565" stroke-width="8" stroke-miterlimit="10"/>
<path d="M610.379 305.45C615.529 348.35 614.949 395 610.379 444.28" stroke="#C46565" stroke-width="8" stroke-miterlimit="10"/>
<path d="M544.059 297.82C546.799 340.74 546.499 387.43 544.059 436.74" stroke="#C46565" stroke-width="8" stroke-miterlimit="10"/>
<path d="M479.801 297.16C480.141 340.11 480.111 386.83 479.801 436.16" stroke="#C46565" stroke-width="8" stroke-miterlimit="10"/>
<path d="M415.339 303.53C413.279 346.53 413.509 393.26 415.339 442.64" stroke="#C46565" stroke-width="8" stroke-miterlimit="10"/>
<path d="M348.409 317C343.949 360 344.409 406.79 348.409 456.21" stroke="#C46565" stroke-width="8" stroke-miterlimit="10"/>
<path d="M276.739 337.64C269.879 380.64 270.649 427.49 276.739 476.94" stroke="#C46565" stroke-width="8" stroke-miterlimit="10"/>
<path d="M225.35 356.43C408.77 278.43 596.49 277.37 781.29 356.43C798.82 363.93 798.72 496.3 781.29 490.24C600.82 427.41 409.96 426.74 225.35 490.24C203.39 497.79 205.53 364.86 225.35 356.43Z" stroke="#592D3D" stroke-width="12" stroke-miterlimit="10"/>
<path d="M426.758 283.72C439.503 281.05 452.396 279.14 465.368 278C468.618 277.72 471.858 277.44 475.108 277.22L484.858 276.66C488.118 276.52 491.368 276.46 494.628 276.36L504.398 276.23C517.398 276.23 530.448 276.86 543.398 278.07C556.369 279.227 569.259 281.164 581.998 283.87C568.998 283.58 555.998 283.08 543.118 282.74C530.238 282.4 517.278 282.25 504.368 282.22H494.688C491.458 282.22 488.228 282.34 484.998 282.33L475.318 282.47C472.088 282.58 468.858 282.63 465.618 282.67C452.718 283 439.778 283.46 426.758 283.72Z" fill="#592D3D"/>
<path d="M347.309 233.83C354.381 228.175 361.861 223.051 369.689 218.5C377.469 213.88 385.499 209.66 393.689 205.84C395.689 204.84 397.819 203.98 399.889 203.06C401.959 202.14 404.019 201.2 406.129 200.39C410.349 198.74 414.529 197.01 418.829 195.59C427.35 192.549 436.054 190.044 444.889 188.09C442.819 189 440.729 189.87 438.639 190.72C436.549 191.57 434.449 192.36 432.389 193.28C428.239 195.02 424.079 196.7 419.959 198.5L416.869 199.83C415.869 200.26 414.789 200.68 413.769 201.15L407.619 203.88C405.559 204.76 403.529 205.71 401.479 206.63C399.429 207.55 397.389 208.47 395.379 209.46L389.279 212.29C387.279 213.29 385.279 214.29 383.229 215.29C379.229 217.23 375.229 219.29 371.179 221.29C363.189 225.31 355.229 229.48 347.309 233.83Z" fill="white"/>
<path opacity="0.2" d="M382.91 628.5C401.6 628.5 416.75 613.349 416.75 594.66C416.75 575.971 401.6 560.82 382.91 560.82C364.221 560.82 349.07 575.971 349.07 594.66C349.07 613.349 364.221 628.5 382.91 628.5Z" fill="white"/>
<path opacity="0.4" d="M375.872 631L419.182 589.26C416.879 584.835 414.352 580.529 411.612 576.36L365.742 620.57C367.642 621.9 373.722 630.08 375.872 631Z" fill="white"/>
<path d="M382.91 628.5C401.6 628.5 416.75 613.349 416.75 594.66C416.75 575.971 401.6 560.82 382.91 560.82C364.221 560.82 349.07 575.971 349.07 594.66C349.07 613.349 364.221 628.5 382.91 628.5Z" stroke="#592D3D" stroke-width="12" stroke-miterlimit="10"/>
<path d="M378 580.47C379.22 584.3 374.5 587.25 371 587.84C367.46 587.84 365.1 585.48 363.92 582.53C363.33 579.58 363.92 576.63 366.28 574.86C369.23 573.68 373.36 572.5 375.98 575.53C376.63 576.176 377.144 576.947 377.491 577.795C377.838 578.644 378.011 579.553 378 580.47Z" fill="white"/>
<path d="M384.322 578.21C384.242 578.735 383.982 579.215 383.587 579.569C383.191 579.923 382.685 580.129 382.155 580.152C381.625 580.174 381.103 580.012 380.68 579.692C380.256 579.373 379.956 578.916 379.832 578.4C379.832 576.63 380.422 576.04 382.102 575.98C382.691 575.98 383.255 576.214 383.672 576.63C384.088 577.047 384.322 577.611 384.322 578.2V578.21Z" fill="white"/>
<path opacity="0.2" d="M615.199 628.5C633.889 628.5 649.039 613.349 649.039 594.66C649.039 575.971 633.889 560.82 615.199 560.82C596.51 560.82 581.359 575.971 581.359 594.66C581.359 613.349 596.51 628.5 615.199 628.5Z" fill="white"/>
<path opacity="0.4" d="M610.122 628.11L648.662 589.57C648.452 588.2 642.752 581.47 642.372 580.13L600.652 621.87C602.002 622.24 608.752 627.91 610.122 628.11Z" fill="white"/>
<path d="M615.199 628.5C633.889 628.5 649.039 613.349 649.039 594.66C649.039 575.971 633.889 560.82 615.199 560.82C596.51 560.82 581.359 575.971 581.359 594.66C581.359 613.349 596.51 628.5 615.199 628.5Z" stroke="#592D3D" stroke-width="12" stroke-miterlimit="10"/>
<path d="M607.36 579.91C608.36 583.16 604.36 585.66 601.36 586.16C598.36 586.16 596.36 584.16 595.36 581.66C594.86 579.16 595.36 576.66 597.36 575.16C599.86 574.16 603.36 573.16 605.59 575.73C606.149 576.274 606.593 576.923 606.897 577.641C607.201 578.359 607.358 579.13 607.36 579.91Z" fill="white"/>
<path d="M612.702 578C612.632 578.442 612.411 578.847 612.077 579.145C611.743 579.443 611.315 579.616 610.868 579.635C610.42 579.654 609.98 579.517 609.622 579.248C609.264 578.98 609.009 578.595 608.902 578.16C608.902 576.66 609.402 576.16 610.822 576.16C611.314 576.16 611.786 576.352 612.138 576.696C612.489 577.04 612.692 577.508 612.702 578Z" fill="white"/>
<path d="M416.742 594.66C472.529 574.66 527.406 574.66 581.372 594.66" stroke="#592D3D" stroke-width="12" stroke-miterlimit="10"/>
<path opacity="0.15" d="M615.202 634.5C605.392 634.486 595.93 630.858 588.625 624.31C581.32 617.761 576.684 608.751 575.602 599C525.602 581.35 474.142 581.36 422.502 599C421.869 604.798 419.97 610.386 416.939 615.369C413.908 620.352 409.819 624.608 404.962 627.837C400.104 631.065 394.596 633.186 388.828 634.051C383.06 634.916 377.173 634.502 371.582 632.84C377.056 635.527 383.095 636.856 389.191 636.718C395.287 636.579 401.26 634.975 406.605 632.042C411.95 629.109 416.512 624.932 419.903 619.865C423.295 614.799 425.418 608.99 426.092 602.93C475.312 586.07 524.372 586.05 572.022 602.93C572.683 608.998 574.797 614.817 578.183 619.895C581.569 624.973 586.129 629.161 591.476 632.104C596.824 635.047 602.801 636.658 608.903 636.802C615.005 636.946 621.052 635.618 626.532 632.93C622.85 633.993 619.034 634.522 615.202 634.5Z" fill="black"/>
</g>
</svg>
