<svg width="1000" height="990" viewBox="0 0 1000 990" fill="none" xmlns="http://www.w3.org/2000/svg">
<mask id="mask0_22_349" style="mask-type:luminance" maskUnits="userSpaceOnUse" x="0" y="0" width="1000" height="966">
<path d="M1000 0H0V718.31H179.2C217.58 860.69 346.65 965.41 500 965.41C653.35 965.41 782.42 860.69 820.8 718.31H1000V0Z" fill="white"/>
</mask>
<g mask="url(#mask0_22_349)">
<path d="M500.001 962.602C683.603 962.602 832.443 813.762 832.443 630.16C832.443 446.557 683.603 297.718 500.001 297.718C316.398 297.718 167.559 446.557 167.559 630.16C167.559 813.762 316.398 962.602 500.001 962.602Z" fill="#85C5E5"/>
<path d="M610 758.72C700.76 758.72 682 872.96 682.87 1000H610V758.72Z" fill="#D8985D"/>
<path d="M632.74 831.87L610 870L621.38 1000H653.14C653.91 819.73 632.74 831.87 632.74 831.87Z" fill="#C6854E"/>
<path d="M233.25 500C233.25 352.68 352.68 233.25 500 233.25C647.32 233.25 766.75 352.68 766.75 500C766.788 539.694 757.949 578.895 740.88 614.731C723.811 650.568 698.945 682.135 668.1 707.12C662.627 711.573 656.98 715.803 651.16 719.81C591 758 515 758 446.39 751.89C439.73 750.89 433.09 749.63 426.5 748.18C400.17 742.38 374.68 733.43 351.13 720.38C345.31 716.793 339.667 712.92 334.2 708.76C328.706 704.576 323.432 700.11 318.4 695.38C313.64 690.96 309.044 686.367 304.61 681.6C258.667 632.299 233.161 567.39 233.25 500Z" fill="#D8985D"/>
<path d="M269.612 634.48C270.312 635.68 271.002 636.88 271.722 638.06C272.152 638.78 272.602 639.48 273.052 640.2C273.712 641.27 274.372 642.34 275.052 643.39C275.532 644.15 276.052 644.89 276.512 645.63C277.172 646.63 277.832 647.63 278.512 648.63C279.022 649.39 279.512 650.15 280.072 650.91C280.732 651.91 281.392 652.83 282.072 653.79C282.612 654.56 283.172 655.32 283.722 656.09C284.272 656.86 285.062 657.94 285.722 658.86C286.382 659.78 286.872 660.39 287.452 661.15C288.032 661.91 288.822 662.95 289.522 663.85C290.222 664.75 290.712 665.36 291.312 666.11C291.912 666.86 292.722 667.87 293.432 668.74C294.142 669.61 294.662 670.23 295.282 670.97C295.902 671.71 296.722 672.69 297.452 673.54C298.182 674.39 298.722 675.01 299.362 675.74L301.582 678.24C302.232 678.97 302.892 679.68 303.582 680.4C304.442 681.34 305.312 682.27 306.182 683.19L307.392 684.47C308.682 685.81 309.982 687.15 311.302 688.47L311.562 688.74C312.852 690.02 314.162 691.29 315.472 692.55L317.052 694.05C318.002 694.94 318.952 695.83 319.912 696.71L321.072 697.77C322.072 698.71 323.162 699.63 324.212 700.55C327.478 703.397 330.812 706.127 334.212 708.74C339.672 712.9 345.315 716.773 351.142 720.36C374.692 733.36 400.142 742.36 426.512 748.16C433.102 749.61 439.742 750.86 446.402 751.87C488.502 755.62 533.402 757.05 575.682 748.79C508.452 729 185.592 612.74 388.802 257.48C386.082 258.73 383.402 260.02 380.742 261.36L380.152 261.65C378.932 262.26 377.712 262.89 376.502 263.53L375.502 264.06C371.742 266.06 368.022 268.13 364.372 270.29L363.472 270.82C362.312 271.51 361.162 272.21 360.012 272.92L359.142 273.46C355.568 275.693 352.052 278.003 348.592 280.39L347.512 281.14C346.422 281.9 345.352 282.66 344.282 283.43L343.622 283.9C341.442 285.493 339.288 287.107 337.162 288.74L336.542 289.22C335.542 290 334.542 290.8 333.542 291.61L332.372 292.55C331.372 293.36 330.372 294.17 329.372 295C327.262 296.75 325.182 298.55 323.132 300.37L321.992 301.37L319.302 303.82L318.002 305C315.148 307.667 312.358 310.39 309.632 313.17L308.252 314.58C307.462 315.4 306.672 316.22 305.892 317.05C305.432 317.54 304.972 318.05 304.522 318.53C303.148 319.997 301.795 321.483 300.462 322.99C300.012 323.5 299.552 323.99 299.102 324.53C298.392 325.34 297.692 326.16 296.992 326.98L295.482 328.77C294.802 329.58 294.122 330.39 293.482 331.21C292.942 331.87 292.402 332.54 291.872 333.21C290.802 334.54 289.752 335.87 288.712 337.21C288.172 337.91 287.632 338.61 287.102 339.32C286.572 340.03 285.902 340.91 285.312 341.72C284.722 342.53 284.242 343.17 283.722 343.9C283.202 344.63 282.592 345.45 282.042 346.23C281.095 347.563 280.162 348.913 279.242 350.28C278.742 351.01 278.242 351.76 277.752 352.5C277.262 353.24 276.652 354.16 276.112 355L274.622 357.31L272.942 360.02C272.512 360.71 272.082 361.4 271.662 362.09C270.772 363.55 269.912 365.02 269.052 366.49L267.832 368.65C267.292 369.6 266.752 370.56 266.222 371.52C265.822 372.25 265.422 372.98 265.032 373.71C264.392 374.9 263.762 376.1 263.132 377.3L261.932 379.64C261.292 380.92 260.652 382.19 260.022 383.48C259.692 384.17 259.352 384.87 259.022 385.57C258.502 386.66 258.022 387.76 257.492 388.86C257.182 389.52 256.882 390.18 256.582 390.86C255.842 392.507 255.118 394.173 254.412 395.86C254.192 396.38 253.982 396.91 253.762 397.43C253.232 398.7 252.712 399.97 252.202 401.25C251.932 401.92 251.672 402.59 251.412 403.25C250.912 404.51 250.412 405.78 249.962 407.05C249.752 407.6 249.542 408.15 249.342 408.7C248.715 410.453 248.098 412.207 247.492 413.96L246.932 415.66C246.492 416.993 246.062 418.327 245.642 419.66L245.042 421.57C244.572 423.11 244.112 424.65 243.672 426.2C243.572 426.53 243.472 426.86 243.382 427.2C242.862 429.04 242.362 430.887 241.882 432.74C241.722 433.33 241.582 433.93 241.432 434.52C241.082 435.91 240.742 437.3 240.432 438.7L240.012 440.45C239.582 442.35 239.162 444.25 238.772 446.16L238.622 446.93C238.282 448.63 237.948 450.33 237.622 452.03C237.512 452.64 237.412 453.24 237.302 453.85C237.042 455.34 236.792 456.85 236.562 458.35C236.482 458.86 236.392 459.35 236.322 459.87C236.022 461.82 235.752 463.78 235.492 465.75L235.342 467.05C235.142 468.64 234.962 470.24 234.792 471.84C234.732 472.44 234.662 473.04 234.602 473.65C234.442 475.33 234.292 477.02 234.152 478.71C234.152 479.06 234.092 479.4 234.072 479.71C233.925 481.71 233.795 483.727 233.682 485.76C233.682 486.29 233.682 486.83 233.612 487.36C233.545 488.933 233.485 490.503 233.432 492.07C233.432 492.66 233.432 493.25 233.432 493.84C233.432 495.89 233.352 497.95 233.352 500.01C233.352 500.01 233.352 500.08 233.352 500.11C233.352 502.33 233.352 504.53 233.432 506.73C233.432 507.49 233.492 508.25 233.512 509.01C233.562 510.48 233.612 511.95 233.682 513.42C233.682 514.31 233.792 515.19 233.842 516.08C233.922 517.41 233.992 518.74 234.092 520.08C234.162 521.08 234.252 521.97 234.332 522.91C234.442 524.17 234.542 525.43 234.672 526.68C234.762 527.68 234.882 528.62 234.982 529.59C235.122 530.8 235.252 532.02 235.402 533.23C235.522 534.23 235.662 535.23 235.792 536.18C235.952 537.36 236.112 538.55 236.292 539.73C236.442 540.73 236.602 541.73 236.762 542.73C236.942 543.89 237.132 545.06 237.332 546.22C237.512 547.22 237.692 548.22 237.882 549.22C238.092 550.37 238.312 551.52 238.532 552.66C238.752 553.8 238.942 554.66 239.152 555.66C239.392 556.8 239.632 557.93 239.892 559.06C240.152 560.19 240.332 561.06 240.572 561.99C240.832 563.12 241.112 564.24 241.392 565.35C241.672 566.46 241.882 567.3 242.132 568.26C242.432 569.38 242.732 570.49 243.042 571.6C243.302 572.6 243.572 573.52 243.852 574.47C244.172 575.58 244.502 576.68 244.852 577.78C245.202 578.88 245.432 579.67 245.732 580.62C246.032 581.57 246.432 582.81 246.792 583.9C247.152 584.99 247.412 585.77 247.732 586.7C248.112 587.79 248.492 588.88 248.882 589.97C249.212 590.88 249.532 591.8 249.882 592.71L251.122 595.98C251.472 596.87 251.812 597.77 252.122 598.66C252.562 599.75 253.012 600.85 253.462 601.94C253.822 602.8 254.172 603.67 254.542 604.53C255.012 605.65 255.542 606.75 255.992 607.86C256.362 608.68 256.722 609.51 257.092 610.33C257.612 611.49 258.162 612.63 258.692 613.77L259.772 616.07C260.382 617.33 261.012 618.57 261.642 619.82C261.962 620.45 262.262 621.09 262.592 621.72C264.512 625.46 266.512 629.15 268.592 632.79C268.882 633.26 269.252 633.87 269.612 634.48Z" fill="#C6854E"/>
<path d="M233.25 500C233.25 352.68 352.68 233.25 500 233.25C647.32 233.25 766.75 352.68 766.75 500C766.788 539.694 757.949 578.895 740.88 614.731C723.811 650.568 698.945 682.135 668.1 707.12C662.627 711.573 656.98 715.803 651.16 719.81C591 758 515 758 446.39 751.89C439.73 750.89 433.09 749.63 426.5 748.18C400.17 742.38 374.68 733.43 351.13 720.38C345.31 716.793 339.667 712.92 334.2 708.76C328.706 704.576 323.432 700.11 318.4 695.38C313.64 690.96 309.044 686.367 304.61 681.6C258.667 632.299 233.161 567.39 233.25 500Z" stroke="#592D3D" stroke-width="12" stroke-miterlimit="10"/>
<path d="M386.122 758.72C295.352 758.72 314.122 872.96 313.252 1000H386.122V758.72Z" fill="#D8985D"/>
<path d="M367.232 831.87L390.002 870L378.612 1000H346.882C346.072 819.73 367.232 831.87 367.232 831.87Z" fill="#C6854E"/>
<path d="M619.472 1070H380.532C377.011 1070 373.636 1068.6 371.148 1066.11C368.659 1063.62 367.262 1060.24 367.262 1056.72V772C367.262 768.479 368.659 765.103 371.148 762.613C373.636 760.123 377.011 758.722 380.532 758.72H613.762C626.852 758.72 632.762 766.38 632.762 778.6V1056.68C632.767 1058.43 632.427 1060.16 631.761 1061.78C631.096 1063.39 630.117 1064.86 628.883 1066.1C627.648 1067.34 626.181 1068.32 624.566 1068.99C622.951 1069.66 621.22 1070 619.472 1070Z" fill="#D8985D"/>
<path d="M629.052 766.62C628.055 765.394 627.212 764.051 626.542 762.62C624.141 760.738 621.284 759.527 618.262 759.11C616.773 758.879 615.268 758.765 613.762 758.77H380.532C377.02 758.772 373.652 760.166 371.165 762.645C368.679 765.124 367.275 768.488 367.262 772C396.262 782.42 450.552 788.24 500.002 788.24C563.062 788.24 604.382 778.89 629.052 766.62Z" fill="#C6854E"/>
<path d="M610 758.72C700.76 758.72 682 872.96 682.87 1000H632.74" stroke="#592D3D" stroke-width="12" stroke-miterlimit="10" stroke-linecap="square"/>
<path d="M386.122 758.72C295.352 758.72 314.122 872.96 313.252 1000H363.322" stroke="#592D3D" stroke-width="12" stroke-miterlimit="10" stroke-linecap="square"/>
<path d="M380.531 758.82L613.761 758.72" stroke="#592D3D" stroke-width="12" stroke-miterlimit="10"/>
<path d="M380.532 1070H497.152C388.002 1070 396.242 838.82 367.262 838.82V1056.68C367.257 1058.43 367.596 1060.16 368.26 1061.77C368.925 1063.39 369.901 1064.86 371.134 1066.09C372.366 1067.33 373.831 1068.31 375.444 1068.98C377.056 1069.65 378.785 1070 380.532 1070Z" fill="#C6854E"/>
<path d="M361.259 860.85C361.069 857.18 361.149 853.51 361.309 849.85C361.469 846.19 361.779 842.5 362.169 838.85C362.369 837.01 362.569 835.18 362.819 833.34C363.069 831.5 363.309 829.67 363.669 827.83C364.378 824.022 365.585 820.324 367.259 816.83C368.933 820.324 370.14 824.022 370.849 827.83C371.209 829.67 371.469 831.5 371.699 833.34C371.929 835.18 372.149 837.01 372.349 838.85C372.729 842.52 373.029 846.19 373.199 849.85C373.369 853.51 373.449 857.19 373.259 860.85H361.259Z" fill="#592D3D"/>
<path d="M632.742 870V878C633.002 912 633.002 947 632.742 980.75C632.742 983.62 632.742 986.47 632.742 989.28V1056.69C632.746 1058.44 632.405 1060.16 631.74 1061.78C631.075 1063.39 630.099 1064.86 628.866 1066.1C627.634 1067.33 626.17 1068.31 624.558 1068.98C622.946 1069.65 621.217 1070 619.472 1070H380.532C377.011 1070 373.636 1068.6 371.148 1066.11C368.659 1063.62 367.262 1060.24 367.262 1056.72V998.52C367.262 996.01 367.262 993.45 367.262 990.87C367.012 956 367.012 921 367.262 885.57V860.85" stroke="#592D3D" stroke-width="12" stroke-miterlimit="10"/>
<path d="M626.74 870C626.55 865.83 626.64 861.65 626.8 857.47C626.96 853.29 627.27 849.12 627.65 844.94C627.85 842.85 628.06 840.76 628.3 838.67C628.54 836.58 628.79 834.5 629.15 832.41C629.847 828.106 631.052 823.9 632.74 819.88C634.428 823.9 635.633 828.106 636.33 832.41C636.69 834.5 636.95 836.59 637.18 838.67C637.41 840.75 637.63 842.85 637.83 844.94C638.21 849.12 638.52 853.29 638.68 857.47C638.84 861.65 638.93 865.83 638.74 870H626.74Z" fill="#592D3D"/>
<path d="M502.069 878.86C502.067 889.337 499.69 899.677 495.117 909.103C490.543 918.53 483.892 926.796 475.663 933.282C467.435 939.767 457.843 944.303 447.609 946.548C437.375 948.792 426.765 948.688 416.578 946.242C406.39 943.796 396.89 939.072 388.79 932.425C380.691 925.779 374.204 917.383 369.818 907.868C365.431 898.354 363.258 887.968 363.462 877.493C363.667 867.018 366.244 856.726 370.999 847.39" stroke="#592D3D" stroke-width="12" stroke-miterlimit="10"/>
<path d="M371 847.39C374.787 839.991 379.867 833.329 386 827.72Z" fill="#D8985D"/>
<path d="M365.652 844.66C366.53 842.58 367.666 840.618 369.032 838.82C370.388 837.02 371.904 835.346 373.562 833.82C374.402 833.06 375.252 832.32 376.142 831.63C377.026 830.915 377.966 830.273 378.952 829.71C381.086 828.479 383.49 827.792 385.952 827.71C385.693 830.051 385.104 832.344 384.202 834.52C383.812 835.52 383.372 836.4 382.912 837.29L381.612 839.96C380.762 841.72 379.922 843.45 379.062 845.15C378.23 846.864 377.309 848.533 376.302 850.15L365.652 844.66Z" fill="#592D3D"/>
<path d="M489.332 838.82C497.63 850.506 502.083 864.487 502.072 878.82Z" fill="#D8985D"/>
<path d="M489.332 838.82C492.746 840.671 495.712 843.248 498.022 846.37C499.172 847.888 500.208 849.489 501.122 851.16C502.052 852.83 502.892 854.55 503.672 856.31C505.207 859.845 506.366 863.532 507.132 867.31C507.909 871.101 508.225 874.973 508.072 878.84H496.072C495.882 875.59 495.712 872.36 495.372 869.11C495.032 865.86 494.602 862.63 493.972 859.37L493.472 856.93L492.892 854.48C492.472 852.85 492.022 851.22 491.602 849.55C490.657 846.015 489.9 842.434 489.332 838.82Z" fill="#592D3D"/>
<path d="M641.651 878.86C641.662 869.371 639.719 859.983 635.945 851.277C632.17 842.572 626.644 834.737 619.711 828.26" fill="#D8985D"/>
<path d="M635.651 878.86C635.49 874.552 635.07 870.257 634.391 866C633.689 861.7 632.646 857.464 631.271 853.33C630.931 852.33 630.531 851.26 630.161 850.22C629.791 849.18 629.321 848.17 628.911 847.13C628.501 846.09 627.971 845.13 627.531 844.08L626.071 841.08C624.071 836.98 621.901 832.89 619.711 828.33C624.345 830.307 628.51 833.241 631.931 836.94C632.761 837.88 633.631 838.8 634.401 839.79C635.171 840.78 635.941 841.79 636.651 842.79C637.361 843.79 638.081 844.88 638.721 845.97C639.361 847.06 640.031 848.15 640.601 849.29C642.981 853.813 644.795 858.613 646.001 863.58C647.233 868.576 647.778 873.717 647.621 878.86H635.651Z" fill="#592D3D"/>
<path d="M503.001 878.86C502.891 888.031 504.602 897.133 508.036 905.638C511.469 914.143 516.557 921.882 523.003 928.407C529.45 934.931 537.127 940.111 545.59 943.647C554.053 947.182 563.134 949.002 572.306 949.002C581.478 949.002 590.559 947.182 599.022 943.647C607.485 940.111 615.163 934.931 621.609 928.407C628.056 921.882 633.143 914.143 636.577 905.638C640.01 897.133 641.721 888.031 641.611 878.86" stroke="#592D3D" stroke-width="12" stroke-miterlimit="10"/>
<path d="M515.769 838.82C507.475 850.508 503.025 864.488 503.039 878.82Z" fill="#D8985D"/>
<path d="M515.772 838.82C515.205 842.441 514.448 846.029 513.502 849.57C513.082 851.24 512.632 852.87 512.212 854.5L511.642 856.95L511.142 859.39C510.512 862.65 510.052 865.89 509.732 869.13C509.412 872.37 509.232 875.61 509.042 878.86H497.002C496.84 874.992 497.156 871.12 497.942 867.33C498.703 863.551 499.863 859.864 501.402 856.33C502.172 854.57 503.012 852.85 503.942 851.18C504.86 849.511 505.896 847.911 507.042 846.39C509.364 843.259 512.344 840.675 515.772 838.82Z" fill="#592D3D"/>
<path d="M470.5 897.78H524.4V917.48C506.66 911.43 488.69 911.58 470.5 917.48V897.78Z" fill="#D67070" stroke="#592D3D" stroke-width="12" stroke-miterlimit="10"/>
<path d="M638.101 878.86C638.126 861.305 631.464 844.399 619.471 831.58C615.251 827.06 575.201 837.77 551.661 858.84C528.551 879.53 508.431 913.33 511.311 917.59C519.607 929.902 531.637 939.226 545.63 944.187C559.624 949.148 574.84 949.485 589.039 945.147C603.238 940.81 615.669 932.028 624.501 920.094C633.334 908.161 638.101 893.706 638.101 878.86Z" fill="#D67070" stroke="#592D3D" stroke-width="12" stroke-miterlimit="10"/>
<path d="M598.112 848.39C591.992 852.06 585.962 855.57 580.112 859.39C574.338 863.079 568.816 867.148 563.582 871.57C558.432 876.03 553.472 880.89 548.582 885.83C543.692 890.77 538.892 895.83 533.832 900.9C536.9 894.462 540.648 888.37 545.012 882.73C549.369 877.001 554.298 871.73 559.722 867C565.241 862.328 571.338 858.386 577.862 855.27C584.289 852.117 591.095 849.805 598.112 848.39Z" fill="white"/>
<path d="M361.902 878.86C361.877 861.305 368.539 844.399 380.532 831.58C384.752 827.06 424.802 837.77 448.342 858.84C471.452 879.53 491.572 913.33 488.692 917.59C480.396 929.902 468.366 939.226 454.373 944.187C440.38 949.148 425.163 949.485 410.964 945.147C396.765 940.81 384.334 932.028 375.502 920.094C366.669 908.161 361.902 893.706 361.902 878.86Z" fill="#D67070" stroke="#592D3D" stroke-width="12" stroke-miterlimit="10"/>
<path d="M455.751 938.92C433.112 938.92 411.4 929.926 395.392 913.918C379.384 897.91 370.391 876.199 370.391 853.56C370.391 850.651 370.537 847.744 370.831 844.85C363.312 858.198 360.428 873.661 362.629 888.823C364.831 903.984 371.993 917.989 382.997 928.648C394.002 939.307 408.227 946.02 423.451 947.737C438.675 949.455 454.038 946.079 467.141 938.14C463.366 938.653 459.561 938.913 455.751 938.92Z" fill="#C46565"/>
<path d="M361.902 878.86C361.877 861.305 368.539 844.399 380.532 831.58C384.752 827.06 424.802 837.77 448.342 858.84C471.452 879.53 491.572 913.33 488.692 917.59C480.396 929.902 468.366 939.226 454.373 944.187C440.38 949.148 425.163 949.485 410.964 945.147C396.765 940.81 384.334 932.028 375.502 920.094C366.669 908.161 361.902 893.706 361.902 878.86Z" stroke="#592D3D" stroke-width="12" stroke-miterlimit="10"/>
<path d="M401.891 848.39C408.907 849.802 415.713 852.111 422.141 855.26C428.666 858.379 434.762 862.325 440.281 867C445.683 871.727 450.592 876.991 454.931 882.71C459.295 888.35 463.043 894.442 466.111 900.88C461.051 895.88 456.271 890.75 451.361 885.81C446.451 880.87 441.521 876.01 436.361 871.55C431.126 867.128 425.604 863.059 419.831 859.37C414.001 855.57 408.001 852.06 401.891 848.39Z" fill="white"/>
<path d="M568.442 849.8C547.262 856.69 526.442 867.28 505.592 869.47C478.842 872.29 451.492 856.1 423.292 848.39C421.142 845.81 404.942 833.95 389.822 834.45C377.942 834.85 374.732 838.75 371.422 842.64L367.262 1056.12C367.262 1059.64 368.66 1063.01 371.148 1065.5C373.637 1067.99 377.012 1069.39 380.532 1069.39H619.472C622.991 1069.39 626.366 1067.99 628.855 1065.5C631.344 1063.01 632.742 1059.64 632.742 1056.12L630.362 840.76C625.932 840.76 623.262 831.36 609.952 835.67C593.662 841 569.712 848.28 568.442 849.8Z" fill="#D67070"/>
<path d="M632.739 831.31L609.949 869.4L621.339 999.43H632.939V893.78L632.739 831.31Z" fill="#C46565"/>
<path d="M380.532 1069.39H497.152C387.952 1069.39 396.242 838.25 367.262 838.25V1056.12C367.262 1059.64 368.66 1063.01 371.148 1065.5C373.637 1067.99 377.012 1069.39 380.532 1069.39Z" fill="#C46565"/>
<path d="M361.26 860.4C361.047 857.642 361.013 854.872 361.16 852.11C361.287 849.343 361.523 846.573 361.87 843.8C362.05 842.41 362.22 841.03 362.44 839.64C362.66 838.25 362.88 836.87 363.22 835.48C363.905 832.528 365.066 829.707 366.66 827.13C368.347 829.646 369.607 832.423 370.39 835.35C370.78 836.73 371.07 838.11 371.32 839.48C371.57 840.85 371.82 842.24 372.04 843.62C372.48 846.37 372.83 849.13 373.04 851.89C373.295 854.645 373.365 857.415 373.25 860.18L361.26 860.4Z" fill="#592D3D"/>
<path d="M632.742 869.4V877.4C633.002 911.4 633.002 946.4 632.742 980.16C632.742 983.03 632.742 985.88 632.742 988.69V1056.1C632.742 1059.62 631.344 1062.99 628.855 1065.48C626.366 1067.97 622.991 1069.37 619.472 1069.37H380.532C377.012 1069.37 373.637 1067.97 371.148 1065.48C368.66 1062.99 367.262 1059.62 367.262 1056.1V998C367.262 995.493 367.262 992.943 367.262 990.35C367.012 955.49 367.012 920.49 367.262 885.05V860.29" stroke="#592D3D" stroke-width="12" stroke-miterlimit="10"/>
<path d="M626.762 869.38C626.793 866.526 627.01 863.676 627.412 860.85C627.792 858.017 628.278 855.193 628.872 852.38C629.172 850.97 629.472 849.56 629.812 848.16C630.152 846.76 630.502 845.35 630.962 843.95C631.905 840.985 633.316 838.19 635.142 835.67C636.608 838.416 637.621 841.381 638.142 844.45C638.402 845.9 638.562 847.34 638.692 848.78C638.822 850.22 638.942 851.66 639.042 853.09C639.222 855.96 639.322 858.83 639.292 861.68C639.292 864.535 639.112 867.387 638.752 870.22L626.762 869.38Z" fill="#592D3D"/>
<path d="M557.91 889.36C562.32 888.58 566.67 887.97 571.01 887.36L584.01 885.43C588.32 884.78 592.62 884.07 596.92 883.33C601.22 882.59 605.53 881.75 609.99 881.13C606.08 883.32 601.947 885.083 597.66 886.39C593.41 887.721 589.064 888.724 584.66 889.39C580.249 890.074 575.794 890.445 571.33 890.5C566.83 890.58 562.333 890.198 557.91 889.36Z" fill="#592D3D"/>
<path opacity="0.1" d="M426.882 961.63C441.357 961.628 455.469 957.095 467.238 948.666C479.006 940.236 487.841 928.335 492.502 914.63C486.585 924.75 478.255 933.248 468.254 939.365C458.254 945.482 446.894 949.028 435.19 949.686C423.485 950.343 411.8 948.092 401.177 943.134C390.554 938.176 381.324 930.664 374.312 921.27L374.262 936C387.002 951.63 405.152 961.63 426.882 961.63Z" fill="black"/>
<path opacity="0.1" d="M573.12 961.63C558.644 961.628 544.532 957.095 532.764 948.666C520.995 940.236 512.161 928.335 507.5 914.63C513.416 924.75 521.747 933.248 531.747 939.365C541.748 945.482 553.108 949.028 564.812 949.686C576.517 950.343 588.202 948.092 598.825 943.134C609.448 938.176 618.677 930.664 625.69 921.27V935.99C613 951.63 594.85 961.63 573.12 961.63Z" fill="black"/>
<path d="M407.002 943.81C396.331 939.827 386.805 933.276 379.267 924.737C371.73 916.198 366.412 905.933 363.784 894.85C361.156 883.767 361.3 872.208 364.202 861.193C367.104 850.179 372.674 840.049 380.422 831.7" fill="#D67070"/>
<path d="M406.999 943.81C395.176 941.88 384.258 936.283 375.789 927.81L374.169 926.21C373.639 925.67 373.169 925.08 372.639 924.52C372.109 923.96 371.639 923.37 371.159 922.79C370.652 922.218 370.174 921.621 369.729 921C368.829 919.77 367.919 918.54 367.049 917.28L364.679 913.35C361.688 907.965 359.431 902.204 357.969 896.22C356.61 890.22 356.042 884.067 356.279 877.92C356.551 871.811 357.696 865.774 359.679 859.99C359.939 859.28 360.169 858.56 360.439 857.85L361.319 855.75C361.869 854.35 362.579 853.01 363.229 851.66C364.619 849.003 366.203 846.453 367.969 844.03C368.819 842.82 369.789 841.68 370.719 840.54C371.649 839.4 372.659 838.31 373.719 837.31C375.786 835.244 378.039 833.373 380.449 831.72C374.659 841.72 370.549 851.91 368.789 862.39C367.874 867.54 367.479 872.77 367.609 878C367.802 883.187 368.471 888.345 369.609 893.41C370.842 898.446 372.556 903.352 374.729 908.06C376.951 912.816 379.659 917.33 382.809 921.53C385.996 925.871 389.618 929.875 393.619 933.48C397.82 937.247 402.292 940.699 406.999 943.81Z" fill="#592D3D"/>
<path d="M593.051 943.81C603.718 939.821 613.239 933.267 620.771 924.725C628.303 916.184 633.615 905.918 636.238 894.836C638.861 883.753 638.713 872.196 635.807 861.184C632.902 850.172 627.329 840.046 619.581 831.7" fill="#D67070"/>
<path d="M593.051 943.81C597.746 940.711 602.209 937.272 606.401 933.52C610.402 929.915 614.024 925.911 617.211 921.57C620.361 917.37 623.069 912.856 625.291 908.1C627.463 903.392 629.178 898.486 630.411 893.45C631.549 888.385 632.218 883.227 632.411 878.04C632.555 872.791 632.17 867.541 631.261 862.37C629.501 851.89 625.391 841.73 619.601 831.7C622.011 833.353 624.264 835.224 626.331 837.29C627.411 838.29 628.331 839.43 629.331 840.52C630.331 841.61 631.231 842.8 632.081 844.01C633.847 846.433 635.431 848.983 636.821 851.64C637.471 852.99 638.181 854.33 638.731 855.73L639.611 857.83C639.881 858.54 640.111 859.26 640.371 859.97C642.354 865.754 643.499 871.791 643.771 877.9C644.008 884.047 643.44 890.2 642.081 896.2C640.619 902.184 638.362 907.945 635.371 913.33L633.001 917.26C632.131 918.52 631.221 919.75 630.321 920.98C629.876 921.601 629.398 922.198 628.891 922.77C628.401 923.35 627.891 923.93 627.411 924.5C626.931 925.07 626.411 925.65 625.881 926.19L624.261 927.79C615.795 936.27 604.877 941.874 593.051 943.81Z" fill="#592D3D"/>
<path d="M329.09 794.17C385.21 829.75 497.57 869.7 497.57 869.7L497.41 883.7C497.41 883.7 397 879.36 316.32 844.9C316.32 814.38 329.09 794.17 329.09 794.17Z" fill="#D67070" stroke="#592D3D" stroke-width="12" stroke-miterlimit="10"/>
<path d="M648.659 870.5C648.659 870.5 666.359 868.65 679.559 861.5C679.449 857.25 678.959 853.39 678.959 853.39L648.109 864.07L648.659 870.5Z" fill="#C6854E"/>
<path d="M671.55 794.43C619 831.8 503 869.7 503 869.7L503.17 883.7C503.17 883.7 603.58 879.4 684.25 844.94C684.29 822.67 671.55 794.43 671.55 794.43Z" fill="#D67070" stroke="#592D3D" stroke-width="12" stroke-miterlimit="10"/>
<path d="M320.632 822.65C320.912 822.89 321.462 823.26 321.902 823.57C322.342 823.88 322.902 824.21 323.352 824.52C324.352 825.12 325.352 825.73 326.432 826.29C328.512 827.45 330.662 828.54 332.862 829.57C335.062 830.6 337.282 831.57 339.512 832.57C340.632 833.07 341.742 833.57 342.852 834.15C343.962 834.73 345.072 835.25 346.162 835.91C343.661 835.778 341.177 835.417 338.742 834.83C336.322 834.23 333.932 833.513 331.572 832.68C329.185 831.853 326.848 830.888 324.572 829.79C323.442 829.23 322.312 828.63 321.212 827.95C320.662 827.61 320.122 827.26 319.572 826.89C318.987 826.491 318.429 826.053 317.902 825.58L320.632 822.65Z" fill="#592D3D"/>
<path d="M341.062 590.04C352.637 590.04 362.022 580.656 362.022 569.08C362.022 557.504 352.637 548.12 341.062 548.12C329.486 548.12 320.102 557.504 320.102 569.08C320.102 580.656 329.486 590.04 341.062 590.04Z" fill="#592D3D"/>
<path d="M340.932 586C342.722 585.9 344.722 585.74 346.632 585.54C348.542 585.34 350.492 585.1 352.422 584.8C354.352 584.5 356.292 584.15 358.232 583.8C360.172 583.45 362.152 583.12 364.232 582.97C362.599 584.227 360.815 585.275 358.922 586.09C357.039 586.877 355.109 587.544 353.142 588.09C351.172 588.664 349.168 589.119 347.142 589.45C345.082 589.81 342.994 589.991 340.902 589.99L340.932 586Z" fill="#592D3D"/>
<path d="M661.773 590.04C673.348 590.04 682.732 580.656 682.732 569.08C682.732 557.504 673.348 548.12 661.773 548.12C650.197 548.12 640.812 557.504 640.812 569.08C640.812 580.656 650.197 590.04 661.773 590.04Z" fill="#592D3D"/>
<path d="M661.77 586C663.57 585.9 665.56 585.74 667.47 585.54C669.38 585.34 671.34 585.1 673.27 584.8C675.2 584.5 677.14 584.15 679.08 583.8C681.02 583.45 683 583.12 685.08 582.97C683.445 584.225 681.662 585.273 679.77 586.09C677.887 586.877 675.957 587.544 673.99 588.09C672.019 588.663 670.016 589.117 667.99 589.45C665.929 589.81 663.842 589.99 661.75 589.99L661.77 586Z" fill="#592D3D"/>
<path d="M446.66 606.02H542.53" stroke="#592D3D" stroke-width="12" stroke-miterlimit="10" stroke-linecap="round"/>
<path d="M729.47 414.02H290.23V478.17H729.47V414.02Z" fill="#C6854E"/>
<path d="M710.001 667.66C706.861 671.54 703.624 675.33 700.291 679.03C697.791 681.8 702.871 677.91 710.001 667.66ZM725.001 351.11C694.501 296.7 641.501 259.24 580.221 242L573.871 240.29C551.171 234.01 527.251 233.29 502.551 233.29C475.861 233.29 450.091 236.03 425.781 243.29L421.521 244.56C335.161 273.62 263.781 346.74 245.061 429.8C213.001 556.34 262.891 634 307.171 681.6C311.541 686.3 249.241 579.75 289.751 465.6C297.481 465.31 309.991 465.09 325.941 464.93L341.441 414.32L358.881 464.7C386.281 464.57 418.761 464.55 452.761 464.58L465.081 412.22L479.001 464.6C553.371 464.74 630.441 465.12 674.281 465.37L687.481 413.2L702.481 465.53L710.691 465.58C760.781 572 728.501 641.13 710.001 667.66C748.445 620.247 769.386 561.04 769.301 500C769.301 413.58 725.001 351.11 725.001 351.11Z" fill="#A56941"/>
<path d="M325.142 464.92C326.042 407.07 345.022 338.49 391.362 257.48C388.649 258.733 385.962 260.027 383.302 261.36L382.712 261.65C381.492 262.26 380.272 262.89 379.062 263.53L378.062 264.06C374.302 266.06 370.592 268.137 366.932 270.29L366.032 270.82C364.872 271.51 363.722 272.21 362.572 272.92L361.712 273.46C358.132 275.693 354.612 278.003 351.152 280.39L350.072 281.14C348.992 281.9 347.912 282.66 346.842 283.43L346.192 283.9C344.012 285.493 341.855 287.107 339.722 288.74L339.102 289.22C338.102 290 337.102 290.8 336.102 291.61L334.922 292.55C333.922 293.36 332.922 294.17 331.922 295C329.812 296.75 327.742 298.55 325.682 300.37L324.542 301.37L321.852 303.82L320.532 305C317.685 307.667 314.895 310.39 312.162 313.17L310.792 314.58C309.992 315.4 309.202 316.22 308.422 317.05L307.052 318.53C305.685 320.023 304.335 321.513 303.002 323C302.542 323.51 302.082 324 301.632 324.54C300.922 325.35 300.222 326.17 299.522 326.99L298.002 328.8C297.322 329.61 296.642 330.42 296.002 331.24C295.462 331.9 294.932 332.57 294.392 333.24C293.332 334.57 292.282 335.9 291.242 337.24C290.692 337.94 290.152 338.64 289.622 339.35C289.092 340.06 288.422 340.94 287.832 341.75L286.242 343.93C285.682 344.71 285.112 345.48 284.562 346.26C283.622 347.6 282.682 348.95 281.762 350.31C281.262 351.04 280.762 351.79 280.282 352.53C279.802 353.27 279.172 354.19 278.632 355.03C278.092 355.87 277.632 356.57 277.152 357.34C276.672 358.11 276.022 359.14 275.462 360.05C275.032 360.74 274.602 361.43 274.182 362.12C273.302 363.58 272.435 365.047 271.582 366.52C271.162 367.24 270.762 367.96 270.352 368.68C269.812 369.63 269.272 370.59 268.742 371.55C268.342 372.28 267.942 373.01 267.552 373.74C266.912 374.93 266.282 376.13 265.662 377.33C265.252 378.11 264.852 378.89 264.452 379.67C263.812 380.95 263.172 382.22 262.552 383.51C262.212 384.2 261.882 384.9 261.552 385.6C261.032 386.69 260.552 387.79 260.012 388.89L259.102 390.89C258.362 392.537 257.639 394.203 256.932 395.89C256.712 396.41 256.502 396.94 256.282 397.46C255.752 398.73 255.282 400 254.722 401.28C254.452 401.95 254.192 402.62 253.932 403.28C253.442 404.54 252.932 405.81 252.482 407.08L251.872 408.73C251.205 410.483 250.585 412.237 250.012 413.99L249.452 415.69C249.012 417.023 248.582 418.357 248.162 419.69C247.962 420.32 247.762 420.96 247.572 421.6C247.092 423.14 246.632 424.683 246.192 426.23C246.092 426.56 245.992 426.89 245.902 427.23C245.382 429.07 244.882 430.917 244.402 432.77L243.952 434.55C243.762 435.29 243.582 436.04 243.402 436.79C241.842 443.48 240.522 450.02 239.402 456.42C239.302 457.08 239.182 457.73 239.082 458.42L238.842 459.94C238.542 461.893 238.269 463.853 238.022 465.82C237.962 466.25 237.912 466.69 237.862 467.12C237.662 468.71 237.482 470.31 237.312 471.91L237.132 473.72C236.962 475.4 236.812 477.09 236.682 478.78L236.592 479.78C236.439 481.78 236.312 483.797 236.212 485.83C236.212 486.36 236.162 486.9 236.132 487.43C236.059 489.003 235.999 490.573 235.952 492.14C235.952 492.73 235.952 493.32 235.902 493.91C235.902 495.96 235.832 498.02 235.832 500.08V500.18C235.832 502.4 235.832 504.6 235.912 506.8C235.912 507.56 235.972 508.32 235.992 509.08C236.042 510.55 236.092 512.02 236.162 513.49C236.212 514.38 236.272 515.26 236.322 516.15C236.402 517.48 236.482 518.81 236.572 520.15L236.812 522.98C236.922 524.24 237.022 525.5 237.152 526.75C237.242 527.75 237.362 528.69 237.462 529.66C237.602 530.87 237.732 532.09 237.882 533.3C238.002 534.3 238.142 535.3 238.272 536.25C238.432 537.43 238.602 538.62 238.772 539.8C238.922 540.8 239.082 541.8 239.242 542.8C239.432 543.96 239.612 545.13 239.822 546.29C239.992 547.29 240.172 548.29 240.362 549.29C240.572 550.44 240.792 551.59 241.022 552.73C241.252 553.87 241.422 554.73 241.632 555.73C241.872 556.87 242.112 558 242.372 559.13C242.632 560.26 242.822 561.13 243.052 562.06C243.322 563.19 243.592 564.31 243.872 565.42C244.152 566.53 244.362 567.37 244.622 568.34C244.882 569.31 245.212 570.56 245.522 571.67C245.782 572.67 246.052 573.59 246.332 574.54C246.652 575.65 246.982 576.75 247.332 577.85C247.682 578.95 247.902 579.74 248.202 580.69C248.502 581.64 248.912 582.88 249.272 583.97C249.582 584.9 249.882 585.84 250.202 586.77C250.582 587.86 250.962 588.95 251.352 590.04L252.352 592.78C252.762 593.87 253.182 594.96 253.602 596.05C253.942 596.94 254.282 597.84 254.602 598.73C255.042 599.82 255.492 600.92 255.942 602.01C256.302 602.87 256.652 603.74 257.022 604.6C257.502 605.72 258.022 606.82 258.482 607.93C258.842 608.76 259.202 609.58 259.572 610.4C260.092 611.56 260.642 612.7 261.182 613.84C261.542 614.61 261.892 615.38 262.262 616.14C262.862 617.4 263.492 618.64 264.122 619.89L265.072 621.79C266.992 625.53 268.992 629.22 271.072 632.86C271.432 633.48 271.802 634.09 272.162 634.7C272.862 635.9 273.552 637.1 274.272 638.28C274.712 639 275.162 639.7 275.602 640.42C276.262 641.49 276.922 642.56 277.602 643.61C278.082 644.37 278.602 645.11 279.072 645.85C279.722 646.85 280.382 647.85 281.072 648.85C281.582 649.61 282.072 650.37 282.632 651.13C283.292 652.13 283.952 653.05 284.632 654.01C285.172 654.78 285.732 655.54 286.282 656.31C286.832 657.08 287.622 658.16 288.282 659.08C288.942 660 289.432 660.61 290.002 661.37L292.072 664.07C292.662 664.83 293.262 665.58 293.862 666.33C294.462 667.08 295.272 668.09 295.982 668.96C296.692 669.83 297.212 670.45 297.832 671.19C298.452 671.93 299.272 672.91 300.002 673.76L301.912 675.96L304.132 678.46C304.782 679.19 305.442 679.9 306.132 680.62C306.532 681.06 306.942 681.49 307.352 681.93C309.722 683.3 249.872 578.24 289.782 465.78C297.342 465.29 309.572 465.08 325.142 464.92Z" fill="#8D5638"/>
<path d="M420.82 134.59C423.577 126.683 427.699 119.322 433 112.84C434.37 111.25 435.72 109.63 437.16 108.1C438.6 106.57 440.16 105.1 441.69 103.69C443.22 102.28 444.9 100.96 446.57 99.6898C448.24 98.4198 449.98 97.1898 451.74 96.0398C453.5 94.8898 455.34 93.8298 457.21 92.8498L460.03 91.4198C460.96 90.9214 461.915 90.4709 462.89 90.0698C464.89 89.3098 466.78 88.4498 468.78 87.7798C470.78 87.1098 472.78 86.4598 474.78 85.9698C482.888 83.8621 491.3 83.1853 499.64 83.9698C491.482 84.7558 483.434 86.4325 475.64 88.9698C474.64 89.2298 473.74 89.6698 472.79 89.9698L469.94 90.9698C468.06 91.6998 466.25 92.6198 464.4 93.4198C462.55 94.2198 460.82 95.2698 459.02 96.1898C457.22 97.1098 455.58 98.2798 453.85 99.3098C452.12 100.34 450.52 101.59 448.85 102.72C447.18 103.85 445.7 105.24 444.09 106.47C442.48 107.7 441.09 109.15 439.56 110.47L435.28 114.78C429.74 120.826 424.89 127.47 420.82 134.59Z" fill="white"/>
<path d="M520.11 249.17C505.866 249.986 491.682 251.632 477.63 254.1C474.14 254.78 470.63 255.52 467.19 256.16C463.75 256.8 460.29 257.77 456.84 258.57L446.57 261.29C443.18 262.29 439.81 263.37 436.43 264.4C422.945 268.747 409.772 274.006 397 280.14C384.164 286.369 371.724 293.382 359.75 301.14C370.414 291.409 382.188 282.971 394.83 276C407.476 268.928 420.795 263.132 434.59 258.7C438.06 257.7 441.52 256.62 445.01 255.65C448.5 254.68 452.01 253.83 455.55 253.06C459.09 252.29 462.65 251.65 466.21 251.06C469.77 250.47 473.36 249.98 476.95 249.54C491.276 247.772 505.756 247.648 520.11 249.17Z" fill="white"/>
<path d="M529.832 233.83C534.892 232.62 540.07 231.976 545.272 231.91C547.832 231.85 550.382 231.91 552.942 232.04C555.502 232.17 558.062 232.34 560.622 232.56C565.776 233.007 570.9 233.741 575.972 234.76C581.106 235.757 586.15 237.176 591.052 239L587.162 250.35C582.542 248.97 577.912 247.57 573.212 246.28C568.512 244.99 563.762 243.77 558.962 242.57L551.712 240.81C549.282 240.24 546.842 239.66 544.412 239C539.405 237.723 534.525 235.992 529.832 233.83Z" fill="#592D3D"/>
<path d="M710.001 667.66C706.861 671.54 703.624 675.33 700.291 679.03C697.791 681.8 702.871 677.91 710.001 667.66ZM710.001 667.66C728.501 641.13 760.781 572 710.691 465.58L702.481 465.53L687.481 413.2L674.281 465.37C630.441 465.12 553.371 464.74 479.001 464.6L465.081 412.22L452.761 464.58C418.761 464.55 386.281 464.57 358.881 464.7L341.441 414.32L325.941 464.93C309.991 465.09 297.481 465.31 289.751 465.6C249.241 579.75 311.541 686.3 307.171 681.6C262.891 634 213.001 556.34 245.061 429.8C263.781 346.74 335.161 273.62 421.521 244.56L425.781 243.29C450.091 236.03 475.861 233.29 502.551 233.29C527.251 233.29 551.171 234.01 573.871 240.29L580.221 242C641.501 259.24 694.501 296.7 725.001 351.11C725.001 351.11 769.301 413.58 769.301 500C769.386 561.04 748.445 620.247 710.001 667.66Z" stroke="#592D3D" stroke-width="12" stroke-miterlimit="10"/>
<path d="M284.48 462.85C284.66 462.1 284.81 461.53 285.01 460.91C285.21 460.29 285.41 459.71 285.63 459.13C286.09 457.96 286.63 456.82 287.14 455.71C288.256 453.474 289.544 451.328 290.99 449.29C292.42 447.214 294.055 445.288 295.87 443.54C297.849 441.665 300.25 440.293 302.87 439.54C302.902 442.126 302.61 444.706 302 447.22C301.72 448.36 301.41 449.47 301.07 450.54L300.07 453.79C299.404 455.943 298.737 458.073 298.07 460.18C297.74 461.24 297.39 462.27 297.07 463.31C296.9 463.82 296.7 464.31 296.51 464.84C296.32 465.37 296.12 465.84 295.95 466.24L284.48 462.85Z" fill="#592D3D"/>
<path d="M710.68 459.58C712.754 459.415 714.839 459.435 716.91 459.64C719.003 459.818 721.086 460.105 723.15 460.5C724.15 460.7 725.23 460.9 726.27 461.14C727.323 461.361 728.362 461.648 729.38 462C731.674 462.774 733.794 463.99 735.62 465.58C733.791 467.168 731.672 468.388 729.38 469.17C728.362 469.518 727.323 469.802 726.27 470.02C725.27 470.27 724.19 470.47 723.15 470.67C721.07 471.056 718.99 471.343 716.91 471.53C714.839 471.732 712.754 471.748 710.68 471.58V459.58Z" fill="#592D3D"/>
<path d="M444.84 452.07C445.079 447.296 445.576 442.54 446.33 437.82C447.05 433.12 447.93 428.45 448.94 423.82C449.95 419.19 451.09 414.57 452.38 409.99C453.672 405.38 455.215 400.843 457 396.4C456.759 401.174 456.258 405.931 455.5 410.65C454.78 415.35 453.91 420.017 452.89 424.65C451.87 429.283 450.723 433.893 449.45 438.48C448.152 443.087 446.613 447.624 444.84 452.07Z" fill="white"/>
<path d="M668 452.07C668.244 447.297 668.741 442.54 669.49 437.82C670.217 433.12 671.087 428.453 672.1 423.82C673.113 419.187 674.243 414.58 675.49 410C676.767 405.394 678.292 400.861 680.06 396.42C679.822 401.193 679.325 405.95 678.57 410.67C677.837 415.37 676.967 420.037 675.96 424.67C674.96 429.31 673.8 433.92 672.51 438.5C671.248 443.1 669.743 447.63 668 452.07Z" fill="white"/>
<path d="M600.889 460.57C611.932 457.754 623.118 455.535 634.399 453.92L631.739 454.27C644.919 452.53 658.279 452.02 671.489 453.79L668.829 453.43C672.099 453.89 675.369 454.43 678.649 454.85L675.989 454.49C685.943 455.854 695.793 457.895 705.469 460.6C710.469 461.99 716.569 458.87 717.769 453.6C718.423 451.042 718.058 448.331 716.753 446.036C715.447 443.742 713.302 442.044 710.769 441.3C699.422 438.192 687.86 435.926 676.179 434.52L678.839 434.88C667.807 432.922 656.584 432.267 645.399 432.93C634.275 433.66 623.217 435.18 612.309 437.48C606.689 438.61 601.109 439.91 595.549 441.28C590.469 442.53 586.929 448.54 588.549 453.58C589.293 456.112 590.991 458.258 593.286 459.563C595.58 460.869 598.291 461.233 600.849 460.58L600.889 460.57Z" fill="#592D3D"/>
<path d="M286.14 460.6C295.724 457.819 305.501 455.75 315.39 454.41L312.73 454.77C329.786 452.537 347.061 452.563 364.11 454.85L361.45 454.5C371.395 455.856 381.235 457.894 390.9 460.6C395.9 462 402 458.87 403.2 453.6C403.854 451.042 403.489 448.331 402.184 446.037C400.878 443.742 398.733 442.044 396.2 441.3C381.757 437.282 366.951 434.703 352 433.6C327.993 432.037 303.896 434.646 280.78 441.31C278.273 442.035 276.131 443.678 274.78 445.91C273.444 448.244 273.085 451.012 273.78 453.61C275.43 458.72 280.69 462.15 286.08 460.61L286.14 460.6Z" fill="#592D3D"/>
<path opacity="0.2" d="M382.91 628.5C401.6 628.5 416.75 613.349 416.75 594.66C416.75 575.97 401.6 560.82 382.91 560.82C364.221 560.82 349.07 575.97 349.07 594.66C349.07 613.349 364.221 628.5 382.91 628.5Z" fill="white"/>
<path opacity="0.4" d="M375.872 631L419.182 589.26C416.879 584.835 414.352 580.529 411.612 576.36L365.742 620.57C367.642 621.9 373.722 630.08 375.872 631Z" fill="white"/>
<path d="M382.91 628.5C401.6 628.5 416.75 613.349 416.75 594.66C416.75 575.97 401.6 560.82 382.91 560.82C364.221 560.82 349.07 575.97 349.07 594.66C349.07 613.349 364.221 628.5 382.91 628.5Z" stroke="#592D3D" stroke-width="12" stroke-miterlimit="10"/>
<path d="M378 580.47C379.22 584.3 374.5 587.25 371 587.84C367.46 587.84 365.1 585.48 363.92 582.53C363.33 579.58 363.92 576.63 366.28 574.86C369.23 573.68 373.36 572.5 375.98 575.53C376.63 576.176 377.144 576.946 377.491 577.795C377.838 578.643 378.011 579.553 378 580.47Z" fill="white"/>
<path d="M384.322 578.21C384.242 578.735 383.982 579.215 383.587 579.569C383.191 579.923 382.685 580.129 382.155 580.152C381.625 580.174 381.103 580.012 380.68 579.692C380.256 579.373 379.956 578.916 379.832 578.4C379.832 576.63 380.422 576.04 382.102 575.98C382.691 575.98 383.255 576.214 383.672 576.63C384.088 577.047 384.322 577.611 384.322 578.2V578.21Z" fill="white"/>
<path opacity="0.2" d="M615.199 628.5C633.889 628.5 649.039 613.349 649.039 594.66C649.039 575.97 633.889 560.82 615.199 560.82C596.51 560.82 581.359 575.97 581.359 594.66C581.359 613.349 596.51 628.5 615.199 628.5Z" fill="white"/>
<path opacity="0.4" d="M610.122 628.11L648.662 589.57C648.452 588.2 642.752 581.47 642.372 580.13L600.652 621.87C602.002 622.24 608.752 627.91 610.122 628.11Z" fill="white"/>
<path d="M615.199 628.5C633.889 628.5 649.039 613.349 649.039 594.66C649.039 575.97 633.889 560.82 615.199 560.82C596.51 560.82 581.359 575.97 581.359 594.66C581.359 613.349 596.51 628.5 615.199 628.5Z" stroke="#592D3D" stroke-width="12" stroke-miterlimit="10"/>
<path d="M607.36 579.91C608.36 583.16 604.36 585.66 601.36 586.16C598.36 586.16 596.36 584.16 595.36 581.66C594.86 579.16 595.36 576.66 597.36 575.16C599.86 574.16 603.36 573.16 605.59 575.73C606.149 576.273 606.593 576.923 606.897 577.641C607.201 578.359 607.358 579.13 607.36 579.91Z" fill="white"/>
<path d="M612.702 578C612.632 578.442 612.411 578.847 612.077 579.145C611.743 579.443 611.315 579.616 610.868 579.635C610.42 579.653 609.98 579.517 609.622 579.248C609.264 578.979 609.009 578.595 608.902 578.16C608.902 576.66 609.402 576.16 610.822 576.16C611.314 576.16 611.786 576.352 612.138 576.696C612.489 577.04 612.692 577.508 612.702 578Z" fill="white"/>
<path d="M416.742 594.66C472.529 574.66 527.406 574.66 581.372 594.66" stroke="#592D3D" stroke-width="12" stroke-miterlimit="10"/>
<path opacity="0.15" d="M615.202 634.5C605.392 634.486 595.93 630.858 588.625 624.309C581.32 617.761 576.684 608.751 575.602 599C525.602 581.35 474.142 581.36 422.502 599C421.869 604.798 419.97 610.386 416.939 615.369C413.908 620.352 409.819 624.608 404.962 627.837C400.104 631.065 394.596 633.186 388.828 634.051C383.06 634.915 377.173 634.502 371.582 632.84C377.056 635.526 383.095 636.856 389.191 636.717C395.287 636.578 401.26 634.975 406.605 632.042C411.95 629.109 416.512 624.932 419.903 619.865C423.295 614.798 425.418 608.99 426.092 602.93C475.312 586.07 524.372 586.05 572.022 602.93C572.683 608.998 574.797 614.817 578.183 619.895C581.569 624.973 586.129 629.161 591.476 632.104C596.824 635.047 602.801 636.658 608.903 636.802C615.005 636.946 621.052 635.618 626.532 632.93C622.85 633.993 619.034 634.522 615.202 634.5Z" fill="black"/>
</g>
</svg>
