<svg width="1000" height="990" viewBox="0 0 1000 990" fill="none" xmlns="http://www.w3.org/2000/svg">
<mask id="mask0_22_5347" style="mask-type:luminance" maskUnits="userSpaceOnUse" x="0" y="0" width="1000" height="966">
<path d="M1000 0H0V718.31H179.2C217.58 860.69 346.65 965.41 500 965.41C653.35 965.41 782.42 860.69 820.8 718.31H1000V0Z" fill="white"/>
</mask>
<g mask="url(#mask0_22_5347)">
<path d="M500.001 962.602C683.603 962.602 832.443 813.763 832.443 630.16C832.443 446.557 683.603 297.718 500.001 297.718C316.398 297.718 167.559 446.557 167.559 630.16C167.559 813.763 316.398 962.602 500.001 962.602Z" fill="#85C5E5"/>
<path d="M501.709 209.52C335.569 209.52 200.879 344.2 200.879 510.35V673.78C210.359 684.3 226.249 693.35 246.879 700.97L260.199 661.2L274.659 709.66C427.419 750.3 741.369 734.94 802.539 673.78V510.35C802.539 344.2 667.849 209.52 501.709 209.52Z" fill="#592D3D"/>
<path d="M242.869 699.45C244.189 699.96 245.519 700.45 246.869 700.97L260.199 661.2L274.659 709.66C319.879 721.66 379.209 728.81 441.939 731.29L469.219 705.07L235.809 529.43C235.809 529.43 229.669 630.88 242.869 699.45Z" fill="#592D3D"/>
<path d="M617.199 552.78L642.509 723.54C677.309 719.2 709.129 713.27 735.619 705.81C735.619 705.81 768.709 668.92 765.139 529.43C761.569 389.94 617.199 552.78 617.199 552.78Z" fill="#592D3D"/>
<path d="M501.709 209.52C335.569 209.52 200.879 344.2 200.879 510.35V673.78C210.359 684.3 226.249 693.35 246.879 700.97L260.199 661.2L274.659 709.66C427.419 750.3 741.369 734.94 802.539 673.78V510.35C802.539 344.2 667.849 209.52 501.709 209.52Z" stroke="#592D3D" stroke-width="12" stroke-miterlimit="10"/>
<path d="M610 758.72C700.76 758.72 682 872.96 682.87 1000H610V758.72Z" fill="#D8985D"/>
<path d="M632.74 831.87L610 870L621.38 1000H653.14C653.91 819.73 632.74 831.87 632.74 831.87Z" fill="#C6854E"/>
<path d="M233.25 500C233.25 352.68 352.68 233.25 500 233.25C647.32 233.25 766.75 352.68 766.75 500C766.788 539.694 757.949 578.895 740.88 614.731C723.811 650.568 698.945 682.135 668.1 707.12C662.627 711.573 656.98 715.803 651.16 719.81C591 758 515 758 446.39 751.89C439.73 750.89 433.09 749.63 426.5 748.18C400.17 742.38 374.68 733.43 351.13 720.38C345.31 716.793 339.667 712.92 334.2 708.76C328.706 704.576 323.432 700.11 318.4 695.38C313.64 690.96 309.044 686.367 304.61 681.6C258.667 632.299 233.161 567.39 233.25 500Z" fill="#D8985D"/>
<path d="M269.612 634.48C270.312 635.68 271.002 636.88 271.722 638.06C272.152 638.78 272.602 639.48 273.052 640.2C273.712 641.27 274.372 642.34 275.052 643.39C275.532 644.15 276.052 644.89 276.512 645.63C277.172 646.63 277.832 647.63 278.512 648.63C279.022 649.39 279.512 650.15 280.072 650.91C280.732 651.91 281.392 652.83 282.072 653.79C282.612 654.56 283.172 655.32 283.722 656.09C284.272 656.86 285.062 657.94 285.722 658.86C286.382 659.78 286.872 660.39 287.452 661.15C288.032 661.91 288.822 662.95 289.522 663.85C290.222 664.75 290.712 665.36 291.312 666.11C291.912 666.86 292.722 667.87 293.432 668.74C294.142 669.61 294.662 670.23 295.282 670.97C295.902 671.71 296.722 672.69 297.452 673.54C298.182 674.39 298.722 675.01 299.362 675.74L301.582 678.24C302.232 678.97 302.892 679.68 303.582 680.4C304.442 681.34 305.312 682.27 306.182 683.19L307.392 684.47C308.682 685.81 309.982 687.15 311.302 688.47L311.562 688.74C312.852 690.02 314.162 691.29 315.472 692.55L317.052 694.05C318.002 694.94 318.952 695.83 319.912 696.71L321.072 697.77C322.072 698.71 323.162 699.63 324.212 700.55C327.478 703.397 330.812 706.127 334.212 708.74C339.672 712.9 345.315 716.773 351.142 720.36C374.692 733.36 400.142 742.36 426.512 748.16C433.102 749.61 439.742 750.86 446.402 751.87C488.502 755.62 533.402 757.05 575.682 748.79C508.452 729 185.592 612.74 388.802 257.48C386.082 258.73 383.402 260.02 380.742 261.36L380.152 261.65C378.932 262.26 377.712 262.89 376.502 263.53L375.502 264.06C371.742 266.06 368.022 268.13 364.372 270.29L363.472 270.82C362.312 271.51 361.162 272.21 360.012 272.92L359.142 273.46C355.568 275.693 352.052 278.003 348.592 280.39L347.512 281.14C346.422 281.9 345.352 282.66 344.282 283.43L343.622 283.9C341.442 285.493 339.288 287.107 337.162 288.74L336.542 289.22C335.542 290 334.542 290.8 333.542 291.61L332.372 292.55C331.372 293.36 330.372 294.17 329.372 295C327.262 296.75 325.182 298.55 323.132 300.37L321.992 301.37L319.302 303.82L318.002 305C315.148 307.667 312.358 310.39 309.632 313.17L308.252 314.58C307.462 315.4 306.672 316.22 305.892 317.05C305.432 317.54 304.972 318.05 304.522 318.53C303.148 319.997 301.795 321.483 300.462 322.99C300.012 323.5 299.552 323.99 299.102 324.53C298.392 325.34 297.692 326.16 296.992 326.98L295.482 328.77C294.802 329.58 294.122 330.39 293.482 331.21C292.942 331.87 292.402 332.54 291.872 333.21C290.802 334.54 289.752 335.87 288.712 337.21C288.172 337.91 287.632 338.61 287.102 339.32C286.572 340.03 285.902 340.91 285.312 341.72C284.722 342.53 284.242 343.17 283.722 343.9C283.202 344.63 282.592 345.45 282.042 346.23C281.095 347.563 280.162 348.913 279.242 350.28C278.742 351.01 278.242 351.76 277.752 352.5C277.262 353.24 276.652 354.16 276.112 355L274.622 357.31L272.942 360.02C272.512 360.71 272.082 361.4 271.662 362.09C270.772 363.55 269.912 365.02 269.052 366.49L267.832 368.65C267.292 369.6 266.752 370.56 266.222 371.52C265.822 372.25 265.422 372.98 265.032 373.71C264.392 374.9 263.762 376.1 263.132 377.3L261.932 379.64C261.292 380.92 260.652 382.19 260.022 383.48C259.692 384.17 259.352 384.87 259.022 385.57C258.502 386.66 258.022 387.76 257.492 388.86C257.182 389.52 256.882 390.18 256.582 390.86C255.842 392.507 255.118 394.173 254.412 395.86C254.192 396.38 253.982 396.91 253.762 397.43C253.232 398.7 252.712 399.97 252.202 401.25C251.932 401.92 251.672 402.59 251.412 403.25C250.912 404.51 250.412 405.78 249.962 407.05C249.752 407.6 249.542 408.15 249.342 408.7C248.715 410.453 248.098 412.207 247.492 413.96L246.932 415.66C246.492 416.993 246.062 418.327 245.642 419.66L245.042 421.57C244.572 423.11 244.112 424.65 243.672 426.2C243.572 426.53 243.472 426.86 243.382 427.2C242.862 429.04 242.362 430.887 241.882 432.74C241.722 433.33 241.582 433.93 241.432 434.52C241.082 435.91 240.742 437.3 240.432 438.7L240.012 440.45C239.582 442.35 239.162 444.25 238.772 446.16L238.622 446.93C238.282 448.63 237.948 450.33 237.622 452.03C237.512 452.64 237.412 453.24 237.302 453.85C237.042 455.34 236.792 456.85 236.562 458.35C236.482 458.86 236.392 459.35 236.322 459.87C236.022 461.82 235.752 463.78 235.492 465.75L235.342 467.05C235.142 468.64 234.962 470.24 234.792 471.84C234.732 472.44 234.662 473.04 234.602 473.65C234.442 475.33 234.292 477.02 234.152 478.71C234.152 479.06 234.092 479.4 234.072 479.71C233.925 481.71 233.795 483.727 233.682 485.76C233.682 486.29 233.682 486.83 233.612 487.36C233.545 488.933 233.485 490.503 233.432 492.07C233.432 492.66 233.432 493.25 233.432 493.84C233.432 495.89 233.352 497.95 233.352 500.01C233.352 500.01 233.352 500.08 233.352 500.11C233.352 502.33 233.352 504.53 233.432 506.73C233.432 507.49 233.492 508.25 233.512 509.01C233.562 510.48 233.612 511.95 233.682 513.42C233.682 514.31 233.792 515.19 233.842 516.08C233.922 517.41 233.992 518.74 234.092 520.08C234.162 521.08 234.252 521.97 234.332 522.91C234.442 524.17 234.542 525.43 234.672 526.68C234.762 527.68 234.882 528.62 234.982 529.59C235.122 530.8 235.252 532.02 235.402 533.23C235.522 534.23 235.662 535.23 235.792 536.18C235.952 537.36 236.112 538.55 236.292 539.73C236.442 540.73 236.602 541.73 236.762 542.73C236.942 543.89 237.132 545.06 237.332 546.22C237.512 547.22 237.692 548.22 237.882 549.22C238.092 550.37 238.312 551.52 238.532 552.66C238.752 553.8 238.942 554.66 239.152 555.66C239.392 556.8 239.632 557.93 239.892 559.06C240.152 560.19 240.332 561.06 240.572 561.99C240.832 563.12 241.112 564.24 241.392 565.35C241.672 566.46 241.882 567.3 242.132 568.26C242.432 569.38 242.732 570.49 243.042 571.6C243.302 572.6 243.572 573.52 243.852 574.47C244.172 575.58 244.502 576.68 244.852 577.78C245.202 578.88 245.432 579.67 245.732 580.62C246.032 581.57 246.432 582.81 246.792 583.9C247.152 584.99 247.412 585.77 247.732 586.7C248.112 587.79 248.492 588.88 248.882 589.97C249.212 590.88 249.532 591.8 249.882 592.71L251.122 595.98C251.472 596.87 251.812 597.77 252.122 598.66C252.562 599.75 253.012 600.85 253.462 601.94C253.822 602.8 254.172 603.67 254.542 604.53C255.012 605.65 255.542 606.75 255.992 607.86C256.362 608.68 256.722 609.51 257.092 610.33C257.612 611.49 258.162 612.63 258.692 613.77L259.772 616.07C260.382 617.33 261.012 618.57 261.642 619.82C261.962 620.45 262.262 621.09 262.592 621.72C264.512 625.46 266.512 629.15 268.592 632.79C268.882 633.26 269.252 633.87 269.612 634.48Z" fill="#C6854E"/>
<path d="M233.25 500C233.25 352.68 352.68 233.25 500 233.25C647.32 233.25 766.75 352.68 766.75 500C766.788 539.694 757.949 578.895 740.88 614.731C723.811 650.568 698.945 682.135 668.1 707.12C662.627 711.573 656.98 715.803 651.16 719.81C591 758 515 758 446.39 751.89C439.73 750.89 433.09 749.63 426.5 748.18C400.17 742.38 374.68 733.43 351.13 720.38C345.31 716.793 339.667 712.92 334.2 708.76C328.706 704.576 323.432 700.11 318.4 695.38C313.64 690.96 309.044 686.367 304.61 681.6C258.667 632.299 233.161 567.39 233.25 500Z" stroke="#592D3D" stroke-width="12" stroke-miterlimit="10"/>
<path d="M386.122 758.72C295.352 758.72 314.122 872.96 313.252 1000H386.122V758.72Z" fill="#D8985D"/>
<path d="M367.232 831.87L390.002 870L378.612 1000H346.882C346.072 819.73 367.232 831.87 367.232 831.87Z" fill="#C6854E"/>
<path d="M619.472 1070H380.532C377.011 1070 373.636 1068.6 371.148 1066.11C368.659 1063.62 367.262 1060.24 367.262 1056.72V772C367.262 768.48 368.659 765.103 371.148 762.613C373.636 760.123 377.011 758.723 380.532 758.72H613.762C626.852 758.72 632.762 766.38 632.762 778.6V1056.68C632.767 1058.43 632.427 1060.16 631.761 1061.78C631.096 1063.39 630.117 1064.86 628.883 1066.1C627.648 1067.34 626.181 1068.32 624.566 1068.99C622.951 1069.66 621.22 1070 619.472 1070Z" fill="#D8985D"/>
<path d="M629.052 766.62C628.055 765.394 627.212 764.051 626.542 762.62C624.141 760.738 621.284 759.527 618.262 759.11C616.773 758.879 615.268 758.766 613.762 758.77H380.532C377.02 758.773 373.652 760.166 371.165 762.645C368.679 765.125 367.275 768.488 367.262 772C396.262 782.42 450.552 788.24 500.002 788.24C563.062 788.24 604.382 778.89 629.052 766.62Z" fill="#C6854E"/>
<path d="M610 758.72C700.76 758.72 682 872.96 682.87 1000H632.74" stroke="#592D3D" stroke-width="12" stroke-miterlimit="10" stroke-linecap="square"/>
<path d="M386.122 758.72C295.352 758.72 314.122 872.96 313.252 1000H363.322" stroke="#592D3D" stroke-width="12" stroke-miterlimit="10" stroke-linecap="square"/>
<path d="M380.531 758.82L613.761 758.72" stroke="#592D3D" stroke-width="12" stroke-miterlimit="10"/>
<path d="M380.532 1070H497.152C388.002 1070 396.242 838.82 367.262 838.82V1056.68C367.257 1058.43 367.596 1060.16 368.26 1061.77C368.925 1063.39 369.901 1064.86 371.134 1066.09C372.366 1067.33 373.831 1068.31 375.444 1068.98C377.056 1069.65 378.785 1070 380.532 1070Z" fill="#C6854E"/>
<path d="M361.259 860.85C361.069 857.18 361.149 853.51 361.309 849.85C361.469 846.19 361.779 842.5 362.169 838.85C362.369 837.01 362.569 835.18 362.819 833.34C363.069 831.5 363.309 829.67 363.669 827.83C364.378 824.022 365.585 820.323 367.259 816.83C368.933 820.323 370.14 824.022 370.849 827.83C371.209 829.67 371.469 831.5 371.699 833.34C371.929 835.18 372.149 837.01 372.349 838.85C372.729 842.52 373.029 846.19 373.199 849.85C373.369 853.51 373.449 857.19 373.259 860.85H361.259Z" fill="#592D3D"/>
<path d="M632.742 870V878C633.002 912 633.002 947 632.742 980.75C632.742 983.62 632.742 986.47 632.742 989.28V1056.69C632.746 1058.44 632.405 1060.16 631.74 1061.78C631.075 1063.39 630.099 1064.86 628.866 1066.1C627.634 1067.33 626.17 1068.31 624.558 1068.98C622.946 1069.65 621.217 1070 619.472 1070H380.532C377.011 1070 373.636 1068.6 371.148 1066.11C368.659 1063.62 367.262 1060.24 367.262 1056.72V998.52C367.262 996.01 367.262 993.45 367.262 990.87C367.012 956 367.012 921 367.262 885.57V860.85" stroke="#592D3D" stroke-width="12" stroke-miterlimit="10"/>
<path d="M626.74 870C626.55 865.83 626.64 861.65 626.8 857.47C626.96 853.29 627.27 849.12 627.65 844.94C627.85 842.85 628.06 840.76 628.3 838.67C628.54 836.58 628.79 834.5 629.15 832.41C629.847 828.106 631.052 823.9 632.74 819.88C634.428 823.9 635.633 828.106 636.33 832.41C636.69 834.5 636.95 836.59 637.18 838.67C637.41 840.75 637.63 842.85 637.83 844.94C638.21 849.12 638.52 853.29 638.68 857.47C638.84 861.65 638.93 865.83 638.74 870H626.74Z" fill="#592D3D"/>
<path d="M570.68 842.45C570.9 833 582.9 829 588.9 835C589.875 835.995 590.644 837.173 591.164 838.466C591.684 839.759 591.944 841.141 591.93 842.535C591.915 843.928 591.627 845.305 591.08 846.587C590.534 847.868 589.74 849.03 588.745 850.005C587.749 850.98 586.572 851.75 585.279 852.269C583.986 852.789 582.603 853.05 581.21 853.035C579.817 853.021 578.44 852.732 577.158 852.186C575.876 851.639 574.715 850.845 573.74 849.85C572.766 848.88 571.994 847.726 571.469 846.456C570.944 845.186 570.675 843.824 570.68 842.45Z" fill="#592D3D"/>
<path d="M408.109 842.15C407.899 834 416.899 830 422.899 833C430.899 836 430.899 847 422.899 852C418.899 854 414.899 852 411.149 849.52C410.182 848.552 409.416 847.403 408.894 846.138C408.372 844.873 408.106 843.518 408.109 842.15Z" fill="#592D3D"/>
<path d="M500 831.77C500.715 833.655 501.218 835.614 501.5 837.61C501.797 839.543 501.961 841.494 501.99 843.45L502.29 855.14C502.38 859.03 502.5 862.93 502.54 866.83L502.71 878.5C502.94 894.07 502.93 909.66 502.99 925.24C503.05 940.82 503.17 956.4 502.99 971.98C502.9 979.77 502.69 987.56 502.46 995.35C502.36 999.24 502.17 1003.14 501.79 1007.03C501.45 1010.96 500.859 1014.87 500.02 1018.72C499.181 1014.87 498.59 1010.96 498.25 1007.03C497.87 1003.14 497.68 999.24 497.58 995.35C497.35 987.56 497.14 979.77 497.05 971.98C496.85 956.4 497.05 940.82 497.05 925.24C497.05 909.66 497.05 894.09 497.23 878.51L497.4 866.81L497.73 855.13L498.06 843.45C498.097 841.494 498.264 839.543 498.56 837.61C498.822 835.616 499.305 833.657 500 831.77Z" fill="#C6854E"/>
<path d="M425.219 883C426.702 882.295 428.272 881.791 429.889 881.5C431.433 881.21 432.998 881.043 434.569 881L443.919 880.67L462.619 880.26C475.079 880.07 487.529 880.02 499.999 879.99C512.469 879.96 524.929 879.83 537.389 879.99C543.619 880.08 549.849 880.29 556.089 880.52C559.199 880.63 562.319 880.82 565.429 881.19C568.587 881.54 571.713 882.135 574.779 882.97C571.715 883.81 568.588 884.402 565.429 884.74C562.319 885.12 559.199 885.31 556.089 885.41C549.849 885.64 543.619 885.84 537.389 885.93C524.929 886.12 512.469 885.93 499.999 885.93C487.529 885.93 475.069 885.93 462.599 885.78C456.369 885.72 450.139 885.52 443.919 885.28L434.569 884.94C433.001 884.898 431.44 884.731 429.899 884.44C428.282 884.17 426.708 883.686 425.219 883Z" fill="#C6854E"/>
<path d="M442.41 914.38C443.591 913.817 444.853 913.442 446.15 913.27C447.349 913.101 448.561 913.05 449.77 913.12C452.16 913.22 454.55 913.28 456.94 913.33C461.72 913.44 466.5 913.48 471.28 913.5C480.91 913.5 490.37 913.58 500.04 913.29C509.71 913 519.3 912.86 528.92 912.9C533.73 912.9 538.54 913.03 543.34 913.14C545.757 913.172 548.17 913.329 550.57 913.61C553.037 913.882 555.472 914.395 557.84 915.14C555.528 916.048 553.129 916.718 550.68 917.14C548.296 917.569 545.888 917.857 543.47 918C538.65 918.35 533.83 918.65 529.02 918.82C519.38 919.18 509.75 919.14 500.14 919.27C495.33 919.27 490.53 919.49 485.66 919.37C480.79 919.25 475.97 919.24 471.14 919.06C466.31 918.88 461.46 918.48 456.64 917.98C454.22 917.71 451.82 917.41 449.41 917.08C448.193 916.931 446.996 916.649 445.84 916.24C444.599 915.82 443.439 915.191 442.41 914.38Z" fill="#C6854E"/>
<path d="M438.93 949.87C440.116 949.172 441.405 948.666 442.75 948.37C444.003 948.079 445.283 947.914 446.57 947.88L454.2 947.56C459.29 947.38 464.39 947.23 469.48 947.15C479.66 947 489.84 947 500 947C510.16 947 520.36 946.83 530.54 947C535.63 947.09 540.72 947.3 545.81 947.53C548.363 947.616 550.91 947.836 553.44 948.19C556.045 948.547 558.61 949.154 561.1 950C558.618 950.831 556.063 951.423 553.47 951.77C550.937 952.132 548.387 952.356 545.83 952.44C540.74 952.67 535.65 952.88 530.56 952.97C520.38 953.17 510.19 953.03 500.01 952.97C489.83 952.91 479.65 952.91 469.47 952.72C464.38 952.62 459.28 952.44 454.19 952.23L446.56 951.86C445.273 951.821 443.993 951.653 442.74 951.36C441.398 951.07 440.112 950.567 438.93 949.87Z" fill="#C6854E"/>
<path d="M677.8 906.35C678.01 869.24 676.59 836.28 670.07 810.96C660 785.6 641.89 770.48 610 770.48L632.79 905C632.79 905 655.31 915.24 677.8 906.35Z" fill="#C6854E"/>
<path d="M686.411 895.79C685.27 896.732 684.029 897.547 682.711 898.22" stroke="#592D3D" stroke-width="12" stroke-miterlimit="10" stroke-linecap="square"/>
<path d="M326.109 809.88C319.279 835.45 318.109 869.01 318.369 906.88C338.269 915.42 368.789 904.73 368.789 904.73L386.119 772.49C355.249 772.46 336.849 786.36 326.109 809.88Z" fill="#C6854E"/>
<path d="M613.762 758.72H559.552V758.82C559.553 763.322 559.07 767.811 558.112 772.21C557.646 774.35 557.065 776.463 556.372 778.54C554.159 784.744 550.763 790.46 546.372 795.37C544.97 796.943 543.467 798.423 541.872 799.8C516.702 818 476.702 819 452.392 799.22C449.773 796.932 447.391 794.386 445.282 791.62C440.903 785.87 437.801 779.253 436.182 772.21C435.708 770.034 435.351 767.834 435.112 765.62C434.862 763.362 434.738 761.092 434.742 758.82V758.72H380.532C377.011 758.723 373.636 760.123 371.148 762.613C368.66 765.103 367.262 768.48 367.262 772V1056.68C367.257 1058.43 367.596 1060.16 368.26 1061.77C368.925 1063.39 369.901 1064.86 371.134 1066.09C372.366 1067.33 373.831 1068.31 375.444 1068.98C377.056 1069.65 378.785 1070 380.532 1070H619.472C622.992 1070 626.367 1068.6 628.856 1066.11C631.344 1063.62 632.742 1060.24 632.742 1056.72V778.6C632.742 766.38 626.852 758.72 613.762 758.72Z" fill="#D67070"/>
<path d="M610 758.72C673.54 758.72 683.4 814.72 683.9 891.89C665.3 903.51 634.99 893.2 634.99 893.2L610 758.72Z" fill="#D67070"/>
<path d="M632.74 831.87L610 870L621.38 1000H632.99V894.35L650.27 897.24C644.6 825.07 632.74 831.87 632.74 831.87Z" fill="#C46565"/>
<path d="M386.12 758.72C324.34 758.72 310.29 812.52 309.27 886.38C328.27 906.24 367.27 890.96 367.27 890.96L386.12 758.72Z" fill="#D67070"/>
<path d="M367.232 831.87V891L349.922 895.31C355.592 825.19 367.232 831.87 367.232 831.87Z" fill="#C46565"/>
<path d="M610 758.72C677.41 758.72 688.45 815.01 688.9 892.5C662.7 904.93 634.99 893.2 634.99 893.2" stroke="#592D3D" stroke-width="12" stroke-miterlimit="10" stroke-linecap="square"/>
<path d="M386.119 758.72C319.329 758.72 306.039 813.42 305.359 889.44C325.999 904.22 367.219 891 367.219 891" stroke="#592D3D" stroke-width="12" stroke-miterlimit="10" stroke-linecap="square"/>
<path d="M380.532 1070H497.152C388.002 1070 396.242 838.82 367.262 838.82V1056.68C367.257 1058.43 367.596 1060.16 368.26 1061.77C368.925 1063.39 369.901 1064.86 371.134 1066.09C372.366 1067.33 373.831 1068.31 375.444 1068.98C377.056 1069.65 378.785 1070 380.532 1070Z" fill="#C46565"/>
<path d="M361.259 860.85C361.069 857.18 361.149 853.51 361.309 849.85C361.469 846.19 361.779 842.5 362.169 838.85C362.369 837.01 362.569 835.18 362.819 833.34C363.069 831.5 363.309 829.67 363.669 827.83C364.378 824.022 365.585 820.323 367.259 816.83C368.934 820.322 370.138 824.021 370.839 827.83C371.209 829.67 371.469 831.5 371.699 833.34C371.929 835.18 372.149 837.01 372.349 838.85C372.729 842.52 373.029 846.19 373.199 849.85C373.369 853.51 373.449 857.19 373.259 860.85H361.259Z" fill="#592D3D"/>
<path d="M632.742 870V878C633.002 912 633.002 947 632.742 980.75C632.742 983.62 632.742 986.47 632.742 989.28V1056.69C632.746 1058.44 632.405 1060.16 631.74 1061.78C631.075 1063.39 630.099 1064.86 628.866 1066.1C627.634 1067.33 626.17 1068.31 624.558 1068.98C622.946 1069.65 621.217 1070 619.472 1070H380.532C377.011 1070 373.636 1068.6 371.148 1066.11C368.659 1063.62 367.262 1060.24 367.262 1056.72V998.52C367.262 996.01 367.262 993.45 367.262 990.87C367.012 956 367.012 921 367.262 885.57V860.85" stroke="#592D3D" stroke-width="12" stroke-miterlimit="10"/>
<path d="M626.74 870C626.55 865.83 626.64 861.65 626.8 857.47C626.96 853.29 627.27 849.12 627.65 844.94C627.85 842.85 628.06 840.76 628.3 838.67C628.54 836.58 628.79 834.5 629.16 832.41C629.848 828.105 631.05 823.899 632.74 819.88C634.428 823.9 635.633 828.106 636.33 832.41C636.69 834.5 636.95 836.59 637.18 838.67C637.41 840.75 637.63 842.85 637.83 844.94C638.21 849.12 638.52 853.29 638.68 857.47C638.84 861.65 638.93 865.83 638.74 870H626.74Z" fill="#592D3D"/>
<path d="M380.531 758.82L613.761 758.72" stroke="#592D3D" stroke-width="12" stroke-miterlimit="10"/>
<path d="M559.552 758.82C559.554 763.322 559.071 767.811 558.112 772.21C557.646 774.35 557.066 776.463 556.372 778.54C554.16 784.744 550.764 790.46 546.372 795.37C544.971 796.943 543.467 798.423 541.872 799.8C516.702 818 476.702 819 452.392 799.22C449.773 796.932 447.391 794.386 445.282 791.62C440.904 785.87 437.802 779.253 436.182 772.21C435.708 770.034 435.351 767.834 435.112 765.62C434.862 763.362 434.739 761.092 434.742 758.82" stroke="#592D3D" stroke-width="12" stroke-miterlimit="10"/>
<path d="M503.399 828.39C497.35 829.607 491.161 829.977 485.009 829.49C478.802 829.054 472.681 827.789 466.809 825.73C460.902 823.705 455.338 820.792 450.309 817.09L448.449 815.68C447.839 815.2 447.249 814.68 446.659 814.16C445.471 813.149 444.358 812.052 443.329 810.88C441.276 808.573 439.473 806.056 437.949 803.37C440.089 805.515 442.338 807.548 444.689 809.46C445.269 809.94 445.859 810.41 446.439 810.86C447.019 811.31 447.669 811.68 448.279 812.1C448.889 812.52 449.499 812.94 450.129 813.33L452.039 814.49C457.141 817.512 462.535 820.012 468.139 821.95C473.755 823.914 479.525 825.402 485.389 826.4C491.354 827.376 497.365 828.04 503.399 828.39Z" fill="#592D3D"/>
<path d="M307.832 892.5C308.969 893.537 310.201 894.464 311.512 895.27" stroke="#592D3D" stroke-width="12" stroke-miterlimit="10" stroke-linecap="square"/>
<path d="M674.699 882.69C672.618 883.935 670.327 884.789 667.939 885.21C665.568 885.676 663.155 885.894 660.739 885.86C658.327 885.813 655.924 885.548 653.559 885.07C652.379 884.86 651.229 884.51 650.069 884.2C648.909 883.89 647.799 883.43 646.699 882.96C647.909 882.96 649.079 883.14 650.259 883.24L653.779 883.53C654.949 883.53 656.109 883.73 657.279 883.74C658.449 883.75 659.599 883.85 660.759 883.86C663.093 883.9 665.426 883.837 667.759 883.67C670.093 883.508 672.412 883.181 674.699 882.69Z" fill="#592D3D"/>
<path d="M566.881 917.83C566.881 908.97 555.781 900.57 538.771 895.36C542.701 878.02 540.951 864.23 533.261 859.81C531.468 858.621 529.326 858.071 527.181 858.25C519.181 858.38 509.871 863.6 499.951 872.87C490.001 863.65 479.001 858.2 472.711 858.36C469.551 858.45 468.341 858.88 466.551 859.92C458.881 864.33 457.171 878.1 461.121 895.39C444.121 900.62 433.121 909 433.121 917.83C433.121 926.66 444.221 935.09 461.231 940.3C457.301 957.64 459.051 971.43 466.741 975.85C468.61 976.902 470.727 977.43 472.871 977.38C480.371 977.38 490.181 972.03 500.111 962.76C510.031 971.98 519.851 977.27 527.351 977.27C529.504 977.317 531.63 976.789 533.511 975.74C541.171 971.32 542.891 957.55 538.931 940.27C555.841 935.06 566.881 926.66 566.881 917.83ZM527.161 864.34C528.238 864.309 529.305 864.553 530.261 865.05C533.971 867.18 535.581 875.28 534.331 885.69C534.031 888.25 533.541 890.95 532.941 893.69C527.24 892.309 521.454 891.307 515.621 890.69C512.149 885.899 508.361 881.346 504.281 877.06C513.161 868.87 521.491 864.35 527.161 864.34ZM475.841 931.79C477.121 933.97 478.431 936.097 479.771 938.17C475.901 937.6 472.161 936.89 468.591 936.02C469.591 932.5 470.851 928.87 472.271 925.25C473.391 927.43 474.561 929.61 475.841 931.79ZM468.511 899.64C472.081 898.8 475.841 898.06 479.741 897.49C478.411 899.59 477.071 901.74 475.821 903.95C474.571 906.16 473.391 908.31 472.271 910.49C470.838 906.938 469.583 903.317 468.511 899.64ZM475.461 917.91C477.151 914.26 479.061 910.6 481.111 907.03C483.161 903.46 485.411 899.86 487.681 896.62C491.741 896.26 495.861 896.07 500.001 896.07C504.141 896.07 508.231 896.26 512.271 896.59C514.531 899.83 516.741 903.3 518.871 906.95C521.001 910.6 522.871 914.15 524.541 917.8C522.821 921.46 520.941 925.11 518.891 928.68C516.841 932.25 514.591 935.85 512.321 939.1C508.261 939.45 504.141 939.64 500.001 939.64C495.861 939.64 491.771 939.45 487.731 939.12C485.471 935.88 483.261 932.42 481.131 928.76C479.001 925.1 477.181 921.56 475.461 917.91ZM524.161 931.71C525.411 929.53 526.581 927.32 527.701 925.14C529.135 928.695 530.39 932.319 531.461 936C527.891 936.87 524.131 937.61 520.231 938.18C521.571 936.07 522.901 933.92 524.161 931.71ZM524.161 903.87C522.911 901.69 521.571 899.56 520.231 897.49C524.111 898.057 527.838 898.773 531.411 899.64C530.411 903.16 529.151 906.79 527.731 910.41C526.581 908.23 525.411 906.05 524.131 903.87H524.161ZM507.501 890.15C505.041 890.05 502.501 889.96 500.001 889.96C497.501 889.96 494.901 890.02 492.421 890.15C494.761 887.109 497.265 884.198 499.921 881.43C502.593 884.207 505.123 887.117 507.501 890.15ZM469.571 865.15C470.535 864.636 471.62 864.39 472.711 864.44C478.351 864.44 486.711 868.94 495.611 877.15C491.553 881.422 487.79 885.966 484.351 890.75C478.51 891.354 472.716 892.357 467.011 893.75C466.381 891.03 465.921 888.38 465.591 885.85C464.311 875.43 465.891 867.33 469.571 865.18V865.15ZM462.701 934.38C460.001 933.53 457.441 932.6 455.071 931.6C445.411 927.48 439.171 922.08 439.171 917.8C439.171 913.52 445.411 908.09 455.071 904C457.411 903 459.971 902.09 462.621 901.25C464.287 906.915 466.335 912.461 468.751 917.85C466.364 923.227 464.343 928.76 462.701 934.41V934.38ZM472.821 971.29C471.75 971.307 470.691 971.056 469.741 970.56C466.031 968.43 464.421 960.33 465.671 949.92C465.971 947.35 466.461 944.66 467.061 941.92C472.761 943.306 478.547 944.308 484.381 944.92C487.851 949.716 491.639 954.273 495.721 958.56C486.831 966.8 478.491 971.32 472.821 971.32V971.29ZM500.051 954.2C497.379 951.419 494.849 948.506 492.471 945.47C494.931 945.58 497.471 945.66 499.971 945.66C502.471 945.66 505.071 945.61 507.551 945.47C505.212 948.524 502.708 951.448 500.051 954.23V954.2ZM530.431 970.45C529.467 970.964 528.383 971.21 527.291 971.16C521.651 971.16 513.291 966.66 504.391 958.45C508.45 954.178 512.212 949.634 515.651 944.85C521.493 944.246 527.286 943.243 532.991 941.85C533.605 944.466 534.079 947.113 534.411 949.78C535.691 960.23 534.111 968.32 530.431 970.48V970.45ZM544.911 931.6C542.561 932.6 540.001 933.5 537.351 934.35C535.683 928.682 533.635 923.133 531.221 917.74C533.594 912.376 535.599 906.857 537.221 901.22C539.921 902.07 542.481 902.99 544.881 904C554.541 908.12 560.781 913.52 560.781 917.8C560.781 922.08 554.561 927.54 544.911 931.63V931.6Z" fill="black" stroke="white" stroke-width="16"/>
<path d="M499.972 930.29C506.853 930.29 512.432 924.711 512.432 917.83C512.432 910.949 506.853 905.37 499.972 905.37C493.09 905.37 487.512 910.949 487.512 917.83C487.512 924.711 493.09 930.29 499.972 930.29Z" fill="black" stroke="white" stroke-width="24"/>
<path d="M566.881 917.83C566.881 908.97 555.781 900.57 538.771 895.36C542.701 878.02 540.951 864.23 533.261 859.81C531.468 858.621 529.326 858.071 527.181 858.25C519.181 858.38 509.871 863.6 499.951 872.87C490.001 863.65 479.001 858.2 472.711 858.36C469.551 858.45 468.341 858.88 466.551 859.92C458.881 864.33 457.171 878.1 461.121 895.39C444.121 900.62 433.121 909 433.121 917.83C433.121 926.66 444.221 935.09 461.231 940.3C457.301 957.64 459.051 971.43 466.741 975.85C468.61 976.902 470.727 977.43 472.871 977.38C480.371 977.38 490.181 972.03 500.111 962.76C510.031 971.98 519.851 977.27 527.351 977.27C529.504 977.317 531.63 976.789 533.511 975.74C541.171 971.32 542.891 957.55 538.931 940.27C555.841 935.06 566.881 926.66 566.881 917.83ZM527.161 864.34C528.238 864.309 529.305 864.553 530.261 865.05C533.971 867.18 535.581 875.28 534.331 885.69C534.031 888.25 533.541 890.95 532.941 893.69C527.24 892.309 521.454 891.307 515.621 890.69C512.149 885.899 508.361 881.346 504.281 877.06C513.161 868.87 521.491 864.35 527.161 864.34ZM475.841 931.79C477.121 933.97 478.431 936.097 479.771 938.17C475.901 937.6 472.161 936.89 468.591 936.02C469.591 932.5 470.851 928.87 472.271 925.25C473.391 927.43 474.561 929.61 475.841 931.79ZM468.511 899.64C472.081 898.8 475.841 898.06 479.741 897.49C478.411 899.59 477.071 901.74 475.821 903.95C474.571 906.16 473.391 908.31 472.271 910.49C470.838 906.938 469.583 903.317 468.511 899.64ZM475.461 917.91C477.151 914.26 479.061 910.6 481.111 907.03C483.161 903.46 485.411 899.86 487.681 896.62C491.741 896.26 495.861 896.07 500.001 896.07C504.141 896.07 508.231 896.26 512.271 896.59C514.531 899.83 516.741 903.3 518.871 906.95C521.001 910.6 522.871 914.15 524.541 917.8C522.821 921.46 520.941 925.11 518.891 928.68C516.841 932.25 514.591 935.85 512.321 939.1C508.261 939.45 504.141 939.64 500.001 939.64C495.861 939.64 491.771 939.45 487.731 939.12C485.471 935.88 483.261 932.42 481.131 928.76C479.001 925.1 477.181 921.56 475.461 917.91ZM524.161 931.71C525.411 929.53 526.581 927.32 527.701 925.14C529.135 928.695 530.39 932.319 531.461 936C527.891 936.87 524.131 937.61 520.231 938.18C521.571 936.07 522.901 933.92 524.161 931.71ZM524.161 903.87C522.911 901.69 521.571 899.56 520.231 897.49C524.111 898.057 527.838 898.773 531.411 899.64C530.411 903.16 529.151 906.79 527.731 910.41C526.581 908.23 525.411 906.05 524.131 903.87H524.161ZM507.501 890.15C505.041 890.05 502.501 889.96 500.001 889.96C497.501 889.96 494.901 890.02 492.421 890.15C494.761 887.109 497.265 884.198 499.921 881.43C502.593 884.207 505.123 887.117 507.501 890.15ZM469.571 865.15C470.535 864.636 471.62 864.39 472.711 864.44C478.351 864.44 486.711 868.94 495.611 877.15C491.553 881.422 487.79 885.966 484.351 890.75C478.51 891.354 472.716 892.357 467.011 893.75C466.381 891.03 465.921 888.38 465.591 885.85C464.311 875.43 465.891 867.33 469.571 865.18V865.15ZM462.701 934.38C460.001 933.53 457.441 932.6 455.071 931.6C445.411 927.48 439.171 922.08 439.171 917.8C439.171 913.52 445.411 908.09 455.071 904C457.411 903 459.971 902.09 462.621 901.25C464.287 906.915 466.335 912.461 468.751 917.85C466.364 923.227 464.343 928.76 462.701 934.41V934.38ZM472.821 971.29C471.75 971.307 470.691 971.056 469.741 970.56C466.031 968.43 464.421 960.33 465.671 949.92C465.971 947.35 466.461 944.66 467.061 941.92C472.761 943.306 478.547 944.308 484.381 944.92C487.851 949.716 491.639 954.273 495.721 958.56C486.831 966.8 478.491 971.32 472.821 971.32V971.29ZM500.051 954.2C497.379 951.419 494.849 948.506 492.471 945.47C494.931 945.58 497.471 945.66 499.971 945.66C502.471 945.66 505.071 945.61 507.551 945.47C505.212 948.524 502.708 951.448 500.051 954.23V954.2ZM530.431 970.45C529.467 970.964 528.383 971.21 527.291 971.16C521.651 971.16 513.291 966.66 504.391 958.45C508.45 954.178 512.212 949.634 515.651 944.85C521.493 944.246 527.286 943.243 532.991 941.85C533.605 944.466 534.079 947.113 534.411 949.78C535.691 960.23 534.111 968.32 530.431 970.48V970.45ZM544.911 931.6C542.561 932.6 540.001 933.5 537.351 934.35C535.683 928.682 533.635 923.133 531.221 917.74C533.594 912.376 535.599 906.857 537.221 901.22C539.921 902.07 542.481 902.99 544.881 904C554.541 908.12 560.781 913.52 560.781 917.8C560.781 922.08 554.561 927.54 544.911 931.63V931.6Z" fill="#61DAFB"/>
<path d="M499.972 930.29C506.853 930.29 512.432 924.711 512.432 917.83C512.432 910.949 506.853 905.37 499.972 905.37C493.09 905.37 487.512 910.949 487.512 917.83C487.512 924.711 493.09 930.29 499.972 930.29Z" fill="#61DAFB"/>
<path d="M271.401 568.53C270.401 540.17 289.401 516.17 314.681 504.97C317.336 503.883 320.062 502.981 322.841 502.27C336.856 498.806 351.599 499.759 365.051 505C368.12 506.18 371.103 507.57 373.981 509.16C403.511 525.05 416.771 562.41 405.341 592.62C404.183 595.666 402.785 598.615 401.161 601.44C397.173 609.748 391.15 616.913 383.651 622.27C381.149 624.111 378.527 625.781 375.801 627.27C348.421 640.27 311.421 636.27 289.351 615.87C287.141 613.527 285.099 611.031 283.241 608.4C281.118 605.397 279.255 602.219 277.671 598.9C274.318 592.095 272.389 584.677 272.001 577.1C271.639 574.257 271.439 571.396 271.401 568.53Z" fill="#C6854E"/>
<path d="M269.772 550.18C268.772 521.82 287.772 497.82 313.052 486.62C315.703 485.533 318.427 484.631 321.202 483.92C335.215 480.438 349.962 481.374 363.422 486.6C366.487 487.78 369.468 489.17 372.342 490.76C401.872 506.65 415.132 544.02 403.702 574.22C402.552 577.269 401.154 580.219 399.522 583.04C398.14 585.749 396.566 588.356 394.812 590.84C393.084 593.302 391.186 595.641 389.132 597.84C386.912 600.037 384.532 602.066 382.012 603.91C379.512 605.753 376.889 607.424 374.162 608.91C346.782 621.91 309.782 617.91 287.722 597.52C285.511 595.174 283.47 592.674 281.612 590.04C279.487 587.037 277.62 583.859 276.032 580.54C272.67 573.761 270.727 566.366 270.322 558.81C269.964 555.947 269.781 553.065 269.772 550.18Z" fill="white" stroke="#592D3D" stroke-width="12" stroke-miterlimit="10"/>
<path d="M338.51 563.03C345.27 563.03 350.75 557.55 350.75 550.79C350.75 544.03 345.27 538.55 338.51 538.55C331.75 538.55 326.27 544.03 326.27 550.79C326.27 557.55 331.75 563.03 338.51 563.03Z" fill="#592D3D"/>
<path d="M583.89 560.47C584.32 545.34 590.56 530.38 598.99 519.14C601.143 516.12 603.523 513.268 606.11 510.61C617.61 498.622 633.013 491.133 649.543 489.492C666.074 487.852 682.648 492.166 696.28 501.66C698.552 503.245 700.732 504.958 702.81 506.79C729.81 528.24 732.93 569.93 718.13 600.02C716.692 602.411 715.096 604.703 713.35 606.88C711.037 609.781 708.503 612.499 705.77 615.01C685.5 632.84 653.96 637.14 628.36 627.43C624.713 626.054 621.185 624.382 617.81 622.43C599.91 611.65 587.44 591.34 584.38 570.2C583.966 566.974 583.802 563.721 583.89 560.47Z" fill="#C6854E"/>
<path d="M589.382 549C589.802 534.85 595.802 520.85 603.902 510.34C605.986 507.506 608.279 504.832 610.762 502.34C622.013 491.101 636.821 484.123 652.651 482.602C668.481 481.08 684.347 485.11 697.532 494C699.714 495.477 701.811 497.076 703.812 498.79C729.812 518.86 732.812 557.86 718.552 586.01C717.17 588.255 715.633 590.4 713.952 592.43C711.72 595.146 709.282 597.686 706.662 600.03C687.152 616.71 656.802 620.74 632.172 611.65C628.658 610.346 625.257 608.758 622.002 606.9C604.782 596.82 592.782 577.82 589.832 558.05C589.439 555.05 589.289 552.024 589.382 549Z" fill="white" stroke="#592D3D" stroke-width="12" stroke-miterlimit="10"/>
<path d="M659.209 563.03C665.969 563.03 671.449 557.55 671.449 550.79C671.449 544.03 665.969 538.55 659.209 538.55C652.449 538.55 646.969 544.03 646.969 550.79C646.969 557.55 652.449 563.03 659.209 563.03Z" fill="#592D3D"/>
<path fill-rule="evenodd" clip-rule="evenodd" d="M243.891 484.13C249.531 499.96 264.791 508.19 277.291 511.07C290.351 490.83 333.941 482.15 366.661 493.63C394.461 498.63 355.851 468.06 294.191 484.63C291.881 485.48 279.631 487.58 263.911 475.44C261.721 473.75 268.591 489.15 276.411 495.44C265.061 495.21 263.201 495.22 243.891 484.13Z" fill="#592D3D"/>
<path fill-rule="evenodd" clip-rule="evenodd" d="M721.209 495.43C729.029 489.18 735.899 473.78 733.709 475.43C717.989 487.57 705.709 485.43 703.429 484.62C641.769 468.02 603.149 498.62 630.949 493.62C663.679 482.14 707.269 490.82 720.329 511.06C732.829 508.18 748.089 499.95 753.729 484.12C734.419 495.22 732.559 495.21 721.209 495.43Z" fill="#592D3D"/>
<path d="M443.141 621.86C443.141 602.96 556.861 605.8 556.861 621.86C556.861 636.94 550.87 651.403 540.207 662.066C529.543 672.729 515.081 678.72 500.001 678.72C484.92 678.72 470.458 672.729 459.795 662.066C449.131 651.403 443.141 636.94 443.141 621.86Z" fill="#592D3D"/>
<path d="M495.002 643C478.052 642 463.272 649.75 458.352 661.22C466.532 669.863 477.219 675.72 488.905 677.968C500.591 680.216 512.688 678.741 523.492 673.75C525.738 672.713 527.913 671.527 530.002 670.2C529.082 656.09 514.062 644.18 495.002 643Z" fill="#F28195"/>
<path d="M443.141 621.86C443.141 602.96 556.861 605.8 556.861 621.86C556.861 636.94 550.87 651.403 540.207 662.066C529.543 672.729 515.081 678.72 500.001 678.72C484.92 678.72 470.458 672.729 459.795 662.066C449.131 651.403 443.141 636.94 443.141 621.86Z" stroke="#592D3D" stroke-width="6" stroke-miterlimit="10"/>
<path d="M478.121 632.46C478.571 632.35 478.751 632.3 479.041 632.25L479.791 632.11C480.281 632.02 480.791 631.97 481.251 631.93C482.211 631.832 483.177 631.799 484.141 631.83C486.096 631.873 488.039 632.145 489.931 632.64C493.893 633.643 497.484 635.76 500.281 638.74C502.912 641.57 504.676 645.097 505.361 648.9C505.986 652.408 505.511 656.023 504.001 659.25C501.931 656.32 500.341 653.69 498.681 651.49C497.934 650.435 497.115 649.433 496.231 648.49C495.423 647.662 494.517 646.936 493.531 646.33C491.664 645.212 489.582 644.499 487.421 644.24C486.287 644.094 485.145 644.014 484.001 644C483.411 644 482.821 644 482.241 644.05L481.391 644.11H481.001C480.901 644.11 480.701 644.11 480.771 644.11L478.121 632.46Z" fill="#592D3D"/>
<path d="M729.47 414.02H290.23V478.17H729.47V414.02Z" fill="#C6854E"/>
<path d="M710.001 667.66C706.861 671.54 703.624 675.33 700.291 679.03C697.791 681.8 702.871 677.91 710.001 667.66ZM725.001 351.11C694.501 296.7 641.501 259.24 580.221 242L573.871 240.29C551.171 234.01 527.251 233.29 502.551 233.29C475.861 233.29 450.091 236.03 425.781 243.29L421.521 244.56C389.163 255.543 359.061 272.293 332.671 294C329.757 296.387 326.901 298.827 324.101 301.32C295.761 325.01 273.761 355.01 258.631 389.22C257.164 392.5 255.777 395.81 254.471 399.15C250.568 409.102 247.422 419.334 245.061 429.76C213.001 556.34 262.891 634 307.171 681.6C311.541 686.3 249.241 579.75 289.751 465.6C297.481 465.31 309.991 465.09 325.941 464.93L341.441 414.32L358.881 464.7C386.281 464.57 418.761 464.55 452.761 464.58L465.081 412.22L479.001 464.6C553.371 464.74 630.441 465.12 674.281 465.37L687.481 413.2L702.481 465.53L710.691 465.58C760.781 572 728.501 641.13 710.001 667.66C748.445 620.247 769.386 561.04 769.301 500C769.301 413.58 725.001 351.11 725.001 351.11Z" fill="#592D3D"/>
<path d="M710.001 667.66C706.861 671.54 703.624 675.33 700.291 679.03C697.791 681.8 702.871 677.91 710.001 667.66ZM710.001 667.66C728.501 641.13 760.781 572 710.691 465.58L702.481 465.53L687.481 413.2L674.281 465.37C630.441 465.12 553.371 464.74 479.001 464.6L465.081 412.22L452.761 464.58C418.761 464.55 386.281 464.57 358.881 464.7L341.441 414.32L325.941 464.93C309.991 465.09 297.481 465.31 289.751 465.6C249.241 579.75 311.541 686.3 307.171 681.6C262.891 634 213.001 556.34 245.061 429.76C247.422 419.334 250.568 409.102 254.471 399.15C255.777 395.81 257.164 392.5 258.631 389.22C273.761 355.01 295.761 325.01 324.101 301.32C326.901 298.827 329.757 296.387 332.671 294C359.061 272.293 389.163 255.543 421.521 244.56L425.781 243.29C450.091 236.03 475.861 233.29 502.551 233.29C527.251 233.29 551.171 234.01 573.871 240.29L580.221 242C641.501 259.24 694.501 296.7 725.001 351.11C725.001 351.11 769.301 413.58 769.301 500C769.386 561.04 748.445 620.247 710.001 667.66Z" stroke="#592D3D" stroke-width="12" stroke-miterlimit="10"/>
<path d="M584.149 228L577.679 226.26C552.469 219.26 526.749 218.71 502.549 218.71C471.959 218.71 445.479 222.2 421.639 229.35L417.379 230.62L416.889 230.77C382.885 242.368 351.243 259.981 323.469 282.77C320.469 285.23 317.469 287.77 314.629 290.32C284.999 315.14 261.699 346.43 245.389 383.32C243.829 386.81 242.389 390.37 240.969 393.89C236.789 404.58 219.679 453.66 217.219 464.54L289.749 465.54C297.479 465.25 309.989 465.03 325.939 464.87L341.439 414.26L358.879 464.64C386.279 464.51 418.759 464.49 452.759 464.52L465.079 412.16L478.999 464.6C553.369 464.74 630.439 465.12 674.279 465.37L687.479 413.2L702.479 465.53L710.689 465.58L783.799 500C783.799 413.81 742.499 351 737.319 343.4C705.999 288 651.629 247 584.149 228ZM750.309 547.25C747.139 521.33 739.139 491.99 723.799 459.41L719.909 451.14H713.419L686.639 357.51L662.999 450.81C622.569 450.59 555.939 450.27 490.139 450.12L464.189 352.55L441.249 450.05C413.849 450.05 389.699 450.05 369.159 450.14L340.599 367.53L315.179 450.53C303.729 450.68 295.019 450.87 289.179 451.09L279.349 451.47L276.059 460.73C261.719 501.22 257.919 545 264.759 591C248.859 551 242.299 499.61 259.109 433.37L259.199 432.99C261.409 423.275 264.351 413.741 267.999 404.47C269.199 401.38 270.509 398.25 271.909 395.12C286.449 362.26 307.149 334.45 333.419 312.49L333.749 312.2C336.399 309.85 339.139 307.51 341.889 305.25C366.863 284.732 395.313 268.858 425.889 258.38L429.939 257.18C451.059 250.84 474.809 247.75 502.539 247.75C524.759 247.75 548.269 248.26 569.989 254.27L576.369 255.98C636.609 272.98 684.899 309.25 712.369 358.21L712.739 358.87L713.179 359.5C713.599 360.09 754.789 419.13 754.789 500C754.785 515.856 753.285 531.676 750.309 547.25Z" fill="#592D3D"/>
<path d="M710.001 667.66C706.861 671.54 703.624 675.33 700.291 679.03C697.791 681.8 702.871 677.91 710.001 667.66ZM710.001 667.66C728.501 641.13 760.781 572 710.691 465.58L702.481 465.53L687.481 413.2L674.281 465.37C630.441 465.12 553.371 464.74 479.001 464.6L465.081 412.22L452.761 464.58C418.761 464.55 386.281 464.57 358.881 464.7L341.441 414.32L325.941 464.93C309.991 465.09 297.481 465.31 289.751 465.6C249.241 579.75 311.541 686.3 307.171 681.6" stroke="#592D3D" stroke-width="12" stroke-miterlimit="10"/>
<path d="M284.48 462.85C284.66 462.1 284.81 461.53 285.01 460.91C285.21 460.29 285.41 459.71 285.63 459.13C286.09 457.96 286.63 456.82 287.14 455.71C288.256 453.474 289.544 451.328 290.99 449.29C292.42 447.214 294.055 445.288 295.87 443.54C297.849 441.665 300.25 440.293 302.87 439.54C302.902 442.126 302.61 444.706 302 447.22C301.72 448.36 301.41 449.47 301.07 450.54L300.07 453.79C299.404 455.943 298.737 458.073 298.07 460.18C297.74 461.24 297.39 462.27 297.07 463.31C296.9 463.82 296.7 464.31 296.51 464.84C296.32 465.37 296.12 465.84 295.95 466.24L284.48 462.85Z" fill="#592D3D"/>
<path d="M710.68 459.58C712.754 459.415 714.839 459.435 716.91 459.64C719.003 459.819 721.086 460.106 723.15 460.5C724.15 460.7 725.23 460.9 726.27 461.14C727.323 461.361 728.362 461.649 729.38 462C731.674 462.774 733.794 463.99 735.62 465.58C733.791 467.169 731.672 468.388 729.38 469.17C728.362 469.518 727.323 469.802 726.27 470.02C725.27 470.27 724.19 470.47 723.15 470.67C721.07 471.057 718.99 471.343 716.91 471.53C714.839 471.732 712.754 471.749 710.68 471.58V459.58Z" fill="#592D3D"/>
<path d="M444.84 452.07C445.084 447.297 445.581 442.54 446.33 437.82C447.05 433.12 447.93 428.45 448.94 423.82C449.95 419.19 451.09 414.57 452.38 409.99C453.672 405.38 455.215 400.843 457 396.4C456.759 401.174 456.258 405.931 455.5 410.65C454.78 415.35 453.91 420.017 452.89 424.65C451.87 429.283 450.723 433.893 449.45 438.48C448.152 443.087 446.613 447.624 444.84 452.07Z" fill="white"/>
<path d="M668 452.07C668.244 447.297 668.741 442.54 669.49 437.82C670.217 433.12 671.087 428.453 672.1 423.82C673.113 419.187 674.243 414.58 675.49 410C676.767 405.394 678.292 400.861 680.06 396.42C679.822 401.194 679.325 405.951 678.57 410.67C677.837 415.37 676.967 420.037 675.96 424.67C674.96 429.31 673.8 433.92 672.51 438.5C671.248 443.1 669.743 447.63 668 452.07Z" fill="white"/>
<path d="M237.551 468.26C239.573 455.124 243.417 442.334 248.971 430.26Z" fill="#592D3D"/>
<path d="M231.602 467.51C231.692 466.51 231.782 465.66 231.922 464.78C232.062 463.9 232.212 463.06 232.382 462.2C232.732 460.5 233.132 458.82 233.612 457.2C234.552 453.877 235.712 450.62 237.082 447.45C238.405 444.259 239.976 441.176 241.782 438.23C243.671 435.173 246.108 432.491 248.972 430.32C249.173 433.804 249.012 437.299 248.492 440.75C248.242 442.38 247.982 444 247.662 445.59C247.342 447.18 247.082 448.78 246.832 450.37L245.202 459.86L244.372 464.54C244.252 465.32 244.092 466.1 243.952 466.86C243.812 467.62 243.652 468.43 243.512 469.05L231.602 467.51Z" fill="#592D3D"/>
<path d="M769.331 496C769.331 496 768.871 475.22 760.961 448.37Z" fill="#592D3D"/>
<path d="M763.332 496.12L763.092 493.36C763.012 492.36 762.932 491.43 762.872 490.47L762.422 484.63L761.512 472.83C761.212 468.88 760.802 464.92 760.512 460.9C760.432 458.9 760.352 456.84 760.412 454.76C760.434 452.618 760.601 450.48 760.912 448.36C763.635 451.642 765.853 455.312 767.492 459.25C768.312 461.159 769.036 463.108 769.662 465.09C770.332 467.09 770.902 469.09 771.472 471.09C772.594 475.094 773.492 479.157 774.162 483.26C774.492 485.31 774.792 487.38 774.972 489.47C775.078 490.51 775.158 491.56 775.212 492.62C775.272 493.69 775.292 494.69 775.282 495.9L763.332 496.12Z" fill="#592D3D"/>
<path d="M506.7 235.5C492.457 236.322 478.273 237.968 464.22 240.43C460.74 241.11 457.22 241.85 453.78 242.49C450.34 243.13 446.88 244.1 443.43 244.9L433.17 247.62C429.77 248.62 426.4 249.7 423.02 250.74C409.534 255.09 396.358 260.345 383.58 266.47C370.748 272.701 358.311 279.714 346.34 287.47C357.003 277.739 368.778 269.3 381.42 262.33C394.068 255.253 407.386 249.448 421.18 245C424.66 244 428.12 242.91 431.6 241.95C435.08 240.99 438.6 240.13 442.15 239.35C445.7 238.57 449.25 237.95 452.8 237.35C456.35 236.75 459.96 236.28 463.54 235.83C477.867 234.081 492.347 233.97 506.7 235.5Z" fill="white"/>
<path d="M407.291 474.84H286.651C281.091 474.84 275.531 474.76 269.971 474.84H269.731C264.501 474.84 259.491 479.44 259.731 484.84C259.775 487.479 260.842 489.997 262.708 491.863C264.574 493.729 267.092 494.796 269.731 494.84H390.371C395.921 494.84 401.491 494.92 407.051 494.84H407.291C412.521 494.84 417.531 490.24 417.291 484.84C417.245 482.202 416.176 479.686 414.311 477.82C412.445 475.955 409.929 474.886 407.291 474.84Z" fill="#592D3D"/>
<path d="M726.322 474.84H605.682C600.122 474.84 594.562 474.76 589.002 474.84H588.762C583.532 474.84 578.522 479.44 578.762 484.84C578.806 487.479 579.874 489.997 581.739 491.863C583.605 493.729 586.124 494.796 588.762 494.84H709.402C714.962 494.84 720.522 494.92 726.082 494.84H726.322C731.552 494.84 736.562 490.24 736.322 484.84C736.276 482.202 735.208 479.686 733.342 477.82C731.477 475.955 728.96 474.886 726.322 474.84Z" fill="#592D3D"/>
</g>
</svg>
