<svg width="1000" height="990" viewBox="0 0 1000 990" fill="none" xmlns="http://www.w3.org/2000/svg">
<mask id="mask0_22_1882" style="mask-type:luminance" maskUnits="userSpaceOnUse" x="0" y="0" width="1000" height="966">
<path d="M1000 0H0V718.31H179.2C217.58 860.69 346.65 965.41 500 965.41C653.35 965.41 782.42 860.69 820.8 718.31H1000V0Z" fill="white"/>
</mask>
<g mask="url(#mask0_22_1882)">
<path d="M500.001 962.602C683.603 962.602 832.443 813.763 832.443 630.16C832.443 446.558 683.603 297.718 500.001 297.718C316.398 297.718 167.559 446.558 167.559 630.16C167.559 813.763 316.398 962.602 500.001 962.602Z" fill="#85C5E5"/>
<path d="M225.35 498C408.77 575.95 596.49 577.06 781.29 498C798.82 490.5 798.72 358.13 781.29 364.19C600.82 427.02 409.96 427.69 225.35 364.19C203.39 356.6 205.53 489.53 225.35 498Z" fill="#592D3D" stroke="#592D3D" stroke-width="12" stroke-miterlimit="10"/>
<path d="M610 758.72C700.76 758.72 682 872.96 682.87 1000H610V758.72Z" fill="#FDD2B2"/>
<path d="M632.74 831.87L610 870L621.38 1000H653.14C653.91 819.73 632.74 831.87 632.74 831.87Z" fill="#F3AB98"/>
<path d="M233.25 500C233.25 352.68 352.68 233.25 500 233.25C647.32 233.25 766.75 352.68 766.75 500C766.788 539.694 757.949 578.895 740.88 614.731C723.811 650.568 698.945 682.135 668.1 707.12C662.627 711.573 656.98 715.803 651.16 719.81C591 758 515 758 446.39 751.89C439.73 750.89 433.09 749.63 426.5 748.18C400.17 742.38 374.68 733.43 351.13 720.38C345.31 716.793 339.667 712.92 334.2 708.76C328.706 704.576 323.432 700.11 318.4 695.38C313.64 690.96 309.044 686.367 304.61 681.6C258.667 632.299 233.161 567.39 233.25 500Z" fill="#FDD2B2"/>
<path d="M269.612 634.48C270.312 635.68 271.002 636.88 271.722 638.06C272.152 638.78 272.602 639.48 273.052 640.2C273.712 641.27 274.372 642.34 275.052 643.39C275.532 644.15 276.052 644.89 276.512 645.63C277.172 646.63 277.832 647.63 278.512 648.63C279.022 649.39 279.512 650.15 280.072 650.91C280.732 651.91 281.392 652.83 282.072 653.79C282.612 654.56 283.172 655.32 283.722 656.09C284.272 656.86 285.062 657.94 285.722 658.86C286.382 659.78 286.872 660.39 287.452 661.15C288.032 661.91 288.822 662.95 289.522 663.85C290.222 664.75 290.712 665.36 291.312 666.11C291.912 666.86 292.722 667.87 293.432 668.74C294.142 669.61 294.662 670.23 295.282 670.97C295.902 671.71 296.722 672.69 297.452 673.54C298.182 674.39 298.722 675.01 299.362 675.74L301.582 678.24C302.232 678.97 302.892 679.68 303.582 680.4C304.442 681.34 305.312 682.27 306.182 683.19L307.392 684.47C308.682 685.81 309.982 687.15 311.302 688.47L311.562 688.74C312.852 690.02 314.162 691.29 315.472 692.55L317.052 694.05C318.002 694.94 318.952 695.83 319.912 696.71L321.072 697.77C322.072 698.71 323.162 699.63 324.212 700.55C327.478 703.397 330.812 706.127 334.212 708.74C339.672 712.9 345.315 716.773 351.142 720.36C374.692 733.36 400.142 742.36 426.512 748.16C433.102 749.61 439.742 750.86 446.402 751.87C488.502 755.62 533.402 757.05 575.682 748.79C508.452 729 185.592 612.74 388.802 257.48C386.082 258.73 383.402 260.02 380.742 261.36L380.152 261.65C378.932 262.26 377.712 262.89 376.502 263.53L375.502 264.06C371.742 266.06 368.022 268.13 364.372 270.29L363.472 270.82C362.312 271.51 361.162 272.21 360.012 272.92L359.142 273.46C355.568 275.693 352.052 278.003 348.592 280.39L347.512 281.14C346.422 281.9 345.352 282.66 344.282 283.43L343.622 283.9C341.442 285.493 339.288 287.107 337.162 288.74L336.542 289.22C335.542 290 334.542 290.8 333.542 291.61L332.372 292.55C331.372 293.36 330.372 294.17 329.372 295C327.262 296.75 325.182 298.55 323.132 300.37L321.992 301.37L319.302 303.82L318.002 305C315.148 307.667 312.358 310.39 309.632 313.17L308.252 314.58C307.462 315.4 306.672 316.22 305.892 317.05C305.432 317.54 304.972 318.05 304.522 318.53C303.148 319.997 301.795 321.483 300.462 322.99C300.012 323.5 299.552 323.99 299.102 324.53C298.392 325.34 297.692 326.16 296.992 326.98L295.482 328.77C294.802 329.58 294.122 330.39 293.482 331.21C292.942 331.87 292.402 332.54 291.872 333.21C290.802 334.54 289.752 335.87 288.712 337.21C288.172 337.91 287.632 338.61 287.102 339.32C286.572 340.03 285.902 340.91 285.312 341.72C284.722 342.53 284.242 343.17 283.722 343.9C283.202 344.63 282.592 345.45 282.042 346.23C281.095 347.563 280.162 348.913 279.242 350.28C278.742 351.01 278.242 351.76 277.752 352.5C277.262 353.24 276.652 354.16 276.112 355L274.622 357.31L272.942 360.02C272.512 360.71 272.082 361.4 271.662 362.09C270.772 363.55 269.912 365.02 269.052 366.49L267.832 368.65C267.292 369.6 266.752 370.56 266.222 371.52C265.822 372.25 265.422 372.98 265.032 373.71C264.392 374.9 263.762 376.1 263.132 377.3L261.932 379.64C261.292 380.92 260.652 382.19 260.022 383.48C259.692 384.17 259.352 384.87 259.022 385.57C258.502 386.66 258.022 387.76 257.492 388.86C257.182 389.52 256.882 390.18 256.582 390.86C255.842 392.507 255.118 394.173 254.412 395.86C254.192 396.38 253.982 396.91 253.762 397.43C253.232 398.7 252.712 399.97 252.202 401.25C251.932 401.92 251.672 402.59 251.412 403.25C250.912 404.51 250.412 405.78 249.962 407.05C249.752 407.6 249.542 408.15 249.342 408.7C248.715 410.453 248.098 412.207 247.492 413.96L246.932 415.66C246.492 416.993 246.062 418.327 245.642 419.66L245.042 421.57C244.572 423.11 244.112 424.65 243.672 426.2C243.572 426.53 243.472 426.86 243.382 427.2C242.862 429.04 242.362 430.887 241.882 432.74C241.722 433.33 241.582 433.93 241.432 434.52C241.082 435.91 240.742 437.3 240.432 438.7L240.012 440.45C239.582 442.35 239.162 444.25 238.772 446.16L238.622 446.93C238.282 448.63 237.948 450.33 237.622 452.03C237.512 452.64 237.412 453.24 237.302 453.85C237.042 455.34 236.792 456.85 236.562 458.35C236.482 458.86 236.392 459.35 236.322 459.87C236.022 461.82 235.752 463.78 235.492 465.75L235.342 467.05C235.142 468.64 234.962 470.24 234.792 471.84C234.732 472.44 234.662 473.04 234.602 473.65C234.442 475.33 234.292 477.02 234.152 478.71C234.152 479.06 234.092 479.4 234.072 479.71C233.925 481.71 233.795 483.727 233.682 485.76C233.682 486.29 233.682 486.83 233.612 487.36C233.545 488.933 233.485 490.503 233.432 492.07C233.432 492.66 233.432 493.25 233.432 493.84C233.432 495.89 233.352 497.95 233.352 500.01C233.352 500.01 233.352 500.08 233.352 500.11C233.352 502.33 233.352 504.53 233.432 506.73C233.432 507.49 233.492 508.25 233.512 509.01C233.562 510.48 233.612 511.95 233.682 513.42C233.682 514.31 233.792 515.19 233.842 516.08C233.922 517.41 233.992 518.74 234.092 520.08C234.162 521.08 234.252 521.97 234.332 522.91C234.442 524.17 234.542 525.43 234.672 526.68C234.762 527.68 234.882 528.62 234.982 529.59C235.122 530.8 235.252 532.02 235.402 533.23C235.522 534.23 235.662 535.23 235.792 536.18C235.952 537.36 236.112 538.55 236.292 539.73C236.442 540.73 236.602 541.73 236.762 542.73C236.942 543.89 237.132 545.06 237.332 546.22C237.512 547.22 237.692 548.22 237.882 549.22C238.092 550.37 238.312 551.52 238.532 552.66C238.752 553.8 238.942 554.66 239.152 555.66C239.392 556.8 239.632 557.93 239.892 559.06C240.152 560.19 240.332 561.06 240.572 561.99C240.832 563.12 241.112 564.24 241.392 565.35C241.672 566.46 241.882 567.3 242.132 568.26C242.432 569.38 242.732 570.49 243.042 571.6C243.302 572.6 243.572 573.52 243.852 574.47C244.172 575.58 244.502 576.68 244.852 577.78C245.202 578.88 245.432 579.67 245.732 580.62C246.032 581.57 246.432 582.81 246.792 583.9C247.152 584.99 247.412 585.77 247.732 586.7C248.112 587.79 248.492 588.88 248.882 589.97C249.212 590.88 249.532 591.8 249.882 592.71L251.122 595.98C251.472 596.87 251.812 597.77 252.122 598.66C252.562 599.75 253.012 600.85 253.462 601.94C253.822 602.8 254.172 603.67 254.542 604.53C255.012 605.65 255.542 606.75 255.992 607.86C256.362 608.68 256.722 609.51 257.092 610.33C257.612 611.49 258.162 612.63 258.692 613.77L259.772 616.07C260.382 617.33 261.012 618.57 261.642 619.82C261.962 620.45 262.262 621.09 262.592 621.72C264.512 625.46 266.512 629.15 268.592 632.79C268.882 633.26 269.252 633.87 269.612 634.48Z" fill="#F3AB98"/>
<path d="M233.25 500C233.25 352.68 352.68 233.25 500 233.25C647.32 233.25 766.75 352.68 766.75 500C766.788 539.694 757.949 578.895 740.88 614.731C723.811 650.568 698.945 682.135 668.1 707.12C662.627 711.573 656.98 715.803 651.16 719.81C591 758 515 758 446.39 751.89C439.73 750.89 433.09 749.63 426.5 748.18C400.17 742.38 374.68 733.43 351.13 720.38C345.31 716.793 339.667 712.92 334.2 708.76C328.706 704.576 323.432 700.11 318.4 695.38C313.64 690.96 309.044 686.367 304.61 681.6C258.667 632.299 233.161 567.39 233.25 500Z" stroke="#592D3D" stroke-width="12" stroke-miterlimit="10"/>
<path d="M386.122 758.72C295.352 758.72 314.122 872.96 313.252 1000H386.122V758.72Z" fill="#FDD2B2"/>
<path d="M367.232 831.87L390.002 870L378.612 1000H346.882C346.072 819.73 367.232 831.87 367.232 831.87Z" fill="#F3AB98"/>
<path d="M619.472 1070H380.532C377.011 1070 373.636 1068.6 371.148 1066.11C368.659 1063.62 367.262 1060.24 367.262 1056.72V772C367.262 768.48 368.659 765.103 371.148 762.613C373.636 760.123 377.011 758.723 380.532 758.72H613.762C626.852 758.72 632.762 766.38 632.762 778.6V1056.68C632.767 1058.43 632.427 1060.16 631.761 1061.78C631.096 1063.39 630.117 1064.86 628.883 1066.1C627.648 1067.34 626.181 1068.32 624.566 1068.99C622.951 1069.66 621.22 1070 619.472 1070Z" fill="#FDD2B2"/>
<path d="M629.052 766.62C628.055 765.394 627.212 764.051 626.542 762.62C624.141 760.739 621.284 759.527 618.262 759.11C616.773 758.88 615.268 758.766 613.762 758.77H380.532C377.02 758.773 373.652 760.166 371.165 762.646C368.679 765.125 367.275 768.488 367.262 772C396.262 782.42 450.552 788.24 500.002 788.24C563.062 788.24 604.382 778.89 629.052 766.62Z" fill="#F3AB98"/>
<path d="M610 758.72C700.76 758.72 682 872.96 682.87 1000H632.74" stroke="#592D3D" stroke-width="12" stroke-miterlimit="10" stroke-linecap="square"/>
<path d="M386.122 758.72C295.352 758.72 314.122 872.96 313.252 1000H363.322" stroke="#592D3D" stroke-width="12" stroke-miterlimit="10" stroke-linecap="square"/>
<path d="M380.531 758.82L613.761 758.72" stroke="#592D3D" stroke-width="12" stroke-miterlimit="10"/>
<path d="M380.532 1070H497.152C388.002 1070 396.242 838.82 367.262 838.82V1056.68C367.257 1058.43 367.596 1060.16 368.26 1061.77C368.925 1063.39 369.901 1064.86 371.134 1066.09C372.366 1067.33 373.831 1068.31 375.444 1068.98C377.056 1069.65 378.785 1070 380.532 1070Z" fill="#F3AB98"/>
<path d="M361.259 860.85C361.069 857.18 361.149 853.51 361.309 849.85C361.469 846.19 361.779 842.5 362.169 838.85C362.369 837.01 362.569 835.18 362.819 833.34C363.069 831.5 363.309 829.67 363.669 827.83C364.378 824.022 365.585 820.324 367.259 816.83C368.933 820.324 370.14 824.022 370.849 827.83C371.209 829.67 371.469 831.5 371.699 833.34C371.929 835.18 372.149 837.01 372.349 838.85C372.729 842.52 373.029 846.19 373.199 849.85C373.369 853.51 373.449 857.19 373.259 860.85H361.259Z" fill="#592D3D"/>
<path d="M632.742 870V878C633.002 912 633.002 947 632.742 980.75C632.742 983.62 632.742 986.47 632.742 989.28V1056.69C632.746 1058.44 632.405 1060.17 631.74 1061.78C631.075 1063.39 630.099 1064.86 628.866 1066.1C627.634 1067.33 626.17 1068.31 624.558 1068.98C622.946 1069.65 621.217 1070 619.472 1070H380.532C377.011 1070 373.636 1068.6 371.148 1066.11C368.659 1063.62 367.262 1060.24 367.262 1056.72V998.52C367.262 996.01 367.262 993.45 367.262 990.87C367.012 956 367.012 921 367.262 885.57V860.85" stroke="#592D3D" stroke-width="12" stroke-miterlimit="10"/>
<path d="M626.74 870C626.55 865.83 626.64 861.65 626.8 857.47C626.96 853.29 627.27 849.12 627.65 844.94C627.85 842.85 628.06 840.76 628.3 838.67C628.54 836.58 628.79 834.5 629.15 832.41C629.847 828.106 631.052 823.9 632.74 819.88C634.428 823.9 635.633 828.106 636.33 832.41C636.69 834.5 636.95 836.59 637.18 838.67C637.41 840.75 637.63 842.85 637.83 844.94C638.21 849.12 638.52 853.29 638.68 857.47C638.84 861.65 638.93 865.83 638.74 870H626.74Z" fill="#592D3D"/>
<path d="M502.069 878.86C502.067 889.337 499.69 899.678 495.117 909.104C490.543 918.53 483.892 926.797 475.663 933.282C467.435 939.768 457.843 944.303 447.609 946.548C437.375 948.793 426.765 948.688 416.578 946.242C406.39 943.796 396.89 939.072 388.79 932.426C380.691 925.779 374.204 917.383 369.818 907.869C365.431 898.354 363.258 887.969 363.462 877.494C363.667 867.019 366.244 856.726 370.999 847.39" stroke="#592D3D" stroke-width="12" stroke-miterlimit="10"/>
<path d="M371 847.39C374.787 839.991 379.867 833.33 386 827.72Z" fill="#FDD2B2"/>
<path d="M365.652 844.66C366.53 842.58 367.666 840.618 369.032 838.82C370.388 837.02 371.904 835.346 373.562 833.82C374.402 833.06 375.252 832.32 376.142 831.63C377.026 830.915 377.966 830.273 378.952 829.71C381.086 828.479 383.49 827.792 385.952 827.71C385.693 830.051 385.104 832.344 384.202 834.52C383.812 835.52 383.372 836.4 382.912 837.29L381.612 839.96C380.762 841.72 379.922 843.45 379.062 845.15C378.23 846.864 377.309 848.533 376.302 850.15L365.652 844.66Z" fill="#592D3D"/>
<path d="M489.332 838.82C497.63 850.507 502.083 864.487 502.072 878.82Z" fill="#FDD2B2"/>
<path d="M489.332 838.82C492.746 840.671 495.712 843.248 498.022 846.37C499.172 847.888 500.208 849.489 501.122 851.16C502.052 852.83 502.892 854.55 503.672 856.31C505.207 859.846 506.366 863.533 507.132 867.31C507.909 871.101 508.225 874.973 508.072 878.84H496.072C495.882 875.59 495.712 872.36 495.372 869.11C495.032 865.86 494.602 862.63 493.972 859.37L493.472 856.93L492.892 854.48C492.472 852.85 492.022 851.22 491.602 849.55C490.657 846.016 489.9 842.434 489.332 838.82Z" fill="#592D3D"/>
<path d="M641.651 878.86C641.662 869.372 639.719 859.983 635.945 851.278C632.17 842.572 626.644 834.737 619.711 828.26" fill="#FDD2B2"/>
<path d="M635.651 878.86C635.49 874.552 635.07 870.257 634.391 866C633.689 861.7 632.646 857.464 631.271 853.33C630.931 852.33 630.531 851.26 630.161 850.22C629.791 849.18 629.321 848.17 628.911 847.13C628.501 846.09 627.971 845.13 627.531 844.08L626.071 841.08C624.071 836.98 621.901 832.89 619.711 828.33C624.345 830.307 628.51 833.241 631.931 836.94C632.761 837.88 633.631 838.8 634.401 839.79C635.171 840.78 635.941 841.79 636.651 842.79C637.361 843.79 638.081 844.88 638.721 845.97C639.361 847.06 640.031 848.15 640.601 849.29C642.981 853.813 644.795 858.613 646.001 863.58C647.233 868.576 647.778 873.717 647.621 878.86H635.651Z" fill="#592D3D"/>
<path d="M503.001 878.86C502.891 888.031 504.602 897.133 508.036 905.638C511.469 914.144 516.557 921.883 523.003 928.407C529.45 934.931 537.127 940.111 545.59 943.647C554.053 947.182 563.134 949.003 572.306 949.003C581.478 949.003 590.559 947.182 599.022 943.647C607.485 940.111 615.163 934.931 621.609 928.407C628.056 921.883 633.143 914.144 636.577 905.638C640.01 897.133 641.721 888.031 641.611 878.86" stroke="#592D3D" stroke-width="12" stroke-miterlimit="10"/>
<path d="M515.769 838.82C507.475 850.508 503.025 864.488 503.039 878.82Z" fill="#FDD2B2"/>
<path d="M515.772 838.82C515.205 842.441 514.448 846.029 513.502 849.57C513.082 851.24 512.632 852.87 512.212 854.5L511.642 856.95L511.142 859.39C510.512 862.65 510.052 865.89 509.732 869.13C509.412 872.37 509.232 875.61 509.042 878.86H497.002C496.84 874.993 497.156 871.12 497.942 867.33C498.703 863.551 499.863 859.864 501.402 856.33C502.172 854.57 503.012 852.85 503.942 851.18C504.86 849.512 505.896 847.911 507.042 846.39C509.364 843.259 512.344 840.675 515.772 838.82Z" fill="#592D3D"/>
<path d="M383.441 837.55V758.72" stroke="#592D3D" stroke-width="12" stroke-miterlimit="10"/>
<path d="M616.461 837.55V758.72" stroke="#592D3D" stroke-width="12" stroke-miterlimit="10"/>
<path d="M470.5 897.78H524.4V917.48C506.66 911.43 488.69 911.58 470.5 917.48V897.78Z" fill="#633749" stroke="#592D3D" stroke-width="12" stroke-miterlimit="10"/>
<path d="M638.101 878.86C638.126 861.305 631.464 844.4 619.471 831.58C615.251 827.06 575.201 837.77 551.661 858.84C528.551 879.53 508.431 913.33 511.311 917.59C519.607 929.903 531.637 939.226 545.63 944.187C559.624 949.148 574.84 949.485 589.039 945.148C603.238 940.81 615.669 932.028 624.501 920.095C633.334 908.161 638.101 893.707 638.101 878.86Z" fill="#633749" stroke="#592D3D" stroke-width="12" stroke-miterlimit="10"/>
<path d="M598.112 848.39C591.992 852.06 585.962 855.57 580.112 859.39C574.338 863.08 568.816 867.149 563.582 871.57C558.432 876.03 553.472 880.89 548.582 885.83C543.692 890.77 538.892 895.83 533.832 900.9C536.9 894.462 540.648 888.371 545.012 882.73C549.369 877.001 554.298 871.731 559.722 867C565.241 862.329 571.338 858.387 577.862 855.27C584.289 852.118 591.095 849.805 598.112 848.39Z" fill="white"/>
<path d="M361.902 878.86C361.877 861.305 368.539 844.4 380.532 831.58C384.752 827.06 424.802 837.77 448.342 858.84C471.452 879.53 491.572 913.33 488.692 917.59C480.396 929.903 468.366 939.226 454.373 944.187C440.38 949.148 425.163 949.485 410.964 945.148C396.765 940.81 384.334 932.028 375.502 920.095C366.669 908.161 361.902 893.707 361.902 878.86Z" fill="#633749" stroke="#592D3D" stroke-width="12" stroke-miterlimit="10"/>
<path d="M455.751 938.92C433.112 938.92 411.4 929.927 395.392 913.919C379.384 897.911 370.391 876.199 370.391 853.56C370.391 850.651 370.537 847.744 370.831 844.85C363.312 858.199 360.428 873.662 362.629 888.823C364.831 903.985 371.993 917.989 382.997 928.648C394.002 939.308 408.227 946.02 423.451 947.738C438.675 949.455 454.038 946.08 467.141 938.14C463.366 938.653 459.561 938.914 455.751 938.92Z" fill="#5E3244"/>
<path d="M361.902 878.86C361.877 861.305 368.539 844.4 380.532 831.58C384.752 827.06 424.802 837.77 448.342 858.84C471.452 879.53 491.572 913.33 488.692 917.59C480.396 929.903 468.366 939.226 454.373 944.187C440.38 949.148 425.163 949.485 410.964 945.148C396.765 940.81 384.334 932.028 375.502 920.095C366.669 908.161 361.902 893.707 361.902 878.86Z" stroke="#592D3D" stroke-width="12" stroke-miterlimit="10"/>
<path d="M401.891 848.39C408.907 849.802 415.713 852.111 422.141 855.26C428.666 858.38 434.762 862.325 440.281 867C445.683 871.727 450.592 876.991 454.931 882.71C459.295 888.351 463.043 894.442 466.111 900.88C461.051 895.88 456.271 890.75 451.361 885.81C446.451 880.87 441.521 876.01 436.361 871.55C431.126 867.129 425.604 863.06 419.831 859.37C414.001 855.57 408.001 852.06 401.891 848.39Z" fill="white"/>
<path d="M677.8 906.35C678.01 869.24 676.59 836.28 670.07 810.96C660 785.6 641.89 770.48 610 770.48L632.79 905C632.79 905 655.31 915.24 677.8 906.35Z" fill="#F3AB98"/>
<path d="M686.411 895.79C685.27 896.732 684.029 897.547 682.711 898.22" stroke="#592D3D" stroke-width="12" stroke-miterlimit="10" stroke-linecap="square"/>
<path d="M326.109 809.88C319.279 835.45 318.109 869.01 318.369 906.88C338.269 915.42 368.789 904.73 368.789 904.73L386.119 772.49C355.249 772.46 336.849 786.36 326.109 809.88Z" fill="#F3AB98"/>
<path d="M613.762 758.72H559.552V758.82C559.553 763.322 559.07 767.811 558.112 772.21C557.646 774.35 557.065 776.463 556.372 778.54C554.159 784.744 550.763 790.46 546.372 795.37C544.97 796.943 543.467 798.423 541.872 799.8C516.702 818 476.702 819 452.392 799.22C449.773 796.932 447.391 794.386 445.282 791.62C440.903 785.87 437.801 779.253 436.182 772.21C435.708 770.034 435.351 767.834 435.112 765.62C434.862 763.362 434.738 761.092 434.742 758.82V758.72H380.532C377.011 758.723 373.636 760.123 371.148 762.613C368.66 765.103 367.262 768.48 367.262 772V1056.68C367.257 1058.43 367.596 1060.16 368.26 1061.77C368.925 1063.39 369.901 1064.86 371.134 1066.09C372.366 1067.33 373.831 1068.31 375.444 1068.98C377.056 1069.65 378.785 1070 380.532 1070H619.472C622.992 1070 626.367 1068.6 628.856 1066.11C631.344 1063.62 632.742 1060.24 632.742 1056.72V778.6C632.742 766.38 626.852 758.72 613.762 758.72Z" fill="#633749"/>
<path d="M610 758.72C673.54 758.72 683.4 814.72 683.9 891.89C665.3 903.51 634.99 893.2 634.99 893.2L610 758.72Z" fill="#633749"/>
<path d="M632.74 831.87L610 870L621.38 1000H632.99V894.35L650.27 897.24C644.6 825.07 632.74 831.87 632.74 831.87Z" fill="#5E3244"/>
<path d="M386.12 758.72C324.34 758.72 310.29 812.52 309.27 886.38C328.27 906.24 367.27 890.96 367.27 890.96L386.12 758.72Z" fill="#633749"/>
<path d="M367.232 831.87V891L349.922 895.31C355.592 825.19 367.232 831.87 367.232 831.87Z" fill="#5E3244"/>
<path d="M610 758.72C677.41 758.72 688.45 815.01 688.9 892.5C662.7 904.93 634.99 893.2 634.99 893.2" stroke="#592D3D" stroke-width="12" stroke-miterlimit="10" stroke-linecap="square"/>
<path d="M386.119 758.72C319.329 758.72 306.039 813.42 305.359 889.44C325.999 904.22 367.219 891 367.219 891" stroke="#592D3D" stroke-width="12" stroke-miterlimit="10" stroke-linecap="square"/>
<path d="M380.532 1070H497.152C388.002 1070 396.242 838.82 367.262 838.82V1056.68C367.257 1058.43 367.596 1060.16 368.26 1061.77C368.925 1063.39 369.901 1064.86 371.134 1066.09C372.366 1067.33 373.831 1068.31 375.444 1068.98C377.056 1069.65 378.785 1070 380.532 1070Z" fill="#5E3244"/>
<path d="M361.259 860.85C361.069 857.18 361.149 853.51 361.309 849.85C361.469 846.19 361.779 842.5 362.169 838.85C362.369 837.01 362.569 835.18 362.819 833.34C363.069 831.5 363.309 829.67 363.669 827.83C364.378 824.022 365.585 820.324 367.259 816.83C368.934 820.322 370.138 824.021 370.839 827.83C371.209 829.67 371.469 831.5 371.699 833.34C371.929 835.18 372.149 837.01 372.349 838.85C372.729 842.52 373.029 846.19 373.199 849.85C373.369 853.51 373.449 857.19 373.259 860.85H361.259Z" fill="#592D3D"/>
<path d="M632.742 870V878C633.002 912 633.002 947 632.742 980.75C632.742 983.62 632.742 986.47 632.742 989.28V1056.69C632.746 1058.44 632.405 1060.17 631.74 1061.78C631.075 1063.39 630.099 1064.86 628.866 1066.1C627.634 1067.33 626.17 1068.31 624.558 1068.98C622.946 1069.65 621.217 1070 619.472 1070H380.532C377.011 1070 373.636 1068.6 371.148 1066.11C368.659 1063.62 367.262 1060.24 367.262 1056.72V998.52C367.262 996.01 367.262 993.45 367.262 990.87C367.012 956 367.012 921 367.262 885.57V860.85" stroke="#592D3D" stroke-width="12" stroke-miterlimit="10"/>
<path d="M626.74 870C626.55 865.83 626.64 861.65 626.8 857.47C626.96 853.29 627.27 849.12 627.65 844.94C627.85 842.85 628.06 840.76 628.3 838.67C628.54 836.58 628.79 834.5 629.16 832.41C629.848 828.105 631.05 823.899 632.74 819.88C634.428 823.9 635.633 828.106 636.33 832.41C636.69 834.5 636.95 836.59 637.18 838.67C637.41 840.75 637.63 842.85 637.83 844.94C638.21 849.12 638.52 853.29 638.68 857.47C638.84 861.65 638.93 865.83 638.74 870H626.74Z" fill="#592D3D"/>
<path d="M380.531 758.82L613.761 758.72" stroke="#592D3D" stroke-width="12" stroke-miterlimit="10"/>
<path d="M559.552 758.82C559.554 763.322 559.071 767.811 558.112 772.21C557.646 774.35 557.066 776.463 556.372 778.54C554.16 784.744 550.764 790.46 546.372 795.37C544.971 796.943 543.467 798.423 541.872 799.8C516.702 818 476.702 819 452.392 799.22C449.773 796.932 447.391 794.386 445.282 791.62C440.904 785.87 437.802 779.253 436.182 772.21C435.708 770.034 435.351 767.834 435.112 765.62C434.862 763.362 434.739 761.092 434.742 758.82" stroke="#592D3D" stroke-width="12" stroke-miterlimit="10"/>
<path d="M503.399 828.39C497.35 829.607 491.161 829.977 485.009 829.49C478.802 829.054 472.681 827.789 466.809 825.73C460.902 823.705 455.338 820.792 450.309 817.09L448.449 815.68C447.839 815.2 447.249 814.68 446.659 814.16C445.471 813.149 444.358 812.053 443.329 810.88C441.276 808.573 439.473 806.056 437.949 803.37C440.089 805.516 442.338 807.548 444.689 809.46C445.269 809.94 445.859 810.41 446.439 810.86C447.019 811.31 447.669 811.68 448.279 812.1C448.889 812.52 449.499 812.94 450.129 813.33L452.039 814.49C457.141 817.513 462.535 820.012 468.139 821.95C473.755 823.914 479.525 825.402 485.389 826.4C491.354 827.376 497.365 828.041 503.399 828.39Z" fill="#592D3D"/>
<path d="M307.832 892.5C308.969 893.537 310.201 894.464 311.512 895.27" stroke="#592D3D" stroke-width="12" stroke-miterlimit="10" stroke-linecap="square"/>
<path d="M674.699 882.69C672.618 883.935 670.327 884.789 667.939 885.21C665.568 885.676 663.155 885.894 660.739 885.86C658.327 885.813 655.924 885.548 653.559 885.07C652.379 884.86 651.229 884.51 650.069 884.2C648.909 883.89 647.799 883.43 646.699 882.96C647.909 882.96 649.079 883.14 650.259 883.24L653.779 883.53C654.949 883.53 656.109 883.73 657.279 883.74C658.449 883.75 659.599 883.85 660.759 883.86C663.093 883.9 665.426 883.837 667.759 883.67C670.093 883.508 672.412 883.181 674.699 882.69Z" fill="#592D3D"/>
<path d="M566.881 917.83C566.881 908.97 555.781 900.57 538.771 895.36C542.701 878.02 540.951 864.23 533.261 859.81C531.468 858.621 529.326 858.071 527.181 858.25C519.181 858.38 509.871 863.6 499.951 872.87C490.001 863.65 479.001 858.2 472.711 858.36C469.551 858.45 468.341 858.88 466.551 859.92C458.881 864.33 457.171 878.1 461.121 895.39C444.121 900.62 433.121 909 433.121 917.83C433.121 926.66 444.221 935.09 461.231 940.3C457.301 957.64 459.051 971.43 466.741 975.85C468.61 976.902 470.727 977.43 472.871 977.38C480.371 977.38 490.181 972.03 500.111 962.76C510.031 971.98 519.851 977.27 527.351 977.27C529.504 977.317 531.63 976.789 533.511 975.74C541.171 971.32 542.891 957.55 538.931 940.27C555.841 935.06 566.881 926.66 566.881 917.83ZM527.161 864.34C528.238 864.309 529.305 864.553 530.261 865.05C533.971 867.18 535.581 875.28 534.331 885.69C534.031 888.25 533.541 890.95 532.941 893.69C527.24 892.309 521.454 891.307 515.621 890.69C512.149 885.899 508.361 881.346 504.281 877.06C513.161 868.87 521.491 864.35 527.161 864.34ZM475.841 931.79C477.121 933.97 478.431 936.097 479.771 938.17C475.901 937.6 472.161 936.89 468.591 936.02C469.591 932.5 470.851 928.87 472.271 925.25C473.391 927.43 474.561 929.61 475.841 931.79ZM468.511 899.64C472.081 898.8 475.841 898.06 479.741 897.49C478.411 899.59 477.071 901.74 475.821 903.95C474.571 906.16 473.391 908.31 472.271 910.49C470.838 906.938 469.583 903.317 468.511 899.64ZM475.461 917.91C477.151 914.26 479.061 910.6 481.111 907.03C483.161 903.46 485.411 899.86 487.681 896.62C491.741 896.26 495.861 896.07 500.001 896.07C504.141 896.07 508.231 896.26 512.271 896.59C514.531 899.83 516.741 903.3 518.871 906.95C521.001 910.6 522.871 914.15 524.541 917.8C522.821 921.46 520.941 925.11 518.891 928.68C516.841 932.25 514.591 935.85 512.321 939.1C508.261 939.45 504.141 939.64 500.001 939.64C495.861 939.64 491.771 939.45 487.731 939.12C485.471 935.88 483.261 932.42 481.131 928.76C479.001 925.1 477.181 921.56 475.461 917.91ZM524.161 931.71C525.411 929.53 526.581 927.32 527.701 925.14C529.135 928.695 530.39 932.319 531.461 936C527.891 936.87 524.131 937.61 520.231 938.18C521.571 936.07 522.901 933.92 524.161 931.71ZM524.161 903.87C522.911 901.69 521.571 899.56 520.231 897.49C524.111 898.057 527.838 898.773 531.411 899.64C530.411 903.16 529.151 906.79 527.731 910.41C526.581 908.23 525.411 906.05 524.131 903.87H524.161ZM507.501 890.15C505.041 890.05 502.501 889.96 500.001 889.96C497.501 889.96 494.901 890.02 492.421 890.15C494.761 887.109 497.265 884.198 499.921 881.43C502.593 884.207 505.123 887.117 507.501 890.15ZM469.571 865.15C470.535 864.636 471.62 864.39 472.711 864.44C478.351 864.44 486.711 868.94 495.611 877.15C491.553 881.422 487.79 885.966 484.351 890.75C478.51 891.354 472.716 892.357 467.011 893.75C466.381 891.03 465.921 888.38 465.591 885.85C464.311 875.43 465.891 867.33 469.571 865.18V865.15ZM462.701 934.38C460.001 933.53 457.441 932.6 455.071 931.6C445.411 927.48 439.171 922.08 439.171 917.8C439.171 913.52 445.411 908.09 455.071 904C457.411 903 459.971 902.09 462.621 901.25C464.287 906.915 466.335 912.461 468.751 917.85C466.364 923.227 464.343 928.76 462.701 934.41V934.38ZM472.821 971.29C471.75 971.307 470.691 971.056 469.741 970.56C466.031 968.43 464.421 960.33 465.671 949.92C465.971 947.35 466.461 944.66 467.061 941.92C472.761 943.306 478.547 944.308 484.381 944.92C487.851 949.716 491.639 954.273 495.721 958.56C486.831 966.8 478.491 971.32 472.821 971.32V971.29ZM500.051 954.2C497.379 951.419 494.849 948.506 492.471 945.47C494.931 945.58 497.471 945.66 499.971 945.66C502.471 945.66 505.071 945.61 507.551 945.47C505.212 948.524 502.708 951.448 500.051 954.23V954.2ZM530.431 970.45C529.467 970.964 528.383 971.21 527.291 971.16C521.651 971.16 513.291 966.66 504.391 958.45C508.45 954.178 512.212 949.634 515.651 944.85C521.493 944.246 527.286 943.243 532.991 941.85C533.605 944.466 534.079 947.113 534.411 949.78C535.691 960.23 534.111 968.32 530.431 970.48V970.45ZM544.911 931.6C542.561 932.6 540.001 933.5 537.351 934.35C535.683 928.682 533.635 923.133 531.221 917.74C533.594 912.376 535.599 906.857 537.221 901.22C539.921 902.07 542.481 902.99 544.881 904C554.541 908.12 560.781 913.52 560.781 917.8C560.781 922.08 554.561 927.54 544.911 931.63V931.6Z" fill="black" stroke="white" stroke-width="16"/>
<path d="M499.972 930.29C506.853 930.29 512.432 924.712 512.432 917.83C512.432 910.949 506.853 905.37 499.972 905.37C493.09 905.37 487.512 910.949 487.512 917.83C487.512 924.712 493.09 930.29 499.972 930.29Z" fill="black" stroke="white" stroke-width="24"/>
<path d="M566.881 917.83C566.881 908.97 555.781 900.57 538.771 895.36C542.701 878.02 540.951 864.23 533.261 859.81C531.468 858.621 529.326 858.071 527.181 858.25C519.181 858.38 509.871 863.6 499.951 872.87C490.001 863.65 479.001 858.2 472.711 858.36C469.551 858.45 468.341 858.88 466.551 859.92C458.881 864.33 457.171 878.1 461.121 895.39C444.121 900.62 433.121 909 433.121 917.83C433.121 926.66 444.221 935.09 461.231 940.3C457.301 957.64 459.051 971.43 466.741 975.85C468.61 976.902 470.727 977.43 472.871 977.38C480.371 977.38 490.181 972.03 500.111 962.76C510.031 971.98 519.851 977.27 527.351 977.27C529.504 977.317 531.63 976.789 533.511 975.74C541.171 971.32 542.891 957.55 538.931 940.27C555.841 935.06 566.881 926.66 566.881 917.83ZM527.161 864.34C528.238 864.309 529.305 864.553 530.261 865.05C533.971 867.18 535.581 875.28 534.331 885.69C534.031 888.25 533.541 890.95 532.941 893.69C527.24 892.309 521.454 891.307 515.621 890.69C512.149 885.899 508.361 881.346 504.281 877.06C513.161 868.87 521.491 864.35 527.161 864.34ZM475.841 931.79C477.121 933.97 478.431 936.097 479.771 938.17C475.901 937.6 472.161 936.89 468.591 936.02C469.591 932.5 470.851 928.87 472.271 925.25C473.391 927.43 474.561 929.61 475.841 931.79ZM468.511 899.64C472.081 898.8 475.841 898.06 479.741 897.49C478.411 899.59 477.071 901.74 475.821 903.95C474.571 906.16 473.391 908.31 472.271 910.49C470.838 906.938 469.583 903.317 468.511 899.64ZM475.461 917.91C477.151 914.26 479.061 910.6 481.111 907.03C483.161 903.46 485.411 899.86 487.681 896.62C491.741 896.26 495.861 896.07 500.001 896.07C504.141 896.07 508.231 896.26 512.271 896.59C514.531 899.83 516.741 903.3 518.871 906.95C521.001 910.6 522.871 914.15 524.541 917.8C522.821 921.46 520.941 925.11 518.891 928.68C516.841 932.25 514.591 935.85 512.321 939.1C508.261 939.45 504.141 939.64 500.001 939.64C495.861 939.64 491.771 939.45 487.731 939.12C485.471 935.88 483.261 932.42 481.131 928.76C479.001 925.1 477.181 921.56 475.461 917.91ZM524.161 931.71C525.411 929.53 526.581 927.32 527.701 925.14C529.135 928.695 530.39 932.319 531.461 936C527.891 936.87 524.131 937.61 520.231 938.18C521.571 936.07 522.901 933.92 524.161 931.71ZM524.161 903.87C522.911 901.69 521.571 899.56 520.231 897.49C524.111 898.057 527.838 898.773 531.411 899.64C530.411 903.16 529.151 906.79 527.731 910.41C526.581 908.23 525.411 906.05 524.131 903.87H524.161ZM507.501 890.15C505.041 890.05 502.501 889.96 500.001 889.96C497.501 889.96 494.901 890.02 492.421 890.15C494.761 887.109 497.265 884.198 499.921 881.43C502.593 884.207 505.123 887.117 507.501 890.15ZM469.571 865.15C470.535 864.636 471.62 864.39 472.711 864.44C478.351 864.44 486.711 868.94 495.611 877.15C491.553 881.422 487.79 885.966 484.351 890.75C478.51 891.354 472.716 892.357 467.011 893.75C466.381 891.03 465.921 888.38 465.591 885.85C464.311 875.43 465.891 867.33 469.571 865.18V865.15ZM462.701 934.38C460.001 933.53 457.441 932.6 455.071 931.6C445.411 927.48 439.171 922.08 439.171 917.8C439.171 913.52 445.411 908.09 455.071 904C457.411 903 459.971 902.09 462.621 901.25C464.287 906.915 466.335 912.461 468.751 917.85C466.364 923.227 464.343 928.76 462.701 934.41V934.38ZM472.821 971.29C471.75 971.307 470.691 971.056 469.741 970.56C466.031 968.43 464.421 960.33 465.671 949.92C465.971 947.35 466.461 944.66 467.061 941.92C472.761 943.306 478.547 944.308 484.381 944.92C487.851 949.716 491.639 954.273 495.721 958.56C486.831 966.8 478.491 971.32 472.821 971.32V971.29ZM500.051 954.2C497.379 951.419 494.849 948.506 492.471 945.47C494.931 945.58 497.471 945.66 499.971 945.66C502.471 945.66 505.071 945.61 507.551 945.47C505.212 948.524 502.708 951.448 500.051 954.23V954.2ZM530.431 970.45C529.467 970.964 528.383 971.21 527.291 971.16C521.651 971.16 513.291 966.66 504.391 958.45C508.45 954.178 512.212 949.634 515.651 944.85C521.493 944.246 527.286 943.243 532.991 941.85C533.605 944.466 534.079 947.113 534.411 949.78C535.691 960.23 534.111 968.32 530.431 970.48V970.45ZM544.911 931.6C542.561 932.6 540.001 933.5 537.351 934.35C535.683 928.682 533.635 923.133 531.221 917.74C533.594 912.376 535.599 906.857 537.221 901.22C539.921 902.07 542.481 902.99 544.881 904C554.541 908.12 560.781 913.52 560.781 917.8C560.781 922.08 554.561 927.54 544.911 931.63V931.6Z" fill="#61DAFB"/>
<path d="M499.972 930.29C506.853 930.29 512.432 924.712 512.432 917.83C512.432 910.949 506.853 905.37 499.972 905.37C493.09 905.37 487.512 910.949 487.512 917.83C487.512 924.712 493.09 930.29 499.972 930.29Z" fill="#61DAFB"/>
<path opacity="0.1" d="M426.882 961.63C441.357 961.628 455.469 957.095 467.238 948.666C479.006 940.237 487.841 928.335 492.502 914.63C486.585 924.751 478.255 933.249 468.254 939.366C458.254 945.483 446.894 949.028 435.19 949.686C423.485 950.343 411.8 948.093 401.177 943.134C390.554 938.176 381.324 930.664 374.312 921.27L374.262 936C387.002 951.63 405.152 961.63 426.882 961.63Z" fill="black"/>
<path opacity="0.1" d="M573.12 961.63C558.644 961.628 544.532 957.095 532.764 948.666C520.995 940.237 512.161 928.335 507.5 914.63C513.416 924.751 521.747 933.249 531.747 939.366C541.748 945.483 553.108 949.028 564.812 949.686C576.517 950.343 588.202 948.093 598.825 943.134C609.448 938.176 618.677 930.664 625.69 921.27V935.99C613 951.63 594.85 961.63 573.12 961.63Z" fill="black"/>
<path d="M407.002 943.81C396.331 939.827 386.805 933.277 379.267 924.738C371.73 916.198 366.412 905.934 363.784 894.851C361.156 883.768 361.3 872.208 364.202 861.194C367.104 850.179 372.674 840.05 380.422 831.7" fill="#633749"/>
<path d="M406.999 943.81C395.176 941.88 384.258 936.283 375.789 927.81L374.169 926.21C373.639 925.67 373.169 925.08 372.639 924.52C372.109 923.96 371.639 923.37 371.159 922.79C370.652 922.219 370.174 921.621 369.729 921C368.829 919.77 367.919 918.54 367.049 917.28L364.679 913.35C361.688 907.965 359.431 902.204 357.969 896.22C356.61 890.22 356.042 884.068 356.279 877.92C356.551 871.812 357.696 865.774 359.679 859.99C359.939 859.28 360.169 858.56 360.439 857.85L361.319 855.75C361.869 854.35 362.579 853.01 363.229 851.66C364.619 849.003 366.203 846.453 367.969 844.03C368.819 842.82 369.789 841.68 370.719 840.54C371.649 839.4 372.659 838.31 373.719 837.31C375.786 835.244 378.039 833.373 380.449 831.72C374.659 841.72 370.549 851.91 368.789 862.39C367.874 867.541 367.479 872.77 367.609 878C367.802 883.187 368.471 888.346 369.609 893.41C370.842 898.446 372.556 903.352 374.729 908.06C376.951 912.816 379.659 917.33 382.809 921.53C385.996 925.871 389.618 929.876 393.619 933.48C397.82 937.247 402.292 940.7 406.999 943.81Z" fill="#592D3D"/>
<path d="M593.051 943.81C603.718 939.822 613.239 933.267 620.771 924.726C628.303 916.184 633.615 905.918 636.238 894.836C638.861 883.754 638.713 872.196 635.807 861.184C632.902 850.173 627.329 840.046 619.581 831.7" fill="#633749"/>
<path d="M593.051 943.81C597.746 940.711 602.209 937.272 606.401 933.52C610.402 929.916 614.024 925.912 617.211 921.57C620.361 917.371 623.069 912.857 625.291 908.1C627.463 903.392 629.178 898.486 630.411 893.45C631.549 888.386 632.218 883.227 632.411 878.04C632.555 872.791 632.17 867.542 631.261 862.37C629.501 851.89 625.391 841.73 619.601 831.7C622.011 833.353 624.264 835.224 626.331 837.29C627.411 838.29 628.331 839.43 629.331 840.52C630.331 841.61 631.231 842.8 632.081 844.01C633.847 846.433 635.431 848.983 636.821 851.64C637.471 852.99 638.181 854.33 638.731 855.73L639.611 857.83C639.881 858.54 640.111 859.26 640.371 859.97C642.354 865.754 643.499 871.792 643.771 877.9C644.008 884.048 643.44 890.2 642.081 896.2C640.619 902.184 638.362 907.945 635.371 913.33L633.001 917.26C632.131 918.52 631.221 919.75 630.321 920.98C629.876 921.601 629.398 922.199 628.891 922.77C628.401 923.35 627.891 923.93 627.411 924.5C626.931 925.07 626.411 925.65 625.881 926.19L624.261 927.79C615.795 936.271 604.877 941.875 593.051 943.81Z" fill="#592D3D"/>
<path d="M670.061 788.32C672.261 786.107 674.427 783.87 676.561 781.61C721.721 726.9 725.261 669.22 734.431 633.24V619L731.991 619.84C732.821 618.32 733.641 616.84 734.431 615.28C734.371 615.18 730.941 618.66 730.881 618.56C729.296 619.859 727.595 621.01 725.801 622L693.251 633.28C678.785 636.016 664.082 637.296 649.361 637.1C586.361 636.84 586.121 622.23 536.161 617.1L439.671 618.68C413.981 622.52 402.611 630.49 351.671 631.53C307.521 632.43 268.051 621.53 268.051 621.53V634.21C282.051 671.05 272.631 698.64 297.051 744.7C297.051 744.05 297.051 743.39 297.001 742.7C292.611 720.99 297.001 701.13 299.121 693.51C299.331 691.63 299.481 690.59 299.481 690.59V690.52C299.481 690.4 299.481 690.32 299.481 690.32V690.42C299.481 690.56 299.591 690.87 299.701 691.32C299.931 690.6 300.061 690.21 300.061 690.21C300.061 690.21 300.951 695.12 302.601 702.95C306.531 718.43 313.761 745.95 322.051 773.03C322.971 775.46 323.921 777.84 324.891 780.14C324.961 780.35 325.041 780.58 325.121 780.79C353.061 810.67 387.251 836.15 418.261 855.29C421.601 857.29 424.771 859.16 427.741 860.9C424.891 846.574 425.72 831.759 430.151 817.84C430.151 817.84 430.221 818.22 430.361 818.92C430.601 818.15 430.761 817.73 430.761 817.73C430.761 817.73 442.191 865.18 465.281 880.56C465.851 880.8 466.431 881.03 467.011 881.22L466.571 881.38L466.671 881.44C467.251 881.77 467.851 882.09 468.441 882.44C475.392 885.674 482.516 888.521 489.781 890.97C495.191 892.54 499.621 893.36 501.781 893.36C506.531 893.36 533.781 882.75 550.471 844.29C551.571 841.02 552.101 838.97 552.101 838.97L552.381 839.66C552.491 839.39 552.601 839.13 552.701 838.86C558.167 847.946 560.942 858.398 560.701 869C585.983 855.151 610.084 839.248 632.761 821.45V821.34C633.031 820.7 633.291 820.05 633.561 819.4L633.621 819.27L634.431 817.27L635.271 815.19C649.751 779.36 658.851 726.19 658.851 726.19C658.911 726.01 659.131 726.28 659.451 726.93C659.451 726.38 659.451 726.08 659.451 726.08C659.451 726.08 675.721 748.49 670.061 788.32Z" fill="#FEDC58"/>
<path d="M670.061 788.32C672.261 786.107 674.427 783.87 676.561 781.61C721.721 726.9 725.261 669.22 734.431 633.24V619L731.991 619.84C732.821 618.32 733.641 616.84 734.431 615.28C734.371 615.18 730.941 618.66 730.881 618.56C729.296 619.859 727.595 621.01 725.801 622L693.251 633.28C678.785 636.016 664.082 637.296 649.361 637.1C586.361 636.84 586.121 622.23 536.161 617.1L439.671 618.68C413.981 622.52 402.611 630.49 351.671 631.53C307.521 632.43 268.051 621.53 268.051 621.53V634.21C282.051 671.05 272.631 698.64 297.051 744.7C297.051 744.05 297.051 743.39 297.001 742.7C292.611 720.99 297.001 701.13 299.121 693.51C299.331 691.63 299.481 690.59 299.481 690.59V690.52C299.481 690.4 299.481 690.32 299.481 690.32V690.42C299.481 690.56 299.591 690.87 299.701 691.32C299.931 690.6 300.061 690.21 300.061 690.21C300.061 690.21 300.951 695.12 302.601 702.95C306.531 718.43 313.761 745.95 322.051 773.03C322.971 775.46 323.921 777.84 324.891 780.14C324.961 780.35 325.041 780.58 325.121 780.79C353.061 810.67 387.251 836.15 418.261 855.29C421.601 857.29 424.771 859.16 427.741 860.9C424.891 846.574 425.72 831.759 430.151 817.84C430.151 817.84 430.221 818.22 430.361 818.92C430.601 818.15 430.761 817.73 430.761 817.73C430.761 817.73 442.191 865.18 465.281 880.56C465.851 880.8 466.431 881.03 467.011 881.22L466.571 881.38L466.671 881.44C467.251 881.77 467.851 882.09 468.441 882.44C475.392 885.674 482.516 888.521 489.781 890.97C495.191 892.54 499.621 893.36 501.781 893.36C506.531 893.36 533.781 882.75 550.471 844.29C551.571 841.02 552.101 838.97 552.101 838.97L552.381 839.66C552.491 839.39 552.601 839.13 552.701 838.86C558.167 847.946 560.942 858.398 560.701 869C585.983 855.151 610.084 839.248 632.761 821.45V821.34C633.031 820.7 633.291 820.05 633.561 819.4L633.621 819.27L634.431 817.27L635.271 815.19C649.751 779.36 658.851 726.19 658.851 726.19C658.911 726.01 659.131 726.28 659.451 726.93C659.451 726.38 659.451 726.08 659.451 726.08C659.451 726.08 675.721 748.49 670.061 788.32Z" fill="#FEDC58"/>
<path d="M670.061 788.32C672.261 786.107 674.427 783.87 676.561 781.61C721.721 726.9 725.261 669.22 734.431 633.24V619L731.991 619.84C732.821 618.32 733.641 616.84 734.431 615.28C734.371 615.18 730.941 618.66 730.881 618.56C729.296 619.859 727.595 621.01 725.801 622L693.251 633.28C678.785 636.016 664.082 637.296 649.361 637.1C586.361 636.84 571.061 617.41 536.161 617.1C501.261 616.79 459.211 615.87 439.671 618.68C420.131 621.49 402.611 630.49 351.671 631.53C307.521 632.43 268.051 621.53 268.051 621.53V634.21C282.051 671.05 272.631 698.64 297.051 744.7C297.051 744.05 297.051 743.39 297.001 742.7C292.611 720.99 297.001 701.13 299.121 693.51C299.331 691.63 299.481 690.59 299.481 690.59V690.52C299.481 690.4 299.481 690.32 299.481 690.32V690.42C299.481 690.56 299.591 690.87 299.701 691.32C299.931 690.6 300.061 690.21 300.061 690.21C300.061 690.21 300.951 695.12 302.601 702.95C306.531 718.43 313.761 745.95 322.051 773.03C322.971 775.46 323.921 777.84 324.891 780.14C324.961 780.35 325.041 780.58 325.121 780.79C353.061 810.67 387.251 836.15 418.261 855.29C421.601 857.29 424.771 859.16 427.741 860.9C424.891 846.574 425.72 831.759 430.151 817.84C430.151 817.84 430.221 818.22 430.361 818.92C430.601 818.15 430.761 817.73 430.761 817.73C430.761 817.73 442.191 865.18 465.281 880.56C465.851 880.8 466.431 881.03 467.011 881.22L466.571 881.38L466.671 881.44C467.251 881.77 467.851 882.09 468.441 882.44C475.392 885.674 482.516 888.521 489.781 890.97C495.191 892.54 499.621 893.36 501.781 893.36C506.531 893.36 533.781 882.75 550.471 844.29C551.571 841.02 552.101 838.97 552.101 838.97L552.381 839.66C552.491 839.39 552.601 839.13 552.701 838.86C558.167 847.946 560.942 858.398 560.701 869C585.983 855.151 610.084 839.248 632.761 821.45V821.34C633.031 820.7 633.291 820.05 633.561 819.4L633.621 819.27L634.431 817.27L635.271 815.19C649.751 779.36 658.851 726.19 658.851 726.19C658.911 726.01 659.131 726.28 659.451 726.93C659.451 726.38 659.451 726.08 659.451 726.08C659.451 726.08 675.721 748.49 670.061 788.32Z" fill="#FEDC58"/>
<path d="M343.499 706.91C347.326 710.318 352.176 712.358 357.289 712.71C342.999 701.34 337.779 690.32 335.999 685.36C330.813 667.565 327.463 649.287 325.999 630.81C306.47 629.426 287.103 626.304 268.129 621.48V634.16C282.129 671 272.709 698.59 297.129 744.65C297.129 744 297.129 743.34 297.079 742.65C292.689 720.94 297.079 701.08 299.199 693.46C299.409 691.58 299.559 690.54 299.559 690.54V690.47C299.559 690.35 299.559 690.27 299.559 690.27V690.37C299.559 690.51 299.669 690.82 299.779 691.27C300.009 690.55 300.139 690.16 300.139 690.16C300.139 690.16 301.029 695.07 302.679 702.9C306.609 718.38 313.839 745.9 322.129 772.98C323.049 775.41 323.999 777.79 324.969 780.09C325.039 780.3 325.119 780.53 325.199 780.74C353.139 810.62 387.329 836.1 418.339 855.24C421.679 857.24 424.849 859.11 427.819 860.85C424.969 846.524 425.799 831.709 430.229 817.79C430.229 817.79 430.299 818.17 430.439 818.87C430.679 818.1 430.839 817.68 430.839 817.68C430.839 817.68 442.269 865.13 465.359 880.51C465.929 880.75 466.509 880.98 467.089 881.17L466.649 881.33L466.749 881.39C467.329 881.72 467.929 882.04 468.519 882.39C475.47 885.624 482.594 888.471 489.859 890.92C495.269 892.49 499.699 893.31 501.859 893.31C505.389 893.31 521.369 887.43 536.189 868.59C466.939 846.06 380.779 800 343.499 706.91Z" fill="#EDBF2E"/>
<path d="M433.872 816.78C433.872 816.78 443.362 825.78 463.162 820.87C461.692 824.42 457.232 826.27 457.232 826.27C457.232 826.27 463.402 834.4 476.292 834.02C476.292 834.02 468.562 838.82 460.762 835.67C454.68 834.781 448.555 834.224 442.412 834L428.902 824.62L433.872 816.78Z" fill="#EDBF2E"/>
<path d="M351.699 631.52C349.939 631.84 348.179 632.12 346.419 632.36C345.529 632.47 344.649 632.61 343.769 632.71L341.109 632.95L335.789 633.33C334.009 633.41 332.229 633.42 330.459 633.47C326.899 633.54 323.349 633.4 319.789 633.27C316.229 633.14 312.689 632.9 309.149 632.56C305.609 632.22 302.079 631.86 298.539 631.46C294.999 631.06 291.489 630.46 287.979 629.9C280.901 628.76 273.89 627.235 266.979 625.33L263.129 624.25L265.229 616.68L269.109 617.62C275.719 619.23 282.579 620.75 289.379 622.11C296.179 623.47 303.059 624.75 309.949 625.83C313.389 626.42 316.839 626.83 320.299 627.39C323.759 627.95 327.219 628.39 330.689 628.7C337.669 629.65 344.639 630.36 351.699 631.52Z" fill="#592D3D"/>
<path d="M669.312 789.07C679.572 778.81 678.602 779.44 687.102 768.13C685.602 733.65 657.102 714.42 657.102 714.42L659.002 726.08C659.842 726.24 666.912 744.55 666.562 772.16L669.312 789.07Z" fill="#EDBF2E"/>
<path d="M575.361 859.87C569.641 834.97 552.941 830.72 552.941 830.72L556.151 850.17C558.096 856.402 559.402 862.814 560.051 869.31C565.051 866.59 570.211 863.65 575.501 860.53L575.361 859.87Z" fill="#EDBF2E"/>
<path d="M340.091 735.62C341.491 742.568 343.703 749.328 346.681 755.76C349.596 762.088 353.048 768.153 357.001 773.89L360.091 778.07C360.621 778.75 361.091 779.49 361.651 780.14L363.311 782.14C364.441 783.45 365.501 784.82 366.661 786.14L370.221 789.92C370.821 790.54 371.381 791.2 371.991 791.81L373.891 793.59L377.661 797.17C380.241 799.49 382.991 801.62 385.601 803.92L379.321 807.24L379.261 803.24C379.311 801.92 379.331 800.6 379.461 799.24C379.591 797.88 379.691 796.59 379.921 795.24C380.031 794.58 380.101 793.92 380.241 793.24L380.671 791.24C381.273 788.611 382.117 786.044 383.191 783.57C383.725 782.347 384.33 781.155 385.001 780C385.341 779.4 385.731 778.82 386.131 778.23C386.341 777.94 386.531 777.66 386.771 777.36C387.011 777.06 387.191 776.82 387.551 776.41L392.011 771.35L392.571 777.9C392.671 778.99 392.871 780.3 393.101 781.51C393.331 782.72 393.611 783.97 393.941 785.19C394.588 787.632 395.427 790.02 396.451 792.33C397.517 794.644 398.824 796.84 400.351 798.88C401.971 800.932 403.862 802.755 405.971 804.3C403.422 803.353 401.054 801.977 398.971 800.23C396.859 798.428 394.996 796.353 393.431 794.06C391.868 791.753 390.528 789.302 389.431 786.74C388.891 785.46 388.431 784.16 387.971 782.83C387.513 781.468 387.142 780.079 386.861 778.67L391.861 780.16C391.861 780.24 391.641 780.51 391.521 780.71C391.401 780.91 391.261 781.17 391.131 781.4C390.881 781.88 390.631 782.4 390.401 782.88C389.934 783.908 389.52 784.96 389.161 786.03C388.448 788.215 387.907 790.452 387.541 792.72C387.178 795.017 386.961 797.335 386.891 799.66C386.831 800.82 386.891 802 386.891 803.17L387.051 806.7L387.451 815.34L380.771 810.02C379.331 808.87 377.901 807.73 376.481 806.56L374.341 804.81C373.641 804.22 372.901 803.67 372.251 803.02L368.251 799.19L366.251 797.28C365.611 796.61 365.001 795.92 364.391 795.23L360.721 791.08C359.511 789.69 358.461 788.16 357.341 786.69C355.124 783.737 353.065 780.67 351.171 777.5C347.489 771.105 344.591 764.289 342.541 757.2C340.611 750.19 339.431 742.84 340.091 735.62Z" fill="#592D3D"/>
<path d="M638.779 724.34C639.289 724.809 639.704 725.373 639.999 726C640.32 726.628 640.6 727.276 640.839 727.94C641.31 729.268 641.697 730.624 641.999 732C642.558 734.744 642.919 737.524 643.079 740.32C643.394 745.895 643.214 751.487 642.539 757.03C641.215 768.189 638.18 779.076 633.539 789.31C628.915 799.663 622.389 809.056 614.299 817C606.294 824.867 596.516 830.697 585.789 834C594.743 828.084 602.796 820.907 609.699 812.69C616.374 804.566 621.94 795.591 626.249 786C630.611 776.364 633.992 766.314 636.339 756C637.553 750.8 638.491 745.539 639.149 740.24C639.469 737.59 639.689 734.92 639.779 732.24C639.832 730.906 639.805 729.571 639.699 728.24C639.659 727.568 639.572 726.9 639.439 726.24C639.333 725.573 639.109 724.93 638.779 724.34Z" fill="white"/>
<path d="M262.512 621.57C284.752 665.47 269.732 693.95 297.692 745.87C290.692 716.87 300.122 690.19 300.122 690.19C300.122 690.19 310.002 744.78 325.002 780.12C332.282 803.58 394.852 841.52 428.552 861.29C425.58 846.804 426.379 831.798 430.872 817.71C430.872 817.71 442.762 867.07 466.782 881.42C480.212 889 496.932 893.31 501.912 893.31C506.892 893.31 536.442 881.73 552.832 838.81C558.363 848.063 561.106 858.716 560.732 869.49C582.912 857.49 614.122 843.81 633.182 821.84C659.522 787.15 659.522 726 659.522 726C659.522 726 676.002 748.85 669.932 789.3C731.692 721 724.272 646.16 741.352 613.73" stroke="#592D3D" stroke-width="12" stroke-miterlimit="10"/>
<path d="M734.38 616.77C734.663 617.284 735.06 617.725 735.54 618.06C736.175 618.495 736.921 618.738 737.69 618.76C738.269 618.776 738.844 618.66 739.37 618.42H739.281L739.081 618.53L738.6 618.77L737.6 619.28L735.6 620.28C734.267 620.947 732.934 621.614 731.6 622.28C728.91 623.6 726.19 624.85 723.47 626.09C720.75 627.33 717.971 628.5 715.201 629.66C712.431 630.82 709.6 631.89 706.73 632.92C705.29 633.43 703.841 633.92 702.341 634.35C700.783 634.831 699.196 635.216 697.591 635.5C697.121 635.58 696.78 635.61 696.41 635.66L695.29 635.79C694.55 635.88 693.81 635.95 693.06 636.02C691.57 636.16 690.06 636.32 688.57 636.42C682.542 636.917 676.478 636.773 670.48 635.99C676.34 634.41 682.1 633.1 687.85 631.7L696.44 629.7C697.735 629.32 699.007 628.866 700.25 628.34C701.56 627.82 702.88 627.2 704.25 626.62C706.9 625.43 709.54 624.15 712.18 622.85C714.82 621.55 717.47 620.24 720.11 618.92L728.05 614.92L732.05 612.92L734.05 611.92L735.05 611.44L735.581 611.19L735.88 611.06L736.04 610.98H736.091C736.999 610.567 738.026 610.499 738.981 610.788C739.936 611.077 740.753 611.703 741.281 612.55L743.41 615.93L736.35 620.12L734.38 616.77Z" fill="#592D3D"/>
<path d="M341.062 590.04C352.637 590.04 362.022 580.656 362.022 569.08C362.022 557.504 352.637 548.12 341.062 548.12C329.486 548.12 320.102 557.504 320.102 569.08C320.102 580.656 329.486 590.04 341.062 590.04Z" fill="#592D3D"/>
<path d="M340.932 586C342.722 585.9 344.722 585.74 346.632 585.54C348.542 585.34 350.492 585.1 352.422 584.8C354.352 584.5 356.292 584.15 358.232 583.8C360.172 583.45 362.152 583.12 364.232 582.97C362.599 584.227 360.815 585.275 358.922 586.09C357.039 586.877 355.109 587.545 353.142 588.09C351.172 588.665 349.168 589.119 347.142 589.45C345.082 589.81 342.994 589.991 340.902 589.99L340.932 586Z" fill="#592D3D"/>
<path d="M661.773 590.04C673.348 590.04 682.732 580.656 682.732 569.08C682.732 557.504 673.348 548.12 661.773 548.12C650.197 548.12 640.812 557.504 640.812 569.08C640.812 580.656 650.197 590.04 661.773 590.04Z" fill="#592D3D"/>
<path d="M661.77 586C663.57 585.9 665.56 585.74 667.47 585.54C669.38 585.34 671.34 585.1 673.27 584.8C675.2 584.5 677.14 584.15 679.08 583.8C681.02 583.45 683 583.12 685.08 582.97C683.445 584.225 681.662 585.273 679.77 586.09C677.887 586.877 675.957 587.545 673.99 588.09C672.019 588.664 670.016 589.118 667.99 589.45C665.929 589.81 663.842 589.991 661.75 589.99L661.77 586Z" fill="#592D3D"/>
<path d="M446.66 606.02H542.53" stroke="#592D3D" stroke-width="12" stroke-miterlimit="10" stroke-linecap="round"/>
<path d="M729.47 414.02H290.23V478.17H729.47V414.02Z" fill="#F3AB98"/>
<path d="M710.001 667.66C706.861 671.54 703.624 675.33 700.291 679.03C697.791 681.8 702.871 677.91 710.001 667.66ZM725.001 351.11C694.501 296.7 641.501 259.24 580.221 242L573.871 240.29C551.171 234.01 527.251 233.29 502.551 233.29C475.861 233.29 450.091 236.03 425.781 243.29L421.521 244.56C335.161 273.62 263.781 346.74 245.061 429.8C213.001 556.34 262.891 634 307.171 681.6C311.541 686.3 249.241 579.75 289.751 465.6C297.481 465.31 309.991 465.09 325.941 464.93L341.441 414.32L358.881 464.7C386.281 464.57 418.761 464.55 452.761 464.58L465.081 412.22L479.001 464.6C553.371 464.74 630.441 465.12 674.281 465.37L687.481 413.2L702.481 465.53L710.691 465.58C760.781 572 728.501 641.13 710.001 667.66C748.445 620.247 769.386 561.04 769.301 500C769.301 413.58 725.001 351.11 725.001 351.11Z" fill="#FEDC58"/>
<path d="M325.142 464.92C326.042 407.07 345.022 338.49 391.362 257.48C388.649 258.733 385.962 260.027 383.302 261.36L382.712 261.65C381.492 262.26 380.272 262.89 379.062 263.53L378.062 264.06C374.302 266.06 370.592 268.137 366.932 270.29L366.032 270.82C364.872 271.51 363.722 272.21 362.572 272.92L361.712 273.46C358.132 275.693 354.612 278.003 351.152 280.39L350.072 281.14C348.992 281.9 347.912 282.66 346.842 283.43L346.192 283.9C344.012 285.493 341.855 287.107 339.722 288.74L339.102 289.22C338.102 290 337.102 290.8 336.102 291.61L334.922 292.55C333.922 293.36 332.922 294.17 331.922 295C329.812 296.75 327.742 298.55 325.682 300.37L324.542 301.37L321.852 303.82L320.532 305C317.685 307.667 314.895 310.39 312.162 313.17L310.792 314.58C309.992 315.4 309.202 316.22 308.422 317.05L307.052 318.53C305.685 320.023 304.335 321.513 303.002 323C302.542 323.51 302.082 324 301.632 324.54C300.922 325.35 300.222 326.17 299.522 326.99L298.002 328.8C297.322 329.61 296.642 330.42 296.002 331.24C295.462 331.9 294.932 332.57 294.392 333.24C293.332 334.57 292.282 335.9 291.242 337.24C290.692 337.94 290.152 338.64 289.622 339.35C289.092 340.06 288.422 340.94 287.832 341.75L286.242 343.93C285.682 344.71 285.112 345.48 284.562 346.26C283.622 347.6 282.682 348.95 281.762 350.31C281.262 351.04 280.762 351.79 280.282 352.53C279.802 353.27 279.172 354.19 278.632 355.03C278.092 355.87 277.632 356.57 277.152 357.34C276.672 358.11 276.022 359.14 275.462 360.05C275.032 360.74 274.602 361.43 274.182 362.12C273.302 363.58 272.435 365.047 271.582 366.52C271.162 367.24 270.762 367.96 270.352 368.68C269.812 369.63 269.272 370.59 268.742 371.55C268.342 372.28 267.942 373.01 267.552 373.74C266.912 374.93 266.282 376.13 265.662 377.33C265.252 378.11 264.852 378.89 264.452 379.67C263.812 380.95 263.172 382.22 262.552 383.51C262.212 384.2 261.882 384.9 261.552 385.6C261.032 386.69 260.552 387.79 260.012 388.89L259.102 390.89C258.362 392.537 257.639 394.203 256.932 395.89C256.712 396.41 256.502 396.94 256.282 397.46C255.752 398.73 255.282 400 254.722 401.28C254.452 401.95 254.192 402.62 253.932 403.28C253.442 404.54 252.932 405.81 252.482 407.08L251.872 408.73C251.205 410.483 250.585 412.237 250.012 413.99L249.452 415.69C249.012 417.023 248.582 418.357 248.162 419.69C247.962 420.32 247.762 420.96 247.572 421.6C247.092 423.14 246.632 424.683 246.192 426.23C246.092 426.56 245.992 426.89 245.902 427.23C245.382 429.07 244.882 430.917 244.402 432.77L243.952 434.55C243.762 435.29 243.582 436.04 243.402 436.79C241.842 443.48 240.522 450.02 239.402 456.42C239.302 457.08 239.182 457.73 239.082 458.42L238.842 459.94C238.542 461.893 238.269 463.853 238.022 465.82C237.962 466.25 237.912 466.69 237.862 467.12C237.662 468.71 237.482 470.31 237.312 471.91L237.132 473.72C236.962 475.4 236.812 477.09 236.682 478.78L236.592 479.78C236.439 481.78 236.312 483.797 236.212 485.83C236.212 486.36 236.162 486.9 236.132 487.43C236.059 489.003 235.999 490.573 235.952 492.14C235.952 492.73 235.952 493.32 235.902 493.91C235.902 495.96 235.832 498.02 235.832 500.08V500.18C235.832 502.4 235.832 504.6 235.912 506.8C235.912 507.56 235.972 508.32 235.992 509.08C236.042 510.55 236.092 512.02 236.162 513.49C236.212 514.38 236.272 515.26 236.322 516.15C236.402 517.48 236.482 518.81 236.572 520.15L236.812 522.98C236.922 524.24 237.022 525.5 237.152 526.75C237.242 527.75 237.362 528.69 237.462 529.66C237.602 530.87 237.732 532.09 237.882 533.3C238.002 534.3 238.142 535.3 238.272 536.25C238.432 537.43 238.602 538.62 238.772 539.8C238.922 540.8 239.082 541.8 239.242 542.8C239.432 543.96 239.612 545.13 239.822 546.29C239.992 547.29 240.172 548.29 240.362 549.29C240.572 550.44 240.792 551.59 241.022 552.73C241.252 553.87 241.422 554.73 241.632 555.73C241.872 556.87 242.112 558 242.372 559.13C242.632 560.26 242.822 561.13 243.052 562.06C243.322 563.19 243.592 564.31 243.872 565.42C244.152 566.53 244.362 567.37 244.622 568.34C244.882 569.31 245.212 570.56 245.522 571.67C245.782 572.67 246.052 573.59 246.332 574.54C246.652 575.65 246.982 576.75 247.332 577.85C247.682 578.95 247.902 579.74 248.202 580.69C248.502 581.64 248.912 582.88 249.272 583.97C249.582 584.9 249.882 585.84 250.202 586.77C250.582 587.86 250.962 588.95 251.352 590.04L252.352 592.78C252.762 593.87 253.182 594.96 253.602 596.05C253.942 596.94 254.282 597.84 254.602 598.73C255.042 599.82 255.492 600.92 255.942 602.01C256.302 602.87 256.652 603.74 257.022 604.6C257.502 605.72 258.022 606.82 258.482 607.93C258.842 608.76 259.202 609.58 259.572 610.4C260.092 611.56 260.642 612.7 261.182 613.84C261.542 614.61 261.892 615.38 262.262 616.14C262.862 617.4 263.492 618.64 264.122 619.89L265.072 621.79C266.992 625.53 268.992 629.22 271.072 632.86C271.432 633.48 271.802 634.09 272.162 634.7C272.862 635.9 273.552 637.1 274.272 638.28C274.712 639 275.162 639.7 275.602 640.42C276.262 641.49 276.922 642.56 277.602 643.61C278.082 644.37 278.602 645.11 279.072 645.85C279.722 646.85 280.382 647.85 281.072 648.85C281.582 649.61 282.072 650.37 282.632 651.13C283.292 652.13 283.952 653.05 284.632 654.01C285.172 654.78 285.732 655.54 286.282 656.31C286.832 657.08 287.622 658.16 288.282 659.08C288.942 660 289.432 660.61 290.002 661.37L292.072 664.07C292.662 664.83 293.262 665.58 293.862 666.33C294.462 667.08 295.272 668.09 295.982 668.96C296.692 669.83 297.212 670.45 297.832 671.19C298.452 671.93 299.272 672.91 300.002 673.76L301.912 675.96L304.132 678.46C304.782 679.19 305.442 679.9 306.132 680.62C306.532 681.06 306.942 681.49 307.352 681.93C309.722 683.3 249.872 578.24 289.782 465.78C297.342 465.29 309.572 465.08 325.142 464.92Z" fill="#EDBF2E"/>
<path d="M420.82 134.59C423.577 126.683 427.699 119.322 433 112.84C434.37 111.25 435.72 109.63 437.16 108.1C438.6 106.57 440.16 105.1 441.69 103.69C443.22 102.28 444.9 100.96 446.57 99.6901C448.24 98.4201 449.98 97.1901 451.74 96.0401C453.5 94.8901 455.34 93.8301 457.21 92.8501L460.03 91.4201C460.96 90.9217 461.915 90.4711 462.89 90.0701C464.89 89.3101 466.78 88.4501 468.78 87.7801C470.78 87.1101 472.78 86.4601 474.78 85.9701C482.888 83.8623 491.3 83.1855 499.64 83.9701C491.482 84.7561 483.434 86.4327 475.64 88.9701C474.64 89.2301 473.74 89.6701 472.79 89.9701L469.94 90.9701C468.06 91.7001 466.25 92.6201 464.4 93.4201C462.55 94.2201 460.82 95.2701 459.02 96.1901C457.22 97.1101 455.58 98.2801 453.85 99.3101C452.12 100.34 450.52 101.59 448.85 102.72C447.18 103.85 445.7 105.24 444.09 106.47C442.48 107.7 441.09 109.15 439.56 110.47L435.28 114.78C429.74 120.826 424.89 127.47 420.82 134.59Z" fill="white"/>
<path d="M520.11 249.17C505.866 249.987 491.682 251.633 477.63 254.1C474.14 254.78 470.63 255.52 467.19 256.16C463.75 256.8 460.29 257.77 456.84 258.57L446.57 261.29C443.18 262.29 439.81 263.37 436.43 264.4C422.945 268.748 409.772 274.006 397 280.14C384.164 286.369 371.724 293.382 359.75 301.14C370.414 291.409 382.188 282.971 394.83 276C407.476 268.928 420.795 263.133 434.59 258.7C438.06 257.7 441.52 256.62 445.01 255.65C448.5 254.68 452.01 253.83 455.55 253.06C459.09 252.29 462.65 251.65 466.21 251.06C469.77 250.47 473.36 249.98 476.95 249.54C491.276 247.772 505.756 247.648 520.11 249.17Z" fill="white"/>
<path d="M529.832 233.83C534.892 232.62 540.07 231.976 545.272 231.91C547.832 231.85 550.382 231.91 552.942 232.04C555.502 232.17 558.062 232.34 560.622 232.56C565.776 233.007 570.9 233.741 575.972 234.76C581.106 235.757 586.15 237.176 591.052 239L587.162 250.35C582.542 248.97 577.912 247.57 573.212 246.28C568.512 244.99 563.762 243.77 558.962 242.57L551.712 240.81C549.282 240.24 546.842 239.66 544.412 239C539.405 237.723 534.525 235.992 529.832 233.83Z" fill="#592D3D"/>
<path d="M710.001 667.66C706.861 671.54 703.624 675.33 700.291 679.03C697.791 681.8 702.871 677.91 710.001 667.66ZM710.001 667.66C728.501 641.13 760.781 572 710.691 465.58L702.481 465.53L687.481 413.2L674.281 465.37C630.441 465.12 553.371 464.74 479.001 464.6L465.081 412.22L452.761 464.58C418.761 464.55 386.281 464.57 358.881 464.7L341.441 414.32L325.941 464.93C309.991 465.09 297.481 465.31 289.751 465.6C249.241 579.75 311.541 686.3 307.171 681.6C262.891 634 213.001 556.34 245.061 429.8C263.781 346.74 335.161 273.62 421.521 244.56L425.781 243.29C450.091 236.03 475.861 233.29 502.551 233.29C527.251 233.29 551.171 234.01 573.871 240.29L580.221 242C641.501 259.24 694.501 296.7 725.001 351.11C725.001 351.11 769.301 413.58 769.301 500C769.386 561.04 748.445 620.247 710.001 667.66Z" stroke="#592D3D" stroke-width="12" stroke-miterlimit="10"/>
<path d="M284.48 462.85C284.66 462.1 284.81 461.53 285.01 460.91C285.21 460.29 285.41 459.71 285.63 459.13C286.09 457.96 286.63 456.82 287.14 455.71C288.256 453.474 289.544 451.328 290.99 449.29C292.42 447.214 294.055 445.288 295.87 443.54C297.849 441.665 300.25 440.293 302.87 439.54C302.902 442.126 302.61 444.706 302 447.22C301.72 448.36 301.41 449.47 301.07 450.54L300.07 453.79C299.404 455.943 298.737 458.073 298.07 460.18C297.74 461.24 297.39 462.27 297.07 463.31C296.9 463.82 296.7 464.31 296.51 464.84C296.32 465.37 296.12 465.84 295.95 466.24L284.48 462.85Z" fill="#592D3D"/>
<path d="M710.68 459.58C712.754 459.415 714.839 459.435 716.91 459.64C719.003 459.819 721.086 460.106 723.15 460.5C724.15 460.7 725.23 460.9 726.27 461.14C727.323 461.361 728.362 461.649 729.38 462C731.674 462.774 733.794 463.99 735.62 465.58C733.791 467.169 731.672 468.388 729.38 469.17C728.362 469.518 727.323 469.802 726.27 470.02C725.27 470.27 724.19 470.47 723.15 470.67C721.07 471.057 718.99 471.343 716.91 471.53C714.839 471.732 712.754 471.749 710.68 471.58V459.58Z" fill="#592D3D"/>
<path d="M444.84 452.07C445.079 447.297 445.576 442.54 446.33 437.82C447.05 433.12 447.93 428.45 448.94 423.82C449.95 419.19 451.09 414.57 452.38 409.99C453.672 405.38 455.215 400.843 457 396.4C456.759 401.174 456.258 405.931 455.5 410.65C454.78 415.35 453.91 420.017 452.89 424.65C451.87 429.283 450.723 433.893 449.45 438.48C448.152 443.088 446.613 447.624 444.84 452.07Z" fill="white"/>
<path d="M668 452.07C668.244 447.297 668.741 442.54 669.49 437.82C670.217 433.12 671.087 428.453 672.1 423.82C673.113 419.187 674.243 414.58 675.49 410C676.767 405.394 678.292 400.861 680.06 396.42C679.822 401.194 679.325 405.951 678.57 410.67C677.837 415.37 676.967 420.037 675.96 424.67C674.96 429.31 673.8 433.92 672.51 438.5C671.248 443.1 669.743 447.63 668 452.07Z" fill="white"/>
<path d="M603.101 452.29C614.145 449.476 625.331 447.253 636.611 445.63L634.001 446C647.172 444.081 660.538 443.92 673.751 445.52L671.091 445.16C674.371 445.61 677.631 446.16 680.911 446.57L678.251 446.22C688.204 447.586 698.054 449.624 707.731 452.32C712.731 453.72 718.841 450.6 720.031 445.32C720.685 442.762 720.321 440.051 719.015 437.757C717.709 435.462 715.564 433.764 713.031 433.02C701.687 429.913 690.129 427.647 678.451 426.24L681.101 426.6C670.073 424.642 658.852 423.988 647.671 424.65C636.545 425.382 625.484 426.899 614.571 429.19C608.961 430.33 603.381 431.63 597.811 433C592.731 434.25 589.201 440.26 590.811 445.3C591.56 447.83 593.259 449.972 595.552 451.277C597.845 452.582 600.554 452.949 603.111 452.3L603.101 452.29Z" fill="#592D3D"/>
<path d="M261.262 502.22L275.392 500.74L309.062 497.22L350.002 492.93L385.182 489.24C390.902 488.65 396.622 488.07 402.342 487.45H402.582C405.312 487.17 407.652 486.53 409.652 484.52C411.527 482.645 412.58 480.102 412.58 477.45C412.58 474.799 411.527 472.255 409.652 470.38C407.822 468.69 405.172 467.18 402.582 467.45L388.452 468.93L354.782 472.46L313.782 476.75L278.602 480.43C272.882 481.03 267.162 481.61 261.442 482.23H261.202C258.472 482.52 256.132 483.16 254.132 485.16C253.202 486.089 252.465 487.192 251.961 488.406C251.458 489.62 251.199 490.921 251.199 492.235C251.199 493.549 251.458 494.851 251.961 496.065C252.465 497.279 253.202 498.381 254.132 499.31C255.962 500.99 258.612 502.51 261.202 502.23L261.262 502.22Z" fill="#592D3D"/>
<path d="M491.441 204.62C517.663 204.62 538.921 183.363 538.921 157.14C538.921 130.918 517.663 109.66 491.441 109.66C465.218 109.66 443.961 130.918 443.961 157.14C443.961 183.363 465.218 204.62 491.441 204.62Z" fill="#85C5E5"/>
<path d="M491.441 204.62C498.512 204.623 505.494 203.047 511.877 200.006C518.261 196.965 523.884 192.537 528.337 187.044C532.79 181.551 535.959 175.133 537.614 168.259C539.269 161.385 539.367 154.227 537.901 147.31C507.121 142.54 475.201 145.31 444.131 153.31C444.031 154.57 443.961 155.84 443.961 157.13C443.96 163.366 445.187 169.541 447.572 175.303C449.958 181.065 453.455 186.3 457.864 190.71C462.273 195.12 467.508 198.618 473.269 201.005C479.03 203.392 485.205 204.62 491.441 204.62Z" fill="#67B7D6"/>
<path d="M491.441 204.62C517.663 204.62 538.921 183.363 538.921 157.14C538.921 130.918 517.663 109.66 491.441 109.66C465.218 109.66 443.961 130.918 443.961 157.14C443.961 183.363 465.218 204.62 491.441 204.62Z" stroke="#592D3D" stroke-width="12" stroke-miterlimit="10"/>
<path d="M240.258 423.13C240.246 403.777 242.44 384.486 246.798 365.63C247.658 361.93 248.595 358.264 249.608 354.63C252.508 322.33 269.608 295.69 292.468 271.9C297.228 268.09 298.178 259.53 302.938 254.77C319.118 240.5 333.388 226.22 351.468 214.77C425.688 167.19 523.698 141.5 602.678 185.27C618.848 193.83 636.928 198.59 650.248 210.01C675.948 231.89 694.018 257.59 719.718 278.52C742.548 297.52 746.358 328 754.458 354.59C755.478 358.217 756.415 361.884 757.268 365.59C761.626 384.446 763.82 403.737 763.808 423.09L240.258 423.13Z" fill="#85C5E5"/>
<path d="M246.798 365.63C242.44 384.486 240.246 403.777 240.258 423.13H323.258C321.698 342.47 300.998 275.11 405.998 193C330.678 221.59 262.048 284.38 246.798 365.63Z" fill="#67B7D6"/>
<path d="M258.178 321.12C253.562 331.765 250.67 343.077 249.608 354.63C248.595 358.257 247.658 361.924 246.798 365.63C242.44 384.486 240.246 403.777 240.258 423.13H440.308C482.774 419.845 525.431 419.845 567.898 423.13H763.808C763.82 403.777 761.626 384.486 757.268 365.63C756.408 361.93 755.471 358.264 754.458 354.63C750.998 343.26 748.308 331.19 744.598 319.63C582.708 259.73 418.998 261 258.178 321.12Z" fill="#67B7D6"/>
<path d="M240.258 423.13C240.246 403.777 242.44 384.486 246.798 365.63C247.658 361.93 248.595 358.264 249.608 354.63C252.508 322.33 269.608 295.69 292.468 271.9C297.228 268.09 298.178 259.53 302.938 254.77C319.118 240.5 333.388 226.22 351.468 214.77C425.688 167.19 523.698 141.5 602.678 185.27C618.848 193.83 636.928 198.59 650.248 210.01C675.948 231.89 694.018 257.59 719.718 278.52C742.548 297.52 746.358 328 754.458 354.59C755.478 358.217 756.415 361.884 757.268 365.59C761.626 384.446 763.82 403.737 763.808 423.09L240.258 423.13Z" stroke="#592D3D" stroke-width="12" stroke-miterlimit="10"/>
<path d="M225.35 356.43C408.77 278.43 596.49 277.37 781.29 356.43C798.82 363.93 798.72 496.3 781.29 490.24C600.82 427.41 409.96 426.74 225.35 490.24C203.39 497.79 205.53 364.86 225.35 356.43Z" fill="#85C5E5"/>
<path d="M751.328 443.71C752.156 446.948 752.609 450.269 752.678 453.61C752.768 456.88 752.568 460.13 752.418 463.39L752.058 468.26C751.898 469.88 751.738 471.5 751.538 473.11C751.138 476.34 750.648 479.55 749.948 482.72L742.078 481.31C742.518 478.14 743.078 475 743.718 471.86L744.718 467.15L745.718 462.45C746.458 459.32 747.088 456.18 747.938 453.05C748.778 449.839 749.913 446.713 751.328 443.71Z" fill="#592D3D"/>
<path d="M749.911 342.47C751.47 348.732 752.682 355.075 753.541 361.47C753.971 364.66 754.321 367.86 754.631 371.06C754.941 374.26 755.121 377.48 755.291 380.69C755.551 387.11 755.661 393.53 755.351 399.94C755.073 406.368 754.254 412.76 752.901 419.05C751.901 412.66 751.231 406.35 750.581 400.05C749.931 393.75 749.371 387.5 748.531 381.27C748.141 378.15 747.701 375.05 747.231 371.95C746.761 368.85 746.231 365.76 745.711 362.68C744.641 356.51 743.411 350.39 742.121 344.27L749.911 342.47Z" fill="#592D3D"/>
<path d="M668.781 322C676.341 364.87 675.491 411.49 668.781 460.73" stroke="#592D3D" stroke-width="8" stroke-miterlimit="10"/>
<path d="M598.191 307.61C603.341 350.51 602.761 397.16 598.191 446.44" stroke="#592D3D" stroke-width="8" stroke-miterlimit="10"/>
<path d="M533.849 356.47C535.054 363.31 535.845 370.216 536.219 377.15C536.619 384.05 536.739 390.95 536.869 397.86V408.22C536.869 411.67 536.869 415.12 536.749 418.57C536.599 425.47 536.349 432.37 535.879 439.26L527.879 438.86C528.099 431.99 528.449 425.13 528.819 418.27L530.029 397.7C530.489 390.84 530.849 383.97 531.379 377.1C531.909 370.23 532.689 363.36 533.849 356.47Z" fill="#592D3D"/>
<path d="M535.93 299.88C536.138 301.99 536.232 304.11 536.21 306.23C536.21 307.29 536.16 308.35 536.13 309.41L536 312.6C535.83 314.72 535.68 316.85 535.32 318.98C534.954 321.209 534.252 323.37 533.24 325.39C532.042 323.463 531.133 321.371 530.54 319.18C529.97 317.1 529.61 315.02 529.23 312.93L528.74 309.81C528.61 308.76 528.46 307.72 528.35 306.68C528.113 304.592 527.996 302.492 528 300.39L535.93 299.88Z" fill="#592D3D"/>
<path d="M467.758 299.65C468.108 342.65 468.068 389.32 467.758 438.65" stroke="#592D3D" stroke-width="8" stroke-miterlimit="10"/>
<path d="M403.378 306.18C401.318 349.18 401.548 395.91 403.378 445.29" stroke="#592D3D" stroke-width="8" stroke-miterlimit="10"/>
<path d="M333.37 391.65C334.567 397.192 335.472 402.793 336.08 408.43C336.71 414.02 337.17 419.6 337.73 425.18L339.24 441.91C339.71 447.48 340.17 453.06 340.49 458.65L332.49 459.29C331.91 453.68 331.56 448.05 331.31 442.42C331.18 439.6 331.11 436.78 331.03 433.96L330.93 425.5C330.93 419.86 330.98 414.21 331.28 408.57C331.566 402.887 332.264 397.232 333.37 391.65Z" fill="#592D3D"/>
<path d="M340.48 320.18C340.23 323.83 339.84 327.46 339.43 331.09L338.77 336.54L338.05 341.99C337.51 345.63 337.1 349.27 336.45 352.92C335.823 356.632 334.886 360.285 333.65 363.84C332.606 360.204 331.936 356.472 331.65 352.7C331.35 348.98 331.33 345.28 331.27 341.56V336C331.33 334.14 331.38 332.29 331.47 330.44C331.67 326.73 331.96 323.03 332.47 319.35L340.48 320.18Z" fill="#592D3D"/>
<path d="M264.861 340.45C258.001 383.45 258.771 430.3 264.861 479.75" stroke="#592D3D" stroke-width="8" stroke-miterlimit="10"/>
<path d="M753.07 434.58C753.812 434.58 754.537 434.36 755.154 433.948C755.77 433.536 756.251 432.95 756.535 432.265C756.819 431.58 756.893 430.826 756.748 430.098C756.604 429.371 756.246 428.703 755.722 428.178C755.198 427.654 754.529 427.297 753.802 427.152C753.074 427.007 752.32 427.082 751.635 427.366C750.95 427.649 750.364 428.13 749.952 428.747C749.54 429.363 749.32 430.088 749.32 430.83C749.333 431.821 749.733 432.767 750.433 433.467C751.133 434.168 752.08 434.567 753.07 434.58Z" fill="#592D3D"/>
<path d="M758.281 341.38C768.281 384.22 767.131 430.81 758.281 480.02" stroke="#67B7D6" stroke-width="8" stroke-miterlimit="10"/>
<path d="M681 320C688.56 362.87 687.71 409.49 681 458.74" stroke="#67B7D6" stroke-width="8" stroke-miterlimit="10"/>
<path d="M610.379 305.45C615.529 348.35 614.949 395 610.379 444.28" stroke="#67B7D6" stroke-width="8" stroke-miterlimit="10"/>
<path d="M544.059 297.82C546.799 340.74 546.499 387.43 544.059 436.74" stroke="#67B7D6" stroke-width="8" stroke-miterlimit="10"/>
<path d="M479.801 297.16C480.141 340.11 480.111 386.83 479.801 436.16" stroke="#67B7D6" stroke-width="8" stroke-miterlimit="10"/>
<path d="M415.339 303.53C413.279 346.53 413.509 393.26 415.339 442.64" stroke="#67B7D6" stroke-width="8" stroke-miterlimit="10"/>
<path d="M348.409 317C343.949 360 344.409 406.79 348.409 456.21" stroke="#67B7D6" stroke-width="8" stroke-miterlimit="10"/>
<path d="M276.739 337.64C269.879 380.64 270.649 427.49 276.739 476.94" stroke="#67B7D6" stroke-width="8" stroke-miterlimit="10"/>
<path d="M225.35 356.43C408.77 278.43 596.49 277.37 781.29 356.43C798.82 363.93 798.72 496.3 781.29 490.24C600.82 427.41 409.96 426.74 225.35 490.24C203.39 497.79 205.53 364.86 225.35 356.43Z" stroke="#592D3D" stroke-width="12" stroke-miterlimit="10"/>
<path d="M426.758 283.72C439.503 281.051 452.396 279.141 465.368 278C468.618 277.72 471.858 277.44 475.108 277.22L484.858 276.66C488.118 276.52 491.368 276.46 494.628 276.36L504.398 276.23C517.398 276.23 530.448 276.86 543.398 278.07C556.369 279.227 569.259 281.164 581.998 283.87C568.998 283.58 555.998 283.08 543.118 282.74C530.238 282.4 517.278 282.25 504.368 282.22H494.688C491.458 282.22 488.228 282.34 484.998 282.33L475.318 282.47C472.088 282.58 468.858 282.63 465.618 282.67C452.718 283 439.778 283.46 426.758 283.72Z" fill="#592D3D"/>
<path d="M347.309 233.83C354.381 228.176 361.861 223.052 369.689 218.5C377.469 213.88 385.499 209.66 393.689 205.84C395.689 204.84 397.819 203.98 399.889 203.06C401.959 202.14 404.019 201.2 406.129 200.39C410.349 198.74 414.529 197.01 418.829 195.59C427.35 192.549 436.054 190.044 444.889 188.09C442.819 189 440.729 189.87 438.639 190.72C436.549 191.57 434.449 192.36 432.389 193.28C428.239 195.02 424.079 196.7 419.959 198.5L416.869 199.83C415.869 200.26 414.789 200.68 413.769 201.15L407.619 203.88C405.559 204.76 403.529 205.71 401.479 206.63C399.429 207.55 397.389 208.47 395.379 209.46L389.279 212.29C387.279 213.29 385.279 214.29 383.229 215.29C379.229 217.23 375.229 219.29 371.179 221.29C363.189 225.31 355.229 229.48 347.309 233.83Z" fill="white"/>
<path opacity="0.2" d="M382.91 628.5C401.6 628.5 416.75 613.349 416.75 594.66C416.75 575.971 401.6 560.82 382.91 560.82C364.221 560.82 349.07 575.971 349.07 594.66C349.07 613.349 364.221 628.5 382.91 628.5Z" fill="white"/>
<path opacity="0.4" d="M375.872 631L419.182 589.26C416.879 584.835 414.352 580.529 411.612 576.36L365.742 620.57C367.642 621.9 373.722 630.08 375.872 631Z" fill="white"/>
<path d="M382.91 628.5C401.6 628.5 416.75 613.349 416.75 594.66C416.75 575.971 401.6 560.82 382.91 560.82C364.221 560.82 349.07 575.971 349.07 594.66C349.07 613.349 364.221 628.5 382.91 628.5Z" stroke="#592D3D" stroke-width="12" stroke-miterlimit="10"/>
<path d="M378 580.47C379.22 584.3 374.5 587.25 371 587.84C367.46 587.84 365.1 585.48 363.92 582.53C363.33 579.58 363.92 576.63 366.28 574.86C369.23 573.68 373.36 572.5 375.98 575.53C376.63 576.176 377.144 576.947 377.491 577.795C377.838 578.644 378.011 579.553 378 580.47Z" fill="white"/>
<path d="M384.322 578.21C384.242 578.735 383.982 579.215 383.587 579.569C383.191 579.923 382.685 580.129 382.155 580.152C381.625 580.174 381.103 580.012 380.68 579.692C380.256 579.373 379.956 578.916 379.832 578.4C379.832 576.63 380.422 576.04 382.102 575.98C382.691 575.98 383.255 576.214 383.672 576.63C384.088 577.047 384.322 577.611 384.322 578.2V578.21Z" fill="white"/>
<path opacity="0.2" d="M615.199 628.5C633.889 628.5 649.039 613.349 649.039 594.66C649.039 575.971 633.889 560.82 615.199 560.82C596.51 560.82 581.359 575.971 581.359 594.66C581.359 613.349 596.51 628.5 615.199 628.5Z" fill="white"/>
<path opacity="0.4" d="M610.122 628.11L648.662 589.57C648.452 588.2 642.752 581.47 642.372 580.13L600.652 621.87C602.002 622.24 608.752 627.91 610.122 628.11Z" fill="white"/>
<path d="M615.199 628.5C633.889 628.5 649.039 613.349 649.039 594.66C649.039 575.971 633.889 560.82 615.199 560.82C596.51 560.82 581.359 575.971 581.359 594.66C581.359 613.349 596.51 628.5 615.199 628.5Z" stroke="#592D3D" stroke-width="12" stroke-miterlimit="10"/>
<path d="M607.36 579.91C608.36 583.16 604.36 585.66 601.36 586.16C598.36 586.16 596.36 584.16 595.36 581.66C594.86 579.16 595.36 576.66 597.36 575.16C599.86 574.16 603.36 573.16 605.59 575.73C606.149 576.274 606.593 576.924 606.897 577.641C607.201 578.359 607.358 579.131 607.36 579.91Z" fill="white"/>
<path d="M612.702 578C612.632 578.443 612.411 578.847 612.077 579.145C611.743 579.443 611.315 579.616 610.868 579.635C610.42 579.654 609.98 579.517 609.622 579.249C609.264 578.98 609.009 578.595 608.902 578.16C608.902 576.66 609.402 576.16 610.822 576.16C611.314 576.16 611.786 576.353 612.138 576.697C612.489 577.041 612.692 577.509 612.702 578Z" fill="white"/>
<path d="M416.742 594.66C472.529 574.66 527.406 574.66 581.372 594.66" stroke="#592D3D" stroke-width="12" stroke-miterlimit="10"/>
<path opacity="0.15" d="M615.202 634.5C605.392 634.486 595.93 630.858 588.625 624.31C581.32 617.761 576.684 608.751 575.602 599C525.602 581.35 474.142 581.36 422.502 599C421.869 604.798 419.97 610.386 416.939 615.369C413.908 620.352 409.819 624.609 404.962 627.837C400.104 631.065 394.596 633.186 388.828 634.051C383.06 634.916 377.173 634.502 371.582 632.84C377.056 635.527 383.095 636.857 389.191 636.718C395.287 636.579 401.26 634.975 406.605 632.042C411.95 629.109 416.512 624.932 419.903 619.866C423.295 614.799 425.418 608.99 426.092 602.93C475.312 586.07 524.372 586.05 572.022 602.93C572.683 608.998 574.797 614.817 578.183 619.895C581.569 624.973 586.129 629.161 591.476 632.104C596.824 635.047 602.801 636.659 608.903 636.802C615.005 636.946 621.052 635.618 626.532 632.93C622.85 633.993 619.034 634.522 615.202 634.5Z" fill="black"/>
</g>
</svg>
