<svg width="240" height="241" viewBox="0 0 240 241" fill="none" xmlns="http://www.w3.org/2000/svg">
<path d="M54.0447 240.008C42.7221 239.893 25.2395 241.599 15.591 238.52C2.4665 234.341 0.0127562 224.689 0.0383152 212.656C0.0809135 187.407 0.0681353 162.161 -2.19158e-05 136.92C0.0681353 100.824 0.0809135 64.7291 0.0383152 28.6337C0.0383152 21.5429 0.6773 16.5205 1.95525 13.5666C6.15969 3.8921 15.4888 0.400111 26.8498 0.400111C88.694 0.392478 150.535 0.384823 212.371 0.37719C229.866 0.37719 240 7.739 240 23.9968C239.983 88.1273 239.979 152.258 239.987 216.388C240 226.635 235.732 235.153 224.613 238.565C221.487 239.519 215.493 239.993 206.633 239.985C155.77 239.932 104.907 239.939 54.0447 240.008Z" fill="#A9FFF5"/>
<path d="M88.52 75.5153V187.265C88.52 187.398 88.4673 187.525 88.3735 187.619C88.2798 187.713 88.1526 187.765 88.02 187.765H63.52C63.3847 187.765 63.255 187.719 63.1594 187.636C63.0637 187.554 63.01 187.442 63.01 187.325L63 53.7653C63 53.6009 63.0516 53.4432 63.1435 53.3269C63.2354 53.2107 63.36 53.1454 63.49 53.1454C82.8967 52.9787 102.327 52.9553 121.78 53.0753C139.21 53.1753 157.7 55.9853 163.9 75.2553C171.87 100.055 155.98 118.775 135 128.725C134.811 128.816 134.643 128.946 134.509 129.107C134.375 129.268 134.279 129.455 134.226 129.656C134.174 129.857 134.166 130.066 134.205 130.268C134.244 130.47 134.327 130.661 134.45 130.825L176.23 187.535C176.463 187.855 176.393 188.015 176.02 188.015H145.52C145.353 188.016 145.19 187.978 145.044 187.905C144.898 187.831 144.773 187.725 144.68 187.595L104.08 129.705C103.878 129.426 103.77 129.097 103.77 128.765V118.015C103.769 117.917 103.836 117.816 103.958 117.733C104.08 117.65 104.248 117.591 104.43 117.565C118.43 115.605 137.45 108.905 139.44 92.8753C140.57 83.7153 136.47 75.8154 126.51 75.2454C119.917 74.8654 107.437 74.8087 89.07 75.0753C88.9241 75.0753 88.7842 75.1217 88.6811 75.2042C88.5779 75.2867 88.52 75.3987 88.52 75.5153Z" fill="#6730EC"/>
</svg>
