<svg width="180" height="181" viewBox="0 0 180 181" fill="none" xmlns="http://www.w3.org/2000/svg">
<path d="M114.263 180.04L65.7498 180.047C57.1193 180.048 48.5731 178.349 40.5993 175.047C32.6254 171.745 25.38 166.904 19.2769 160.802C13.1737 154.7 8.33225 147.455 5.02898 139.482C1.72571 131.508 0.0253069 122.963 0.0248631 114.332L0.0214847 65.7718C0.0205969 57.141 1.71979 48.5946 5.02204 40.6205C8.3243 32.6464 13.1649 25.4009 19.2675 19.2977C25.3701 13.1945 32.6151 8.35309 40.5889 5.05002C48.5626 1.74695 57.1089 0.046875 65.7397 0.046875H114.259C131.689 0.046875 148.405 6.97074 160.729 19.2953C173.054 31.6198 179.978 48.3355 179.978 65.7651L179.974 114.325C179.973 131.753 173.05 148.467 160.727 160.79C148.404 173.114 131.691 180.038 114.263 180.04ZM42.5818 51.3958C42.032 52.8921 41.7525 54.4098 41.7435 55.9489C41.7232 58.9348 41.7097 62.066 41.703 65.3425C41.6962 67.1881 42.2168 68.8106 43.6939 69.9396C45.3942 71.241 47.953 71.1802 49.6262 69.7977C51.0695 68.6045 51.4211 67.0529 51.4109 65.1499C51.3974 62.5449 51.3895 59.8891 51.3873 57.1827C51.3873 56.1686 51.4887 55.336 51.6915 54.6847C52.2425 52.9033 54.1591 51.5107 56.0824 51.4803C59.0728 51.433 62.0857 51.4375 65.1211 51.4938C67.1222 51.5276 68.7785 51.0375 69.9345 49.4014C71.1717 47.6572 71.1108 45.1288 69.7148 43.4793C68.6433 42.2117 67.1053 41.725 65.3814 41.7351C61.9516 41.7531 58.915 41.7689 56.2717 41.7824C50.0251 41.8129 44.7046 45.6156 42.5818 51.3958ZM130.214 43.0196C128.474 42.2241 126.699 41.8128 124.887 41.7858C121.531 41.734 118.097 41.7295 114.584 41.7723C111.724 41.8061 109.473 44.206 109.804 47.1063C110.125 49.949 112.333 51.4701 115.138 51.4634C118.228 51.4521 121.236 51.4487 124.163 51.4532C126.063 51.4577 127.495 52.2273 128.46 53.7619C129.061 54.7118 129.166 55.7765 129.173 56.8514C129.191 59.63 129.191 62.4975 129.173 65.4541C129.166 66.4253 129.284 67.2118 129.528 67.8135C130.356 69.8551 132.442 71.116 134.568 70.8591C137.289 70.5278 138.921 68.2969 138.877 65.569C138.839 63.0947 138.836 60.5933 138.867 58.0649C138.897 55.7461 138.728 53.9197 138.36 52.5856C137.132 48.1282 134.417 44.9396 130.214 43.0196ZM80.5991 75.7638C80.5991 74.4755 80.0874 73.24 79.1764 72.3291C78.2655 71.4182 77.03 70.9064 75.7418 70.9064C74.4535 70.9064 73.218 71.4182 72.3071 72.3291C71.3961 73.24 70.8844 74.4755 70.8844 75.7638C70.8844 77.052 71.3961 78.2875 72.3071 79.1984C73.218 80.1094 74.4535 80.6211 75.7418 80.6211C77.03 80.6211 78.2655 80.1094 79.1764 79.1984C80.0874 78.2875 80.5991 77.052 80.5991 75.7638ZM109.754 75.7671C109.754 75.1297 109.628 74.4985 109.384 73.9096C109.14 73.3207 108.783 72.7856 108.332 72.3348C107.881 71.8841 107.346 71.5266 106.757 71.2826C106.168 71.0387 105.537 70.9131 104.9 70.9131C103.612 70.9131 102.378 71.4245 101.467 72.3348C100.557 73.2451 100.046 74.4798 100.046 75.7671C100.046 77.0545 100.557 78.2891 101.467 79.1994C102.378 80.1097 103.612 80.6211 104.9 80.6211C105.537 80.6211 106.168 80.4956 106.757 80.2516C107.346 80.0077 107.881 79.6502 108.332 79.1994C108.783 78.7487 109.14 78.2136 109.384 77.6247C109.628 77.0358 109.754 76.4046 109.754 75.7671ZM73.1525 95.8051C69.0861 93.635 64.5904 97.8535 66.4563 102.015C66.7966 102.767 67.3002 103.496 67.9673 104.202C74.7953 111.408 83.4858 115.522 93.4879 114.447C101.205 113.615 108.378 109.194 113.326 103.292C115.094 101.186 114.969 98.2219 112.894 96.4C111.417 95.102 109.236 94.8789 107.529 95.778C106.907 96.107 106.296 96.6265 105.694 97.3363C102.057 101.636 96.645 104.742 90.9561 104.911C85.2266 105.08 80.2814 102.674 76.1846 98.7492C75.1739 97.7791 74.393 96.4676 73.1525 95.8051ZM137.434 130.621C138.306 128.816 138.76 127.004 138.796 125.186C138.853 122.333 138.87 118.969 138.847 115.093C138.84 114.015 138.68 113.158 138.367 112.52C137.4 110.553 135.105 109.367 132.989 109.948C130.438 110.649 129.168 112.353 129.18 115.062C129.195 118.361 129.191 121.402 129.166 124.185C129.146 126.344 128.219 127.872 126.384 128.769C125.686 129.111 124.718 129.271 123.481 129.249C120.348 129.193 117.403 129.196 114.645 129.259C112.549 129.306 111.075 130.252 110.223 132.095C109.583 133.481 109.58 134.825 110.213 136.128C111.121 137.994 112.693 138.925 114.929 138.923C117.335 138.919 119.815 138.932 122.368 138.964C124.782 138.993 126.616 138.834 127.871 138.487C132.309 137.266 135.496 134.644 137.434 130.621ZM55.8864 129.198C53.3106 129.164 51.5191 126.856 51.4414 124.463C51.3602 121.932 51.3467 119.179 51.4008 116.205C51.4278 114.733 51.3614 113.76 51.2014 113.284C50.5253 111.29 49.2014 110.155 47.2296 109.88C45.1102 109.586 43.1193 110.661 42.1998 112.588C41.8303 113.363 41.6601 114.393 41.6894 115.677C41.7503 118.262 41.7525 120.801 41.6962 123.293C41.5846 128.201 43.3018 132.545 47.091 135.665C49.2679 137.456 52.2932 138.727 55.1055 138.842C58.0103 138.959 61.6372 138.979 65.9864 138.903C71.5199 138.805 72.6556 131.199 67.5278 129.499C66.9149 129.294 66.1622 129.196 65.2698 129.205C61.9685 129.237 58.8407 129.234 55.8864 129.198Z" fill="#1FDAB9"/>
<path d="M42.5791 51.4011C44.7019 45.6209 50.0224 41.8181 56.269 41.7877C58.9123 41.7742 61.9489 41.7584 65.3787 41.7404C67.1026 41.7302 68.6406 42.217 69.7121 43.4846C71.1082 45.1341 71.169 47.6625 69.9318 49.4067C68.7758 51.0427 67.1195 51.5329 65.1184 51.4991C62.083 51.4427 59.0701 51.4382 56.0797 51.4856C54.1564 51.516 52.2398 52.9086 51.6888 54.69C51.486 55.3413 51.3846 56.1739 51.3846 57.188C51.3868 59.8944 51.3947 62.5501 51.4082 65.1552C51.4184 67.0582 51.0668 68.6098 49.6235 69.803C47.9503 71.1855 45.3915 71.2463 43.6912 69.9449C42.2141 68.8159 41.6935 67.1934 41.7003 65.3478C41.707 62.0713 41.7205 58.9401 41.7408 55.9542C41.7498 54.4151 42.0293 52.8974 42.5791 51.4011Z" fill="white"/>
<path d="M130.213 43.0166C134.415 44.9366 137.131 48.1252 138.359 52.5826C138.726 53.9167 138.895 55.7431 138.866 58.0619C138.834 60.5903 138.838 63.0917 138.876 65.566C138.92 68.2939 137.287 70.5248 134.566 70.8561C132.44 71.113 130.355 69.8521 129.526 67.8105C129.283 67.2088 129.165 66.4223 129.172 65.4511C129.19 62.4945 129.19 59.627 129.172 56.8484C129.165 55.7735 129.06 54.7088 128.458 53.7589C127.494 52.2243 126.062 51.4547 124.162 51.4502C121.235 51.4457 118.226 51.4491 115.137 51.4604C112.331 51.4671 110.124 49.946 109.803 47.1033C109.472 44.203 111.723 41.8031 114.583 41.7693C118.096 41.7265 121.53 41.731 124.885 41.7828C126.697 41.8098 128.473 42.2211 130.213 43.0166Z" fill="white"/>
<path d="M75.7373 80.619C78.4199 80.619 80.5946 78.4443 80.5946 75.7617C80.5946 73.079 78.4199 70.9043 75.7373 70.9043C73.0546 70.9043 70.8799 73.079 70.8799 75.7617C70.8799 78.4443 73.0546 80.619 75.7373 80.619Z" fill="white"/>
<path d="M104.895 80.6123C107.576 80.6123 109.749 78.4391 109.749 75.7583C109.749 73.0775 107.576 70.9043 104.895 70.9043C102.214 70.9043 100.041 73.0775 100.041 75.7583C100.041 78.4391 102.214 80.6123 104.895 80.6123Z" fill="white"/>
<path d="M66.4632 102.02C64.5973 97.8585 69.093 93.64 73.1594 95.8101C74.3999 96.4726 75.1808 97.7841 76.1915 98.7542C80.2883 102.679 85.2335 105.085 90.963 104.916C96.6519 104.747 102.064 101.641 105.701 97.3413C106.302 96.6315 106.914 96.112 107.536 95.783C109.243 94.8839 111.423 95.107 112.901 96.405C114.976 98.2269 115.101 101.191 113.333 103.297C108.385 109.199 101.212 113.62 93.4948 114.452C83.4927 115.527 74.8022 111.413 67.9741 104.207C67.3071 103.501 66.8035 102.772 66.4632 102.02Z" fill="white"/>
<path d="M137.435 130.616C135.497 134.639 132.31 137.261 127.873 138.482C126.618 138.829 124.783 138.988 122.37 138.959C119.817 138.927 117.337 138.914 114.93 138.918C112.695 138.921 111.123 137.989 110.215 136.123C109.581 134.82 109.585 133.476 110.225 132.09C111.077 130.247 112.55 129.302 114.646 129.254C117.404 129.191 120.35 129.188 123.482 129.244C124.719 129.267 125.687 129.107 126.386 128.764C128.22 127.867 129.147 126.339 129.167 124.181C129.192 121.397 129.197 118.356 129.181 115.057C129.17 112.349 130.44 110.644 132.99 109.943C135.107 109.362 137.402 110.548 138.368 112.515C138.682 113.153 138.842 114.011 138.848 115.088C138.871 118.964 138.854 122.328 138.798 125.181C138.762 127 138.308 128.811 137.435 130.616Z" fill="white"/>
<path d="M51.4368 124.464C51.5145 126.857 53.3061 129.166 55.8818 129.2C58.8361 129.236 61.9639 129.238 65.2653 129.207C66.1576 129.198 66.9103 129.296 67.5232 129.501C72.651 131.201 71.5153 138.807 65.9819 138.905C61.6327 138.981 58.0057 138.961 55.1009 138.844C52.2886 138.729 49.2633 137.458 47.0865 135.666C43.2972 132.546 41.5801 128.203 41.6916 123.295C41.748 120.802 41.7457 118.264 41.6849 115.679C41.6556 114.395 41.8257 113.365 42.1953 112.59C43.1147 110.663 45.1056 109.588 47.225 109.882C49.1968 110.157 50.5208 111.292 51.1968 113.286C51.3568 113.761 51.4233 114.735 51.3962 116.206C51.3421 119.181 51.3557 121.934 51.4368 124.464Z" fill="white"/>
</svg>
