<?xml version="1.0" encoding="UTF-8"?>
<svg xmlns="http://www.w3.org/2000/svg" xmlns:xlink="http://www.w3.org/1999/xlink" version="1.1" id="Capa_1" x="0px" y="0px" viewBox="0 0 512 512" style="enable-background:new 0 0 512 512;" xml:space="preserve" width="512" height="512">
<g>
	<path style="fill:none;stroke:#000000;stroke-width:30;stroke-miterlimit:10;" d="M90,127.5H15v-75C15,31.789,31.789,15,52.5,15&#10;&#9;&#9;h272c20.711,0,37.5,16.789,37.5,37.5v33.833"/>
	<path style="fill:none;stroke:#000000;stroke-width:30;stroke-miterlimit:10;" d="M127.5,497c-20.711,0-37.5-16.789-37.5-37.5v-407&#10;&#9;&#9;C90,31.789,73.211,15,52.5,15"/>
	<path style="fill:none;stroke:#000000;stroke-width:30;stroke-miterlimit:10;" d="M127.5,497c20.711,0,37.5-16.789,37.5-37.5v-75&#10;&#9;&#9;h272v75c0,20.711-16.789,37.5-37.5,37.5H127.5"/>
	<path style="fill:none;stroke:#000000;stroke-width:30;stroke-miterlimit:10;" d="M256,309.5V286c0-133.101,107.899-241,241-241v0&#10;&#9;&#9;c0,91.766-74.509,166.157-166.275,166.157c-41.01,0-74.593,33.05-74.724,74.06"/>
	<line style="fill:none;stroke:#000000;stroke-width:30;stroke-miterlimit:10;" x1="362" y1="208.212" x2="362" y2="384.5"/>
	<line style="fill:none;stroke:#000000;stroke-width:30;stroke-miterlimit:10;" x1="135" y1="75" x2="286" y2="75"/>
	<line style="fill:none;stroke:#000000;stroke-width:30;stroke-miterlimit:10;" x1="135" y1="135" x2="256" y2="135"/>
	<line style="fill:none;stroke:#000000;stroke-width:30;stroke-miterlimit:10;" x1="135" y1="195" x2="226" y2="195"/>
</g>















</svg>
