<svg width="602" height="229" viewBox="0 0 602 229" fill="none" xmlns="http://www.w3.org/2000/svg">
<path d="M60.8619 72.9454C60.2842 74.5175 59.9906 76.1121 59.9812 77.7293C59.9599 80.8665 59.9456 84.1563 59.9385 87.599C59.9314 89.5381 60.4784 91.2428 62.0304 92.429C63.8168 93.7964 66.5053 93.7325 68.2633 92.2799C69.7798 91.0262 70.1492 89.396 70.1385 87.3965C70.1243 84.6595 70.116 81.8692 70.1137 79.0256C70.1137 77.9601 70.2202 77.0853 70.4333 76.401C71.0122 74.5293 73.0259 73.0661 75.0468 73.0341C78.1887 72.9844 81.3543 72.9892 84.5435 73.0483C86.646 73.0839 88.3863 72.5689 89.6009 70.8499C90.9008 69.0174 90.8368 66.3608 89.3701 64.6277C88.2442 63.2959 86.6283 62.7844 84.817 62.7951C81.2134 62.814 78.0229 62.8306 75.2456 62.8448C68.6824 62.8768 63.0923 66.8722 60.8619 72.9454Z" stroke="#8FEDDC" stroke-width="0.710306"/>
<path d="M152.935 64.1448C151.107 63.309 149.242 62.8769 147.338 62.8484C143.813 62.794 140.204 62.7893 136.513 62.8342C133.508 62.8698 131.143 65.3913 131.491 68.4386C131.828 71.4254 134.148 73.0236 137.095 73.0165C140.341 73.0046 143.502 73.0011 146.578 73.0058C148.574 73.0105 150.079 73.8191 151.092 75.4315C151.724 76.4295 151.834 77.5482 151.841 78.6776C151.86 81.597 151.86 84.6098 151.841 87.7162C151.834 88.7367 151.959 89.563 152.214 90.1952C153.084 92.3403 155.276 93.6651 157.51 93.3951C160.369 93.0471 162.084 90.7031 162.038 87.837C161.998 85.2373 161.994 82.6091 162.027 79.9526C162.058 77.5163 161.88 75.5972 161.494 74.1956C160.204 69.5123 157.351 66.162 152.935 64.1448Z" stroke="#8FEDDC" stroke-width="0.710306"/>
<path d="M100.806 98.5489C100.806 97.1953 100.268 95.8972 99.3109 94.9401C98.3538 93.983 97.0557 93.4453 95.7022 93.4453C94.3486 93.4453 93.0505 93.983 92.0934 94.9401C91.1363 95.8972 90.5986 97.1953 90.5986 98.5489C90.5986 99.9024 91.1363 101.201 92.0934 102.158C93.0505 103.115 94.3486 103.652 95.7022 103.652C97.0557 103.652 98.3538 103.115 99.3109 102.158C100.268 101.201 100.806 99.9024 100.806 98.5489Z" stroke="#8FEDDC" stroke-width="0.710306"/>
<path d="M131.438 98.5521C131.438 97.8824 131.306 97.2192 131.05 96.6005C130.794 95.9817 130.418 95.4195 129.945 94.9459C129.471 94.4723 128.909 94.0967 128.29 93.8404C127.671 93.5841 127.008 93.4521 126.338 93.4521C124.986 93.4521 123.688 93.9895 122.732 94.9459C121.776 95.9023 121.238 97.1995 121.238 98.5521C121.238 99.9047 121.776 101.202 122.732 102.158C123.688 103.115 124.986 103.652 126.338 103.652C127.008 103.652 127.671 103.52 128.29 103.264C128.909 103.008 129.471 102.632 129.945 102.158C130.418 101.685 130.794 101.123 131.05 100.504C131.306 99.8851 131.438 99.2219 131.438 98.5521Z" stroke="#8FEDDC" stroke-width="0.710306"/>
<path d="M92.9817 119.606C88.7093 117.325 83.9857 121.758 85.9462 126.13C86.3037 126.921 86.8329 127.686 87.5337 128.428C94.7078 135.999 103.839 140.322 114.348 139.192C122.456 138.319 129.992 133.673 135.192 127.472C137.049 125.26 136.918 122.145 134.737 120.231C133.185 118.867 130.894 118.632 129.101 119.577C128.447 119.923 127.804 120.469 127.172 121.214C123.351 125.732 117.665 128.996 111.688 129.173C105.668 129.351 100.472 126.822 96.1675 122.699C95.1056 121.68 94.2852 120.302 92.9817 119.606Z" stroke="#8FEDDC" stroke-width="0.710306"/>
<path d="M160.522 156.186C161.438 154.29 161.915 152.386 161.953 150.475C162.012 147.478 162.03 143.943 162.006 139.871C161.999 138.739 161.831 137.838 161.502 137.168C160.486 135.101 158.075 133.854 155.851 134.465C153.171 135.202 151.837 136.993 151.849 139.839C151.865 143.305 151.861 146.5 151.835 149.424C151.813 151.692 150.839 153.298 148.912 154.24C148.178 154.6 147.161 154.768 145.861 154.744C142.57 154.685 139.475 154.689 136.577 154.755C134.375 154.805 132.827 155.798 131.932 157.735C131.259 159.191 131.256 160.603 131.921 161.972C132.875 163.932 134.527 164.911 136.876 164.909C139.404 164.904 142.01 164.918 144.692 164.952C147.228 164.982 149.156 164.815 150.474 164.451C155.136 163.167 158.485 160.413 160.522 156.186Z" stroke="#8FEDDC" stroke-width="0.710306"/>
<path d="M74.8407 154.691C72.1344 154.656 70.2521 152.23 70.1704 149.716C70.0852 147.057 70.071 144.164 70.1278 141.039C70.1562 139.493 70.0864 138.47 69.9183 137.971C69.208 135.875 67.817 134.683 65.7452 134.394C63.5184 134.085 61.4266 135.215 60.4606 137.239C60.0723 138.053 59.8935 139.136 59.9243 140.485C59.9882 143.201 59.9906 145.868 59.9314 148.487C59.8142 153.644 61.6184 158.207 65.5996 161.485C67.8868 163.368 71.0654 164.703 74.0203 164.824C77.0722 164.947 80.883 164.968 85.4527 164.888C91.2665 164.785 92.4598 156.794 87.0722 155.007C86.4282 154.792 85.6374 154.689 84.6997 154.698C81.2311 154.731 77.9448 154.729 74.8407 154.691Z" stroke="#8FEDDC" stroke-width="0.710306"/>
<path d="M136.176 208.109L85.204 208.117C76.1361 208.118 67.1568 206.332 58.7788 202.863C50.4008 199.394 42.7883 194.308 36.3758 187.896C29.9633 181.485 24.8765 173.873 21.4058 165.496C17.9351 157.118 16.1485 148.139 16.1481 139.071L16.1445 88.0501C16.1436 78.9818 17.9289 70.0022 21.3985 61.624C24.8681 53.2458 29.9541 45.6331 36.3659 39.2206C42.7778 32.808 50.39 27.7213 58.7679 24.2508C67.1457 20.7804 76.1251 18.9941 85.1934 18.9941H136.172C154.485 18.9941 172.048 26.2689 184.997 39.2181C197.946 52.1672 205.221 69.7301 205.221 88.043L205.217 139.064C205.216 157.375 197.942 174.936 184.995 187.884C172.047 200.832 154.487 208.108 136.176 208.109ZM60.8618 72.9454C60.2841 74.5176 59.9905 76.1122 59.981 77.7293C59.9597 80.8665 59.9455 84.1564 59.9384 87.599C59.9313 89.5381 60.4783 91.2429 62.0303 92.4291C63.8167 93.7964 66.5052 93.7325 68.2632 92.2799C69.7797 91.0262 70.1491 89.3961 70.1384 87.3966C70.1242 84.6595 70.1159 81.8692 70.1136 79.0256C70.1136 77.9602 70.2201 77.0853 70.4332 76.401C71.0121 74.5294 73.0258 73.0662 75.0466 73.0342C78.1886 72.9845 81.3541 72.9892 84.5434 73.0484C86.6459 73.0839 88.3862 72.5689 89.6008 70.85C90.9007 69.0174 90.8367 66.3609 89.3699 64.6277C88.2441 63.2959 86.6282 62.7845 84.8169 62.7951C81.2133 62.8141 78.0228 62.8307 75.2455 62.8449C68.6823 62.8768 63.0922 66.8723 60.8618 72.9454ZM152.935 64.1447C151.107 63.3089 149.242 62.8768 147.338 62.8484C143.813 62.794 140.204 62.7892 136.513 62.8342C133.508 62.8697 131.143 65.3913 131.491 68.4385C131.828 71.4254 134.148 73.0235 137.095 73.0164C140.341 73.0046 143.502 73.001 146.578 73.0058C148.574 73.0105 150.079 73.8191 151.092 75.4315C151.724 76.4295 151.834 77.5482 151.841 78.6776C151.86 81.5969 151.86 84.6098 151.841 87.7162C151.834 88.7367 151.959 89.563 152.214 90.1952C153.084 92.3403 155.276 93.665 157.51 93.3951C160.369 93.0471 162.084 90.7031 162.038 87.837C161.998 85.2372 161.994 82.6091 162.027 79.9526C162.058 77.5162 161.88 75.5972 161.494 74.1955C160.204 69.5123 157.351 66.162 152.935 64.1447ZM100.806 98.5484C100.806 97.1948 100.268 95.8967 99.3111 94.9396C98.354 93.9825 97.0559 93.4448 95.7023 93.4448C94.3488 93.4448 93.0507 93.9825 92.0936 94.9396C91.1365 95.8967 90.5988 97.1948 90.5988 98.5484C90.5988 99.9019 91.1365 101.2 92.0936 102.157C93.0507 103.114 94.3488 103.652 95.7023 103.652C97.0559 103.652 98.354 103.114 99.3111 102.157C100.268 101.2 100.806 99.9019 100.806 98.5484ZM131.438 98.5519C131.438 97.8822 131.306 97.219 131.05 96.6003C130.793 95.9815 130.418 95.4193 129.944 94.9457C129.47 94.4721 128.908 94.0964 128.289 93.8401C127.671 93.5838 127.008 93.4519 126.338 93.4519C124.985 93.4519 123.688 93.9892 122.732 94.9457C121.775 95.9021 121.238 97.1993 121.238 98.5519C121.238 99.9045 121.775 101.202 122.732 102.158C123.688 103.115 124.985 103.652 126.338 103.652C127.008 103.652 127.671 103.52 128.289 103.264C128.908 103.007 129.47 102.632 129.944 102.158C130.418 101.685 130.793 101.122 131.05 100.504C131.306 99.8849 131.438 99.2217 131.438 98.5519ZM92.9819 119.605C88.7094 117.325 83.9858 121.758 85.9463 126.13C86.3038 126.92 86.833 127.686 87.5338 128.427C94.7079 135.999 103.839 140.321 114.348 139.192C122.456 138.318 129.992 133.673 135.192 127.472C137.049 125.259 136.918 122.145 134.737 120.23C133.185 118.867 130.894 118.632 129.101 119.577C128.447 119.923 127.805 120.468 127.172 121.214C123.351 125.732 117.665 128.996 111.688 129.173C105.668 129.351 100.472 126.822 96.1676 122.699C95.1057 121.679 94.2853 120.301 92.9819 119.605ZM160.521 156.186C161.438 154.29 161.915 152.386 161.953 150.475C162.012 147.478 162.029 143.943 162.006 139.87C161.999 138.739 161.831 137.838 161.501 137.168C160.486 135.101 158.074 133.854 155.851 134.465C153.171 135.201 151.837 136.992 151.848 139.838C151.865 143.305 151.86 146.5 151.834 149.424C151.813 151.692 150.839 153.298 148.911 154.24C148.177 154.6 147.16 154.768 145.861 154.744C142.569 154.685 139.475 154.689 136.577 154.755C134.375 154.805 132.826 155.798 131.931 157.735C131.259 159.191 131.255 160.603 131.921 161.972C132.875 163.932 134.526 164.911 136.875 164.909C139.404 164.904 142.01 164.918 144.692 164.951C147.228 164.982 149.155 164.815 150.474 164.451C155.136 163.167 158.485 160.412 160.521 156.186ZM74.8406 154.691C72.1344 154.655 70.2521 152.23 70.1704 149.715C70.0851 147.056 70.0709 144.164 70.1278 141.039C70.1562 139.493 70.0863 138.47 69.9182 137.97C69.2079 135.875 67.8169 134.683 65.7452 134.394C63.5184 134.085 61.4265 135.214 60.4605 137.239C60.0722 138.053 59.8934 139.135 59.9242 140.485C59.9881 143.201 59.9905 145.868 59.9313 148.486C59.8141 153.643 61.6183 158.207 65.5996 161.485C67.8867 163.367 71.0654 164.703 74.0202 164.823C77.0722 164.947 80.883 164.968 85.4526 164.887C91.2665 164.784 92.4598 156.793 87.0721 155.007C86.4281 154.792 85.6373 154.689 84.6997 154.698C81.231 154.731 77.9447 154.729 74.8406 154.691Z" fill="#1FDAB9"/>
<path d="M60.8619 72.9463C63.0923 66.8732 68.6824 62.8778 75.2456 62.8458C78.0229 62.8316 81.2134 62.815 84.817 62.7961C86.6283 62.7854 88.2442 63.2968 89.3701 64.6287C90.8368 66.3618 90.9008 69.0183 89.6009 70.8509C88.3863 72.5699 86.646 73.0848 84.5435 73.0493C81.3543 72.9901 78.1887 72.9854 75.0468 73.0351C73.0259 73.0671 71.0122 74.5303 70.4333 76.402C70.2202 77.0862 70.1137 77.9611 70.1137 79.0266C70.116 81.8701 70.1243 84.6605 70.1385 87.3975C70.1492 89.397 69.7798 91.0272 68.2633 92.2809C66.5053 93.7334 63.8168 93.7974 62.0304 92.43C60.4784 91.2438 59.9314 89.5391 59.9385 87.5999C59.9456 84.1573 59.9599 80.8674 59.9812 77.7302C59.9906 76.1131 60.2842 74.5185 60.8619 72.9463Z" fill="white"/>
<path d="M152.935 64.1448C157.351 66.162 160.204 69.5123 161.494 74.1956C161.88 75.5972 162.058 77.5163 162.027 79.9526C161.994 82.6091 161.998 85.2373 162.038 87.837C162.084 90.7031 160.369 93.0471 157.51 93.3951C155.276 93.6651 153.084 92.3403 152.214 90.1952C151.959 89.563 151.834 88.7367 151.841 87.7162C151.86 84.6098 151.86 81.597 151.841 78.6776C151.834 77.5482 151.724 76.4295 151.092 75.4315C150.079 73.8191 148.574 73.0105 146.578 73.0058C143.502 73.0011 140.341 73.0046 137.095 73.0165C134.148 73.0236 131.828 71.4254 131.491 68.4386C131.143 65.3913 133.508 62.8698 136.513 62.8342C140.204 62.7893 143.813 62.794 147.338 62.8484C149.242 62.8769 151.107 63.309 152.935 64.1448Z" fill="white"/>
<path d="M355.99 74.4519C356.156 74.4116 356.291 74.3216 356.395 74.1819C359.531 69.9663 364.784 68.4924 369.816 69.2773C376.042 70.2433 379.586 74.427 380.41 80.525C380.517 81.3229 380.572 82.4842 380.577 84.009C380.589 89.772 380.585 95.5349 380.567 101.298C380.567 101.53 380.452 101.646 380.222 101.646L373.645 101.649C373.611 101.649 373.578 101.636 373.554 101.612C373.53 101.588 373.517 101.556 373.517 101.522C373.545 95.5029 373.545 89.5553 373.517 83.6787C373.499 80.6031 372.579 77.1688 369.5 75.9861C367.85 75.354 366.087 75.3184 364.212 75.8796C360.543 76.977 358.728 80.2693 358.725 83.9664C358.72 90.2645 358.723 96.1103 358.735 101.504C358.735 101.625 358.675 101.685 358.554 101.685L351.87 101.66C351.714 101.66 351.637 101.583 351.639 101.429C351.649 96.0239 351.648 90.7865 351.636 85.7173C351.632 83.4266 351.764 81.2317 350.805 79.1008C349.341 75.8512 345.925 74.942 342.647 75.7908C338.701 76.8101 336.794 80.3225 336.801 84.2044C336.808 90.5024 336.806 96.2642 336.794 101.49C336.794 101.533 336.777 101.575 336.746 101.605C336.715 101.636 336.674 101.653 336.631 101.653L329.957 101.639C329.904 101.639 329.852 101.617 329.814 101.578C329.776 101.54 329.755 101.487 329.755 101.433L329.744 70.2753C329.744 70.003 329.879 69.868 330.149 69.8704L335.839 69.8739C335.888 69.8739 335.936 69.8931 335.972 69.9276C336.007 69.962 336.028 70.009 336.03 70.0586C336.052 70.9157 336.056 71.7859 336.045 72.669C336.042 72.8111 336.086 72.9401 336.176 73.0561C336.199 73.0857 336.228 73.1099 336.261 73.1269C336.295 73.1438 336.331 73.1532 336.369 73.1542C336.406 73.1552 336.443 73.1479 336.478 73.1328C336.512 73.1177 336.542 73.0951 336.567 73.0668C340.012 69.0535 345.534 68.1728 350.325 69.9947C352.61 70.8636 354.391 72.3067 355.667 74.324C355.7 74.3765 355.749 74.417 355.807 74.44C355.865 74.463 355.929 74.4671 355.99 74.4519Z" fill="#1D1D1D"/>
<path d="M231.416 74.1073C232.134 73.4325 232.688 72.5837 233.427 71.9053C237.568 68.1088 243.996 68.3396 248.407 71.5253C248.514 71.6031 248.589 71.7167 248.619 71.8449C248.648 71.9731 248.63 72.107 248.567 72.2214L245.857 77.1652C245.827 77.2198 245.786 77.2677 245.736 77.3059C245.687 77.3442 245.631 77.372 245.571 77.3876C245.51 77.4032 245.448 77.4064 245.386 77.3968C245.325 77.3873 245.267 77.3652 245.214 77.3321C243.237 76.0867 241.177 75.6285 239.035 75.9576C233.775 76.7603 231.722 81.4092 231.733 86.2464C231.742 91.1333 231.73 96.2274 231.697 101.529C231.697 101.563 231.684 101.595 231.661 101.619C231.637 101.643 231.606 101.656 231.573 101.656L224.899 101.642C224.838 101.642 224.779 101.618 224.736 101.575C224.693 101.531 224.669 101.473 224.669 101.411L224.665 70.2042C224.665 69.9769 224.779 69.8644 225.006 69.8668L230.759 69.881C230.811 69.881 230.86 69.9011 230.896 69.9369C230.933 69.9728 230.954 70.0216 230.955 70.0728L230.994 73.9262C230.999 74.3074 231.139 74.3677 231.416 74.1073Z" fill="#1D1D1D"/>
<path d="M263.58 102.094C257.823 101.042 253.288 97.4517 251.348 91.9006C249.53 86.7119 250.084 80.3759 253.309 75.798C255.516 72.6608 258.584 70.6199 262.514 69.6752C265.675 68.9151 268.732 68.8867 271.684 69.5899C277.919 71.0768 281.893 74.9054 283.607 81.0756C284.811 85.4084 284.211 90.8174 281.813 94.8093C278.042 101.078 270.658 103.386 263.58 102.094ZM267.259 96.0524C269.889 96.0524 272.411 94.9691 274.271 93.0409C276.13 91.1128 277.175 88.4976 277.175 85.7707C277.175 84.4205 276.919 83.0835 276.42 81.8361C275.922 80.5886 275.192 79.4552 274.271 78.5005C273.35 77.5457 272.257 76.7884 271.054 76.2717C269.851 75.755 268.561 75.489 267.259 75.489C264.629 75.489 262.107 76.5723 260.248 78.5005C258.388 80.4286 257.343 83.0438 257.343 85.7707C257.343 88.4976 258.388 91.1128 260.248 93.0409C262.107 94.9691 264.629 96.0524 267.259 96.0524Z" fill="#1D1D1D"/>
<path d="M290.55 93.211C288.7 89.2475 288.53 84.112 289.957 79.8146C293.1 70.364 303.748 67.1357 312.481 70.2006C318.639 72.3635 322.319 77.8116 322.82 84.286C323.477 92.7599 318.792 100.104 310.24 101.973C307.593 102.55 304.955 102.592 302.327 102.097C296.754 101.05 292.828 98.0884 290.55 93.211ZM305.925 96.0522C307.226 96.0545 308.516 95.7908 309.719 95.2762C310.923 94.7616 312.017 94.0061 312.939 93.053C313.861 92.0999 314.593 90.9677 315.094 89.7211C315.594 88.4746 315.853 87.138 315.855 85.7878C315.857 84.4376 315.603 83.1002 315.107 81.8519C314.611 80.6036 313.883 79.4689 312.964 78.5125C312.046 77.5562 310.954 76.7969 309.752 76.2781C308.551 75.7593 307.262 75.4911 305.961 75.4889C304.659 75.4866 303.369 75.7503 302.166 76.2649C300.962 76.7795 299.868 77.5349 298.946 78.4881C298.024 79.4412 297.292 80.5734 296.792 81.8199C296.291 83.0665 296.033 84.403 296.03 85.7532C296.028 87.1034 296.282 88.4409 296.778 89.6892C297.274 90.9375 298.002 92.0722 298.921 93.0286C299.84 93.9849 300.931 94.7442 302.133 95.263C303.335 95.7818 304.623 96.0499 305.925 96.0522Z" fill="#1D1D1D"/>
<path d="M95.7022 103.652C98.5208 103.652 100.806 101.367 100.806 98.5489C100.806 95.7302 98.5208 93.4453 95.7022 93.4453C92.8836 93.4453 90.5986 95.7302 90.5986 98.5489C90.5986 101.367 92.8836 103.652 95.7022 103.652Z" fill="white"/>
<path d="M126.338 103.652C129.155 103.652 131.438 101.369 131.438 98.5521C131.438 95.7355 129.155 93.4521 126.338 93.4521C123.522 93.4521 121.238 95.7355 121.238 98.5521C121.238 101.369 123.522 103.652 126.338 103.652Z" fill="white"/>
<path d="M343.162 148.995L339.177 157.838C339.155 157.886 339.12 157.926 339.076 157.954C339.032 157.983 338.981 157.998 338.928 157.998L331.189 157.994C331.144 157.994 331.099 157.983 331.058 157.961C331.018 157.939 330.984 157.907 330.959 157.869C330.935 157.83 330.92 157.786 330.917 157.74C330.913 157.695 330.922 157.649 330.941 157.607L351.039 112.965C351.061 112.917 351.096 112.876 351.14 112.848C351.184 112.82 351.235 112.805 351.287 112.805H359.467C359.519 112.805 359.57 112.82 359.614 112.848C359.658 112.876 359.693 112.917 359.715 112.965L379.753 157.614C379.772 157.656 379.78 157.702 379.777 157.747C379.774 157.793 379.759 157.837 379.734 157.876C379.71 157.914 379.676 157.946 379.635 157.968C379.595 157.99 379.55 158.001 379.504 158.001L371.698 157.994C371.646 157.994 371.594 157.979 371.55 157.951C371.506 157.923 371.471 157.882 371.45 157.835L367.45 148.998C367.429 148.951 367.394 148.91 367.35 148.882C367.306 148.854 367.254 148.839 367.202 148.839L343.41 148.835C343.358 148.835 343.306 148.85 343.262 148.878C343.218 148.907 343.183 148.947 343.162 148.995ZM346.344 141.529C346.329 141.564 346.323 141.601 346.326 141.638C346.329 141.675 346.342 141.71 346.362 141.741C346.383 141.772 346.411 141.798 346.443 141.815C346.476 141.833 346.513 141.842 346.55 141.842H364.073C364.11 141.842 364.147 141.833 364.179 141.815C364.212 141.798 364.24 141.772 364.26 141.741C364.281 141.71 364.293 141.675 364.296 141.638C364.3 141.601 364.294 141.564 364.279 141.529L355.517 121.201C355.5 121.16 355.471 121.126 355.435 121.101C355.398 121.077 355.355 121.064 355.311 121.064C355.267 121.064 355.224 121.077 355.188 121.101C355.151 121.126 355.123 121.16 355.105 121.201L346.344 141.529Z" fill="#1FDAB9"/>
<path d="M393.132 112.809H386.043C385.867 112.809 385.724 112.952 385.724 113.128V157.679C385.724 157.855 385.867 157.998 386.043 157.998H393.132C393.309 157.998 393.452 157.855 393.452 157.679V113.128C393.452 112.952 393.309 112.809 393.132 112.809Z" fill="#1FDAB9"/>
<path d="M248.834 129.081C249.18 129.408 249.352 129.333 249.352 128.858L249.356 113.078C249.356 112.967 249.412 112.911 249.523 112.911L256.186 112.918C256.252 112.918 256.315 112.944 256.361 112.991C256.408 113.038 256.434 113.101 256.434 113.167L256.441 157.753C256.441 157.784 256.429 157.814 256.406 157.837C256.384 157.859 256.353 157.873 256.321 157.873L250.372 157.888C250.309 157.888 250.248 157.863 250.203 157.818C250.159 157.773 250.134 157.713 250.134 157.65L250.098 154.109C250.098 154.066 250.081 154.026 250.05 153.996C250.02 153.966 249.978 153.949 249.935 153.949C249.807 153.951 249.702 153.998 249.619 154.088C247.744 156.095 245.459 157.428 242.764 158.087C233.992 160.235 225.614 156.098 223.291 147.212C222.392 143.764 222.382 140.328 223.263 136.902C224.925 130.431 229.57 126.389 236.031 125.437C237.972 125.151 240.039 125.254 242.232 125.746C244.928 126.352 247.129 127.464 248.834 129.081ZM242.171 151.861C245.24 151.165 247.651 148.81 248.678 145.876C250.83 139.718 247.577 132.114 240.317 131.844C239.268 131.804 238.294 131.859 237.394 132.008C231.911 132.91 229.194 138.273 229.784 143.419C230.508 149.737 235.945 153.274 242.171 151.861Z" fill="#1D1D1D"/>
<path d="M85.9462 126.13C83.9857 121.758 88.7093 117.325 92.9817 119.606C94.2852 120.302 95.1056 121.68 96.1675 122.699C100.472 126.822 105.668 129.351 111.688 129.173C117.665 128.996 123.351 125.732 127.172 121.214C127.804 120.469 128.447 119.923 129.101 119.577C130.894 118.632 133.185 118.867 134.737 120.231C136.918 122.145 137.049 125.26 135.192 127.472C129.992 133.673 122.456 138.319 114.348 139.192C103.839 140.322 94.7078 135.999 87.5337 128.428C86.8329 127.686 86.3037 126.921 85.9462 126.13Z" fill="white"/>
<path d="M427.828 153.47C427.784 153.49 427.748 153.524 427.723 153.565C427.699 153.607 427.687 153.655 427.69 153.703C427.694 153.751 427.711 153.797 427.74 153.836C427.77 153.874 427.81 153.902 427.856 153.917C431.539 155.192 434.7 158.151 435.211 162.086C436.277 170.297 430.619 175.28 423.051 176.587C418.879 177.306 414.81 177.021 410.844 175.731C408.078 174.832 405.46 172.989 403.794 170.521C402.362 168.397 401.677 165.894 401.738 163.013C401.743 162.863 401.819 162.789 401.965 162.789L408.372 162.785C408.452 162.785 408.529 162.816 408.587 162.871C408.645 162.925 408.68 163 408.685 163.08C409.083 169.572 415.554 171.171 421.044 170.386C424.589 169.881 428.073 167.825 428.215 163.957C428.346 160.456 425.647 158.303 422.454 157.636C420.799 157.291 419.016 157.135 417.312 157.117C415.562 157.098 413.741 156.783 411.849 156.172C404.984 153.949 401.376 148.377 401.411 141.213C401.454 132.505 407.74 126.45 416.069 125.441C419.828 124.986 423.389 125.603 426.752 127.291C426.95 127.391 427.121 127.354 427.263 127.181L430.91 122.738C430.963 122.673 431.04 122.63 431.125 122.62C431.21 122.61 431.296 122.634 431.365 122.685L435.886 126.155C436.113 126.328 436.133 126.522 435.946 126.737L432.171 131.106C431.908 131.409 431.905 131.715 432.161 132.026C435.196 135.695 436.226 139.871 435.25 144.552C434.38 148.721 431.571 151.63 427.828 153.47ZM423.964 149.481C426.965 147.809 428.52 144.715 428.517 141.316C428.506 135.826 424.713 132.075 419.244 131.837C418.024 131.785 416.973 131.85 416.09 132.033C411.875 132.897 409.396 135.418 408.653 139.597C408.21 142.093 408.632 144.401 409.917 146.523C412.734 151.161 419.627 151.9 423.964 149.481Z" fill="#1D1D1D"/>
<path d="M270.679 144.691C270.674 145.058 270.731 145.426 270.849 145.795C271.884 149.001 274.088 151.025 277.462 151.868C281.614 152.902 286.501 151.961 289.719 149.13C289.77 149.085 289.836 149.061 289.904 149.063C289.972 149.065 290.036 149.093 290.085 149.141L293.938 152.92C293.972 152.953 293.999 152.994 294.018 153.038C294.037 153.083 294.046 153.13 294.046 153.178C294.046 153.226 294.037 153.273 294.018 153.318C293.999 153.362 293.972 153.401 293.938 153.435C289.222 157.973 282.2 159.593 275.903 158.155C266.545 156.02 262.308 148.061 263.498 138.998C264.869 128.51 274.433 123.705 284.157 125.747C290.621 127.107 294.709 131.49 295.806 137.815C296.173 139.932 296.276 141.979 296.115 143.956C296.094 144.199 295.961 144.321 295.717 144.321L271.048 144.325C270.951 144.325 270.858 144.363 270.788 144.432C270.719 144.5 270.68 144.593 270.679 144.691ZM279.281 131.468C274.909 131.71 271.514 134.203 270.722 138.49C270.714 138.533 270.716 138.578 270.727 138.621C270.738 138.664 270.759 138.703 270.788 138.737C270.816 138.771 270.852 138.798 270.892 138.817C270.932 138.835 270.976 138.845 271.02 138.845L288.944 138.852C288.983 138.852 289.022 138.844 289.058 138.829C289.094 138.814 289.126 138.792 289.153 138.764C289.18 138.736 289.201 138.703 289.214 138.667C289.228 138.631 289.234 138.592 289.232 138.554C289.211 137.995 289.079 137.412 288.838 136.806C287.25 132.793 283.39 131.241 279.281 131.468Z" fill="#1D1D1D"/>
<path d="M324.421 133.876C320.574 131.465 315.073 130.421 310.708 132.054C309.181 132.626 307.959 134.224 308.574 135.883C309.096 137.286 310.69 137.96 312.04 138.252C313.274 138.517 314.581 138.73 315.961 138.891C320.035 139.37 324.971 140.532 327.209 143.952C327.909 145.027 328.321 146.402 328.445 148.079C328.698 151.54 327.284 154.264 324.204 156.251C322.766 157.174 320.805 157.927 319.15 158.218C312.416 159.395 306.29 158.05 300.771 154.184C300.705 154.138 300.66 154.068 300.644 153.99C300.628 153.911 300.643 153.829 300.686 153.761L303.616 149.141C303.636 149.108 303.662 149.081 303.694 149.059C303.725 149.037 303.76 149.022 303.797 149.015C303.834 149.007 303.873 149.007 303.91 149.015C303.947 149.022 303.982 149.037 304.014 149.059C307.236 151.323 311.035 152.442 315.41 152.419C317.509 152.405 320.983 151.829 321.43 149.222C321.981 146.015 318.003 145.223 315.769 144.929C314.467 144.756 313.164 144.565 311.859 144.357C306.862 143.558 301.474 140.816 301.488 135.08C301.499 129.529 306.066 126.66 311.099 125.697C314.082 125.126 317.166 125.169 320.351 125.825C322.839 126.339 325.189 127.294 327.4 128.691C327.651 128.852 327.699 129.059 327.542 129.312L324.79 133.787C324.771 133.818 324.747 133.844 324.718 133.865C324.69 133.886 324.657 133.901 324.623 133.909C324.588 133.917 324.553 133.918 324.518 133.913C324.484 133.907 324.45 133.895 324.421 133.876Z" fill="#1D1D1D"/>
<path d="M449.229 129.611C449.229 129.666 449.245 129.721 449.276 129.767C449.308 129.812 449.352 129.848 449.404 129.868C449.456 129.888 449.514 129.893 449.568 129.88C449.623 129.868 449.673 129.84 449.712 129.799C451.339 128.047 453.228 126.817 455.38 126.109C458.311 125.148 461.19 125.026 464.017 125.743C469.81 127.21 473.024 131.731 473.77 137.431C473.9 138.435 473.952 140.422 473.926 143.391C473.888 148.05 473.888 152.808 473.926 157.664C473.927 157.692 473.922 157.72 473.912 157.746C473.901 157.771 473.886 157.795 473.867 157.815C473.848 157.835 473.825 157.85 473.8 157.861C473.775 157.872 473.748 157.877 473.72 157.877H467.221C467.125 157.877 467.033 157.839 466.965 157.771C466.897 157.703 466.859 157.611 466.859 157.515C466.892 152.287 466.887 146.518 466.845 140.208C466.82 136.469 465.165 132.956 461.297 131.983C460.265 131.723 459.267 131.641 458.303 131.738C454.638 132.1 451.925 134.043 450.6 137.598C450.167 138.756 449.958 140.423 449.975 142.599C450.013 147.665 450.023 152.702 450.007 157.707C450.007 157.751 449.989 157.794 449.957 157.825C449.925 157.856 449.881 157.874 449.836 157.874L443.198 157.87C443.004 157.87 442.907 157.774 442.907 157.583V126.326C442.907 126.261 442.933 126.198 442.979 126.152C443.025 126.106 443.087 126.08 443.152 126.08L448.927 126.084C449.004 126.084 449.078 126.115 449.133 126.169C449.188 126.224 449.218 126.298 449.218 126.375L449.229 129.611Z" fill="#1D1D1D"/>
<path d="M487.688 144.693C488.046 148.33 491.037 151.04 494.489 151.871C496.658 152.394 498.818 152.416 500.97 151.935C503.314 151.414 505.201 150.503 506.632 149.2C506.71 149.129 506.812 149.091 506.917 149.093C507.022 149.095 507.122 149.137 507.196 149.211L510.897 152.873C511.11 153.083 511.108 153.293 510.89 153.501C506.06 158.1 498.857 159.66 492.415 158.029C483.753 155.838 479.746 148.589 480.407 140.037C480.968 132.796 485.454 127.33 492.695 125.732C495.34 125.149 498.038 125.133 500.789 125.682C507.495 127.022 511.498 131.022 512.801 137.683C513.208 139.762 513.319 141.846 513.134 143.937C513.125 144.042 513.077 144.14 513 144.211C512.922 144.282 512.821 144.321 512.715 144.321L488.025 144.324C487.978 144.324 487.931 144.334 487.888 144.352C487.845 144.371 487.806 144.399 487.774 144.434C487.743 144.469 487.719 144.51 487.704 144.555C487.689 144.599 487.683 144.647 487.688 144.693ZM501.897 132.501C499.669 131.478 497.296 131.193 494.777 131.645C491.066 132.313 488.721 134.562 487.741 138.393C487.727 138.447 487.725 138.504 487.737 138.559C487.748 138.614 487.772 138.665 487.806 138.71C487.84 138.754 487.884 138.79 487.934 138.814C487.985 138.839 488.04 138.851 488.096 138.851L505.861 138.844C506.214 138.844 506.353 138.671 506.28 138.326C505.679 135.503 504.218 133.562 501.897 132.501Z" fill="#1D1D1D"/>
<path d="M526.506 130.437C527.032 130.015 527.366 129.383 527.824 128.882C529.841 126.692 532.27 125.51 535.111 125.337C538.123 125.153 540.911 125.92 543.475 127.639C543.615 127.733 543.715 127.876 543.755 128.04C543.795 128.204 543.772 128.376 543.692 128.523L540.922 133.556C540.904 133.587 540.881 133.614 540.852 133.636C540.824 133.657 540.791 133.673 540.756 133.681C540.721 133.69 540.684 133.691 540.649 133.684C540.613 133.678 540.579 133.664 540.549 133.644C538.404 132.224 535.893 131.695 533.307 132.355C528.644 133.545 526.907 137.963 526.904 142.491C526.899 147.707 526.901 152.772 526.911 157.685C526.911 157.81 526.848 157.873 526.723 157.873H520.159C520.078 157.873 519.999 157.84 519.941 157.782C519.883 157.725 519.851 157.646 519.851 157.564L519.84 126.389C519.84 126.178 519.945 126.071 520.156 126.069L525.934 126.062C526.046 126.062 526.102 126.116 526.105 126.225L526.194 130.292C526.194 130.328 526.205 130.363 526.224 130.393C526.244 130.423 526.272 130.447 526.304 130.462C526.337 130.477 526.373 130.483 526.409 130.479C526.444 130.474 526.478 130.46 526.506 130.437Z" fill="#1D1D1D"/>
<path d="M160.522 156.186C158.485 160.413 155.136 163.167 150.474 164.451C149.156 164.815 147.228 164.982 144.692 164.952C142.01 164.918 139.404 164.904 136.876 164.909C134.527 164.911 132.875 163.932 131.921 161.972C131.256 160.603 131.259 159.191 131.932 157.735C132.827 155.798 134.375 154.805 136.577 154.755C139.475 154.689 142.57 154.685 145.861 154.744C147.161 154.768 148.178 154.6 148.912 154.24C150.839 153.298 151.813 151.692 151.835 149.424C151.861 146.5 151.865 143.305 151.849 139.839C151.837 136.993 153.171 135.202 155.851 134.465C158.075 133.854 160.486 135.101 161.502 137.168C161.831 137.838 161.999 138.739 162.006 139.871C162.03 143.943 162.012 147.478 161.953 150.475C161.915 152.386 161.438 154.29 160.522 156.186Z" fill="white"/>
<path d="M70.1704 149.716C70.2521 152.23 72.1344 154.656 74.8407 154.691C77.9448 154.729 81.2311 154.731 84.6997 154.698C85.6374 154.689 86.4282 154.792 87.0722 155.007C92.4598 156.794 91.2665 164.785 85.4527 164.888C80.883 164.968 77.0722 164.947 74.0203 164.824C71.0654 164.703 67.8868 163.368 65.5996 161.485C61.6184 158.207 59.8142 153.644 59.9314 148.487C59.9906 145.868 59.9882 143.201 59.9243 140.485C59.8935 139.136 60.0723 138.053 60.4606 137.239C61.4266 135.215 63.5184 134.085 65.7452 134.394C67.817 134.683 69.208 135.875 69.9183 137.971C70.0864 138.47 70.1562 139.493 70.1278 141.039C70.071 144.164 70.0852 147.057 70.1704 149.716Z" fill="white"/>
</svg>
