<svg width="136" height="137" viewBox="0 0 136 137" fill="none" xmlns="http://www.w3.org/2000/svg">
<path fill-rule="evenodd" clip-rule="evenodd" d="M4.77865 5.27853C0.385254 9.67193 0.385254 16.743 0.385254 30.8851V106.115C0.385254 120.257 0.385254 127.328 4.77865 131.721C9.17205 136.115 16.2431 136.115 30.3853 136.115H105.615C119.757 136.115 126.828 136.115 131.222 131.721C135.615 127.328 135.615 120.257 135.615 106.115V68.6423C135.615 66.9758 134.264 65.6248 132.598 65.6248C130.931 65.6248 129.58 66.9758 129.58 68.6423V100.08C129.58 114.222 129.58 121.293 125.187 125.687C120.793 130.08 113.722 130.08 99.5801 130.08H36.4202C22.2781 130.08 15.207 130.08 10.8136 125.687C6.42019 121.293 6.42019 114.222 6.42019 100.08V36.9201C6.42019 22.7779 6.42019 15.7069 10.8136 11.3135C15.207 6.92007 22.2781 6.92007 36.4202 6.92007H115.384C123.224 6.92007 129.58 13.2759 129.58 21.1163C129.58 24.8814 128.084 28.4922 125.422 31.1546L109.021 47.5562C107.842 48.7346 107.842 50.6452 109.021 51.8236C110.199 53.0019 112.109 53.0019 113.288 51.8236L129.69 35.4218C131.196 33.9154 131.949 33.1623 132.57 32.3423C134.123 30.2928 135.123 27.8784 135.475 25.331C135.615 24.3119 135.615 23.2467 135.615 21.1163C135.615 16.2507 135.615 13.8179 135.056 11.8277C133.641 6.79324 129.707 2.85883 124.672 1.4443C122.682 0.885132 120.249 0.885132 115.384 0.885132H30.3852C16.2431 0.885132 9.17205 0.885132 4.77865 5.27853Z" fill="url(#paint0_linear_48_108)"/>
<path d="M54.3009 117.418V91.4972H60.4099V117.418H54.3009ZM57.3722 87.8183C56.4047 87.8183 55.5722 87.4976 54.8747 86.8564C54.1771 86.2038 53.8284 85.4219 53.8284 84.5107C53.8284 83.5881 54.1771 82.8062 54.8747 82.1649C55.5722 81.5124 56.4047 81.1862 57.3722 81.1862C58.351 81.1862 59.1836 81.5124 59.8698 82.1649C60.5674 82.8062 60.9161 83.5881 60.9161 84.5107C60.9161 85.4219 60.5674 86.2038 59.8698 86.8564C59.1836 87.4976 58.351 87.8183 57.3722 87.8183Z" fill="#24DEFC"/>
<path d="M24.4352 117.418H17.7524L29.9198 82.8571H37.6488L49.833 117.418H43.1503L33.9193 89.9448H33.6493L24.4352 117.418ZM24.6546 103.867H42.8803V108.896H24.6546V103.867Z" fill="#24DEFC"/>
<path d="M61.0208 71.6541H49.3091V37.0928H61.257C64.6884 37.0928 67.636 37.7847 70.0999 39.1685C72.575 40.541 74.4763 42.5155 75.8038 45.0918C77.1314 47.6682 77.7952 50.7508 77.7952 54.3397C77.7952 57.9398 77.1258 61.0337 75.787 63.6213C74.4594 66.2089 72.5412 68.1946 70.0324 69.5784C67.5348 70.9622 64.5309 71.6541 61.0208 71.6541ZM55.5699 66.237H60.717C63.1246 66.237 65.1328 65.7982 66.7416 64.9207C68.3504 64.0319 69.5599 62.71 70.3699 60.9549C71.1799 59.1886 71.5849 56.9835 71.5849 54.3397C71.5849 51.6958 71.1799 49.502 70.3699 47.7582C69.5599 46.0031 68.3617 44.6924 66.7754 43.8262C65.2003 42.9486 63.2427 42.5099 60.9027 42.5099H55.5699V66.237Z" fill="white"/>
<path d="M17.7524 71.6541V37.0928H30.7129C33.368 37.0928 35.5956 37.554 37.3957 38.4766C39.207 39.3991 40.5739 40.6929 41.4965 42.358C42.4303 44.0118 42.8972 45.9412 42.8972 48.1463C42.8972 50.3627 42.4246 52.2865 41.4796 53.9178C40.5458 55.5379 39.1676 56.7923 37.3451 57.6811C35.5225 58.5586 33.2837 58.9974 30.6286 58.9974H21.3976V53.7997H29.7848C31.3373 53.7997 32.6086 53.5859 33.5987 53.1584C34.5887 52.7196 35.32 52.084 35.7925 51.2514C36.2763 50.4077 36.5182 49.3726 36.5182 48.1463C36.5182 46.92 36.2763 45.8737 35.7925 45.0075C35.3087 44.1299 34.5718 43.4661 33.5818 43.0161C32.5918 42.5549 31.3148 42.3242 29.751 42.3242H24.0133V71.6541H17.7524ZM35.6069 55.9935L44.1628 71.6541H37.1763L28.7722 55.9935H35.6069Z" fill="white"/>
<defs>
<linearGradient id="paint0_linear_48_108" x1="0.385251" y1="-3.13663" x2="142.689" y2="147.909" gradientUnits="userSpaceOnUse">
<stop stop-color="#EE4C98"/>
<stop offset="0.458333" stop-color="#2CDFF2"/>
<stop offset="1" stop-color="#A5F749"/>
</linearGradient>
</defs>
</svg>
