<svg width="181" height="181" viewBox="0 0 181 181" fill="none" xmlns="http://www.w3.org/2000/svg">
<path d="M114.394 180.284L65.8807 180.291C57.2502 180.292 48.704 178.593 40.7301 175.291C32.7563 171.989 25.5109 167.148 19.4077 161.046C13.3046 154.944 8.46311 147.699 5.15984 139.726C1.85657 131.753 0.156166 123.207 0.155722 114.576L0.152344 66.016C0.151456 57.3852 1.85065 48.8387 5.1529 40.8646C8.45516 32.8906 13.2958 25.645 19.3984 19.5418C25.501 13.4386 32.746 8.59723 40.7197 5.29416C48.6935 1.99109 57.2397 0.291016 65.8705 0.291016H114.39C131.82 0.291016 148.535 7.21488 160.86 19.5394C173.185 31.864 180.108 48.5797 180.108 66.0092L180.105 114.569C180.104 131.997 173.181 148.711 160.858 161.035C148.535 173.358 131.821 180.282 114.394 180.284ZM42.7127 51.6399C42.1628 53.1362 41.8834 54.6539 41.8744 56.1931C41.8541 59.1789 41.8406 62.3101 41.8338 65.5867C41.827 67.4323 42.3476 69.0548 43.8248 70.1838C45.525 71.4852 48.0838 71.4243 49.757 70.0418C51.2004 68.8486 51.5519 67.2971 51.5418 65.394C51.5283 62.789 51.5204 60.1333 51.5181 57.4268C51.5181 56.4128 51.6196 55.5801 51.8224 54.9289C52.3733 53.1475 54.2899 51.7548 56.2133 51.7244C59.2036 51.6771 62.2165 51.6816 65.252 51.7379C67.2531 51.7717 68.9094 51.2816 70.0654 49.6456C71.3026 47.9014 71.2417 45.373 69.8457 43.7234C68.7741 42.4559 67.2362 41.9691 65.5122 41.9792C62.0825 41.9973 59.0459 42.013 56.4026 42.0266C50.1559 42.057 44.8354 45.8597 42.7127 51.6399ZM130.345 43.2637C128.605 42.4683 126.829 42.057 125.018 42.0299C121.662 41.9781 118.228 41.9736 114.715 42.0164C111.855 42.0502 109.604 44.4502 109.935 47.3504C110.256 50.1932 112.463 51.7143 115.269 51.7075C118.359 51.6962 121.367 51.6929 124.294 51.6974C126.194 51.7019 127.626 52.4714 128.59 54.0061C129.192 54.9559 129.297 56.0207 129.304 57.0956C129.322 59.8741 129.322 62.7417 129.304 65.6982C129.297 66.6695 129.415 67.4559 129.659 68.0576C130.487 70.0993 132.572 71.3601 134.699 71.1032C137.42 70.772 139.052 68.541 139.008 65.8132C138.97 63.3388 138.967 60.8375 138.998 58.3091C139.027 55.9902 138.858 54.1638 138.491 52.8297C137.263 48.3724 134.548 45.1837 130.345 43.2637ZM80.73 76.0079C80.73 74.7196 80.2182 73.4842 79.3073 72.5732C78.3964 71.6623 77.1609 71.1505 75.8726 71.1505C74.5844 71.1505 73.3489 71.6623 72.4379 72.5732C71.527 73.4842 71.0152 74.7196 71.0152 76.0079C71.0152 77.2961 71.527 78.5316 72.4379 79.4426C73.3489 80.3535 74.5844 80.8653 75.8726 80.8653C77.1609 80.8653 78.3964 80.3535 79.3073 79.4426C80.2182 78.5316 80.73 77.2961 80.73 76.0079ZM109.884 76.0113C109.884 75.3738 109.759 74.7427 109.515 74.1537C109.271 73.5648 108.913 73.0297 108.463 72.579C108.012 72.1282 107.477 71.7707 106.888 71.5268C106.299 71.2828 105.668 71.1573 105.03 71.1573C103.743 71.1573 102.508 71.6687 101.598 72.579C100.688 73.4893 100.176 74.7239 100.176 76.0113C100.176 77.2986 100.688 78.5333 101.598 79.4436C102.508 80.3539 103.743 80.8653 105.03 80.8653C105.668 80.8653 106.299 80.7397 106.888 80.4958C107.477 80.2518 108.012 79.8943 108.463 79.4436C108.913 78.9928 109.271 78.4577 109.515 77.8688C109.759 77.2799 109.884 76.6487 109.884 76.0113ZM73.2834 96.0492C69.217 93.8791 64.7213 98.0976 66.5872 102.259C66.9274 103.011 67.4311 103.74 68.0981 104.446C74.9262 111.652 83.6167 115.766 93.6188 114.691C101.336 113.86 108.509 109.438 113.457 103.536C115.225 101.431 115.1 98.4661 113.025 96.6441C111.547 95.3461 109.367 95.123 107.66 96.0222C107.038 96.3512 106.426 96.8706 105.825 97.5804C102.188 101.88 96.7759 104.987 91.087 105.156C85.3575 105.325 80.4122 102.918 76.3154 98.9934C75.3047 98.0233 74.5239 96.7117 73.2834 96.0492ZM137.565 130.865C138.437 129.06 138.891 127.249 138.927 125.43C138.984 122.577 139 119.213 138.978 115.337C138.971 114.26 138.811 113.402 138.498 112.764C137.531 110.797 135.236 109.611 133.12 110.192C130.569 110.893 129.299 112.598 129.31 115.306C129.326 118.605 129.322 121.646 129.297 124.43C129.277 126.588 128.349 128.116 126.515 129.013C125.816 129.356 124.849 129.516 123.611 129.493C120.479 129.437 117.534 129.44 114.776 129.503C112.68 129.551 111.206 130.496 110.354 132.339C109.714 133.725 109.711 135.069 110.344 136.372C111.252 138.238 112.824 139.17 115.059 139.167C117.466 139.163 119.946 139.176 122.499 139.208C124.913 139.237 126.747 139.078 128.002 138.731C132.439 137.51 135.627 134.888 137.565 130.865ZM56.0172 129.442C53.4415 129.409 51.65 127.1 51.5722 124.707C51.4911 122.176 51.4776 119.423 51.5317 116.449C51.5587 114.977 51.4922 114.004 51.3322 113.528C50.6562 111.534 49.3323 110.399 47.3605 110.124C45.2411 109.83 43.2501 110.905 42.3307 112.832C41.9611 113.607 41.791 114.637 41.8203 115.922C41.8811 118.506 41.8834 121.045 41.8271 123.537C41.7155 128.445 43.4327 132.789 47.2219 135.909C49.3987 137.7 52.424 138.971 55.2364 139.086C58.1411 139.203 61.7681 139.224 66.1173 139.147C71.6507 139.049 72.7865 131.443 67.6587 129.743C67.0457 129.538 66.2931 129.44 65.4007 129.449C62.0993 129.481 58.9715 129.478 56.0172 129.442Z" fill="#1FDAB9"/>
<path d="M42.71 51.6452C44.8328 45.865 50.1532 42.0623 56.3999 42.0319C59.0432 42.0183 62.0798 42.0026 65.5096 41.9845C67.2335 41.9744 68.7715 42.4611 69.843 43.7287C71.239 45.3783 71.2999 47.9067 70.0627 49.6509C68.9067 51.2869 67.2504 51.777 65.2493 51.7432C62.2138 51.6869 59.2009 51.6824 56.2106 51.7297C54.2872 51.7601 52.3706 53.1528 51.8197 54.9341C51.6169 55.5854 51.5154 56.4181 51.5154 57.4321C51.5177 60.1386 51.5256 62.7943 51.5391 65.3993C51.5492 67.3024 51.1977 68.8539 49.7544 70.0471C48.0811 71.4296 45.5223 71.4905 43.8221 70.1891C42.3449 69.0601 41.8244 67.4376 41.8311 65.592C41.8379 62.3154 41.8514 59.1842 41.8717 56.1984C41.8807 54.6592 42.1601 53.1415 42.71 51.6452Z" fill="white"/>
<path d="M130.344 43.2607C134.546 45.1807 137.262 48.3694 138.49 52.8267C138.857 54.1608 139.026 55.9872 138.997 58.3061C138.965 60.8345 138.969 63.3358 139.007 65.8102C139.051 68.538 137.418 70.769 134.697 71.1002C132.571 71.3571 130.486 70.0963 129.657 68.0546C129.414 67.4529 129.296 66.6665 129.302 65.6952C129.32 62.7387 129.32 59.8711 129.302 57.0926C129.296 56.0177 129.191 54.9529 128.589 54.0031C127.625 52.4684 126.193 51.6989 124.293 51.6944C121.366 51.6899 118.357 51.6932 115.268 51.7045C112.462 51.7113 110.255 50.1902 109.934 47.3474C109.603 44.4472 111.854 42.0472 114.713 42.0134C118.227 41.9706 121.661 41.9751 125.016 42.0269C126.828 42.054 128.604 42.4653 130.344 43.2607Z" fill="white"/>
<path d="M75.8681 80.8642C78.5508 80.8642 80.7255 78.6894 80.7255 76.0068C80.7255 73.3241 78.5508 71.1494 75.8681 71.1494C73.1855 71.1494 71.0107 73.3241 71.0107 76.0068C71.0107 78.6894 73.1855 80.8642 75.8681 80.8642Z" fill="white"/>
<path d="M105.026 80.8574C107.707 80.8574 109.88 78.6842 109.88 76.0034C109.88 73.3226 107.707 71.1494 105.026 71.1494C102.345 71.1494 100.172 73.3226 100.172 76.0034C100.172 78.6842 102.345 80.8574 105.026 80.8574Z" fill="white"/>
<path d="M66.5941 102.265C64.7282 98.1036 69.2239 93.8851 73.2903 96.0552C74.5308 96.7177 75.3116 98.0292 76.3223 98.9994C80.4191 102.924 85.3644 105.331 91.0939 105.162C96.7828 104.992 102.195 101.886 105.832 97.5864C106.433 96.8766 107.045 96.3572 107.667 96.0281C109.374 95.129 111.554 95.3521 113.031 96.6501C115.107 98.4721 115.232 101.436 113.464 103.542C108.516 109.444 101.343 113.866 93.6257 114.697C83.6236 115.772 74.9331 111.658 68.105 104.452C67.438 103.746 66.9343 103.017 66.5941 102.265Z" fill="white"/>
<path d="M137.566 130.862C135.628 134.884 132.441 137.506 128.004 138.727C126.749 139.074 124.914 139.233 122.501 139.204C119.948 139.172 117.468 139.159 115.061 139.163C112.825 139.166 111.254 138.234 110.345 136.368C109.712 135.065 109.716 133.721 110.356 132.335C111.207 130.492 112.681 129.547 114.777 129.499C117.535 129.436 120.48 129.433 123.613 129.489C124.85 129.512 125.818 129.352 126.516 129.009C128.351 128.112 129.278 126.584 129.298 124.426C129.323 121.643 129.328 118.602 129.312 115.302C129.301 112.594 130.57 110.889 133.121 110.188C135.237 109.607 137.533 110.793 138.499 112.761C138.813 113.398 138.973 114.256 138.979 115.333C139.002 119.209 138.985 122.573 138.929 125.426C138.893 127.245 138.438 129.057 137.566 130.862Z" fill="white"/>
<path d="M51.5677 124.707C51.6454 127.101 53.4369 129.409 56.0126 129.443C58.967 129.479 62.0948 129.481 65.3961 129.45C66.2885 129.441 67.0412 129.539 67.6541 129.744C72.7819 131.444 71.6461 139.05 66.1127 139.148C61.7635 139.224 58.1365 139.204 55.2318 139.087C52.4195 138.972 49.3942 137.701 47.2173 135.909C43.4281 132.79 41.7109 128.446 41.8225 123.538C41.8788 121.046 41.8766 118.507 41.8157 115.922C41.7864 114.638 41.9566 113.608 42.3261 112.833C43.2456 110.906 45.2365 109.831 47.3559 110.125C49.3277 110.4 50.6516 111.535 51.3277 113.529C51.4877 114.005 51.5541 114.978 51.5271 116.45C51.473 119.424 51.4865 122.177 51.5677 124.707Z" fill="white"/>
</svg>
