<svg width="446" height="136" viewBox="0 0 446 136" fill="none" xmlns="http://www.w3.org/2000/svg">
<path d="M130 65.2404V130H6V6H130V29.365L107.371 51.9941" stroke="#A9FFF5" stroke-width="5.79228"/>
<path d="M179.902 46.0427C181.624 46.0427 183.206 46.2775 184.646 46.7472C186.118 47.1856 187.386 47.8588 188.45 48.7668C189.546 49.6435 190.392 50.7394 190.987 52.0545C191.613 53.3383 191.926 54.8412 191.926 56.5634C191.926 57.9098 191.722 59.2248 191.315 60.5086C190.94 61.7924 190.298 62.9666 189.39 64.0312C188.482 65.0644 187.292 65.9098 185.82 66.5674C184.38 67.1936 182.595 67.5067 180.466 67.5067H175.44V80H170.885V46.0427H179.902ZM180.372 63.1388C181.718 63.1388 182.83 62.9352 183.707 62.5282C184.615 62.1212 185.319 61.6045 185.82 60.9783C186.321 60.3207 186.681 59.6162 186.9 58.8648C187.12 58.1133 187.229 57.4088 187.229 56.7512C187.229 56.0624 187.104 55.3579 186.853 54.6377C186.634 53.8862 186.259 53.1974 185.726 52.5712C185.225 51.9449 184.552 51.4283 183.707 51.0212C182.893 50.6142 181.891 50.4107 180.701 50.4107H175.44V63.1388H180.372ZM185.961 65.722L194.838 80H189.578L180.56 65.8629L185.961 65.722ZM198.997 63.0448C198.997 60.6965 199.435 58.489 200.312 56.4225C201.22 54.3246 202.473 52.4772 204.069 50.8803C205.666 49.2521 207.498 47.984 209.565 47.076C211.663 46.1366 213.917 45.667 216.328 45.667C218.708 45.667 220.931 46.1366 222.997 47.076C225.095 47.984 226.943 49.2521 228.539 50.8803C230.168 52.4772 231.436 54.3246 232.344 56.4225C233.252 58.489 233.706 60.6965 233.706 63.0448C233.706 65.4558 233.252 67.7102 232.344 69.8081C231.436 71.906 230.168 73.7534 228.539 75.3502C226.943 76.9158 225.095 78.1526 222.997 79.0607C220.931 79.9374 218.708 80.3757 216.328 80.3757C213.917 80.3757 211.663 79.9374 209.565 79.0607C207.498 78.1839 205.666 76.9628 204.069 75.3972C202.473 73.8316 201.22 71.9999 200.312 69.9021C199.435 67.8042 198.997 65.5184 198.997 63.0448ZM203.694 63.0918C203.694 64.8766 204.023 66.5517 204.68 68.1173C205.338 69.6516 206.246 71.0136 207.404 72.2034C208.563 73.3933 209.909 74.3326 211.443 75.0215C212.978 75.679 214.637 76.0078 216.422 76.0078C218.175 76.0078 219.819 75.679 221.353 75.0215C222.888 74.3326 224.218 73.3933 225.346 72.2034C226.473 71.0136 227.365 69.6516 228.023 68.1173C228.68 66.5517 229.009 64.8609 229.009 63.0448C229.009 61.2601 228.68 59.5849 228.023 58.0193C227.365 56.4225 226.457 55.0291 225.299 53.8393C224.14 52.6494 222.794 51.7257 221.259 51.0682C219.725 50.3794 218.081 50.0349 216.328 50.0349C214.543 50.0349 212.884 50.3794 211.349 51.0682C209.815 51.7571 208.469 52.6964 207.31 53.8862C206.152 55.0761 205.259 56.4694 204.633 58.0663C204.007 59.6319 203.694 61.3071 203.694 63.0918ZM239.268 63.0448C239.268 60.6965 239.706 58.489 240.583 56.4225C241.491 54.3246 242.743 52.4772 244.34 50.8803C245.937 49.2521 247.769 47.984 249.835 47.076C251.933 46.1366 254.188 45.667 256.599 45.667C258.978 45.667 261.201 46.1366 263.268 47.076C265.366 47.984 267.213 49.2521 268.81 50.8803C270.438 52.4772 271.706 54.3246 272.614 56.4225C273.522 58.489 273.976 60.6965 273.976 63.0448C273.976 65.4558 273.522 67.7102 272.614 69.8081C271.706 71.906 270.438 73.7534 268.81 75.3502C267.213 76.9158 265.366 78.1526 263.268 79.0607C261.201 79.9374 258.978 80.3757 256.599 80.3757C254.188 80.3757 251.933 79.9374 249.835 79.0607C247.769 78.1839 245.937 76.9628 244.34 75.3972C242.743 73.8316 241.491 71.9999 240.583 69.9021C239.706 67.8042 239.268 65.5184 239.268 63.0448ZM243.964 63.0918C243.964 64.8766 244.293 66.5517 244.951 68.1173C245.608 69.6516 246.516 71.0136 247.675 72.2034C248.833 73.3933 250.18 74.3326 251.714 75.0215C253.248 75.679 254.908 76.0078 256.693 76.0078C258.446 76.0078 260.09 75.679 261.624 75.0215C263.158 74.3326 264.489 73.3933 265.616 72.2034C266.744 71.0136 267.636 69.6516 268.293 68.1173C268.951 66.5517 269.28 64.8609 269.28 63.0448C269.28 61.2601 268.951 59.5849 268.293 58.0193C267.636 56.4225 266.728 55.0291 265.569 53.8393C264.411 52.6494 263.064 51.7257 261.53 51.0682C259.996 50.3794 258.352 50.0349 256.599 50.0349C254.814 50.0349 253.154 50.3794 251.62 51.0682C250.086 51.7571 248.739 52.6964 247.581 53.8862C246.422 55.0761 245.53 56.4694 244.904 58.0663C244.278 59.6319 243.964 61.3071 243.964 63.0918ZM281.652 80V44.9625H281.699L299.499 70.2308L297.574 69.8551L315.327 44.9625H315.421V80H310.913V55.2953L311.194 57.5966L298.372 75.726H298.278L285.268 57.5966L286.067 55.4831V80H281.652ZM170.885 134V100.043H180.137C183.487 100.043 186.337 100.559 188.685 101.593C191.065 102.626 192.975 103.988 194.415 105.679C195.855 107.37 196.904 109.248 197.562 111.315C198.251 113.35 198.595 115.385 198.595 117.421C198.595 119.988 198.141 122.29 197.233 124.325C196.356 126.36 195.135 128.098 193.57 129.538C192.004 130.978 190.204 132.09 188.169 132.873C186.165 133.624 184.035 134 181.781 134H170.885ZM175.44 129.632H180.889C182.767 129.632 184.489 129.35 186.055 128.787C187.652 128.223 189.03 127.409 190.188 126.344C191.378 125.28 192.302 123.98 192.959 122.446C193.617 120.88 193.945 119.111 193.945 117.139C193.945 115.041 193.601 113.209 192.912 111.644C192.223 110.047 191.284 108.716 190.094 107.651C188.904 106.587 187.558 105.788 186.055 105.256C184.552 104.692 182.971 104.411 181.311 104.411H175.44V129.632ZM206.248 100.043H228.322V104.411H210.803V114.743H226.443V119.111H210.803V129.632H228.98V134H206.248V100.043ZM254.452 106.101C253.294 105.507 252.025 104.99 250.648 104.552C249.27 104.113 247.924 103.894 246.609 103.894C244.792 103.894 243.337 104.317 242.241 105.162C241.176 106.008 240.644 107.135 240.644 108.544C240.644 109.608 240.988 110.516 241.677 111.268C242.366 111.988 243.274 112.614 244.401 113.147C245.528 113.679 246.702 114.18 247.924 114.65C248.988 115.057 250.037 115.511 251.07 116.012C252.104 116.513 253.027 117.139 253.842 117.89C254.687 118.642 255.344 119.565 255.814 120.661C256.315 121.757 256.566 123.119 256.566 124.747C256.566 126.532 256.112 128.16 255.204 129.632C254.327 131.104 253.059 132.262 251.399 133.108C249.74 133.953 247.767 134.376 245.481 134.376C243.978 134.376 242.538 134.204 241.16 133.859C239.814 133.515 238.562 133.076 237.403 132.544C236.244 131.98 235.211 131.401 234.303 130.806L236.323 127.237C237.074 127.769 237.935 128.286 238.906 128.787C239.877 129.256 240.894 129.648 241.959 129.961C243.023 130.243 244.057 130.384 245.059 130.384C246.123 130.384 247.172 130.196 248.205 129.82C249.27 129.413 250.147 128.802 250.836 127.988C251.524 127.174 251.869 126.094 251.869 124.747C251.869 123.589 251.556 122.634 250.93 121.882C250.335 121.1 249.536 120.442 248.534 119.91C247.532 119.346 246.468 118.845 245.34 118.407C244.276 118 243.196 117.561 242.1 117.092C241.004 116.591 239.986 115.996 239.047 115.307C238.107 114.587 237.356 113.71 236.792 112.677C236.229 111.644 235.947 110.391 235.947 108.92C235.947 107.135 236.37 105.585 237.215 104.27C238.092 102.923 239.282 101.874 240.785 101.123C242.288 100.34 244.01 99.9175 245.951 99.8548C248.143 99.8548 250.068 100.121 251.728 100.653C253.419 101.186 254.906 101.843 256.19 102.626L254.452 106.101ZM336.856 131.088C336.386 131.495 335.729 131.902 334.883 132.309C334.038 132.685 333.099 133.029 332.065 133.342C331.063 133.656 330.014 133.906 328.919 134.094C327.854 134.282 326.852 134.376 325.913 134.376C323.189 134.376 320.731 133.953 318.539 133.108C316.378 132.262 314.515 131.088 312.95 129.585C311.415 128.082 310.226 126.313 309.38 124.278C308.566 122.243 308.159 120.035 308.159 117.655C308.159 114.837 308.613 112.317 309.521 110.094C310.46 107.839 311.729 105.945 313.325 104.411C314.954 102.845 316.817 101.671 318.915 100.888C321.012 100.074 323.236 99.667 325.584 99.667C327.557 99.667 329.388 99.9018 331.079 100.371C332.77 100.841 334.257 101.436 335.541 102.156L333.991 106.336C333.365 105.961 332.582 105.616 331.643 105.303C330.735 104.99 329.795 104.739 328.825 104.552C327.854 104.332 326.946 104.223 326.101 104.223C324.097 104.223 322.281 104.536 320.652 105.162C319.024 105.757 317.631 106.634 316.472 107.792C315.314 108.92 314.421 110.297 313.795 111.925C313.169 113.522 312.856 115.323 312.856 117.327C312.856 119.174 313.169 120.865 313.795 122.399C314.421 123.933 315.314 125.264 316.472 126.391C317.631 127.487 319.008 128.348 320.605 128.975C322.234 129.569 324.018 129.867 325.96 129.867C327.118 129.867 328.261 129.757 329.388 129.538C330.515 129.288 331.486 128.943 332.3 128.505V121.742H325.537V117.374H336.856V131.088ZM374.945 135.08L348.691 108.45L350.006 108.779L350.1 134H345.544V99.0094H345.779L371.752 125.734L370.671 125.499L370.577 100.043H375.086V135.08H374.945ZM384.851 100.043H406.926V104.411H389.407V114.743H405.047V119.111H389.407V129.632H407.583V134H384.851V100.043ZM424.508 100.043C426.23 100.043 427.811 100.278 429.252 100.747C430.723 101.186 431.991 101.859 433.056 102.767C434.152 103.644 434.997 104.739 435.592 106.055C436.218 107.338 436.531 108.841 436.531 110.563C436.531 111.91 436.328 113.225 435.921 114.509C435.545 115.792 434.903 116.967 433.995 118.031C433.087 119.064 431.897 119.91 430.426 120.567C428.985 121.194 427.201 121.507 425.071 121.507H420.046V134H415.49V100.043H424.508ZM424.978 117.139C426.324 117.139 427.435 116.935 428.312 116.528C429.22 116.121 429.925 115.605 430.426 114.978C430.927 114.321 431.287 113.616 431.506 112.865C431.725 112.113 431.835 111.409 431.835 110.751C431.835 110.062 431.709 109.358 431.459 108.638C431.24 107.886 430.864 107.197 430.332 106.571C429.831 105.945 429.158 105.428 428.312 105.021C427.498 104.614 426.496 104.411 425.306 104.411H420.046V117.139H424.978ZM430.567 119.722L439.443 134H434.183L425.165 119.863L430.567 119.722Z" fill="white"/>
<path d="M259.902 134L275.495 98.0701H275.871L291.464 134H283.573L273.616 108.732L278.548 105.35L266.618 134H259.902ZM270.563 121.507H280.943L283.338 127.237H268.45L270.563 121.507ZM295.423 113.475H301.998V134H295.423V113.475ZM295.282 106.195C295.282 105.225 295.657 104.426 296.409 103.8C297.192 103.174 298.021 102.861 298.898 102.861C299.775 102.861 300.573 103.174 301.293 103.8C302.045 104.426 302.421 105.225 302.421 106.195C302.421 107.166 302.045 107.965 301.293 108.591C300.573 109.186 299.775 109.483 298.898 109.483C298.021 109.483 297.192 109.186 296.409 108.591C295.657 107.965 295.282 107.166 295.282 106.195Z" fill="#A9FFF5"/>
</svg>
