<svg width="619" height="229" viewBox="0 0 619 229" fill="none" xmlns="http://www.w3.org/2000/svg">
<path d="M60.8619 72.9454C60.2842 74.5175 59.9906 76.1121 59.9812 77.7293C59.9599 80.8665 59.9456 84.1563 59.9385 87.599C59.9314 89.5381 60.4784 91.2428 62.0304 92.429C63.8168 93.7964 66.5053 93.7325 68.2633 92.2799C69.7798 91.0262 70.1492 89.396 70.1385 87.3965C70.1243 84.6595 70.116 81.8692 70.1137 79.0256C70.1137 77.9601 70.2202 77.0853 70.4333 76.401C71.0122 74.5293 73.0259 73.0661 75.0468 73.0341C78.1887 72.9844 81.3543 72.9892 84.5435 73.0483C86.646 73.0839 88.3863 72.5689 89.6009 70.8499C90.9008 69.0174 90.8368 66.3608 89.3701 64.6277C88.2442 63.2959 86.6283 62.7844 84.817 62.7951C81.2134 62.814 78.0229 62.8306 75.2456 62.8448C68.6824 62.8768 63.0923 66.8722 60.8619 72.9454Z" stroke="#8FEDDC" stroke-width="0.710306"/>
<path d="M152.935 64.1448C151.107 63.309 149.242 62.8769 147.338 62.8484C143.813 62.794 140.204 62.7893 136.513 62.8342C133.508 62.8698 131.143 65.3913 131.491 68.4386C131.828 71.4254 134.148 73.0236 137.095 73.0165C140.341 73.0046 143.502 73.0011 146.578 73.0058C148.574 73.0105 150.079 73.8191 151.092 75.4315C151.724 76.4295 151.834 77.5482 151.841 78.6776C151.86 81.597 151.86 84.6098 151.841 87.7162C151.834 88.7367 151.959 89.563 152.214 90.1952C153.084 92.3403 155.276 93.6651 157.51 93.3951C160.369 93.0471 162.084 90.7031 162.038 87.837C161.998 85.2373 161.994 82.6091 162.027 79.9526C162.058 77.5163 161.88 75.5972 161.494 74.1956C160.204 69.5123 157.351 66.162 152.935 64.1448Z" stroke="#8FEDDC" stroke-width="0.710306"/>
<path d="M100.806 98.5489C100.806 97.1953 100.268 95.8972 99.3109 94.9401C98.3538 93.983 97.0557 93.4453 95.7022 93.4453C94.3486 93.4453 93.0505 93.983 92.0934 94.9401C91.1363 95.8972 90.5986 97.1953 90.5986 98.5489C90.5986 99.9024 91.1363 101.201 92.0934 102.158C93.0505 103.115 94.3486 103.652 95.7022 103.652C97.0557 103.652 98.3538 103.115 99.3109 102.158C100.268 101.201 100.806 99.9024 100.806 98.5489Z" stroke="#8FEDDC" stroke-width="0.710306"/>
<path d="M131.438 98.5521C131.438 97.8824 131.306 97.2192 131.05 96.6005C130.794 95.9817 130.418 95.4195 129.945 94.9459C129.471 94.4723 128.909 94.0967 128.29 93.8404C127.671 93.5841 127.008 93.4521 126.338 93.4521C124.986 93.4521 123.688 93.9895 122.732 94.9459C121.776 95.9023 121.238 97.1995 121.238 98.5521C121.238 99.9047 121.776 101.202 122.732 102.158C123.688 103.115 124.986 103.652 126.338 103.652C127.008 103.652 127.671 103.52 128.29 103.264C128.909 103.008 129.471 102.632 129.945 102.158C130.418 101.685 130.794 101.123 131.05 100.504C131.306 99.8851 131.438 99.2219 131.438 98.5521Z" stroke="#8FEDDC" stroke-width="0.710306"/>
<path d="M92.9817 119.606C88.7093 117.325 83.9857 121.758 85.9462 126.13C86.3037 126.921 86.8329 127.686 87.5337 128.428C94.7078 135.999 103.839 140.322 114.348 139.192C122.456 138.319 129.992 133.673 135.192 127.472C137.049 125.26 136.918 122.145 134.737 120.231C133.185 118.867 130.894 118.632 129.101 119.577C128.447 119.923 127.804 120.469 127.172 121.214C123.351 125.732 117.665 128.996 111.688 129.173C105.668 129.351 100.472 126.822 96.1675 122.699C95.1056 121.68 94.2852 120.302 92.9817 119.606Z" stroke="#8FEDDC" stroke-width="0.710306"/>
<path d="M160.522 156.186C161.438 154.29 161.915 152.386 161.953 150.475C162.012 147.478 162.03 143.943 162.006 139.871C161.999 138.739 161.831 137.838 161.502 137.168C160.486 135.101 158.075 133.854 155.851 134.465C153.171 135.202 151.837 136.993 151.849 139.839C151.865 143.305 151.861 146.5 151.835 149.424C151.813 151.692 150.839 153.298 148.912 154.24C148.178 154.6 147.161 154.768 145.861 154.744C142.57 154.685 139.475 154.689 136.577 154.755C134.375 154.805 132.827 155.798 131.932 157.735C131.259 159.191 131.256 160.603 131.921 161.972C132.875 163.932 134.527 164.911 136.876 164.909C139.404 164.904 142.01 164.918 144.692 164.952C147.228 164.982 149.156 164.815 150.474 164.451C155.136 163.167 158.485 160.413 160.522 156.186Z" stroke="#8FEDDC" stroke-width="0.710306"/>
<path d="M74.8407 154.691C72.1344 154.656 70.2521 152.23 70.1704 149.716C70.0852 147.057 70.071 144.164 70.1278 141.039C70.1562 139.493 70.0864 138.47 69.9183 137.971C69.208 135.875 67.817 134.683 65.7452 134.394C63.5184 134.085 61.4266 135.215 60.4606 137.239C60.0723 138.053 59.8935 139.136 59.9243 140.485C59.9882 143.201 59.9906 145.868 59.9314 148.487C59.8142 153.644 61.6184 158.207 65.5996 161.485C67.8868 163.368 71.0654 164.703 74.0203 164.824C77.0722 164.947 80.883 164.968 85.4527 164.888C91.2665 164.785 92.4598 156.794 87.0722 155.007C86.4282 154.792 85.6374 154.689 84.6997 154.698C81.2311 154.731 77.9448 154.729 74.8407 154.691Z" stroke="#8FEDDC" stroke-width="0.710306"/>
<path d="M136.176 208.109L85.204 208.117C76.1361 208.118 67.1568 206.332 58.7788 202.863C50.4008 199.394 42.7883 194.308 36.3758 187.896C29.9633 181.485 24.8765 173.873 21.4058 165.496C17.9351 157.118 16.1485 148.139 16.1481 139.071L16.1445 88.0501C16.1436 78.9818 17.9289 70.0022 21.3985 61.624C24.8681 53.2458 29.9541 45.6331 36.3659 39.2206C42.7778 32.808 50.39 27.7213 58.7679 24.2508C67.1457 20.7804 76.1251 18.9941 85.1934 18.9941H136.172C154.485 18.9941 172.048 26.2689 184.997 39.2181C197.946 52.1672 205.221 69.7301 205.221 88.043L205.217 139.064C205.216 157.375 197.942 174.936 184.995 187.884C172.047 200.832 154.487 208.108 136.176 208.109ZM60.8618 72.9454C60.2841 74.5176 59.9905 76.1122 59.981 77.7293C59.9597 80.8665 59.9455 84.1564 59.9384 87.599C59.9313 89.5381 60.4783 91.2429 62.0303 92.4291C63.8167 93.7964 66.5052 93.7325 68.2632 92.2799C69.7797 91.0262 70.1491 89.3961 70.1384 87.3966C70.1242 84.6595 70.1159 81.8692 70.1136 79.0256C70.1136 77.9602 70.2201 77.0853 70.4332 76.401C71.0121 74.5294 73.0258 73.0662 75.0466 73.0342C78.1886 72.9845 81.3541 72.9892 84.5434 73.0484C86.6459 73.0839 88.3862 72.5689 89.6008 70.85C90.9007 69.0174 90.8367 66.3609 89.3699 64.6277C88.2441 63.2959 86.6282 62.7845 84.8169 62.7951C81.2133 62.8141 78.0228 62.8307 75.2455 62.8449C68.6823 62.8768 63.0922 66.8723 60.8618 72.9454ZM152.935 64.1447C151.107 63.3089 149.242 62.8768 147.338 62.8484C143.813 62.794 140.204 62.7892 136.513 62.8342C133.508 62.8697 131.143 65.3913 131.491 68.4385C131.828 71.4254 134.148 73.0235 137.095 73.0164C140.341 73.0046 143.502 73.001 146.578 73.0058C148.574 73.0105 150.079 73.8191 151.092 75.4315C151.724 76.4295 151.834 77.5482 151.841 78.6776C151.86 81.5969 151.86 84.6098 151.841 87.7162C151.834 88.7367 151.959 89.563 152.214 90.1952C153.084 92.3403 155.276 93.665 157.51 93.3951C160.369 93.0471 162.084 90.7031 162.038 87.837C161.998 85.2372 161.994 82.6091 162.027 79.9526C162.058 77.5162 161.88 75.5972 161.494 74.1955C160.204 69.5123 157.351 66.162 152.935 64.1447ZM100.806 98.5484C100.806 97.1948 100.268 95.8967 99.3111 94.9396C98.354 93.9825 97.0559 93.4448 95.7023 93.4448C94.3488 93.4448 93.0507 93.9825 92.0936 94.9396C91.1365 95.8967 90.5988 97.1948 90.5988 98.5484C90.5988 99.9019 91.1365 101.2 92.0936 102.157C93.0507 103.114 94.3488 103.652 95.7023 103.652C97.0559 103.652 98.354 103.114 99.3111 102.157C100.268 101.2 100.806 99.9019 100.806 98.5484ZM131.438 98.5519C131.438 97.8822 131.306 97.219 131.05 96.6003C130.793 95.9815 130.418 95.4193 129.944 94.9457C129.47 94.4721 128.908 94.0964 128.289 93.8401C127.671 93.5838 127.008 93.4519 126.338 93.4519C124.985 93.4519 123.688 93.9892 122.732 94.9457C121.775 95.9021 121.238 97.1993 121.238 98.5519C121.238 99.9045 121.775 101.202 122.732 102.158C123.688 103.115 124.985 103.652 126.338 103.652C127.008 103.652 127.671 103.52 128.289 103.264C128.908 103.007 129.47 102.632 129.944 102.158C130.418 101.685 130.793 101.122 131.05 100.504C131.306 99.8849 131.438 99.2217 131.438 98.5519ZM92.9819 119.605C88.7094 117.325 83.9858 121.758 85.9463 126.13C86.3038 126.92 86.833 127.686 87.5338 128.427C94.7079 135.999 103.839 140.321 114.348 139.192C122.456 138.318 129.992 133.673 135.192 127.472C137.049 125.259 136.918 122.145 134.737 120.23C133.185 118.867 130.894 118.632 129.101 119.577C128.447 119.923 127.805 120.468 127.172 121.214C123.351 125.732 117.665 128.996 111.688 129.173C105.668 129.351 100.472 126.822 96.1676 122.699C95.1057 121.679 94.2853 120.301 92.9819 119.605ZM160.521 156.186C161.438 154.29 161.915 152.386 161.953 150.475C162.012 147.478 162.029 143.943 162.006 139.87C161.999 138.739 161.831 137.838 161.501 137.168C160.486 135.101 158.074 133.854 155.851 134.465C153.171 135.201 151.837 136.992 151.848 139.838C151.865 143.305 151.86 146.5 151.834 149.424C151.813 151.692 150.839 153.298 148.911 154.24C148.177 154.6 147.16 154.768 145.861 154.744C142.569 154.685 139.475 154.689 136.577 154.755C134.375 154.805 132.826 155.798 131.931 157.735C131.259 159.191 131.255 160.603 131.921 161.972C132.875 163.932 134.526 164.911 136.875 164.909C139.404 164.904 142.01 164.918 144.692 164.951C147.228 164.982 149.155 164.815 150.474 164.451C155.136 163.167 158.485 160.412 160.521 156.186ZM74.8406 154.691C72.1344 154.655 70.2521 152.23 70.1704 149.715C70.0851 147.056 70.0709 144.164 70.1278 141.039C70.1562 139.493 70.0863 138.47 69.9182 137.97C69.2079 135.875 67.8169 134.683 65.7452 134.394C63.5184 134.085 61.4265 135.214 60.4605 137.239C60.0722 138.053 59.8934 139.135 59.9242 140.485C59.9881 143.201 59.9905 145.868 59.9313 148.486C59.8141 153.643 61.6183 158.207 65.5996 161.485C67.8867 163.367 71.0654 164.703 74.0202 164.823C77.0722 164.947 80.883 164.968 85.4526 164.887C91.2665 164.784 92.4598 156.793 87.0721 155.007C86.4281 154.792 85.6373 154.689 84.6997 154.698C81.231 154.731 77.9447 154.729 74.8406 154.691Z" fill="#1FDAB9"/>
<path d="M60.8619 72.9463C63.0923 66.8732 68.6824 62.8778 75.2456 62.8458C78.0229 62.8316 81.2134 62.815 84.817 62.7961C86.6283 62.7854 88.2442 63.2968 89.3701 64.6287C90.8368 66.3618 90.9008 69.0183 89.6009 70.8509C88.3863 72.5699 86.646 73.0848 84.5435 73.0493C81.3543 72.9901 78.1887 72.9854 75.0468 73.0351C73.0259 73.0671 71.0122 74.5303 70.4333 76.402C70.2202 77.0862 70.1137 77.9611 70.1137 79.0266C70.116 81.8701 70.1243 84.6605 70.1385 87.3975C70.1492 89.397 69.7798 91.0272 68.2633 92.2809C66.5053 93.7334 63.8168 93.7974 62.0304 92.43C60.4784 91.2438 59.9314 89.5391 59.9385 87.5999C59.9456 84.1573 59.9599 80.8674 59.9812 77.7302C59.9906 76.1131 60.2842 74.5185 60.8619 72.9463Z" fill="white"/>
<path d="M152.935 64.1448C157.351 66.162 160.204 69.5123 161.494 74.1956C161.88 75.5972 162.058 77.5163 162.027 79.9526C161.994 82.6091 161.998 85.2373 162.038 87.837C162.084 90.7031 160.369 93.0471 157.51 93.3951C155.276 93.6651 153.084 92.3403 152.214 90.1952C151.959 89.563 151.834 88.7367 151.841 87.7162C151.86 84.6098 151.86 81.597 151.841 78.6776C151.834 77.5482 151.724 76.4295 151.092 75.4315C150.079 73.8191 148.574 73.0105 146.578 73.0058C143.502 73.0011 140.341 73.0046 137.095 73.0165C134.148 73.0236 131.828 71.4254 131.491 68.4386C131.143 65.3913 133.508 62.8698 136.513 62.8342C140.204 62.7893 143.813 62.794 147.338 62.8484C149.242 62.8769 151.107 63.309 152.935 64.1448Z" fill="white"/>
<path d="M275.133 70.5093C278.784 72.1785 281.412 74.8931 283.018 78.6529C284.128 81.2621 284.559 84.2064 284.31 87.4856C283.838 93.7114 280.287 98.9357 274.444 101.319C269.895 103.173 264.021 103.087 259.482 101.06C252.386 97.8845 249.204 90.3979 250.344 82.9219C251.205 77.2536 254.095 73.1789 259.013 70.6975C263.808 68.2789 270.346 68.3251 275.133 70.5093ZM267.242 95.8423C268.517 95.8446 269.779 95.5862 270.958 95.0819C272.136 94.5776 273.208 93.8373 274.111 92.9032C275.014 91.9692 275.73 90.8597 276.22 89.6381C276.71 88.4165 276.964 87.1068 276.966 85.7836C276.968 84.4604 276.719 83.1498 276.234 81.9265C275.748 80.7032 275.035 79.5912 274.135 78.654C273.236 77.7169 272.167 76.9728 270.99 76.4644C269.814 75.956 268.552 75.6932 267.277 75.691C266.003 75.6887 264.74 75.9472 263.561 76.4515C262.383 76.9558 261.312 77.6961 260.409 78.6301C259.506 79.5641 258.789 80.6736 258.299 81.8952C257.809 83.1168 257.556 84.4266 257.553 85.7497C257.551 87.0729 257.8 88.3835 258.285 89.6068C258.771 90.8301 259.484 91.9421 260.384 92.8793C261.283 93.8165 262.352 94.5605 263.529 95.0689C264.706 95.5773 265.967 95.8401 267.242 95.8423Z" fill="white"/>
<path d="M314.04 70.6191C322.33 74.3624 324.865 84.605 321.882 92.4148C319.463 98.7579 313.611 102.388 306.909 102.615C304.418 102.698 302.16 102.425 300.136 101.798C293.804 99.8375 289.648 94.6381 288.924 88.0322C287.901 78.6811 293.115 70.8215 302.448 69.1878C306.494 68.4775 310.359 68.9546 314.04 70.6191ZM305.925 95.842C307.2 95.8443 308.463 95.5859 309.641 95.0816C310.82 94.5773 311.891 93.837 312.794 92.9029C313.697 91.9689 314.414 90.8594 314.904 89.6378C315.393 88.4162 315.647 87.1065 315.649 85.7833C315.651 84.4601 315.403 83.1495 314.917 81.9262C314.431 80.7029 313.718 79.5909 312.819 78.6537C311.919 77.7166 310.85 76.9725 309.674 76.4641C308.497 75.9557 307.235 75.6929 305.96 75.6907C304.686 75.6884 303.423 75.9469 302.245 76.4512C301.066 76.9555 299.995 77.6958 299.092 78.6298C298.189 79.5638 297.472 80.6733 296.982 81.8949C296.492 83.1165 296.239 84.4263 296.236 85.7494C296.234 87.0726 296.483 88.3832 296.969 89.6065C297.454 90.8298 298.167 91.9418 299.067 92.879C299.967 93.8162 301.035 94.5602 302.212 95.0686C303.389 95.577 304.651 95.8398 305.925 95.842Z" fill="white"/>
<path d="M336.294 72.356C336.306 72.8035 336.466 72.8651 336.773 72.5407C339.693 69.4509 343.702 68.3996 347.797 69.0709C351.242 69.632 353.93 71.3486 355.859 74.2206C355.872 74.2391 355.889 74.2543 355.908 74.265C355.928 74.2756 355.95 74.2813 355.972 74.2817C355.994 74.282 356.016 74.277 356.036 74.267C356.056 74.2569 356.074 74.2422 356.087 74.2241C358.274 71.2527 361.259 69.5219 365.04 69.0318C366.731 68.8116 368.392 68.8329 370.023 69.0957C377.46 70.2926 380.816 76.1988 380.788 83.2521C380.761 89.543 380.756 95.6339 380.77 101.525C380.77 101.601 380.739 101.674 380.686 101.728C380.632 101.782 380.558 101.812 380.482 101.812L373.564 101.798C373.389 101.798 373.301 101.711 373.301 101.535C373.291 95.9169 373.29 89.9089 373.297 83.5114C373.297 83.0852 373.174 82.1701 372.928 80.766C372.502 78.3273 371.182 76.7433 368.968 76.0141C368.371 75.8152 367.527 75.7312 366.436 75.7619C362.273 75.8791 359.493 78.5712 359.031 82.7123C358.953 83.425 358.914 84.1507 358.914 84.8894C358.921 90.6215 358.915 96.1726 358.896 101.542C358.894 101.722 358.804 101.812 358.626 101.812L351.807 101.795C351.711 101.795 351.619 101.756 351.551 101.689C351.483 101.621 351.445 101.528 351.445 101.432C351.466 95.3024 351.463 89.2483 351.434 83.2699C351.42 80.0806 350.159 76.696 346.728 75.9431C345.372 75.6447 343.379 75.6909 342.03 76.1846C338.127 77.6087 337.018 81.0857 337.008 84.9284C336.994 90.3954 336.987 95.9346 336.987 101.546C336.987 101.616 336.959 101.683 336.91 101.732C336.86 101.781 336.793 101.809 336.724 101.809L329.859 101.805C329.781 101.805 329.707 101.774 329.653 101.719C329.598 101.664 329.567 101.589 329.567 101.511V70.0191C329.567 69.939 329.6 69.8623 329.657 69.8056C329.714 69.749 329.792 69.7172 329.873 69.7172L335.775 69.6959C335.893 69.695 336.007 69.7405 336.092 69.8228C336.177 69.9051 336.226 70.0176 336.23 70.1363L336.294 72.356Z" fill="white"/>
<path d="M231.658 73.532C233.743 71.0175 236.105 69.2737 239.472 68.9683C242.907 68.6558 245.979 69.488 248.688 71.465C248.793 71.5416 248.866 71.6536 248.894 71.7798C248.922 71.9059 248.903 72.0378 248.841 72.1505L245.84 77.6092C245.819 77.6462 245.791 77.6785 245.758 77.7039C245.724 77.7294 245.685 77.7474 245.644 77.7568C245.603 77.7663 245.561 77.7668 245.52 77.7585C245.479 77.7502 245.44 77.7332 245.406 77.7086C243.965 76.6905 242.363 76.1649 240.601 76.1317C234.574 76.0145 232.024 80.6102 231.975 86.1222C231.927 91.2174 231.919 96.3565 231.95 101.539C231.95 101.575 231.944 101.61 231.93 101.643C231.917 101.676 231.897 101.706 231.872 101.731C231.847 101.756 231.817 101.776 231.784 101.79C231.751 101.803 231.715 101.81 231.68 101.809L224.843 101.806C224.748 101.806 224.657 101.768 224.589 101.7C224.522 101.632 224.484 101.54 224.484 101.443V70.0053C224.484 69.9309 224.514 69.8596 224.566 69.8069C224.617 69.7543 224.688 69.7248 224.761 69.7248L230.749 69.6963C230.847 69.6954 230.941 69.7328 231.012 69.8005C231.082 69.8683 231.123 69.961 231.126 70.0586L231.222 73.3793C231.233 73.8149 231.379 73.8659 231.658 73.532Z" fill="white"/>
<path d="M95.7032 103.652C98.5218 103.652 100.807 101.367 100.807 98.5489C100.807 95.7302 98.5218 93.4453 95.7032 93.4453C92.8845 93.4453 90.5996 95.7302 90.5996 98.5489C90.5996 101.367 92.8845 103.652 95.7032 103.652Z" fill="white"/>
<path d="M126.338 103.652C129.155 103.652 131.438 101.369 131.438 98.5521C131.438 95.7355 129.155 93.4521 126.338 93.4521C123.522 93.4521 121.238 95.7355 121.238 98.5521C121.238 101.369 123.522 103.652 126.338 103.652Z" fill="white"/>
<path d="M249.608 154.447C246.53 157.498 242.578 158.962 237.75 158.836C230.913 158.655 225.518 154.716 223.38 148.26C222.497 145.596 222.225 142.665 222.564 139.466C223.451 131.038 229.695 125.086 238.283 125.104C242.509 125.116 246.076 126.375 248.983 128.883C248.999 128.897 249.019 128.906 249.039 128.909C249.06 128.912 249.082 128.909 249.101 128.9C249.121 128.891 249.137 128.877 249.149 128.859C249.161 128.84 249.168 128.819 249.168 128.797V112.958C249.168 112.902 249.19 112.849 249.229 112.809C249.269 112.77 249.322 112.748 249.378 112.748L256.253 112.773C256.352 112.774 256.446 112.813 256.515 112.882C256.584 112.952 256.623 113.045 256.623 113.142L256.626 157.746C256.626 157.809 256.602 157.87 256.557 157.916C256.513 157.961 256.452 157.988 256.388 157.991C254.589 158.069 252.538 158.073 250.237 158.002C250.074 157.997 249.989 157.912 249.981 157.746L249.85 154.542C249.841 154.327 249.76 154.295 249.608 154.447ZM237.81 132.146C230.604 133.088 228.083 141.597 231.247 147.322C232.842 150.202 235.669 151.808 238.975 151.932C239.972 151.97 240.826 151.918 241.536 151.776C247.233 150.632 249.953 145.28 248.912 139.846C248.169 135.97 245.991 133.478 242.378 132.37C240.996 131.948 239.234 131.962 237.81 132.146Z" fill="white"/>
<path d="M343.159 148.998L339.185 157.834C339.163 157.883 339.128 157.924 339.083 157.953C339.038 157.982 338.986 157.997 338.933 157.998H331.197C331.151 157.997 331.106 157.986 331.065 157.964C331.025 157.942 330.99 157.91 330.965 157.871C330.94 157.832 330.925 157.787 330.922 157.741C330.918 157.695 330.926 157.649 330.945 157.607L351.036 112.964C351.058 112.916 351.094 112.874 351.138 112.845C351.183 112.816 351.235 112.801 351.288 112.801L359.468 112.804C359.521 112.804 359.573 112.82 359.618 112.849C359.662 112.878 359.698 112.919 359.72 112.968L379.754 157.61C379.773 157.653 379.781 157.699 379.778 157.746C379.774 157.792 379.759 157.837 379.733 157.876C379.708 157.915 379.673 157.947 379.632 157.969C379.591 157.99 379.545 158.002 379.498 158.001L371.699 157.994C371.646 157.994 371.594 157.978 371.549 157.949C371.504 157.92 371.469 157.879 371.447 157.831L367.455 149.002C367.433 148.953 367.398 148.912 367.353 148.883C367.308 148.854 367.256 148.838 367.203 148.838L343.411 148.835C343.358 148.835 343.306 148.85 343.261 148.879C343.216 148.908 343.181 148.949 343.159 148.998ZM346.345 141.529C346.33 141.563 346.324 141.6 346.327 141.637C346.33 141.674 346.343 141.71 346.363 141.741C346.384 141.772 346.412 141.797 346.444 141.815C346.477 141.833 346.514 141.842 346.551 141.842H364.074C364.111 141.842 364.148 141.833 364.18 141.815C364.213 141.797 364.241 141.772 364.261 141.741C364.282 141.71 364.294 141.674 364.297 141.637C364.301 141.6 364.295 141.563 364.28 141.529L355.518 121.2C355.501 121.16 355.472 121.125 355.436 121.101C355.399 121.077 355.356 121.064 355.312 121.064C355.268 121.064 355.225 121.077 355.189 121.101C355.152 121.125 355.123 121.16 355.106 121.2L346.345 141.529Z" fill="#1FDAB9"/>
<path d="M393.133 112.809H386.044C385.868 112.809 385.725 112.952 385.725 113.128V157.679C385.725 157.855 385.868 157.998 386.044 157.998H393.133C393.31 157.998 393.453 157.855 393.453 157.679V113.128C393.453 112.952 393.31 112.809 393.133 112.809Z" fill="#1FDAB9"/>
<path d="M85.9462 126.13C83.9857 121.758 88.7093 117.325 92.9817 119.606C94.2852 120.302 95.1056 121.68 96.1675 122.699C100.472 126.822 105.668 129.351 111.688 129.173C117.665 128.996 123.351 125.732 127.172 121.214C127.804 120.469 128.447 119.923 129.101 119.577C130.894 118.632 133.185 118.867 134.737 120.231C136.918 122.145 137.049 125.26 135.192 127.472C129.992 133.673 122.456 138.319 114.348 139.192C103.839 140.322 94.7078 135.999 87.5337 128.428C86.8329 127.686 86.3037 126.921 85.9462 126.13Z" fill="white"/>
<path d="M428.034 153.636C428.021 153.644 428.01 153.655 428.003 153.669C427.996 153.682 427.993 153.697 427.994 153.712C427.995 153.727 428.001 153.742 428.009 153.754C428.018 153.767 428.03 153.776 428.044 153.782C430.13 154.537 431.84 155.681 433.173 157.213C434.889 159.19 435.7 161.525 435.606 164.22C435.403 169.97 431.763 174.125 426.453 175.919C421.9 177.455 417.22 177.626 412.414 176.43C405.822 174.789 401.362 169.959 401.522 162.98C401.523 162.883 401.564 162.79 401.633 162.721C401.703 162.653 401.797 162.615 401.894 162.615L408.376 162.611C408.771 162.611 408.968 162.809 408.966 163.204C408.962 167.306 412.492 169.789 416.317 170.176C417.447 170.292 418.656 170.319 419.947 170.257C423.68 170.076 427.849 168.105 428.023 164C428.19 160.107 424.773 158.065 421.378 157.653C419.865 157.468 418.327 157.369 416.793 157.291C408.483 156.872 402.026 151.686 401.287 143.173C401.211 142.295 401.208 141.247 401.276 140.03C401.717 131.961 407.932 126.382 415.618 125.284C419.486 124.733 423.256 125.339 426.926 127.103C426.954 127.117 426.987 127.121 427.018 127.115C427.049 127.108 427.076 127.091 427.096 127.067L430.9 122.436C430.949 122.377 431.018 122.34 431.094 122.331C431.169 122.322 431.245 122.344 431.305 122.39L436.081 126.055C436.368 126.273 436.393 126.518 436.156 126.79L432.384 131.155C432.14 131.434 432.138 131.717 432.377 132.004C435.048 135.203 436.164 138.854 435.726 142.957C435.269 147.235 433.191 150.509 429.49 152.777C429.023 153.063 428.538 153.35 428.034 153.636ZM428.243 142.275C428.416 140.397 428.127 138.673 427.377 137.1C425.968 134.146 423.497 132.475 419.965 132.089C414.655 131.507 409.999 133.868 408.898 139.345C408.078 143.433 409.814 147.908 413.803 149.634C419.901 152.269 427.565 149.641 428.243 142.275Z" fill="white"/>
<path d="M307.303 150.671C309.261 151.495 311.484 152.002 313.973 152.191C315.937 152.344 319.95 152.12 320.934 149.968C322.269 147.034 319.286 145.702 316.899 145.333C315.469 145.113 313.999 144.896 312.488 144.683C307.576 143.991 301.756 141.533 301.326 135.801C301.094 132.709 302.176 130.198 304.572 128.268C307.85 125.629 312.627 124.894 316.846 125.139C320.8 125.369 324.439 126.554 327.763 128.694C327.837 128.741 327.889 128.815 327.909 128.899C327.928 128.983 327.915 129.072 327.87 129.145L324.876 134.068C324.859 134.096 324.836 134.121 324.809 134.141C324.782 134.161 324.752 134.176 324.719 134.184C324.686 134.191 324.652 134.193 324.619 134.188C324.585 134.182 324.553 134.17 324.524 134.153C322.711 133.028 320.808 132.262 318.817 131.855C317.897 131.67 317.031 131.681 316.121 131.56C315.038 131.415 313.951 131.631 312.847 131.724C310.734 131.901 308.262 132.995 308.788 135.669C309.104 137.282 311.384 137.971 312.804 138.212C313.955 138.409 315.115 138.578 316.285 138.72C321.491 139.349 327.433 141.11 328.534 146.793C329.88 153.761 324.116 157.856 317.975 158.633C311.602 159.441 305.807 157.995 300.591 154.297C300.363 154.138 300.324 153.942 300.473 153.708L303.595 148.803C303.612 148.778 303.633 148.756 303.658 148.739C303.683 148.723 303.711 148.711 303.741 148.706C303.771 148.701 303.801 148.701 303.83 148.708C303.86 148.715 303.887 148.728 303.911 148.746C304.984 149.53 306.114 150.171 307.303 150.671Z" fill="white"/>
<path d="M271.003 144.598C270.96 144.613 270.924 144.642 270.901 144.681C270.877 144.72 270.868 144.766 270.875 144.811C271.507 148.7 274.434 151.15 278.227 151.807C282.35 152.521 286.644 151.587 289.787 148.81C289.827 148.775 289.878 148.757 289.932 148.759C289.985 148.761 290.036 148.783 290.074 148.821L294.113 152.82C294.158 152.865 294.195 152.919 294.22 152.979C294.245 153.039 294.258 153.103 294.258 153.168C294.258 153.232 294.245 153.296 294.22 153.356C294.195 153.416 294.158 153.47 294.113 153.516C289.762 157.831 283.536 159.457 277.463 158.651C270.001 157.664 264.706 152.852 263.371 145.226C262.966 142.914 263.012 139.576 263.598 137.221C265.313 130.314 270.704 125.821 277.676 125.206C286.445 124.429 294.045 128.211 295.949 137.385C296.363 139.378 296.52 141.495 296.421 143.735C296.397 144.282 296.126 144.554 295.608 144.552C287.527 144.523 279.447 144.517 271.369 144.534C271.245 144.534 271.123 144.555 271.003 144.598ZM270.957 138.244C270.878 138.521 270.984 138.66 271.273 138.66L288.785 138.663C288.986 138.663 289.071 138.564 289.037 138.365C288.181 133.215 283.376 131.276 278.678 131.731C274.636 132.121 272.062 134.292 270.957 138.244Z" fill="white"/>
<path d="M449.765 129.38C452.851 126.432 456.492 124.976 460.867 125.115C469.551 125.384 474.111 131.93 474.139 140.081C474.16 146.267 474.165 152.13 474.153 157.668C474.153 157.715 474.144 157.762 474.126 157.805C474.108 157.849 474.082 157.888 474.048 157.921C474.015 157.955 473.976 157.981 473.932 157.999C473.888 158.017 473.842 158.027 473.795 158.027L467.072 158.016C466.965 158.016 466.863 157.973 466.788 157.897C466.713 157.821 466.67 157.718 466.67 157.611C466.656 152.345 466.653 146.63 466.66 140.464C466.663 136.764 465.019 132.992 461.205 132.175C459.5 131.809 457.344 131.891 455.714 132.523C451.544 134.142 450.184 137.928 450.188 142.183C450.19 147.664 450.189 152.859 450.184 157.767C450.184 157.839 450.156 157.907 450.106 157.958C450.056 158.009 449.988 158.037 449.918 158.037L443.106 158.041C443.057 158.041 443.008 158.032 442.962 158.013C442.917 157.995 442.875 157.967 442.84 157.933C442.805 157.898 442.777 157.857 442.758 157.811C442.739 157.766 442.729 157.717 442.729 157.668V126.212C442.729 126.034 442.819 125.946 442.999 125.946H449.062C449.263 125.946 449.367 126.046 449.374 126.247L449.485 129.266C449.494 129.512 449.588 129.55 449.765 129.38Z" fill="white"/>
<path d="M487.926 144.697C487.884 144.873 487.885 145.044 487.93 145.212C488.898 148.88 491.301 151.071 495.139 151.786C499.199 152.539 503.695 151.626 506.792 148.803C506.833 148.768 506.885 148.749 506.938 148.75C506.992 148.751 507.042 148.773 507.08 148.81L511.203 152.901C511.261 152.96 511.296 153.037 511.299 153.119C511.303 153.201 511.277 153.282 511.224 153.345C510.703 153.97 510.123 154.517 509.484 154.986C504.473 158.666 497.945 159.806 491.698 158.08C485.412 156.339 481.377 151.463 480.358 144.925C480.116 143.369 480.076 141.591 480.237 139.59C480.66 134.352 483.583 129.642 488.232 127.128C491.915 125.139 496.503 124.688 500.63 125.416C507.126 126.563 511.572 130.701 512.961 137.388C513.418 139.59 513.568 141.767 513.412 143.92C513.384 144.313 513.173 144.509 512.78 144.509H488.171C488.115 144.509 488.061 144.527 488.017 144.561C487.972 144.595 487.94 144.643 487.926 144.697ZM506.075 138.404C505.023 133.055 500.239 131.106 495.218 131.791C491.365 132.314 488.937 134.535 487.933 138.454C487.927 138.479 487.926 138.505 487.931 138.53C487.936 138.555 487.947 138.579 487.963 138.599C487.979 138.619 487.999 138.636 488.022 138.647C488.046 138.658 488.071 138.664 488.097 138.663L505.862 138.66C506.037 138.66 506.108 138.575 506.075 138.404Z" fill="white"/>
<path d="M526.805 129.82C528.843 127.181 531.393 125.458 534.707 125.171C538.142 124.875 541.207 125.726 543.902 127.724C543.994 127.792 544.058 127.892 544.082 128.004C544.106 128.116 544.089 128.234 544.033 128.335L540.975 133.868C540.957 133.901 540.932 133.93 540.902 133.953C540.872 133.976 540.837 133.992 540.801 134C540.764 134.009 540.726 134.009 540.69 134.002C540.653 133.994 540.618 133.979 540.588 133.957C539.191 132.932 537.662 132.394 536 132.345C529.181 132.132 527.121 137.427 527.096 143.173C527.077 148.015 527.082 152.863 527.11 157.717C527.111 157.758 527.103 157.799 527.087 157.837C527.072 157.876 527.049 157.911 527.02 157.94C526.991 157.969 526.956 157.993 526.918 158.009C526.88 158.025 526.839 158.033 526.798 158.033L520.011 158.04C519.915 158.04 519.823 158.002 519.755 157.935C519.687 157.868 519.648 157.776 519.648 157.681V126.371C519.648 126.084 519.792 125.941 520.078 125.941L526.016 125.945C526.059 125.945 526.101 125.953 526.141 125.97C526.18 125.987 526.215 126.011 526.245 126.042C526.275 126.073 526.298 126.11 526.313 126.15C526.328 126.19 526.334 126.232 526.332 126.275C526.292 127.423 526.332 128.572 526.453 129.72C526.489 130.044 526.606 130.078 526.805 129.82Z" fill="white"/>
<path d="M160.522 156.186C158.485 160.413 155.136 163.167 150.474 164.451C149.156 164.815 147.228 164.982 144.692 164.952C142.01 164.918 139.404 164.904 136.876 164.909C134.527 164.911 132.875 163.932 131.921 161.972C131.256 160.603 131.259 159.191 131.932 157.735C132.827 155.798 134.375 154.805 136.577 154.755C139.475 154.689 142.57 154.685 145.861 154.744C147.161 154.768 148.178 154.6 148.912 154.24C150.839 153.298 151.813 151.692 151.835 149.424C151.861 146.5 151.865 143.305 151.849 139.839C151.837 136.993 153.171 135.202 155.851 134.465C158.075 133.854 160.486 135.101 161.502 137.168C161.831 137.838 161.999 138.739 162.006 139.871C162.03 143.943 162.012 147.478 161.953 150.475C161.915 152.386 161.438 154.29 160.522 156.186Z" fill="white"/>
<path d="M70.1714 149.716C70.2531 152.23 72.1354 154.656 74.8417 154.691C77.9457 154.729 81.2321 154.731 84.7007 154.698C85.6383 154.689 86.4291 154.792 87.0731 155.007C92.4608 156.794 91.2675 164.785 85.4536 164.888C80.884 164.968 77.0732 164.947 74.0213 164.824C71.0664 164.703 67.8878 163.368 65.6006 161.485C61.6193 158.207 59.8152 153.644 59.9324 148.487C59.9916 145.868 59.9892 143.201 59.9253 140.485C59.8945 139.136 60.0732 138.053 60.4615 137.239C61.4276 135.215 63.5194 134.085 65.7462 134.394C67.8179 134.683 69.209 135.875 69.9193 137.971C70.0874 138.47 70.1572 139.493 70.1288 141.039C70.072 144.164 70.0862 147.057 70.1714 149.716Z" fill="white"/>
</svg>
