<svg width="136" height="137" viewBox="0 0 136 137" fill="none" xmlns="http://www.w3.org/2000/svg">
<path fill-rule="evenodd" clip-rule="evenodd" d="M0.385254 0.885132H135.615V29.4963L111.154 53.9572L106.887 49.6899L129.58 26.9966V6.92007H6.42019V130.08H129.58V65.6248H135.615V136.115H0.385254V0.885132Z" fill="url(#paint0_linear_42_51)"/>
<path d="M118.018 115.008V102.813H120.805V104.846H120.932C121.154 104.142 121.536 103.599 122.075 103.218C122.621 102.832 123.243 102.639 123.941 102.639C124.1 102.639 124.277 102.646 124.473 102.662C124.674 102.673 124.841 102.691 124.973 102.718V105.362C124.852 105.319 124.658 105.282 124.394 105.251C124.134 105.214 123.883 105.195 123.64 105.195C123.116 105.195 122.644 105.309 122.226 105.536C121.813 105.759 121.488 106.068 121.25 106.465C121.012 106.862 120.892 107.32 120.892 107.839V115.008H118.018Z" fill="white"/>
<path d="M110.164 115.247C108.941 115.247 107.885 114.993 106.996 114.484C106.112 113.971 105.432 113.246 104.956 112.309C104.479 111.367 104.241 110.258 104.241 108.982C104.241 107.728 104.479 106.627 104.956 105.679C105.437 104.727 106.11 103.986 106.972 103.456C107.835 102.922 108.849 102.654 110.013 102.654C110.765 102.654 111.474 102.776 112.141 103.02C112.813 103.258 113.406 103.628 113.92 104.131C114.438 104.634 114.846 105.274 115.142 106.053C115.439 106.825 115.587 107.746 115.587 108.816V109.697H105.591V107.76H112.832C112.827 107.209 112.707 106.719 112.475 106.291C112.242 105.857 111.916 105.515 111.498 105.267C111.085 105.018 110.603 104.893 110.053 104.893C109.465 104.893 108.949 105.036 108.505 105.322C108.06 105.603 107.713 105.973 107.465 106.434C107.221 106.889 107.097 107.389 107.092 107.934V109.625C107.092 110.335 107.221 110.943 107.481 111.451C107.74 111.954 108.102 112.341 108.568 112.611C109.034 112.875 109.579 113.008 110.204 113.008C110.622 113.008 111 112.949 111.339 112.833C111.678 112.711 111.972 112.534 112.22 112.301C112.469 112.068 112.657 111.78 112.784 111.436L115.468 111.737C115.298 112.447 114.976 113.066 114.499 113.595C114.028 114.119 113.425 114.527 112.689 114.818C111.953 115.104 111.112 115.247 110.164 115.247Z" fill="white"/>
<path d="M94.015 107.863V115.008H91.1409V102.813H93.888V104.885H94.0309C94.3114 104.203 94.7587 103.66 95.3727 103.258C95.992 102.856 96.7568 102.654 97.6672 102.654C98.5088 102.654 99.2419 102.834 99.8665 103.194C100.496 103.554 100.983 104.076 101.327 104.758C101.677 105.441 101.849 106.27 101.843 107.243V115.008H98.9693V107.688C98.9693 106.873 98.7576 106.235 98.3341 105.775C97.916 105.314 97.3364 105.084 96.5954 105.084C96.0925 105.084 95.6453 105.195 95.2536 105.417C94.8672 105.634 94.5628 105.949 94.3405 106.362C94.1235 106.775 94.015 107.275 94.015 107.863Z" fill="white"/>
<path d="M82.4708 119.836C81.4387 119.836 80.5521 119.695 79.8111 119.415C79.07 119.14 78.4746 118.769 78.0247 118.303C77.5748 117.838 77.2625 117.321 77.0878 116.755L79.6761 116.128C79.7925 116.366 79.9619 116.602 80.1842 116.835C80.4065 117.073 80.7056 117.269 81.0814 117.422C81.4625 117.581 81.9415 117.66 82.5185 117.66C83.3336 117.66 84.0085 117.462 84.5431 117.065C85.0777 116.673 85.345 116.027 85.345 115.128V112.817H85.202C85.0538 113.113 84.8368 113.418 84.551 113.73C84.2705 114.042 83.8973 114.304 83.4315 114.516C82.971 114.728 82.3914 114.834 81.6927 114.834C80.7559 114.834 79.9063 114.614 79.1441 114.175C78.3872 113.73 77.7838 113.069 77.3339 112.19C76.8893 111.306 76.667 110.2 76.667 108.871C76.667 107.532 76.8893 106.402 77.3339 105.481C77.7838 104.555 78.3899 103.853 79.1521 103.377C79.9143 102.895 80.7638 102.654 81.7007 102.654C82.4153 102.654 83.0028 102.776 83.4633 103.02C83.9291 103.258 84.2996 103.546 84.5748 103.885C84.8501 104.219 85.0591 104.533 85.202 104.83H85.3608V102.813H88.1953V115.207C88.1953 116.25 87.9465 117.112 87.4489 117.795C86.9514 118.478 86.2712 118.989 85.4085 119.328C84.5457 119.666 83.5665 119.836 82.4708 119.836ZM82.4946 112.579C83.1033 112.579 83.6221 112.431 84.0508 112.134C84.4795 111.838 84.8051 111.412 85.0274 110.856C85.2497 110.3 85.3608 109.633 85.3608 108.855C85.3608 108.088 85.2497 107.416 85.0274 106.839C84.8104 106.262 84.4875 105.814 84.0587 105.497C83.6353 105.174 83.1139 105.012 82.4946 105.012C81.8542 105.012 81.3196 105.179 80.8909 105.513C80.4621 105.846 80.1392 106.304 79.9222 106.886C79.7052 107.463 79.5967 108.119 79.5967 108.855C79.5967 109.602 79.7052 110.255 79.9222 110.816C80.1445 111.372 80.4701 111.806 80.8988 112.118C81.3328 112.425 81.8648 112.579 82.4946 112.579Z" fill="white"/>
<path d="M71.3375 115.008V102.813H74.2117V115.008H71.3375ZM72.7825 101.082C72.3273 101.082 71.9357 100.932 71.6075 100.63C71.2793 100.323 71.1152 99.955 71.1152 99.5263C71.1152 99.0922 71.2793 98.7244 71.6075 98.4227C71.9357 98.1157 72.3273 97.9622 72.7825 97.9622C73.243 97.9622 73.6347 98.1157 73.9576 98.4227C74.2858 98.7244 74.4499 99.0922 74.4499 99.5263C74.4499 99.955 74.2858 100.323 73.9576 100.63C73.6347 100.932 73.243 101.082 72.7825 101.082Z" fill="#24DEFC"/>
<path d="M57.2864 115.008H54.1423L59.8668 98.7482H63.5031L69.2355 115.008H66.0914L61.7485 102.083H61.6214L57.2864 115.008ZM57.3896 108.633H65.9644V110.999H57.3896V108.633Z" fill="#24DEFC"/>
<path d="M52.4393 106.037L49.8192 106.323C49.7451 106.058 49.6154 105.809 49.4302 105.576C49.2502 105.343 49.0067 105.155 48.6997 105.012C48.3927 104.87 48.0169 104.798 47.5723 104.798C46.9742 104.798 46.4714 104.928 46.0638 105.187C45.6615 105.447 45.463 105.783 45.4683 106.195C45.463 106.55 45.5927 106.839 45.8574 107.061C46.1273 107.283 46.5719 107.466 47.1912 107.609L49.2714 108.053C50.4253 108.302 51.2828 108.696 51.8438 109.236C52.4102 109.776 52.696 110.483 52.7013 111.356C52.696 112.124 52.471 112.801 52.0264 113.389C51.5871 113.971 50.9758 114.426 50.1924 114.754C49.409 115.083 48.5092 115.247 47.4929 115.247C46.0003 115.247 44.7988 114.934 43.8884 114.31C42.9779 113.68 42.4354 112.804 42.2607 111.682L45.0634 111.412C45.1904 111.962 45.4604 112.378 45.8733 112.658C46.2861 112.939 46.8234 113.079 47.485 113.079C48.1678 113.079 48.7156 112.939 49.1285 112.658C49.5466 112.378 49.7557 112.031 49.7557 111.618C49.7557 111.269 49.6207 110.98 49.3508 110.753C49.0861 110.525 48.6733 110.351 48.1122 110.229L46.032 109.792C44.8623 109.549 43.9969 109.138 43.4358 108.561C42.8747 107.979 42.5969 107.243 42.6021 106.354C42.5969 105.603 42.8006 104.952 43.2135 104.401C43.6316 103.845 44.2112 103.417 44.9523 103.115C45.6986 102.808 46.5587 102.654 47.5326 102.654C48.9617 102.654 50.0865 102.959 50.9069 103.567C51.7327 104.176 52.2434 104.999 52.4393 106.037Z" fill="white"/>
<path d="M34.9464 115.247C33.7237 115.247 32.6677 114.993 31.7785 114.484C30.8945 113.971 30.2144 113.246 29.738 112.309C29.2616 111.367 29.0234 110.258 29.0234 108.982C29.0234 107.728 29.2616 106.627 29.738 105.679C30.2197 104.727 30.8919 103.986 31.7547 103.456C32.6174 102.922 33.631 102.654 34.7955 102.654C35.5471 102.654 36.2564 102.776 36.9233 103.02C37.5955 103.258 38.1884 103.628 38.7018 104.131C39.2205 104.634 39.6281 105.274 39.9245 106.053C40.2209 106.825 40.3691 107.746 40.3691 108.816V109.697H30.3732V107.76H37.6141C37.6088 107.209 37.4897 106.719 37.2568 106.291C37.0239 105.857 36.6984 105.515 36.2802 105.267C35.8674 105.018 35.3857 104.893 34.8352 104.893C34.2477 104.893 33.7316 105.036 33.287 105.322C32.8424 105.603 32.4957 105.973 32.2469 106.434C32.0034 106.889 31.879 107.389 31.8737 107.934V109.625C31.8737 110.335 32.0034 110.943 32.2628 111.451C32.5221 111.954 32.8847 112.341 33.3505 112.611C33.8163 112.875 34.3615 113.008 34.9861 113.008C35.4042 113.008 35.7827 112.949 36.1214 112.833C36.4602 112.711 36.7539 112.534 37.0027 112.301C37.2515 112.068 37.4394 111.78 37.5664 111.436L40.25 111.737C40.0806 112.447 39.7578 113.066 39.2814 113.595C38.8103 114.119 38.2069 114.527 37.4712 114.818C36.7354 115.104 35.8938 115.247 34.9464 115.247Z" fill="white"/>
<path d="M18.9839 115.008H13.4739V98.7482H19.0951C20.7095 98.7482 22.0963 99.0737 23.2554 99.7247C24.4199 100.37 25.3144 101.299 25.939 102.512C26.5636 103.724 26.8759 105.174 26.8759 106.862C26.8759 108.556 26.561 110.012 25.9311 111.229C25.3065 112.447 24.404 113.381 23.2237 114.032C22.0486 114.683 20.6354 115.008 18.9839 115.008ZM16.4195 112.46H18.841C19.9737 112.46 20.9186 112.253 21.6755 111.841C22.4324 111.422 23.0014 110.8 23.3825 109.975C23.7636 109.144 23.9541 108.106 23.9541 106.862C23.9541 105.619 23.7636 104.586 23.3825 103.766C23.0014 102.94 22.4377 102.324 21.6913 101.916C20.9503 101.503 20.0293 101.297 18.9284 101.297H16.4195V112.46Z" fill="white"/>
<path d="M54.9185 88.0084V75.8132H57.6656V77.8854H57.8085C58.0625 77.1868 58.4833 76.6416 59.0709 76.2499C59.6584 75.8529 60.3597 75.6544 61.1748 75.6544C62.0006 75.6544 62.6966 75.8556 63.263 76.2578C63.8346 76.6548 64.2369 77.1973 64.4698 77.8854H64.5968C64.8668 77.2079 65.322 76.668 65.9624 76.2658C66.6082 75.8582 67.373 75.6544 68.257 75.6544C69.3791 75.6544 70.2948 76.0091 71.004 76.7183C71.7133 77.4276 72.068 78.4624 72.068 79.8227V88.0084H69.1859V80.2673C69.1859 79.5104 68.9847 78.9573 68.5825 78.6079C68.1802 78.2533 67.6879 78.076 67.1057 78.076C66.4123 78.076 65.8698 78.293 65.4781 78.727C65.0917 79.1558 64.8985 79.7142 64.8985 80.4023V88.0084H62.08V80.1482C62.08 79.5183 61.8894 79.0155 61.5083 78.6397C61.1325 78.2639 60.6402 78.076 60.0315 78.076C59.6187 78.076 59.2429 78.1819 58.9041 78.3936C58.5654 78.6 58.2954 78.8938 58.0943 79.2749C57.8932 79.6507 57.7926 80.09 57.7926 80.5928V88.0084H54.9185Z" fill="white"/>
<path d="M46.6355 88.2466C45.4446 88.2466 44.4124 87.9846 43.5391 87.4606C42.6657 86.9366 41.9882 86.2035 41.5066 85.2613C41.0302 84.3191 40.792 83.2182 40.792 81.9584C40.792 80.6987 41.0302 79.5951 41.5066 78.6476C41.9882 77.7002 42.6657 76.9644 43.5391 76.4404C44.4124 75.9164 45.4446 75.6544 46.6355 75.6544C47.8265 75.6544 48.8586 75.9164 49.732 76.4404C50.6053 76.9644 51.2802 77.7002 51.7566 78.6476C52.2382 79.5951 52.4791 80.6987 52.4791 81.9584C52.4791 83.2182 52.2382 84.3191 51.7566 85.2613C51.2802 86.2035 50.6053 86.9366 49.732 87.4606C48.8586 87.9846 47.8265 88.2466 46.6355 88.2466ZM46.6514 85.9441C47.2972 85.9441 47.837 85.7668 48.2711 85.4122C48.7051 85.0522 49.028 84.5706 49.2397 83.9672C49.4567 83.3638 49.5652 82.6915 49.5652 81.9505C49.5652 81.2042 49.4567 80.5293 49.2397 79.9259C49.028 79.3172 48.7051 78.8329 48.2711 78.473C47.837 78.113 47.2972 77.9331 46.6514 77.9331C45.9898 77.9331 45.4393 78.113 45 78.473C44.5659 78.8329 44.2404 79.3172 44.0234 79.9259C43.8117 80.5293 43.7058 81.2042 43.7058 81.9505C43.7058 82.6915 43.8117 83.3638 44.0234 83.9672C44.2404 84.5706 44.5659 85.0522 45 85.4122C45.4393 85.7668 45.9898 85.9441 46.6514 85.9441Z" fill="white"/>
<path d="M33.033 88.2466C31.842 88.2466 30.8099 87.9846 29.9365 87.4606C29.0632 86.9366 28.3857 86.2035 27.904 85.2613C27.4276 84.3191 27.1895 83.2182 27.1895 81.9584C27.1895 80.6987 27.4276 79.5951 27.904 78.6476C28.3857 77.7002 29.0632 76.9644 29.9365 76.4404C30.8099 75.9164 31.842 75.6544 33.033 75.6544C34.2239 75.6544 35.2561 75.9164 36.1294 76.4404C37.0028 76.9644 37.6776 77.7002 38.154 78.6476C38.6357 79.5951 38.8765 80.6987 38.8765 81.9584C38.8765 83.2182 38.6357 84.3191 38.154 85.2613C37.6776 86.2035 37.0028 86.9366 36.1294 87.4606C35.2561 87.9846 34.2239 88.2466 33.033 88.2466ZM33.0489 85.9441C33.6946 85.9441 34.2345 85.7668 34.6685 85.4122C35.1026 85.0522 35.4254 84.5706 35.6372 83.9672C35.8542 83.3638 35.9627 82.6915 35.9627 81.9505C35.9627 81.2042 35.8542 80.5293 35.6372 79.9259C35.4254 79.3172 35.1026 78.8329 34.6685 78.473C34.2345 78.113 33.6946 77.9331 33.0489 77.9331C32.3872 77.9331 31.8368 78.113 31.3974 78.473C30.9634 78.8329 30.6379 79.3172 30.4209 79.9259C30.2091 80.5293 30.1033 81.2042 30.1033 81.9505C30.1033 82.6915 30.2091 83.3638 30.4209 83.9672C30.6379 84.5706 30.9634 85.0522 31.3974 85.4122C31.8368 85.7668 32.3872 85.9441 33.0489 85.9441Z" fill="white"/>
<path d="M13.4739 88.0084V71.7482H19.5715C20.8206 71.7482 21.8687 71.9652 22.7155 72.3992C23.5677 72.8332 24.2108 73.4419 24.6449 74.2253C25.0842 75.0034 25.3039 75.9112 25.3039 76.9486C25.3039 77.9913 25.0815 78.8964 24.6369 79.6639C24.1976 80.4261 23.5492 81.0163 22.6917 81.4345C21.8343 81.8473 20.7809 82.0537 19.5318 82.0537H15.1888V79.6084H19.1348C19.8652 79.6084 20.4634 79.5078 20.9291 79.3067C21.3949 79.1002 21.739 78.8012 21.9613 78.4095C22.1889 78.0125 22.3027 77.5255 22.3027 76.9486C22.3027 76.3717 22.1889 75.8794 21.9613 75.4718C21.7337 75.059 21.387 74.7467 20.9212 74.535C20.4554 74.3179 19.8547 74.2094 19.1189 74.2094H16.4195V88.0084H13.4739ZM21.874 80.6405L25.8993 88.0084H22.6123L18.6584 80.6405H21.874Z" fill="white"/>
<defs>
<linearGradient id="paint0_linear_42_51" x1="-15.6659" y1="-17.3871" x2="151.525" y2="149.263" gradientUnits="userSpaceOnUse">
<stop offset="0.0735407" stop-color="#FE4090"/>
<stop offset="0.567708" stop-color="#24DEFC"/>
<stop offset="1" stop-color="#CFFF0E"/>
</linearGradient>
</defs>
</svg>
