<?xml version="1.0" encoding="UTF-8" standalone="no"?>
<!DOCTYPE svg PUBLIC "-//W3C//DTD SVG 1.1//EN" "http://www.w3.org/Graphics/SVG/1.1/DTD/svg11.dtd">
<svg xmlns="http://www.w3.org/2000/svg" version="1.1" viewBox="0.00 0.00 1773.00 1182.00">
<g stroke-width="2.00" fill="none" stroke-linecap="butt">
<path stroke="#8feddc" vector-effect="non-scaling-stroke" d="
  M 250.28 458.51
  Q 247.84 465.15 247.80 471.98
  Q 247.71 485.23 247.68 499.77
  C 247.66 505.23 249.20 510.03 253.57 513.37
  C 258.60 517.22 266.17 517.04 271.12 512.95
  C 275.39 509.42 276.43 504.83 276.40 499.20
  Q 276.34 487.64 276.33 475.63
  Q 276.33 471.13 277.23 468.24
  C 278.86 462.97 284.53 458.85 290.22 458.76
  Q 303.49 458.55 316.96 458.80
  C 322.88 458.90 327.78 457.45 331.20 452.61
  C 334.86 447.45 334.68 439.97 330.55 435.09
  C 327.38 431.34 322.83 429.90 317.73 429.93
  Q 302.51 430.01 290.78 430.07
  C 272.30 430.16 256.56 441.41 250.28 458.51"
/>
<path stroke="#8feddc" vector-effect="non-scaling-stroke" d="
  M 509.53 433.73
  Q 501.81 430.20 493.77 430.08
  Q 478.88 429.85 463.29 430.04
  C 454.83 430.14 448.17 437.24 449.15 445.82
  C 450.10 454.23 456.63 458.73 464.93 458.71
  Q 478.64 458.66 491.63 458.68
  Q 500.06 458.70 504.34 465.51
  C 506.12 468.32 506.43 471.47 506.45 474.65
  Q 506.53 486.98 506.45 500.10
  Q 506.42 504.41 507.50 507.08
  C 509.95 513.12 516.12 516.85 522.41 516.09
  C 530.46 515.11 535.29 508.51 535.16 500.44
  Q 534.99 489.46 535.13 478.24
  Q 535.26 467.95 533.63 462.03
  Q 528.18 442.25 509.53 433.73"
/>
<path stroke="#8feddc" vector-effect="non-scaling-stroke" d="
  M 362.75 530.60
  A 14.37 14.37 0.0 0 0 348.38 516.23
  A 14.37 14.37 0.0 0 0 334.01 530.60
  A 14.37 14.37 0.0 0 0 348.38 544.97
  A 14.37 14.37 0.0 0 0 362.75 530.60"
/>
<path stroke="#8feddc" vector-effect="non-scaling-stroke" d="
  M 449.00 530.61
  A 14.36 14.36 0.0 0 0 434.64 516.25
  A 14.36 14.36 0.0 0 0 420.28 530.61
  A 14.36 14.36 0.0 0 0 434.64 544.97
  A 14.36 14.36 0.0 0 0 449.00 530.61"
/>
<path stroke="#8feddc" vector-effect="non-scaling-stroke" d="
  M 340.72 589.89
  C 328.69 583.47 315.39 595.95 320.91 608.26
  Q 322.42 611.60 325.38 614.73
  C 345.58 636.05 371.29 648.22 400.88 645.04
  C 423.71 642.58 444.93 629.50 459.57 612.04
  C 464.80 605.81 464.43 597.04 458.29 591.65
  C 453.92 587.81 447.47 587.15 442.42 589.81
  Q 439.66 591.27 436.99 594.42
  C 426.23 607.14 410.22 616.33 393.39 616.83
  C 376.44 617.33 361.81 610.21 349.69 598.60
  C 346.70 595.73 344.39 591.85 340.72 589.89"
/>
<path stroke="#8feddc" vector-effect="non-scaling-stroke" d="
  M 530.89 692.89
  Q 534.76 684.88 534.92 676.81
  Q 535.17 664.15 535.07 646.95
  Q 535.04 642.17 533.65 639.34
  C 530.79 633.52 524.00 630.01 517.74 631.73
  Q 506.42 634.84 506.47 646.86
  Q 506.54 661.50 506.43 673.85
  Q 506.34 683.43 498.20 687.41
  Q 495.10 688.93 489.61 688.83
  Q 475.71 688.58 463.47 688.86
  Q 454.17 689.07 450.39 697.25
  Q 447.55 703.40 450.36 709.18
  Q 454.39 717.46 464.31 717.45
  Q 474.99 717.43 486.32 717.57
  Q 497.03 717.70 502.60 716.16
  Q 522.29 710.74 530.89 692.89"
/>
<path stroke="#8feddc" vector-effect="non-scaling-stroke" d="
  M 289.64 688.68
  C 282.02 688.58 276.72 681.75 276.49 674.67
  Q 276.13 663.44 276.37 650.24
  Q 276.49 643.71 275.78 641.60
  Q 272.78 632.75 264.03 631.53
  C 257.76 630.66 251.87 633.84 249.15 639.54
  Q 247.51 642.98 247.64 648.68
  Q 247.91 660.15 247.66 671.21
  C 247.33 685.73 252.41 698.58 263.62 707.81
  C 270.06 713.11 279.01 716.87 287.33 717.21
  Q 300.22 717.73 319.52 717.39
  C 335.89 717.10 339.25 694.60 324.08 689.57
  Q 321.36 688.66 317.40 688.70
  Q 302.75 688.84 289.64 688.68"
/>
</g>
<path fill="#1fdab9" d="
  M 462.34 839.09
  L 318.82 839.11
  A 194.42 194.42 0.0 0 1 124.38 644.70
  L 124.37 501.04
  A 194.42 194.42 0.0 0 1 318.79 306.60
  L 462.33 306.60
  A 194.42 194.42 0.0 0 1 656.75 501.02
  L 656.74 644.68
  A 194.42 194.42 0.0 0 1 462.34 839.09
  Z
  M 250.28 458.51
  Q 247.84 465.15 247.80 471.98
  Q 247.71 485.23 247.68 499.77
  C 247.66 505.23 249.20 510.03 253.57 513.37
  C 258.60 517.22 266.17 517.04 271.12 512.95
  C 275.39 509.42 276.43 504.83 276.40 499.20
  Q 276.34 487.64 276.33 475.63
  Q 276.33 471.13 277.23 468.24
  C 278.86 462.97 284.53 458.85 290.22 458.76
  Q 303.49 458.55 316.96 458.80
  C 322.88 458.90 327.78 457.45 331.20 452.61
  C 334.86 447.45 334.68 439.97 330.55 435.09
  C 327.38 431.34 322.83 429.90 317.73 429.93
  Q 302.51 430.01 290.78 430.07
  C 272.30 430.16 256.56 441.41 250.28 458.51
  Z
  M 509.53 433.73
  Q 501.81 430.20 493.77 430.08
  Q 478.88 429.85 463.29 430.04
  C 454.83 430.14 448.17 437.24 449.15 445.82
  C 450.10 454.23 456.63 458.73 464.93 458.71
  Q 478.64 458.66 491.63 458.68
  Q 500.06 458.70 504.34 465.51
  C 506.12 468.32 506.43 471.47 506.45 474.65
  Q 506.53 486.98 506.45 500.10
  Q 506.42 504.41 507.50 507.08
  C 509.95 513.12 516.12 516.85 522.41 516.09
  C 530.46 515.11 535.29 508.51 535.16 500.44
  Q 534.99 489.46 535.13 478.24
  Q 535.26 467.95 533.63 462.03
  Q 528.18 442.25 509.53 433.73
  Z
  M 362.75 530.60
  A 14.37 14.37 0.0 0 0 348.38 516.23
  A 14.37 14.37 0.0 0 0 334.01 530.60
  A 14.37 14.37 0.0 0 0 348.38 544.97
  A 14.37 14.37 0.0 0 0 362.75 530.60
  Z
  M 449.00 530.61
  A 14.36 14.36 0.0 0 0 434.64 516.25
  A 14.36 14.36 0.0 0 0 420.28 530.61
  A 14.36 14.36 0.0 0 0 434.64 544.97
  A 14.36 14.36 0.0 0 0 449.00 530.61
  Z
  M 340.72 589.89
  C 328.69 583.47 315.39 595.95 320.91 608.26
  Q 322.42 611.60 325.38 614.73
  C 345.58 636.05 371.29 648.22 400.88 645.04
  C 423.71 642.58 444.93 629.50 459.57 612.04
  C 464.80 605.81 464.43 597.04 458.29 591.65
  C 453.92 587.81 447.47 587.15 442.42 589.81
  Q 439.66 591.27 436.99 594.42
  C 426.23 607.14 410.22 616.33 393.39 616.83
  C 376.44 617.33 361.81 610.21 349.69 598.60
  C 346.70 595.73 344.39 591.85 340.72 589.89
  Z
  M 530.89 692.89
  Q 534.76 684.88 534.92 676.81
  Q 535.17 664.15 535.07 646.95
  Q 535.04 642.17 533.65 639.34
  C 530.79 633.52 524.00 630.01 517.74 631.73
  Q 506.42 634.84 506.47 646.86
  Q 506.54 661.50 506.43 673.85
  Q 506.34 683.43 498.20 687.41
  Q 495.10 688.93 489.61 688.83
  Q 475.71 688.58 463.47 688.86
  Q 454.17 689.07 450.39 697.25
  Q 447.55 703.40 450.36 709.18
  Q 454.39 717.46 464.31 717.45
  Q 474.99 717.43 486.32 717.57
  Q 497.03 717.70 502.60 716.16
  Q 522.29 710.74 530.89 692.89
  Z
  M 289.64 688.68
  C 282.02 688.58 276.72 681.75 276.49 674.67
  Q 276.13 663.44 276.37 650.24
  Q 276.49 643.71 275.78 641.60
  Q 272.78 632.75 264.03 631.53
  C 257.76 630.66 251.87 633.84 249.15 639.54
  Q 247.51 642.98 247.64 648.68
  Q 247.91 660.15 247.66 671.21
  C 247.33 685.73 252.41 698.58 263.62 707.81
  C 270.06 713.11 279.01 716.87 287.33 717.21
  Q 300.22 717.73 319.52 717.39
  C 335.89 717.10 339.25 694.60 324.08 689.57
  Q 321.36 688.66 317.40 688.70
  Q 302.75 688.84 289.64 688.68
  Z"
/>
<path fill="#ffffff" d="
  M 250.28 458.51
  C 256.56 441.41 272.30 430.16 290.78 430.07
  Q 302.51 430.01 317.73 429.93
  C 322.83 429.90 327.38 431.34 330.55 435.09
  C 334.68 439.97 334.86 447.45 331.20 452.61
  C 327.78 457.45 322.88 458.90 316.96 458.80
  Q 303.49 458.55 290.22 458.76
  C 284.53 458.85 278.86 462.97 277.23 468.24
  Q 276.33 471.13 276.33 475.63
  Q 276.34 487.64 276.40 499.20
  C 276.43 504.83 275.39 509.42 271.12 512.95
  C 266.17 517.04 258.60 517.22 253.57 513.37
  C 249.20 510.03 247.66 505.23 247.68 499.77
  Q 247.71 485.23 247.80 471.98
  Q 247.84 465.15 250.28 458.51
  Z"
/>
<path fill="#ffffff" d="
  M 509.53 433.73
  Q 528.18 442.25 533.63 462.03
  Q 535.26 467.95 535.13 478.24
  Q 534.99 489.46 535.16 500.44
  C 535.29 508.51 530.46 515.11 522.41 516.09
  C 516.12 516.85 509.95 513.12 507.50 507.08
  Q 506.42 504.41 506.45 500.10
  Q 506.53 486.98 506.45 474.65
  C 506.43 471.47 506.12 468.32 504.34 465.51
  Q 500.06 458.70 491.63 458.68
  Q 478.64 458.66 464.93 458.71
  C 456.63 458.73 450.10 454.23 449.15 445.82
  C 448.17 437.24 454.83 430.14 463.29 430.04
  Q 478.88 429.85 493.77 430.08
  Q 501.81 430.20 509.53 433.73
  Z"
/>
<path fill="#1d1d1d" d="
  M 1081.27 462.75
  Q 1081.97 462.58 1082.41 461.99
  C 1091.24 450.12 1106.03 445.97 1120.20 448.18
  C 1137.73 450.90 1147.71 462.68 1150.03 479.85
  Q 1150.48 483.22 1150.50 489.66
  Q 1150.55 514.00 1150.47 538.34
  Q 1150.47 539.32 1149.50 539.32
  L 1130.98 539.33
  A 0.36 0.36 0.0 0 1 1130.62 538.97
  Q 1130.74 513.55 1130.62 488.73
  C 1130.57 480.07 1127.98 470.40 1119.31 467.07
  Q 1112.34 464.40 1104.42 466.77
  C 1094.09 469.86 1088.98 479.13 1088.97 489.54
  Q 1088.95 516.14 1089.00 538.92
  Q 1089.00 539.43 1088.49 539.43
  L 1069.67 539.36
  Q 1069.01 539.36 1069.02 538.71
  Q 1069.06 515.88 1069.01 494.47
  C 1069.00 488.02 1069.37 481.84 1066.67 475.84
  C 1062.55 466.69 1052.93 464.13 1043.70 466.52
  C 1032.59 469.39 1027.22 479.28 1027.24 490.21
  Q 1027.27 516.81 1027.22 538.88
  A 0.46 0.46 0.0 0 1 1026.76 539.34
  L 1007.97 539.30
  A 0.58 0.57 -90.0 0 1 1007.40 538.72
  L 1007.37 450.99
  Q 1007.37 449.84 1008.51 449.85
  L 1024.53 449.86
  A 0.54 0.54 0.0 0 1 1025.07 450.38
  Q 1025.16 454.00 1025.11 457.73
  Q 1025.10 458.33 1025.48 458.82
  A 0.71 0.71 0.0 0 0 1026.58 458.85
  C 1036.28 447.55 1051.83 445.07 1065.32 450.20
  Q 1074.97 453.87 1080.36 462.39
  A 0.84 0.83 -23.1 0 0 1081.27 462.75
  Z"
/>
<path fill="#1d1d1d" d="
  M 730.51 461.78
  C 732.53 459.88 734.09 457.49 736.17 455.58
  C 747.83 444.89 765.93 445.54 778.35 454.51
  A 1.53 1.51 32.3 0 1 778.80 456.47
  L 771.17 470.39
  A 1.29 1.28 -59.4 0 1 769.36 470.86
  Q 761.01 465.60 751.96 466.99
  C 737.15 469.25 731.37 482.34 731.40 495.96
  Q 731.44 516.60 731.30 538.99
  A 0.36 0.35 90.0 0 1 730.95 539.35
  L 712.16 539.31
  A 0.65 0.65 0.0 0 1 711.51 538.66
  L 711.50 450.79
  Q 711.50 449.83 712.46 449.84
  L 728.66 449.88
  A 0.55 0.55 0.0 0 1 729.21 450.42
  L 729.32 461.27
  Q 729.34 462.88 730.51 461.78
  Z"
/>
<path fill="#1d1d1d" d="
  M 821.07 540.58
  C 804.86 537.62 792.09 527.51 786.63 511.88
  C 781.51 497.27 783.07 479.43 792.15 466.54
  Q 801.47 453.29 818.07 449.30
  Q 831.42 446.09 843.89 449.06
  Q 870.22 455.34 877.46 481.40
  C 880.85 493.60 879.16 508.83 872.41 520.07
  C 861.79 537.72 841.00 544.22 821.07 540.58
  Z
  M 831.4300 523.5700
  A 28.95 27.92 90.0 0 0 859.3500 494.6200
  A 28.95 27.92 90.0 0 0 831.4300 465.6700
  A 28.95 27.92 90.0 0 0 803.5100 494.6200
  A 28.95 27.92 90.0 0 0 831.4300 523.5700
  Z"
/>
<path fill="#1d1d1d" d="
  M 897.01 515.57
  C 891.80 504.41 891.32 489.95 895.34 477.85
  C 904.19 451.24 934.17 442.15 958.76 450.78
  C 976.10 456.87 986.46 472.21 987.87 490.44
  C 989.72 514.30 976.53 534.98 952.45 540.24
  Q 941.27 542.68 930.17 540.59
  Q 906.63 536.17 897.01 515.57
  Z
  M 940.2995 523.5700
  A 28.95 27.91 90.1 0 0 968.2600 494.6687
  A 28.95 27.91 90.1 0 0 940.4005 465.6700
  A 28.95 27.91 90.1 0 0 912.4400 494.5713
  A 28.95 27.91 90.1 0 0 940.2995 523.5700
  Z"
/>
<circle fill="#ffffff" cx="348.38" cy="530.60" r="14.37"/>
<circle fill="#ffffff" cx="434.64" cy="530.61" r="14.36"/>
<path fill="#1fdab9" d="
  M 1045.15 672.64
  L 1033.93 697.54
  A 0.77 0.77 0.0 0 1 1033.23 697.99
  L 1011.44 697.98
  A 0.77 0.77 0.0 0 1 1010.74 696.89
  L 1067.33 571.19
  A 0.77 0.77 0.0 0 1 1068.03 570.74
  L 1091.06 570.74
  A 0.77 0.77 0.0 0 1 1091.76 571.19
  L 1148.18 696.91
  A 0.77 0.77 0.0 0 1 1147.48 698.00
  L 1125.50 697.98
  A 0.77 0.77 0.0 0 1 1124.80 697.53
  L 1113.54 672.65
  A 0.77 0.77 0.0 0 0 1112.84 672.20
  L 1045.85 672.19
  A 0.77 0.77 0.0 0 0 1045.15 672.64
  Z
  M 1054.11 651.62
  A 0.63 0.63 0.0 0 0 1054.69 652.50
  L 1104.03 652.50
  A 0.63 0.63 0.0 0 0 1104.61 651.62
  L 1079.94 594.38
  A 0.63 0.63 0.0 0 0 1078.78 594.38
  L 1054.11 651.62
  Z"
/>
<rect fill="#1fdab9" x="1164.99" y="570.75" width="21.76" height="127.24" rx="0.90"/>
<path fill="#1d1d1d" d="
  M 779.55 616.57
  Q 781.01 617.95 781.01 615.94
  L 781.02 571.51
  Q 781.02 571.04 781.49 571.04
  L 800.25 571.06
  A 0.70 0.70 0.0 0 1 800.95 571.76
  L 800.97 697.30
  A 0.35 0.34 -0.9 0 1 800.63 697.64
  L 783.88 697.68
  A 0.67 0.67 0.0 0 1 783.21 697.01
  L 783.11 687.04
  A 0.46 0.45 -0.0 0 0 782.65 686.59
  Q 782.11 686.60 781.76 686.98
  Q 773.84 695.46 762.46 698.24
  C 737.76 704.29 714.17 692.64 707.63 667.62
  Q 703.83 653.06 707.55 638.59
  C 712.23 620.37 725.31 608.99 743.50 606.31
  Q 751.70 605.10 760.96 607.18
  Q 772.35 609.74 779.55 616.57
  Z
  M 760.79 680.71
  C 769.43 678.75 776.22 672.12 779.11 663.86
  C 785.17 646.52 776.01 625.11 755.57 624.35
  Q 751.14 624.18 747.34 624.81
  C 731.90 627.35 724.25 642.45 725.91 656.94
  C 727.95 674.73 743.26 684.69 760.79 680.71
  Z"
/>
<path fill="#ffffff" d="
  M 320.91 608.26
  C 315.39 595.95 328.69 583.47 340.72 589.89
  C 344.39 591.85 346.70 595.73 349.69 598.60
  C 361.81 610.21 376.44 617.33 393.39 616.83
  C 410.22 616.33 426.23 607.14 436.99 594.42
  Q 439.66 591.27 442.42 589.81
  C 447.47 587.15 453.92 587.81 458.29 591.65
  C 464.43 597.04 464.80 605.81 459.57 612.04
  C 444.93 629.50 423.71 642.58 400.88 645.04
  C 371.29 648.22 345.58 636.05 325.38 614.73
  Q 322.42 611.60 320.91 608.26
  Z"
/>
<path fill="#1d1d1d" d="
  M 1283.54 685.24
  A 0.68 0.68 0.0 0 0 1283.62 686.50
  C 1293.99 690.09 1302.89 698.42 1304.33 709.50
  C 1307.33 732.62 1291.40 746.65 1270.09 750.33
  Q 1252.47 753.37 1235.72 747.92
  C 1227.93 745.39 1220.56 740.20 1215.87 733.25
  Q 1209.82 724.28 1210.08 712.11
  Q 1210.10 711.48 1210.72 711.48
  L 1228.76 711.47
  A 0.88 0.88 0.0 0 1 1229.64 712.30
  C 1230.76 730.58 1248.98 735.08 1264.44 732.87
  C 1274.42 731.45 1284.23 725.66 1284.63 714.77
  C 1285.00 704.91 1277.40 698.85 1268.41 696.97
  C 1263.75 696.00 1258.73 695.56 1253.93 695.51
  Q 1246.54 695.43 1238.55 692.85
  C 1219.22 686.59 1209.06 670.90 1209.16 650.73
  C 1209.28 626.21 1226.98 609.16 1250.43 606.32
  Q 1266.31 604.40 1280.51 611.53
  Q 1281.35 611.95 1281.95 611.22
  L 1292.22 598.71
  A 0.94 0.92 38.0 0 1 1293.50 598.56
  L 1306.23 608.33
  Q 1307.19 609.06 1306.40 609.97
  L 1295.77 622.27
  Q 1294.66 623.55 1295.74 624.86
  Q 1308.56 640.36 1304.44 660.13
  C 1301.99 671.87 1294.08 680.06 1283.54 685.24
  Z
  M 1272.66 674.01
  C 1281.11 669.30 1285.49 660.59 1285.48 651.02
  C 1285.45 635.56 1274.77 625.00 1259.37 624.33
  Q 1254.22 624.11 1250.49 624.88
  Q 1232.69 628.53 1229.55 646.18
  Q 1227.68 656.72 1233.11 665.68
  C 1241.04 678.74 1260.45 680.82 1272.66 674.01
  Z"
/>
<path fill="#1d1d1d" d="
  M 841.06 660.52
  Q 841.04 662.07 841.54 663.63
  Q 845.91 677.17 860.16 680.73
  C 871.85 683.64 885.61 680.99 894.67 673.02
  A 0.75 0.75 0.0 0 1 895.70 673.05
  L 906.55 683.69
  A 1.02 1.01 45.2 0 1 906.55 685.14
  C 893.27 697.92 873.50 702.48 855.77 698.43
  C 829.42 692.42 817.49 670.01 820.84 644.49
  C 824.70 614.96 851.63 601.43 879.01 607.18
  C 897.21 611.01 908.72 623.35 911.81 641.16
  Q 913.36 650.10 912.68 658.45
  Q 912.59 659.48 911.56 659.48
  L 842.10 659.49
  A 1.04 1.04 0.0 0 0 841.06 660.52
  Z
  M 865.28 623.29
  C 852.97 623.97 843.41 630.99 841.18 643.06
  A 0.85 0.85 0.0 0 0 842.02 644.06
  L 892.49 644.08
  A 0.81 0.80 -1.3 0 0 893.30 643.24
  Q 893.21 640.88 892.19 638.32
  C 887.72 627.02 876.85 622.65 865.28 623.29
  Z"
/>
<path fill="#1d1d1d" d="
  M 992.38 630.07
  C 981.55 623.28 966.06 620.34 953.77 624.94
  C 949.47 626.55 946.03 631.05 947.76 635.72
  C 949.23 639.67 953.72 641.57 957.52 642.39
  Q 962.73 643.51 968.56 644.19
  C 980.03 645.54 993.93 648.81 1000.23 658.44
  Q 1003.19 662.98 1003.71 670.06
  Q 1004.78 684.68 991.77 693.07
  C 987.72 695.67 982.20 697.79 977.54 698.61
  Q 949.10 703.58 925.79 687.25
  A 0.88 0.88 0.0 0 1 925.55 686.06
  L 933.80 673.05
  A 0.79 0.79 0.0 0 1 934.92 672.82
  Q 948.53 682.38 967.01 682.28
  C 972.92 682.24 982.70 680.62 983.96 673.28
  C 985.51 664.25 974.31 662.02 968.02 661.19
  Q 962.52 660.46 957.01 659.58
  C 942.94 657.33 927.77 649.61 927.81 633.46
  C 927.84 617.83 940.70 609.75 954.87 607.04
  Q 967.47 604.63 980.92 607.40
  Q 991.43 609.57 1000.77 615.47
  Q 1001.83 616.15 1001.17 617.22
  L 993.42 629.82
  A 0.76 0.75 -58.2 0 1 992.38 630.07
  Z"
/>
<path fill="#1d1d1d" d="
  M 1343.80 618.06
  A 0.79 0.78 -23.7 0 0 1345.16 618.59
  Q 1352.03 611.19 1361.12 608.20
  Q 1373.50 604.14 1385.44 607.17
  C 1401.75 611.30 1410.80 624.03 1412.90 640.08
  Q 1413.45 644.32 1413.34 656.86
  Q 1413.18 676.54 1413.34 697.05
  A 0.59 0.58 89.5 0 1 1412.76 697.65
  L 1394.46 697.65
  A 1.02 1.02 0.0 0 1 1393.44 696.63
  Q 1393.58 674.55 1393.40 647.90
  C 1393.33 637.37 1388.67 627.48 1377.78 624.74
  Q 1373.42 623.64 1369.35 624.05
  C 1359.03 625.07 1351.39 630.54 1347.66 640.55
  Q 1345.83 645.44 1345.90 654.63
  Q 1346.06 676.03 1345.99 697.17
  A 0.48 0.47 0.0 0 1 1345.51 697.64
  L 1326.82 697.63
  Q 1326.00 697.63 1326.00 696.82
  L 1326.00 608.81
  A 0.69 0.69 0.0 0 1 1326.69 608.12
  L 1342.95 608.13
  A 0.82 0.82 0.0 0 1 1343.77 608.95
  L 1343.80 618.06
  Z"
/>
<path fill="#1d1d1d" d="
  M 1452.09 660.53
  C 1453.10 670.77 1461.52 678.40 1471.24 680.74
  Q 1480.40 682.95 1489.49 680.92
  Q 1499.39 678.72 1505.43 673.22
  A 1.16 1.15 -43.9 0 1 1507.02 673.25
  L 1517.44 683.56
  Q 1518.34 684.45 1517.42 685.33
  C 1503.82 698.28 1483.54 702.67 1465.40 698.08
  C 1441.01 691.91 1429.73 671.50 1431.59 647.42
  C 1433.17 627.03 1445.80 611.64 1466.19 607.14
  Q 1477.36 604.68 1488.98 607.00
  Q 1517.30 612.66 1522.80 640.79
  Q 1524.52 649.57 1523.74 658.40
  A 1.18 1.18 0.0 0 1 1522.56 659.48
  L 1453.04 659.49
  A 0.95 0.95 0.0 0 0 1452.09 660.53
  Z
  M 1492.10 626.20
  Q 1482.69 621.88 1472.05 623.79
  Q 1456.38 626.61 1452.24 642.79
  A 1.03 1.03 0.0 0 0 1453.24 644.08
  L 1503.26 644.06
  Q 1504.75 644.06 1504.44 642.60
  Q 1501.90 630.68 1492.10 626.20
  Z"
/>
<path fill="#1d1d1d" d="
  M 1561.39 620.39
  C 1562.87 619.20 1563.81 617.42 1565.10 616.01
  Q 1573.62 606.76 1585.62 606.03
  Q 1598.34 605.25 1609.17 612.51
  A 1.91 1.90 31.3 0 1 1609.78 615.00
  L 1601.98 629.17
  A 0.74 0.73 31.1 0 1 1600.93 629.42
  C 1594.89 625.42 1587.82 623.93 1580.54 625.79
  C 1567.41 629.14 1562.52 641.58 1562.51 654.33
  Q 1562.49 676.36 1562.53 697.11
  Q 1562.53 697.64 1562.00 697.64
  L 1543.52 697.64
  A 0.87 0.87 0.0 0 1 1542.65 696.77
  L 1542.62 608.99
  Q 1542.62 608.10 1543.51 608.09
  L 1559.78 608.07
  Q 1560.25 608.07 1560.26 608.53
  L 1560.51 619.98
  A 0.54 0.54 0.0 0 0 1561.39 620.39
  Z"
/>
<path fill="#ffffff" d="
  M 530.89 692.89
  Q 522.29 710.74 502.60 716.16
  Q 497.03 717.70 486.32 717.57
  Q 474.99 717.43 464.31 717.45
  Q 454.39 717.46 450.36 709.18
  Q 447.55 703.40 450.39 697.25
  Q 454.17 689.07 463.47 688.86
  Q 475.71 688.58 489.61 688.83
  Q 495.10 688.93 498.20 687.41
  Q 506.34 683.43 506.43 673.85
  Q 506.54 661.50 506.47 646.86
  Q 506.42 634.84 517.74 631.73
  C 524.00 630.01 530.79 633.52 533.65 639.34
  Q 535.04 642.17 535.07 646.95
  Q 535.17 664.15 534.92 676.81
  Q 534.76 684.88 530.89 692.89
  Z"
/>
<path fill="#ffffff" d="
  M 276.49 674.67
  C 276.72 681.75 282.02 688.58 289.64 688.68
  Q 302.75 688.84 317.40 688.70
  Q 321.36 688.66 324.08 689.57
  C 339.25 694.60 335.89 717.10 319.52 717.39
  Q 300.22 717.73 287.33 717.21
  C 279.01 716.87 270.06 713.11 263.62 707.81
  C 252.41 698.58 247.33 685.73 247.66 671.21
  Q 247.91 660.15 247.64 648.68
  Q 247.51 642.98 249.15 639.54
  C 251.87 633.84 257.76 630.66 264.03 631.53
  Q 272.78 632.75 275.78 641.60
  Q 276.49 643.71 276.37 650.24
  Q 276.13 663.44 276.49 674.67
  Z"
/>
</svg>
