<?xml version="1.0" encoding="UTF-8" standalone="no"?>
<!DOCTYPE svg PUBLIC "-//W3C//DTD SVG 1.1//EN" "http://www.w3.org/Graphics/SVG/1.1/DTD/svg11.dtd">
<svg xmlns="http://www.w3.org/2000/svg" version="1.1" viewBox="0.00 0.00 1773.00 1182.00">
<g stroke-width="2.00" fill="none" stroke-linecap="butt">
<path stroke="#8feddc" vector-effect="non-scaling-stroke" d="
  M 250.28 458.51
  Q 247.84 465.15 247.80 471.98
  Q 247.71 485.23 247.68 499.77
  C 247.66 505.23 249.20 510.03 253.57 513.37
  C 258.60 517.22 266.17 517.04 271.12 512.95
  C 275.39 509.42 276.43 504.83 276.40 499.20
  Q 276.34 487.64 276.33 475.63
  Q 276.33 471.13 277.23 468.24
  C 278.86 462.97 284.53 458.85 290.22 458.76
  Q 303.49 458.55 316.96 458.80
  C 322.88 458.90 327.78 457.45 331.20 452.61
  C 334.86 447.45 334.68 439.97 330.55 435.09
  C 327.38 431.34 322.83 429.90 317.73 429.93
  Q 302.51 430.01 290.78 430.07
  C 272.30 430.16 256.56 441.41 250.28 458.51"
/>
<path stroke="#8feddc" vector-effect="non-scaling-stroke" d="
  M 509.53 433.73
  Q 501.81 430.20 493.77 430.08
  Q 478.88 429.85 463.29 430.04
  C 454.83 430.14 448.17 437.24 449.15 445.82
  C 450.10 454.23 456.63 458.73 464.93 458.71
  Q 478.64 458.66 491.63 458.68
  Q 500.06 458.70 504.34 465.51
  C 506.12 468.32 506.43 471.47 506.45 474.65
  Q 506.53 486.98 506.45 500.10
  Q 506.42 504.41 507.50 507.08
  C 509.95 513.12 516.12 516.85 522.41 516.09
  C 530.46 515.11 535.29 508.51 535.16 500.44
  Q 534.99 489.46 535.13 478.24
  Q 535.26 467.95 533.63 462.03
  Q 528.18 442.25 509.53 433.73"
/>
<path stroke="#8feddc" vector-effect="non-scaling-stroke" d="
  M 362.75 530.60
  A 14.37 14.37 0.0 0 0 348.38 516.23
  A 14.37 14.37 0.0 0 0 334.01 530.60
  A 14.37 14.37 0.0 0 0 348.38 544.97
  A 14.37 14.37 0.0 0 0 362.75 530.60"
/>
<path stroke="#8feddc" vector-effect="non-scaling-stroke" d="
  M 449.00 530.61
  A 14.36 14.36 0.0 0 0 434.64 516.25
  A 14.36 14.36 0.0 0 0 420.28 530.61
  A 14.36 14.36 0.0 0 0 434.64 544.97
  A 14.36 14.36 0.0 0 0 449.00 530.61"
/>
<path stroke="#8feddc" vector-effect="non-scaling-stroke" d="
  M 340.72 589.89
  C 328.69 583.47 315.39 595.95 320.91 608.26
  Q 322.42 611.60 325.38 614.73
  C 345.58 636.05 371.29 648.22 400.88 645.04
  C 423.71 642.58 444.93 629.50 459.57 612.04
  C 464.80 605.81 464.43 597.04 458.29 591.65
  C 453.92 587.81 447.47 587.15 442.42 589.81
  Q 439.66 591.27 436.99 594.42
  C 426.23 607.14 410.22 616.33 393.39 616.83
  C 376.44 617.33 361.81 610.21 349.69 598.60
  C 346.70 595.73 344.39 591.85 340.72 589.89"
/>
<path stroke="#8feddc" vector-effect="non-scaling-stroke" d="
  M 530.89 692.89
  Q 534.76 684.88 534.92 676.81
  Q 535.17 664.15 535.07 646.95
  Q 535.04 642.17 533.65 639.34
  C 530.79 633.52 524.00 630.01 517.74 631.73
  Q 506.42 634.84 506.47 646.86
  Q 506.54 661.50 506.43 673.85
  Q 506.34 683.43 498.20 687.41
  Q 495.10 688.93 489.61 688.83
  Q 475.71 688.58 463.47 688.86
  Q 454.17 689.07 450.39 697.25
  Q 447.55 703.40 450.36 709.18
  Q 454.39 717.46 464.31 717.45
  Q 474.99 717.43 486.32 717.57
  Q 497.03 717.70 502.60 716.16
  Q 522.29 710.74 530.89 692.89"
/>
<path stroke="#8feddc" vector-effect="non-scaling-stroke" d="
  M 289.64 688.68
  C 282.02 688.58 276.72 681.75 276.49 674.67
  Q 276.13 663.44 276.37 650.24
  Q 276.49 643.71 275.78 641.60
  Q 272.78 632.75 264.03 631.53
  C 257.76 630.66 251.87 633.84 249.15 639.54
  Q 247.51 642.98 247.64 648.68
  Q 247.91 660.15 247.66 671.21
  C 247.33 685.73 252.41 698.58 263.62 707.81
  C 270.06 713.11 279.01 716.87 287.33 717.21
  Q 300.22 717.73 319.52 717.39
  C 335.89 717.10 339.25 694.60 324.08 689.57
  Q 321.36 688.66 317.40 688.70
  Q 302.75 688.84 289.64 688.68"
/>
</g>
<path fill="#1fdab9" d="
  M 462.34 839.09
  L 318.82 839.11
  A 194.42 194.42 0.0 0 1 124.38 644.70
  L 124.37 501.04
  A 194.42 194.42 0.0 0 1 318.79 306.60
  L 462.33 306.60
  A 194.42 194.42 0.0 0 1 656.75 501.02
  L 656.74 644.68
  A 194.42 194.42 0.0 0 1 462.34 839.09
  Z
  M 250.28 458.51
  Q 247.84 465.15 247.80 471.98
  Q 247.71 485.23 247.68 499.77
  C 247.66 505.23 249.20 510.03 253.57 513.37
  C 258.60 517.22 266.17 517.04 271.12 512.95
  C 275.39 509.42 276.43 504.83 276.40 499.20
  Q 276.34 487.64 276.33 475.63
  Q 276.33 471.13 277.23 468.24
  C 278.86 462.97 284.53 458.85 290.22 458.76
  Q 303.49 458.55 316.96 458.80
  C 322.88 458.90 327.78 457.45 331.20 452.61
  C 334.86 447.45 334.68 439.97 330.55 435.09
  C 327.38 431.34 322.83 429.90 317.73 429.93
  Q 302.51 430.01 290.78 430.07
  C 272.30 430.16 256.56 441.41 250.28 458.51
  Z
  M 509.53 433.73
  Q 501.81 430.20 493.77 430.08
  Q 478.88 429.85 463.29 430.04
  C 454.83 430.14 448.17 437.24 449.15 445.82
  C 450.10 454.23 456.63 458.73 464.93 458.71
  Q 478.64 458.66 491.63 458.68
  Q 500.06 458.70 504.34 465.51
  C 506.12 468.32 506.43 471.47 506.45 474.65
  Q 506.53 486.98 506.45 500.10
  Q 506.42 504.41 507.50 507.08
  C 509.95 513.12 516.12 516.85 522.41 516.09
  C 530.46 515.11 535.29 508.51 535.16 500.44
  Q 534.99 489.46 535.13 478.24
  Q 535.26 467.95 533.63 462.03
  Q 528.18 442.25 509.53 433.73
  Z
  M 362.75 530.60
  A 14.37 14.37 0.0 0 0 348.38 516.23
  A 14.37 14.37 0.0 0 0 334.01 530.60
  A 14.37 14.37 0.0 0 0 348.38 544.97
  A 14.37 14.37 0.0 0 0 362.75 530.60
  Z
  M 449.00 530.61
  A 14.36 14.36 0.0 0 0 434.64 516.25
  A 14.36 14.36 0.0 0 0 420.28 530.61
  A 14.36 14.36 0.0 0 0 434.64 544.97
  A 14.36 14.36 0.0 0 0 449.00 530.61
  Z
  M 340.72 589.89
  C 328.69 583.47 315.39 595.95 320.91 608.26
  Q 322.42 611.60 325.38 614.73
  C 345.58 636.05 371.29 648.22 400.88 645.04
  C 423.71 642.58 444.93 629.50 459.57 612.04
  C 464.80 605.81 464.43 597.04 458.29 591.65
  C 453.92 587.81 447.47 587.15 442.42 589.81
  Q 439.66 591.27 436.99 594.42
  C 426.23 607.14 410.22 616.33 393.39 616.83
  C 376.44 617.33 361.81 610.21 349.69 598.60
  C 346.70 595.73 344.39 591.85 340.72 589.89
  Z
  M 530.89 692.89
  Q 534.76 684.88 534.92 676.81
  Q 535.17 664.15 535.07 646.95
  Q 535.04 642.17 533.65 639.34
  C 530.79 633.52 524.00 630.01 517.74 631.73
  Q 506.42 634.84 506.47 646.86
  Q 506.54 661.50 506.43 673.85
  Q 506.34 683.43 498.20 687.41
  Q 495.10 688.93 489.61 688.83
  Q 475.71 688.58 463.47 688.86
  Q 454.17 689.07 450.39 697.25
  Q 447.55 703.40 450.36 709.18
  Q 454.39 717.46 464.31 717.45
  Q 474.99 717.43 486.32 717.57
  Q 497.03 717.70 502.60 716.16
  Q 522.29 710.74 530.89 692.89
  Z
  M 289.64 688.68
  C 282.02 688.58 276.72 681.75 276.49 674.67
  Q 276.13 663.44 276.37 650.24
  Q 276.49 643.71 275.78 641.60
  Q 272.78 632.75 264.03 631.53
  C 257.76 630.66 251.87 633.84 249.15 639.54
  Q 247.51 642.98 247.64 648.68
  Q 247.91 660.15 247.66 671.21
  C 247.33 685.73 252.41 698.58 263.62 707.81
  C 270.06 713.11 279.01 716.87 287.33 717.21
  Q 300.22 717.73 319.52 717.39
  C 335.89 717.10 339.25 694.60 324.08 689.57
  Q 321.36 688.66 317.40 688.70
  Q 302.75 688.84 289.64 688.68
  Z"
/>
<path fill="#ffffff" d="
  M 250.28 458.51
  C 256.56 441.41 272.30 430.16 290.78 430.07
  Q 302.51 430.01 317.73 429.93
  C 322.83 429.90 327.38 431.34 330.55 435.09
  C 334.68 439.97 334.86 447.45 331.20 452.61
  C 327.78 457.45 322.88 458.90 316.96 458.80
  Q 303.49 458.55 290.22 458.76
  C 284.53 458.85 278.86 462.97 277.23 468.24
  Q 276.33 471.13 276.33 475.63
  Q 276.34 487.64 276.40 499.20
  C 276.43 504.83 275.39 509.42 271.12 512.95
  C 266.17 517.04 258.60 517.22 253.57 513.37
  C 249.20 510.03 247.66 505.23 247.68 499.77
  Q 247.71 485.23 247.80 471.98
  Q 247.84 465.15 250.28 458.51
  Z"
/>
<path fill="#ffffff" d="
  M 509.53 433.73
  Q 528.18 442.25 533.63 462.03
  Q 535.26 467.95 535.13 478.24
  Q 534.99 489.46 535.16 500.44
  C 535.29 508.51 530.46 515.11 522.41 516.09
  C 516.12 516.85 509.95 513.12 507.50 507.08
  Q 506.42 504.41 506.45 500.10
  Q 506.53 486.98 506.45 474.65
  C 506.43 471.47 506.12 468.32 504.34 465.51
  Q 500.06 458.70 491.63 458.68
  Q 478.64 458.66 464.93 458.71
  C 456.63 458.73 450.10 454.23 449.15 445.82
  C 448.17 437.24 454.83 430.14 463.29 430.04
  Q 478.88 429.85 493.77 430.08
  Q 501.81 430.20 509.53 433.73
  Z"
/>
<path fill="#ffffff" d="
  M 853.60 451.65
  Q 869.02 458.70 875.80 474.58
  Q 880.49 485.60 879.44 499.45
  C 878.11 516.98 868.11 531.69 851.66 538.40
  C 838.85 543.62 822.31 543.38 809.53 537.67
  C 789.55 528.73 780.59 507.65 783.80 486.60
  Q 787.44 462.66 808.21 452.18
  C 821.71 445.37 840.12 445.50 853.60 451.65
  Z
  M 831.3805 522.9800
  A 28.37 27.33 90.1 0 0 858.7600 494.6577
  A 28.37 27.33 90.1 0 0 831.4795 466.2400
  A 28.37 27.33 90.1 0 0 804.1000 494.5623
  A 28.37 27.33 90.1 0 0 831.3805 522.9800
  Z"
/>
<path fill="#ffffff" d="
  M 963.15 451.96
  C 986.49 462.50 993.63 491.34 985.23 513.33
  C 978.42 531.19 961.94 541.41 943.07 542.05
  Q 932.55 542.40 924.00 539.75
  C 906.17 534.23 894.47 519.59 892.43 500.99
  C 889.55 474.66 904.23 452.53 930.51 447.93
  Q 947.60 444.93 963.15 451.96
  Z
  M 940.3005 522.9800
  A 28.37 27.33 90.1 0 0 967.6800 494.6577
  A 28.37 27.33 90.1 0 0 940.3995 466.2400
  A 28.37 27.33 90.1 0 0 913.0200 494.5623
  A 28.37 27.33 90.1 0 0 940.3005 522.9800
  Z"
/>
<path fill="#ffffff" d="
  M 1025.81 456.85
  Q 1025.86 458.74 1027.16 457.37
  C 1035.38 448.67 1046.67 445.71 1058.20 447.60
  Q 1072.75 449.97 1080.90 462.10
  A 0.39 0.39 0.0 0 0 1081.54 462.11
  Q 1090.78 449.56 1106.75 447.49
  Q 1113.89 446.56 1120.78 447.67
  C 1141.72 451.04 1151.17 467.67 1151.09 487.53
  Q 1150.98 514.10 1151.04 538.98
  A 0.81 0.81 0.0 0 1 1150.23 539.79
  L 1130.75 539.75
  Q 1130.01 539.75 1130.01 539.01
  Q 1129.97 515.28 1130.00 488.26
  Q 1130.00 486.46 1128.96 480.53
  Q 1127.16 470.23 1117.81 467.15
  Q 1115.29 466.31 1110.68 466.44
  C 1098.96 466.77 1091.13 474.35 1089.83 486.01
  Q 1089.50 489.02 1089.50 492.14
  Q 1089.53 516.35 1089.45 539.03
  Q 1089.44 539.79 1088.69 539.79
  L 1069.49 539.74
  A 1.02 1.02 0.0 0 1 1068.47 538.72
  Q 1068.56 512.83 1068.44 487.58
  C 1068.40 478.60 1064.85 469.07 1055.19 466.95
  C 1051.37 466.11 1045.76 466.24 1041.96 467.63
  C 1030.97 471.64 1027.85 481.43 1027.82 492.25
  Q 1027.76 515.34 1027.76 539.04
  A 0.74 0.74 0.0 0 1 1027.02 539.78
  L 1007.69 539.77
  A 0.83 0.82 -90.0 0 1 1006.87 538.94
  L 1006.87 450.27
  A 0.86 0.85 -0.0 0 1 1007.73 449.42
  L 1024.35 449.36
  A 1.28 1.27 88.8 0 1 1025.63 450.60
  L 1025.81 456.85
  Z"
/>
<path fill="#ffffff" d="
  M 731.19 460.16
  C 737.06 453.08 743.71 448.17 753.19 447.31
  Q 767.70 445.99 779.14 454.34
  A 1.50 1.49 32.6 0 1 779.57 456.27
  L 771.12 471.64
  A 0.84 0.83 -57.6 0 1 769.90 471.92
  Q 763.81 467.62 756.37 467.48
  C 739.40 467.15 732.22 480.09 732.08 495.61
  Q 731.88 517.13 732.01 539.02
  A 0.75 0.75 0.0 0 1 731.25 539.78
  L 712.00 539.77
  A 1.02 1.01 -90.0 0 1 710.99 538.75
  L 710.99 450.23
  A 0.79 0.78 -90.0 0 1 711.77 449.44
  L 728.63 449.36
  A 1.05 1.05 0.0 0 1 729.69 450.38
  L 729.96 459.73
  Q 730.01 461.57 731.19 460.16
  Z"
/>
<circle fill="#ffffff" cx="348.38" cy="530.60" r="14.37"/>
<circle fill="#ffffff" cx="434.64" cy="530.61" r="14.36"/>
<path fill="#ffffff" d="
  M 781.73 687.99
  Q 768.73 700.88 748.34 700.35
  C 729.09 699.84 713.90 688.75 707.88 670.57
  Q 704.15 659.32 705.58 645.81
  C 708.08 622.08 725.66 605.32 749.84 605.37
  Q 767.69 605.42 779.97 616.01
  A 0.32 0.31 -69.6 0 0 780.49 615.77
  L 780.49 571.17
  A 0.59 0.59 0.0 0 1 781.08 570.58
  L 800.44 570.65
  A 1.05 1.04 0.3 0 1 801.48 571.69
  L 801.49 697.28
  A 0.70 0.69 -1.3 0 1 800.82 697.97
  Q 793.22 698.30 783.50 698.00
  Q 782.81 697.98 782.78 697.28
  L 782.41 688.26
  Q 782.37 687.35 781.73 687.99
  Z
  M 748.51 625.20
  C 728.22 627.85 721.12 651.81 730.03 667.93
  C 734.52 676.04 742.48 680.56 751.79 680.91
  Q 756.00 681.07 759.00 680.47
  C 775.04 677.25 782.70 662.18 779.77 646.88
  Q 776.63 630.51 761.37 625.83
  C 757.48 624.64 752.52 624.68 748.51 625.20
  Z"
/>
<path fill="#1fdab9" d="
  M 1045.14 672.65
  L 1033.95 697.53
  A 0.78 0.78 0.0 0 1 1033.24 697.99
  L 1011.46 697.99
  A 0.78 0.78 0.0 0 1 1010.75 696.89
  L 1067.32 571.19
  A 0.78 0.78 0.0 0 1 1068.03 570.73
  L 1091.06 570.74
  A 0.78 0.78 0.0 0 1 1091.77 571.20
  L 1148.18 696.90
  A 0.78 0.78 0.0 0 1 1147.46 698.00
  L 1125.50 697.98
  A 0.78 0.78 0.0 0 1 1124.79 697.52
  L 1113.55 672.66
  A 0.78 0.78 0.0 0 0 1112.84 672.20
  L 1045.85 672.19
  A 0.78 0.78 0.0 0 0 1045.14 672.65
  Z
  M 1054.11 651.62
  A 0.63 0.63 0.0 0 0 1054.69 652.50
  L 1104.03 652.50
  A 0.63 0.63 0.0 0 0 1104.61 651.62
  L 1079.94 594.38
  A 0.63 0.63 0.0 0 0 1078.78 594.38
  L 1054.11 651.62
  Z"
/>
<rect fill="#1fdab9" x="1164.99" y="570.75" width="21.76" height="127.24" rx="0.90"/>
<path fill="#ffffff" d="
  M 320.91 608.26
  C 315.39 595.95 328.69 583.47 340.72 589.89
  C 344.39 591.85 346.70 595.73 349.69 598.60
  C 361.81 610.21 376.44 617.33 393.39 616.83
  C 410.22 616.33 426.23 607.14 436.99 594.42
  Q 439.66 591.27 442.42 589.81
  C 447.47 587.15 453.92 587.81 458.29 591.65
  C 464.43 597.04 464.80 605.81 459.57 612.04
  C 444.93 629.50 423.71 642.58 400.88 645.04
  C 371.29 648.22 345.58 636.05 325.38 614.73
  Q 322.42 611.60 320.91 608.26
  Z"
/>
<path fill="#ffffff" d="
  M 1284.12 685.71
  A 0.23 0.23 0.0 0 0 1284.15 686.12
  Q 1292.96 689.31 1298.59 695.78
  Q 1305.84 704.13 1305.44 715.51
  C 1304.87 731.70 1294.62 743.40 1279.67 748.45
  Q 1260.44 754.94 1240.14 749.89
  C 1221.58 745.27 1209.02 731.67 1209.47 712.02
  A 1.05 1.05 0.0 0 1 1210.52 710.99
  L 1228.77 710.98
  Q 1230.44 710.98 1230.43 712.65
  C 1230.42 724.20 1240.36 731.19 1251.13 732.28
  Q 1255.90 732.77 1261.35 732.51
  C 1271.86 732.00 1283.60 726.45 1284.09 714.89
  C 1284.56 703.93 1274.94 698.18 1265.38 697.02
  C 1261.12 696.50 1256.79 696.22 1252.47 696.00
  C 1229.07 694.82 1210.89 680.22 1208.81 656.25
  Q 1208.49 652.54 1208.78 647.40
  C 1210.02 624.68 1227.52 608.97 1249.16 605.88
  Q 1265.50 603.55 1281.00 611.00
  A 0.40 0.39 33.2 0 0 1281.48 610.90
  L 1292.19 597.86
  A 0.83 0.82 -51.3 0 1 1293.33 597.73
  L 1306.78 608.05
  Q 1307.99 608.97 1306.99 610.12
  L 1296.37 622.41
  Q 1295.34 623.59 1296.35 624.80
  Q 1307.63 638.31 1305.78 655.64
  Q 1303.85 673.71 1288.22 683.29
  Q 1286.25 684.50 1284.12 685.71
  Z
  M 1284.71 653.72
  Q 1285.44 645.79 1282.27 639.15
  Q 1276.32 626.67 1261.40 625.04
  C 1246.45 623.40 1233.34 630.05 1230.24 645.47
  C 1227.93 656.98 1232.82 669.58 1244.05 674.44
  C 1261.22 681.86 1282.80 674.46 1284.71 653.72
  Z"
/>
<path fill="#ffffff" d="
  M 944.18 677.36
  Q 952.45 680.84 962.96 681.64
  C 968.49 682.07 979.79 681.44 982.56 675.38
  C 986.32 667.12 977.92 663.37 971.20 662.33
  Q 965.16 661.40 958.78 660.50
  C 944.95 658.55 928.56 651.63 927.35 635.49
  Q 926.37 622.43 936.49 614.28
  C 945.72 606.85 959.17 604.78 971.05 605.47
  Q 987.75 606.44 1001.79 615.48
  A 0.94 0.93 32.2 0 1 1002.09 616.75
  L 993.66 630.61
  A 0.72 0.71 31.2 0 1 992.67 630.85
  Q 985.01 626.10 976.60 624.38
  C 974.01 623.86 971.57 623.89 969.01 623.55
  C 965.96 623.14 962.90 623.75 959.79 624.01
  C 953.84 624.51 946.88 627.59 948.36 635.12
  C 949.25 639.66 955.67 641.60 959.67 642.28
  Q 964.53 643.11 969.47 643.71
  C 984.13 645.48 1000.86 650.44 1003.96 666.44
  C 1007.75 686.06 991.52 697.59 974.23 699.78
  Q 947.31 703.19 925.28 687.57
  Q 924.32 686.90 924.95 685.91
  L 933.74 672.10
  A 0.62 0.62 0.0 0 1 934.63 671.94
  Q 939.16 675.25 944.18 677.36
  Z"
/>
<path fill="#ffffff" d="
  M 841.97 660.26
  A 0.55 0.55 0.0 0 0 841.61 660.86
  C 843.39 671.81 851.63 678.71 862.31 680.56
  C 873.92 682.57 886.01 679.94 894.86 672.12
  A 0.60 0.59 46.4 0 1 895.67 672.15
  L 907.04 683.41
  A 1.38 1.38 0.0 0 1 907.04 685.37
  C 894.79 697.52 877.26 702.10 860.16 699.83
  C 839.15 697.05 824.24 683.50 820.48 662.03
  C 819.34 655.52 819.47 646.12 821.12 639.49
  C 825.95 620.04 841.13 607.39 860.76 605.66
  C 885.45 603.47 906.85 614.12 912.21 639.95
  Q 913.96 648.37 913.54 657.83
  Q 913.44 660.14 911.25 660.13
  Q 877.12 660.01 843.00 660.08
  Q 842.48 660.08 841.97 660.26
  Z
  M 841.84 642.37
  Q 841.51 643.54 842.73 643.54
  L 892.04 643.55
  Q 892.89 643.55 892.75 642.71
  C 890.34 628.21 876.81 622.75 863.58 624.03
  Q 846.51 625.68 841.84 642.37
  Z"
/>
<path fill="#ffffff" d="
  M 1345.31 617.41
  C 1354.00 609.11 1364.25 605.01 1376.57 605.40
  C 1401.02 606.16 1413.86 624.59 1413.94 647.54
  Q 1414.03 673.67 1413.98 697.06
  A 1.01 1.01 0.0 0 1 1412.97 698.07
  L 1394.04 698.04
  A 1.14 1.13 -90.0 0 1 1392.91 696.90
  Q 1392.85 674.66 1392.88 648.62
  C 1392.89 638.20 1388.26 627.58 1377.52 625.28
  C 1372.72 624.25 1366.65 624.48 1362.06 626.26
  C 1350.32 630.82 1346.49 641.48 1346.50 653.46
  Q 1346.51 676.61 1346.49 697.34
  A 0.76 0.75 -90.0 0 1 1345.74 698.10
  L 1326.56 698.11
  A 1.05 1.05 0.0 0 1 1325.50 697.06
  L 1325.50 608.49
  Q 1325.50 607.74 1326.26 607.74
  L 1343.33 607.74
  Q 1344.18 607.74 1344.21 608.59
  L 1344.52 617.09
  Q 1344.56 618.13 1345.31 617.41
  Z"
/>
<path fill="#ffffff" d="
  M 1452.76 660.54
  Q 1452.58 661.28 1452.77 661.99
  Q 1456.86 677.48 1473.07 680.50
  C 1484.50 682.62 1497.16 680.05 1505.88 672.10
  A 0.60 0.59 -43.2 0 1 1506.69 672.12
  L 1518.30 683.64
  A 0.93 0.93 0.0 0 1 1518.36 684.89
  Q 1516.16 687.53 1513.46 689.51
  C 1499.35 699.87 1480.97 703.08 1463.38 698.22
  C 1445.68 693.32 1434.32 679.59 1431.45 661.18
  Q 1430.43 654.61 1431.11 646.16
  C 1432.30 631.41 1440.53 618.15 1453.62 611.07
  C 1463.99 605.47 1476.91 604.20 1488.53 606.25
  C 1506.82 609.48 1519.34 621.13 1523.25 639.96
  Q 1525.18 649.26 1524.52 658.35
  Q 1524.40 660.01 1522.74 660.01
  L 1453.45 660.01
  A 0.71 0.71 0.0 0 0 1452.76 660.54
  Z
  M 1503.86 642.82
  C 1500.90 627.76 1487.43 622.27 1473.29 624.20
  Q 1457.02 626.41 1452.78 642.96
  A 0.47 0.47 0.0 0 0 1453.24 643.55
  L 1503.26 643.54
  Q 1504.00 643.54 1503.86 642.82
  Z"
/>
<path fill="#ffffff" d="
  M 1562.23 618.65
  C 1567.97 611.22 1575.15 606.37 1584.48 605.56
  Q 1598.99 604.31 1610.37 612.75
  A 1.34 1.33 -57.4 0 1 1610.74 614.47
  L 1602.13 630.05
  A 0.75 0.74 -57.6 0 1 1601.04 630.30
  Q 1595.14 625.97 1588.12 625.76
  C 1568.92 625.16 1563.12 640.07 1563.05 656.25
  Q 1562.97 676.70 1563.09 697.20
  A 0.88 0.88 0.0 0 1 1562.21 698.09
  L 1543.10 698.11
  A 1.02 1.01 -0.0 0 1 1542.08 697.10
  L 1542.08 608.94
  Q 1542.08 607.73 1543.29 607.73
  L 1560.01 607.74
  A 0.89 0.89 0.0 0 1 1560.90 608.67
  Q 1560.73 613.52 1561.24 618.37
  Q 1561.39 619.74 1562.23 618.65
  Z"
/>
<path fill="#ffffff" d="
  M 530.89 692.89
  Q 522.29 710.74 502.60 716.16
  Q 497.03 717.70 486.32 717.57
  Q 474.99 717.43 464.31 717.45
  Q 454.39 717.46 450.36 709.18
  Q 447.55 703.40 450.39 697.25
  Q 454.17 689.07 463.47 688.86
  Q 475.71 688.58 489.61 688.83
  Q 495.10 688.93 498.20 687.41
  Q 506.34 683.43 506.43 673.85
  Q 506.54 661.50 506.47 646.86
  Q 506.42 634.84 517.74 631.73
  C 524.00 630.01 530.79 633.52 533.65 639.34
  Q 535.04 642.17 535.07 646.95
  Q 535.17 664.15 534.92 676.81
  Q 534.76 684.88 530.89 692.89
  Z"
/>
<path fill="#ffffff" d="
  M 276.49 674.67
  C 276.72 681.75 282.02 688.58 289.64 688.68
  Q 302.75 688.84 317.40 688.70
  Q 321.36 688.66 324.08 689.57
  C 339.25 694.60 335.89 717.10 319.52 717.39
  Q 300.22 717.73 287.33 717.21
  C 279.01 716.87 270.06 713.11 263.62 707.81
  C 252.41 698.58 247.33 685.73 247.66 671.21
  Q 247.91 660.15 247.64 648.68
  Q 247.51 642.98 249.15 639.54
  C 251.87 633.84 257.76 630.66 264.03 631.53
  Q 272.78 632.75 275.78 641.60
  Q 276.49 643.71 276.37 650.24
  Q 276.13 663.44 276.49 674.67
  Z"
/>
</svg>
