<svg width="353" height="353" viewBox="0 0 353 353" fill="none" xmlns="http://www.w3.org/2000/svg">
<rect width="349" height="349" transform="translate(2 2)" fill="#6730EC"/>
<path d="M345 169V345H8V8H345V71.5L283.5 133" stroke="#A9FFF5" stroke-width="16"/>
<path d="M93.426 166.061C100.168 166.061 106.358 166.98 111.997 168.819C117.758 170.535 122.723 173.171 126.891 176.725C131.181 180.158 134.491 184.448 136.82 189.596C139.271 194.622 140.497 200.506 140.497 207.248C140.497 212.519 139.7 217.667 138.107 222.693C136.636 227.719 134.123 232.316 130.568 236.484C127.013 240.529 122.355 243.839 116.594 246.413C110.955 248.864 103.968 250.09 95.6325 250.09H75.9582V299H58.1226V166.061H93.426ZM95.2647 232.99C100.536 232.99 104.887 232.193 108.32 230.6C111.874 229.006 114.633 226.984 116.594 224.532C118.555 221.958 119.965 219.2 120.823 216.258C121.681 213.316 122.11 210.558 122.11 207.984C122.11 205.287 121.62 202.529 120.639 199.709C119.781 196.767 118.31 194.071 116.226 191.619C114.265 189.167 111.629 187.145 108.32 185.551C105.132 183.958 101.21 183.161 96.5518 183.161H75.9582V232.99H95.2647ZM117.145 243.103L151.897 299H131.304L96.0002 243.655L117.145 243.103ZM164.617 299V166.061H200.84C213.956 166.061 225.111 168.083 234.305 172.129C243.621 176.174 251.098 181.506 256.737 188.125C262.376 194.745 266.482 202.1 269.056 210.19C271.753 218.158 273.102 226.126 273.102 234.093C273.102 244.145 271.324 253.155 267.769 261.122C264.337 269.09 259.556 275.893 253.427 281.532C247.298 287.171 240.25 291.523 232.282 294.587C224.437 297.529 216.101 299 207.276 299H164.617ZM182.453 281.9H203.782C211.137 281.9 217.879 280.797 224.008 278.59C230.259 276.384 235.653 273.197 240.189 269.029C244.847 264.861 248.463 259.774 251.037 253.768C253.611 247.639 254.898 240.713 254.898 232.99C254.898 224.777 253.55 217.606 250.853 211.477C248.156 205.225 244.479 200.016 239.821 195.848C235.163 191.68 229.892 188.554 224.008 186.471C218.124 184.264 211.934 183.161 205.437 183.161H182.453V281.9Z" fill="white"/>
</svg>
