<svg width="353" height="353" viewBox="0 0 353 353" fill="none" xmlns="http://www.w3.org/2000/svg">
<rect width="349" height="349" transform="translate(2 2)" fill="#6730EC"/>
<path d="M345 169V345H8V8H345V71.5L283.5 133" stroke="#A9FFF5" stroke-width="16"/>
<path d="M51.9023 226.043C53.6244 226.043 55.2057 226.278 56.646 226.747C58.1176 227.186 59.3857 227.859 60.4503 228.767C61.5462 229.644 62.3916 230.739 62.9866 232.055C63.6128 233.338 63.9259 234.841 63.9259 236.563C63.9259 237.91 63.7224 239.225 63.3153 240.509C62.9396 241.792 62.2977 242.967 61.3897 244.031C60.4816 245.064 59.2918 245.91 57.8202 246.567C56.3798 247.194 54.5951 247.507 52.4659 247.507H47.4404V260H42.8846V226.043H51.9023ZM52.372 243.139C53.7184 243.139 54.8299 242.935 55.7066 242.528C56.6147 242.121 57.3192 241.605 57.8202 240.978C58.3211 240.321 58.6812 239.616 58.9004 238.865C59.1196 238.113 59.2292 237.409 59.2292 236.751C59.2292 236.062 59.1039 235.358 58.8534 234.638C58.6343 233.886 58.2585 233.197 57.7262 232.571C57.2252 231.945 56.552 231.428 55.7066 231.021C54.8925 230.614 53.8906 230.411 52.7007 230.411H47.4404V243.139H52.372ZM57.9611 245.722L66.8379 260H61.5775L52.5598 245.863L57.9611 245.722ZM70.997 243.045C70.997 240.696 71.4354 238.489 72.3121 236.422C73.2201 234.325 74.4726 232.477 76.0695 230.88C77.6664 229.252 79.4981 227.984 81.5646 227.076C83.6625 226.137 85.9169 225.667 88.3279 225.667C90.7076 225.667 92.9307 226.137 94.9973 227.076C97.0951 227.984 98.9425 229.252 100.539 230.88C102.168 232.477 103.436 234.325 104.344 236.422C105.252 238.489 105.706 240.696 105.706 243.045C105.706 245.456 105.252 247.71 104.344 249.808C103.436 251.906 102.168 253.753 100.539 255.35C98.9425 256.916 97.0951 258.153 94.9973 259.061C92.9307 259.937 90.7076 260.376 88.3279 260.376C85.9169 260.376 83.6625 259.937 81.5646 259.061C79.4981 258.184 77.6664 256.963 76.0695 255.397C74.4726 253.832 73.2201 252 72.3121 249.902C71.4354 247.804 70.997 245.518 70.997 243.045ZM75.6937 243.092C75.6937 244.877 76.0225 246.552 76.6801 248.117C77.3376 249.652 78.2456 251.014 79.4042 252.203C80.5627 253.393 81.9091 254.333 83.4433 255.021C84.9776 255.679 86.6371 256.008 88.4219 256.008C90.1753 256.008 91.8192 255.679 93.3534 255.021C94.8877 254.333 96.2184 253.393 97.3456 252.203C98.4728 251.014 99.3652 249.652 100.023 248.117C100.68 246.552 101.009 244.861 101.009 243.045C101.009 241.26 100.68 239.585 100.023 238.019C99.3652 236.422 98.4572 235.029 97.2987 233.839C96.1401 232.649 94.7937 231.726 93.2595 231.068C91.7252 230.379 90.0814 230.035 88.3279 230.035C86.5432 230.035 84.8837 230.379 83.3494 231.068C81.8151 231.757 80.4687 232.696 79.3102 233.886C78.1517 235.076 77.2593 236.469 76.6331 238.066C76.0069 239.632 75.6937 241.307 75.6937 243.092ZM111.268 243.045C111.268 240.696 111.706 238.489 112.583 236.422C113.491 234.325 114.743 232.477 116.34 230.88C117.937 229.252 119.769 227.984 121.835 227.076C123.933 226.137 126.188 225.667 128.599 225.667C130.978 225.667 133.201 226.137 135.268 227.076C137.366 227.984 139.213 229.252 140.81 230.88C142.438 232.477 143.706 234.325 144.614 236.422C145.522 238.489 145.976 240.696 145.976 243.045C145.976 245.456 145.522 247.71 144.614 249.808C143.706 251.906 142.438 253.753 140.81 255.35C139.213 256.916 137.366 258.153 135.268 259.061C133.201 259.937 130.978 260.376 128.599 260.376C126.188 260.376 123.933 259.937 121.835 259.061C119.769 258.184 117.937 256.963 116.34 255.397C114.743 253.832 113.491 252 112.583 249.902C111.706 247.804 111.268 245.518 111.268 243.045ZM115.964 243.092C115.964 244.877 116.293 246.552 116.951 248.117C117.608 249.652 118.516 251.014 119.675 252.203C120.833 253.393 122.18 254.333 123.714 255.021C125.248 255.679 126.908 256.008 128.693 256.008C130.446 256.008 132.09 255.679 133.624 255.021C135.158 254.333 136.489 253.393 137.616 252.203C138.744 251.014 139.636 249.652 140.293 248.117C140.951 246.552 141.28 244.861 141.28 243.045C141.28 241.26 140.951 239.585 140.293 238.019C139.636 236.422 138.728 235.029 137.569 233.839C136.411 232.649 135.064 231.726 133.53 231.068C131.996 230.379 130.352 230.035 128.599 230.035C126.814 230.035 125.154 230.379 123.62 231.068C122.086 231.757 120.739 232.696 119.581 233.886C118.422 235.076 117.53 236.469 116.904 238.066C116.278 239.632 115.964 241.307 115.964 243.092ZM153.652 260V224.962H153.699L171.499 250.231L169.574 249.855L187.327 224.962H187.421V260H182.913V235.295L183.194 237.597L170.372 255.726H170.278L157.268 237.597L158.067 235.483V260H153.652ZM42.8846 307V273.043H52.1371C55.4875 273.043 58.3368 273.559 60.6852 274.593C63.0648 275.626 64.9748 276.988 66.4152 278.679C67.8555 280.37 68.9044 282.248 69.562 284.315C70.2508 286.35 70.5952 288.385 70.5952 290.421C70.5952 292.988 70.1412 295.29 69.2332 297.325C68.3565 299.36 67.1353 301.098 65.5697 302.538C64.0042 303.978 62.2038 305.09 60.1685 305.873C58.1646 306.624 56.0354 307 53.781 307H42.8846ZM47.4404 302.632H52.8886C54.7673 302.632 56.4894 302.35 58.055 301.787C59.6519 301.223 61.0296 300.409 62.1881 299.344C63.3779 298.28 64.3016 296.98 64.9592 295.446C65.6167 293.88 65.9455 292.111 65.9455 290.139C65.9455 288.041 65.6011 286.209 64.9122 284.644C64.2234 283.047 63.284 281.716 62.0942 280.651C60.9043 279.587 59.5579 278.788 58.055 278.256C56.552 277.692 54.9708 277.411 53.3113 277.411H47.4404V302.632ZM78.2476 273.043H100.322V277.411H82.8034V287.743H98.4435V292.111H82.8034V302.632H100.98V307H78.2476V273.043ZM126.452 279.101C125.294 278.507 124.025 277.99 122.648 277.552C121.27 277.113 119.924 276.894 118.609 276.894C116.792 276.894 115.337 277.317 114.241 278.162C113.176 279.008 112.644 280.135 112.644 281.544C112.644 282.608 112.988 283.516 113.677 284.268C114.366 284.988 115.274 285.614 116.401 286.147C117.528 286.679 118.702 287.18 119.924 287.65C120.988 288.057 122.037 288.511 123.07 289.012C124.104 289.513 125.027 290.139 125.842 290.89C126.687 291.642 127.344 292.565 127.814 293.661C128.315 294.757 128.566 296.119 128.566 297.747C128.566 299.532 128.112 301.16 127.204 302.632C126.327 304.104 125.059 305.262 123.399 306.108C121.74 306.953 119.767 307.376 117.481 307.376C115.978 307.376 114.538 307.204 113.16 306.859C111.814 306.515 110.562 306.076 109.403 305.544C108.244 304.98 107.211 304.401 106.303 303.806L108.323 300.237C109.074 300.769 109.935 301.286 110.906 301.787C111.877 302.256 112.894 302.648 113.959 302.961C115.023 303.243 116.057 303.384 117.059 303.384C118.123 303.384 119.172 303.196 120.205 302.82C121.27 302.413 122.147 301.802 122.836 300.988C123.524 300.174 123.869 299.094 123.869 297.747C123.869 296.589 123.556 295.634 122.93 294.882C122.335 294.1 121.536 293.442 120.534 292.91C119.532 292.346 118.468 291.845 117.34 291.407C116.276 291 115.196 290.561 114.1 290.092C113.004 289.591 111.986 288.996 111.047 288.307C110.107 287.587 109.356 286.71 108.792 285.677C108.229 284.644 107.947 283.391 107.947 281.92C107.947 280.135 108.37 278.585 109.215 277.27C110.092 275.923 111.282 274.874 112.785 274.123C114.288 273.34 116.01 272.917 117.951 272.855C120.143 272.855 122.068 273.121 123.728 273.653C125.419 274.186 126.906 274.843 128.19 275.626L126.452 279.101ZM208.856 304.088C208.386 304.495 207.729 304.902 206.883 305.309C206.038 305.685 205.099 306.029 204.065 306.342C203.063 306.656 202.014 306.906 200.919 307.094C199.854 307.282 198.852 307.376 197.913 307.376C195.189 307.376 192.731 306.953 190.539 306.108C188.378 305.262 186.515 304.088 184.95 302.585C183.415 301.082 182.226 299.313 181.38 297.278C180.566 295.243 180.159 293.035 180.159 290.655C180.159 287.837 180.613 285.317 181.521 283.094C182.46 280.839 183.729 278.945 185.325 277.411C186.954 275.845 188.817 274.671 190.915 273.888C193.012 273.074 195.236 272.667 197.584 272.667C199.557 272.667 201.388 272.902 203.079 273.371C204.77 273.841 206.257 274.436 207.541 275.156L205.991 279.336C205.365 278.961 204.582 278.616 203.643 278.303C202.735 277.99 201.795 277.739 200.825 277.552C199.854 277.332 198.946 277.223 198.101 277.223C196.097 277.223 194.281 277.536 192.652 278.162C191.024 278.757 189.631 279.634 188.472 280.792C187.314 281.92 186.421 283.297 185.795 284.925C185.169 286.522 184.856 288.323 184.856 290.327C184.856 292.174 185.169 293.865 185.795 295.399C186.421 296.933 187.314 298.264 188.472 299.391C189.631 300.487 191.008 301.348 192.605 301.975C194.234 302.569 196.018 302.867 197.96 302.867C199.118 302.867 200.261 302.757 201.388 302.538C202.515 302.288 203.486 301.943 204.3 301.505V294.742H197.537V290.374H208.856V304.088ZM246.945 308.08L220.691 281.45L222.006 281.779L222.1 307H217.544V272.009H217.779L243.752 298.734L242.671 298.499L242.577 273.043H247.086V308.08H246.945ZM256.851 273.043H278.926V277.411H261.407V287.743H277.047V292.111H261.407V302.632H279.583V307H256.851V273.043ZM296.508 273.043C298.23 273.043 299.811 273.278 301.252 273.747C302.723 274.186 303.991 274.859 305.056 275.767C306.152 276.644 306.997 277.739 307.592 279.055C308.218 280.338 308.531 281.841 308.531 283.563C308.531 284.91 308.328 286.225 307.921 287.509C307.545 288.792 306.903 289.967 305.995 291.031C305.087 292.064 303.897 292.91 302.426 293.567C300.985 294.194 299.201 294.507 297.071 294.507H292.046V307H287.49V273.043H296.508ZM296.978 290.139C298.324 290.139 299.435 289.935 300.312 289.528C301.22 289.121 301.925 288.605 302.426 287.978C302.927 287.321 303.287 286.616 303.506 285.865C303.725 285.113 303.835 284.409 303.835 283.751C303.835 283.062 303.709 282.358 303.459 281.638C303.24 280.886 302.864 280.197 302.332 279.571C301.831 278.945 301.158 278.428 300.312 278.021C299.498 277.614 298.496 277.411 297.306 277.411H292.046V290.139H296.978ZM302.567 292.722L311.443 307H306.183L297.165 292.863L302.567 292.722Z" fill="white"/>
<path d="M131.902 307L147.495 271.07H147.871L163.464 307H155.573L145.616 281.732L150.548 278.35L138.618 307H131.902ZM142.563 294.507H152.943L155.338 300.237H140.45L142.563 294.507ZM167.423 286.475H173.998V307H167.423V286.475ZM167.282 279.195C167.282 278.225 167.657 277.426 168.409 276.8C169.192 276.174 170.021 275.861 170.898 275.861C171.775 275.861 172.573 276.174 173.293 276.8C174.045 277.426 174.421 278.225 174.421 279.195C174.421 280.166 174.045 280.965 173.293 281.591C172.573 282.186 171.775 282.483 170.898 282.483C170.021 282.483 169.192 282.186 168.409 281.591C167.657 280.965 167.282 280.166 167.282 279.195Z" fill="#A9FFF5"/>
</svg>
