<svg xmlns="http://www.w3.org/2000/svg" version="1.1" xmlns:xlink="http://www.w3.org/1999/xlink" width="512" height="512" x="0" y="0" viewBox="0 0 32 32" style="enable-background:new 0 0 512 512" xml:space="preserve"><g><path fill="#1fdab9" fill-rule="evenodd" d="M13 6a1 1 0 0 0-1 1v14a1 1 0 0 0 1 1h10a1 1 0 1 1 0 2h-3v1a3 3 0 0 1-3 3H7a3 3 0 0 1-3-3V11a3 3 0 0 1 3-3h2.884c.039 0 .078.002.116.007V7a3 3 0 0 1 3-3h9.172a3 3 0 0 1 2.12.879l2.83 2.828A3 3 0 0 1 28 9.828V19a1 1 0 1 1-2 0v-7h-2a3 3 0 0 1-3-3V6zm10 .414V9a1 1 0 0 0 1 1h2v-.172a1 1 0 0 0-.293-.707zM13 24h5v1a1 1 0 0 1-1 1H7a1 1 0 0 1-1-1V11a1 1 0 0 1 1-1h2.884c.039 0 .078-.002.116-.007V21a3 3 0 0 0 3 3z" clip-rule="evenodd" opacity="1" data-original="#000000"></path></g></svg>