<svg xmlns="http://www.w3.org/2000/svg" version="1.1" xmlns:xlink="http://www.w3.org/1999/xlink" width="512" height="512" x="0" y="0" viewBox="0 0 32 32" style="enable-background:new 0 0 512 512" xml:space="preserve" class=""><g><g fill-rule="evenodd" stroke-linecap="round" stroke-linejoin="round" stroke-miterlimit="4.1"><path d="M15 24a1 1 0 0 0-1 1 1 1 0 0 0 1 1h10a1 1 0 0 0 1-1 1 1 0 0 0-1-1zM15 20a1 1 0 0 0-1 1 1 1 0 0 0 1 1h10a1 1 0 0 0 1-1 1 1 0 0 0-1-1zM15 16a1 1 0 0 0-1 1 1 1 0 0 0 1 1h10a1 1 0 0 0 1-1 1 1 0 0 0-1-1zM15 12a1 1 0 0 0-1 1 1 1 0 0 0 1 1h5a1 1 0 0 0 1-1 1 1 0 0 0-1-1z" fill="#1fdab9" opacity="1" data-original="#000000" class=""></path><path d="M15 2a1 1 0 0 0-1 1v1h-1c-1.645 0-3 1.355-3 3v20c0 1.645 1.355 3 3 3h14c1.645 0 3-1.355 3-3V7c0-1.645-1.355-3-3-3h-1V3a1 1 0 0 0-1-1 1 1 0 0 0-1 1v1h-3V3a1 1 0 0 0-1-1 1 1 0 0 0-1 1v1h-3V3a1 1 0 0 0-1-1zm-2 4h1v1a1 1 0 0 0 1 1 1 1 0 0 0 1-1V6h3v1a1 1 0 0 0 1 1 1 1 0 0 0 1-1V6h3v1a1 1 0 0 0 1 1 1 1 0 0 0 1-1V6h1c.571 0 1 .429 1 1v2H12V7c0-.571.429-1 1-1zm-1 5h16v16c0 .571-.429 1-1 1H13c-.571 0-1-.429-1-1zM5 2C3.355 2 2 3.355 2 5v21a1 1 0 0 0 .168.555l2 3a1 1 0 0 0 1.664 0l2-3A1 1 0 0 0 8 26V5c0-1.645-1.355-3-3-3zm0 2c.564 0 1 .436 1 1v2H4V5c0-.564.436-1 1-1zM4 9h2v16.697l-1 1.5-1-1.5z" fill="#1fdab9" opacity="1" data-original="#000000" class=""></path></g></g></svg>