<svg xmlns="http://www.w3.org/2000/svg" version="1.1" xmlns:xlink="http://www.w3.org/1999/xlink" width="512" height="512" x="0" y="0" viewBox="0 0 512 512" style="enable-background:new 0 0 512 512" xml:space="preserve" class=""><g><path d="M205.956 452H100c-44.183 0-80-35.817-80-80V100c0-44.183 35.817-80 80-80h272c44.183 0 80 35.817 80 80v109.09M282.294 492c0-36.22 14.388-70.957 40-96.569L423.716 294.01c15.621-15.621 40.948-15.621 56.568 0 15.621 15.621 15.621 40.948 0 56.569L378.863 452a136.567 136.567 0 0 1-96.569 40zM452 378.863l-56.569-56.569" style="stroke-width:40;stroke-linecap:round;stroke-linejoin:round;stroke-miterlimit:10;" fill="none" stroke="#1fdab9" stroke-width="40" stroke-linecap="round" stroke-linejoin="round" stroke-miterlimit="10" data-original="#000000" opacity="1"></path><path d="m100 260 51.716-51.716c15.621-15.621 40.948-15.621 56.569 0l102.018 102.018" style="stroke-width:40;stroke-linecap:round;stroke-linejoin:round;stroke-miterlimit:10;" fill="none" stroke="#1fdab9" stroke-width="40" stroke-linecap="round" stroke-linejoin="round" stroke-miterlimit="10" data-original="#000000" opacity="1"></path><circle cx="332" cy="140" r="40" style="stroke-width:40;stroke-linecap:round;stroke-linejoin:round;stroke-miterlimit:10;" fill="none" stroke="#1fdab9" stroke-width="40" stroke-linecap="round" stroke-linejoin="round" stroke-miterlimit="10" data-original="#000000" opacity="1"></circle></g></svg>