<svg xmlns="http://www.w3.org/2000/svg" version="1.1" xmlns:xlink="http://www.w3.org/1999/xlink" width="512" height="512" x="0" y="0" viewBox="0 0 512 512" style="enable-background:new 0 0 512 512" xml:space="preserve" class=""><g><path d="M20 212v-40M20 92V60c0-22.091 17.909-40 40-40h36M416 20h36c22.091 0 40 17.909 40 40v36M176 20h40M336 20h-40M300 492h40M420 492h32c22.091 0 40-17.909 40-40v-36M492 336v-40M492 216v-40M296 96h80c22.091 0 40 17.909 40 40v80M260.814 251.186l143.47-143.47M180 492H60c-22.091 0-40-17.909-40-40V332c0-22.091 17.909-40 40-40h120c22.091 0 40 17.909 40 40v120c0 22.091-17.909 40-40 40z" style="stroke-width:40;stroke-linecap:round;stroke-linejoin:round;stroke-miterlimit:10;" fill="none" stroke="#1fdab9" stroke-width="40" stroke-linecap="round" stroke-linejoin="round" stroke-miterlimit="10" data-original="#000000" opacity="1" class=""></path></g></svg>