<svg width="512" height="513" viewBox="0 0 512 513" fill="none" xmlns="http://www.w3.org/2000/svg">
<g clip-path="url(#clip0_1_2)">
<path d="M128 448.668L448 128.668L384 64.6676L64 384.668L128 448.668Z" stroke="#1FDAB9" stroke-width="32.0415" stroke-linecap="round" stroke-linejoin="round"/>
<path d="M320 128.668L384 192.668" stroke="#1FDAB9" stroke-width="32.0415" stroke-linecap="round" stroke-linejoin="round"/>
<path d="M192 64.6676C192 75.9835 196.495 86.836 204.497 94.8375C212.498 102.839 223.351 107.334 234.667 107.334C223.351 107.334 212.498 111.83 204.497 119.831C196.495 127.833 192 138.685 192 150.001C192 138.685 187.505 127.833 179.503 119.831C171.502 111.83 160.649 107.334 149.333 107.334C160.649 107.334 171.502 102.839 179.503 94.8375C187.505 86.836 192 75.9835 192 64.6676Z" stroke="#1FDAB9" stroke-width="32.0415" stroke-linecap="round" stroke-linejoin="round"/>
<path d="M405.333 278.001C405.333 289.317 409.829 300.169 417.83 308.171C425.832 316.172 436.684 320.668 448 320.668C436.684 320.668 425.832 325.163 417.83 333.164C409.829 341.166 405.333 352.018 405.333 363.334C405.333 352.018 400.838 341.166 392.837 333.164C384.835 325.163 373.983 320.668 362.667 320.668C373.983 320.668 384.835 316.172 392.837 308.171C400.838 300.169 405.333 289.317 405.333 278.001Z" stroke="#1FDAB9" stroke-width="32.0415" stroke-linecap="round" stroke-linejoin="round"/>
</g>
<defs>
<clipPath id="clip0_1_2">
<rect width="512" height="512" fill="white" transform="translate(0 0.667603)"/>
</clipPath>
</defs>
</svg>
