<?xml version="1.0" encoding="UTF-8"?><svg id="Layer_1" xmlns="http://www.w3.org/2000/svg" width="520" height="520" viewBox="0 0 520 520"><defs><style>.cls-1{opacity:.35;}.cls-1,.cls-2,.cls-3,.cls-4{fill:#231f20;stroke-width:0px;}.cls-2{opacity:.2;}.cls-3{opacity:.25;}.cls-5{opacity:.45;}.cls-6{opacity:.55;}</style></defs><path class="cls-4" d="m200.61,47.25c-.55.29-1.09.36-1.59.41-.16.01-.21-.13-.07-.24.31-.23.62-.46.87-.65.09-.06.87-.58,1.79-1.14.95-.48,2.05-.97,2.6-1.23,1.11-.38,2.22-.83,3.39-1.06,1.18-.24,2.37-.51,3.58-.6,1.21-.18,2.43-.17,3.66-.17.55-.03,1.09.09,1.62.19.47.09.92.17,1.37.26.46.09.9.22,1.36.32l1.36.3,1.34.4c.3.09.6.2.92.21.26,0,1.58.5,2.89,1.1.63.35,1.26.7,1.78.98.5.31.85.6.98.71.32.28.63.55.95.82.31.28.59.6.88.9l.86.9.76,1c.14.19.34.35.39.59.13.54.41.95.7,1.37.19.3.38.6.55.9.15.32.28.65.4.98.12.33.12.71.14,1.06.02.32-.48.35-.57.28-.27-.2-.35.1-.52.2-.05.03-.13.08-.18.09-.06.01-.67-.71-1.27-1.43-.71-.66-1.34-1.36-1.49-1.49-.02-.02-.24-.26-.58-.63-.17-.18-.36-.39-.57-.62-.24-.2-.49-.42-.75-.65-.26-.22-.51-.44-.76-.66-.26-.2-.53-.37-.76-.53-.46-.31-.81-.55-.94-.63-.26-.15-.5-.35-.74-.55-.07-.02-.96-.61-1.97-.99-.5-.2-.98-.43-1.37-.57-.39-.13-.67-.22-.71-.23l-1.2-.45c-.41-.13-.82-.26-1.21-.47-.15-.08-.33-.12-.5-.16-.72-.21-1.46-.26-2.19-.42-.73-.17-1.48-.24-2.23-.32-.38-.04-.77-.09-1.15-.09l-1.16.03c-.14,0-.28-.02-.42-.03-.18-.01-.36-.03-.53-.03-.92.05-1.83.19-2.75.27-.91.14-1.81.37-2.71.59-.41.09-2.39.64-2.88.77-.27.08-1.18.26-1.41.39Z"/><path class="cls-4" d="m318.16,491.71l4.28.13c.52.02,1.03-.01,1.55,0,1.82.08,3.64.15,5.46.15.81,0,1.62-.05,2.42-.08l1.54-.09c.51-.09,1.04.16,1.56.13.32.02.29.18.03.38-.13.11-.32.19-.54.35-.13.09-.25.17-.36.24-.06.04-.13.07-.2.12-.07.01-.14.03-.22.04-1.05.14-2.1.28-3.16.34-1.06.04-2.12.04-3.19-.01-1.28-.07-2.6.05-3.9.06l-4.27.02c-.87.01-1.75.03-2.62.07-1.32.06-2.65.11-3.96.26-1.02.12-2,.36-3,.57-.22.05-.43.1-.66.13-.83.11-1.1,0-1.34-.53-.05-.12-.12-.24-.16-.36-.12-.41.18-.79.77-.99,1.77-.61,3.69-.74,5.63-.87,1.44-.08,2.89-.09,4.33-.1v.05Z"/><path class="cls-4" d="m311.68,493.99c2.32.09,4.65.16,6.96.19.85.01,1.69-.05,2.54-.04,2.98.04,5.96.04,8.94-.05,1.32-.02,2.65-.12,3.96-.22,1.67-.18,3.37-.23,5.06-.28.53,0,.47.11.05.33-.42.21-1.2.6-2.15.86-1.69.47-3.42.68-5.14.92-1.72.25-3.46.34-5.21.34-2.09.01-4.25.24-6.39.33-2.34.09-4.69.13-7.03.17l-4.32.05c-2.18.04-4.37.01-6.53.13-1.68.08-3.32.39-4.97.55-.36.03-.72.09-1.09.11-1.36.07-1.8-.12-2.13-.84-.07-.16-.17-.32-.22-.49-.16-.55.38-1.04,1.37-1.29,2.96-.83,6.11-.85,9.26-.91,2.34-.04,4.69.03,7.04.07v.06Z"/><path class="cls-4" d="m306.45,496.28c2.64-.04,5.28-.11,7.92-.2.96-.02,1.92-.11,2.89-.13,3.4-.07,6.81-.14,10.21-.22,1.51,0,3.03-.05,4.53-.09.97.02,1.94.02,2.9.08.48.03.97.06,1.45.11.24.01.48.07.72.15.24.06.48.07.72.11.6.1.51.07,0,.08-.25.03-.62,0-1.05.21-.43.13-.94.21-1.49.31l-2.91.48c-.97.14-1.95.22-2.92.32-1.95.23-3.92.25-5.9.27-2.37.01-4.82.29-7.25.43-2.66.16-5.33.22-8,.31l-4.93.12c-2.49.05-5,.04-7.48.05-1.93-.01-3.83.12-5.8-.1-.44-.05-.87-.08-1.32-.19-.83-.19-1.42-.45-1.79-.83-.38-.37-.48-.86-.28-1.17.08-.14.21-.28.33-.31.21-.06.42.07.59.02.15-.05.34-.02.81.07,1.38.26,3.14.17,4.83.22,1.72.02,3.48.02,5.25,0,2.63-.03,5.29-.07,7.95-.16v.06Z"/><path class="cls-4" d="m248.73,488.8c1.66.03,3.33.05,5,.05.61,0,1.22-.06,1.82-.06,2.15.03,4.31.18,6.46.24.95.04,1.91.02,2.85.03,1.21-.06,2.43.14,3.64.28.38.05.33.09,0,.19-.32.09-.9.33-1.6.48-1.23.31-2.46.31-3.69.43-1.23.08-2.46.15-3.7.15-1.48,0-3.01.26-4.53.34l-5.02.27c-1.03.05-2.07.1-3.1.12-1.57.04-3.14.04-4.7.12-1.21.07-2.39.27-3.59.41-.26.03-.52.07-.79.07-.99.02-1.3-.16-1.51-.83-.05-.15-.11-.3-.14-.45-.09-.51.3-.94,1.02-1.12,2.11-.56,4.33-.6,6.56-.7,1.66-.04,3.32-.12,4.99-.1v.06Z"/><path class="cls-4" d="m246.84,490.62c2.21.06,4.42.1,6.64.1.81,0,1.61-.05,2.42-.03,2.85.05,5.71.09,8.56.07,1.27-.03,2.54-.05,3.79-.08l2.42-.05c.81-.04,1.62.13,2.43.19.5.06.44.09.02.23-.28.1-.58.22-.87.32-.2.07-.39.15-.58.22-.1.04-.21.07-.32.12l-.34.05c-1.64.19-3.27.42-4.92.54-1.65.09-3.3.15-4.96.15-1.99,0-4.05.22-6.08.31-2.23.1-4.47.13-6.71.17l-4.13.04c-2.09,0-4.19,0-6.27,0-1.62,0-3.21.15-4.88.09-.37-.01-.73,0-1.12-.06-.7-.09-1.21-.28-1.54-.54-.15-.11-.3-.32-.35-.48-.06-.16-.08-.36-.03-.58.05-.19.11-.36.23-.47.58-.26.58-.67,1.43-.59,1.2.06,2.64.02,4.07.04,1.45.03,2.92.06,4.39.09,2.2.05,4.43.11,6.66.12v.06Z"/><path class="cls-3" d="m247.59,471.08s-21.11,15.77-20.6,17.47,4.17,3.64,10.29,1.94c6.12-1.7,14.38-4.48,18.74-7.28,4.36-2.79,6-5.49,6-5.49,0,0,1.76-6.75-3.94-8.08-5.69-1.33-10.49,1.44-10.49,1.44Z"/><path class="cls-3" d="m310.58,473.27s-17.59,11.32-18.19,11.87-7.79,8.63-6.63,9.77c1.16,1.14,10.99.68,10.99.68l21.84-9.61,9.6-6.56s.8-8.93-3.91-9.07c-4.71-.15-13.71,2.92-13.71,2.92Z"/><path class="cls-2" d="m113.75,93.06c.51,6.96-7.9,14.72-17.02,13.44-6.98-.98-12.19-6.81-12.19-14.37,0-16.87,27.92-16.87,29.21.93Z"/><path class="cls-4" d="m207.56,89.31c-.4,1.69-.64,3.46-.66,5.19-.02,2.02.28,4.41,2.05,5.66,1.05.74,2.41.73,3.6.38.75-.22,1.3-1.07,1.05-1.85s-1.04-1.28-1.85-1.05c-.14.04-.49.19-.63.14.08.03.35-.03.15-.02-.05,0-.11,0-.16,0-.1,0-.2,0-.3,0-.24,0,.37.1.09,0-.07-.02-.15-.05-.23-.06-.2-.04.33.18.09.04-.05-.03-.19-.14-.24-.15.12.01.29.27.08.06-.05-.05-.1-.11-.15-.16-.17-.15.21.32.06.07-.05-.09-.11-.17-.16-.25-.04-.07-.07-.14-.11-.22-.14-.27.09.28.03.06-.05-.18-.12-.35-.17-.54-.05-.19-.09-.39-.12-.58,0-.04-.01-.08-.02-.12-.04-.19.04.35.02.15,0-.11-.02-.22-.03-.33-.04-.43-.05-.87-.04-1.3s.03-.85.06-1.27c.02-.21.04-.43.06-.64.01-.1.02-.19.03-.29.03-.24.06-.29,0,0,.15-.71.23-1.44.39-2.15.18-.76-.24-1.66-1.05-1.85-.77-.17-1.65.23-1.85,1.05h0Z"/><path class="cls-4" d="m217.02,90.52c-.17,2.1-.63,4.14-1.3,6.09-.25.71-.43,1.44-.76,2.12-1.16,2.39-2.81,4.52-4.73,6.27-.86.77-1.77,1.51-2.76,2.09-.64.37-1.28.74-1.99.96-.72.2-1.45.31-2.18.33-.46.01-.41-.14-.11-.46.15-.16.36-.37.61-.6.24-.25.51-.53.82-.74.26-.23.53-.41.81-.57l.79-.57.74-.62.7-.66c.96-.85,1.84-1.8,2.69-2.83,1.05-1.23,1.6-2.85,2.18-4.38.63-1.7,1.08-3.48,1.28-5.3.11-1.12.14-2.25.07-3.38-.13-1.7-.47-3.41-1.17-4.94-.54-1.2-1.35-2.21-2.23-3.11-.18-.21-.41-.37-.59-.58-.66-.78-.77-1.12-.34-1.92.1-.18.18-.37.28-.53.36-.56,1.07-.62,1.89-.13,2.34,1.53,4.04,4.2,4.78,7.03.57,2.11.73,4.29.63,6.41h-.08Z"/><path class="cls-4" d="m254.96,470.05c.55.21,1.1.42,1.67.59.21.07.42.06.63.13.73.23,1.45.54,2.19.72.33.09.67.1,1,.16.21.03.43.04.64.08.11.02.21.04.32.08.11.02.21.17.31.24.13.12.11.2-.02.42-.09.16-.19.33-.26.45-.11.16-.23.24-.36.28-.46.09-.92.23-1.37.19-.45-.03-.9-.11-1.35-.26-.53-.17-1.11-.12-1.65-.23-.6-.12-1.2-.27-1.79-.42-.37-.1-.73-.19-1.09-.29-.55-.14-1.1-.32-1.66-.4-.43-.07-.9.03-1.35.02-.1,0-.2.02-.3,0-.35-.07-.41-.3-.31-.96l.07-.45c.1-.5.36-.88.65-1,.86-.32,1.6-.13,2.36.07.56.15,1.11.36,1.68.52v.06Z"/><path class="cls-4" d="m314.55,471.43c1,0,2.01-.03,3.02-.11.37-.02.72-.12,1.09-.14,1.29-.11,2.6-.15,3.9-.34.57-.07,1.14-.22,1.69-.35.71-.2,1.45-.27,2.21-.32.24,0,.24.12.11.34-.14.21-.41.59-.78.83-.66.46-1.4.69-2.14.9-.74.21-1.49.38-2.26.47-.92.12-1.84.4-2.77.55-1.03.16-2.06.28-3.09.38l-1.91.16c-.96.08-1.93.12-2.89.22-.74.08-1.46.3-2.2.44-.16.03-.32.08-.48.09-.61.05-.81-.12-.95-.78-.03-.15-.07-.3-.09-.45-.07-.51.17-.94.6-1.12,1.27-.53,2.6-.62,3.94-.74,1-.03,2.01-.06,3.02-.1v.06Z"/><path class="cls-4" d="m258.11,247.77c.65.24,1.35.44,2.07.59.26.06.54.02.8.07.94.17,1.91.28,2.9.38.44.03.87-.04,1.3-.07.56-.05,1.08-.23,1.74.1.21.1.2.18.11.45-.09.26-.25.87-.56,1.1-1.14.6-2.41.79-3.68.58-.75-.18-1.53-.09-2.3-.21-.84-.12-1.67-.33-2.48-.59-.5-.19-.99-.36-1.47-.6-.73-.32-1.42-.78-2.07-1.27-.5-.39-1.06-.76-1.46-1.34-.09-.13-.19-.24-.27-.38-.22-.54-.13-.77.35-.99.11-.05.22-.1.33-.14.38-.12.77-.03.97.16.61.55,1.15.94,1.9,1.35.55.28,1.16.57,1.84.75v.06Z"/><path class="cls-4" d="m257.28,249.72s5.93,11.06,10.04,64.23c1.15,14.88,7.92,90.22,8.11,92.74s4.34,50.6,4.67,51.45,1.22,13.91,14.45,13.34c13.23-.57,36.96-1.2,50.38-7.13,13.43-5.93,34.22-10.58,38.5-16.44,4.29-5.86,1.64-22.87,1.64-22.87,0,0-19.79-89.19-23.96-94.68-4.17-5.49-19.84-62.52-19.84-62.52l-10.97-30.86s-17.69,6.41-18.54,6.78-36.69,6.46-36.69,6.46l-17.8-.5Z"/><path class="cls-4" d="m258.28,268.41c-.06,1.13,10.02,90.35,9.54,123.11-.35,24.1,9.04,79.2,9.04,79.2-4.52,2.62-22.33-1.24-27.5-3.1s-22.4-5.91-21.07-8.98,18.09-67.32,18.09-67.32l8.11-77.52,3.79-45.38Z"/><path class="cls-4" d="m315.73,209.08c-1.03-1.14-2.09-2.26-3.19-3.33-.41-.39-.86-.72-1.27-1.11-1.46-1.33-2.84-2.81-4.38-4.07-.68-.57-1.41-1.07-2.14-1.56-.93-.64-1.83-1.33-2.71-2.06-.27-.24-.17-.32.18-.34.35,0,.99-.01,1.65.18.57.2,1.14.39,1.69.63.53.27,1.03.58,1.54.88,1.02.61,1.98,1.3,2.89,2.07,1.09.91,2.33,1.72,3.44,2.66,1.21,1.04,2.39,2.12,3.52,3.24.72.67,1.38,1.4,2.06,2.1,1,1.1,2.01,2.2,3.01,3.29.8.82,1.67,1.57,2.4,2.47.16.19.35.37.47.6.45.86.45,1.22.12,1.68-.07.1-.13.21-.19.28-.2.24-.79.17-1.35-.22-.92-.52-1.64-1.2-2.43-1.84-.71-.71-1.41-1.45-2.13-2.19-1.05-1.11-2.12-2.21-3.21-3.31l.05-.05Z"/><path class="cls-4" d="m386.67,243.46c.55-1.07,1.09-2.15,1.66-3.22.2-.39.36-.8.59-1.19.78-1.36,1.62-2.68,2.55-3.94.41-.56.82-1.12,1.23-1.67l.83-1.04c.15-.16.34-.29.52-.43.18-.14.37-.27.59-.36.27-.12.27-.07.25.23,0,.32,0,.87-.19,1.33-.94,1.44-1.73,2.92-2.8,4.3-.62.84-1.02,1.87-1.49,2.83-.51,1.06-1.02,2.13-1.51,3.22l-.89,2.02c-.42,1.03-.93,2.04-1.32,3.08-.31.81-.51,1.65-.81,2.46-.06.18-.11.36-.19.54-.3.65-.52.79-1.03.72-.12-.02-.24-.03-.35-.06-.37-.1-.54-.5-.46-1.02.14-.76.28-1.54.51-2.29.24-.75.52-1.49.81-2.24.41-1.12.95-2.2,1.45-3.3l.05.02Z"/><path class="cls-4" d="m386.67,246.84s-10.93,14.41-5.42,15.77c3.04.75,11-14.25,11-14.25l-5.58-1.51Z"/><path class="cls-4" d="m240.75,239.47c-.81.52-1.63,1.03-2.5,1.44-.84.47-1.74.81-2.63,1.16-.65.26-1.32.47-1.98.68-2.39.61-4.83.84-7.24.81l-1.6-.08-.8-.03-.79-.09c-1.35-.13-2.72-.31-3.95-.96-.39-.18-.32-.21.06-.31.26-.07.54-.15.79-.22.16-.04.34-.11.52-.13.18,0,.36,0,.55.01.66.11,1.34.03,1.99.13l.99.1.99.03c.66.02,1.32.07,1.98.02.66-.04,1.33.01,1.98-.08.79-.08,1.6-.16,2.38-.4l1.18-.32,1.15-.41c1.69-.58,3.3-1.37,4.84-2.3l1.39-.91,1.32-1.02c.66-.52,1.27-1.12,1.9-1.68.58-.62,1.21-1.19,1.75-1.84.42-.51.81-1.02,1.2-1.54.35-.55.73-1.07,1.12-1.59.18-.22.32-.47.49-.7.63-.86.92-1.08,1.32-1.1.09,0,.19-.02.27-.01.26.04.2.52-.12,1.28-.48,1.11-1.01,2.25-1.69,3.32-.72,1.04-1.49,2.08-2.36,3.04-.63.73-1.41,1.33-2.11,1.98-.77.6-1.52,1.21-2.33,1.75l-.03-.04Z"/><path class="cls-4" d="m183.96,191.63c.79-.89,1.53-1.83,2.23-2.81.27-.35.44-.76.7-1.12.88-1.28,1.73-2.6,2.43-4.01.34-.61.59-1.27.84-1.91.33-.83.43-1.72,1.17-2.44.26-.22.31-.17.52.14.25.32.65.9.59,1.45-.35,1.87-.9,3.73-2.02,5.33-.63.97-1.07,2.08-1.67,3.09-.66,1.11-1.43,2.15-2.23,3.16-.49.62-1.01,1.22-1.54,1.81-.79.9-1.67,1.73-2.48,2.59-.65.66-1.2,1.4-1.85,2.08-.14.15-.26.32-.42.45-.62.44-.94.43-1.44,0-.12-.1-.24-.19-.34-.3-.34-.36-.35-.89-.06-1.36.88-1.35,2.05-2.36,3.13-3.54.82-.85,1.64-1.71,2.39-2.65l.05.04Z"/><path class="cls-4" d="m177.93,193.06c-1.12,1.37-8.39,11.96-7.06,13.03,1.34,1.06,10.17-6.36,10.17-6.36l-3.11-6.67Z"/><path class="cls-4" d="m253.33,206.03c-.56.82-3.6,23.17-9.32,28.96-2.3,2.33,7.67-6.66,7.67-6.66l1.65-22.3Z"/><path class="cls-4" d="m278.9,152.77c-1.03,1.29-2.11,2.54-3.19,3.8-.4.45-.74.95-1.15,1.4-1.47,1.56-2.98,3.07-4.62,4.48l-1.09.94c-.34.33-.74.62-1.13.9l-.75.55c-.27.17-.54.33-.83.46l-.43.2c-.15.05-.28.16-.47.12-.36,0-.69,0-1.02-.04-.44-.17-.33,0-.11-.35.1-.19.25-.43.38-.76.07-.15.12-.36.2-.49.09-.13.19-.26.3-.36.2-.19.41-.36.63-.5.21-.16.42-.37.62-.54l.63-.54c.19-.21.42-.38.64-.57.44-.35.88-.72,1.31-1.12.44-.38.9-.75,1.34-1.16,1.09-.93,1.94-2.16,2.87-3.3,1.03-1.25,2.03-2.52,3.02-3.82l1.82-2.4c.9-1.23,1.82-2.46,2.62-3.74.63-1,1.1-2.07,1.68-3.09.13-.23.22-.46.37-.68.54-.8.86-.96,1.51-.77.15.04.3.07.44.13.46.2.58.75.35,1.44-.68,2.04-1.8,3.93-3.02,5.78-.9,1.38-1.88,2.73-2.84,4.08l-.06-.04Z"/><path class="cls-4" d="m261.93,158.83s-5.22,7.9-4.37,10.81,9.55-3.86,9.55-3.86l-5.18-6.95Z"/><path class="cls-4" d="m324.2,124.09c-3.05-4.57-14.39-15.72-18.25-22.76-3.87-7.03-14.6-29.3-15.66-31.7-16.91-38.11-47.69-29.92-59.02-16.25,0,0-23.55-14.8-39.17,17.58-9.81,20.35-8.64,31.02-7.83,35.26.8,4.24,7.55,25.17,9.83,31.94,2.28,6.77,2.4,10.32,2.01,13.21-1.29,9.46,15.15,15.2,21.08,12.31,2.49-1.21,8.16-7.28,8.16-7.28,0,0,3.99,6.87,10.76,9.94,7.34,3.33,12.87.9,12.87.9l4.35-4.35,6.72-11.14s-4.47-5.96-10.77-8.04c-6.29-2.08-29.58-5.64-36.72-11.69-7.14-6.06-13.51-12.3-14.05-21.33-.53-9.04,2.41-21.75,2.41-21.75,0,0,13.15-11.23,15.87-16.33,2.73-5.09,7.43-5.36,8.56-5.04,1.14.33,8.24,2.99,12.53,11.79,4.28,8.8,16.45,34.82,24.05,43.71,7.6,8.88,16.94,21.56,26.93,24.08,11.02,2.78,15.75-6.24,18.12-9.74,1.6-2.36,2.94,3.88,10.16,2.26,4.83-1.09,12.51-7.38,7.06-15.56Zm-52.23-24.07c-.65,2.89-3.67,8.91-3.67,8.91,0,0-5.62-4.4-8.85-8.91s-3.96-7.55-3.96-7.55c0,0,4.45-5.02,9.77-2.22,5.32,2.79,7.37,6.87,6.71,9.77Z"/><path class="cls-4" d="m263.68,478.12c-.13,1.1-.26,2.21-.36,3.32-.04.4.01.81-.03,1.21-.17,1.43-.41,2.86-.54,4.29-.06.63-.11,1.27-.13,1.9-.02.4-.01.81-.07,1.22-.06.41-.19.81-.26,1.22-.05.25-.21.22-.41,0-.17-.21-.53-.6-.73-1.06-.27-.82-.38-1.64-.51-2.47-.12-.82-.03-1.65.04-2.49.13-1-.08-2.03-.04-3.05.02-1.12.08-2.24.13-3.37l.1-2.07c.04-1.05.13-2.1.11-3.14-.02-.81-.22-1.61-.33-2.41-.03-.18-.08-.35-.09-.53-.05-.66.27-.86,1.04-.97.18-.03.36-.06.54-.07.6-.04,1.11.25,1.34.73.5,1.43.54,2.91.51,4.4-.04,1.11-.17,2.22-.24,3.33h-.07Z"/><path class="cls-4" d="m237.14,492.52c-1.97.32-3.97.57-6.11.47-1.08-.07-2.18-.17-3.44-.73-.83-.35-1.41-.94-1.9-1.6-.38-.73-.49-1.58-.29-2.39.04-.3.15-.58.27-.88.1-.25.18-.45.29-.63.2-.38.42-.75.65-1.06.45-.67.94-1.24,1.45-1.77,1.83-1.87,3.79-3.42,5.79-4.9,2-1.48,4.04-2.88,6.11-4.23,1.83-1.2,3.67-2.4,5.49-3.59l1.76-1.14c.6-.36,1.22-.69,1.84-1.02l.94-.48,1.05-.28,1.05-.27c.35-.09.66-.25.99-.36.83-.29.75-.16.19.34-.27.27-.7.57-1.08,1.18-.2.28-.4.61-.62.95-.1.18-.23.32-.32.54-.15.12-.3.24-.46.36l-1.67,1.27c-.56.43-1.16.77-1.74,1.16l-3.5,2.31c-2.32,1.57-4.69,3.07-7.03,4.63-2.77,1.86-5.46,4.24-7.47,6.7-.51.63-.98,1.5-.98,1.67-.03.17,0,.36.12.49.05.08.13.12.2.18.08.05.12.06.31.15.67.25,1.54.37,2.42.39.88.02,1.8-.01,2.71-.12,2.26-.25,4.53-.74,6.77-1.37,3.38-.95,6.75-2.15,9.9-3.67,2.45-1.19,4.71-2.65,6.84-4.21.48-.34.9-.72,1.37-1.06.85-.66,1.44-1.05,1.96-1.19.26-.08.48-.12.69-.12.23.02.46.08.67.14.2.06.41.08.55.14.41.11.31,1.4-.9,2.69-3.74,3.56-8.52,6.06-13.43,8.05-3.67,1.46-7.47,2.62-11.43,3.37l-.02-.08Z"/><path class="cls-4" d="m329.84,478.29l.18,3.84c.03.47.15.92.17,1.39.05.82,0,1.66,0,2.49v2.49c0,.74.08,1.46.18,2.18.05.46.16.92.16,1.39-.02.47-.08.95-.15,1.44-.06.3-.24.29-.55.09-.3-.2-.85-.57-1.15-1.07-.06-.11-.13-.22-.18-.33l-.11-.34-.2-.69c-.13-.46-.26-.92-.36-1.39-.22-.93-.34-1.88-.34-2.85,0-1.16-.39-2.31-.49-3.48l-.33-3.86-.21-2.38c-.12-1.2-.18-2.41-.4-3.58-.16-.91-.55-1.78-.77-2.68-.05-.2-.12-.39-.15-.59-.06-.37-.02-.63.15-.83.15-.19.4-.33.75-.45.16-.06.3-.12.45-.16.45-.13,1.07.1,1.46.61,1.01,1.52,1.28,3.22,1.57,4.92.2,1.27.31,2.55.43,3.83h-.08Z"/><path class="cls-4" d="m301.27,496.13c-2.1.65-4.23,1.23-6.44,1.62-2.22.34-4.47.71-7.02.2-.23-.06-.47-.11-.7-.18l-.72-.27c-.23-.08-.54-.32-.8-.47-.29-.13-.51-.42-.74-.67-.26-.23-.4-.54-.54-.86-.17-.3-.17-.65-.23-.99-.09-.35,0-.64.01-.95.02-.32.09-.58.17-.82.59-1.73,1.53-2.89,2.47-4.01.96-1.09,1.98-2.08,3.02-3.04,2.09-1.89,4.27-3.62,6.49-5.29,1.97-1.48,3.94-2.96,5.89-4.42,1.26-.93,2.55-1.82,3.89-2.64.68-.4,1.37-.78,2.07-1.14.68-.4,1.55-.49,2.33-.69,1.03-.16.82-.25.27.44-.27.34-.59.95-.95,1.68-.41.65-1,1.23-1.67,1.81-.6.51-1.22.99-1.85,1.46-.63.47-1.23.97-1.87,1.42l-3.83,2.72c-2.54,1.84-5.06,3.71-7.5,5.66-1.45,1.17-2.84,2.49-4.01,3.92-.58.71-1.12,1.44-1.52,2.17l-.26.53-.17.48c0,.12-.04.25-.05.34.01.08,0,.17.06.23.02.18.2.29.4.42.19.07.35.16.55.22.21.05.41.12.63.16.88.18,1.89.19,2.9.13,2.02-.13,4.08-.61,6.11-1.16,2.5-.69,4.97-1.57,7.4-2.55,3.67-1.5,7.31-3.19,10.74-5.15,2.67-1.52,5.12-3.28,7.55-5.08.52-.41,1.04-.81,1.57-1.22,1.99-1.47,2.71-1.8,3.68-1.44.21.07.45.12.62.21.54.28.16,1.48-1.26,2.73-4.17,3.76-9.24,6.82-14.5,9.47-3.92,1.95-7.99,3.66-12.2,5.05l-.03-.07Z"/><path class="cls-4" d="m201.36,232.42c2.14,1.28,4.32,2.46,6.53,3.59,2.21,1.13,4.46,2.18,6.76,3.09,1.68.66,3.4,1.18,5.11,1.68,3,.89,6.11,1.59,9.11,1.5,1.49,0,2.99-.3,4.47-.69,1.45-.47,2.91-1.02,4.27-1.81,2.44-1.33,4.64-3.15,6.58-5.14,1.24-1.29,2.4-2.67,3.45-4.13.27-.36.54-.72.79-1.09l.85-1.06,1.63-2.19c.7-.91.76-.74.66.31-.05.52-.09,1.3-.31,2.16-.1.44-.21.92-.39,1.4-.08.25-.19.48-.27.75-.13.23-.25.48-.41.71-1.06,1.65-2.26,3.21-3.56,4.7-1.33,1.46-2.76,2.84-4.36,4.04-1.59,1.21-3.29,2.31-5.15,3.13-.9.46-1.89.76-2.85,1.11-1,.24-1.99.55-3.03.64-1.22.2-2.5.2-3.73.19-1.23-.04-2.45-.16-3.65-.33-2.41-.34-4.77-.9-7.03-1.63-4.98-1.61-9.69-3.8-14.22-6.28-2.79-1.53-5.5-3.17-8.16-4.88-4.03-2.6-7.91-5.46-11.66-8.4-2.9-2.3-5.8-4.52-8.46-7.14-.59-.58-1.18-1.13-1.72-1.76-2.01-2.38-2.3-3.49-1.87-4.48.1-.23.17-.5.31-.67.49-.57,1.48.18,2.9,1.68,2.14,2.23,4.52,4.41,7.03,6.52,2.51,2.12,5.14,4.2,7.86,6.18,4.04,2.94,8.23,5.75,12.58,8.23l-.04.08Z"/><path class="cls-4" d="m233.2,167.51c1.36.97,3.02,1.53,4.78,1.74.32.06.65.02.97.02.32,0,.65-.03.98-.05,1.16-.02,2.33-.21,3.49-.5,1.17-.26,2.32-.71,3.42-1.26.99-.48,1.85-1.17,2.71-1.84.54-.44,1.05-.93,1.55-1.41.25-.24.54-.46.81-.69.27-.23.53-.48.84-.69.46-.21.52-.1.59.44.05.52.03,1.46-.45,2.25-1.78,2.68-4.58,4.64-7.7,5.62-1.85.58-3.82,1.17-5.85,1.24-2.22.06-4.48-.36-6.5-1.32-1.24-.58-2.38-1.37-3.37-2.29-1.51-1.4-2.65-3.12-3.53-4.91-.69-1.39-1.35-2.79-1.73-4.31-.1-.33-.19-.66-.24-1-.2-1.27.08-1.7.93-1.97.2-.06.4-.14.6-.17.68-.11,1.26.36,1.49,1.13.76,2.29,1.48,4.49,2.74,6.39.46.7.97,1.37,1.57,1.96.58.6,1.24,1.12,1.95,1.56l-.04.07Z"/><path class="cls-4" d="m271.51,164.24c-.55.56-1.14,1.1-1.72,1.65-.29.27-.6.53-.89.79-.29.26-.59.53-.98.82-1.43,1.07-2.87,1.8-4.41,2.45-1.12.46-2.26.93-3.53,1.13-1.11.18-2.31.23-3.56-.07-1.24-.28-2.53-1.1-3.23-2.22-.72-1.13-.96-2.26-1.01-3.47,0-1.17.23-2.27.58-3.27.61-1.79,1.46-3.4,2.41-4.91.6-.97,1.25-1.91,1.94-2.8.66-.92,1.52-1.68,2.31-2.47.51-.48.62-.28.52.38-.05.33-.15.78-.29,1.31-.07.26-.15.54-.25.82-.05.15-.11.28-.15.44-.07.13-.15.27-.23.41-1.15,1.91-2.12,3.89-2.96,5.79-.43.95-.73,1.9-.91,2.81-.1.46-.12.89-.13,1.31.02.2.03.4.04.6.05.2.08.44.15.62.29.96.83,1.54,1.81,1.75.98.21,2.23,0,3.44-.34,1.33-.38,2.68-.96,3.92-1.67.62-.35,1.23-.75,1.74-1.16.53-.46,1.12-.97,1.65-1.49,1.35-1.27,2.64-2.62,3.86-4.04,1.85-2.14,3.65-4.38,5.19-6.74,1.21-1.83,2.14-3.78,3.11-5.71.21-.43.39-.85.62-1.27.8-1.57,1.28-1.94,2.19-1.93.21,0,.43-.02.62.02.64.11.8,1.02.39,2.34-1.27,3.88-3.55,7.48-6.05,10.91-1.87,2.54-3.92,4.97-6.14,7.26l-.06-.05Z"/><path class="cls-4" d="m232.08,141.49l-2.3-.49c-.78-.19-1.58-.35-2.35-.57-1.56-.4-3.1-.9-4.62-1.43-3.03-1.1-5.97-2.43-8.77-4.05-2.04-1.18-4.05-2.44-5.87-3.98-1.6-1.36-3.1-2.86-4.4-4.54l-.96-1.27-.85-1.34c-.6-.87-1.01-1.84-1.52-2.76-1.8-3.78-2.88-7.83-3.36-11.92-.41-3.63-.46-7.33.06-10.92l.27-1.73c.1-.57.26-1.14.38-1.71.14-.57.26-1.14.42-1.7l.55-1.66c.34-1.12.89-2.16,1.4-3.2.47-1.06,1.15-2.02,1.79-2.98.83-1.18.99-.85.89.44-.05.64-.13,1.54-.32,2.54-.11,1.04-.34,2.19-.63,3.4-1.23,4.23-1.71,8.58-1.8,12.93-.02,4.37.76,8.74,2.2,12.92.9,2.49,2.23,4.87,3.92,6.94,1.68,2.09,3.8,3.88,6.01,5.47,4.9,3.5,10.63,5.94,16.55,7.42,3.66.86,7.51,1.52,11.3,2.4,5.73,1.3,11.56,3.24,16.47,6.79l1.39,1.07c.45.37.92.78,1.34,1.2.85.85,1.6,1.77,2.28,2.74,1.35,1.94,2.38,4.06,3.18,6.25.34.97.67,1.92.92,2.93.45,1.87.54,3.15.47,4.04-.05.45-.14.81-.27,1.1-.16.3-.36.54-.59.75-.21.19-.41.44-.61.55-.67.36-1.41-1.08-1.94-3.55-.89-3.66-2.21-7.36-4.32-10.37-.51-.77-1.1-1.44-1.71-2.08-.32-.31-.62-.59-.98-.89l-1.12-.88c-1.54-1.13-3.21-2.1-4.99-2.93-5.29-2.49-11.37-3.67-17.53-4.88v-.08Z"/><path class="cls-4" d="m266.84,92.11c-.81-.7-1.91-.98-3.02-1.26-.95-.17-2.14,0-3.28.37-.83.28-1.6.75-2.35,1.2-.32.2-.65.43-.93.64-.08.05-.23.13-.29.25-.05.13-.03.27,0,.41,0,.04.01.06.04.13l.1.26c.09.18.15.36.25.54.75,1.47,1.75,2.96,2.74,4.43.9,1.3,1.91,2.54,2.92,3.76.61.82,1.27,1.59,1.84,2.46.55.88,1.07,1.78,1.49,2.75.18.66.08.61-.49.35-.56-.27-1.57-.7-2.52-1.42-.2-.17-.41-.32-.61-.5l-.56-.54-1.12-1.09c-.73-.75-1.38-1.56-2.06-2.36-1.33-1.63-2.66-3.29-3.69-5.28-.31-.6-.64-1.2-.95-1.87-.13-.27-.39-.9-.49-1.38-.15-.51-.14-1.04-.03-1.55.12-.51.47-.92.83-1.3.16-.18.44-.42.56-.53.14-.12.29-.23.43-.35.58-.45,1.19-.85,1.82-1.18,1.4-.71,2.9-1.24,4.52-1.42.8-.08,1.69-.09,2.48.09.77.2,1.56.3,2.29.67,1.82.73,3.48,2.02,4.51,3.69,1.62,2.51,1.97,5.52,1.7,8.3-.23,2.16-.75,4.33-1.85,6.27-.22.44-.46.86-.77,1.25-.28.36-.53.66-.76.88-.26.2-.5.32-.72.4-.44.15-.8.1-1.22-.1-.19-.09-.39-.16-.54-.27-.5-.36-.42-1.28.11-2.21.81-1.4,1.38-2.86,1.85-4.33.47-1.48.66-3.05.54-4.56-.1-1.11-.33-2.22-.83-3.16-.19-.51-.55-.89-.83-1.34-.39-.34-.69-.78-1.16-1.03l.04-.07Z"/><path class="cls-4" d="m243.97,183.63c-1.04,1.66-2.04,3.39-3.06,5.14-.38.64-.66,1.32-1.07,1.95-1.38,2.23-2.97,4.43-4.86,6.33l-.61.64-.66.6c-.44.4-.85.83-1.31,1.2-.61.45-1.18.96-1.82,1.38-.69.34-1.39.65-2.15.79-.51.02-.48-.08-.33-.61.07-.27.2-.6.34-.98.16-.35.38-.68.68-.95.49-.51,1.04-.92,1.56-1.37.54-.43.98-.97,1.48-1.43.95-1,1.87-2.04,2.82-3.12.59-.63,1.03-1.41,1.5-2.16.43-.79.85-1.59,1.28-2.38l2.88-5.31c.6-1.1,1.25-2.18,1.91-3.26.51-.81,1.01-1.63,1.58-2.41.55-.79,1.08-1.58,1.67-2.34.85-1.22,1.66-2.45,2.6-3.62.22-.24.42-.49.66-.72.88-.85,1.31-.97,1.99-.58.15.09.32.16.46.27.45.35.43,1.04-.03,1.76-1.37,2.13-2.89,4.12-4.36,6.24-.53.79-1.08,1.58-1.58,2.42-.53.81-1.02,1.67-1.5,2.53l-.07-.03Z"/><path class="cls-4" d="m144.73,153.34c-.11.19-.15.39-.31.57-.15.18-.29.36-.44.53-.7.58-1.57,1.08-2.61,1.35-.53.13-1.06.22-1.58.31-.62.02-.88.04-1.22.02-.62-.01-1.22-.01-1.82-.1-2.09-.37-4.01-1.07-5.82-1.98-.8-.42-1.58-.87-2.3-1.41-.46-.36-.9-.75-1.26-1.23-.36-.48-.63-1.08-.62-1.7.02-.39.17-.3.38-.05.21.26.58.58.98.92.69.65,1.65,1.09,2.6,1.47.97.36,1.94.75,2.95,1.08,1.21.42,2.56.44,3.82.43.35,0,.69-.02,1.03-.05.09,0,.17-.01.25-.03.09-.01.17-.02.19-.01h.22c.3-.03.67-.09,1-.26.22-.1.46-.22.61-.42.13-.24-.07-.43-.24-.56-.27-.2-.58-.38-.93-.55l-.27-.12-.45-.18-1-.38c-1.05-.38-2.16-.57-3.31-1.08-.25-.11-.53-.21-.78-.39-.48-.31-.76-.69-.81-1.04-.06-.36.09-.67.44-.99.15-.14.31-.28.48-.38.29-.17.62-.23.88-.29.26-.06.5-.12.69-.09.59.16,1.42.41,2.27.69.87.29,1.78.62,2.76,1.01,1.37.59,2.79,1.24,3.57,2.06.39.41.65.83.78,1.31.16.47.14,1.15-.05,1.57h-.09Z"/><path class="cls-4" d="m144.95,159.82c-1.43.34-2.77.48-4.11.42-.49-.01-.97.04-1.45-.01-1.69-.2-3.35-.58-4.9-1.23-.68-.28-1.36-.58-2-.94-.82-.45-1.6-1.04-2.12-1.82-.17-.24,0-.33.32-.33.31.02.81.07,1.23.27,1.51.75,3.13.9,4.75,1.33.99.25,2.07.11,3.09.01.57-.04,1.13-.11,1.69-.2.56-.07,1.12-.17,1.66-.31.33-.08.66-.18.96-.29.15-.05.31-.13.44-.17.09-.04.18-.07.27-.12.25-.14.57-.34.59-.68.01-.16,0-.32-.02-.48-.04-.17-.12-.39-.21-.55-.3-.55-.95-.81-1.65-1.11-.16-.07-.34-.11-.5-.19-.61-.33-.7-.73-.29-1.58.09-.2.18-.4.28-.58.37-.62.92-.97,1.48-.91.82.14,1.74.46,2.67,1.28.45.41.9.94,1.21,1.57.15.31.28.64.35.97.1.32.1.77.16,1.16.04.6,0,1.2-.2,1.76-.2.56-.57,1.04-1.02,1.43-.44.41-.98.71-1.51.99-.46.17-.77.29-1.15.4l-.03-.08Z"/><path class="cls-4" d="m146.65,164.76c-1.29.22-2.48.17-3.66.1-.43-.03-.85,0-1.27-.07-1.48-.23-2.92-.6-4.29-1.12-.61-.22-1.22-.46-1.82-.74-.74-.38-1.54-.81-2-1.59-.15-.23.1-.36.46-.41.38-.05.77-.03,1.14.14,1.21.69,2.67,1.02,4.16,1.41.9.25,1.88.16,2.82.16,1.03-.03,2.07-.11,3.05-.3.59-.13,1.21-.27,1.66-.53.37-.19.64-.4.73-.59.11-.2.13-.53,0-.89-.2-.56-.73-1.06-1.24-1.47-.11-.09-.25-.16-.35-.25-.39-.34-.32-.54.16-1.32l.32-.53c.35-.6,1-.84,1.56-.54.8.44,1.45,1.06,1.95,1.9.49.82.92,1.93.63,3.46-.13.56-.4,1.15-.79,1.59-.1.11-.2.22-.3.32-.1.09-.19.15-.28.22-.19.14-.38.26-.57.39-.36.19-.71.33-1.06.46-.33.09-.67.19-1,.27l-.02-.06Z"/><path class="cls-4" d="m167.33,182.61c-1.82-2.21-3.67-4.43-5.66-6.5-.73-.75-1.52-1.42-2.25-2.13l-.47-.44-.24-.22-.14-.12c-.09-.11-.16-.1-.23-.14-.02-.05-.28-.07-.43-.11-.73-.13-1.67-.16-2.59-.18-1.87-.05-3.81-.07-5.74-.3-1.72-.22-3.47-.51-5.14-1.14-1.07-.37-2.09-.96-2.99-1.69-.49-.31-.82-.82-1.18-1.26-.4-.41-.59-.99-.76-1.53-.19-.69-.23-.53.32-.24.26.15.76.25,1.18.47.23.08.5.15.76.24.13.04.25.1.39.13.11.07.22.13.33.2.45.19.86.4,1.29.57l1.35.4c.9.27,1.83.48,2.8.61,1.95.23,4,.4,6.16.53,1.32.1,2.6.01,4.2.16l.62.08c.26.07.53.16.79.25.28.08.44.25.66.38.23.15.37.27.5.38.58.46,1.09.92,1.6,1.39,2.18,2.08,4.19,4.26,6.15,6.5,1.19,1.39,2.34,2.81,3.49,4.24,1.71,2.18,3.34,4.44,4.93,6.7.62.87,1.23,1.76,1.88,2.61.58.9,1.23,1.76,1.76,2.72.23.42.49.82.71,1.26.43.79.54,1.42.55,1.86,0,.45-.19.77-.55,1.07-.16.14-.31.3-.49.41-.59.34-1.37-.13-1.96-1.14-1.83-3.01-3.99-6.11-6.28-9.19-1.7-2.29-3.51-4.55-5.39-6.74l.06-.06Z"/><path class="cls-4" d="m101.32,92.24c.1.64.02,1.3-.22,1.88-.23.59-.69,1.04-1.17,1.37-.18.11-.36.23-.56.32-.09.06-.2.08-.31.11-.1.03-.19.06-.28.07-.67.09-1.31-.02-1.88-.31-.57-.28-1.04-.79-1.24-1.33-.18-.48-.27-.96-.25-1.43.01-.59.23-1.24.76-1.58.17-.1.32.12.46.4.13.28.33.58.34.74,0,.3.08.58.2.79.06.1.11.18.16.25.04.08.07.15.13.24.17.24.61.1.81.02.22-.03.48-.22.55-.53.04-.18.03-.41-.07-.6-.11-.29-.53-.58-.8-.44-.24.08-.36.46-.3.65.01.04.05.09.07.11.05.06-.13-.05-.98-.04l-.58.02c-.64.05-1.22-.22-1.22-.85.06-1.82,1.95-3.14,3.92-2.68,1.31.31,2.28,1.5,2.54,2.8l-.06.02Z"/><path class="cls-4" d="m93.67,84.47c.14.14.06.41.01.69-.02.09-.15.22-.22.22-.18-.01-.36-.03-.49-.04-.03-.02-.45-.07-.75-.28-.33-.18-.71-.38-.9-.47-.38-.19-.73-.39-1-.66l-1.66-1.6c-.12-.12-.21-.26-.28-.42-.22-.55-.54-1.03-.96-1.43-.07-.07-.11-.16-.27-.16-.26,0-1.25-1.21-1.29-1.42-.11-.53-.29-1.02-.42-1.53-.02-.07-.11-.1-.02-.25.21-.33.07-.42,0-.56-.09-.19-.18-.4-.19-.65,0-.13.13-.35.22-.53.08-.17.55-.43.62-.44.2-.02.37-.23.55-.37.06-.05.14-.11.2-.14.05-.03.52.02.89.16.39.12.76.27.8.33.01.01.31.35.63.71.32.36.65.73.73.79.08.07.07.21.09.33,0,.05,1,1.09,1.02,1.15.12.27.38.45.3.86-.02.08.03.12.07.17.32.39.44.92.65,1.39.1.24.26.45.38.67.02.04.02.1.03.15.01.06.01.13.05.18.34.5.55,1.11.87,1.61.07.12.21.85.32.97.03.04.02.16.03.28-.01.13-.02.26.01.28Z"/><path class="cls-4" d="m103.15,83.99c-.02.2-.3.19-.71.09-.13-.03-.45-.24-.47-.32-.04-.14-.09-.29-.11-.43,0-.07.22-1.11.28-1.46.08-.34.22-.63.38-.92l.93-1.76c.07-.13.16-.24.28-.34.4-.34.67-.76.87-1.23.03-.08.09-.14.05-.27-.07-.21.6-1.41.75-1.52.39-.27.72-.57,1.09-.85.05-.04.05-.12.19-.1.33.06.35-.08.44-.18.13-.14.27-.27.45-.37.09-.05.29-.02.46-.01.16,0,.53.33.56.38.08.16.31.23.48.35.06.04.13.09.18.12.1.08.15,1.42.07,1.51,0,.01-.19.36-.39.73-.2.37-.4.76-.43.84-.03.09-.15.13-.24.18-.04.03-.61,1.15-.65,1.18-.18.19-.26.45-.62.52-.07.01-.09.06-.12.11-.24.38-.59.68-.9,1-.16.17-.27.36-.41.54-.03.03-.08.05-.11.07-.05.03-.1.06-.13.1-.31.44-.73.81-.98,1.29-.04.12-.66.42-.73.56-.05.07-.47.11-.47.19Z"/><path class="cls-4" d="m91.33,92.24c.16-.18.43.01.73.35.1.11.24.49.21.58-.06.16-.12.33-.19.47-.05.07-.96.94-1.24,1.29-.28.34-.59.59-.94.76l-2.08,1.16c-.16.08-.32.13-.51.15-.63.05-1.17.31-1.71.61-.09.05-.19.07-.24.23-.07.26-1.6.93-1.84.91-.59-.04-1.15,0-1.75-.01-.08,0-.15.08-.27-.06-.27-.31-.43-.2-.61-.18-.23.03-.56,0-.84-.07-.15-.04-.43-.26-.57-.43-.14-.16.04-.72.06-.78.11-.18.05-.45.07-.68,0-.06.01-.13.02-.18,0-.03,0-.06.01-.11,0-.02,0-.04.01-.06,0-.04.01-.1.01-.15-.02-.1.15-.29.21-.44.18-.34.44-.63.48-.64.01,0,.41-.19.84-.39.43-.21.87-.44.96-.5.09-.07.22-.02.34,0,.05,0,1.34-.72,1.4-.73.3-.06.54-.28.95-.07.08.04.13,0,.19-.02.49-.19,1.04-.24,1.57-.33.27-.05.52-.16.78-.24.05-.01.11.01.16.01.07,0,.14.02.2,0,.61-.21,1.25-.33,1.86-.53.14-.04.94.05,1.1-.03.09-.03.52.2.58.12Z"/><path class="cls-4" d="m93.98,111.98c.06.21-.21.33-.63.41-.13.02-.51-.05-.56-.12-.09-.13-.19-.27-.25-.4-.04-.08-.16-1.26-.25-1.67-.09-.4-.06-.78,0-1.14l.29-2.25c.02-.17.08-.32.17-.47.31-.51.44-1.06.51-1.64.01-.09.05-.19-.03-.3-.13-.19.2-1.71.33-1.88.31-.43.55-.88.84-1.32.04-.06.02-.15.16-.17.33-.06.32-.22.38-.37.08-.2.19-.39.34-.57.08-.09.28-.14.44-.2.15-.05.59.13.63.17.12.13.35.12.54.17.06.02.15.04.2.06.12.05.53,1.42.48,1.54,0,.02-.08.46-.16.93-.08.47-.15.95-.15,1.06,0,.11-.1.19-.17.28-.03.04-.21,1.45-.23,1.51-.12.27-.1.58-.42.79-.06.04-.07.1-.08.16-.1.49-.33.95-.55,1.41-.11.24-.16.49-.24.73-.01.04-.06.08-.09.12-.04.05-.08.1-.1.16-.17.58-.42,1.14-.56,1.73-.03.13-.48.72-.49.88-.02.09-.4.31-.36.4Z"/><path class="cls-4" d="m106.59,91.32c-.21.04-.39-.08-.55-.25-.05-.05-.05-.21,0-.24.13-.07.25-.15.34-.2.07-.03,1.2-.42,1.57-.61.37-.18.74-.3,1.11-.36l2.27-.47c.17-.03.34-.04.51-.03.59.07,1.16-.04,1.74-.16.1-.02.2-.02.28-.12.14-.17,1.71-.39,1.92-.33.52.13,1.03.19,1.55.3.07.02.15-.03.22.08.17.28.33.22.48.22.22.01.44.04.66.12.11.04.23.21.34.34.1.12.08.59.05.64-.09.15,0,.37.03.56,0,.07.02.15.02.2,0,.13-1.21.94-1.35.92-.02,0-.48.06-.97.13-.49.07-.99.13-1.1.16-.11.03-.22-.04-.33-.08-.05-.01-1.51.2-1.57.19-.31-.02-.61.05-.93-.19-.06-.05-.12-.04-.18-.04-.52,0-1.05-.1-1.58-.17-.27-.04-.54-.02-.81-.04-.05,0-.1-.03-.15-.04-.06-.02-.12-.04-.18-.04-.63-.02-1.27-.08-1.91-.13-.15-.01-.85-.24-1.02-.23-.09,0-.41-.19-.49-.17Z"/><path class="cls-4" d="m342.02,240.01c-3.56-4.06-6.95-8.24-10.27-12.44-1.21-1.54-2.48-3.02-3.66-4.57l-6.27-8.16c-2.08-2.72-4.18-5.42-6.39-8.03-1.95-2.32-4.07-4.51-6.2-6.61-.69-.67-1.38-1.34-2.11-1.97-.72-.64-1.43-1.29-2.18-1.89l-1.1-.93-1.14-.89c-.39-.28-.74-.62-1.12-.92l-1.14-.9c-.94-.76-.77-.75.23-.41.5.18,1.23.39,2.08.72.82.38,1.79.84,2.71,1.51,6.69,4.61,12.28,10.5,17.34,16.73,2.99,3.77,6.24,7.55,9.34,11.33,3.4,4.16,6.72,8.38,10.21,12.43,2.14,2.51,4.34,4.95,6.61,7.33,3.45,3.58,7.07,7.05,10.95,10.08,3.01,2.36,6.22,4.34,9.52,6.11.72.41,1.45.75,2.19,1.14.68.36,1.23.68,1.69.96.47.26.84.49,1.12.72.58.45.84.87.97,1.4.06.24.17.5.17.71.02.72-1.37.66-3.61-.15-3.27-1.28-6.49-2.97-9.57-4.94-3.07-1.99-6.01-4.25-8.82-6.66-4.13-3.62-7.94-7.59-11.59-11.63l.06-.06Z"/><path class="cls-4" d="m339.9,170.88c3.27,3.43,6.45,6.92,9.48,10.53,1.1,1.32,2.31,2.55,3.35,3.92l2.78,3.59c.92,1.2,1.79,2.44,2.69,3.66,1.82,2.41,3.49,4.94,5.19,7.43,1.45,2.26,3.04,4.43,4.5,6.65,1.81,2.89,3.76,5.72,5.06,8.92.37,1.02.29.9-.45.31-.79-.57-2.22-1.61-3.39-3.17-1.04-1.38-2.16-2.71-3.22-4.07-.55-.67-1.01-1.4-1.52-2.09l-1.53-2.09c-1.99-2.82-4.09-5.56-5.99-8.49-1.19-1.7-2.47-3.4-3.82-5.06-1.37-1.63-2.75-3.28-4.12-4.91-3.02-3.56-6.06-7.13-9.31-10.49-1.96-2.11-4.03-4.11-6.1-6.1-1.62-1.46-3.22-2.94-4.88-4.35-1.69-1.36-3.34-2.79-5.13-4-1.37-.97-2.74-1.9-4.19-2.69l-2.15-1.22c-.71-.41-1.47-.73-2.2-1.1-.65-.32-1.29-.6-1.94-.94-2.41-1.16-3.08-1.71-3.26-2.8-.04-.24-.12-.51-.12-.73.02-.75,1.27-.81,3.27-.16,5.88,2.04,11.35,5.71,16.39,9.72,3.78,2.97,7.24,6.3,10.67,9.64l-.06.07Z"/><path class="cls-4" d="m381.65,222.86c1.14.6,2.32,1.17,3.53,1.67.44.19.9.3,1.35.48,1.56.65,3.14,1.32,4.74,1.94.71.27,1.45.46,2.17.69.92.29,1.86.57,2.73,1.07.27.16.14.41-.2.64-.34.23-.89.47-1.45.41-1.98-.15-3.88-.65-5.76-1.38-1.12-.45-2.34-.7-3.52-1.07-1.28-.43-2.56-.91-3.82-1.43-.78-.32-1.54-.66-2.31-1.01-1.17-.52-2.28-1.18-3.42-1.76-.88-.47-1.81-.85-2.68-1.42-.19-.12-.39-.23-.55-.4-.6-.63-.65-.98-.28-1.56.08-.13.16-.27.25-.39.32-.39.86-.47,1.39-.29,1.6.48,2.96,1.2,4.45,1.99,1.13.54,2.23,1.17,3.41,1.72l-.02.07Z"/><path class="cls-4" d="m414.77,258.6c-.73-.93-1.61-1.93-2.58-2.86-.49-.47-.98-.95-1.48-1.47l-.19-.2c-.06-.07-.2-.22-.29-.33l-.57-.73c-.34-.5-.66-1-.83-1.5-.19-.5-.28-.98-.21-1.45.05-.47.17-1.01.52-1.38.63-.74,1.58-1.09,2.75-1.14.58-.03,1.18.01,1.78.09l.65.1.54.11c.72.15,1.41.33,2.1.54,1.99.6,3.93,1.31,5.77,2.31,1.61.9,3.17,1.94,4.51,3.42.34.4.61.76.87,1.11l.79,1.05c.51.68,1.05,1.39,1.53,1.97.19.25.41.51.67.76.13.13.27.25.42.37.15.11.31.28.51.24.2-.04.23-.26.24-.42,0-.17-.02-.35-.05-.53-.07-.36-.18-.72-.32-1.11-.04-.11-.2-.52-.35-.85-.15-.34-.3-.68-.46-1.02-.32-.67-.67-1.33-1.05-1.97-.38-.63-.78-1.26-1.22-1.81-.43-.55-.92-1.04-1.45-1.5-1.37-1.2-3.04-2.15-4.74-3.07l-1.29-.69-1.25-.79c-.84-.53-1.67-1.08-2.48-1.66-.99-.76-.81-.72.22-.45.52.12,1.26.28,2.16.43.46.09.95.18,1.46.27.26.05.52.12.8.16.26.1.52.2.78.31,1.87.79,3.79,1.65,5.62,2.94.91.63,1.78,1.47,2.5,2.39.69.89,1.27,1.8,1.8,2.72.53.93,1.01,1.87,1.44,2.85l.16.37.26.65c.17.42.35.89.49,1.33.27.89.42,1.73.47,2.45.03.72-.07,1.31-.27,1.78-.11.24-.23.46-.4.67-.18.19-.44.44-.75.55-.3.11-.59.17-.8.13l-.34-.03-.39-.1c-.24-.04-.56-.22-.84-.33-.31-.22-.63-.46-.94-.72-.75-.59-1.5-1.36-2.18-2.14-.16-.18-.37-.43-.47-.56l-.3-.38-.57-.76-1.11-1.49c-.36-.48-.77-.99-1.09-1.35-1.49-1.54-3.67-2.66-5.82-3.56-1.2-.49-2.43-.91-3.68-1.23-.62-.16-1.25-.3-1.87-.39l-.6-.09c-.13-.02-.26-.03-.4-.03-.24,0-.61,0-.71.29-.08.27.1.52.24.75.08.12.16.23.25.34l.54.67,1.31,1.53c.8.89,1.64,1.77,2.4,2.79.39.54.74,1.01,1.05,1.81.33.82.33,1.82-.27,2.49-.98,1.19-2.32,1.45-3.42,1.41-1.48-.05-2.76-.52-3.98-1.04-1.22-.53-2.36-1.15-3.47-1.83-2.2-1.37-4.25-2.93-6.18-4.6-.75-.65-1.49-1.32-2.19-2.02-.36-.35-.7-.7-1.05-1.07-.17-.19-.35-.38-.47-.48-.13-.13-.28-.25-.45-.36-1.37-.92-3.2-1.45-4.98-1.86-.8-.18-1.59-.29-2.4-.42-3.03-.44-3.94-.59-4.61-1.34-.15-.17-.36-.33-.46-.49-.36-.53,1.01-1.16,3.46-1.09,1.81.07,3.62.31,5.45.73.91.23,1.83.48,2.76.85.93.38,1.86.78,2.81,1.54.24.18.48.43.71.65l.46.49c.29.31.58.61.89.91.61.6,1.24,1.19,1.88,1.77,1.29,1.16,2.65,2.27,4.07,3.29,1.64,1.16,3.35,2.26,5.1,2.98.87.35,1.76.61,2.51.66.38.03.69-.01.92-.07.1-.02.22-.1.25-.1,0,0,.02,0,.03-.02.02-.01.03-.04.02-.07.02.02-.04-.08-.08-.16l-.16-.28c-.13-.19-.27-.4-.43-.6l.05-.05Z"/><path class="cls-4" d="m435.24,249.04l1.14,2.81.57,1.45c.32.82.65,1.67.9,2.46.36,1.15.59,2.21.46,2.89-.08.43-.19.76-.47,1.12-.14.19-.43.35-.67.39-.25.05-.5.07-.74.03-.91-.18-1.65-.6-2.47-1.47-.4-.39-.79-.98-1.16-1.52-.18-.29-.37-.55-.53-.85l-.24-.44c-.07-.15-.11-.21-.16-.32-.57-1.04-1.08-2.09-1.61-3.1l-1.05-1.92c-.35-.63-.62-1.31-1.02-1.92-.26-.38-.24-.34.16-.19.28.12.57.25.84.36.36.16.76.39,1.08.71,1.12,1.16,1.93,2.48,2.78,3.72l.54.97.27.47v.08c.02.12.07.31.21.61.12.25.3.49.51.6.09.05.2.08.29.06.1-.03.12-.15.11-.24-.01-.2-.07-.38-.1-.54-.03-.14-.07-.3-.12-.46l-.08-.26-.04-.14-.02-.07-.07-.17c-.38-.93-.79-1.86-1.2-2.8l-.38-.87c-.12-.28-.26-.65-.36-.82-.19-.43-.58-.89-.95-1.33-1.22-1.31-2.68-2.54-4.22-3.58-1.21-.81-2.51-1.42-3.8-2.05-.29-.14-.58-.25-.86-.4-.53-.26-.81-.53-.97-.81-.16-.27-.17-.57-.11-.94.02-.17.03-.33.06-.47.08-.41.83-.73,1.74-.5,2.57.89,4.94,2.4,7.22,4.17.84.66,1.66,1.37,2.45,2.19.4.4.78.85,1.16,1.34.19.28.37.49.55.83.17.32.36.69.42.87l-.06.03Z"/><path class="cls-4" d="m436.19,248.53c-.31-.6-.61-1.14-.99-1.65-.39-.55-.82-1.09-1.28-1.6-.34-.38-.73-.7-1.07-1.09-1.21-1.35-2.52-2.65-3.98-3.76-.64-.51-1.33-.94-2.03-1.34-.45-.25-.91-.48-1.37-.71l-.69-.35c-.23-.11-.41-.36-.63-.52-.26-.25-.22-.25.11-.37.17-.06.41-.17.73-.31.29-.08.61-.06.93.02,2.2.64,4.27,1.63,5.96,3.14,1.01.89,2.21,1.62,3.26,2.53,1.13,1.04,2.15,2.13,3.09,3.47.54.8,1,1.62,1.44,2.46.66,1.27,1.19,2.61,1.61,4.05.16.57.33,1.15.39,1.84.06.71-.04,1.63-.53,2.31-.21.31-.44.61-.76.82-.59.41-1.13.44-1.47.35-.34-.12-.52-.47-.67-.88-.06-.19-.13-.38-.16-.57-.05-.32,0-.61.09-.88.09-.27.17-.49.21-.6.08-.18.08-.33.03-.45-.02-.05-.05-.1-.08-.13-.03-.04-.06-.02-.07-.15-.07-.45-.24-1.22-.52-2-.4-1.17-.94-2.43-1.59-3.58l.06-.04Z"/><path class="cls-4" d="m415.58,234.27c1.23.03,2.67-.17,4.07-.42,1.41-.25,2.83-.58,4.25-.92,1.04-.25,2.05-.6,3.09-.87l4.81-1.23,1.22-.29.62-.14.71-.14c.64-.1,1.29-.24,1.85-.2.59.01.99.17,1.41.55.39.57.43,1.25.26,1.91-.15.55-.42,1.12-.8,1.64-.09.13-.19.26-.29.39-.08.11-.15.19-.23.28-.15.18-.3.34-.46.51-.63.65-1.3,1.24-2,1.77-.9.68-1.87,1.3-2.93,1.73-.53.22-1.08.41-1.64.53-.56.13-1.15.24-1.75.05-.75-.39-.6-.24-.09-.73.5-.59,1.25-1.29,2.22-1.8,1.32-.74,2.63-1.58,3.76-2.58.28-.25.55-.51.8-.77.13-.13.24-.27.35-.4.08-.1.02,0,.04-.04h.02s.17-.12.17-.27c0-.08-.07-.09-.14-.12-.04-.01-.08-.02-.13-.03-.03,0-.04-.01-.1,0l-.36.06c-2.54.45-5.15,1.43-7.76,2.15-2.89.8-5.78,1.6-8.85,2.03-.47.06-.95.12-1.45.14-.49.03-1.02.02-1.46,0-.92-.03-1.85-.06-2.77-.11-2.8-.15-5.61-.5-8.38-.95-2.15-.38-4.32-.67-6.41-1.55-.46-.18-.92-.37-1.36-.62-.42-.22-.74-.45-1-.67-.26-.22-.46-.39-.59-.59-.25-.41-.3-.74-.22-1.1.03-.17.05-.35.12-.48.24-.46,1-.28,2.05.17,1.56.71,3.34,1.04,5.12,1.47,1.8.41,3.68.72,5.6.95,2.83.33,5.81.55,8.65.64v.07Z"/><path class="cls-4" d="m368.24,360.75c-3.01-10.9-6.21-21.77-9.55-32.59-1.26-3.94-2.52-7.87-3.78-11.8-4.34-13.9-8.86-27.75-13.4-41.6-2.01-6.14-4.13-12.29-6.21-18.36-1.32-3.91-2.75-7.79-3.92-11.76-.61-1.98-1.19-3.96-1.75-5.96-.13-.5-.3-.99-.4-1.5l-.3-1.53c-.2-1.02-.4-2.04-.58-3.06-.42-2.56-.41-2.19.47-.18.43,1.01,1.16,2.4,2.08,4.06.86,1.68,1.67,3.71,2.53,5.92.72,1.97,1.52,3.92,2.19,5.91l2.05,5.96c1.37,3.98,2.73,7.96,4.1,11.95,2.72,7.98,5.39,16,7.89,24.12,3.02,9.7,6.49,19.69,9.63,29.59,3.45,10.89,6.77,21.83,9.94,32.82,1.93,6.77,3.84,13.54,5.62,20.35,2.73,10.3,5.23,20.72,7.47,31.06,1.73,8.05,3.41,15.95,4.58,24.05.24,1.79.47,3.54.71,5.34.62,6.72.35,8.92-.53,10.36-.2.33-.38.76-.58.95-.33.32-.64-.2-.96-1.4-.36-1.2-.47-3.06-.79-5.47-.75-7.13-1.9-14.43-3.31-21.81-1.4-7.37-2.96-14.84-4.72-22.29-2.6-11.06-5.48-22.13-8.59-33.11l.07-.04Z"/><path class="cls-4" d="m277.3,449.24c-1.3-8.35-2.18-16.69-2.97-25.04-.78-8.35-1.43-16.7-2.05-25.04-.45-6.09-.96-12.18-1.36-18.26-1.4-21.47-2.59-42.93-4.25-64.35-.74-9.5-1.68-19.04-2.75-28.43-.7-6.03-1.53-12.05-2.51-18.03-.49-2.99-.97-5.98-1.56-8.94-.3-1.48-.62-2.95-.98-4.41-.21-.72-.33-1.47-.52-2.19-.19-.72-.37-1.45-.58-2.17-.24-.9-.45-1.54-.58-1.95-.12-.42-.15-.62-.09-.62.06,0,.22.19.47.56.27.36.62.9,1.03,1.61.82,1.41,2,3.48,2.92,6.13.96,2.64,1.89,5.79,2.62,9.25,1.21,6.16,2.07,12.34,2.88,18.52.79,6.19,1.48,12.38,2,18.59,1.08,12.42,1.9,24.87,2.59,37.38.83,14.96,2.04,30.5,3.11,45.78,1.21,16.79,2.41,33.59,4.4,50.28.63,5.13,1.32,10.25,2.28,15.3.48,2.52,1,5.04,1.69,7.48l.55,1.81c.21.59.41,1.18.64,1.76.46,1.13,1,2.25,1.67,3.05.44.59,1.17.94,1.99,1.28.82.32,1.73.54,2.65.72,1.84.37,3.77.54,5.69.63,3.86.18,7.77.05,11.66-.25,7.78-.61,15.52-1.77,23.12-3.3,11.81-2.43,23.24-5.72,34.19-10.25,2.41-1.01,4.71-2.09,7.05-3.25,4.33-2.18,6.99-3.87,8.87-5.03.94-.58,1.69-1.03,2.33-1.39.67-.33,1.22-.58,1.75-.77.49-.17,1.05-.51,1.39-.58.55-.15.27.65-.87,2.15-1.13,1.52-3.37,3.45-6.49,5.45-4.65,2.95-9.66,5.3-14.82,7.38-5.16,2.07-10.49,3.83-15.9,5.38-10.84,3.07-22.05,5.35-33.43,6.74-4.23.51-8.49.86-12.79,1.02-2.15.09-4.31.12-6.5.04-2.19-.09-4.4-.26-6.68-.74-1.14-.26-2.3-.58-3.53-1.19-.6-.33-1.29-.71-1.83-1.3-.61-.57-.96-1.13-1.34-1.69-1.32-2.21-1.96-4.32-2.6-6.44-1.18-4.23-1.98-8.44-2.66-12.65l.08-.03Z"/><path class="cls-4" d="m252.33,361.78l-.7,4.67-.78,4.66-1.57,9.31c-1.18,6.19-2.22,12.4-3.51,18.56l-1.31,6.77c-.43,2.26-.93,4.5-1.42,6.74l-1.3,5.82-1.41,5.79-1.43,5.79-1.56,5.76c-.99,3.85-2.24,7.65-3.37,11.46l-1.97,5.67c-.17.47-.32.95-.5,1.41l-.6,1.4-.6,1.4-.3.7c-.07.15-.07.2-.15.31-.02.13-.12.26-.15.4.08.2.27.32.43.45l.28.2.53.34c.73.45,1.49.87,2.27,1.28,1.56.8,3.17,1.53,4.8,2.2,3.27,1.35,6.64,2.43,10.01,3.4,8.72,2.36,17.7,3.79,26.8,4.19,2.84.08,2.47.13.07.51-1.2.18-2.92.43-5.01.65-2.1.25-4.58.39-7.25.24-1.6-.08-3.2-.21-4.79-.37-1.6-.15-3.17-.46-4.75-.74-3.15-.61-6.28-1.34-9.36-2.29-3.07-.97-6.09-2.09-9.06-3.42-1.48-.67-2.95-1.38-4.4-2.2-.36-.21-.73-.42-1.09-.65l-.55-.35-.41-.28-.46-.33c-.6-.46-1.12-.98-1.39-1.58-.13-.31-.23-.64-.16-.96.08-.34.11-.68.23-1.01.1-.36.28-.7.41-1.05l.26-.62.43-1.01.87-2.03,1.49-4.26.75-2.13.68-2.17,1.35-4.36c3.2-10.72,5.62-22.16,7.97-33.39,1.22-6.19,2.52-12.37,3.6-18.59.55-3.11,1.15-6.21,1.67-9.33l1.53-9.35c.66-3.83,1.17-7.69,1.75-11.53l.84-5.77.74-5.78c.37-2.92.74-5.84,1.11-8.77.32-2.93.63-5.86.95-8.79.67-5.85,1.12-11.71,1.56-17.54.08-1.13.16-2.26.25-3.39.05-1.13.1-2.26.15-3.38.08-2.25.17-4.49.25-6.73.21-4.48.16-8.95.21-13.43,0-1.97.03-3.91,0-5.89-.07-3.68-.02-6.11.18-7.82.19-1.71.48-2.7.94-3.5.21-.37.41-.85.61-1.06.67-.73,1.3,2.28,1.68,7.72.75,16.16-.07,33.22-1.59,50.23-.66,6.31-1.24,12.65-2.1,18.95l-1.21,9.47-1.37,9.44h-.09Z"/><path class="cls-4" d="m302.38,99.38c-4.43-8.23-7.55-16.87-11.32-25.09-.67-1.51-1.41-2.98-2.16-4.44-.72-1.48-1.55-2.88-2.32-4.32-2.8-5.02-6.11-9.74-10.24-13.66-2.07-1.95-4.29-3.74-6.71-5.26-.59-.4-1.18-.81-1.81-1.1-.62-.3-1.22-.67-1.87-.92l-1.97-.73c-.66-.23-1.36-.36-2.04-.54-.3-.07-.6-.16-.91-.22l-.93-.13c-.62-.08-1.24-.2-1.87-.25-1.26-.04-2.52-.17-3.78-.06-2.53.04-5.03.56-7.47,1.13-3.14.79-6.14,2.09-8.92,3.71-.71.38-1.39.82-2.06,1.27l-1.01.66-.95.75c-.32.25-.63.51-.96.74-.32.25-.6.53-.91.8l-.91.82c-.31.27-.53.61-.83.89-1.43,1.47-1.26,1.31-.5-.32.34-.86,1.03-1.92,1.88-3.29.48-.63,1.06-1.25,1.68-1.94.65-.65,1.4-1.25,2.18-1.89,5.86-4.05,12.91-6.31,20.09-6.34,3.59,0,7.23.59,10.65,1.91.87.28,1.69.72,2.51,1.14.41.21.83.41,1.22.64l1.11.74c1.48.99,2.98,1.93,4.3,3.13,6.61,5.36,11.78,12.62,15.68,20.13,4.27,8.29,7.46,16.96,11.4,25.18,2.43,5.04,5.1,10,8.56,14.3,2.62,3.26,5.7,6.12,9.2,8.46,1.73,1.2,3.56,2.27,5.4,3.44,1.8,1.19,3.74,2.51,5.05,4.54l.68,1.21c.19.42.33.85.49,1.28.19.41.24.91.32,1.39.11.49.07.95.07,1.42-.09,1.86-.6,3.62-1.4,5.19-.81,1.57-1.79,3.07-3.04,4.32-.58.68-1.29,1.22-1.98,1.79-.33.31-.74.51-1.11.76-.38.23-.75.51-1.15.71-.73.32-1.42.73-2.17.98-.76.22-1.51.54-2.32.65-.74.1-1.43.22-2.06.26-.63,0-1.2-.02-1.72-.05-.52,0-.98-.1-1.39-.22-.41-.1-.78-.21-1.1-.32-.66-.19-1.13-.47-1.49-.78-.36-.29-.62-.6-.83-.92-.19-.3-.44-.61-.51-.85-.11-.42.41-.61,1.38-.64.24,0,.51,0,.81.02.29.02.61.06.96.04.35,0,.72,0,1.11.01.2,0,.4.02.61.03.21,0,.42-.04.64-.03,2.58,0,5.08-.74,7.24-2.12,2.15-1.37,4-3.38,5.08-5.69.58-1.13.92-2.36.96-3.43l.02-.4c0-.13-.04-.23-.05-.35-.05-.23-.03-.44-.17-.73l-.29-.82-.42-.73c-.61-.95-1.46-1.81-2.58-2.62-1.13-.82-2.38-1.6-3.72-2.42-1.96-1.22-3.99-2.52-5.9-4.02-1.89-1.51-3.72-3.14-5.34-4.96-3.3-3.58-5.88-7.68-8.16-11.79l.07-.05Z"/><path class="cls-4" d="m268.43,133.82c-4.9-5.39-9.33-11.14-13.39-17.14-1.48-2.19-2.99-4.37-4.33-6.66-4.83-8.15-7.64-17.04-11.43-25.32-1.67-3.68-3.65-7.24-6.07-10.29-.77-.99-1.65-1.86-2.55-2.68-.94-.77-1.91-1.51-2.98-2.03-1.06-.53-2.15-1.02-3.33-1.25-1.17-.26-2.38-.36-3.64-.48-1.58-.1-1.46-.24-.15-.95.33-.2.74-.38,1.24-.59.5-.29,1.08-.35,1.74-.46.66-.13,1.38-.09,2.17-.07.77.1,1.61.22,2.41.54,1.44.52,2.75,1.33,3.92,2.24,1.2.89,2.22,1.94,3.19,3.01,1.9,2.16,3.4,4.54,4.69,6.97,2.57,4.87,4.49,9.9,6.42,14.89,1.14,2.99,2.43,5.97,3.86,8.88,1.43,2.9,3.09,5.67,4.83,8.42,3.82,6.02,8.08,11.8,12.71,17.24,2.85,3.35,5.88,6.54,9.12,9.49,2.46,2.22,5.05,4.31,7.81,6.1,2.75,1.78,5.71,3.28,8.81,3.95,2.39.52,4.86.53,7.04-.29,1.11-.38,2.13-.96,3.08-1.61.93-.68,1.75-1.49,2.45-2.39.62-.79,1.04-1.67,1.43-2.56.66-1.69.73-2.83.85-3.64.02-.2.05-.39.09-.56.02-.17.04-.32.09-.47.1-.31.22-.58.34-.85.12-.25.2-.58.32-.77.21-.33.6-.17,1.2.56.54.74,1.03,2.19.89,4.02-.45,5.47-4.82,10.05-10.1,11.66-2.72.83-5.61.77-8.24.2-2.65-.57-5.09-1.6-7.36-2.82-6.72-3.71-12.17-8.86-17.19-14.22l.05-.06Z"/><path class="cls-4" d="m204.61,82.51c1.8-1.21,3.47-2.59,5.11-4.02.59-.53,1.08-1.15,1.67-1.69,2-1.95,3.91-4.03,5.61-6.3.74-1.01,1.46-2.05,2.06-3.14.8-1.39,1.46-2.85,2.62-4.06.39-.37.6-.19.81.39.24.6.43,1.6.12,2.52-1.32,3.14-3.15,6.08-5.55,8.57-.72.74-1.36,1.56-2.06,2.35l-1.02,1.21c-.35.39-.72.77-1.08,1.15-1.61,1.66-3.37,3.15-5.17,4.58-1.13.86-2.26,1.69-3.43,2.48-1.75,1.22-3.61,2.28-5.4,3.4-.71.42-1.38.87-2.05,1.34-.68.46-1.36.89-2.05,1.33-.3.19-.59.4-.92.57-.6.3-1.01.46-1.37.43-.37-.06-.65-.25-.95-.56-.14-.14-.29-.27-.39-.42-.18-.25-.2-.54-.09-.88.11-.34.32-.76.72-1.03,2.27-1.75,4.82-3.15,7.32-4.68,1.85-1.13,3.71-2.28,5.45-3.59l.05.06Z"/><path class="cls-4" d="m189.53,128.75c-1.71-4.23-3.61-8.52-5.1-13.06-.73-2.27-1.34-4.63-1.76-7-.42-2.38-.66-4.77-.74-7.17-.18-3.5.02-6.99.47-10.43.93-6.05,2.6-11.99,5.22-17.51,2.58-5.52,5.9-10.72,10.18-15.12,3.81-3.89,8.33-7.11,13.4-9.17,3.25-1.29,6.87-1.98,10.47-1.55,3.59.45,6.99,2.22,9.35,4.78,1.37,1.72,1.07,1.51-.59.74-1.62-.81-4.62-1.97-8.03-2.2-1.51-.15-3.03-.21-4.55.05l-1.14.17c-.38.09-.75.19-1.13.29-.38.09-.76.16-1.13.27l-1.12.38c-2.98,1.02-5.82,2.61-8.43,4.53-2.61,1.94-4.98,4.16-7.05,6.74-2.08,2.56-4,5.3-5.59,8.26-3.89,7.04-6.11,15.36-6.69,23.56-.32,4.51-.12,9.07.74,13.49.87,4.4,2.53,8.7,4.3,12.97,2.18,5.26,4.6,10.59,5.96,16.34.55,2.16.84,4.4,1.01,6.65.01,1.13.1,2.25,0,3.38l-.1,1.69c-.06.57-.13,1.13-.22,1.68-.33,2.19-.79,4.29-.75,6.27.01,1.98.68,3.71,2.24,4.76,2.56,1.74,5.64,2.82,8.69,2.89,3.07.11,6.1-.8,8.77-2.27.29-.17.59-.32.87-.5l.82-.58c.56-.36,1.05-.81,1.57-1.25,1.87-1.66,2.82-2.97,3.53-3.85.66-.9,1.22-1.37,1.79-1.78.27-.18.58-.47.82-.58.42-.19.63.27.6,1.44,0,.59-.24,1.25-.5,2.08-.37.75-.78,1.69-1.46,2.55-1.93,2.63-4.52,4.79-7.53,6.27-3.01,1.48-6.48,2.27-9.99,2.05-3.53-.21-6.92-1.43-9.93-3.4-1.7-1.12-3.2-3.15-3.63-5.22-.49-2.06-.34-3.93-.13-5.59.16-1.24.37-2.41.53-3.52.18-1.1.26-2.11.3-3.2.1-1.07,0-2.15,0-3.22-.12-1.07-.17-2.15-.39-3.23-.68-4.31-2.25-8.55-4.01-12.8l.08-.05Z"/><path class="cls-4" d="m160.37,144.63c2.7,3.14,5.04,6.48,7.54,9.48,2.56,2.96,5.37,5.91,8.13,8.8,2.03,2.11,4.15,4.14,6.22,6.21,7.3,7.3,14.81,14.41,22.8,20.93,3.56,2.87,7.24,5.64,11.05,8.06,2.44,1.57,4.98,2.96,7.55,4.25,1.28.66,2.58,1.24,3.9,1.77.67.21,1.33.52,2,.72.68.17,1.36.45,2.05.54,1.72.38,1.56.51-.05.85-.41.12-.9.15-1.47.17-.57.02-1.24.07-1.93,0-1.41-.1-3.03-.47-4.68-1.09-2.94-1.07-5.59-2.66-8.2-4.24-2.61-1.6-5.12-3.32-7.55-5.13-4.87-3.63-9.43-7.63-13.87-11.77-5.29-4.96-10.89-10.02-16.12-15.27-2.88-2.88-5.71-5.81-8.49-8.79-1.38-1.5-2.79-2.97-4.12-4.59-1.32-1.59-2.56-3.21-3.8-4.8-3.06-3.9-6.22-7.74-10.18-10.45-1.49-1.04-3.1-1.85-4.8-2.39-.43-.12-.84-.29-1.28-.37l-1.31-.24c-.81-.16-1.7-.08-2.61-.01-3.63.38-7.34,1.23-10.66,2.63-1.26.54-2.54,1.21-3.29,2.04-.18.21-.31.4-.34.57-.08.18-.04.38,0,.56.1.35.34.84.79,1.2.83.78,2.09,1.29,3.34,1.57,1.26.28,2.59.33,3.76.1.16-.02.22-.05.26-.07l.16-.06c.11-.05.2-.11.29-.16.16-.14.34-.27.35-.5-.02-.21-.21-.32-.34-.4-.14-.08-.27-.15-.4-.21-.12-.05-.24-.11-.36-.16-.17-.07-.32-.14-.47-.2-.3-.13-.58-.25-.83-.37-1-.47-1.55-.91-1.91-1.45-.16-.24-.38-.53-.43-.74-.06-.36.34-.43,1.18-.37.42.03.97.11,1.63.23.33.06.69.14,1.07.23.19.05.4.1.6.16l.33.1c.16.05.31.11.47.16,1.03.37,2.04.9,2.59,1.63.28.36.48.78.52,1.27.04.49-.1.95-.32,1.36-.06.1-.11.21-.18.3l-.26.27-.52.55c-.21.16-.46.3-.68.45-.24.13-.44.33-.73.41l-.83.3-.41.15-.3.06c-.4.07-.8.17-1.19.19-1.57.14-3.11-.04-4.61-.46-1.49-.46-3-1.09-4.38-2.47-.17-.17-.32-.4-.48-.6-.16-.21-.31-.41-.42-.69-.12-.25-.23-.53-.35-.81l-.14-.98c-.13-.66.04-1.32.27-1.94.28-.62.61-1.09.95-1.45.68-.75,1.38-1.24,2.06-1.68.69-.43,1.36-.79,2.05-1.09,2.76-1.17,5.51-1.87,8.33-2.4,1.05-.19,2.11-.35,3.2-.45,1.08-.09,2.23-.2,3.55,0,2.31.3,4.5,1.11,6.49,2.15,3.98,2.15,7.1,5.23,9.83,8.37l-.05.06Z"/><path class="cls-4" d="m185.29,197.53c-1.85,1.83-3.79,3.55-5.83,5.17-.74.59-1.44,1.24-2.24,1.79-1.24.84-2.51,1.64-3.99,2.28-.18.08-.37.15-.58.23-.25.08-.54.2-.82.24-.56.12-1.11.17-1.62.07-.51-.08-1.01-.35-1.33-.76-.34-.39-.39-.94-.51-1.46-.06-.29-.04-.6-.06-.9-.03-.15.01-.31.02-.43l.02-.32c.1-1.58.45-3.1.96-4.51.33-.91.76-1.77,1.25-2.59.25-.41.49-.81.81-1.17.33-.35.66-.69,1.02-1.01.45-.39.45-.29.4.25-.03.27-.04.67-.06,1.13-.02.23,0,.49-.04.73-.05.24-.12.47-.21.71-.47,1.28-.81,2.56-1.1,3.78-.13.62-.23,1.23-.26,1.83-.01.3-.04.6-.02.9,0,.06,0,.18,0,.19,0,.03,0,.02-.01.04-.02.03,0,.03-.06.09.01.05-.03.16,0,.26.03.1.12.15.22.19.06.02.14.03.22.02.01,0,.14-.04.25-.08l.34-.14c.46-.2.92-.47,1.37-.76.91-.58,1.79-1.28,2.68-1.95,1.95-1.5,3.83-3.15,5.61-4.89,1.1-1.08,2.17-2.18,3.19-3.34,1.54-1.75,3.04-3.56,4.27-5.51.96-1.52,1.64-3.15,2.27-4.77.13-.36.25-.71.37-1.07.49-1.32.88-1.63,1.78-1.66.21,0,.42-.04.62-.02.66.05,1.01.83.82,2-.72,3.43-2.54,6.59-4.61,9.46-1.55,2.14-3.28,4.13-5.08,6.03l-.06-.05Z"/><path class="cls-4" d="m125.14,130.52c-1.91-2.73-3.84-5.46-5.8-8.16-.71-.99-1.51-1.91-2.22-2.9l-7.46-10.53c-1.11-1.55-2.32-3.04-3.45-4.56-.74-.97-1.5-1.92-2.22-2.9-.69-1.01-1.27-2.1-1.81-3.22-.33-.7-.17-.7.48-.39.64.32,1.93.81,3.01,1.74.87.89,1.67,1.84,2.5,2.77.82.94,1.64,1.87,2.38,2.87,1.51,1.97,2.99,3.98,4.39,6.06,1.69,2.48,3.72,4.85,5.56,7.3,2.02,2.7,4.01,5.43,5.99,8.16l3.64,5.05c1.84,2.55,3.64,5.15,5.52,7.64,1.46,1.94,3.04,3.73,4.56,5.6.34.41.69.8,1.01,1.22,1.19,1.58,1.36,2.23.83,3.11-.12.2-.22.43-.36.59-.48.57-1.43.25-2.43-.81-2.94-3.15-5.61-6.76-8.28-10.41-1.96-2.72-3.93-5.45-5.9-8.18l.06-.05Z"/><path class="cls-4" d="m141.79,146.72c.37.63,1.25,1.37,2.19,2.04.95.68,2.03,1.29,3.15,1.87.82.43,1.7.73,2.59,1.2l.82.45c.4.23.77.51,1.06.85.16.26.33.5.46.78.14.3.22.5.27.67l.34,1c.22.64.45,1.22.72,1.8.55,1.12,1.28,2.14,2.26,2.92,1.01.85,2.28,1.4,3.6,1.76,1.74.41,3.52.36,5.41.89.59.19.53.28.05.65-.24.19-.59.44-1.03.73-.22.14-.46.32-.72.43-.26.09-.55.13-.84.15-2.08.23-4.3-.1-6.4-.99-2.15-.85-3.9-2.7-4.92-4.67-.39-.74-.73-1.49-1.05-2.21-.31-.7-.67-1.52-.72-1.54,0-.1-1.01-.52-1.78-.89-1.19-.56-2.41-1.15-3.61-1.83-1.2-.68-2.39-1.43-3.49-2.46-.67-.64-1.32-1.38-1.76-2.37-.44-.99-.53-2.26-.05-3.37l.11-.28c.35-.81,1.13-1.35,1.96-1.57.4-.11.9-.17,1.22-.17.35,0,.69.01,1.02.04,1.31.14,2.51.44,3.69.76,1.88.52,3.72.99,5.54,1.6.4.14.8.24,1.19.4,1.46.59,1.8,1.06,1.7,2-.02.21-.02.43-.08.63-.17.65-.99.9-2.06.63-1.6-.41-3.19-.92-4.79-1.38-1.59-.45-3.21-.91-4.67-1.12-.31-.04-.61-.07-.88-.08-.13,0-.27-.01-.38,0-.1,0-.29.02-.24.01-.01-.02-.02-.02-.05-.01-.02-.03-.12.15.21.65l-.07.05Z"/><path class="cls-4" d="m253.14,242.33c.05.87.13,1.73.24,2.55.06.41.12.81.2,1.18.04.19.08.35.13.52.07.2.03.13.05.19.03.07.01.08.16.16.2.18.58.3.88.45.67.27,1.44.5,2.25.67,3.24.68,6.81.83,10.33.8,2.58-.01,5.17-.26,7.75-.44,4.57-.33,9.14-.84,13.69-1.51,4.55-.66,9.09-1.46,13.59-2.44,3.99-.87,7.96-1.95,11.82-3.18,2.49-.76,4.96-1.6,7.4-2.48.61-.22,1.23-.43,1.83-.67l1.86-.61c1.23-.43,2.47-.84,3.69-1.3,1.56-.49,1.47-.21.43.82-.52.52-1.3,1.19-2.29,1.93-.49.38-1.04.77-1.64,1.14-.3.19-.61.37-.92.58-.33.16-.67.33-1.03.47-2.5,1.08-5.04,2.03-7.6,2.94-2.57.86-5.18,1.6-7.81,2.27-5.25,1.37-10.57,2.42-15.96,3.23-6.44.91-13.13,2.01-19.81,2.41-3.67.22-7.36.28-11.08.02-1.86-.14-3.73-.34-5.62-.81-.94-.23-1.9-.53-2.85-.98-.24-.09-.48-.25-.71-.4-.24-.17-.6-.34-.82-.6-.26-.24-.43-.56-.58-.87-.13-.31-.25-.7-.3-.93-.53-2.47-.48-4.69-.56-6.97-.03-2.26.01-4.51.09-6.76.24-6.8.87-13.6,1.56-20.3.55-5.21,1.04-10.34,1.9-15.49.19-1.13.37-2.25.62-3.39.94-4.22,1.74-5.5,2.86-6.07.26-.13.54-.31.77-.35.75-.11.61,1.61.02,4.58-.89,4.42-1.54,9.06-2.14,13.78-.59,4.72-1.1,9.53-1.51,14.35-.3,3.58-.56,7.18-.72,10.78-.16,3.59-.26,7.2-.1,10.71h-.08Z"/><path class="cls-4" d="m386.71,246.29c-1.25,2.28-2.42,4.59-3.46,6.95-.37.86-.65,1.76-.98,2.63-.3.76-.58,1.53-.83,2.29-.12.38-.23.76-.33,1.13l-.13.56c-.03.17-.07.39-.08.43-.06.28-.14.74.2.93.15.09.34.11.52.1.09,0,.19-.02.28-.04.09-.01.18-.05.39-.11,1.25-.44,2.51-1.25,3.66-2.1.75-.55,1.44-1.19,2.18-1.76.77-.54,1.49-1.14,2.3-1.63.49-.31.66-.13.65.55,0,.69-.23,1.85-.94,2.8-.16.2-.32.42-.49.61l-.55.54c-.37.35-.76.7-1.15,1.04-.79.67-1.63,1.31-2.55,1.89-.47.28-.97.54-1.5.77-.29.12-.5.21-.89.34-.44.15-.9.25-1.35.3-.9.13-1.77-.03-2.46-.48-.35-.22-.67-.5-.85-.87-.12-.17-.18-.36-.27-.54-.1-.17-.15-.37-.17-.58-.11-.48-.06-1.01-.06-1.51,0-.24.06-.54.08-.71.03-.17.05-.35.09-.51.13-.66.28-1.29.44-1.91.32-1.24.7-2.44,1.15-3.6.99-2.54,2.15-4.98,3.37-7.37.75-1.48,1.54-2.93,2.33-4.38,1.2-2.19,2.51-4.34,3.78-6.47,1-1.66,1.86-3.36,2.92-4.99.23-.36.45-.72.72-1.06.98-1.28,1.55-1.5,2.33-1.24.18.06.37.1.53.18.51.27.48,1.08-.03,2.06-.76,1.47-1.55,2.96-2.39,4.45-.83,1.5-1.66,3.03-2.55,4.53-1.3,2.25-2.61,4.52-3.79,6.85l-.08-.03Z"/><path class="cls-4" d="m221.57,92.02c-.4,1.74-.97,3.44-1.29,5.2-.34,1.87-.64,4.2.5,5.88,1.25,1.84,3.91,2.28,5.94,1.71s3.64-1.95,4.96-3.46c1.23-1.4,2.29-2.96,3.19-4.59.39-.71.17-1.64-.54-2.05s-1.66-.17-2.05.54c-.28.51-.58,1.01-.89,1.5-.19.3-.39.6-.59.89-.11.16-.22.31-.33.47-.07.1-.14.19-.21.28-.19.25.16-.19-.06.08-.55.68-1.12,1.33-1.77,1.92-.15.14-.31.28-.47.41-.06.05-.13.1-.19.16.28-.22-.05.03-.09.06-.36.25-.74.48-1.13.67-.07.03-.14.07-.21.1.35-.15-.01,0-.07.02-.18.06-.37.12-.55.16-.07.02-.15.03-.22.05-.37.09.32,0-.05,0-.21,0-.42.02-.63.01-.1,0-.19-.01-.29-.02.34.03.12.02.05,0-.2-.05-.4-.09-.59-.16-.05-.02-.42-.18-.12-.04-.08-.04-.16-.08-.24-.12s-.16-.12-.24-.15c.24.09.17.15.03,0-.09-.09-.19-.3,0,.03-.03-.05-.07-.1-.1-.15-.04-.08-.09-.17-.13-.25.03.04.1.33.04.09-.04-.16-.09-.32-.13-.48-.02-.08-.06-.44-.02-.02-.01-.11-.02-.22-.03-.33-.03-.39-.02-.79,0-1.18.01-.21.04-.42.06-.62.04-.41-.03.21,0-.05.02-.15.05-.3.07-.45.32-1.81.9-3.54,1.32-5.33.18-.79-.24-1.62-1.05-1.85-.76-.21-1.66.25-1.85,1.05h0Z"/><path class="cls-4" d="m213.69,122.53c2.16.36,4.37-.12,6.15-1.42,1.63-1.19,3-2.87,3.44-4.88.18-.83-.25-1.8-1.13-2-.82-.19-1.81.25-2,1.13-.04.18-.08.35-.14.53-.03.08-.06.16-.08.24-.11.34.17-.33,0-.01s-.32.62-.52.91c-.05.07-.15.18-.19.26.06-.14.18-.22.02-.03-.13.16-.26.31-.4.45-.13.13-.26.26-.4.38-.08.07-.17.15-.26.22-.23.19.18-.13.02-.01-.33.22-.65.44-1.01.62-.08.04-.17.08-.25.12-.18.09.31-.12.02,0-.19.07-.39.14-.59.2s-.4.11-.61.14c-.07.01-.15.02-.22.04.38-.11.12-.02-.02,0-.19.01-.38.02-.58.01-.12,0-.23-.01-.35-.02-.34-.02.33.06-.03,0-.84-.14-1.79.22-2,1.13-.18.78.24,1.85,1.13,2h0Z"/><path class="cls-4" d="m225.79,78.9c.17-.07.35-.13.53-.17.11-.03.22-.05.34-.07.3-.07-.23,0-.02,0,.44,0,.87-.02,1.31.02.19.02.09.02-.04,0,.13.03.27.04.4.07.23.04.45.1.67.16.49.13.96.3,1.43.48.25.1-.34-.16.08.04.11.05.22.1.33.16.22.11.44.22.66.34.45.25.89.53,1.31.82.1.07.2.14.29.22.15.11-.16-.14.07.06.18.15.36.3.53.46.36.34.7.7,1.01,1.09.55.69,1.73.57,2.3,0,.68-.68.55-1.61,0-2.3-1.47-1.85-3.57-3.14-5.73-4.02-1.92-.78-4.34-1.27-6.33-.48-.79.31-1.43,1.1-1.13,2,.25.76,1.15,1.47,2,1.13h0Z"/><path class="cls-1" d="m272.88,181.06c-.82,4.96-8.09,6.36-8.09-.02,0-2.92,3.5-4.68,6.06-3.2,1.66.96,2.21,2.12,2.03,3.22Z"/><path class="cls-4" d="m414.88,95.55c-.04-.16.06-.28.23-.4.05-.04.21-.03.24.02.05.09.1.17.15.26.02.05.21.9.3,1.19.09.28.13.56.16.83.05.57.14,1.13.18,1.7,0,.13,0,.25-.02.38-.07.43-.06.86-.01,1.29,0,.07,0,.15.06.21.09.11.15,1.28.12,1.43-.09.38-.15.76-.23,1.14-.01.05.01.11-.05.16-.15.12-.12.23-.13.35-.01.16-.04.33-.09.49-.03.08-.12.16-.18.25-.06.07-.26.05-.28.02-.07-.07-.16,0-.25,0-.03,0-.07,0-.09,0-.07,0-.5-.92-.48-1.02,0-.02-.15-1.35-.17-1.54-.01-.08.02-.16.04-.25,0-.06-.09-1.13-.09-1.17.02-.23-.03-.45.09-.68.02-.04.02-.09.02-.14-.01-.39.03-.78.07-1.17.02-.2.02-.4.03-.6,0-.04.02-.07.03-.11.01-.05.03-.09.03-.14.01-.47.07-.94.08-1.41,0-.11.14-.62.14-.75,0-.07.14-.3.12-.36Z"/><path class="cls-4" d="m410.89,100.56c-.16.06-.3-.08-.43-.2-.04-.04-.05-.17,0-.2.1-.07.2-.14.27-.18.14-.04.94-.26,1.26-.35.29-.07.59-.1.89-.12.6-.04,1.2-.11,1.8-.12.13,0,.27,0,.4.02.46.07.91.07,1.37.03.08,0,.15,0,.23-.05.12-.07,1.35-.12,1.51-.09.4.07.79.11,1.19.16.06,0,.12-.01.17.04.12.12.24.1.37.1.17,0,.34.02.51.04.08.02.17.09.26.14.08.05.06.24.03.26-.07.07,0,.15.01.23,0,.03.01.06,0,.08,0,.06-.99.45-1.1.44-.02,0-1.43.13-1.63.15-.09.01-.17-.02-.26-.03-.06,0-1.19.09-1.23.09-.24-.01-.48.03-.71-.07-.05-.02-.1-.01-.14-.01-.41.02-.82-.02-1.22-.05-.22,0-.42,0-.62,0-.04,0-.08-.02-.11-.02-.05,0-.09-.02-.14-.02-.49,0-.99-.06-1.47-.02-.11,0-.66-.14-.78-.12-.07,0-.32-.13-.38-.11Z"/><path class="cls-4" d="m412.12,103.95c-.08.14-.28.13-.46.12-.06,0-.14-.09-.13-.14.03-.11.05-.22.07-.3.03-.05.5-.79.65-1.05.16-.24.34-.46.53-.67.39-.43.76-.87,1.16-1.28.09-.09.19-.18.29-.25.37-.26.68-.57.97-.9.05-.06.11-.1.12-.18.03-.13.86-.99.99-1.08.33-.21.64-.45.96-.68.05-.03.07-.09.15-.08.17,0,.24-.09.33-.17.13-.11.26-.21.4-.3.07-.04.19-.05.29-.06.09-.01.2.15.2.18,0,.09.1.11.16.16.02.02.05.04.06.06.03.04-.4.93-.48,1-.01.02-.9,1.02-1.03,1.17-.05.07-.13.1-.2.15-.04.04-.76.86-.79.89-.17.15-.31.34-.55.43-.05.02-.08.05-.11.09-.27.29-.58.53-.88.79-.16.15-.29.28-.44.41-.03.02-.06.04-.1.06-.04.03-.08.05-.12.08-.34.33-.73.62-1.05.97-.08.08-.56.34-.65.43-.05.05-.32.11-.35.17Z"/><path class="cls-4" d="m418.9,102.35c.14.04.16.22.18.39,0,.06-.06.16-.11.16-.11,0-.22,0-.29,0-.13-.05-.82-.29-1.1-.38-.25-.1-.48-.23-.7-.37-.45-.29-.92-.55-1.35-.85-.1-.07-.19-.14-.27-.23-.28-.3-.61-.53-.95-.75-.06-.03-.11-.08-.19-.08-.13,0-1.03-.62-1.12-.73-.24-.27-.5-.51-.75-.76-.04-.04-.09-.05-.1-.12-.02-.16-.12-.2-.2-.27-.12-.09-.23-.19-.33-.3-.05-.06-.07-.16-.1-.25-.03-.08.1-.22.13-.23.09-.01.09-.12.13-.19.01-.02.03-.06.04-.07.04-.05.96.16,1.03.23.02.01,1.09.65,1.25.75.07.03.11.1.16.16.05.03.9.56.93.58.16.14.36.23.46.44.02.04.06.06.09.09.3.2.57.45.84.68.16.12.29.22.44.34.03.02.04.05.07.08.03.03.05.07.09.09.35.26.66.57,1.03.8.08.05.38.46.48.51.05.04.15.28.2.29Z"/><path class="cls-4" d="m388.51,140.6c-.03-.11.05-.2.17-.27.04-.02.15-.02.17.01.04.06.07.12.1.18.01.04.15.63.22.82.06.19.1.39.11.58.04.39.1.78.13,1.18,0,.09,0,.17-.02.26-.05.3-.04.6,0,.9,0,.05,0,.1.04.15.06.08.11.89.09.99-.07.31-.11.53-.17.79,0,.04,0,.08-.04.11-.11.08-.09.16-.09.24,0,.11-.03.23-.07.34-.02.06-.09.11-.13.17-.04.05-.19.03-.2.02-.05-.05-.12,0-.18,0-.02,0-.05,0-.06,0-.05,0-.36-.64-.35-.71,0-.01-.1-.92-.12-1.07-.01-.06.02-.11.03-.17,0-.05-.06-.79-.07-.81.01-.16-.02-.31.07-.47.02-.03.01-.06.01-.09-.01-.27.02-.54.05-.81.02-.14.01-.28.02-.41,0-.02.01-.05.02-.07,0-.03.02-.06.02-.09.01-.33.05-.65.06-.98,0-.08.1-.43.1-.52,0-.05.1-.21.09-.25Z"/><path class="cls-4" d="m385.76,144.08c-.11.04-.21-.06-.3-.15-.03-.03-.03-.12,0-.14.07-.05.14-.1.18-.13.11-.03.65-.19.87-.25.2-.05.41-.07.62-.08.42-.03.83-.08,1.25-.09.09,0,.18,0,.28.02.32.05.63.05.95.02.05,0,.11,0,.16-.03.08-.05.94-.08,1.05-.06.28.05.55.08.82.12.04,0,.08,0,.12.03.09.09.17.07.25.07.12,0,.23.01.35.03.06.01.12.06.18.1.05.03.04.17.02.19-.05.05,0,.11,0,.17,0,.02,0,.04,0,.06,0,.04-.69.32-.76.31-.01,0-.97.09-1.13.1-.06,0-.12-.01-.18-.02-.05,0-.83.06-.86.07-.17-.01-.33.02-.49-.05-.03-.01-.07-.01-.1,0-.28.01-.57-.02-.85-.04-.17,0-.29,0-.43,0-.03,0-.05-.01-.08-.02-.03,0-.07-.02-.1-.02-.34,0-.68-.04-1.02-.02-.08,0-.45-.1-.54-.09-.05,0-.22-.1-.26-.08Z"/><path class="cls-4" d="m386.62,146.43c-.05.1-.19.09-.32.08-.04,0-.1-.07-.1-.1.02-.08.03-.16.04-.21.02-.04.35-.55.44-.74.11-.17.24-.32.37-.46.27-.3.52-.61.8-.89.06-.06.13-.12.2-.17.26-.18.47-.39.67-.62.03-.04.07-.07.09-.13.02-.09.59-.69.69-.75.23-.15.45-.31.67-.47.03-.02.05-.06.1-.06.12,0,.17-.06.23-.12.09-.07.18-.15.28-.2.05-.03.13-.03.2-.04.06,0,.14.11.14.13,0,.07.07.08.12.12.02.01.04.03.04.04.03.03-.27.66-.32.7,0,.01-.61.7-.72.82-.03.05-.09.07-.14.1-.03.03-.53.6-.55.62-.12.1-.21.24-.38.29-.03.01-.05.04-.08.06-.19.2-.4.37-.61.54-.12.11-.2.19-.31.29-.02.02-.05.03-.07.04-.03.02-.06.03-.08.05-.24.23-.51.43-.73.67-.05.05-.39.23-.45.29-.04.03-.23.07-.25.11Z"/><path class="cls-4" d="m391.32,145.31c.1.02.11.16.12.28,0,.04-.05.11-.08.12-.08,0-.15,0-.21,0-.1-.03-.57-.19-.77-.26-.17-.07-.33-.16-.49-.26-.31-.2-.64-.38-.94-.59-.07-.05-.13-.1-.19-.16-.19-.21-.42-.37-.66-.52-.04-.02-.08-.06-.13-.06-.09,0-.71-.43-.78-.5-.16-.19-.34-.36-.51-.53-.02-.03-.06-.03-.07-.08,0-.12-.08-.14-.14-.19-.08-.06-.16-.13-.23-.21-.03-.04-.05-.11-.07-.18-.02-.06.08-.16.1-.17.06-.01.07-.09.09-.14,0-.02.02-.04.03-.05.03-.03.67.1.72.15.01,0,.74.44.87.51.05.02.08.07.11.11.04.02.63.39.65.4.11.1.25.16.32.3.01.03.04.04.06.06.21.14.39.31.58.48.12.09.2.16.3.23.02.01.03.04.04.06.02.02.04.05.06.07.24.18.46.39.71.55.06.04.26.32.33.36.04.03.1.19.14.2Z"/><g class="cls-5"><path class="cls-4" d="m367.28,75.47c-.04-.13.05-.24.19-.33.04-.03.18-.02.2.01.04.07.09.15.12.22.02.05.18.76.25,1,.07.23.11.47.13.7.04.47.11.95.15,1.42,0,.1,0,.21-.02.32-.06.36-.05.72,0,1.08,0,.06,0,.12.05.18.07.09.13,1.07.1,1.2-.07.37-.13.64-.19.95,0,.05,0,.09-.04.14-.12.1-.1.2-.11.29,0,.14-.03.27-.08.41-.03.07-.1.14-.15.21-.05.06-.21.04-.23.02-.06-.06-.13,0-.2,0-.02,0-.05,0-.07,0-.06,0-.41-.77-.4-.86,0-.02-.12-1.12-.14-1.29-.01-.07.02-.14.04-.21,0-.05-.07-.95-.08-.98.02-.19-.02-.38.08-.57.02-.04.01-.08.01-.11-.01-.33.03-.65.06-.98.02-.17.01-.33.02-.5,0-.03.02-.06.02-.09,0-.04.02-.08.02-.11.01-.39.06-.79.07-1.18,0-.09.12-.52.11-.63,0-.06.12-.25.1-.3Z"/><path class="cls-4" d="m363.95,79.67c-.13.05-.25-.07-.36-.17-.04-.03-.04-.14,0-.16.08-.06.16-.11.22-.15.13-.04.79-.22,1.05-.29.25-.05.5-.08.74-.1.5-.03,1.01-.09,1.51-.1.11,0,.22,0,.33.02.38.06.76.05,1.15.02.06,0,.13,0,.19-.04.1-.06,1.13-.1,1.27-.07.33.06.66.09,1,.14.05,0,.1-.01.14.03.1.1.2.08.31.08.14,0,.28.01.42.04.07.01.14.07.22.12.07.04.05.2.03.22-.06.05,0,.13.01.19,0,.02,0,.05,0,.07,0,.05-.83.37-.92.36-.02,0-1.19.11-1.37.12-.07.01-.14-.01-.22-.03-.05,0-1,.07-1.03.08-.2-.01-.4.03-.6-.06-.04-.02-.08-.01-.12-.01-.34.01-.68-.02-1.03-.04-.19,0-.35,0-.52,0-.03,0-.06-.01-.09-.02-.04,0-.08-.02-.12-.02-.41,0-.83-.05-1.24-.02-.09,0-.55-.11-.66-.1-.06,0-.27-.11-.32-.09Z"/><path class="cls-4" d="m364.97,82.51c-.06.12-.23.11-.38.1-.05,0-.12-.08-.11-.12.02-.09.04-.19.06-.25.02-.04.42-.66.54-.88.13-.2.29-.38.45-.56.33-.36.63-.73.97-1.08.07-.08.16-.15.25-.21.31-.22.57-.48.81-.75.04-.05.09-.09.1-.15.02-.11.72-.83.83-.9.28-.18.54-.38.8-.57.04-.03.06-.07.12-.07.15,0,.2-.08.28-.14.11-.09.21-.18.34-.25.06-.03.16-.04.24-.05.08-.01.17.12.17.15,0,.08.08.09.14.14.02.01.04.03.05.05.03.04-.34.78-.4.84-.01.01-.75.85-.87.98-.04.05-.11.09-.17.12-.03.04-.64.72-.66.74-.15.13-.26.28-.46.36-.04.01-.06.04-.09.07-.23.24-.49.45-.74.66-.14.13-.25.23-.37.35-.02.02-.05.03-.08.05-.03.02-.07.04-.1.07-.29.28-.61.52-.88.81-.06.07-.47.28-.54.36-.04.04-.27.09-.3.14Z"/><path class="cls-4" d="m370.65,81.18c.12.03.14.19.15.33,0,.05-.05.13-.09.13-.09,0-.18,0-.25,0-.12-.04-.69-.24-.92-.32-.21-.09-.4-.2-.59-.31-.38-.24-.77-.46-1.13-.72-.08-.06-.16-.12-.23-.19-.24-.25-.51-.45-.8-.62-.05-.03-.09-.07-.16-.07-.11,0-.86-.52-.94-.61-.2-.22-.42-.43-.62-.63-.03-.03-.08-.04-.08-.1-.01-.14-.1-.17-.17-.23-.1-.08-.19-.16-.28-.25-.04-.05-.06-.13-.08-.21-.02-.07.09-.19.11-.19.07-.01.08-.1.11-.16.01-.02.02-.05.04-.06.03-.04.8.14.86.19.01,0,.9.54,1.05.62.06.03.1.09.14.14.04.03.75.47.78.48.13.11.3.19.39.37.02.03.05.05.08.07.25.17.47.38.7.57.14.11.24.19.37.28.02.02.04.04.05.07.02.03.04.06.07.08.29.22.56.47.86.67.07.04.32.38.4.43.04.03.12.23.17.24Z"/></g><path class="cls-4" d="m138.86,22.38c-.04-.13.05-.24.19-.33.04-.03.18-.02.2.01.04.07.09.15.12.22.02.05.18.76.25,1,.07.23.11.47.13.7.04.47.11.95.15,1.42,0,.1,0,.21-.02.32-.06.36-.05.72,0,1.08,0,.06,0,.12.05.18.07.09.13,1.07.1,1.2-.07.37-.13.64-.19.95,0,.05,0,.09-.04.14-.12.1-.1.2-.11.29,0,.14-.03.27-.08.41-.03.07-.1.14-.15.21-.05.06-.22.04-.23.02-.06-.06-.13,0-.2,0-.02,0-.05,0-.07,0-.06,0-.41-.77-.4-.86,0-.02-.12-1.12-.14-1.29-.01-.07.02-.14.04-.21,0-.05-.07-.95-.08-.98.02-.19-.02-.38.08-.57.02-.04.02-.08.01-.11-.01-.33.03-.65.06-.98.02-.17.01-.33.02-.5,0-.03.02-.06.02-.09,0-.04.02-.08.02-.11.01-.39.06-.79.07-1.18,0-.09.12-.52.11-.63,0-.06.12-.25.1-.3Z"/><path class="cls-4" d="m135.52,26.58c-.13.05-.25-.07-.36-.17-.04-.04-.04-.14,0-.16.08-.06.16-.11.22-.15.13-.04.79-.22,1.05-.29.25-.05.5-.08.74-.1.5-.03,1.01-.09,1.51-.1.11,0,.22,0,.33.02.38.06.76.05,1.15.02.06,0,.13,0,.19-.04.1-.06,1.13-.1,1.27-.07.33.06.66.09,1,.14.05,0,.1-.01.14.03.1.1.2.08.31.08.14,0,.28.01.42.04.07.01.14.07.22.12.07.04.05.2.03.22-.06.05,0,.13.01.19,0,.02,0,.05,0,.07,0,.05-.83.37-.92.36-.02,0-1.19.11-1.37.12-.07.01-.14-.01-.22-.03-.05,0-1,.07-1.03.08-.2-.01-.4.03-.6-.06-.04-.02-.08-.01-.12-.01-.34.01-.68-.02-1.03-.04-.19,0-.35,0-.52,0-.03,0-.06-.01-.09-.02-.04,0-.08-.02-.12-.02-.41,0-.83-.05-1.24-.02-.09,0-.55-.11-.66-.1-.06,0-.27-.11-.32-.09Z"/><path class="cls-4" d="m136.55,29.42c-.06.12-.23.11-.38.1-.05,0-.12-.08-.11-.12.02-.09.04-.19.06-.25.02-.04.42-.66.54-.88.13-.2.29-.38.45-.56.33-.36.63-.73.97-1.08.07-.08.16-.15.25-.21.31-.22.57-.48.81-.75.04-.05.09-.09.1-.15.02-.11.72-.83.83-.9.28-.18.54-.38.8-.57.04-.03.06-.07.12-.07.15,0,.2-.08.28-.14.11-.09.21-.18.34-.25.06-.04.16-.04.24-.05.08-.01.17.12.17.15,0,.08.08.09.14.14.02.01.04.03.05.05.03.04-.34.78-.4.84-.01.01-.75.85-.87.98-.04.05-.11.09-.17.12-.03.04-.64.72-.66.74-.15.13-.26.28-.46.36-.04.01-.06.04-.09.07-.23.24-.49.45-.74.66-.14.13-.25.23-.37.35-.02.02-.05.03-.08.05-.03.02-.07.04-.1.07-.29.28-.61.52-.88.81-.06.07-.47.28-.54.36-.04.04-.27.09-.3.14Z"/><path class="cls-4" d="m142.23,28.09c.12.03.14.19.15.33,0,.05-.05.13-.09.13-.09,0-.18,0-.25,0-.12-.04-.69-.24-.92-.32-.21-.09-.4-.2-.59-.31-.38-.24-.77-.46-1.13-.71-.08-.06-.16-.12-.23-.19-.24-.25-.51-.45-.8-.62-.05-.03-.09-.07-.16-.07-.11,0-.86-.52-.94-.61-.2-.22-.42-.43-.62-.63-.03-.03-.08-.04-.08-.1-.01-.14-.1-.17-.17-.23-.1-.08-.19-.16-.28-.25-.04-.05-.06-.13-.08-.21-.02-.07.09-.19.11-.19.07-.01.08-.1.11-.16.01-.02.02-.05.04-.06.03-.04.8.14.86.19.01,0,.9.54,1.05.62.06.03.1.09.14.14.04.03.75.47.78.48.13.11.3.19.39.37.02.03.05.05.08.07.25.17.47.38.7.57.14.11.24.19.37.28.02.02.04.04.05.07.02.03.04.06.07.08.29.22.56.47.86.67.07.04.32.38.4.43.04.03.12.23.17.24Z"/><path class="cls-4" d="m210.69,282.92c-.04-.13.05-.24.19-.33.04-.03.18-.02.2.01.04.07.09.15.12.22.02.05.18.76.25,1,.07.23.11.47.13.7.04.47.11.95.15,1.42,0,.11,0,.21-.02.32-.06.36-.05.72,0,1.08,0,.06,0,.12.05.18.07.09.13,1.07.1,1.2-.07.37-.13.64-.19.95,0,.05,0,.09-.04.14-.12.1-.1.2-.11.29,0,.14-.03.27-.08.41-.03.07-.1.14-.15.21-.05.06-.21.04-.23.02-.06-.06-.13,0-.2,0-.02,0-.05,0-.07,0-.06,0-.41-.77-.4-.86,0-.02-.12-1.12-.14-1.29-.01-.07.02-.14.04-.21,0-.05-.07-.95-.08-.98.02-.19-.02-.38.08-.57.02-.04.01-.08.01-.11-.01-.33.03-.65.06-.98.02-.17.01-.33.02-.5,0-.03.02-.06.02-.09,0-.04.02-.08.02-.11.01-.39.06-.79.07-1.18,0-.09.12-.52.11-.63,0-.06.12-.25.1-.3Z"/><path class="cls-4" d="m207.35,287.12c-.13.05-.25-.07-.36-.17-.04-.03-.04-.14,0-.16.08-.06.16-.11.22-.15.13-.04.79-.22,1.05-.29.25-.05.5-.08.74-.1.5-.03,1.01-.09,1.51-.1.11,0,.22,0,.33.02.38.06.76.05,1.15.02.06,0,.13,0,.19-.04.1-.06,1.13-.1,1.27-.07.33.06.66.09,1,.14.05,0,.1-.01.14.03.1.1.2.08.31.08.14,0,.28.01.42.04.07.01.14.07.22.12.07.04.05.2.03.22-.06.05,0,.13.01.19,0,.02,0,.05,0,.07,0,.05-.83.37-.92.36-.02,0-1.19.11-1.37.12-.07.01-.14-.01-.22-.03-.05,0-1,.07-1.03.08-.2-.01-.4.03-.6-.06-.04-.02-.08-.01-.12-.01-.34.01-.68-.02-1.03-.04-.19,0-.35,0-.52,0-.03,0-.06-.01-.09-.02-.04,0-.08-.02-.12-.02-.41,0-.83-.05-1.24-.02-.09,0-.55-.11-.66-.1-.06,0-.27-.11-.32-.09Z"/><path class="cls-4" d="m208.38,289.96c-.06.12-.23.11-.38.1-.05,0-.12-.08-.11-.12.02-.09.04-.19.06-.25.02-.04.42-.66.54-.88.13-.2.29-.38.45-.56.33-.36.63-.73.97-1.08.07-.08.16-.15.25-.21.31-.22.57-.48.81-.75.04-.05.09-.09.1-.15.02-.11.72-.83.83-.9.28-.18.54-.38.8-.57.04-.03.06-.07.12-.07.15,0,.2-.08.28-.14.11-.09.21-.18.34-.25.06-.03.16-.04.24-.05.08-.01.17.12.17.15,0,.08.08.09.14.14.02.01.04.03.05.05.03.04-.34.78-.4.84-.01.01-.75.85-.87.98-.04.05-.11.09-.17.12-.03.04-.64.72-.66.74-.15.13-.26.28-.46.36-.04.01-.06.04-.09.07-.23.24-.49.45-.74.66-.14.13-.25.23-.37.35-.02.02-.05.03-.08.05-.03.02-.07.04-.1.07-.29.28-.61.52-.88.81-.06.07-.47.28-.54.36-.04.04-.27.09-.3.14Z"/><path class="cls-4" d="m214.06,288.62c.12.03.14.19.15.33,0,.05-.05.13-.09.13-.09,0-.18,0-.25,0-.12-.04-.69-.24-.92-.32-.21-.09-.4-.2-.59-.31-.38-.24-.77-.46-1.13-.72-.08-.06-.16-.12-.23-.19-.24-.25-.51-.45-.8-.62-.05-.03-.09-.07-.16-.07-.11,0-.86-.52-.94-.61-.2-.22-.42-.43-.62-.63-.03-.03-.08-.04-.08-.1-.01-.14-.1-.17-.17-.23-.1-.08-.19-.16-.28-.25-.04-.05-.06-.13-.08-.21-.02-.07.09-.19.11-.19.07-.01.08-.1.11-.16.01-.02.02-.05.04-.06.03-.04.8.14.86.19.01,0,.9.54,1.05.62.06.03.1.09.14.14.04.03.75.47.78.48.13.11.3.19.39.37.02.03.05.05.08.07.25.17.47.38.7.57.14.11.24.19.37.28.02.02.04.04.05.07.02.03.04.06.07.08.29.22.56.47.86.67.07.04.32.38.4.43.04.03.12.23.17.24Z"/><g class="cls-6"><path class="cls-4" d="m148.01,239.05c-.04-.14.06-.26.2-.37.05-.03.19-.03.21.01.05.08.09.16.13.24.02.05.19.84.27,1.11.08.26.12.52.14.78.05.53.12,1.05.16,1.58,0,.12,0,.23-.02.35-.07.4-.05.8,0,1.2,0,.07,0,.14.05.2.08.1.14,1.19.11,1.33-.08.41-.14.71-.2,1.06,0,.05,0,.1-.05.15-.13.11-.11.22-.11.33,0,.15-.03.3-.08.46-.03.08-.1.15-.16.23-.05.07-.23.04-.25.02-.06-.07-.14,0-.22,0-.03,0-.06,0-.08,0-.06,0-.44-.86-.43-.95,0-.02-.13-1.25-.15-1.44-.01-.07.02-.15.04-.23,0-.05-.08-1.05-.08-1.09.02-.21-.03-.42.08-.63.02-.04.02-.08.01-.13-.01-.36.03-.73.06-1.09.02-.19.02-.37.02-.56,0-.03.02-.07.03-.1,0-.04.02-.08.03-.13.01-.44.06-.88.07-1.31,0-.1.13-.58.12-.7,0-.07.13-.28.11-.33Z"/><path class="cls-4" d="m144.29,243.7c-.15.05-.28-.07-.4-.18-.04-.04-.04-.15,0-.17.09-.06.18-.12.25-.16.14-.04.88-.23,1.17-.31.27-.06.55-.09.83-.11.56-.04,1.12-.1,1.68-.11.12,0,.25,0,.37.02.43.06.85.06,1.27.03.07,0,.14,0,.21-.04.11-.07,1.26-.1,1.41-.08.37.06.74.1,1.11.14.05,0,.11-.01.16.03.11.11.23.08.34.09.16,0,.32.01.47.04.08.01.16.08.24.12.07.04.05.21.03.23-.07.06,0,.14.01.2,0,.02,0,.05,0,.07,0,.05-.92.4-1.02.39-.02,0-1.33.12-1.52.13-.08.01-.16-.01-.24-.03-.06,0-1.11.08-1.15.08-.22-.01-.44.03-.66-.07-.04-.02-.09-.01-.13-.01-.38.02-.76-.02-1.14-.04-.21,0-.39,0-.58,0-.03,0-.07-.02-.1-.02-.04,0-.09-.02-.13-.02-.46,0-.92-.05-1.37-.02-.1,0-.61-.12-.73-.11-.07,0-.29-.12-.35-.1Z"/><path class="cls-4" d="m145.43,246.86c-.07.13-.25.13-.42.12-.05,0-.13-.08-.12-.13.03-.1.05-.2.07-.27.02-.05.47-.73.61-.97.15-.22.32-.42.5-.62.36-.4.71-.81,1.08-1.19.08-.09.17-.16.27-.23.34-.24.63-.53.9-.84.05-.05.1-.1.12-.17.03-.12.8-.92.93-1,.31-.2.59-.42.89-.64.04-.03.07-.08.14-.08.16,0,.22-.09.31-.16.12-.1.24-.2.37-.28.07-.04.17-.05.26-.06.08-.01.18.13.18.16,0,.09.09.1.14.15.02.02.04.03.06.05.03.04-.38.86-.46.92-.01.02-.84.95-.97,1.09-.05.06-.12.1-.19.14-.04.04-.71.8-.74.82-.16.14-.29.32-.51.4-.04.02-.07.05-.1.08-.25.27-.54.5-.82.74-.15.14-.27.26-.41.38-.03.02-.06.04-.09.06-.04.02-.08.04-.11.07-.32.31-.68.58-.98.9-.07.07-.52.32-.6.4-.05.04-.29.11-.32.16Z"/><path class="cls-4" d="m151.74,245.39c.13.04.15.2.18.36,0,.05-.06.14-.1.14-.1,0-.2,0-.27,0-.12-.04-.76-.28-1.01-.37-.23-.1-.44-.22-.65-.35-.42-.27-.85-.51-1.26-.8-.09-.06-.17-.13-.25-.21-.26-.28-.57-.49-.89-.69-.05-.03-.1-.07-.17-.08-.12,0-.95-.58-1.04-.68-.22-.25-.46-.47-.7-.7-.03-.03-.08-.05-.09-.11-.02-.15-.11-.19-.19-.25-.11-.09-.22-.18-.31-.28-.05-.05-.07-.15-.1-.23-.03-.07.09-.2.12-.2.08-.01.08-.11.11-.17.01-.02.03-.05.04-.06.03-.04.88.17.95.22.02,0,1,.6,1.16.7.06.03.11.1.15.15.04.03.84.52.87.54.15.13.33.21.43.4.02.04.05.06.09.08.28.19.53.42.78.64.15.12.27.21.41.31.02.02.04.05.06.07.03.03.05.06.08.09.32.24.62.52.96.74.08.05.36.42.45.47.05.03.14.25.19.27Z"/></g><path class="cls-4" d="m266.21,184.58c-.78-.5-1.48-1.21-1.85-2.08-.15-.3-.3-.62-.36-.94-.09-.6-.08-1.13.06-1.73.15-.57.42-1.08.76-1.5.32-.36.69-.67,1.09-.9.49-.36,1.2-.31,1.7-.08.16.08.12.12,0,.25-.13.12-.33.42-.46.66-.47.76-.62,1.11-1.03,1.63-.21.3-.02.8.12,1.16.16.41.41.81.8,1.14.23.21.53.37.84.49.48.17,1.04.27,1.57.18.42-.07.78-.35,1.14-.55.08-.05.15-.11.23-.14.3-.15.46-.03.81.51l.24.37c.25.42.27.85.03,1.14-.18.22-.38.4-.61.56-.22.18-.47.31-.75.39-.53.19-1.13.25-1.73.24-.89-.03-1.8-.29-2.63-.75l.03-.06Z"/></svg>