<?xml version="1.0" encoding="UTF-8"?><svg id="Layer_1" xmlns="http://www.w3.org/2000/svg" width="520" height="520" viewBox="0 0 520 520"><defs><style>.cls-1{opacity:.2;}.cls-1,.cls-2,.cls-3,.cls-4{fill:#231f20;stroke-width:0px;}.cls-2{opacity:.45;}.cls-3{opacity:.5;}.cls-5{opacity:.55;}</style></defs><path class="cls-4" d="M291.06,296.65c2.44.88,5.29,1.91,7.83.84,1.22-.52,2.22-1.53,2.5-2.86.14-.65.17-1.35-.04-1.99-.25-.78-.69-1.3-1.33-1.79-.31-.24-.9-.26-1.25-.16-.38.1-.79.4-.97.75-.45.86-.14,1.67.58,2.22-.19-.15-.24-.18-.15-.1.03.03.07.07.1.1l-.14-.18c.03.05.06.1.09.16-.08-.03-.11-.39-.05-.09.01.07.02.17.05.23-.12-.24-.03-.31-.03-.05,0,.05,0,.1,0,.14-.01.13,0,.06.03-.19-.03.04-.14.43-.13.47.1-.22.12-.27.06-.16-.02.04-.04.09-.07.13-.02.04-.05.08-.08.13-.07.1-.03.06.11-.13-.05.01-.13.14-.16.18-.16.17-.02.09.04-.01-.04.08-.21.14-.29.19-.05.03-.1.05-.15.08-.11.05-.07.04.12-.05-.09.11-.49.15-.62.18-.29.06-.09-.05.02,0-.05-.02-.3.02-.36.03-.22,0-.44,0-.66,0-.1,0-.2-.02-.3-.02-.41-.03.4.08-.06,0-.26-.05-.51-.09-.77-.15-1.05-.24-2.06-.61-3.06-.98-.8-.29-1.81.33-2,1.13-.21.92.28,1.69,1.13,2h0Z"/><path class="cls-4" d="M341.5,174.76c-2.04,1.6-2.81,4.53-2.04,6.97.81,2.6,3,4.26,5.64,4.71,1.74.3,3.46.21,5.19-.13.83-.17,1.39-1.2,1.13-2-.29-.89-1.1-1.31-2-1.13-.21.04-.42.08-.63.12-.2.03-.21.03-.04,0-.1.01-.2.02-.31.03-.4.04-.8.06-1.19.06-.33,0-.66-.01-.99-.04-.09,0-.18-.02-.27-.03.21.03.22.03.03,0-.17-.03-.34-.06-.51-.1-.32-.07-.64-.16-.95-.28-.06-.02-.11-.04-.16-.06-.11-.05-.07-.03.12.05-.11,0-.3-.15-.4-.2-.13-.07-.25-.14-.37-.22-.06-.04-.12-.08-.17-.12.19.15.22.17.09.06-.1-.09-.2-.18-.29-.27-.03-.03-.36-.39-.2-.22s-.14-.2-.16-.24c-.09-.14-.17-.28-.24-.42-.04-.07-.07-.14-.11-.22.08.21.09.22.03.06-.05-.15-.1-.3-.15-.45s-.07-.31-.1-.46c-.07-.33.01.33,0-.03-.01-.31-.01-.61,0-.93.02-.18.02-.15-.01.09.01-.08.03-.15.04-.23.03-.15.07-.3.12-.45.02-.07.05-.27.11-.33-.09.21-.1.23-.03.07.03-.07.07-.14.1-.21.07-.14.15-.27.24-.4.04-.06.09-.13.13-.19-.14.17-.15.19-.04.06.22-.23.44-.45.69-.65.67-.53.59-1.75,0-2.3-.71-.65-1.58-.56-2.3,0h0Z"/><path class="cls-4" d="M326.56,195.37c1.66.47,3.63.55,5.12-.44,1.4-.93,2.12-2.46,2.13-4.12,0-.72-.64-1.41-1.38-1.38s-1.37.6-1.38,1.38c0,.15-.01.3-.02.45-.02.24.07-.4,0-.06-.01.06-.02.12-.04.18-.03.14-.07.27-.11.4-.02.06-.04.11-.06.16.16-.44.07-.18.02-.07s-.12.22-.19.32-.23.26.07-.07c-.04.04-.07.09-.11.13-.09.1-.18.19-.28.28-.23.2.17-.11.08-.05-.06.04-.11.08-.17.11-.12.07-.24.14-.36.2-.21.11.34-.12.11-.04-.07.02-.14.05-.2.07-.13.04-.27.08-.4.11-.09.02-.18.03-.26.05.44-.09.2-.03.09-.02-.35.03-.69.01-1.04-.02-.29-.03.34.06.05,0-.11-.02-.22-.04-.33-.06-.2-.04-.4-.09-.6-.15-.69-.2-1.53.24-1.69.96s.22,1.48.96,1.69h0Z"/><circle class="cls-2" cx="402.96" cy="130.62" r="23.57"/><path class="cls-1" d="M390.88,100.3c-2,.71-10.29,4.26-14.73,14.73-5.16,12.15-1.84,18.73-1.84,18.73,0,0-26.24,4.6-32.24-14.79-6-19.39,9.34-30.96,9.34-30.96,0,0,11.04-5.51,15.73-5.13,4.69.38,14.47,4.39,16.31,6.12,1.84,1.73,7.44,11.29,7.44,11.29Z"/><path class="cls-4" d="M341.49,110.58c.15,2.37.67,4.74,1.57,6.97.31.82.74,1.59,1.14,2.38,1.42,2.76,3.32,5.31,5.65,7.44.5.49,1.07.9,1.59,1.37.57.41,1.11.86,1.7,1.22,1.49.99,3.09,1.78,4.62,2.8.46.36.39.35-.14.37-.54.06-1.53.06-2.56-.32-1.8-.7-3.48-1.69-5.06-2.82-1.54-1.18-2.9-2.61-4.09-4.15-1.42-1.84-2.85-3.8-3.89-5.94-1.15-2.35-1.94-4.87-2.31-7.45-.23-1.59-.31-3.2-.2-4.8.12-2.43.71-4.81,1.54-7.05.66-1.74,1.38-3.44,2.38-5,.21-.35.44-.67.68-1.01.44-.62.81-.97,1.11-1.18.3-.21.53-.27.8-.25.12,0,.25,0,.35.03.32.1.14.75-.41,1.65-.39.68-.82,1.34-1.17,2.05-.4.68-.74,1.39-1.09,2.11-.66,1.44-1.22,2.95-1.61,4.5-.55,2.31-.81,4.71-.57,7.09h-.05Z"/><path class="cls-3" d="M282.11,259.05s34.29.42,35.11,2.64-7.51,4.66-8.82,10.8c-1.31,6.14-2.6,14.18-.15,16.74,2.45,2.56.68,3.63.68,3.63l-15.97-2.3-22.17-4.77s-3.82-8.91-2.38-12.6c1.43-3.7,8.42-11.63,8.42-11.63l5.28-2.51Z"/><path class="cls-4" d="M290.87,264.5c-.57.79-1.06,1.69-1.46,2.64-.16.34-.21.72-.35,1.08-.49,1.25-.88,2.57-1.18,3.92-.16.6-.2,1.21-.27,1.82-.03.39-.04.78-.07,1.18-.02.2-.1.39-.16.58-.06.19-.14.39-.28.58-.17.24-.22.21-.46-.01-.28-.22-.73-.63-.9-1.1-.09-.83-.08-1.67-.03-2.5.05-.84.19-1.67.48-2.48.32-.97.43-2.03.73-3.03.33-1.1.79-2.18,1.33-3.21l.53-.94c.19-.3.42-.59.62-.89.29-.46.71-.85,1.05-1.27.39-.39.79-.77,1.18-1.15.33-.27.63-.57.94-.88.33-.27.67-.55,1.02-.82.15-.13.3-.24.48-.32.65-.32.94-.21,1.29.39.08.14.17.27.24.41.22.48.13,1-.18,1.32-.96.88-1.9,1.57-2.74,2.49-.33.31-.6.7-.92,1.04-.26.4-.57.76-.81,1.19l-.06-.03Z"/><path class="cls-4" d="M191.49,463.86c-.49.14-.97.25-1.44.36-.17.04-.32.13-.49.16-.61.1-1.22.15-1.81.19-.26.01-.52.05-.77.09-.32.06-.64.12-.99.02-.11-.03-.12-.25-.07-.49.05-.24.15-.55.3-.64.56-.3,1.05-.64,1.67-.63.37-.02.67-.27,1-.42.36-.17.73-.33,1.08-.52.22-.12.44-.23.66-.35.33-.19.67-.37.93-.64.21-.21.26-.56.42-.8.04-.05.06-.11.1-.16.16-.16.36-.08.83.27l.31.23c.33.25.56.6.56.89.07.89-.48,1.33-.99,1.75-.4.3-.83.55-1.29.74l-.03-.05Z"/><path class="cls-4" d="M342.98,460.51c-.32.09-.62.21-.94.28-.12.03-.21.1-.32.13-.41.11-.82.22-1.21.37-.17.07-.32.16-.48.25-.19.12-.38.24-.62.3-.07.02-.12-.07-.14-.2-.02-.13-.01-.31.07-.42.3-.38.61-.74,1.02-.96.25-.13.43-.38.64-.57.24-.21.5-.38.77-.53.17-.1.33-.2.5-.3.24-.16.51-.29.72-.5.17-.15.23-.44.38-.63.03-.04.05-.1.08-.13.14-.12.27-.04.62.4l.24.3c.26.34.41.68.38.87-.06.61-.43.82-.8,1.01-.28.14-.59.25-.89.37l-.03-.04Z"/><path class="cls-4" d="M351.52,463.33c-1.53-.03-3.05-.05-4.58-.12-.56-.03-1.11.03-1.66,0-1.96-.13-3.9-.29-5.85-.36-.43-.02-.86-.02-1.29,0-.43-.02-.86-.03-1.29-.05-1.1-.03-2.2-.05-3.31-.26-.35-.06-.31-.15-.03-.34.28-.17.79-.6,1.42-.78,1.11-.29,2.22-.66,3.34-.79,1.12-.06,2.25-.07,3.38,0,1.36.09,2.75-.14,4.13-.2,1.51-.09,3.03-.08,4.54-.11.93-.02,1.86-.03,2.79-.09l2.11-.12c.71-.02,1.4-.08,2.09-.16,1.07-.14,2.1-.46,3.13-.72.23-.06.45-.12.68-.16.85-.15,1.16-.01,1.48.6.07.14.16.27.22.41.19.47-.08.96-.7,1.29-1.83.99-3.91,1.43-5.97,1.77-1.53.24-3.1.19-4.63.25v-.08Z"/><path class="cls-4" d="M195.29,466.15c-1.58-.02-3.17-.1-4.75-.14-.58-.01-1.15.06-1.73.03-2.03-.06-4.07-.26-6.1-.35-.9-.04-1.8-.02-2.7.02-.57.01-1.15.09-1.72.04-.29-.02-.58-.04-.86-.08-.29-.02-.58-.18-.87-.26-.36-.14-.32-.28-.02-.6.21-.22.42-.45.61-.64.25-.22.55-.37.88-.45.58-.15,1.16-.21,1.74-.25.58-.05,1.16-.09,1.75-.12,1.17-.06,2.34-.07,3.51,0,1.41.08,2.87-.11,4.3-.16l4.75-.1c.97-.01,1.95-.02,2.92-.05,1.47-.05,2.96-.06,4.41-.22,1.13-.12,2.23-.44,3.33-.68.24-.05.48-.14.73-.17.92-.15,1.23.12,1.5.93.06.19.14.37.18.56.14.63-.19,1.22-.85,1.51-1.97.74-4.09.97-6.23,1.1-1.59.1-3.19.11-4.78.16v-.08Z"/><path class="cls-4" d="M273.04,264.55c.35-.3.77-.6,1.16-.86.38-.23.74-.47,1.12-.69.76-.45,1.52-.88,2.29-1.29.56-.3,1.1-.65,1.68-.92,2.06-.92,4.22-1.6,6.39-2.15.97-.22,1.93-.49,2.91-.66,1.25-.26,2.57-.19,3.82.1.39.09.32.23-.01.44-.34.2-.91.55-1.57.77-.59.14-1.14.47-1.72.54-.58.11-1.16.27-1.74.41-1.16.32-2.31.67-3.49,1.02-1.42.43-2.73,1.25-4.08,1.93-1.48.76-2.94,1.6-4.31,2.53-.78.53-1.52,1.22-2.19,1.97-1.01,1.15-1.94,2.41-2.64,3.77-.54,1.06-.84,2.2-1.07,3.29-.05.24-.07.48-.13.71-.17.87-.32,1.1-.94,1.3-.14.04-.28.11-.42.13-.45.11-.87-.34-.93-1.2-.04-.63,0-1.26.09-1.87.11-.61.27-1.21.47-1.8.4-1.17.96-2.28,1.64-3.31,1-1.54,2.17-2.96,3.61-4.23l.04.04Z"/><path class="cls-4" d="M344.08,269.97l.87.95.45.47c.27.26.41.53.55.79.18.38.31.72.38,1.07.21,1.22.17,2.34.17,3.45,0,.49.02.98.06,1.46.03.3.07.6.12.89.08.27-.02.6.07.77.04.08.13.17-.11.21-.25.04-.77-.26-.95-.64-.41-1.37-.56-2.6-.54-3.86,0-.75-.21-1.5-.43-2.13-.12-.35-.27-.63-.44-.77-.35-.29-.67-.59-.99-.88-.39-.36-.78-.71-1.18-1.05-.61-.51-1.19-1.05-1.85-1.44-.51-.31-1.09-.48-1.63-.62-.12-.02-.24-.05-.36-.08-.4-.17-.45-.45-.46-.88,0-.1,0-.2,0-.3.02-.3.29-.55.79-.67,1.36,0,2.49.72,3.49,1.42.75.53,1.39,1.18,2.01,1.8l-.03.04Z"/><path class="cls-4" d="M352.37,339.37c-1.28.28-2.56.52-3.86.7-.47.08-.93.19-1.41.24-1.67.18-3.35.2-5.02.11-.74-.03-1.48-.02-2.2-.09-.47-.05-.93-.1-1.4-.16-.46-.09-.92-.2-1.37-.33-.28-.08-.22-.2.04-.35.26-.14.73-.35,1.25-.39,1.87-.26,3.65-.33,5.5-.37,1.11,0,2.24-.26,3.35-.47,1.23-.22,2.45-.47,3.66-.79.75-.19,1.49-.4,2.23-.64,1.11-.36,2.24-.74,3.29-1.23.82-.39,1.56-.92,2.31-1.42.17-.11.32-.24.49-.34.63-.38.93-.3,1.38.24.1.12.22.24.31.37.3.44.23.97-.2,1.37-1.29,1.12-2.9,1.86-4.56,2.46-1.23.45-2.51.81-3.79,1.14l-.02-.05Z"/><path class="cls-4" d="M338.51,334.03c-.71.14-12.81,5.08-10.06,7.06,2.75,1.98,11.25.42,11.25.42l-1.18-7.48Z"/><path class="cls-4" d="M360.11,330.93s6.51-.06,6.06.82-6.58,3.39-6.73,2.28.67-3.1.67-3.1Z"/><path class="cls-4" d="M371.52,454.26c-1.7,1.88-3.81,3.37-6.03,4.45-.8.4-1.59.8-2.43,1.11-2.95,1.06-6.09,1.6-9.19,1.49-1.37-.03-2.75-.12-4.09-.31-.86-.11-1.73-.24-2.56-.48-.41-.15-.82-.3-1.22-.46-.4-.17-.77-.44-1.15-.65-.46-.3-.38-.3.11-.38.25-.04.6-.11,1.02-.22.41-.06.88-.14,1.36-.12.86-.01,1.65.23,2.47.27.82.09,1.64.14,2.45.17,1.64.05,3.27-.03,4.93-.14,1.99-.16,3.97-.88,5.84-1.7,2.07-.89,3.98-2.04,5.6-3.57.98-.95,1.85-2.02,2.62-3.18,1.15-1.77,2.11-3.72,2.86-5.72.57-1.57,1-3.16,1.49-4.74.11-.35.19-.7.33-1.04.24-.64.43-1.05.65-1.32.23-.26.45-.38.72-.45.12-.03.25-.08.35-.09.18-.01.29.14.36.42.07.29.12.72.04,1.22-.18,1.51-.52,3.03-.9,4.56-.38,1.54-1.01,3.03-1.64,4.54-.99,2.22-2.26,4.43-3.94,6.37l-.05-.04Z"/><path class="cls-4" d="M277.35,421.52l.68-3.52c.08-.43.11-.87.19-1.3.3-1.52.6-3.04.86-4.57.12-.68.18-1.37.28-2.04.16-.86.17-1.75.61-2.58.17-.25.22-.21.41.05.24.27.51.73.5,1.23.09,1.8-.17,3.55-.51,5.32-.22,1.06-.23,2.19-.35,3.28-.13,1.21-.32,2.41-.54,3.62l-.4,2.22c-.24,1.11-.48,2.23-.72,3.34-.17.86-.24,1.73-.41,2.58-.04.19-.07.37-.12.56-.19.69-.36.88-.78.93-.1.01-.19.03-.28.03-.3-.01-.48-.36-.48-.88,0-1.57.2-3.15.42-4.74l.25-1.77c.12-.58.22-1.18.33-1.76h.05Z"/><path class="cls-4" d="M173.09,445.94c0,.76,3.69,4.42,4.75,8.59.64,2.53-2.54,4.71-2.54,4.71l10.9-1.54-13.11-11.76Z"/><path class="cls-4" d="M214.3,461.46c-1.4.57-2.87,1-4.36,1.31-1.5.28-3.04.4-4.53.38l-1.64-.04c-.54-.04-1.08-.09-1.62-.15-3.78-.59-7.37-1.84-10.7-3.5-1.48-.73-2.96-1.47-4.38-2.27-.92-.5-1.83-1.02-2.72-1.58-.44-.29-.83-.65-1.23-.99-.4-.34-.79-.71-1.13-1.13-.42-.53-.37-.44.21-.33.61.08,1.72.21,2.85.61,3.64,2.03,7.33,3.83,11.16,5.4,2.3.95,4.86,1.37,7.34,1.58,2.75.23,5.48-.01,8.09-.91,1.61-.53,3.17-1.25,4.66-2.11,2.25-1.31,4.35-2.93,6.27-4.7,1.52-1.36,2.8-2.9,4.15-4.39.29-.34.56-.67.87-1,1.11-1.24,1.53-1.58,2.05-1.64.12-.01.25-.05.34-.04.31.04.08.72-.55,1.81-1.91,3.17-4.21,6.49-7.36,9.02-2.33,1.87-4.92,3.5-7.73,4.7l-.03-.05Z"/><path class="cls-4" d="M196.83,393.02c-.58.97-1.19,1.92-1.82,2.85-.24.34-.4.71-.66,1.04-.85,1.18-1.83,2.26-2.85,3.28-.46.45-.88.94-1.37,1.36-.29.28-.64.52-.97.76l-.25.18-.3.12c-.19.07-.38.14-.59.22-.25.08-.24.01-.14-.22.11-.22.24-.7.49-1.07.94-1.25,1.92-2.38,2.96-3.59.3-.37.6-.75.86-1.16l.75-1.26c.56-.92,1.11-1.84,1.61-2.8.32-.59.62-1.18.91-1.78.44-.91.86-1.83,1.17-2.79.22-.75.3-1.52.44-2.26.03-.16.04-.33.08-.49.13-.6.32-.76.88-.78.13,0,.26-.02.39-.01.43.02.71.35.75.86.05.76,0,1.53-.15,2.28-.16.75-.41,1.47-.68,2.2-.42,1.06-.89,2.1-1.44,3.1l-.05-.02Z"/><path class="cls-4" d="M241.69,342.55c-1.34-.38-2.66-.79-3.95-1.28-.48-.16-.97-.28-1.43-.48-1.63-.71-3.23-1.51-4.69-2.54l-.99-.63c-.33-.21-.67-.4-.98-.63-.4-.3-.82-.57-1.19-.9-.35-.37-.67-.77-.98-1.17-.19-.26-.09-.31.24-.32.32,0,.94-.05,1.5.09,1.9.62,3.51,1.49,5.17,2.49.96.66,2.14.97,3.25,1.39,1.22.45,2.47.87,3.74,1.21.78.22,1.57.41,2.37.57,1.21.24,2.43.47,3.65.55.95.05,1.89-.08,2.83-.14.21,0,.41-.02.62-.02.77.02,1.01.28,1.18.85.04.13.09.26.11.39.08.43-.25.81-.84,1.04-.44.14-.88.27-1.34.36-.45.05-.91.1-1.37.11-.92.02-1.85-.03-2.79-.12-1.39-.13-2.76-.42-4.12-.74v-.07Z"/><path class="cls-4" d="M252.6,331.72l2.24-8.68,16.99,4.34s5.77,4.13,6.22,6.54c.45,2.4-2.95,5.47-5.62,5.3-2.68-.17-19.83-7.5-19.83-7.5Z"/><path class="cls-3" d="M325.43,269.28l3.02-3.04s7.58-1.65,5.65,1.87c-1.94,3.52-4.43,10.86-5.43,14.25-1,3.39.71,11.76.71,11.76,0,0-6.68-.59-7.21-2.32-.53-1.73,1.16-7.89,1.16-7.89l1.3-9.65.8-4.98Z"/><path class="cls-4" d="M303.55,290.85c-.81-.56-1.53-1.25-2.21-1.94-.23-.27-.49-.51-.72-.79-.74-1.02-1.28-2.16-1.67-3.33-.12-.53-.34-1.04-.41-1.57-.13-.67-.23-1.37-.02-2.05.08-.21.12-.18.29,0,.2.17.46.47.54.82.05.32.21.61.29.91.06.31.16.6.28.89.18.59.45,1.15.7,1.73.32.69.88,1.27,1.41,1.82.57.64,1.25,1.18,1.94,1.69.45.29.89.6,1.38.82.72.39,1.48.71,2.27.9.61.15,1.25.11,1.86.13.13,0,.27.01.4.02.49.14.64.31.74.72.02.09.06.17.07.25.05.24-.18.54-.61.72-.32.17-.65.21-.98.24-.33.04-.66,0-.99-.05-.66-.08-1.3-.28-1.94-.5-.93-.36-1.83-.82-2.64-1.39l.02-.04Z"/><path class="cls-4" d="M296.86,283.91s1.2,2.71.94,4.66c-.28,2.13-3.74,2.19-4.84,2-2.43-.44,9.99,1.51,9.99,1.51l-6.09-8.17Z"/><path class="cls-4" d="M322.16,287.54c.27-.23.58,2.27,2.46,3.67,1.98,1.47,3.31,1.26,4.17.59,2.69-2.07,1.38,4.3,1.38,4.3l-8.01-2.65s-1.22-4.89,0-5.92Z"/><path class="cls-4" d="M300.51,266.24c.14-.35,2.44-5.41,4.54-6.61,1.16-.66,3.88.58,3.88.58l-8.42,6.03Z"/><path class="cls-4" d="M310.75,259.4c4.05-1.41,14.52-13.95,10.51-28.47,0,0-3.05-8.65-4.81-11.16-5.71-8.17-21.45-9.71-26.37-8.17-4.92,1.54-10.04,4.88-10.04,4.88,0,0-17.22-14.94-23.23-15.25-6.01-.31-23.82,4.07-26.53,6.11-2.7,2.05-16.14,16.83-18.4,20.04-2.26,3.21-14.34,21.08-17.56,24.2-3.22,3.12-13.63,12.88-23.39,15.7-9.76,2.82-30.18,12.09-33.66,15.34-3.49,3.26-15.05,19.19-16.59,24.09-1.54,4.9-4.99,21.98-3.39,27.87,1.6,5.88,5.56,19.45,7.74,23.68,4.3,8.35,23.01,28.55,28.98,27.16,0,0,16.49-26.45,20.37-28.34s23.15-21.78,25.67-23.41,19.17-10.43,24.53-10.4,8.12-.43,8.12-.43c0,0,4.74-18.02,4.9-21.3.16-3.28-1.97-24.09-1.53-26.22.44-2.13,7.51-12.66,8.14-15.12.63-2.46,17.88-11.39,17.88-11.39l10.33-5.47,8.61-9.33s8.2,1.5,10.22,4.28,10.56,12.02,10.56,12.02l2.76,8.63,6.16.44Z"/><path class="cls-4" d="M140.04,461.36l-19.18-.03c-2.33,0-4.67.09-7,.07-8.23-.07-16.45-.25-24.68-.41-3.65-.07-7.32-.08-10.94-.11-2.33-.03-4.66.04-6.99-.05-2.33-.12-4.66-.24-6.98-.53-1.44-.36-1.24-.55,0-1.13,1.24-.56,3.5-1.23,6.18-1.4,4.74-.19,9.48-.1,14.23-.11,4.75.1,9.5.23,14.28.43,5.72.23,11.67.03,17.52,0,6.43-.03,12.87-.07,19.31-.1,3.96-.03,7.93-.06,11.89-.09,6-.07,12.03-.07,17.99-.2,4.63-.11,9.17-.43,13.75-.68,1.01-.05,1.99-.14,3.01-.17,3.77-.11,4.97.14,5.78,1.26.18.25.43.5.53.74.36.82-1.17,1.58-3.93,1.79-8.17.66-16.79.67-25.44.75-6.43.02-12.89.04-19.33.06v-.09Z"/><path class="cls-4" d="M401.11,455.2c4.62.03,9.25.05,13.88.02,1.69,0,3.38-.13,5.06-.13l8.94.04,8.94.15c2.64.04,5.3-.01,7.93-.05,1.69-.04,3.37-.09,5.06-.02,1.69.04,3.38.12,5.06.41,1.05.23.91.42.02.88-.44.24-1.07.51-1.83.8-.76.26-1.65.46-2.62.54-3.43.37-6.86.35-10.29.47-3.44.07-6.88.1-10.34.03-4.14-.08-8.45.17-12.69.27-4.66.09-9.33.14-14,.18-2.87.01-5.75.03-8.62.04-4.35,0-8.73,0-13.05-.01-3.36.04-6.65.26-9.98.38-.73.03-1.45.08-2.19.08-2.74.02-3.6-.3-4.16-1.3-.13-.23-.3-.45-.37-.67-.24-.72.89-1.39,2.89-1.58,5.92-.52,12.14-.57,18.39-.61,4.64,0,9.31,0,13.97,0v.09Z"/><path class="cls-4" d="M267.73,336.55c2.12.55,4.33.92,6.34.78.73-.06,1.38-.29,1.89-.5.23-.09.4-.2.54-.29l.19-.14c.05-.07.14-.14.17-.21.19-.26.27-.59.17-1.11-.23-1.06-1.15-2.26-2.04-3.38-.83-1-1.81-1.92-2.78-2.83-.62-.59-1.28-1.15-1.86-1.82-.57-.68-1.09-1.41-1.51-2.21-.24-.52-.02-.55.49-.37.5.19,1.37.45,2.2.95,1.4.96,2.77,2.02,4.17,3.15.69.58,1.38,1.19,2.03,1.89.62.73,1.21,1.54,1.68,2.52.27.59.53,1.26.65,2.04.12.77.04,1.68-.3,2.45-.31.74-.87,1.45-1.5,1.91-.63.45-1.28.72-1.92.91-1.39.39-2.71.43-3.99.39-1.28-.05-2.52-.22-3.73-.45-1.5-.29-2.96-.69-4.39-1.15-2.17-.7-4.25-1.64-6.28-2.61-1.58-.76-3.18-1.46-4.69-2.41-.34-.2-.67-.4-.99-.64-.58-.46-.91-.83-1.05-1.19-.11-.38-.06-.71.12-1.1.08-.18.15-.37.25-.52.33-.49,1.14-.52,1.99-.08,2.49,1.36,5.06,2.75,7.84,3.88,2.05.84,4.18,1.57,6.33,2.07v.08Z"/><path class="cls-4" d="M292.24,341.36c2.66,3.25,4.97,6.74,7.08,10.31.77,1.3,1.58,2.58,2.3,3.9,2.47,4.7,4.62,9.52,6.83,14.25.99,2.09,2.09,4.14,3.29,6.05,1.59,2.45,3.32,4.68,5.3,6.67.62.63.41.85-.51.79-.23-.01-.51-.04-.84-.09-.31-.06-.65-.16-1.03-.28-.75-.25-1.44-.78-2.12-1.42-2.3-2.34-3.87-5.1-5.35-7.8-1.45-2.73-2.75-5.48-3.94-8.29-1.43-3.36-3.31-6.63-5.13-9.83-2-3.53-4.17-6.95-6.64-10.15-1.51-1.97-3.13-3.86-4.87-5.64-2.64-2.68-5.52-5.16-8.65-7.2-1.19-.83-2.5-1.45-3.75-2.13-1.32-.57-2.58-1.23-3.92-1.72-.59-.23-1.17-.43-1.75-.68-2.18-.86-2.8-1.34-3-2.28-.05-.21-.13-.44-.13-.64-.01-.66,1.08-.8,2.85-.37,5.22,1.37,10.35,4.12,14.9,7.6,3.39,2.6,6.41,5.66,9.14,8.9l-.06.06Z"/><path class="cls-4" d="M180.08,353.91c-5.56,5.89-10.65,12.29-15.46,18.9-1.75,2.42-3.41,4.91-5.1,7.37-6,8.65-11.66,17.57-17.07,26.64-2.4,4.03-4.76,8.11-7.03,12.17-1.48,2.6-2.88,5.25-4.42,7.83-1.52,2.59-3.05,5.16-4.81,7.61-1.18,1.47-1.14,1.21-.78-.4.17-.81.49-1.92.88-3.25.43-1.31,1.04-2.79,1.81-4.34,5.57-10.88,11.56-21.56,18.33-31.92,4.03-6.19,8.01-12.79,12.32-19.01,4.73-6.84,9.71-13.55,15.17-19.87,3.38-3.88,6.92-7.63,10.71-11.12,5.74-5.29,12-10.03,18.59-14.13,2.57-1.59,5.18-3.05,7.87-4.39,2.72-1.28,5.49-2.47,8.44-3.3.63-.22,1.3-.33,1.95-.51.66-.14,1.3-.35,1.98-.42,1.27-.14,2.31-.34,3.2-.31.89,0,1.61.04,2.2.12,1.18.23,1.83.66,2.31,1.17.22.23.51.47.61.67.18.36-.24.63-1.11.88-.44.14-.98.22-1.62.28-.64.12-1.39.22-2.22.3-2.46.33-4.93.85-7.37,1.69-2.45.76-4.85,1.81-7.23,2.94-4.74,2.33-9.39,5.15-13.8,8.35-6.59,4.74-12.76,10.1-18.29,16.11l-.07-.05Z"/><path class="cls-4" d="M277.73,240.77c-1,.98-2.05,1.89-3.13,2.73-.38.32-.74.67-1.15.96-1.45,1.01-3,1.83-4.54,2.58-.69.33-1.34.72-2,1.07-.82.5-1.72.88-2.69,1.04-.36-.06-.37-.19-.31-.64.06-.44.27-1.04.68-1.4.71-.68,1.54-1.1,2.31-1.62.79-.49,1.58-.97,2.41-1.42,1-.52,1.83-1.36,2.68-2.1.48-.4.92-.84,1.39-1.25.43-.45.9-.87,1.31-1.34.52-.57,1.04-1.15,1.5-1.77.72-.93,1.43-1.88,1.94-2.94.42-.81.55-1.75.79-2.61.04-.2.05-.4.11-.59.22-.7.53-.82,1.5-.61.22.05.44.08.66.15.73.21,1.18.73,1.14,1.35-.07,1.86-.93,3.56-1.91,5.17-.77,1.18-1.65,2.29-2.62,3.31l-.06-.05Z"/><path class="cls-4" d="M319.54,262.4c.35-1.19,1.04-2,1.7-2.58.67-.58,1.36-1.04,2.04-1.42.5-.29.96-.62,1.47-.84.89-.39,1.8-.72,2.69-1.01.45-.15.88-.28,1.35-.4.51-.15,1.06-.26,1.62-.29.99-.07,1.99.06,2.82.37,1.08.36,2.05.76,2.76,1.73.23.29.17.32-.19.46-.18.08-.44.2-.77.36-.31.13-.63.2-.94.2-.28.01-.54-.03-.77-.07-.25-.04-.48-.07-.7-.1-.45-.05-.84-.04-1.17-.09-.33-.03-.64-.02-1,.03-.18.03-.37.07-.57.11-.24.06-.51.14-.76.19-1.25.24-2.37.88-3.45,1.41-1.18.58-2.35,1.28-2.98,2.1-.39.51-.45.95-.27,1.38.16.33.48.47.92.52.54.06,1.16.01,1.77-.13.95-.21,1.84-.67,2.74-1.09.2-.09.39-.21.59-.29.38-.15.66-.22.89-.13.25.12.44.32.63.62.09.14.18.26.25.4.11.22.12.46.05.72-.07.26-.2.59-.47.74-1.6,1.06-3.43,1.83-5.85,2.02-.22.02-.46.02-.73,0-.22,0-.59-.03-.94-.13-.35-.07-.68-.19-.99-.37-.32-.14-.59-.37-.84-.61-.98-.98-1.21-2.6-.95-3.84h.07Z"/><path class="cls-4" d="M292.79,238.2c.8.58,1.53,1.29,2.29,1.92.73.69,1.47,1.36,2.16,2.08.5.54,1.06,1,1.54,1.55,1.64,2,3.03,4.2,4.09,6.52.39,1.07.96,2.05,1.29,3.12.49,1.34.88,2.75.74,4.22-.02.45-.2.42-.58.12-.19-.15-.45-.36-.73-.6-.14-.13-.3-.25-.42-.4-.11-.15-.21-.31-.28-.49-.23-.64-.63-1.21-.9-1.81l-.38-.92-.46-.88c-.56-1.2-1.25-2.32-1.84-3.54-.79-1.42-2-2.63-3.19-3.79-.65-.65-1.3-1.29-2.02-1.88-.68-.62-1.43-1.19-2.16-1.76-.92-.69-1.85-1.38-2.83-2-1.48-.95-2.98-1.9-4.57-2.66-1.23-.61-2.56-.96-3.83-1.48-.28-.12-.57-.2-.84-.33-1.02-.51-1.23-.89-1.02-1.79.05-.2.08-.41.14-.61.23-.65.9-.94,1.73-.77,2.49.43,4.8,1.6,7.12,2.87,1.71.97,3.38,2.06,5.01,3.24l-.04.07Z"/><path class="cls-4" d="M311.02,212.92c.53.29,1.04.64,1.56.95.52.32,1.03.65,1.5,1.03l1.45,1.1c.47.42.95.83,1.38,1.28,1.76,1.75,3.16,3.7,4.4,5.73.89,1.48,1.77,2.97,2.45,4.56,2.36,5.58,3.43,11.73,2.7,17.74-.33,2.66-.96,5.31-2.04,7.75-1.37,3.12-3.35,6.12-6.28,7.92-.93.53-.87.36-.55-.55.15-.46.42-1.05.62-1.82.12-.38.3-.72.49-1.09.18-.38.37-.77.6-1.14.76-1.37,1.52-2.7,2.1-4.13.59-1.41,1.03-2.88,1.38-4.37.73-2.98.89-6.13.66-9.32-.29-3.83-1.75-7.68-3.56-11.16-2.02-3.84-4.59-7.4-8.16-9.76-2.18-1.51-4.59-2.71-7.14-3.52-1.92-.66-3.94-.99-5.96-1.25-1.02-.05-2.04-.18-3.06-.13l-1.53.03-1.52.14c-3.15.34-6.14,1.3-9.01,2.47-.63.26-1.25.52-1.88.81-1.18.49-1.97.77-2.58.88-.61.09-1.06-.04-1.53-.35-.22-.14-.47-.26-.64-.43-.57-.55.12-1.59,1.85-2.68,5.17-3.11,11.67-4.74,18.22-4.55,2.44.06,4.88.47,7.26,1.05,2.37.66,4.69,1.56,6.86,2.72l-.04.08Z"/><path class="cls-4" d="M297.13,293.05c-2.13-.46-4.25-.95-6.36-1.46-.77-.18-1.56-.29-2.32-.49-2.7-.69-5.38-1.47-8.04-2.3-1.18-.36-2.38-.66-3.57-.96-.76-.19-1.53-.37-2.29-.59-.75-.23-1.48-.55-2.21-.89-.45-.22-.3-.49.2-.72.49-.22,1.35-.48,2.25-.39,3.12.62,6.23,1.26,9.31,2.18,1.83.6,3.82.88,5.73,1.3,2.11.45,4.22.91,6.34,1.31,1.3.25,2.61.5,3.92.7,1.98.31,3.98.63,5.96.78,1.54.1,3.07.02,4.57-.08.33-.02.66-.06.99-.07,1.23-.04,1.62.16,1.92.88.07.16.16.33.2.49.15.55-.35,1.03-1.31,1.26-2.85.61-5.85.45-8.81.17-2.19-.24-4.37-.65-6.53-1.05v-.07Z"/><path class="cls-4" d="M296.38,256.79l4.64.4c.57.06,1.13.03,1.7.1,1.99.27,4,.54,5.99.93.88.17,1.77.28,2.66.42.57.06,1.14.19,1.7.33l.42.11c.13.1.25.2.39.27.26.14.52.3.77.48.3.24.24.25-.1.41-.36.17-.98.52-1.65.76-1.11.02-2.21-.02-3.33-.07-1.12-.04-2.23-.12-3.36-.38-1.35-.27-2.78-.16-4.19-.21-1.54-.05-3.09-.2-4.65-.29l-2.87-.17c-1.45-.07-2.91-.19-4.36-.19-1.13.01-2.25.19-3.39.17-.25,0-.5.03-.75.02-.94-.13-1.21-.48-1.31-1.19-.02-.17-.06-.33-.06-.49-.01-.53.42-.95,1.08-1.19.98-.28,1.96-.39,2.98-.52,1-.04,2.03-.03,3.06,0,1.54.04,3.09.14,4.64.21v.08Z"/><path class="cls-4" d="M276.42,321.9c.69-.17,1.37-.4,2.06-.6.68-.22,1.39-.37,2.05-.67,1.32-.56,2.69-1.05,3.93-1.79.93-.51,1.83-1.06,2.68-1.68.76-.53,1.59-.99,2.31-1.58l2.19-1.77c1.35-1.29,2.73-2.6,3.88-4.1,1.15-1.24,1.91-2.76,2.79-4.18l.66-1.46c.24-.48.52-.94.79-1.41.27-.47.44-.98.73-1.45.28-.47.55-.96.86-1.43.5-.56.37-.51.48.13.06.32.11.77.19,1.34.03.28.08.59.09.91,0,.32-.03.65-.08.98-.11.58-.29,1.15-.44,1.73-.16.58-.44,1.1-.66,1.65-.5,1.07-1.14,2.07-1.73,3.1-.28.52-.66.98-1.02,1.46-.36.47-.71.95-1.1,1.4-.19.23-.38.46-.58.68l-.64.62-1.3,1.22-.77.73-.83.69c-.54.47-1.08.95-1.63,1.42-1.1.93-2.3,1.77-3.47,2.6-2.73,1.61-5.55,3.08-8.59,3.97-1.82.68-3.76.97-5.64,1.39l-2.19.25c-.73.06-1.45.2-2.19.17l-2.19.02-1.09.02-1.09-.08c-1.12-.1-2.25-.06-3.37-.18l-3.35-.42c-.5-.05-.96-.22-1.44-.35-.88-.3-1.45-.54-1.79-.85-.33-.35-.46-.69-.51-1.1-.02-.19-.07-.38-.07-.54.01-.27.23-.45.63-.6.39-.14.97-.3,1.59-.2,1.87.26,3.75.41,5.62.7.94.1,1.9.1,2.85.19.95.12,1.91.05,2.86.04,2.85.04,5.69-.43,8.5-1.06l.03.08Z"/><path class="cls-4" d="M262.21,251.91c-1.73.8-3.4,1.88-4.99,3.12-.57.48-1.07,1.02-1.63,1.51-1.97,1.75-3.83,3.72-5.6,5.79-.78.92-1.48,1.92-2.16,2.91-.44.64-.89,1.27-1.37,1.89-.24.31-.49.61-.75.91-.25.3-.62.52-.94.77-.45.27-.49.15-.54-.39-.03-.27-.05-.64-.07-1.08.01-.41.13-.83.32-1.23.37-.7.72-1.42,1.11-2.11.42-.68.85-1.35,1.3-2.01.9-1.33,1.88-2.62,3.01-3.81,1.36-1.41,2.58-3.06,4.03-4.48,1.59-1.56,3.36-2.99,5.36-4.1,1.21-.7,2.51-1.27,3.84-1.74,1.96-.66,3.94-1.15,6.01-1.53,1.59-.29,3.25-.62,5.09-.33.4.09.81.13,1.21.3,1.45.73,1.62,1.43,1.25,2.21-.08.18-.16.37-.27.53-.19.26-.47.4-.78.46-.31.06-.64.05-1,0-1.02-.11-1.98-.18-3.14-.07-1.15.12-2.4.35-3.69.67-.95.24-1.93.52-2.92.82-.94.33-1.78.59-2.64,1.06l-.04-.07Z"/><path class="cls-4" d="M235.65,300.21c.44-4.65-.46-9.65-.94-14.71-.19-1.85-.44-3.72-.47-5.63-.02-1.69.04-3.41.37-5.17.35-1.74.89-3.34,1.51-4.9,1.25-3.12,2.83-6.07,4.74-8.81,1.72-2.41,3.64-4.73,5.94-6.66,1.48-1.22,3.11-2.35,4.96-3.06.92-.35,1.9-.57,2.87-.72.98-.11,1.97-.1,2.93.08,1.19.39.97.46.02.99-.97.53-2.48,1.48-4.13,2.27-2.98,1.35-5.68,3.51-7.91,6.22-2.23,2.7-4.19,5.74-5.81,8.98-.95,1.93-1.74,4.06-2.1,6.14-.34,2.06-.22,4.33-.09,6.56.32,4.96,1.23,9.97,1.43,15.2.04,3.27-.38,6.44-.94,9.56-.87,4.72-2.15,9.34-3.5,13.87-1.06,3.52-2.01,7.01-3.3,10.45-.29.76-.53,1.51-.86,2.26-1.22,2.78-2.01,3.53-3.05,3.66-.24.03-.5.1-.71.07-.35-.05-.49-.4-.45-.98.02-.29.08-.63.19-1.02.1-.41.23-.86.41-1.36,1.08-2.95,2.08-6.05,3.1-9.19,1.01-3.14,1.99-6.35,2.87-9.58,1.29-4.8,2.42-9.7,2.82-14.52h.08Z"/><path class="cls-4" d="M274.44,251.14c-1.1.18-2.14.46-3.15.94-.52.23-1.03.47-1.54.77-.52.26-1.02.58-1.52.91-.74.45-1.38,1.08-2.09,1.59-1.23.96-2.46,1.96-3.62,3.05-1.19,1.05-2.35,2.16-3.46,3.33-.98,1.03-1.89,2.15-2.74,3.27-1.1,1.45-2.09,2.97-3.51,4.21-.54.32-.52.25-.58-.37-.1-.65-.04-1.7.46-2.66.43-.86.96-1.66,1.51-2.44.54-.78,1.11-1.55,1.7-2.3,1.19-1.5,2.45-2.94,3.87-4.26,1.71-1.56,3.34-3.33,5.23-4.83,2.07-1.61,4.37-3.1,7.05-3.89,1.63-.47,3.3-.67,4.95-.68,1.26,0,2.52.13,3.76.41.31.07.62.16.93.25l.46.15.59.23c.77.33,1.46.78,1.98,1.34.39.43.7.94.8,1.52.12.57.01,1.21-.34,1.63-.63.85-1.92,1.3-3.36,1.61-.45.11-.79.23-1.19.31-1.45.31-1.94.15-2.41-.62-.1-.16-.23-.3-.3-.44-.12-.24-.05-.49.16-.83.21-.36.6-.61,1.13-.8l1.17-.4.58-.19c.08-.03.24-.07.24-.08l.04-.04c.09-.11.09-.17.06-.23-.04-.06-.11-.08-.14-.08-.01,0-.03,0-.03,0h0s0,0,0,0l-.21-.06c-1.93-.57-4.32-.66-6.48-.25l-.02-.08Z"/><path class="cls-4" d="M296.3,281.5c-.04-1.93.07-3.84.47-5.67.14-.93.44-1.82.66-2.72.31-.88.56-1.77.93-2.63.5-1.26,1-2.52,1.7-3.7,1.22-2.06,2.77-4.04,4.86-5.53,2.07-1.46,4.61-2.26,7.1-2.25,2.2-.01,4.37.43,6.36,1.22,1.29.49,2.5,1.19,3.59,2.11.53.47.96,1.07,1.34,1.71.21.31.32.7.37,1.1.07.39.06.81.01,1.2-.03.25-.11.41-.18.51-.06.1-.11.13-.14.11-.09-.03-.06-.27-.26-.56-.18-.29-.64-.57-1.27-.68-.55-.16-1.09-.36-1.66-.61-1.79-1.13-3.86-2.16-6-2.56-2.15-.43-4.32-.23-6.37.64-2.47,1.08-4.25,3.69-5.61,6.38-1.54,2.95-2.52,6.26-2.82,9.58-.14,2.04,0,4.12.65,5.99.21.73.6,1.36.95,2.02.2.31.46.58.68.87.12.14.22.29.35.43l.42.38c1.12,1,2.51,1.78,3.96,2.34,2.27.87,4.7,1.16,7.04,1.11.51-.03,1.02-.07,1.51-.14.93-.12,1.53-.12,1.96-.11.46.07.75.15,1.07.34.15.08.33.15.44.23.19.15.15.38-.15.74-.29.37-.86.82-1.67,1.11-1.2.47-2.46.58-3.71.63-1.25.05-2.51-.05-3.76-.26-2.5-.41-4.99-1.25-7.29-2.72-.84-.58-1.69-1.19-2.39-2.04-.34-.42-.73-.82-1.01-1.27l-.79-1.39c-.88-1.92-1.31-3.92-1.44-5.88h.08Z"/><path class="cls-4" d="M325.51,278.19c-.05.68-.11,1.38-.19,2.09-.08.7-.22,1.55-.41,2.23-.36,1.43-.87,2.76-1.35,4.01-.35.91-.6,1.82-.82,2.61-.2.7-.26,1.3-.17,1.71,0,.12.08.2.1.31l.18.3c.24.25.44.54.72.77,1.06,1.01,2.49,1.78,4.01,2.26,1.35.43,2.79.73,4.22.73.92.03,1.83-.1,2.75-.21.45-.1.91-.16,1.37-.27l.71-.13c.23-.06.46-.13.69-.2.59-.16.55-.11.19.32-.18.2-.42.56-.77.92-.18.18-.36.4-.59.59-.23.16-.5.31-.78.44-2,.97-4.27,1.21-6.48,1.11-1.12-.05-2.21-.36-3.25-.79-1.05-.41-2.06-.96-2.98-1.67-.28-.21-.55-.42-.82-.66-.27-.23-.54-.46-.79-.74-.48-.45-1.12-1.28-1.38-2.14-.29-.89-.27-1.75-.17-2.48.09-.76.28-1.41.49-2.04.93-2.68,2.01-4.99,2.22-7.47.15-1.59.22-3.26.31-4.93.06-1.27.15-2.54.3-3.84.17-1.3.33-2.59,1-4,.27-.49.52-.93.93-1.41.41-.47,1.04-.96,1.75-1.06.78-.12,1.28-.04,1.67-.07.4-.01.75-.08,1.1-.19.12-.04.38-.12.6-.17.22-.05.45-.1.68-.13,1.73-.2,2.31.09,2.64.72.08.14.18.28.22.4.13.41-.51.85-1.51,1.2-.37.14-.74.29-1.1.46l-.53.27c-.18.08-.52.19-.79.26-.57.15-1.2.19-1.71.2h-.64c-.09.02-.07.04-.09.05-.03.05.03,0-.08.16-.11.14-.3.47-.44.76-.14.31-.32,1.1-.41,1.88-.34,2.38-.39,5.1-.52,7.83h-.08Z"/><path class="cls-4" d="M336.57,325.38c-.34-2.23-.81-4.44-1.28-6.61-.19-.79-.48-1.54-.71-2.3-.09-.35-.2-.66-.31-.98l-.15-.46c-.03-.05-.02-.09-.08-.17-.22-.35-.81-.87-1.31-1.39-1.06-1.04-2.18-2.12-3.19-3.3-.89-1.05-1.77-2.12-2.48-3.28-.89-1.5-1.69-3.12-1.77-4.89-.06-.54.11-.5.51-.17.2.17.47.41.77.69.14.14.32.29.47.45.15.16.28.34.4.54,1.83,2.69,3.92,4.84,6.44,7.08.37.34.77.67,1.2,1.02.21.18.42.36.65.58.22.19.45.43.71.73.24.29.55.8.62,1.01l.35.79c.22.53.39,1.05.57,1.58.73,2.31,1.17,4.63,1.54,6.96.23,1.43.42,2.87.61,4.3.27,2.18.43,4.37.6,6.54.12,1.69.38,3.35.36,5.08,0,.38,0,.75-.06,1.14-.19,1.43-.58,1.89-1.22,2.01-.15.03-.29.08-.42.08-.43,0-.73-.64-.77-1.54l-.11-1.05c-.04-.35-.11-.71-.13-1.07-.05-.71-.16-1.44-.23-2.17-.18-1.47-.36-2.96-.58-4.47-.33-2.23-.63-4.49-1.06-6.72l.08-.02Z"/><path class="cls-4" d="M161.01,272.65c-5.37,1.96-10.63,4.04-15.49,6.76-1.23.67-2.37,1.42-3.52,2.16-1.11.81-2.24,1.6-3.29,2.5-2.13,1.76-4.13,3.69-5.95,5.8-2.69,3.05-4.96,6.46-6.94,10.01-1.75,3.13-3.23,6.42-4.35,9.83-1.15,3.39-1.84,6.94-2.29,10.52-.85,7.16-.37,14.5,1.28,21.59,1.48,6.3,3.85,12.42,6.69,18.21l1.4,2.78,1.51,2.73c.97,1.84,2.08,3.6,3.11,5.41l3.29,5.32,1.64,2.67c.54.89,1.15,1.74,1.67,2.66,1.23,2.32,1.02,2.06-.67.55-.85-.75-2.01-1.86-3.31-3.27-.65-.71-1.37-1.47-2.09-2.33-.68-.88-1.37-1.82-2.06-2.83-1.23-1.78-2.37-3.62-3.53-5.45-1.1-1.87-2.2-3.74-3.18-5.69-2.05-3.84-3.79-7.86-5.3-11.98-1.46-4.14-2.52-8.43-3.28-12.78-.17-1.09-.28-2.19-.42-3.29l-.2-1.65-.08-1.66c-.05-1.11-.12-2.21-.14-3.32l.11-3.33c0-1.33.2-2.65.33-3.98l.2-2c.1-.66.23-1.32.35-1.99.44-2.65,1-5.33,1.84-7.92,1.64-5.19,3.97-10.2,6.95-14.72,3.25-4.99,7.26-9.51,11.93-13.25,4.7-3.77,10.06-6.47,15.46-8.72,6.67-2.79,13.49-4.94,20.04-7.61,2.48-1.02,4.93-2.09,7.27-3.32,2.34-1.24,4.6-2.64,6.73-4.21,4.27-3.13,8-6.96,11.23-11.15,5.03-6.51,8.71-13.86,13.65-20.67,1.09-1.5,2.16-2.97,3.38-4.4,2.26-2.66,4.01-4.19,5.33-5.12.68-.45,1.23-.78,1.75-.98.53-.19.99-.27,1.43-.32.4-.04.87-.15,1.14-.12.89.09-.76,2.43-4.01,5.96-2.38,2.67-4.6,5.54-6.7,8.57-2.11,3.03-4.1,6.22-6.18,9.46-2.08,3.23-4.21,6.55-6.7,9.72-2.45,3.17-5.21,6.17-8.25,8.9-4.52,4.04-9.8,7.31-15.3,9.71-5.45,2.42-11,4.32-16.41,6.34l-.05-.08Z"/><path class="cls-4" d="M206.1,360.16c-.98,3.92-1.88,7.88-2.78,11.85-.32,1.45-.56,2.92-.91,4.37-1.24,5.11-2.65,10.2-4.43,15.21-.8,2.22-1.61,4.45-2.71,6.56-.34.68-.73,1.34-1.09,2.02-.42.64-.85,1.28-1.33,1.9-.53.58-.97,1.21-1.59,1.7l-.88.77c-.32.23-.67.41-1,.61-.85.47-.84.2-.47-.57.18-.4.45-.89.72-1.51.14-.3.3-.61.49-.93.17-.33.33-.69.54-1.02.73-1.2,1.29-2.51,1.9-3.8l.81-2c.25-.68.47-1.37.76-2.04,1.05-2.72,1.96-5.55,2.88-8.42,1.1-3.44,1.7-7.17,2.51-10.79l2.65-12.01c.57-2.47,1.16-4.93,1.79-7.39.95-3.73,2.06-7.44,3.3-11.08.97-2.83,1.88-5.65,3.26-8.36.32-.59.58-1.2.95-1.77,1.38-2.12,2.24-2.52,3.19-2.38.22.04.47.05.65.12.63.27.4,1.35-.36,2.81-1.16,2.18-2.16,4.5-3.09,6.93-.94,2.42-1.82,4.93-2.6,7.51-1.17,3.82-2.19,7.75-3.11,11.72h-.08Z"/><path class="cls-4" d="M216.07,457.92c3.9-2.49,7.33-5.89,10.38-9.61,3.06-3.72,5.75-7.82,8.2-12.05,1.79-3.09,3.35-6.32,4.92-9.54,5.5-11.39,9.99-23.35,13.63-35.55,1.61-5.42,3.01-10.93,4.24-16.4,1.5-7.05,2.94-14.13,4.07-21.21.3-2.2.45-1.94.81,0,.16.97.32,2.36.41,4.04.04.84.09,1.75.07,2.72-.04.96-.11,1.97-.23,3.02-.43,3.71-.99,7.4-1.75,11.04-.73,3.65-1.55,7.29-2.45,10.9-1.9,7.21-4.13,14.34-6.75,21.37-3.13,8.4-6.4,17.17-10.58,25.39-2.3,4.51-4.82,8.93-7.7,13.14-2.88,4.2-6.09,8.23-9.91,11.72-2.35,2.13-4.91,4.1-7.78,5.59-2.86,1.49-5.99,2.58-9.25,2.87-2.46.25-4.97.08-7.35-.47-2.39-.51-4.67-1.38-6.85-2.41-4.37-2.06-8.24-4.9-11.8-7.98-5.5-4.84-10.31-10.19-14.62-15.97-.94-1.28-1.88-2.52-2.77-3.86-1.67-2.46-2.55-4.22-3.09-5.49-.54-1.28-.63-2.13-.54-2.91.04-.35.03-.77.11-1,.24-.74,1.95,1.01,4.39,4.47,3.63,5.13,7.5,10.29,11.87,15.06,4.35,4.76,9.18,9.24,14.65,12.48,2.03,1.2,4.13,2.22,6.3,2.99,2.18.76,4.41,1.25,6.6,1.36,4.42.25,8.84-1.26,12.72-3.8l.06.07Z"/><path class="cls-4" d="M326.61,369.46c.04,1.56.08,3.12.18,4.67.07,1.56.19,3.11.32,4.67.08,1.14.32,2.25.43,3.38.43,3.99,1.03,7.97,1.89,11.91.37,1.75.9,3.47,1.42,5.16.67,2.18,1.44,4.32,1.91,6.59.15.71-.07.69-.57.24-.25-.23-.59-.56-.96-.98-.19-.21-.38-.44-.58-.69-.1-.12-.18-.26-.29-.39-.08-.14-.15-.29-.23-.44-.5-1.08-.95-2.18-1.42-3.28-.46-1.1-.77-2.25-1.14-3.39-.37-1.13-.65-2.29-.93-3.45-.14-.58-.28-1.16-.4-1.75-.11-.59-.2-1.18-.29-1.77-.23-1.41-.5-2.85-.77-4.29-.3-1.44-.54-2.89-.76-4.34-.25-1.59-.38-3.19-.56-4.79-.12-1.6-.25-3.2-.33-4.8-.1-1.97-.16-3.95-.19-5.92-.07-2.98.03-5.98.01-8.94.02-2.3-.14-4.56-.15-6.85,0-.5-.05-1-.02-1.5.07-1.88.41-2.45,1.3-2.78.2-.07.41-.18.61-.21.65-.12,1.2.68,1.33,2.05.32,4.04.16,8.23.16,12.45-.02,3.13-.03,6.28.11,9.42h-.08Z"/><path class="cls-4" d="M368.83,454.26c1.58-1.71,2.8-3.82,3.77-6.07.98-2.25,1.69-4.67,2.21-7.16,1.04-4.97,1.41-10.17,1.49-15.37.04-3.8-.18-7.61-.37-11.43-.73-13.47-2.46-26.95-4-40.45-.67-6-1.47-12.02-1.95-18.01-.31-3.84-.63-7.71-.65-11.59-.03-1.94.02-3.88.12-5.82.04-.97.14-1.94.28-2.9.13-.96.24-1.93.47-2.88.36-1.18.53-1.68.58-1.64.06.04.05.63.21,1.66.18,1.03.35,2.47.64,4.2.24,1.73.42,3.74.55,5.92.26,3.87.57,7.73.95,11.61.41,3.88.82,7.76,1.23,11.64.85,7.78,1.79,15.6,2.57,23.49.93,9.43,2.26,19.23,2.67,28.99.21,5.36.21,10.76-.3,16.16-.52,5.38-1.51,10.84-3.82,15.93-.74,1.55-1.6,3.06-2.62,4.47-1.03,1.41-2.25,2.68-3.61,3.79-1.36,1.11-2.87,2.04-4.48,2.72-.39.19-.8.34-1.21.48-.42.14-.8.32-1.25.4-.87.19-1.75.44-2.61.47-5.25.52-10.31-.53-15.14-2-1.19-.42-2.41-.78-3.58-1.24l-3.49-1.45c-2.26-1.11-4.53-2.18-6.66-3.48-6.71-3.9-12.8-8.59-18.21-14.06-.59-.6-1.23-1.16-1.79-1.78-.56-.63-1.12-1.26-1.68-1.89-1.03-1.2-1.9-2.19-2.56-3.07-.63-.9-1.1-1.66-1.46-2.3-.71-1.29-.97-2.14-1.01-2.94-.02-.36-.09-.8-.03-1.06.18-.85,2.21.81,5.11,4.23,4.43,4.97,9.27,9.76,14.69,13.95,5.41,4.18,11.4,7.76,17.79,10.28,2.37.93,4.8,1.7,7.26,2.28,1.23.33,2.47.47,3.71.72l1.85.19c.62.07,1.24.13,1.84.11.6,0,1.22.03,1.82,0l1.75-.16c.55-.1,1.06-.24,1.6-.35.54-.19,1.11-.37,1.64-.61,2.14-.92,4.05-2.27,5.59-4.03l.08.05Z"/><path class="cls-4" d="M275.16,431.96c.56-2.38,1.14-4.75,1.77-7.1.22-.86.36-1.74.61-2.59.86-3,1.73-6,2.59-9,.36-1.33.67-2.68.99-4.01.43-1.7.6-3.47,1.53-5.06.34-.49.44-.39.73.15.13.27.43.67.51,1.1.12.43.19.93.14,1.44-.26,1.79-.54,3.57-.94,5.32-.42,1.75-.9,3.49-1.45,5.21-.66,2.07-.99,4.3-1.47,6.45l-1.58,7.1c-.31,1.46-.61,2.92-.87,4.39-.4,2.22-.79,4.45-.99,6.68-.13,1.73-.05,3.45.01,5.16.02.38.04.75.06,1.13-.03,1.4-.29,1.83-1.2,2.11-.21.06-.41.15-.62.19-.69.12-1.25-.47-1.44-1.55-.53-3.18-.24-6.53.22-9.82.34-2.45.84-4.88,1.33-7.3h.08Z"/><path class="cls-4" d="M354.18,170.2c-9.49-5.07-18-11.93-24.89-20.18-6.87-8.24-12.16-17.99-14.4-28.63-.47-1.93-.66-3.9-.94-5.86-.11-1.98-.32-3.96-.21-5.95-.03-1.99.24-3.96.45-5.94.15-.98.37-1.95.55-2.93.1-.49.18-.98.31-1.46l.41-1.43c.25-.84.47-1.69.75-2.52l.94-2.45.47-1.22.57-1.18,1.15-2.35c.38-.78.87-1.51,1.3-2.26.46-.74.87-1.51,1.36-2.23l3.01-4.22c4.23-5.47,9.36-10.25,15.11-14.07,11.52-7.7,25.32-11.37,38.96-11.63,12.12-.23,24.35,1.96,35.49,6.52,7.14,2.96,13.93,6.87,19.95,11.8,5.9,5.03,11,11.19,14.14,18.25,1.87,4.44,1.4,3.88-.8.52-.52-.86-1.31-1.79-2.16-2.88-.81-1.12-1.9-2.25-3.04-3.49-.29-.31-.58-.62-.86-.96-.31-.31-.63-.63-.95-.95-.64-.65-1.29-1.32-1.97-2.01-1.47-1.27-2.89-2.73-4.57-4.04-2.81-2.49-5.91-4.65-9.07-6.69-3.25-1.91-6.54-3.75-10.04-5.19-3.45-1.54-7.04-2.72-10.64-3.85-3.65-.99-7.33-1.89-11.08-2.41-7.48-1.14-15.12-1.36-22.64-.37l-2.82.38c-.93.16-1.86.36-2.79.54-1.87.32-3.69.86-5.52,1.34-.93.22-1.81.55-2.71.85l-2.69.92-2.62,1.1c-.88.37-1.76.72-2.6,1.17-1.01.51-2.03,1.03-3.05,1.54-.99.57-1.95,1.18-2.94,1.78-.48.31-.99.58-1.46.92l-1.4,1.02-1.4,1.02c-.47.33-.94.68-1.36,1.07-3.62,2.9-6.79,6.34-9.72,9.99l-2.02,2.87c-.33.48-.68.95-1.01,1.44l-.88,1.51c-.58,1.01-1.22,1.99-1.68,3.06-.48,1.06-1.06,2.07-1.46,3.16-1.8,4.28-2.89,8.84-3.25,13.45-.87,10.15,1.85,20.47,6.84,29.45,4.99,9.02,12.09,16.86,20.31,23.15,5.07,3.87,10.58,7.18,16.41,9.79,5.83,2.59,11.97,4.5,18.25,5.6,9.5,1.68,19.4,1.48,28.81-.63,9.41-2.15,18.31-6.5,25.52-12.77,1.44-1.17,2.7-2.53,4-3.84l1.82-2.08c.62-.68,1.13-1.45,1.7-2.17,2.19-2.94,4.1-6.08,5.55-9.42,3-6.63,4.44-13.9,4.32-21.15v-1.19s-.09-1.19-.09-1.19l-.19-2.37c-.08-.79-.23-1.57-.34-2.36-.13-.78-.19-1.58-.39-2.37-1.15-5.86-2.59-9.57-3.46-12.21-.47-1.31-.77-2.39-1.01-3.29-.26-.89-.4-1.64-.47-2.35-.06-.64-.23-1.46-.19-1.88.06-.71.81-.04,2.15,1.84.33.47.72,1.01,1.1,1.63.35.64.74,1.36,1.14,2.14.86,1.55,1.61,3.48,2.46,5.65,2.3,6.51,3.5,13.58,3.3,20.76-.14,1.79-.17,3.59-.48,5.37-.14.89-.23,1.79-.42,2.68l-.59,2.66c-.9,3.51-2.05,7.01-3.69,10.29l-.59,1.25-.67,1.2c-.45.8-.88,1.61-1.36,2.4-1.02,1.53-1.98,3.11-3.14,4.54-1.08,1.5-2.34,2.85-3.56,4.24-.63.68-1.31,1.31-1.96,1.96l-.99.97-1.05.91c-2.74,2.5-5.83,4.57-8.97,6.51-1.62.89-3.21,1.84-4.91,2.59-.84.38-1.66.82-2.52,1.16l-2.58,1.02c-10.3,3.88-21.45,5.05-32.29,4.12-10.9-.98-21.5-4.33-31.09-9.41l.02-.09Z"/><path class="cls-4" d="M346.62,187.89c-2.63,0-5.02-1.25-6.58-3.15-.59-.67-1.09-1.46-1.42-2.33-.55-1.55-.46-3.33.17-4.79.6-1.48,1.93-2.81,3.48-3.24,1.37-.38,2.76-.33,4.01.04.79.26,1.58.57,2.24,1.09.69.48,1.18,1.21,1.5,1.96.2.48-.07.52-.59.42-.48-.15-1.35-.18-1.97-.42-.55-.25-1.12-.45-1.69-.53-.57-.05-1.13-.11-1.64-.05-.25.04-.5.06-.72.14-.24.03-.45.11-.67.18-.41.18-.81.43-1.15.83-.39.5-.64,1.22-.64,1.91.02.7.22,1.39.53,2.05.75,1.42,2.22,2.65,3.91,2.99,1.03.23,2.12.15,3.09-.3.71-.32,1.25-.8,1.5-1.47.26-.67.22-1.51-.03-2.3-.42-1.23-1.3-2.29-2.27-3.08-.22-.18-.44-.33-.67-.48-.83-.57-1-.8-.99-1.53,0-.16-.02-.33,0-.49.03-.26.18-.45.49-.54.3-.09.76-.1,1.24.11,1.46.58,2.72,1.61,3.67,2.94.46.67.85,1.42,1.12,2.25.15.41.22.87.3,1.31.03.48.09.94.01,1.46-.03.37-.09.75-.24,1.13-.06.19-.12.38-.2.56l-.3.53c-.19.37-.46.66-.74.94-.27.31-.58.52-.9.72-.16.1-.32.21-.47.3l-.46.2c-.31.12-.61.29-.94.35-.33.08-.65.17-.98.23l-1,.09v-.07Z"/><path class="cls-4" d="M332.46,196.31c-.89.35-1.77.42-2.6.36-.84-.06-1.64-.28-2.39-.66-.54-.27-1.11-.57-1.55-1.04-1.61-1.71-1.62-4.37-.28-6.02.58-.7,1.3-1.32,2.19-1.55.55-.18,1.17-.23,1.76-.1.59.15,1.1.53,1.41.98.2.29-.03.41-.42.52-.38.08-.93.34-1.22.47-.54.07-.93.44-1.35.74-.43.32-.74.74-.9,1.28-.17.85.27,1.54.89,2.01.68.56,1.78.86,2.76.71.6-.08,1.14-.34,1.39-.72.41-.53.21-1.55-.4-2.46-.45-.68-1-.86-1.74-.99-.16-.03-.34-.03-.52-.07-.67-.13-.87-.4-.84-1.19,0-.18,0-.36.02-.53.06-.57.48-1.02,1.09-1.05.46-.02.93,0,1.47.12.53.12,1.15.36,1.7.77.55.4,1,.92,1.31,1.42.16.26.27.5.39.75.1.23.21.49.31.81.29.87.42,2.07-.08,3.22-.49,1.15-1.47,1.9-2.35,2.26l-.03-.06Z"/><path class="cls-4" d="M338.05,109.84c.02-3.39.68-6.76,1.89-9.92.6-1.58,1.38-3.09,2.24-4.53.89-1.43,1.91-2.78,3.01-4.04,1.63-1.82,3.44-3.5,5.47-4.85,7.15-4.74,16.39-6.24,24.48-3.55,3.63,1.17,6.83,3.32,9.59,5.74,1.77,1.58,3.41,3.34,4.7,5.39l.48.77.42.81c.28.54.55,1.09.7,1.69.2.58.27,1.21.41,1.8.04.62.1,1.23.05,1.84-.17,1.53-.27,1.25-.77.11-.11-.28-.33-.61-.56-.97-.06-.09-.11-.18-.19-.27-.04-.1-.1-.19-.17-.28-.14-.19-.29-.38-.45-.58-.27-.41-.69-.79-1-1.24-.28-.46-.66-.92-.95-1.43-2.45-3.49-5.73-6.66-9.45-8.86-.95-.52-1.85-1-2.88-1.36-.5-.2-1.01-.37-1.54-.52-.51-.17-1.05-.29-1.57-.41-2.12-.49-4.33-.68-6.55-.59-5.35.16-10.72,2.57-14.92,6.02-4.67,3.79-7.94,9.28-8.9,15.29-.61,3.71-.37,7.49.87,11.01.95,2.65,2.3,5.22,4.16,7.39,1.81,2.2,3.94,4.17,6.39,5.63,3.75,2.34,8.04,3.57,12.3,3.67.94-.04,1.85-.1,2.79-.12,3.46-.39,4.53-.63,5.55.01.23.13.52.25.68.39.27.24.09.58-.52,1.02-.3.22-.71.45-1.22.68-.51.24-1.11.51-1.82.63-4.2,1.05-8.85.75-13.15-.66-4.31-1.41-8.32-3.89-11.58-7.15-4.91-4.76-8.02-11.57-8.04-18.58h.08Z"/><path class="cls-4" d="M396.5,154.89c-4.52-1.5-8.63-4.19-11.76-7.75-3.15-3.56-5.26-7.95-6.18-12.56-.66-3.38-.73-6.88-.05-10.24,1.18-5.93,4.31-11.31,8.55-15.46,4.26-4.13,9.78-7,15.68-7.8,2.61-.34,5.28-.3,7.88.21,2.58.51,5.07,1.38,7.36,2.58,2.95,1.52,5.72,3.47,7.95,5.98,2.21,2.49,4.02,5.47,4.6,8.77.24,2.07.13,1.75-.73.26-.88-1.5-2.78-3.88-5.14-6.34-.57-.52-1.08-1.07-1.68-1.55-.57-.5-1.14-1.01-1.76-1.46-1.2-.95-2.52-1.72-3.86-2.46-2.72-1.36-5.59-2.5-8.53-2.9-5.91-.82-12.15,1.04-17.14,4.72-3,2.2-5.57,5.16-7.38,8.54-1.83,3.38-2.9,7.16-3.08,10.95-.21,4.17.77,8.38,2.72,12.1,1.95,3.71,4.95,6.88,8.56,9.06,2.23,1.33,4.67,2.34,7.21,2.91,2.55.56,5.18.75,7.78.47,3.94-.38,7.78-1.81,11.08-4.03,3.32-2.21,6.09-5.22,8.07-8.66,3.09-5.34,4.23-11.65,3.01-17.47-.31-1.27-.66-2.49-1.14-3.71-.1-.29-.2-.56-.29-.82-.12-.25-.23-.49-.34-.72-.21-.47-.4-.89-.57-1.28-.39-.75-.73-1.35-.95-1.89-.21-.54-.44-.94-.55-1.33-.12-.38-.17-.73-.18-1.08,0-.31-.07-.7-.03-.93.08-.4.54-.27,1.34.35.39.31.9.72,1.4,1.3.48.6,1.04,1.3,1.6,2.15,3.27,5.1,4.27,11.8,2.98,17.99-1.26,6.21-4.58,12.07-9.4,16.38-3.56,3.21-7.99,5.55-12.73,6.56-4.74,1.03-9.73.75-14.31-.74v-.08Z"/><path class="cls-4" d="M268.23,456.44c5.15.01,10.31,0,15.47-.05,1.88-.02,3.76-.15,5.65-.16,6.64-.04,13.29.08,19.94.11,2.95,0,5.92-.04,8.84-.12,1.88-.03,3.77-.05,5.65-.04l1.41.04,1.41.16c.94.11,1.88.28,2.82.43,1.17.22,1.01.52,0,1.04-1,.46-2.82,1.5-4.98,1.68-1.91.09-3.82.21-5.73.26-1.91.02-3.82.04-5.74.06-3.83.02-7.67,0-11.54-.12-4.62-.13-9.42.21-14.15.28l-15.61.17c-3.21.01-6.41.02-9.62.03-4.85.03-9.73-.07-14.55-.03-3.75,0-7.43.22-11.15.26-.82.01-1.62.07-2.45.03-1.53-.07-2.53-.17-3.23-.4-.7-.25-1.08-.59-1.39-1.07-.14-.22-.32-.44-.39-.65-.13-.36.13-.67.7-.94.57-.26,1.44-.5,2.55-.56,6.6-.48,13.51-.36,20.48-.42,5.17-.01,10.38,0,15.58-.07v.09Z"/><path class="cls-4" d="M241.27,204.97l-2.02.59c-.68.19-1.32.48-1.99.71-.65.25-1.34.48-1.97.76l-1.82.88c-2.39,1.31-4.64,3.01-6.77,4.89-1.54,1.4-2.96,2.95-4.4,4.49-2.57,2.7-5.02,5.56-7.54,8.43-1.25,1.44-2.54,2.87-3.9,4.26-.69.69-1.39,1.38-2.15,2.03l-1.17.96-1.32.86c-3.08,1.71-6.42,3.02-9.91,3.47-2.23.29-4.51.3-6.73-.08-.55-.11-1.11-.2-1.65-.35-.53-.19-1.07-.32-1.59-.55-1.04-.4-2.05-.88-2.97-1.49-1.15-.76-.92-.76.26-.65.58.08,1.44.05,2.4.11.49,0,1,.03,1.55.03.27,0,.55.01.83,0,.27.05.56.05.84.09,4.06.46,8.06-.34,11.8-1.79.47-.18.93-.38,1.39-.61.46-.2.91-.44,1.36-.68.48-.23.83-.49,1.21-.74.38-.22.75-.56,1.13-.87,1.51-1.29,3.03-2.81,4.51-4.41,3.58-3.8,6.8-8.35,10.67-12.3,2.11-2.18,4.36-4.27,6.89-6.07.31-.23.62-.47.94-.68l1-.62c.67-.4,1.31-.85,2.03-1.17.71-.34,1.41-.73,2.12-1.01l2.14-.83c3.53-1.28,7.19-2.3,10.96-2.67.7-.12,1.42-.13,2.14-.17.72-.03,1.43-.09,2.15-.09,1.43.08,2.87.04,4.29.29,2.86.28,5.64,1.08,8.32,2.03,4.14,1.57,8,3.76,11.33,6.68.71.67,1.5,1.23,2.14,1.98,2.52,2.65,2.76,3.93,2.4,5.09-.09.27-.14.58-.26.78-.21.34-.65.31-1.27,0-.64-.3-1.39-.93-2.23-1.81-5-5.18-11.38-9.29-18.64-10.63-2.68-.45-5.43-.73-8.2-.48l-1.04.05-1.04.14-2.07.28-2.05.45c-.69.14-1.37.3-2.04.53l-.03-.09Z"/><path class="cls-4" d="M266.85,296.1c.65-1.46,1.18-2.95,1.39-4.48.23-1.54.19-3.16.01-4.79-.19-1.64-.52-3.3-.86-5-.33-1.72-.75-3.44-.83-5.42-.18-2.89.68-5.83,2.17-8.17,1.01-1.64,2.24-3.05,3.53-4.34.64-.65,1.3-1.26,1.95-1.86l.98-.89c.33-.3.59-.56,1.04-.92,1.68-1.36,3.57-1.88,5.29-2.36l1.27-.33.61-.17.49-.15c.33-.1.71-.23.96-.53.14-.16.2-.4.09-.59-.1-.19-.29-.31-.48-.4-.19-.1-.41-.15-.63-.2l-.48-.07-.66-.05c-.91-.05-1.85.01-2.79.14-.47.05-.9.18-1.36.26-.45.1-.89.27-1.34.4-1.77.62-3.48,1.53-5.08,2.56-2.05,1.35-4.02,2.83-5.88,4.45-.91.83-1.82,1.67-2.63,2.58l-.62.68-.57.71c-.42.46-.75.95-1.17,1.42-1.01,1.2-.8,1.15-.66-.29.11-.7.28-1.76.81-2.88.52-1.11,1.25-2.38,2.26-3.54,1.5-1.75,3.15-3.38,5.02-4.74,1.9-1.32,3.91-2.49,6.12-3.4,1.11-.44,2.25-.84,3.5-1.08,1.25-.27,2.39-.35,3.65-.37.62,0,1.25.03,1.89.11l.65.1c.26.05.5.12.75.18.51.1.94.32,1.39.5.83.44,1.45,1.02,1.81,1.75.34.75.35,1.69,0,2.42-.51,1.09-1.6,1.91-2.97,2.42-.81.3-1.09.35-1.53.47l-1.2.29c-1.5.35-2.91.75-4.02,1.43l-.4.26-.36.29c-.25.2-.58.53-.86.79-.58.54-1.17,1.08-1.72,1.63-2.23,2.17-4.21,4.54-5.19,7.22-.54,1.46-.77,3.02-.62,4.58.15,1.62.51,3.32.85,5.05.68,3.45,1.29,7.16.66,10.89-.4,2.29-1.24,4.43-2.27,6.42-1.04,1.99-2.27,3.84-3.58,5.61-1.98,2.67-4.28,5.15-6.46,7.51-.14.15-.17.26-.27.39-.08.12-.17.24-.25.42-.15.35-.33.66-.46,1.03-.28.73-.55,1.47-.77,2.24-.48,1.53-.87,3.09-1.24,4.66-1.11,4.89-1.77,9.78-2.33,14.7-.13,1.08-.19,2.15-.32,3.24-.42,4.04-.67,5.29-1.65,6.12-.2.19-.4.44-.58.55-.3.18-.55-.15-.81-.92-.29-.78-.37-1.98-.33-3.51.16-4.53.66-9.15,1.42-13.8.8-4.67,1.67-9.29,3.34-14.08l.25-.68.32-.72c.12-.25.19-.45.36-.74.18-.3.39-.59.59-.88.37-.47.66-.74.98-1.08l.91-.95c1.19-1.25,2.34-2.51,3.44-3.82,2.15-2.61,4.14-5.38,5.45-8.33l.07.02Z"/><path class="cls-4" d="M307.5,290.77c-1.45-2.16-1.98-4.54-2.22-6.81-.23-2.29-.1-4.54.26-6.73.24-1.6.56-3.2,1.07-4.74.45-1.36,1.02-2.68,1.71-3.96.67-1.28,1.49-2.5,2.49-3.62.99-1.11,2.17-2.13,3.61-2.82,1.43-.71,3.16-.93,4.73-.62l1.02.27c.34.08.69.28,1.03.43.66.36,1.23.82,1.72,1.35.97,1.05,1.52,2.3,1.93,3.52.5,1.58.77,3.19.76,4.81,0,.81-.09,1.61-.22,2.41-.08.4-.17.79-.26,1.18-.13.39-.31.76-.5,1.12-.52.89-.55.69-.71-.18-.25-.9-.66-2.34-.87-3.93-.2-1.41-.45-2.81-.95-4.05-.48-1.24-1.19-2.27-1.86-2.92-.18-.14-.36-.28-.54-.38-.19-.08-.35-.19-.65-.24-.26-.08-.53-.15-.79-.16l-.39-.05-.39.03c-1.03.07-2.16.47-3.21,1.29-1.26.97-2.31,2.42-3.12,4-.82,1.59-1.42,3.33-1.89,5.09-.53,1.93-.85,3.93-.91,5.92-.06,1.99.1,3.99.7,5.82.7,2.24,2.22,4.13,4.38,4.69,1.6.45,3.19-.07,4.46-1.29,1.27-1.2,2.22-2.86,2.94-4.57,1.14-2.7,1.55-5.61,1.93-8.48.08-.63.11-1.26.17-1.9.11-1.18.18-1.95.34-2.5.18-.54.41-.87.74-1.15.15-.13.29-.3.43-.38.24-.14.48.03.74.49.25.45.52,1.2.58,2.15.23,2.82.14,5.74-.54,8.64-.32,1.45-.75,2.9-1.33,4.33-.58,1.43-1.27,2.88-2.32,4.21-.77.99-1.7,1.94-2.93,2.69-1.21.75-2.76,1.21-4.25,1.13-1.51-.07-2.8-.57-4-1.26-.62-.32-1.13-.79-1.66-1.23-.45-.5-.94-.98-1.28-1.54l.06-.05Z"/><path class="cls-4" d="M329.84,286.02c-.02,1.59.13,3.18.58,4.49.46,1.32,1.17,2.15,2.16,2.35.68.16,1.33-.09,2.12-.61,1.41-.95,2.59-2.81,3.46-4.72.88-1.94,1.5-4.05,1.9-6.2.36-1.92.44-3.87.45-5.83,0-1.25-.11-2.48-.22-3.68-.14-1.19-.4-2.34-.99-3.22-.41-.49-.41-.66.43-.55.37.1,1.02.33,1.5.86.5.51.95,1.21,1.22,2,.22.7.43,1.39.53,2.08.1.69.18,1.38.23,2.06.1,1.35.14,2.7.03,4.08-.2,2.74-.76,5.47-1.76,8.08-.62,1.55-1.24,3.14-2.17,4.68-.47.76-.99,1.52-1.65,2.22-.3.36-.73.67-1.09.99-.42.29-.88.56-1.36.79-1.11.46-2.45.55-3.62.22-1.16-.3-2.21-1.02-2.93-1.9-1.45-1.78-1.87-3.8-2.11-5.67-.25-2.33-.1-4.6.19-6.83.23-1.69.57-3.35,1.02-5,.45-1.63,1-3.29,1.82-4.84.63-1.19,1.32-2.35,2.24-3.42.91-1.05,2.11-2.09,3.76-2.49.36-.08.72-.17,1.09-.18.37-.03.75-.04,1.11.04.7.09,1.19.35,1.61.54.38.23.64.49.84.71.38.46.43.89.36,1.35-.03.21-.04.44-.12.61-.12.29-.44.41-.86.41-.21,0-.45-.04-.71-.08-.26-.02-.55-.06-.82-.13-.84-.18-1.47-.09-2.07.2-.6.29-1.23.81-1.82,1.52-.59.7-1.13,1.55-1.6,2.46-.24.47-.46.92-.63,1.38-.19.47-.36.98-.52,1.49-.92,3.1-1.53,6.5-1.51,9.72h-.09Z"/><path class="cls-4" d="M344.13,261.74c-1.49-.66-3.04-1.26-4.64-1.6-.58-.13-1.19-.13-1.72-.2-1.71-.14-3.99.38-5.72,1.42-.19.12-.37.24-.53.38l-.21.2c-.03.05-.08.1-.12.15-.12.2-.13.42-.03.68.13.33.48.63.84.88.46.24.91.48,1.39.73.37.19.39.26.07.66-.16.2-.42.53-.82.75-.2.09-.44.24-.69.26-.25,0-.52,0-.78-.1-.47-.14-.91-.39-1.33-.7-.4-.34-.75-.75-1.01-1.28-.24-.53-.42-1.14-.36-1.82.06-.66.32-1.34.73-1.81.37-.46.67-.69,1-.95.33-.24.65-.45.99-.64.67-.37,1.35-.66,2.06-.87.85-.25,1.69-.54,2.61-.71.45-.09.93-.15,1.41-.17.24-.01.5,0,.74,0l.66.07c1.92.25,3.72.79,5.45,1.51,1.05.47,2.08.97,3.06,1.56,1.5.87,2.87,1.95,4.16,3.09,1.02.87,2,1.81,2.82,2.91.15.26.32.51.45.79.47,1.04.38,1.47-.05,1.87-.1.09-.19.2-.29.26-.33.22-.89-.02-1.34-.57-.34-.41-.77-.76-1.12-1.13-.38-.37-.67-.78-1.07-1.13-.71-.75-1.54-1.43-2.39-2.08-1.31-.92-2.74-1.73-4.26-2.36l.03-.07Z"/><path class="cls-4" d="M358.11,286.44c-.08-.75-.07-1.56-.24-2.25-.08-.37-.1-.7-.2-1.11l-.29-1.19c-.41-1.59-.85-3.18-1.36-4.74-1.01-3.11-2.18-6.22-3.85-8.88-.6-.97-1.3-1.85-2.06-2.5-.39-.36-.73-.54-1.18-.77-.49-.22-1.02-.42-1.57-.6-1.92-.64-3.97-1.14-5.99-1.25-1.01-.08-2.01-.06-2.95.05-.48.05-.91.16-1.35.27-.23.07-.42.14-.59.24-.16.11-.36.22-.43.42-.08.2-.01.42.14.57.15.14.34.23.55.31l.43.14.77.23c2.05.61,4.17,1.09,6.32,2.03.95.42,1.92.98,2.74,1.79.82.8,1.42,1.83,1.77,2.87.2.49.31,1.15.35,1.69.02.56,0,1.1-.05,1.61-.11,1.03-.3,1.99-.48,2.93-.46,2.4-.87,4.66-.53,6.89.15,1.14.44,2.27.73,3.38.13.56.31,1.11.51,1.64.2.53.4,1.07.7,1.57.38.61.63.82.56.89-.05.03-.41-.07-1.01-.42-.58-.35-1.51-.93-2.29-1.92-.38-.48-.82-1.02-1.14-1.65-.3-.64-.56-1.33-.74-2.08-.16-.66-.3-1.33-.39-2.04-.09-.72-.13-1.44-.11-2.14,0-.7.07-1.38.13-2.05.1-.66.2-1.31.32-1.93.23-1.25.47-2.44.57-3.48.04-.51.03-.97-.02-1.33-.02-.08-.04-.16-.05-.24l-.11-.31c-.06-.22-.16-.41-.25-.59-.36-.74-.94-1.24-1.77-1.76-.83-.5-1.91-.9-3.05-1.26l-3.57-1.1-.91-.29c-.48-.14-1.07-.33-1.52-.57-.97-.46-1.69-1.15-2.02-2.04-.95-2.36,1.79-4.38,3.91-4.79,1.76-.4,3.43-.38,5.06-.23,1.63.17,3.22.45,4.79.83.78.19,1.56.42,2.33.69.77.28,1.54.56,2.37,1.12,1.71,1.17,2.73,2.7,3.66,4.21.91,1.53,1.65,3.11,2.34,4.69,1.36,3.18,2.42,6.44,3.34,9.75.14.5.27,1.02.37,1.58.1.55.23,1.1.25,1.65.04.54.11,1.09.13,1.63l.02,1.61c-.04,2.14-.19,4.25-.44,6.34-.72,6.32-2.07,12.54-2.7,18.7-.23,2.4-.34,4.74.02,7,.34,2.29.92,4.59,1.49,6.92.25,1.03.52,2.04.75,3.1.4,1.97.58,3.32.5,4.29-.11.97-.35,1.54-.76,1.99-.18.2-.36.46-.53.57-.3.19-.58-.13-.85-.8-.29-.68-.64-1.7-.93-3.08-.91-4.08-2.3-8.26-2.89-13.01-.08-.59-.11-1.22-.15-1.82v-1.82c.04-1.18.1-2.37.23-3.52.23-2.32.56-4.6.91-6.86.52-3.35,1.09-6.68,1.54-9.98.44-3.29.8-6.61.65-9.75h.08Z"/><path class="cls-4" d="M242.4,344.51c-2.45-.85-4.87-1.8-7.26-2.78-.88-.33-1.78-.64-2.63-1.05-3.01-1.44-5.94-3.06-8.78-4.81-.62-.41-1.26-.78-1.88-1.18-.62-.41-1.23-.82-1.85-1.23-.4-.25-.79-.52-1.16-.82-.38-.29-.75-.59-1.11-.9-.76-.57-1.35-1.4-1.82-2.24-.3-.53-.16-.54.43-.43.29.05.71.12,1.2.18.47.09.86.32,1.33.56,3.06,1.9,6.35,3.42,9.58,5.3,1.94,1.11,4.18,1.8,6.33,2.6,2.34.93,4.71,1.82,7.11,2.64,1.48.48,2.96.98,4.47,1.4,2.27.63,4.56,1.29,6.87,1.67,1.79.31,3.6.32,5.37.35.39,0,.77-.03,1.16,0,1.43.09,1.84.44,2.14,1.43.07.23.16.45.2.67.13.74-.5,1.35-1.68,1.61-3.48.52-7-.05-10.45-.77-1.28-.27-2.56-.59-3.81-.97-1.26-.35-2.51-.75-3.76-1.14l.02-.09Z"/><path class="cls-4" d="M348.49,342.12c-2.93.66-5.89,1.16-8.89,1.5-1.09.12-2.18.31-3.29.36-1.96.07-3.93.05-5.94-.28-1-.16-2.02-.42-3.04-.83-.99-.46-2.09-1.09-2.7-2.39-.23-.59-.32-1.24-.1-1.84.05-.15.09-.3.15-.45l.25-.43c.16-.28.29-.43.45-.63.61-.74,1.26-1.33,1.93-1.88.85-.71,1.76-1.31,2.68-1.89.46-.29.93-.55,1.4-.81.46-.27,1.01-.42,1.5-.64.64-.23.6-.14.28.39-.16.27-.38.66-.63,1.14-.28.45-.65.89-1.09,1.31-.79.73-1.54,1.49-2.25,2.22-.72.69-1.43,1.46-1.78,2.07-.05.02-.06.04-.09.09,0,0,0,.03,0,.03,0,0-.01,0,.02.05.04.08.17.15.22.26.38.41,1.23.8,2.14,1.06,2.25.66,4.96.36,7.51.12,2.85-.3,5.71-.77,8.54-1.42,1.74-.39,3.48-.84,5.19-1.36,2.59-.79,5.2-1.63,7.64-2.76,1.9-.87,3.62-2.01,5.29-3.16.36-.26.7-.54,1.07-.79,1.35-.94,1.87-1.06,2.75-.51.2.12.42.23.59.37.58.46.39,1.42-.6,2.35-2.94,2.74-6.67,4.6-10.46,6.09-2.82,1.13-5.75,1.97-8.69,2.7l-.03-.08Z"/><path class="cls-4" d="M316.58,275.5c-.37.31-.73.63-1.09.96-.13.12-.23.26-.36.38-.47.41-.93.82-1.38,1.25-.2.19-.38.4-.56.6-.22.27-.43.55-.73.76-.18.13-.53-.48-.34-.85.38-.61.76-1.22,1.32-1.69.33-.29.56-.68.84-1.02.32-.36.64-.73.95-1.09.2-.22.4-.45.59-.67.29-.34.61-.67.86-1.04.2-.29.31-.64.46-.97.03-.07.05-.15.09-.22.18-.22.33-.21.73.05l.27.18c.29.21.45.5.42.75-.12.7-.57,1.16-1,1.64-.33.35-.69.67-1.04,1.01l-.03-.02Z"/><path class="cls-4" d="M317.28,280.89c-.29.16-.57.32-.84.5-.1.07-.16.17-.26.23-.35.23-.7.48-1.03.74-.15.12-.26.26-.37.41-.14.19-.24.4-.48.52-.14.08-.76-.57-.66-.85.21-.47.45-.92.89-1.22.26-.18.4-.47.61-.7.23-.25.48-.48.74-.71.16-.14.32-.28.47-.41.24-.21.51-.39.71-.62.16-.18.25-.44.37-.67.03-.05.04-.11.08-.16.13-.16.26-.1.63.28l.25.26c.27.3.42.61.39.79-.09.52-.39.8-.71,1.08-.24.2-.5.38-.77.56l-.03-.03Z"/><path class="cls-4" d="M336.35,280.34c-.29.18-.59.35-.87.54-.1.07-.18.17-.28.23-.37.23-.76.46-1.15.67-.17.1-.31.23-.45.36-.18.17-.34.35-.6.44-.15.06-.53-.62-.39-.88.29-.42.59-.82,1.04-1.09.29-.14.46-.4.7-.6.26-.21.53-.42.79-.64.16-.13.33-.26.49-.39.24-.2.49-.4.71-.62.17-.17.27-.41.4-.62.03-.05.05-.1.08-.14.13-.15.25-.11.56.15l.21.18c.23.22.35.46.31.63-.12.5-.36.9-.71,1.19-.26.22-.55.41-.82.61l-.03-.03Z"/><path class="cls-4" d="M336.09,287.23c-.24.1-.48.22-.7.36-.08.05-.12.15-.21.19-.32.16-.64.35-.9.6-.12.11-.19.25-.26.38-.02.04-.03.09-.05.14-.04.03-.08.07-.11.11-.07.08-.16.15-.28.21-.08.04-.26-.05-.45-.19-.19-.14-.42-.37-.44-.53-.09-.31.06-.52.18-.73.13-.21.29-.4.51-.55.25-.18.36-.47.57-.69.24-.22.51-.42.78-.6.17-.11.34-.22.51-.32.25-.16.53-.28.76-.46.18-.14.32-.36.49-.54.04-.04.07-.09.11-.12.08-.05.15-.06.23.02.09.09.17.23.29.44l.15.28c.08.16.13.31.16.47.03.15.06.31.03.38-.15.47-.37.68-.66.84-.21.12-.44.22-.65.35l-.03-.04Z"/><path class="cls-4" d="M363.22,98.03c-.59,1.39-1.18,2.77-1.77,4.16-.18.42-.29.79-.16,1.25.1.38.4.79.75.97.38.2.83.3,1.25.16.37-.12.81-.37.97-.75.59-1.39,1.18-2.77,1.77-4.16.18-.42.29-.79.16-1.25-.1-.38-.4-.79-.75-.97-.38-.2-.83-.3-1.25-.16-.37.12-.81.37-.97.75h0Z"/><path class="cls-4" d="M370.75,101.25c-.59,1.39-1.18,2.77-1.77,4.16-.18.42-.29.79-.16,1.25.1.38.4.79.75.97.38.2.83.3,1.25.16.37-.12.81-.37.97-.75.59-1.39,1.18-2.77,1.77-4.16.18-.42.29-.79.16-1.25-.1-.38-.4-.79-.75-.97-.38-.2-.83-.3-1.25-.16-.37.12-.81.37-.97.75h0Z"/><path class="cls-4" d="M353.66,109.85c.83,3.32,2.98,6.26,5.91,8.05,3.24,1.99,7.38,2.4,10.97,1.19.83-.28,1.38-1.12,1.13-2-.22-.81-1.16-1.42-2-1.13-2.82.95-5.91.7-8.47-.86-2.22-1.36-3.78-3.59-4.41-6.11-.51-2.03-3.64-1.17-3.13.86h0Z"/><path class="cls-4" d="M400.88,120.65l.06,3.02c0,.42.18.85.48,1.15.28.28.74.49,1.15.48s.86-.16,1.15-.48.48-.71.48-1.15l-.06-3.02c0-.42-.18-.85-.48-1.15-.28-.28-.74-.49-1.15-.48s-.86.16-1.15.48-.48.71-.48,1.15h0Z"/><path class="cls-4" d="M409.12,119.08c.08,1.03.15,2.07.23,3.1.03.43.16.83.48,1.15.28.28.74.49,1.15.48s.86-.16,1.15-.48.51-.72.48-1.15c-.08-1.03-.15-2.07-.23-3.1-.03-.43-.16-.83-.48-1.15-.28-.28-.74-.49-1.15-.48s-.86.16-1.15.48-.51.72-.48,1.15h0Z"/><path class="cls-4" d="M397.47,132.05c2.46,2.64,6.02,4.22,9.63,4.21s7.16-1.61,9.61-4.27c1.41-1.54-.88-3.84-2.3-2.3-1.88,2.05-4.51,3.31-7.31,3.32s-5.44-1.22-7.34-3.26c-1.43-1.53-3.72.77-2.3,2.3h0Z"/><path class="cls-4" d="M179.75,379.35c.3.09.42.16.42.22,0,.04.06.08.1.12.03.03.07.07.06.09-.03.08.05.17.16.26.22.18.19.93.14,1-.03.11-.15.45-.03.52.13.08-.02.35.09.44.05.04.03.07.01.1-.09.12.41.33.34.46-.04.08-.02.16-.03.25,0,.02.03.04.01.06-.2.19.05.44-.03.64-.02.04-.04.09-.06.12-.01.03-.05.05-.02.08.19.18,0,.3-.13.44-.02.02-.08.03-.03.05.26.15,0,.22.06.34.02.04-.02.07-.04.1-.02.03-.08.05-.05.08.13.14,0,.25.04.38,0,0,0,.01,0,.02.28.17-.08.25-.35.34-.16.06-.29.12-.07.23.04.02.07.04.03.05-.21.05-.22.13-.3.2,0,0-.04,0-.05,0-.04,0-.96-.11-1.16-.14-.2-.03-2.57-.43-2.64-.44-.06-.02-.14-.04-.16-.06-.06-.05-.2-.1-.61-.18-.21-.04-.27-.07-.24-.09.26-.12.04-.31.13-.46.03-.06-.02-.14,0-.2.06-.33.15-.66.26-.98.02-.06.07-.11.19-.15.11-.04.16-.09.18-.14.03-.09,0-.19.03-.28.03-.13.08-.26.13-.39.08-.21.17-.43.26-.65,0,0,.02-.01,0-.02-.31-.18-.03-.56-.03-.59.02-.12.02-.25.07-.36.06-.12.01-.25.11-.35.08-.1.11-.2.16-.3,0-.01,0-.03.02-.05.23-.14.71-.79.75-.87.01-.02.07-.03.19-.03.11,0,.15,0,.26-.01.1,0,.26,0,.34,0,.08,0,.1-.02.16-.03.06-.01.22,0,.39.03.18.03.75.12.92.15Z"/><path class="cls-4" d="M233.64,373.07c.23-.27.35-.35.4-.31.03.02.1-.02.15-.03.04,0,.09-.03.11,0,.05.08.16.06.3,0,.26-.1.85.44.91.5.1.07.36.33.5.26.14-.08.33.19.48.13.06-.02.08,0,.1.04.07.14.54-.19.63-.07.05.08.15.1.22.16.02.01.06,0,.06.03.06.29.43.22.57.42.02.04.05.09.08.13.02.03.01.08.06.07.27-.05.28.19.31.39,0,.03-.02.09.03.06.29-.13.19.15.34.17.05,0,.05.06.07.1.02.03,0,.09.04.09.21-.02.23.15.38.2,0,0,0,.02.03.01.33-.11.21.2.14.45-.04.16-.06.29.23.14.06-.03.1-.04.08,0-.09.2,0,.23.02.33,0,0-.03.03-.03.05-.02.04-.86.79-1.04.95-.19.16-2.42,2.04-2.48,2.1-.06.04-.14.1-.16.1-.07.02-.21.11-.58.41-.19.16-.25.18-.23.14.18-.34-.06-.31-.03-.51.01-.09-.08-.08-.11-.13-.16-.25-.32-.5-.48-.74-.03-.04-.03-.11.01-.24.04-.11.03-.18,0-.22-.05-.07-.14-.1-.19-.16-.08-.09-.14-.2-.21-.3-.11-.17-.23-.34-.33-.54,0,0,0-.03-.01-.02-.3.18-.42-.27-.44-.28-.08-.08-.17-.14-.22-.24-.06-.11-.17-.13-.2-.27-.03-.12-.12-.16-.19-.23,0-.01-.03,0-.03-.03-.03-.23-.41-.82-.47-.87-.01-.01,0-.08.06-.19.05-.11.07-.15.11-.26.05-.1.13-.26.17-.34.04-.09.03-.11.05-.17.02-.06.11-.23.23-.39.12-.18.49-.73.6-.89Z"/><g class="cls-5"><path class="cls-4" d="M209.88,422.53c-.26-.47-.33-.66-.28-.68.03-.02,0-.13,0-.19,0-.05-.02-.13.01-.13.1,0,.09-.14.06-.33-.07-.36.65-.62.72-.64.1-.05.43-.17.37-.38-.06-.22.26-.24.22-.45-.01-.09.02-.09.06-.09.16.02-.11-.74.05-.74.1,0,.14-.09.21-.14.02-.01,0-.07.04-.06.31.12.3-.36.53-.39.04,0,.1,0,.15,0,.03,0,.08.04.08-.03-.01-.36.24-.21.45-.12.03.01.09.09.07,0-.09-.44.18-.13.23-.3.01-.05.07-.02.11-.02.03,0,.09.06.09,0,.01-.27.18-.21.26-.32,0,0,.02,0,.02-.02-.05-.44.26-.08.52.19.16.16.29.28.2-.14-.02-.08-.03-.14,0-.1.19.25.25.17.35.22,0,0,.03.05.04.07.04.05.65,1.49.79,1.81.13.31,1.66,4.09,1.7,4.2.03.1.08.23.08.26.01.1.08.33.33.96.13.33.15.42.11.37-.3-.39-.28-.04-.46-.17-.08-.05-.08.08-.12.1-.24.08-.53.06-.8.11-.05,0-.12-.04-.24-.18-.11-.13-.18-.16-.22-.16-.08,0-.12.09-.19.11-.1.03-.22.03-.34.04-.19,0-.39.02-.59.03,0,0-.03-.02-.02,0,.16.51-.32.32-.34.33-.09.04-.17.1-.29.08-.12-.01-.16.1-.32.03-.13-.06-.18.03-.27.05-.01,0,0,.03-.03.02-.25-.14-.95-.15-1.02-.13-.02,0-.08-.07-.2-.22-.11-.13-.16-.19-.27-.33-.1-.13-.27-.35-.35-.46-.09-.11-.12-.11-.18-.18-.07-.07-.24-.3-.4-.56-.18-.27-.75-1.12-.91-1.36Z"/></g><g class="cls-5"><path class="cls-4" d="M287.85,363.1c.3.14.42.22.42.27,0,.03.06.09.1.13.02.03.07.07.06.1-.04.07.04.16.16.27.23.2.15.88.13.94,0,.11-.05.41.11.5.16.09,0,.32.14.42.06.04.05.07.02.09-.1.1.52.35.46.45-.04.06,0,.15,0,.22,0,.02.04.04.02.06-.22.15.12.4.04.57-.02.03-.04.07-.06.1-.01.02-.06.04-.01.07.26.17.05.27-.1.38-.02.01-.1.02-.04.05.36.15.02.19.13.31.04.04-.01.06-.03.09-.01.02-.08.04-.04.07.2.13.07.22.16.34,0,0,0,.01.01.02.4.16,0,.22-.3.3-.18.05-.32.11.05.21.07.02.13.04.08.05-.26.04-.22.12-.29.18,0,0-.06,0-.07,0-.05,0-1.46-.1-1.77-.12-.3-.03-3.95-.39-4.06-.4-.09-.02-.21-.04-.24-.05-.08-.05-.29-.1-.88-.18-.31-.04-.39-.07-.33-.09.46-.13.21-.33.42-.48.09-.06,0-.15.03-.22.14-.35.29-.7.45-1.04.03-.06.1-.11.26-.15.15-.04.21-.09.24-.14.05-.09.02-.2.06-.3.05-.14.13-.27.2-.4.13-.21.26-.43.39-.65,0,0,.03-.01,0-.02-.36-.22.04-.59.05-.61.04-.12.06-.25.18-.35.11-.1.12-.24.28-.33.14-.08.16-.19.23-.28.01-.01,0-.03.02-.04.27-.12.89-.7.95-.77.01-.02.08-.02.2,0,.11.01.16.02.28.03.1.02.27.05.35.06.09,0,.11,0,.17,0,.06,0,.23.04.4.09.19.06.77.24.94.29Z"/></g><path class="cls-4" d="M313.61,402.8c.16-.14.24-.18.27-.17.02,0,.07-.02.11-.03.03,0,.07-.03.08-.01.03.03.11.01.21-.03.18-.08.63.08.61.16.04.05.17.22.26.16.1-.06.17.11.27.07.04-.02.05,0,.06.02.02.09.35-.16.39-.08.02.05.08.06.12.08,0,0,.04,0,.04,0,.01.17.25.09.32.2.01.02.03.05.04.07,0,.01,0,.05.03.03.18-.07.16.08.17.2,0,.02-.02.06.01.04.2-.13.11.07.21.06.03,0,.03.03.04.05,0,.01,0,.06.02.05.13-.04.13.07.22.08,0,0,0,.01.02,0,.21-.12.12.1.06.27-.03.11-.05.2.13.06.04-.03.07-.05.05-.02-.07.14-.01.15,0,.21,0,0-.02.03-.02.04-.02.02-.56.66-.68.79-.12.13-1.58,1.73-1.62,1.78-.04.04-.09.09-.11.09-.05.02-.14.1-.39.36-.13.13-.17.16-.15.13.11-.26-.07-.2-.06-.35,0-.06-.06-.05-.09-.08-.13-.15-.24-.32-.35-.49-.02-.03-.02-.08.01-.17.03-.08.03-.13.01-.16-.03-.05-.09-.06-.12-.11-.05-.06-.09-.14-.13-.21-.06-.12-.13-.24-.2-.37,0,0,0-.02,0-.01-.22.13-.28-.16-.3-.18-.05-.05-.11-.09-.14-.16-.03-.07-.11-.09-.12-.18-.02-.07-.06-.12-.07-.2,0-.01-.02-.01-.01-.03.04-.2-.04-.73-.06-.79,0-.01.02-.05.06-.12.04-.06.06-.09.09-.15.04-.05.1-.14.13-.18.03-.05.03-.06.04-.1.02-.04.08-.12.16-.2.08-.09.33-.37.41-.45Z"/><path class="cls-4" d="M263.26,431.05c-.28-.28-.36-.4-.32-.43.03-.02-.01-.09-.02-.14,0-.04-.03-.09,0-.1.09-.03.07-.13.02-.26-.09-.24.5-.66.56-.7.08-.07.34-.28.27-.4-.07-.13.19-.26.13-.39-.02-.05,0-.07.04-.08.14-.05-.19-.46-.07-.52.07-.04.1-.12.14-.18.01-.02,0-.05.02-.05.25-.05.17-.37.34-.49.03-.02.08-.05.11-.07.02-.02.07-.01.05-.05-.07-.23.14-.24.31-.28.02,0,.08.01.05-.03-.14-.24.11-.17.12-.3,0-.04.05-.05.08-.06.02-.01.08,0,.07-.04-.03-.17.13-.18.17-.3,0,0,.02,0,0-.02-.12-.24.18-.17.42-.13.15.02.27.02.12-.18-.03-.04-.05-.07-.01-.06.19.05.21-.02.3-.05,0,0,.03.02.04.02.04.01.76.56.92.68.15.12,1.98,1.61,2.04,1.66.04.04.1.1.11.12.02.06.12.17.41.43.16.14.18.18.15.18-.3-.05-.23.19-.4.24-.07.02-.05.12-.09.17-.15.27-.39.48-.62.7-.04.04-.1.06-.22.03-.11-.02-.17,0-.21.03-.06.06-.09.15-.14.22-.08.09-.18.17-.28.26-.16.13-.33.27-.49.41,0,0-.02,0-.01.02.18.3-.22.48-.23.5-.07.09-.12.2-.21.26-.1.07-.11.2-.24.24-.11.04-.14.14-.2.22,0,.01,0,.03-.02.04-.21.04-.77.44-.82.5-.01.01-.08-.02-.2-.09-.11-.06-.16-.09-.27-.15-.1-.07-.27-.18-.36-.23-.09-.05-.11-.04-.18-.07-.07-.03-.24-.16-.42-.3-.19-.15-.79-.62-.96-.76Z"/><g class="cls-5"><path class="cls-4" d="M361.01,358.01c.25-.19.37-.24.41-.2.02.02.09,0,.14,0,.04,0,.09-.01.1.01.03.07.13.07.26.05.26-.05.67.53.7.6.07.08.24.36.38.33.15-.04.24.23.37.23.06,0,.07.03.07.06,0,.15.5-.01.52.13.01.09.08.14.13.21.01.02.05.02.05.04-.04.26.29.32.33.54,0,.04.01.09.02.13,0,.03-.02.07.03.08.24.05.17.25.13.43,0,.02-.05.06,0,.06.28,0,.1.19.21.26.04.02,0,.07,0,.11,0,.03-.05.08-.01.09.15.07.08.23.15.33,0,0,0,.02.01.02.26.04.04.26-.12.44-.1.11-.16.21.08.21.05,0,.08,0,.05.03-.14.12-.11.19-.13.28,0,0-.03.02-.04.02-.03.02-.86.27-1.04.32-.18.05-2.35.63-2.42.65-.06,0-.13.02-.15.02-.06,0-.2.01-.56.11-.19.05-.25.05-.22.03.21-.17-.01-.2.04-.32.02-.05-.06-.07-.08-.1l-.16-.27c-.05-.09-.05-.2-.08-.3,0-.04.02-.09.09-.16.07-.07.09-.12.08-.16-.01-.06-.07-.1-.1-.15-.03-.08-.04-.17-.06-.26-.03-.15-.07-.3-.1-.45,0,0,.01-.02,0-.01-.31.09-.3-.23-.3-.25-.03-.07-.08-.14-.08-.23,0-.09-.08-.14-.06-.26.02-.1-.04-.15-.06-.22,0-.01-.02,0-.02-.03.06-.19-.05-.75-.09-.8,0-.01.03-.06.1-.15.06-.08.09-.12.16-.2.06-.07.17-.19.22-.25.05-.07.05-.09.08-.14.03-.05.15-.17.27-.29.14-.13.57-.54.69-.65Z"/></g><path class="cls-4" d="M360,390.51c.24.22.32.31.29.34-.02.01.02.07.04.11,0,.03.04.07.02.07-.06.01-.03.09.03.19.11.19-.26.47-.29.49-.05.05-.21.18-.13.28.08.11-.09.18-.03.29.03.04,0,.05-.01.06-.1.03.24.38.16.42-.05.02-.05.08-.07.13,0,.01.01.04,0,.04-.19.01-.06.27-.16.35-.02.01-.05.03-.07.04-.01,0-.05,0-.03.04.11.19-.06.18-.19.19-.02,0-.07-.02-.04.01.18.22-.07.11-.05.2,0,.03-.04.02-.06.03-.02,0-.07-.01-.06.02.06.14-.06.13-.07.22,0,0-.01,0,0,.02.16.21-.1.12-.3.06-.12-.04-.23-.05-.05.13.03.04.06.07.03.05-.17-.07-.17-.01-.24,0,0,0-.03-.02-.04-.02-.03-.02-.78-.58-.95-.7-.16-.12-2.08-1.62-2.14-1.66-.05-.04-.11-.1-.12-.11-.03-.05-.13-.15-.44-.4-.16-.13-.2-.17-.16-.16.29.1.19-.09.35-.09.06,0,.03-.07.06-.1.14-.14.25-.31.42-.43.03-.02.09-.02.19.02.1.03.15.03.18.01.05-.03.06-.1.1-.13.06-.05.14-.09.21-.14.12-.07.25-.14.38-.21,0,0,.02,0,.01,0-.18-.24.14-.3.15-.32.05-.05.08-.12.16-.15.07-.03.08-.12.19-.13.09,0,.11-.08.15-.12,0,0,0-.02.02-.02.17,0,.6-.2.64-.23,0,0,.06.02.16.08.09.05.13.08.22.13.08.05.22.15.29.19.07.04.09.04.14.07.05.03.2.13.34.24.16.12.65.5.79.61Z"/><g class="cls-5"><path class="cls-4" d="M339.84,434.4c.45-.42.63-.55.66-.51.02.03.12-.04.19-.06.05-.02.13-.06.13-.03,0,.1.15.05.33-.05.35-.19.68.44.71.5.06.08.23.36.42.22.2-.14.27.16.47.04.08-.05.09-.02.09.02,0,.17.7-.41.74-.28.03.08.1.11.16.15.01.01.07-.02.06.01-.07.35.37.16.43.37,0,.04.02.1.03.14,0,.03-.02.09.04.06.32-.15.23.14.19.38,0,.03-.06.12,0,.07.37-.26.15.12.31.09.05,0,.03.06.04.1,0,.03-.04.11.02.09.24-.1.21.09.35.1,0,0,0,.02.03,0,.39-.26.17.15.02.48-.09.2-.15.37.21.08.07-.06.13-.1.1-.04-.16.27-.07.28-.07.38,0,0-.04.05-.05.07-.04.05-1.16,1.29-1.41,1.56-.25.26-3.23,3.42-3.31,3.52-.08.07-.19.18-.22.19-.09.05-.28.21-.78.72-.26.27-.34.32-.3.26.25-.48-.07-.34-.02-.6.02-.11-.1-.07-.14-.11l-.54-.73s-.02-.13.06-.3c.08-.16.08-.23.05-.28-.05-.07-.16-.07-.22-.14-.08-.09-.14-.2-.2-.31-.09-.19-.22-.35-.28-.58,0,0,.01-.04-.01-.02-.46.32-.46-.23-.47-.25-.07-.08-.17-.14-.2-.27-.03-.13-.17-.13-.15-.32.02-.16-.09-.18-.15-.26,0-.01-.04,0-.03-.03.07-.3-.12-1.02-.17-1.09-.01-.02.05-.11.19-.28.12-.16.17-.23.29-.39.12-.14.32-.39.42-.51.1-.13.1-.16.16-.25.06-.09.28-.34.52-.59.25-.27,1.05-1.13,1.29-1.38Z"/></g><path class="cls-4" d="M274.23,299.72c.74,3.95,4.8,7.04,8.8,6.7.87-.07,1.72-.72,1.68-1.68-.04-.84-.74-1.75-1.68-1.68-.39.03-.78.02-1.17,0-.17-.01.43.07.04,0-.08-.01-.17-.03-.25-.05-.2-.04-.39-.09-.59-.15-.18-.05-.4-.19-.57-.2.12.01.33.14.07.03-.09-.04-.18-.09-.27-.14-.35-.18-.65-.43-.99-.62l.18.14c-.05-.04-.11-.09-.16-.13-.07-.05-.13-.11-.19-.17-.14-.13-.27-.26-.4-.39-.14-.15-.26-.31-.4-.46.31.33.09.11.02.01-.06-.08-.11-.17-.17-.25-.1-.16-.19-.32-.28-.48-.04-.07-.08-.15-.11-.23-.03-.06-.06-.12-.08-.18l.09.21c-.1-.4-.26-.77-.34-1.17-.16-.86-1.25-1.43-2.06-1.17-.92.3-1.34,1.14-1.17,2.06h0Z"/><path class="cls-4" d="M198.62,192.29c-.25,0-.21-.35,0-.85.07-.16.38-.56.47-.59.17-.05.35-.1.5-.12.09,0,1.13.33,1.51.38.36.07.67.2.98.34.62.29,1.26.53,1.9.77.14.05.27.14.38.25.38.38.87.58,1.39.68.09.02.16.06.29-.02.21-.13,1.55.21,1.68.35.35.33.73.62,1.1.94.05.06.13.04.14.22.02.41.17.4.3.49.17.12.34.24.5.42.08.09.13.3.18.48.05.16-.11.61-.15.66-.13.13-.11.37-.15.57-.01.07-.03.15-.05.21-.02.1-1.49.79-1.65.79-.07.11-1.89-.3-2.1-.36-.11-.01-.19-.14-.27-.23-.04-.03-1.49-.44-1.53-.49-.26-.18-.58-.23-.73-.64-.03-.08-.09-.1-.15-.12-.48-.23-.88-.6-1.29-.94-.21-.17-.45-.29-.67-.44-.04-.03-.06-.09-.09-.13-.04-.05-.07-.12-.12-.15-.53-.34-.97-.81-1.52-1.11-.13-.07-.51-.72-.66-.79-.08-.04-.1-.53-.2-.53Z"/><path class="cls-4" d="M217.04,194.1c.17.24-.17.46-.74.7-.18.07-.74.11-.83.05-.18-.13-.36-.26-.49-.39-.08-.08-.66-1.46-.9-1.94-.25-.46-.28-.93-.34-1.4-.09-.96-.21-1.92-.26-2.89-.01-.21.01-.43.09-.64.23-.72.27-1.45.24-2.19,0-.12.03-.25-.11-.38-.23-.21-.08-2.21.06-2.45.34-.6.63-1.21.95-1.8.05-.08.02-.19.21-.24.43-.12.41-.32.48-.51.1-.26.24-.51.43-.74.09-.12.32-.21.51-.3.17-.09.64.07.69.12.14.15.39.1.6.13.07,0,.16.02.22.04.1.04.94,1.69.94,1.84,0,.02.04.58.05,1.15.04.58.04,1.17.06,1.29.02.13-.09.24-.16.36-.04.06.09,1.77.08,1.83-.08.35.03.7-.33,1.03-.07.06-.06.14-.06.21-.02.6-.21,1.2-.34,1.81-.07.31-.04.62-.07.93,0,.06-.06.11-.08.17-.03.07-.08.14-.08.21-.01.74-.18,1.48-.09,2.22,0,.17-.39,1-.35,1.2,0,.11-.43.5-.36.6Z"/></svg>