<svg viewBox="315 4.488095238095184 1282.5000000000002 1122.0238095238094" fill="none" xmlns="http://www.w3.org/2000/svg" xmlns:xlink="http://www.w3.org/1999/xlink" overflow="visible" width="1282.5000000000002px" height="1122.0238095238094px"><g id="Master/Places/Home Office"><ellipse id="Oval" opacity="0.5" cx="958.5" cy="1056.5" rx="637.5" ry="61.5" fill="#C9C9C9"/><g id="Background" opacity="0.5" transform="translate(321 111) scale(0.966183574879227 0.965556831228473)"><g id="Background/Blob 1"><path id="Fill 1" fill-rule="evenodd" clip-rule="evenodd" d="M869.49 1C892.755 1.92225 915.476 2.67306 938.178 3.75967C969.204 5.2471 998.517 13.6857 1027.26 24.1202C1037.65 27.892 1048.01 31.8411 1058.04 36.3637C1111.47 60.4322 1153.96 95.8373 1182.92 145.017C1196.72 168.458 1203.98 193.894 1207.16 220.364C1212 260.684 1207.17 300.347 1194.26 338.781C1181.75 376.012 1161.12 409.313 1133.94 438.957C1119.1 455.134 1102.72 469.583 1084.53 482.282C1056.54 501.823 1028.65 521.486 1000.6 540.943C992.91 546.281 984.676 550.916 976.904 556.152C967.836 562.263 958.608 568.242 950.137 575.042C912.903 604.937 894.836 642.935 897.166 689.279C897.985 705.586 899.121 721.882 899.723 738.196C900.311 754.163 895.143 768.634 886.072 782.031C881.844 788.278 876.618 793.53 870.612 798.222C851.124 813.448 829.093 824.465 805.695 833.154C770.656 846.164 734.397 854.918 697.266 860.622C670.55 864.726 643.741 867.97 616.719 869.629C583.069 871.694 549.42 871.303 515.808 869.28C473.355 866.723 431.188 861.708 389.258 854.931C351.623 848.847 314.023 842.549 277.042 833.48C234.792 823.121 192.917 811.586 152.869 794.89C129.06 784.963 106.557 772.934 86.36 757.268C63.4265 739.479 47.2553 717.393 38.2081 690.617C33.6782 677.21 33.1914 663.508 34.9308 649.805C39.2905 615.462 50.0133 583.102 69.9623 553.768C79.7366 539.393 91.5969 526.686 104.248 514.582C116.076 503.266 128.208 492.221 139.715 480.622C146.849 473.432 153.392 465.66 159.633 457.75C174.763 438.57 178.946 417.075 174.7 393.622C172.52 381.58 170.856 369.345 170.448 357.153C169.505 329.006 178.128 302.888 191.236 277.901C202.255 256.896 217.021 238.458 234.095 221.59C286.092 170.22 345.922 129.172 414.628 99.9958C469.985 76.4865 525.928 54.298 583.47 35.9263C614.359 26.064 646.161 19.6461 678.442 15.7443C713.601 11.4948 748.822 7.45105 784.135 4.65591C812.658 2.39875 841.36 2.13035 869.49 1" fill="#F1ECE8"/></g></g><g id="Decoration" transform="translate(205 233) scale(1 1)"><g id="Decoration/Scribbles"><path id="Fill 1" fill-rule="evenodd" clip-rule="evenodd" d="M856.044 580.832C854.228 577.016 854.231 577.052 850.313 577.217C849.245 577.26 848.164 577.025 847.091 576.894C844.316 576.554 841.809 575.328 838.783 575.495C835.73 575.663 832.398 574.688 829.563 573.392C827.796 572.585 826.398 572.415 824.554 572.49C818.014 572.757 811.806 576.392 805.042 574.374C804.442 574.194 803.651 574.703 802.941 574.839C798.821 575.621 794.529 575.761 790.831 578.106C785.97 576.71 781.901 579.924 777.359 580.428C772.741 580.942 768.803 582.905 765.397 586.122C764.409 587.056 762.86 587.856 761.54 587.9C756.326 588.07 752.686 591.198 748.919 594.132C747.235 595.443 745.38 596.681 744.109 598.34C742.404 600.569 741.246 603.207 739.751 605.607C737.517 609.198 739.593 613.831 743.834 614.546C746.985 615.079 750.171 615.439 753.287 616.121C756.756 616.881 760.115 618.766 763.663 616.207C764.139 615.865 765.315 616.502 766.169 616.67C767.032 616.84 768.317 617.439 768.697 617.082C772.006 613.982 775.508 615.943 778.991 616.385C781.064 616.648 784.45 617.358 785.026 616.455C786.401 614.293 787.598 615.496 789.062 615.436C792.626 615.285 796.323 615.251 799.686 614.239C802.762 613.313 806.116 612.017 809.079 612.167C810.111 612.219 811.372 612.178 812.17 611.645C814.888 609.824 817.66 609.021 820.875 610.06C821.505 610.264 822.6 610.334 822.926 609.971C825.54 607.041 829.38 608.024 832.546 606.893C835.277 605.919 838.739 606.527 841.104 605.127C843.883 603.484 846.513 602.863 849.577 602.705C851.098 602.627 853.316 602.115 853.919 601.058C855.328 598.586 857.634 599.223 859.525 598.734C863.254 597.769 867.117 597.329 870.856 596.398C872.419 596.01 873.808 594.926 875.278 594.16C871.734 592.301 871.204 587.671 867.16 587.605C866.82 587.599 866.296 586.869 866.188 586.401C864.94 580.989 860.673 581.102 856.044 580.832M926.373 468.226C928.58 467.317 930.442 466.672 932.182 465.789C933.242 465.25 934.736 464.503 934.97 463.58C936.187 458.779 938.801 454.869 941.857 451.104C943.366 449.244 942.733 446.436 941.019 445.844C936.657 444.339 932.564 439.95 927.268 443.633C926.712 444.02 925.556 443.737 924.742 443.522C922.817 443.012 920.689 442.718 919.092 441.662C917.196 440.407 914.877 443.443 913.432 440.756C910.695 441.953 908.332 439.688 905.748 439.891C899.77 440.36 893.885 441.905 887.805 441.303C886.823 441.206 885.522 441.529 884.795 442.155C880.582 445.777 875.372 445.85 870.304 446.704C866.283 447.382 862.272 448.422 858.441 449.807C855.28 450.951 853.576 455.287 849.262 454.157C847.741 458.571 841.829 456.769 839.981 460.718C833.671 461.67 831.352 466.339 830.178 471.219C828.855 472.595 827.367 470.668 826.285 472.954C825.069 475.526 820.796 476.565 822.427 480.703C822.449 480.758 822.152 480.913 822.041 481.051C818.745 485.111 818.348 490.175 817.309 494.996C817.1 495.957 817.357 497.199 817.822 498.092C819.99 502.256 822.289 506.353 824.591 510.447C824.83 510.873 825.348 511.321 825.809 511.42C832.218 512.793 837.632 517.71 844.702 516.729C846.447 516.487 848.225 516.454 849.955 516.137C852.921 515.591 855.704 514.534 858.852 516.141C860.945 517.211 863.434 517.849 865.638 515.114C866.935 513.503 869.419 512.701 871.51 511.904C876.36 510.056 881.406 508.686 886.161 506.632C889.627 505.135 892.813 502.943 896.016 500.893C898.214 499.487 900.299 497.879 902.308 496.21C905.474 493.581 908.609 490.908 911.608 488.093C913.533 486.287 914.836 483.379 917.049 482.426C920.437 480.962 921.543 478.663 921.531 475.599C928.546 473.881 928.395 472.8 926.373 468.226M1003.98 466.412C1005.58 470.357 1007.04 474.9 1009.25 479.039C1010.58 481.513 1012.74 483.4 1011.49 486.614C1011.2 487.341 1011.48 488.518 1011.9 489.256C1014.66 494.084 1013.54 499.352 1013.87 504.476C1014.38 512.172 1010.83 518.845 1008.86 525.916C1008.72 526.401 1008.36 526.979 1007.94 527.204C1005.27 528.629 1005.31 531.089 1005.35 532.504C1003.31 534.65 1001.74 536.145 1000.35 537.793C997.254 541.484 994.256 545.257 991.188 548.973C990.879 549.348 990.356 549.815 989.953 549.797C985.45 549.6 985.175 552.702 985.175 556.16C981.895 556.941 979.775 560.59 975.827 559.545C974.332 561.617 972.825 563.679 971.351 565.766C971.051 566.19 970.879 566.704 970.568 567.338C967.654 568.154 964.377 567.479 961.865 570.518C959.982 572.795 955.566 571.922 953.752 575.235C953.465 575.758 952.553 575.971 951.899 576.256C947.823 578.025 943.935 579.866 940.511 583.005C938.212 585.115 934.577 586.305 931.389 586.707C929.543 586.938 928.861 586.923 927.908 588.662C926.547 591.143 925.624 591.096 922.566 590.49C912.9 594.928 904.083 598.977 894.636 603.315C893.686 609.289 892.733 615.611 891.655 621.912C891.088 625.233 890.215 628.502 889.652 631.823C889.308 633.856 886.969 633.845 886.22 636.039C885.323 638.669 884.747 642.335 881.256 643.623C880.977 643.725 880.749 644.169 880.642 644.5C878.511 651.092 873.193 655.212 868.691 659.968C868.234 660.453 867.852 661.416 867.4 661.44C862.139 661.702 859.515 665.828 856.08 668.835C854.849 669.914 852.828 670.092 851.602 671.173C848.244 674.129 844.574 676.629 840.664 678.692C837.04 680.605 833.085 681.882 829.389 683.673C825.698 685.462 822.184 687.612 818.516 689.454C817.359 690.034 815.961 690.15 814.664 690.435C813.976 690.587 813.03 690.392 812.607 690.788C808.345 694.774 802.422 695.168 797.554 697.831C796.095 698.63 794.556 700.17 792.625 698.397C792.306 698.102 791.241 698.383 790.647 698.665C784.535 701.564 778.422 703.586 771.364 703.752C765.588 703.889 759.901 706.658 754.115 708.013C750.485 708.862 746.738 709.193 743.064 709.874C741.149 710.228 739.285 710.854 737.392 711.324C733.576 712.269 730.026 713.997 725.714 712.502C723.381 711.694 720.303 712.525 717.69 713.149C713.931 714.047 710.172 714.09 706.361 714.234C702.443 714.384 698.325 714.426 694.686 715.664C688.572 717.746 682.285 715.879 676.217 717.31C675.599 717.455 674.791 716.577 674.02 716.365C673.152 716.126 672.227 716.051 671.323 716.022C671.03 716.013 670.628 716.613 670.439 716.535C662.618 713.314 654.108 713.421 646.037 711.434C645.801 711.376 645.667 710.9 645.301 710.33C646.935 708.093 649.534 708.145 651.924 707.776C654.862 707.326 657.902 707.567 660.593 705.717C661.433 705.138 662.988 705.666 664.205 705.552C667.562 705.239 671.114 705.438 674.222 704.368C679.692 702.484 685.047 701.178 690.835 702.322C693.161 702.784 697.073 701.534 699.16 699.943C701.912 702.247 704.624 702.158 708.145 701.1C714.441 699.208 721.038 697.469 727.529 697.4C731.251 697.36 734.86 697.504 738.423 696.46C740.349 695.896 742.113 694.688 744.056 694.302C746.679 693.782 748.963 692.81 752.2 693.692C755.505 694.594 760.229 693.031 763.331 691.012C765.557 689.564 767.365 691.344 768.641 690.333C771.099 688.387 774.025 688.529 776.674 687.589C778.392 686.978 779.862 686.67 781.719 686.682C783.972 686.697 786.328 685.762 788.472 684.847C792.756 683.019 796.868 680.785 801.166 678.998C803.26 678.127 805.683 678.075 807.837 677.311C811.539 675.999 815.288 674.69 818.753 672.877C822.75 670.787 826.364 667.969 830.334 665.821C832.775 664.499 835.589 663.879 838.209 662.877C843.198 660.97 848.374 659.442 851.654 654.612C852.32 653.631 854.182 653.545 855.322 652.789C858.128 650.925 861.137 645.949 862.431 642.797C862.998 641.415 864.932 640.595 867.05 638.861C867.187 638.611 864.621 636.297 868.152 635.886C871.028 635.55 874.204 631.174 874.614 628.269C874.81 626.89 874.939 625.217 875.769 624.262C879.492 619.983 878.6 614.488 879.946 609.599C880.056 609.196 879.589 608.635 879.283 607.884C876.042 608.905 872.617 609.441 869.743 610.997C862.978 614.662 855.488 615.387 848.248 617.19C845.299 617.924 842.113 618.753 839.746 620.502C836.809 622.67 832.702 620.989 830.309 624.039C825.136 622.753 820.481 625.254 815.604 626.087C810.524 626.953 805.372 627.261 800.438 629.166C797.545 630.284 794.106 630.937 791.087 630.525C787.723 630.067 784.729 631.186 781.619 631.229C775.231 631.317 768.728 632.318 762.428 630.237C761.923 630.071 761.342 630.005 760.815 630.058C749.992 631.158 749.993 631.163 740.054 627.231C734.259 628.19 732.119 621.305 726.819 621.01C726.153 620.973 725.533 619.402 724.966 618.495C724.271 617.383 723.646 616.227 723.005 615.081C722.751 614.629 722.218 614.033 722.345 613.713C724.203 609.026 722.695 603.406 726.353 599.226C726.706 598.821 727.142 598.368 727.242 597.878C727.877 594.721 729.59 592.463 732.127 590.415C736.218 587.113 739.929 583.343 743.812 579.782C745.725 578.028 749.091 578.314 750.117 575.307C754.756 576.925 756.629 570.46 761.088 571.553C763.771 567.459 768.818 568.471 772.513 566.377C775.208 564.849 778.885 565.139 782.049 564.326C784.767 563.627 787.376 562.513 790.822 561.307C791.203 561.48 792.474 562.059 793.745 562.637C793.717 562.341 793.69 562.045 793.663 561.749C796.11 561.031 798.529 559.872 801.013 559.706C804.246 559.489 807.409 559.177 810.622 558.712C813.905 558.236 817.387 559.298 820.793 559.462C824.798 559.656 828.832 559.394 832.822 559.717C837.789 560.118 842.744 560.316 847.581 562.271C849.566 563.073 852.261 562.88 854.507 563.827C855.486 564.24 856.522 564.537 857.464 565.021C863.639 568.187 870.443 569.875 876.442 573.617C878.621 574.977 878.853 576.195 878.952 578.161C884.975 577.587 884.644 585.154 891.91 585.973C895.438 585.42 901.19 583.985 906.414 580.841C906.717 580.658 907.09 580.57 907.443 580.491C910.386 579.82 913.684 579.77 916.18 578.328C918.642 576.908 920.666 574.956 923.733 574.653C924.849 574.541 925.982 573.587 926.907 572.785C928.796 571.15 930.525 570.046 933.37 569.784C936.248 569.52 939.001 567.231 941.671 565.602C943.905 564.238 945.945 562.556 948.046 560.983C948.309 560.786 948.5 560.108 948.599 560.134C952.638 561.192 953.951 556.706 957.212 555.852C958.92 555.403 960.059 552.787 961.759 550.793C964.446 552.692 966.362 550.281 968.475 548.375C969.93 547.062 971.517 545.888 972.899 544.506C973.853 543.55 974.519 542.316 975.381 541.262C976.021 540.477 976.637 539.526 977.489 539.085C981.969 536.766 986.383 534.618 987.158 528.669C987.346 527.223 989.195 525.811 990.556 524.73C996.385 520.105 999.394 514.378 998.314 506.764C998.126 505.43 998.144 503.629 998.883 502.679C1001.71 499.04 999.496 495.089 999.483 491.463C999.471 488.459 996.719 485.472 995.207 482.466C994.722 481.502 993.979 480.508 993.945 479.508C993.858 476.957 992.015 475.853 990.48 474.336C989.294 473.164 988.726 471.384 987.583 470.153C984.446 466.776 981.387 463.245 977.789 460.425C976.567 459.467 974.557 459.249 973.526 457.628C973.342 457.339 972.946 456.936 972.707 456.972C967.457 457.752 964.874 452.817 960.666 451.402C960.337 451.291 959.964 451.313 959.089 451.213C956.474 455.368 953.781 459.755 950.972 464.066C949.347 466.555 947.433 468.858 945.835 471.364C944.396 473.622 943.545 476.328 941.837 478.325C938.795 481.881 935.311 485.057 931.992 488.374C931.35 489.015 930.152 489.472 930.01 490.176C929.184 494.266 925.347 495.037 922.725 497.141C922.049 497.684 921.092 498.311 920.96 499.026C920.2 503.164 916.421 504.505 913.784 506.777C911.121 509.073 908.446 511.454 904.714 512.375C902.596 512.896 900.745 514.667 898.88 516.02C896.048 518.074 893.593 520.729 889.735 520.948C888.913 520.995 888.148 521.751 887.326 522.108C883.123 523.936 879.397 527.223 874.319 526.402C868.737 530.276 861.14 528.445 855.747 532.952C855.13 533.468 853.918 533.758 853.172 533.531C851.44 533.003 849.886 531.754 848.142 531.435C846.323 531.101 844.307 531.848 842.484 531.523C839.86 531.052 837.35 529.464 834.758 529.382C829.8 529.224 825.712 527.88 821.721 524.72C817.998 521.773 814.053 519.217 810.51 515.906C807.174 512.787 807.406 508.695 805.532 505.288C804.595 503.584 803.943 501.691 803.383 499.818C802.723 497.608 801.285 495.703 803.242 492.957C804.496 491.201 803.773 488.06 804.014 485.548C804.216 483.446 804.757 481.577 805.757 479.543C808.513 473.939 810.826 468.158 815.124 463.45C815.617 462.91 815.422 461.793 815.725 461.015C816.051 460.184 816.807 458.705 817.004 458.764C819.972 459.644 820.661 457.442 821.765 455.597C822.181 454.903 823.093 454.097 823.81 454.064C826.708 453.936 828.122 451.858 829.974 450.132C832.259 448.002 834.044 444.923 837.836 444.962C838.276 444.967 838.917 444.517 839.134 444.104C840.913 440.725 844.352 440.668 847.414 439.689C849.965 438.872 852.675 437.93 854.71 436.293C856.86 434.563 858.427 432.271 861.665 433.361C861.948 433.457 862.485 433.343 862.664 433.127C866.036 429.032 871.05 430.061 875.382 429.169C881.287 427.955 887.284 427.167 893.264 426.358C895.183 426.097 897.175 426.418 899.128 426.35C900.614 426.298 902.048 427.264 903.661 425.745C904.438 425.012 906.673 425.833 908.249 425.941C911.438 426.158 914.16 427.956 917.963 426.403C920.84 425.229 925.01 427.214 928.602 427.803C932.123 428.38 935.63 429.055 939.164 429.532C942.696 430.01 946.375 429.887 949.196 432.613C951.544 432.21 952.586 430.796 953.093 428.622C954.279 423.548 955.681 418.526 956.873 413.453C957.585 410.425 957.381 407.162 959.52 404.522C959.891 404.066 959.954 402.945 959.652 402.429C957.798 399.265 960.696 396.906 961.351 394.341C961.828 392.465 962.555 391.24 961.819 389.11C961.115 387.071 961.192 384.497 961.717 382.352C963.014 377.056 963.064 371.879 961.867 366.577C961.44 364.69 961.722 362.645 961.659 360.673C961.505 355.794 960.519 351.086 959.212 346.375C957.751 341.105 960.494 336.52 965.566 334.986C966.209 334.793 967.27 334.731 967.646 335.105C971.182 338.606 976.159 340.743 975.247 347.63C974.596 352.56 976.458 357.825 977.212 362.94C977.291 363.472 977.744 364.24 977.537 364.482C974.946 367.509 976.407 371.061 976.742 374.139C977.419 380.376 975.5 386.621 977.165 392.805C977.425 393.768 977.193 394.949 976.915 395.953C975.679 400.418 974.235 404.827 973.083 409.311C972.251 412.547 971.514 415.843 971.173 419.159C970.691 423.84 969.805 428.174 966.767 432.063C964.353 435.152 966.036 439.616 969.944 440.786C973.829 441.95 977.491 443.231 980.12 446.519C980.324 446.775 980.736 446.927 981.077 447C983.698 447.56 985.701 448.822 987.423 451.03C989.112 453.195 991.467 454.844 993.565 456.678C994.481 457.478 995.398 458.365 996.475 458.875C998.328 459.755 999.791 460.59 1000.41 462.916C1000.76 464.247 1002.64 465.171 1003.98 466.412" fill="black"/><path id="Combined Shape" fill-rule="evenodd" clip-rule="evenodd" d="M240.807 171.169C240.221 170.856 239.635 170.543 239.048 170.232C239.159 170.028 239.27 169.824 239.381 169.621C238.837 169.554 238.247 169.546 237.657 169.538C236.366 169.52 235.076 169.502 234.262 168.869C231.733 166.91 228.901 165.63 226.07 164.35C224.764 163.759 223.458 163.169 222.182 162.512C218.95 160.848 215.928 160.371 212.705 162.217C211.293 165.843 211.669 168.477 214.775 171.688C216.572 173.544 218.56 174.362 220.52 175.168C221.016 175.373 221.511 175.576 222 175.796C225.725 177.464 228.838 179.963 231.96 182.47C234.239 184.3 236.523 186.133 239.052 187.649C240.749 188.667 242.578 189.521 244.416 190.379C248.712 192.386 253.056 194.415 255.882 198.608C258.158 198.335 259.018 199.96 259.574 201.011C259.721 201.288 259.846 201.525 259.971 201.677C261.029 201.699 261.979 201.689 262.853 201.68C264.587 201.662 266.024 201.647 267.414 201.892C270.931 202.508 274.337 202.384 278.254 201.76C277.639 200.565 277.191 199.321 276.755 198.108C275.662 195.069 274.637 192.22 271.207 190.811C270.436 190.494 269.795 189.663 269.291 188.932C267.278 186.014 265.31 184.868 261.212 183.999C259.83 183.705 258.221 183.227 257.298 182.271C256.328 181.264 255.077 180.629 253.821 179.992C251.84 178.986 249.848 177.975 248.933 175.493C248.661 174.756 247.526 174.344 246.38 173.929C245.825 173.727 245.266 173.525 244.803 173.284C243.466 172.588 242.137 171.879 240.807 171.169ZM269.432 248.629L269.43 248.63C264.895 250.292 260.5 251.902 255.389 249.526C253.129 248.476 250.709 247.773 248.074 247.007L248.074 247.007L248.074 247.007C246.82 246.643 245.518 246.265 244.161 245.828C244.064 245.41 243.751 244.059 243.435 242.701C239.821 242.887 237.04 241.162 234.313 239.471C233.892 239.21 233.471 238.949 233.049 238.697C232.551 238.398 232.058 238.092 231.567 237.787L231.567 237.787C228.889 236.122 226.255 234.485 222.892 234.21C221.37 234.087 219.756 233.222 218.483 232.289C215.455 230.07 212.333 228.794 208.446 228.51C206.981 228.403 205.599 227.459 204.195 226.501C203.356 225.928 202.51 225.351 201.633 224.943C199.984 224.176 198.266 223.558 196.471 222.912L196.471 222.912C195.661 222.62 194.835 222.323 193.992 222.005C193.927 221.779 193.878 221.5 193.824 221.197C193.689 220.436 193.526 219.519 193.015 218.881C190.534 215.784 192.432 212.963 194.164 211.076C195.278 209.862 197.497 209.554 199.525 209.272C199.93 209.215 200.328 209.16 200.707 209.099C201.807 208.921 203.331 209.233 204.164 209.924C207.048 212.314 210.406 213.166 213.833 214.034L213.833 214.035C214.638 214.239 215.447 214.444 216.254 214.67C216.854 214.838 217.451 215.016 218.048 215.195C219.943 215.761 221.838 216.328 223.833 216.561C224.354 216.621 225.155 216.799 225.304 217.148C226.741 220.507 229.608 221.236 232.561 221.987C233.129 222.132 233.699 222.277 234.263 222.442C235.547 222.816 236.693 223.655 237.842 224.496L237.842 224.496C238.412 224.913 238.982 225.331 239.571 225.693C239.862 225.872 240.15 226.095 240.437 226.318C241.742 227.332 243.032 228.334 244.563 225.087C247.073 230.173 250.781 231.824 255.104 233.094C258.565 234.11 261.797 235.889 264.52 238.795C264.841 239.137 265.147 239.459 265.438 239.766L265.44 239.768C267.985 242.449 269.447 243.989 270.752 248.149C270.31 248.307 269.87 248.469 269.432 248.629ZM184.791 274.388C185.024 271.074 187.289 269.149 189.848 268.114C191.976 267.252 194.568 267.294 196.947 267.342C202.213 267.451 207.477 267.753 212.732 268.126C213.395 268.172 214.037 268.446 214.683 268.721C215.206 268.943 215.732 269.167 216.274 269.273C216.411 269.3 216.55 269.327 216.69 269.355C217.948 269.607 219.303 269.879 220.45 269.563C224.575 268.425 228.472 268.793 232.415 270.322C233.98 270.929 235.707 271.171 237.393 271.408L237.665 271.446C238.513 271.566 239.383 271.605 240.25 271.644L240.25 271.644C241.703 271.709 243.15 271.774 244.475 272.22C245.571 272.588 246.687 272.925 247.804 273.262L247.804 273.262C252.913 274.806 258.047 276.357 261.459 280.961C261.385 281.201 261.336 281.428 261.293 281.624L261.293 281.625C261.218 281.971 261.164 282.22 261.034 282.269C260.047 282.648 259.067 283.053 258.087 283.457C253.161 285.491 248.237 287.524 242.563 286.237C241.85 286.075 241.071 286.232 240.285 286.39C239.811 286.486 239.336 286.581 238.87 286.609L238.827 286.611C237.851 286.669 236.826 286.729 235.9 286.49C234.91 286.235 233.932 285.923 232.954 285.612L232.954 285.612C231.297 285.085 229.643 284.558 227.945 284.31C227.281 284.213 226.519 284.787 225.63 285.457C225.185 285.792 224.708 286.151 224.195 286.462C223.832 286.291 223.465 286.11 223.095 285.928C220.182 284.494 217.022 282.938 212.992 284.585C211.312 285.272 209.148 284.881 207.074 284.506L207.074 284.506C206.514 284.404 205.96 284.304 205.425 284.227C204.806 284.137 204.317 283.141 204.313 283.069L204.321 283.07C204.316 283.063 204.313 283.063 204.313 283.069L188.419 281.117C187.477 279.371 186.21 277.022 184.791 274.388Z" fill="#D08F52"/><path id="Combined Shape_2" fill-rule="evenodd" clip-rule="evenodd" d="M737.303 204.197C742.184 197.492 745.158 190.534 744.912 182.644C744.714 182.491 744.573 182.369 744.466 182.275L744.465 182.275L744.465 182.275C744.299 182.13 744.214 182.057 744.125 182.051C743.424 182.009 742.717 181.982 742.016 182.014C736.968 182.236 736.137 183.061 735.361 188.303C735.266 188.947 735.088 189.581 734.911 190.214C734.698 190.973 734.486 191.73 734.417 192.502C734.051 196.579 734.219 200.57 737.303 204.197ZM763.786 222.086C761.225 216.559 759.373 211.346 761.42 205.361C762.033 203.569 762.34 201.672 762.669 199.646C762.824 198.687 762.984 197.699 763.184 196.679C763.528 196.599 763.903 196.446 764.302 196.285C765.653 195.737 767.275 195.08 768.886 196.707C770.922 198.764 771.333 201.277 770.577 204.109C770.192 205.548 769.893 207.018 769.592 208.493L769.592 208.493L769.592 208.494C768.623 213.245 767.642 218.054 763.786 222.086ZM626.042 272.465C622.794 267.616 620.423 262.519 621.688 256.27C621.958 254.933 622.147 253.58 622.336 252.227L622.336 252.227C622.486 251.154 622.636 250.08 622.827 249.015C623.237 246.726 624.057 244.756 626.989 245.189C629.644 245.581 630.881 247.193 630.828 250.133C630.807 251.287 630.814 252.444 630.821 253.602V253.603C630.838 256.356 630.855 259.109 630.498 261.812C630.168 264.303 629.449 266.743 628.729 269.182L628.729 269.182L628.729 269.182C628.413 270.256 628.096 271.33 627.813 272.408L626.042 272.465ZM700.156 264.577C698.981 261.261 697.946 258.34 696.65 254.679C695.812 255.517 694.806 256.136 693.837 256.732C691.52 258.157 689.417 259.451 690.335 263.286C690.475 263.874 690.175 264.562 689.872 265.257C689.715 265.617 689.557 265.979 689.459 266.33C689.173 267.356 688.871 268.38 688.57 269.403L688.57 269.403L688.57 269.403L688.57 269.404L688.57 269.404L688.57 269.404L688.57 269.404L688.569 269.404L688.569 269.404L688.569 269.405L688.569 269.405L688.569 269.405L688.569 269.405L688.569 269.405L688.569 269.406L688.569 269.406L688.569 269.406L688.569 269.406L688.569 269.406L688.569 269.406L688.569 269.407L688.569 269.407L688.569 269.407L688.569 269.407L688.569 269.407L688.569 269.408L688.569 269.408L688.569 269.408L688.569 269.408L688.568 269.408L688.568 269.408L688.568 269.409L688.568 269.409L688.568 269.409L688.568 269.409L688.568 269.409L688.568 269.41L688.568 269.41L688.568 269.41L688.568 269.41L688.568 269.41C687.775 272.102 686.982 274.795 686.461 277.538C686.206 278.876 686.411 280.301 686.605 281.65L686.605 281.65C686.69 282.238 686.772 282.811 686.814 283.356C691.382 284.196 693.337 281.822 694.573 278.972C696.062 275.535 697.371 272.019 698.624 268.654L698.624 268.653L698.625 268.65L698.628 268.644L698.628 268.643C699.144 267.257 699.65 265.896 700.156 264.577ZM746.36 281.96C746.177 281.913 746.004 281.868 745.843 281.835C743.725 286.337 741.914 290.712 743.138 295.711C743.372 296.669 743.22 298.14 742.619 298.817C739.92 301.86 740.361 305.203 740.8 308.536C740.982 309.919 741.165 311.301 741.122 312.659C741.099 313.399 741.322 314.146 741.574 314.992C741.701 315.416 741.835 315.865 741.948 316.35C745.657 314.535 747.66 311.693 748.799 308.624C751.469 301.429 753.507 294.04 752.496 286.178C752.137 283.381 751.011 282.35 747.767 282.217C747.278 282.197 746.792 282.072 746.36 281.96ZM835.184 344.253C832.995 339.815 831.905 336.145 833.125 331.169L833.277 330.55C834.516 325.51 835.803 320.275 835.766 314.852C835.753 312.885 836.598 310.912 837.457 308.907C837.848 307.992 838.243 307.071 838.56 306.14C838.711 306.128 838.871 306.114 839.038 306.1L839.268 306.081L839.269 306.081L839.27 306.081C839.934 306.024 840.695 305.959 841.456 305.913C845.01 305.697 845.752 306.565 845.946 310.043C846.18 314.262 844.82 318.06 843.46 321.857C842.83 323.618 842.2 325.379 841.728 327.181C841.602 327.664 841.452 328.132 841.303 328.597C840.774 330.248 840.259 331.854 840.886 333.896C841.765 336.756 839.848 339.534 835.184 344.253ZM692.462 391.016C697.002 394.447 697.801 396.953 696.588 401.364C694.92 407.43 693.255 413.516 692.066 419.686C691.421 423.031 689.804 425.508 687.847 427.922C687.633 427.834 687.429 427.772 687.251 427.718L687.251 427.718C686.931 427.621 686.693 427.548 686.625 427.399C684.619 422.945 684.507 413.141 685.745 408.8C686.8 405.103 687.416 401.21 687.637 397.37C687.785 394.784 689.327 393.562 690.991 392.244L690.991 392.244C691.481 391.855 691.983 391.458 692.462 391.016ZM686.906 301.387C693.923 302.486 693.928 306.765 691.962 311.704C691.758 312.217 691.548 312.725 691.339 313.232C689.993 316.492 688.681 319.672 689.068 323.512C689.189 324.718 688.235 326.039 687.287 327.351L687.287 327.351C686.878 327.917 686.47 328.481 686.151 329.033C685.289 330.523 684.41 332.003 683.401 333.701L683.398 333.706L683.397 333.708L683.388 333.724L683.383 333.731C682.904 334.538 682.395 335.395 681.845 336.325C678.472 328.682 677.654 322.211 681.588 315.561C682.739 313.615 683.692 311.105 683.539 308.938C683.311 305.701 684.468 303.519 686.906 301.387ZM752.126 372.136C752.126 370.328 752.005 368.613 751.891 366.995C751.656 363.644 751.45 360.708 752.405 358.218C753.322 355.827 753.867 353.365 754.409 350.915C754.985 348.311 755.558 345.72 756.573 343.245C756.973 342.272 757.604 341.174 758.447 340.661C759.384 340.094 760.863 339.675 761.782 340.031C762.725 340.395 763.972 341.844 763.887 342.698C763.76 343.966 763.658 345.239 763.555 346.511C763.123 351.881 762.689 357.254 760.474 362.348C759.148 365.396 756.93 367.513 754.303 370.022L754.303 370.022L754.303 370.023L754.3 370.026L754.299 370.026C753.601 370.694 752.873 371.388 752.126 372.136ZM839.589 389.784C836.758 396.404 835.674 402.723 840.842 409.474C847.52 401.245 848.024 391.971 848.519 382.86L848.519 382.855C848.585 381.628 848.652 380.403 848.733 379.185C845.928 377.791 844.469 378.37 842.962 380.256C841.55 382.024 841.096 384.075 840.645 386.108C840.367 387.364 840.09 388.613 839.589 389.784ZM595.915 450.601C598.573 455.095 598.886 459.88 597.529 464.866C597.026 466.715 597.054 468.652 597.082 470.588C597.128 473.701 597.173 476.811 595.011 479.548C590.859 478.198 587.375 472.658 588.985 468.515C589.979 465.958 589.513 464.108 588.832 461.876C586.883 455.493 588.747 452.479 595.915 450.601ZM647.024 504.875C646.926 508.452 646.819 512.326 651.46 514.828C651.897 513.772 652.295 512.763 652.679 511.792C653.482 509.758 654.219 507.889 655.116 506.1C656.919 502.502 656.799 498.731 656.678 494.964C656.617 493.073 656.557 491.183 656.74 489.316C657.053 486.125 654.13 484.657 651.089 486.039C650.275 486.408 649.572 487.018 649.092 487.433L649.092 487.434C648.929 487.575 648.792 487.694 648.686 487.773C648.686 488.453 648.703 489.062 648.719 489.622C648.75 490.719 648.776 491.627 648.656 492.516C648.478 493.828 648.227 495.138 647.976 496.446C647.521 498.822 647.066 501.194 647.051 503.572C647.048 504 647.036 504.435 647.024 504.875ZM714.172 536.696C713.97 535.982 713.735 535.311 713.51 534.668C713.041 533.328 712.616 532.114 712.631 530.904C712.668 527.69 713.017 524.423 713.725 521.289L713.805 520.933C714.577 517.523 715.326 514.215 714.779 510.636C714.36 507.901 715.666 507.056 718.268 507.653C721.631 508.424 723.381 510.701 724.322 513.853C721.599 517.977 721.078 522.685 721.042 527.535C721.006 532.279 719.678 534.184 714.172 536.696ZM654.455 284.46C654.076 284.628 653.702 284.793 653.328 284.917C652.908 286.517 652.426 288.097 651.948 289.665C650.838 293.3 649.747 296.874 649.501 300.506C649.47 300.964 649.424 301.44 649.377 301.928V301.928L649.377 301.928L649.377 301.929C649.052 305.297 648.671 309.247 652.727 311.834C652.939 311.585 653.152 311.338 653.366 311.091C655.285 308.876 657.189 306.677 657.429 303.629C657.761 299.399 659.378 295.691 661.301 292.028C663.162 288.48 662.633 287.42 659.527 284.78C657.547 283.097 655.959 283.797 654.455 284.46ZM773.621 394.12L773.622 394.12C774.087 395.353 774.559 396.603 774.311 397.687C772.954 403.613 771.276 409.484 769.334 415.247C768.901 416.534 767.96 417.65 766.861 418.952C766.308 419.608 765.715 420.311 765.127 421.107C764.735 420.65 764.313 420.245 763.921 419.869L763.921 419.869C763.15 419.129 762.495 418.501 762.411 417.803C762.341 417.214 762.253 416.627 762.166 416.04L762.166 416.039C761.716 413.014 761.267 409.996 763.1 406.899C764.02 405.346 764.449 403.516 764.88 401.675L764.88 401.675C765.153 400.509 765.428 399.339 765.828 398.232C766.846 395.42 767.967 392.5 773.057 392.461C773.198 392.999 773.409 393.558 773.621 394.12ZM564.582 338.754C568.998 329.209 573.185 320.158 569.635 309.233C565.684 310.442 562.764 312.94 562.718 315.865C562.685 317.952 562.176 319.799 561.669 321.636C561.397 322.621 561.126 323.603 560.929 324.617C560.837 325.092 560.73 325.577 560.622 326.066C560.183 328.049 559.728 330.103 560.199 331.868C560.376 332.529 560.489 333.228 560.606 333.946C560.968 336.166 561.36 338.574 563.722 340.616C564.008 339.993 564.295 339.373 564.582 338.754ZM803.866 362.603C800.114 357.272 800.113 351.756 803.448 334.458C808.742 333.634 811.255 335.79 810.765 341.484C810.348 346.342 809.559 351.233 808.262 355.924C807.813 357.548 806.672 358.979 805.483 360.47C804.933 361.16 804.372 361.862 803.866 362.603ZM714.13 304.54C714.667 302.981 715.208 301.409 715.78 299.831C715.559 299.596 715.346 299.347 715.131 299.097C714.658 298.546 714.18 297.989 713.606 297.561C711.028 295.638 706.169 297.082 705.846 300.253C705.493 303.725 704.246 306.844 703.014 309.926C702.343 311.603 701.677 313.268 701.162 314.974L701.653 316.106C702.419 317.874 703.219 319.719 704.274 322.154C704.974 321.36 705.7 320.637 706.399 319.941C707.86 318.484 709.204 317.145 709.944 315.53C711.563 311.997 712.834 308.305 714.13 304.54ZM789.261 445.934C790.829 442.101 789.777 438.942 787.944 435.349C783.806 436.081 781.859 438.209 781.671 442.041C781.6 443.467 781.493 445.056 780.834 446.259C777.687 451.999 779.358 457.18 782.485 463.218C783.146 462.279 783.868 461.465 784.562 460.682C786.225 458.805 787.728 457.11 787.842 454.317C787.957 451.495 788.212 448.501 789.261 445.934ZM747.548 468.582C747.018 467.135 746.356 465.865 745.73 464.665C744.376 462.068 743.197 459.808 743.919 456.827C744.246 455.473 744.142 453.891 743.805 452.52C742.496 447.196 744.925 443.697 749.145 440.63C752.469 443.385 755.268 445.839 752.497 450.623C751.626 452.127 751.326 454.613 751.934 456.203C753.273 459.704 751.727 461.918 749.982 464.416C749.108 465.668 748.184 466.991 747.548 468.582ZM809.657 398.27C809.744 396.928 809.837 395.518 809.953 394.011C809.949 394.001 809.941 393.975 809.928 393.934L809.928 393.933C809.842 393.663 809.559 392.771 809.188 391.917C809.117 391.754 809.049 391.583 808.98 391.41L808.979 391.409L808.979 391.407L808.979 391.407L808.978 391.406L808.978 391.405L808.977 391.403L808.976 391.401C808.497 390.199 807.972 388.881 806.299 389.416C805.071 389.808 803.988 390.851 803.025 391.792C802.697 392.112 802.591 392.67 802.488 393.217C802.45 393.417 802.413 393.615 802.365 393.8C802.316 393.989 802.267 394.178 802.218 394.368L802.048 395.022L802.047 395.023C801.616 396.681 801.185 398.338 800.809 400.008C800.591 400.974 800.298 401.928 800.004 402.882L800.004 402.883L800.004 402.883L800.004 402.883L800.004 402.883L800.004 402.883L800.004 402.884L800.004 402.884L800.004 402.884L800.004 402.884L800.004 402.884L800.004 402.884L800.004 402.885L800.004 402.885L800.004 402.885L800.004 402.885L800.003 402.885L800.003 402.886L800.003 402.886L800.003 402.886L800.003 402.886L800.003 402.886L800.003 402.886L800.003 402.887L800.003 402.887L800.003 402.887L800.003 402.887C799.216 405.446 798.429 408.006 799.097 410.791C799.653 413.116 801.37 414.022 803.56 413.097C806.59 411.819 808.527 409.503 808.958 406.283C809.299 403.732 809.468 401.158 809.657 398.27ZM652.472 446.162C652.534 448.516 652.599 450.964 652.008 453.522C652.859 453.427 653.62 453.408 654.273 453.391H654.274H654.274C655.436 453.36 656.254 453.339 656.621 452.921C656.89 452.616 657.169 452.311 657.449 452.005C659.581 449.67 661.815 447.225 660.738 443.598C659.804 440.45 660.941 438.111 662.759 436.26C662.636 435.746 662.544 435.261 662.457 434.803L662.457 434.803L662.457 434.803C662.279 433.865 662.123 433.042 661.761 432.322C660.863 430.533 659.633 428.676 657.273 429.154C654.771 429.661 654.144 431.733 654.174 434.046C654.178 434.312 654.211 434.596 654.244 434.881C654.319 435.528 654.395 436.179 654.127 436.62C652.3 439.641 652.384 442.806 652.472 446.162ZM613.394 321.484C605.154 312.327 604.177 301.108 611.262 294.248C611.556 294.552 611.909 294.842 612.262 295.132L612.262 295.132L612.262 295.133L612.262 295.133L612.262 295.133L612.262 295.133L612.262 295.133L612.262 295.133L612.262 295.133L612.263 295.133L612.263 295.133L612.263 295.133L612.263 295.133L612.263 295.133L612.263 295.133L612.263 295.133L612.263 295.133L612.263 295.133L612.263 295.133L612.263 295.133L612.263 295.133L612.263 295.133L612.263 295.133L612.263 295.133C613.028 295.762 613.792 296.391 613.957 297.15C615.64 304.906 616.715 312.729 614.43 320.58C614.377 320.761 614.181 320.9 613.911 321.092C613.758 321.2 613.582 321.325 613.394 321.484ZM726.59 384.228C722.726 389.146 724.494 393.499 727.336 398.281C731.959 396.483 734.351 393.835 733.7 388.919C733.533 387.656 734.084 386.251 734.603 384.931C734.696 384.694 734.789 384.459 734.876 384.228C736.75 379.242 736.435 378.235 731.379 374.915L729.453 376.281L728.055 377.272L726.712 378.225C726.712 379.139 726.796 380.009 726.873 380.8C727.019 382.309 727.138 383.531 726.59 384.228ZM657.08 208.871C662.569 205.984 664.144 206.483 664.02 212.413C664.004 213.181 664.004 213.959 664.003 214.742C664.002 219.438 664 224.313 660.596 228.423C659.916 229.243 659.661 230.416 659.356 231.824L659.356 231.824C659.2 232.548 659.029 233.334 658.781 234.166C653.724 228.137 654.902 222.13 656.073 216.154C656.55 213.721 657.026 211.293 657.08 208.871ZM819.962 272.501C818.556 279.051 818.534 285.583 821.93 292.288C822.334 291.486 822.7 290.722 823.05 289.99C823.776 288.476 824.437 287.098 825.228 285.799C827.568 281.961 827.93 277.702 828.291 273.457L828.291 273.456C828.4 272.172 828.51 270.889 828.673 269.62C828.8 268.636 827.393 266.998 826.303 266.469C825.528 266.092 823.734 266.741 823.034 267.512C821.731 268.944 820.352 270.684 819.962 272.501ZM824.929 473.265L822.401 474.344C821.519 474.721 820.597 475.114 819.709 475.494C816.14 472.545 816.744 469.226 817.337 465.964C817.517 464.971 817.697 463.984 817.757 463.014C818.01 458.964 819.527 455.746 823.928 454.555C827.955 455.903 827.663 459.343 827.208 462.572C826.873 464.952 826.318 467.301 825.729 469.792C825.464 470.916 825.191 472.068 824.929 473.265ZM748.644 503.815L748.009 502.56C742.056 505.671 741.537 510.431 741.039 515C740.876 516.497 740.715 517.973 740.365 519.365C739.555 522.593 744.104 526.163 746.025 524.372C747.734 522.779 749.168 520.397 749.681 518.127C750.302 515.375 750.472 512.521 750.608 510.238C750.657 509.406 750.702 508.65 750.762 508.002C749.911 506.317 749.24 504.991 748.644 503.815ZM786.826 516.698C785.162 513.335 785.916 510.001 786.659 506.719C787.21 504.284 787.755 501.877 787.302 499.506C787.679 499.101 788.035 498.693 788.384 498.292C789.145 497.419 789.874 496.581 790.724 495.891C792.68 494.303 794.49 494.759 795.463 497.103C797.715 502.535 795.202 515.489 786.826 516.698ZM701.147 461.891C707.224 462.032 708.736 463.431 708.278 468.894C708.261 469.101 708.244 469.308 708.227 469.516C708.212 469.698 708.198 469.88 708.184 470.062C707.765 475.325 707.34 480.675 702.861 484.953C702.647 484.795 702.402 484.651 702.159 484.508C701.635 484.201 701.117 483.897 700.919 483.452C699.144 479.438 699.281 471.335 701.147 461.891ZM675.598 368.555C676.196 365.991 676.79 363.444 677.695 360.98C677.229 360.795 676.847 360.642 676.516 360.509L676.512 360.508C675.942 360.279 675.526 360.112 675.107 359.954C669.933 358.003 668.276 359.121 668.047 364.61C667.988 366.032 667.921 367.53 667.444 368.843C666.018 372.769 667.305 376.323 668.724 379.852C668.938 380.384 669.422 380.807 669.934 381.255C670.179 381.469 670.43 381.689 670.662 381.929C673.474 377.662 674.542 373.082 675.598 368.555ZM700.464 347.191L700.498 347.141C701.358 345.852 702.197 344.596 703.128 343.202C704.162 343.616 705.444 344.129 706.852 344.693L708.092 345.19C707.926 346.678 707.785 348.15 707.645 349.608L707.645 349.609L707.645 349.61L707.645 349.611C707.299 353.213 706.961 356.728 706.283 360.175C706.039 361.414 705.084 362.514 704.063 363.691C703.575 364.252 703.072 364.832 702.624 365.452C700.791 364.583 699.372 363.911 697.385 362.97C697.488 362.413 697.552 361.83 697.616 361.244L697.616 361.244L697.616 361.243L697.616 361.243L697.616 361.243C697.759 359.936 697.904 358.616 698.488 357.533C700.056 354.624 700.523 351.909 698.941 349.473L699.596 348.492L700.464 347.191ZM647.519 347.005C647.414 343.836 646.042 341.864 642.252 341.719C635.427 349.811 635.088 355.561 641.13 361.755C646.943 358.43 647.715 352.939 647.519 347.005ZM632.64 409.058C634.541 403.585 636.081 399.153 637.815 394.163C639.342 394.681 640.721 395.148 642.351 395.7L642.357 395.702L644.149 396.31C643.935 397.368 643.729 398.408 643.526 399.433C643.057 401.805 642.603 404.101 642.087 406.384C641.878 407.31 641.603 408.222 641.327 409.134L641.327 409.134C640.979 410.289 640.63 411.443 640.417 412.623C639.946 415.234 638.396 416.281 635.973 416.425C633.217 414.942 633.002 412.444 632.838 410.547C632.789 409.984 632.745 409.473 632.64 409.058ZM730.292 415.201C730.388 412.542 728.938 410.398 725.187 410.619C724.93 411.059 724.619 411.509 724.298 411.975L724.298 411.975C723.556 413.051 722.759 414.207 722.44 415.481C722.222 416.353 721.962 417.226 721.7 418.102C720.642 421.646 719.571 425.233 721.284 428.949C721.809 430.088 723.191 431.713 724.024 431.626C725.302 431.493 726.878 430.325 727.571 429.15C729.953 425.104 730.111 420.473 730.266 415.958V415.958L730.276 415.669C730.281 415.513 730.287 415.357 730.292 415.201ZM700.412 205.785C700.943 205.749 701.451 205.696 701.941 205.644C702.974 205.536 703.932 205.436 704.873 205.517C707.679 205.76 709.886 207.965 709.184 210.612C708.927 211.582 708.693 212.564 708.457 213.551L708.457 213.552L708.457 213.552L708.457 213.553L708.456 213.554L708.456 213.554C707.335 218.256 706.184 223.078 702.423 227.262C698.188 222.172 698.987 216.947 699.783 211.749V211.749V211.748V211.748V211.748L699.783 211.748L699.783 211.747C700.088 209.753 700.392 207.763 700.412 205.785ZM727.282 256.801L728.695 260.154C732.253 255.363 733.088 250.157 733.914 245.01C734.24 242.981 734.564 240.961 735.053 238.979C734.358 238.439 733.64 237.881 732.931 237.33L732.135 236.71L731.501 236.217C731.074 236.479 730.635 236.73 730.193 236.983L730.193 236.983C729.135 237.59 728.065 238.204 727.119 238.971C726.375 239.574 725.791 240.635 725.582 241.589C725.194 243.352 724.929 245.143 724.639 247.097L724.639 247.098L724.639 247.098L724.639 247.098L724.639 247.099L724.639 247.099L724.639 247.099L724.639 247.1L724.639 247.101L724.639 247.101C724.519 247.909 724.395 248.744 724.257 249.617C725.137 251.707 726.145 254.1 727.282 256.801ZM675.164 243.58C677.392 250.649 676.711 256.891 670.116 266.232C666.063 262.106 666.631 257.305 667.187 252.606C667.32 251.488 667.451 250.376 667.52 249.28C667.688 246.598 671.838 243.854 675.164 243.58ZM600.754 363.288C599.65 368.536 598.523 373.888 602.442 379.453C606.536 374.38 608.329 369.227 608.668 363.223C609.026 356.869 607.71 355.411 601.708 357.584C601.557 359.475 601.157 361.375 600.754 363.288ZM852.902 467.856C849.62 464.248 848.925 460.536 850.678 456.305C851.284 454.841 851.763 453.313 852.151 451.776C852.815 449.142 854.959 447.036 856.745 447.414C858.284 447.741 860.931 451.187 860.308 452.987C859.866 454.267 859.553 455.612 859.237 456.968C858.3 460.999 857.341 465.122 852.902 467.856ZM605.356 423.977C604.992 425.222 604.631 426.457 604.17 427.65C604.439 428.123 604.703 428.568 604.956 428.995L604.956 428.996C605.479 429.877 605.959 430.687 606.367 431.533C607.858 434.625 609.334 434.967 611.435 432.4C612.293 431.351 612.877 429.945 613.188 428.609C613.64 426.665 613.961 424.69 614.291 422.651C614.43 421.794 614.571 420.925 614.725 420.043C613.523 418.126 612.245 416.087 610.892 413.926C607.443 416.834 606.389 420.442 605.356 423.977ZM786.558 263.722C786.151 263.21 785.793 262.809 785.491 262.47C784.966 261.883 784.608 261.483 784.454 261.016C782.714 255.751 783.235 250.546 785.196 245.453C786.006 243.348 788.177 242.425 790.54 243.143C793.011 243.893 793.014 245.25 792.29 247.686C791.887 249.044 791.703 250.461 791.518 251.883C791.206 254.291 790.892 256.71 789.506 258.871C788.951 259.737 788.422 260.621 787.757 261.731C787.404 262.32 787.012 262.973 786.558 263.722ZM778.417 309.677C783.452 306.755 787.053 296.449 785.045 290.485C784.76 290.465 784.472 290.439 784.183 290.414L784.182 290.414C781.561 290.181 778.824 289.938 777.944 293.443L777.891 293.653C776.552 298.988 775.186 304.431 778.417 309.677ZM575.944 414.643C575.564 414.133 575.143 413.639 574.723 413.144C573.782 412.037 572.84 410.93 572.352 409.651C571.366 407.064 570.802 404.23 570.578 401.459C570.385 399.065 571.96 397.857 573.522 396.659C574.226 396.119 574.927 395.581 575.463 394.938C578.982 395.122 580.075 398.059 579.964 400.161C579.786 403.517 579.097 406.846 578.408 410.175C578.129 411.528 577.849 412.881 577.603 414.236L576.932 414.4C576.603 414.481 576.274 414.562 575.944 414.643ZM734.818 345.335L735.279 345.129C735.463 344.506 735.664 343.883 735.866 343.262C737.166 339.249 738.445 335.303 734.65 331.61C730.855 331.272 728.234 333.38 727.454 336.538C726.677 339.676 728.104 342.516 729.576 345.444C729.879 346.048 730.185 346.656 730.473 347.271C732.239 346.484 733.562 345.895 734.818 345.335Z" fill="#A1483A"/></g></g><g id="Chair" transform="translate(372 525) scale(1 1)"><g id="Chair/Comfy Chair"><path id="Fill" fill-rule="evenodd" clip-rule="evenodd" d="M15.5204 117.427C15.5204 117.427 -2.50681 128.273 3.50227 160.18C9.51135 192.088 87.716 349.995 87.716 349.995L112.226 400.089L119.935 403.425L121.947 418.176L135.676 420.191L87.716 543.512L103.582 551.934L156.498 422.66L309.972 421.948L398.595 415.303L403.005 429.949L433.221 481.615L485.916 561L492 554.781L457.458 490.087L415.015 414.187L426.002 411.808V400.089L440.837 393.559L447.529 369.809L451.091 324.234C451.091 324.234 448.759 320.568 439.711 315.182C430.663 309.795 285.898 305.259 285.898 305.259C285.898 305.259 281.578 297.071 276.831 280.899C272.272 265.367 267.492 242.354 257.471 217.691C248.797 196.342 232.18 153.794 218.823 128.134C213.178 117.29 201.726 112 188.133 112C52.7511 112 15.5204 117.427 15.5204 117.427Z" fill="white"/><path id="Stroke" fill-rule="evenodd" clip-rule="evenodd" d="M486.423 558.162C476.841 550.631 408.283 438.914 402.944 421.988C403.831 422.041 404.747 422.091 405.676 422.142C409.609 422.359 413.789 422.589 417.104 423.076C417.104 423.076 418.461 424.652 419.163 425.922C423.036 432.936 426.855 439.98 430.674 447.023C433.603 452.426 436.532 457.83 439.486 463.219C448.45 479.571 457.433 495.913 466.416 512.255C472.473 523.274 478.529 534.292 484.58 545.314C484.665 545.469 484.751 545.624 484.836 545.78C485.974 547.85 487.117 549.929 488.048 552.094C489.065 554.458 488.83 556.65 486.423 558.162ZM147.696 428.931C149.624 428.473 151.504 428.027 153.447 427.709C153.243 428.442 152.634 429.376 152.168 430.091C151.933 430.451 151.735 430.756 151.643 430.951C142.241 450.866 134.522 471.45 126.803 492.034C124.085 499.283 121.366 506.531 118.575 513.751C115.615 521.405 112.276 528.912 108.937 536.418C107.635 539.346 106.332 542.274 105.052 545.211C104.779 545.837 104.357 546.397 103.829 547.101C103.547 547.476 103.234 547.891 102.898 548.378C101.147 547.861 99.3916 547.343 97.5785 546.808C95.5568 546.211 93.4628 545.592 91.2214 544.93C91.4539 544.118 91.6529 543.363 91.8405 542.652C92.2125 541.241 92.54 540 92.9964 538.807C94.0719 536.002 95.1464 533.195 96.2209 530.389C101.497 516.608 106.774 502.827 112.18 489.098C115.481 480.715 118.841 472.357 122.201 463.998C125.941 454.697 129.68 445.396 133.336 436.063L133.348 436.033C133.956 434.48 134.771 432.401 135.67 431.468C135.67 431.468 138.304 430.4 140.701 430.376C143.209 429.996 145.485 429.456 147.696 428.931ZM423.726 403.478C423.801 404.927 423.867 406.197 423.939 407.599C424.019 409.145 422.875 410.483 421.335 410.654C419.632 410.843 417.955 411.033 416.299 411.221C410.778 411.848 405.482 412.449 400.173 412.894C395.905 413.253 391.638 413.616 387.371 413.98C369.565 415.498 351.758 417.017 333.926 418.137C320.336 418.991 306.702 419.24 293.077 419.49C291.265 419.523 289.452 419.556 287.639 419.591C268.752 419.951 249.861 420.308 230.973 420.217C209.148 420.112 187.323 419.782 165.499 419.452C160.073 419.37 154.647 419.288 149.221 419.209C144.06 419.134 135.623 418.812 130.469 418.533C123.889 418.176 123.496 417.675 122.901 410.9C122.858 410.397 122.83 409.65 122.801 408.86C122.779 408.255 122.755 407.625 122.723 407.06C123.371 407.028 123.971 407.248 124.526 407.451C124.809 407.555 125.08 407.655 125.341 407.715C139.805 411.051 154.541 412.113 169.285 413.175L170.153 413.238C194.557 414.997 218.914 413.75 243.28 412.503C244.675 412.432 246.07 412.361 247.466 412.29C254.657 411.925 261.856 411.694 269.054 411.462C276.199 411.233 283.343 411.003 290.481 410.643C303.641 409.977 316.797 409.214 329.952 408.451C339.456 407.9 348.96 407.349 358.467 406.834C373.494 406.021 388.524 405.262 403.757 404.492C410.37 404.158 417.021 403.821 423.726 403.478ZM68.5784 116.623C73.7654 116.443 78.9435 116.305 84.1185 116.193C90.9036 116.044 97.6856 115.936 104.481 115.829C108.665 115.762 112.854 115.696 117.052 115.62C124.745 115.481 132.437 115.26 140.129 115.039C150.194 114.75 160.259 114.462 170.327 114.355C179.565 114.257 188.823 114.791 198.049 115.395C205.401 115.878 211.172 119.626 215.115 125.759C218.148 130.476 221.162 135.316 223.319 140.463C229.202 154.492 234.866 168.613 240.529 182.733C242.092 186.63 243.655 190.527 245.223 194.421C257.364 224.586 267.302 255.489 276.274 286.724C277.369 290.537 278.791 294.254 280.213 297.972C281.063 300.192 281.912 302.413 282.692 304.654C283.614 307.3 284.982 307.97 287.964 307.807C296.11 307.36 304.306 307.303 312.459 307.635C334.594 308.537 356.731 309.512 378.841 310.857C397.316 311.981 415.811 313.2 433.979 317.135C434.421 317.231 434.86 317.336 435.3 317.441C435.742 317.547 436.184 317.652 436.629 317.749C447.103 320.009 449.335 323.329 448.448 334.286C447.626 344.439 446.351 354.555 445.076 364.671C444.625 368.246 444.174 371.82 443.744 375.397C443.463 377.731 442.963 380.053 442.382 382.334C439.626 393.15 434.723 396.745 423.324 398.095C403.336 400.459 383.263 401.374 363.191 402.289C354.825 402.67 346.46 403.051 338.1 403.537C315.806 404.834 293.511 406.114 271.207 407.211C255.791 407.969 240.361 408.499 224.932 408.951C223.276 408.999 221.62 409.049 219.963 409.1C208.733 409.44 197.496 409.781 186.272 409.589C167.562 409.268 148.918 407.796 130.476 404.388C130.253 404.347 130.028 404.313 129.803 404.278C129.489 404.231 129.174 404.183 128.865 404.115C116.348 401.364 115.422 400.634 109.67 389.056C103.721 377.084 97.7492 365.123 91.7775 353.162C77.8846 325.335 63.9915 297.507 50.3859 269.541C36.0951 240.165 22.4379 210.466 11.5042 179.634C8.72583 171.799 6.694 163.657 4.90003 155.528C3.04909 147.145 4.47127 138.848 7.69442 130.984C10.7377 123.561 16.0706 118.74 24.5088 118.376C39.1963 117.739 53.8859 117.133 68.5784 116.623ZM375.459 419.423C381.907 418.825 387.833 418.277 394.77 417.635C395.696 419.419 396.622 421.203 397.547 422.986C400.201 428.1 402.853 433.209 405.513 438.314C405.673 438.621 405.832 438.929 405.991 439.237C406.75 440.703 407.51 442.171 408.361 443.583C412.731 450.835 417.089 458.095 421.447 465.354C433.349 485.179 445.251 505.004 457.387 524.685C462.662 533.241 468.402 541.512 474.141 549.782C476.273 552.855 478.406 555.928 480.515 559.015C482.156 561.418 483.969 563.896 487.568 562.68C490.531 561.678 493.189 557.947 492.989 554.599C492.884 552.838 492.311 551.037 491.617 549.396C490.884 547.66 489.961 546.002 489.039 544.347C488.811 543.937 488.583 543.527 488.358 543.117C481.739 531.05 475.118 518.985 468.496 506.92C455.118 482.541 441.739 458.162 428.378 433.773C426.181 429.764 424.066 425.711 421.937 421.631C420.95 419.739 419.96 417.842 418.958 415.941C423.069 414.805 425.269 414.198 426.529 412.764C427.98 411.113 428.184 408.367 428.624 402.458C429.162 402.217 429.706 401.97 430.254 401.721C431.474 401.166 432.717 400.601 433.975 400.07C439.877 397.579 443.732 393.268 445.524 387.128C445.643 386.72 445.767 386.312 445.891 385.904C446.351 384.396 446.812 382.881 447.018 381.337C448.856 367.488 450.64 353.631 452.346 339.764C452.766 336.347 453.045 332.884 453.015 329.445C452.943 321.234 449.852 316.907 441.947 314.777C435.481 313.035 428.89 311.387 422.252 310.724C401.848 308.687 381.421 306.66 360.953 305.537C356.843 305.311 352.732 305.069 348.621 304.827C328.63 303.651 308.627 302.473 288.572 303.164C288.24 303.175 287.904 303.073 287.449 302.935C287.194 302.857 286.901 302.768 286.55 302.681C285.906 300.88 285.221 299.068 284.53 297.242C283.013 293.227 281.47 289.146 280.28 284.964C272.279 256.855 263.478 229.017 252.744 201.821L252.532 201.284C244.409 180.707 236.285 160.126 227.739 139.723C225.1 133.422 221.377 127.493 217.553 121.793C213.298 115.448 206.869 112.039 199.295 111.133C194.258 110.529 189.169 109.948 184.111 110.004C173.597 110.119 163.084 110.387 152.572 110.654C147.653 110.779 142.735 110.904 137.817 111.014C130.765 111.17 123.714 111.316 116.662 111.462C106.835 111.666 97.0081 111.869 87.1817 112.101C80.6925 112.254 74.2036 112.445 67.7147 112.635C54.4172 113.025 41.1202 113.414 27.8218 113.487C17.5907 113.543 6.64402 118.469 2.21657 133.049C-1.53028 145.385 -0.139075 157.437 3.50283 169.478C8.66386 186.538 15.5369 202.934 22.5849 219.27C39.3391 258.099 58.3625 295.827 77.386 333.556C88.3538 355.308 99.3216 377.06 109.855 399.023C110.614 400.607 112.162 401.853 113.655 403.055C114.007 403.338 114.355 403.619 114.69 403.901C115.431 404.526 116.337 404.955 117.161 405.346C117.508 405.51 117.84 405.668 118.14 405.83C118.217 406.769 118.282 407.668 118.345 408.538C118.478 410.388 118.603 412.111 118.813 413.824C119.576 420.069 121.473 421.934 127.758 422.717C129.053 422.879 130.354 422.987 131.771 423.105C132.464 423.162 133.184 423.222 133.945 423.292C133.811 423.7 133.698 424.068 133.594 424.407C133.392 425.063 133.223 425.61 133.005 426.137C131.369 430.112 129.714 434.079 128.059 438.046C124.682 446.138 121.306 454.23 118.093 462.386C112.295 477.102 106.574 491.848 100.853 506.594C96.8606 516.884 92.8684 527.174 88.8498 537.454C84.961 547.402 88.1622 548.801 95.9287 551.034C105.144 553.685 106.341 553.445 110.165 544.608C116.269 530.499 121.978 516.217 127.684 501.94L128.539 499.802C131.852 491.514 135.114 483.207 138.376 474.899C142.74 463.784 147.105 452.669 151.592 441.603C153.303 437.381 155.396 433.313 157.486 429.252C158.443 427.393 159.399 425.534 160.318 423.663C170.647 423.864 180.891 423.935 191.111 424.005C208.724 424.128 226.267 424.249 244.056 425.031C243.588 426.369 243.156 427.621 242.745 428.815C241.92 431.21 241.176 433.368 240.383 435.508C236.612 445.677 232.83 455.842 229.049 466.007C226.251 473.528 223.454 481.049 220.66 488.571C220.154 489.931 219.648 491.302 219.305 492.707C218.702 495.179 219.617 496.917 222.006 497.927C228.751 500.776 231.873 499.69 235.269 493.221C235.641 492.511 235.982 491.783 236.323 491.056C236.445 490.797 236.566 490.538 236.689 490.28C238.793 485.867 240.893 481.451 242.993 477.036C247.908 466.701 252.824 456.366 257.8 446.061C260.241 441.003 262.792 435.999 265.29 431.097C266.402 428.914 267.504 426.752 268.581 424.615C281.991 424.173 295.292 423.735 308.629 423.295C323.175 422.816 337.763 422.336 352.579 421.848C353.616 424.38 354.655 426.949 355.704 429.54C358.049 435.339 360.441 441.25 362.956 447.108C370.189 463.946 377.5 480.753 384.941 497.501C386.326 500.618 388.182 503.636 390.338 506.274C393.234 509.818 396.923 509.806 400.342 506.755C402.87 504.498 403.756 501.642 402.967 498.373C402.245 495.378 401.513 492.364 400.48 489.466C395 474.109 389.482 458.766 383.964 443.424C381.684 437.085 379.404 430.746 377.127 424.406C376.777 423.431 376.455 422.447 376.078 421.3C375.889 420.722 375.686 420.103 375.459 419.423ZM163.634 207.182C172.12 206.041 180.717 204.968 189.287 205.042C193.712 205.08 198.129 205.424 202.521 206.222C208.762 207.356 213.39 210.647 214.972 217.075C215.216 218.066 215.461 219.057 215.707 220.049C217.768 228.379 219.835 236.734 221.095 245.197C223.528 261.537 225.602 277.932 227.675 294.325C228.219 298.625 228.763 302.924 229.313 307.223C229.726 310.449 229.958 313.744 229.806 316.987C229.559 322.28 228.129 323.532 222.765 323.905C219.7 324.118 216.631 324.291 213.562 324.463C207.209 324.82 200.856 325.176 194.545 325.898L193.248 326.047C172.967 328.364 152.657 330.685 132.799 335.591C128.139 336.742 124.986 335.74 122.393 332.177C121.837 331.414 121.277 330.653 120.716 329.891C118.154 326.415 115.585 322.927 113.482 319.186C102.3 299.288 94.031 278.254 89.9703 255.723C89.1028 250.91 88.739 245.996 88.3766 241.1C88.324 240.389 88.2714 239.679 88.2173 238.97C87.6676 231.756 90.9208 226.609 97.5849 224.013C105.002 221.125 112.464 218.224 120.123 216.107C121.424 215.747 122.727 215.395 124.034 215.052C137.055 211.62 150.287 208.978 163.634 207.182ZM204.741 202.153C199.551 201.227 194.346 200.817 189.129 200.744C184.001 200.672 178.862 200.925 173.713 201.334C168.154 201.774 162.62 202.487 157.117 203.384C146.162 205.17 135.341 207.689 124.582 210.397C114.374 212.965 104.232 215.786 94.7296 220.467C87.9715 223.795 84.1407 229.048 83.8598 236.749C83.7959 238.521 83.497 240.394 82.8224 242.018C78.4499 252.548 78.7987 263.285 81.2573 274.108C85.8717 294.419 93.2394 313.697 103.839 331.628C108.792 340.007 116.005 345.251 126.321 345.779C133.639 346.152 140.143 343.805 146.731 341.427C147.295 341.223 147.859 341.02 148.424 340.818C150.294 340.149 152.16 339.434 154.028 338.717C159.466 336.632 164.921 334.54 170.556 333.581C180.601 331.872 190.771 330.893 200.938 329.915C204.144 329.606 207.349 329.298 210.549 328.967C213.168 328.696 215.801 328.574 218.436 328.452C220.519 328.355 222.603 328.259 224.68 328.088C230.236 327.633 232.957 325.337 233.795 319.765C234.3 316.4 234.334 312.853 233.902 309.475C233.737 308.187 233.572 306.898 233.407 305.61C230.51 282.958 227.613 260.303 224.3 237.71C223.149 229.855 220.934 222.116 218.684 214.477C216.679 207.671 211.755 203.405 204.741 202.153Z" fill="black"/></g></g><g id="Table"><path id="Fill" fill-rule="evenodd" clip-rule="evenodd" d="M1175.01 674.311L1175.01 674.178C1172.55 674.207 1170.09 674.24 1167.63 674.273L1167.63 674.273C1162.28 674.345 1156.93 674.417 1151.59 674.443C1145.57 674.472 1139.54 674.48 1133.52 674.487L1133.52 674.487C1125.38 674.497 1117.23 674.507 1109.09 674.571C1099.14 674.651 1089.19 674.767 1079.24 674.884L1079.24 674.884C1069.03 675.004 1058.83 675.124 1048.62 675.203C1041.26 675.26 1033.89 675.288 1026.53 675.315L1026.53 675.315C1013.55 675.363 1000.58 675.412 987.603 675.623C984.51 675.673 981.234 676.953 978.446 678.427C976.768 679.316 974.959 681.616 974.833 683.398C974.645 686.063 977.066 687.767 979.549 688.778L979.617 688.806C980.431 689.137 981.289 689.487 982.144 689.544C982.844 689.591 983.545 689.641 984.246 689.69L984.248 689.69C987.675 689.932 991.106 690.174 994.537 690.184C1006.46 690.217 1018.39 690.21 1030.32 690.204L1030.32 690.204L1030.32 690.204C1039.09 690.198 1047.87 690.193 1056.64 690.204C1065.22 690.215 1073.8 690.247 1082.38 690.279L1082.38 690.279C1092.32 690.317 1102.27 690.354 1112.22 690.357C1124.39 690.362 1136.56 690.342 1148.73 690.321L1148.73 690.321C1160.53 690.301 1172.33 690.281 1184.13 690.285C1193.01 690.287 1201.9 690.319 1210.78 690.351C1220.24 690.384 1229.7 690.418 1239.16 690.417C1250.93 690.416 1262.69 690.387 1274.46 690.358C1286.12 690.329 1297.78 690.3 1309.43 690.299C1316.11 690.298 1322.78 690.326 1329.45 690.353L1329.45 690.353C1340.03 690.397 1350.61 690.441 1361.2 690.371C1364.77 690.347 1368.44 689.699 1371.89 688.728C1375.46 687.724 1377.25 684.974 1377.23 681.946C1377.21 678.672 1375.01 676.832 1372.38 676.052C1368.06 674.773 1363.6 673.547 1359.14 673.292C1353.98 672.997 1348.8 673.085 1343.63 673.173C1341.36 673.211 1339.09 673.25 1336.82 673.256C1329.34 673.277 1321.85 673.29 1314.37 673.303L1314.37 673.303C1298.61 673.329 1282.84 673.356 1267.08 673.465C1245.63 673.611 1224.18 673.825 1202.73 674.039L1202.73 674.039L1202.73 674.039C1193.49 674.132 1184.25 674.224 1175.01 674.311ZM1292.24 694.782C1292.54 695.71 1292.8 696.541 1293.03 697.307C1293.5 698.808 1293.89 700.06 1294.3 701.309C1306.49 739.109 1318.68 776.91 1330.87 814.71L1332.03 818.302L1332.57 819.975C1350.71 876.241 1368.86 932.508 1387 988.774C1391.07 1001.37 1395.13 1013.98 1399.19 1026.58L1399.22 1026.69C1405.07 1044.84 1410.92 1062.99 1416.78 1081.14C1418.24 1085.67 1421.13 1087.2 1425.49 1085.92C1428.25 1085.1 1428.48 1084.03 1426.97 1078.66C1426.93 1078.49 1426.85 1078.32 1426.8 1078.15C1424.34 1069.45 1421.84 1060.75 1419.34 1052.06C1413.8 1032.81 1408.25 1013.56 1403.18 994.178C1393.84 958.478 1384.68 922.728 1375.53 886.978C1368.41 859.179 1361.29 831.379 1354.09 803.603C1349.14 784.549 1343.97 765.554 1338.8 746.559L1338.8 746.546L1338.8 746.544C1335.95 736.088 1333.11 725.632 1330.3 715.167C1329.08 710.648 1327.98 706.102 1326.83 701.423L1326.83 701.423L1326.83 701.419C1326.3 699.213 1325.75 696.977 1325.18 694.702C1314.32 694.728 1303.66 694.754 1292.24 694.782ZM1050.4 696.642C1050.66 695.984 1050.92 695.299 1051.2 694.574C1064.14 694.593 1076.94 694.613 1090.23 694.633C1089.95 695.349 1089.7 696.016 1089.47 696.647C1089 697.893 1088.59 699.003 1088.12 700.087C1034.79 822.492 981.444 944.892 928.102 1067.29L923.429 1078.02C923.2 1078.54 922.979 1079.07 922.758 1079.6C922.208 1080.92 921.658 1082.24 920.983 1083.49C919.084 1087 915.626 1088.67 911.926 1088.04C907.567 1087.3 906.211 1085.02 907.78 1080.76C912.459 1068.07 917.169 1055.38 921.878 1042.7C922.862 1040.05 923.846 1037.4 924.83 1034.75C966.196 923.317 1007.56 811.886 1048.93 700.455C1049.39 699.215 1049.87 697.984 1050.4 696.642Z" fill="white"/><path id="Stroke" fill-rule="evenodd" clip-rule="evenodd" d="M1175.63 674.808L1175.63 674.675C1173.17 674.704 1170.71 674.737 1168.25 674.77C1162.9 674.842 1157.55 674.914 1152.21 674.94C1146.19 674.97 1140.16 674.977 1134.14 674.984L1134.14 674.984C1126 674.994 1117.85 675.004 1109.71 675.068C1099.76 675.148 1089.81 675.264 1079.86 675.381L1079.86 675.381L1079.86 675.381C1069.65 675.501 1059.45 675.621 1049.24 675.7C1041.88 675.757 1034.51 675.785 1027.15 675.812C1014.17 675.86 1001.2 675.909 988.222 676.12C985.13 676.17 981.854 677.45 979.065 678.924C977.387 679.813 975.579 682.113 975.452 683.895C975.264 686.56 977.685 688.264 980.169 689.275L980.237 689.303C981.051 689.634 981.908 689.984 982.763 690.041C983.465 690.088 984.166 690.138 984.867 690.187C988.294 690.429 991.725 690.671 995.156 690.681C1007.08 690.714 1019.01 690.707 1030.94 690.701L1030.94 690.701C1039.71 690.696 1048.49 690.691 1057.26 690.701C1065.84 690.712 1074.42 690.744 1082.99 690.776L1083 690.776L1083 690.776C1092.94 690.814 1102.89 690.851 1112.84 690.855C1125.01 690.86 1137.18 690.839 1149.35 690.818L1149.35 690.818C1161.15 690.798 1172.95 690.778 1184.75 690.782C1193.63 690.784 1202.52 690.816 1211.4 690.848C1220.86 690.881 1230.32 690.915 1239.78 690.914C1251.55 690.913 1263.31 690.884 1275.08 690.855C1280.43 690.842 1285.78 690.829 1291.14 690.818L1290.76 688.721L1317.8 690.306L1317.89 690.806C1321.95 690.817 1326.01 690.834 1330.07 690.85L1330.07 690.85C1340.65 690.894 1351.23 690.938 1361.82 690.868C1365.39 690.845 1369.06 690.196 1372.51 689.225C1376.08 688.221 1377.87 685.472 1377.85 682.443C1377.83 679.17 1375.63 677.329 1373 676.549C1368.68 675.27 1364.22 674.044 1359.76 673.789C1354.6 673.494 1349.42 673.582 1344.24 673.67C1341.97 673.708 1339.7 673.747 1337.44 673.753C1329.95 673.774 1322.47 673.787 1314.99 673.8L1314.99 673.8C1299.23 673.827 1283.46 673.853 1267.7 673.962C1246.25 674.109 1224.8 674.323 1203.35 674.537L1203.35 674.537C1194.11 674.629 1184.87 674.721 1175.63 674.808ZM1349.51 871.097L1318.66 695.216C1321.04 695.21 1323.42 695.204 1325.8 695.199C1326.37 697.476 1326.92 699.712 1327.45 701.92C1328.6 706.599 1329.7 711.145 1330.92 715.664C1333.72 726.13 1336.57 736.586 1339.42 747.042L1339.42 747.043C1344.59 766.042 1349.76 785.042 1354.7 804.1C1361.91 831.875 1369.03 859.674 1376.15 887.473L1376.15 887.473C1385.3 923.224 1394.46 958.974 1403.8 994.675C1408.87 1014.05 1414.42 1033.31 1419.96 1052.56L1419.96 1052.57C1422.46 1061.26 1424.96 1069.94 1427.42 1078.64C1427.44 1078.73 1427.47 1078.81 1427.5 1078.9C1427.54 1078.99 1427.57 1079.07 1427.59 1079.16C1429.09 1084.52 1428.87 1085.6 1426.11 1086.41C1421.75 1087.69 1418.86 1086.17 1417.4 1081.64C1411.53 1063.45 1405.67 1045.26 1399.8 1027.07C1395.75 1014.47 1391.69 1001.87 1387.62 989.271C1374.92 949.88 1362.22 910.489 1349.51 871.097ZM1354.95 902.083C1368.75 944.868 1382.55 987.652 1396.35 1030.44L1396.46 1030.78L1396.57 1031.12C1397.81 1034.95 1399.04 1038.78 1400.27 1042.62C1404.72 1056.43 1409.17 1070.24 1413.69 1084.03C1414.29 1085.85 1415.17 1087.88 1416.55 1089.05C1419.5 1091.57 1427.08 1091.56 1430.06 1089.46C1434.24 1086.53 1433.36 1082.66 1431.98 1078.71C1431.97 1078.68 1431.95 1078.64 1431.94 1078.61L1431.92 1078.56L1431.92 1078.56C1431.88 1078.44 1431.83 1078.32 1431.8 1078.19C1410.96 1007.2 1392.44 935.585 1374 863.945C1369.84 847.745 1365.79 831.512 1361.75 815.28L1361.75 815.274C1357.67 798.882 1353.58 782.49 1349.37 766.132C1345.68 751.801 1341.77 737.526 1337.86 723.252C1335.82 715.792 1333.78 708.333 1331.76 700.865C1331.46 699.748 1331.3 698.593 1331.13 697.387C1331.05 696.809 1330.96 696.219 1330.86 695.615C1331.48 695.562 1332.04 695.503 1332.55 695.449C1333.53 695.345 1334.35 695.258 1335.18 695.262C1337.87 695.274 1340.55 695.324 1343.24 695.373C1348.91 695.476 1354.58 695.58 1360.23 695.341C1365.24 695.13 1370.34 694.254 1375.13 692.801C1379.67 691.424 1381.99 687.512 1382.24 682.74C1382.49 677.945 1379.83 674.601 1375.66 673.035C1371.13 671.333 1366.33 669.632 1361.57 669.4C1353.66 669.014 1345.72 669.129 1337.78 669.245C1335.18 669.283 1332.58 669.32 1329.98 669.34C1313.21 669.469 1296.43 669.611 1279.66 669.752L1279.65 669.752C1264.28 669.882 1248.92 670.011 1233.55 670.131C1213.95 670.283 1194.34 670.417 1174.74 670.55L1174.74 670.55L1174.73 670.55C1167.82 670.597 1160.91 670.645 1154 670.692C1146.36 670.745 1138.71 670.802 1131.07 670.858L1131.07 670.858C1112.74 670.992 1094.42 671.127 1076.09 671.217C1063.84 671.276 1051.58 671.312 1039.32 671.348L1039.32 671.348C1022.16 671.398 1004.99 671.448 987.831 671.563C982.191 671.6 977.134 673.639 973.338 678.01C969.964 681.896 970.104 685.881 973.464 689.789C975.707 692.397 978.649 693.659 981.918 694.378C987.691 695.648 993.469 695.447 999.329 695.243L999.332 695.243C999.827 695.226 1000.32 695.208 1000.82 695.192C1010.74 694.864 1020.68 694.957 1030.62 695.051L1030.62 695.051L1030.62 695.051C1034.13 695.084 1037.64 695.117 1041.14 695.132C1042.29 695.137 1043.43 695.262 1044.7 695.4L1044.7 695.4C1045.33 695.469 1046 695.541 1046.71 695.604C1046.42 696.415 1046.16 697.162 1045.92 697.865L1045.92 697.868L1045.92 697.869C1045.42 699.3 1044.99 700.55 1044.53 701.79C1041.83 709.075 1039.13 716.361 1036.44 723.647L1036.41 723.716L1036.41 723.725C1028.51 745.048 1020.61 766.372 1012.67 787.682C976.278 885.443 939.86 983.196 903.432 1080.94C902.217 1084.2 902.738 1086.96 905.187 1089.43C909.381 1093.66 916.108 1094.15 921.158 1090.86C924.291 1088.83 925.681 1085.8 927.069 1082.61C945.828 1039.55 964.59 996.479 983.351 953.411L983.905 952.14C998.726 918.116 1013.55 884.093 1028.37 850.068L988.777 1009.46C988.05 1012.39 990.204 1015.24 993.22 1015.35C1005.07 1015.76 1015.67 1008.04 1018.92 996.641L1104.72 695.127C1165.71 695.148 1226.97 695.169 1288.31 695.19C1288.58 696.072 1288.83 696.887 1289.07 697.655L1289.07 697.674L1289.07 697.679C1289.57 699.289 1290 700.694 1290.45 702.092C1292.46 708.324 1294.47 714.555 1296.48 720.787L1345.85 997.998C1347.93 1009.67 1357.88 1018.31 1369.73 1018.72C1372.68 1018.82 1374.97 1016.19 1374.46 1013.29L1354.95 902.083ZM1051.82 695.071C1051.54 695.797 1051.28 696.482 1051.02 697.14C1050.49 698.481 1050.01 699.713 1049.55 700.952C1008.18 812.383 966.815 923.814 925.45 1035.25C924.466 1037.9 923.482 1040.55 922.498 1043.2L922.495 1043.2C917.786 1055.89 913.077 1068.57 908.399 1081.26C906.831 1085.52 908.186 1087.8 912.546 1088.54C916.246 1089.17 919.703 1087.5 921.602 1083.99C922.278 1082.74 922.828 1081.42 923.378 1080.1C923.599 1079.57 923.82 1079.04 924.049 1078.51L928.695 1067.85C964.028 986.775 999.36 905.7 1034.69 824.624L1066.86 695.094L1051.82 695.071Z" fill="black"/></g><g id="Table Objects" transform="translate(952 421) scale(1 1)"><g id="Table Objects/Computer 1"><path id="Fill" fill-rule="evenodd" clip-rule="evenodd" d="M326.332 156.305C330.366 156.67 331.425 157.491 331.849 161.561C332.28 165.71 332.662 169.915 332.481 174.069C332.008 184.84 331.134 198.836 330.294 212.264L330.294 212.27L330.294 212.272C329.706 221.687 329.135 230.822 328.732 238.371C328.307 246.332 328.435 248.448 328.675 248.516C327.895 250.179 326.435 251.124 324.022 251.198C315.67 251.454 307.32 251.882 298.984 252.454C295.904 252.666 294.618 251.071 294.102 248.554C293.824 247.197 293.753 245.798 293.681 244.399C293.65 243.798 293.619 243.196 293.572 242.598C293.1 236.641 292.115 221.084 291.804 215.118C291.659 212.341 291.692 209.555 291.728 206.523V206.523C291.745 205.096 291.763 203.614 291.763 202.053L279.658 202.671C273.588 202.98 267.518 203.29 261.248 203.61C261.193 204.666 261.14 205.698 261.088 206.713L261.088 206.725C260.968 209.046 260.854 211.28 260.733 213.513C260.507 217.656 259.782 221.895 259.058 226.132C258.355 230.244 257.652 234.353 257.406 238.371C257.334 239.554 257.021 240.493 256.688 241.493C256.513 242.019 256.332 242.563 256.178 243.167C255.979 243.948 255.892 244.748 255.808 245.512C255.57 247.691 255.365 249.567 252.69 249.821C248.119 250.256 244.372 250.032 240.633 249.809H240.632C236.834 249.583 233.043 249.357 228.402 249.821C220.926 250.568 213.575 250.789 206.213 251.009L206.212 251.009H206.212C199.695 251.205 193.17 251.4 186.543 251.962C185.075 252.086 182.452 252.037 180.283 251.996C179.351 251.978 178.503 251.962 177.866 251.962C177.491 250.675 177.153 249.918 176.905 249.362C176.426 248.29 176.283 247.969 176.863 246.043C177.584 243.648 179.661 242.863 181.928 242.53C184.603 242.138 187.277 241.742 189.951 241.347L189.958 241.346L189.958 241.345C196.799 240.333 203.64 239.321 210.489 238.371C216.071 237.596 221.662 236.89 227.375 236.167L227.375 236.167C229.916 235.846 232.482 235.522 235.081 235.187C235.081 230.384 235.147 225.396 235.212 220.422V220.421C235.277 215.473 235.342 210.538 235.342 205.81C232.424 206.128 229.253 206.347 226.087 206.566L226.087 206.566C223.851 206.72 221.618 206.874 219.48 207.063C206.893 208.173 194.312 209.353 181.732 210.533L181.732 210.533L181.716 210.535C175.32 211.134 168.925 211.734 162.529 212.325L162.105 212.364C158.63 212.685 155.151 213.007 151.667 213.156C145.096 213.438 144.636 212.957 145.247 206.623C145.644 202.506 146.074 198.392 146.503 194.279L146.504 194.277L146.504 194.275C146.885 190.621 147.267 186.967 147.626 183.311C148.722 172.141 149.809 160.97 150.895 149.799C151.884 139.636 152.872 129.473 153.868 119.311C154.275 115.154 154.689 110.994 155.228 106.853C155.765 102.716 156.658 101.661 160.51 101.117C164.127 100.606 167.743 100.089 171.359 99.5712L171.361 99.5709C184.103 97.7473 196.846 95.9237 209.624 94.4009C231.802 91.7569 254.015 89.3719 276.24 87.1569C288.324 85.9532 300.434 85.0019 312.544 84.0506L312.544 84.0506C316.37 83.75 320.197 83.4494 324.022 83.1409C327.89 82.8289 329.044 84.0109 328.732 88.3809C328.266 94.9029 327.611 101.415 326.866 107.912C325.76 117.564 324.609 127.211 323.458 136.858L323.458 136.86C322.844 142.001 322.231 147.142 321.624 152.284C321.542 152.976 321.506 153.672 321.464 154.487C321.442 154.915 321.418 155.376 321.385 155.887C321.959 155.935 322.512 155.981 323.049 156.025L323.05 156.025C324.19 156.12 325.261 156.208 326.332 156.305ZM329.22 246.733C329.1 247.396 328.922 247.992 328.675 248.516C328.988 248.604 329.492 245.225 329.22 246.733ZM119.657 248.47C118.491 242.096 115.854 238.833 111.496 237.857C99.0718 235.074 86.5264 233.717 73.8453 235.926C71.8804 236.269 69.8755 237.177 68.1605 238.324C65.7381 239.944 65.6022 242.831 66.1165 245.512C66.5721 247.883 68.3169 247.823 69.968 247.766C70.2078 247.758 70.4456 247.749 70.6772 247.749C74.155 247.738 77.6329 247.717 81.1109 247.697C88.5967 247.652 96.0826 247.607 103.567 247.666C107.079 247.694 110.588 247.916 114.294 248.151L114.295 248.151C116.032 248.26 117.812 248.373 119.657 248.47ZM399.062 246.463C399.248 246.827 399.539 247.393 399.79 248.327H372.662C373.036 246.612 373.093 245.649 373.155 244.595C373.174 244.275 373.193 243.946 373.222 243.585C373.693 237.716 371.65 232.724 368.568 227.944C364.774 222.061 361.045 216.122 357.552 210.05C353.661 203.284 352.037 195.963 353.576 188.12C354.533 183.246 356.813 179.112 360.361 175.696C361.898 174.216 364.87 171.39 366.724 171.151C366.724 171.151 368.755 173.033 369.977 173.355C375.804 174.885 380.505 175.779 386.507 174.169C386.888 174.067 387.273 173.976 387.659 173.884C388.693 173.637 389.73 173.391 390.673 172.943C391.293 172.649 391.873 172.422 392.441 172.199C393.614 171.739 394.738 171.298 396.069 170.327C396.069 170.327 398.536 171.465 399.794 172.243C400.24 172.519 400.691 172.791 401.14 173.063C404.978 175.38 408.8 177.688 409.986 182.423C410.814 185.733 411.029 189.403 410.613 192.795C409.858 198.943 407.278 204.579 403.912 209.684C396.419 221.052 394.083 233.043 398.902 246.127C398.935 246.215 398.991 246.324 399.062 246.463Z" fill="white"/><path id="Stroke" fill-rule="evenodd" clip-rule="evenodd" d="M375.179 150.597C375.918 151.001 377.194 152.26 377.194 152.26C377.042 151.525 376.799 149.138 376.556 146.752C376.314 144.365 376.071 141.979 375.918 141.244C375.695 141.291 375.109 141.812 374.523 142.333C373.938 142.853 373.352 143.374 373.128 143.422C373.257 144.131 373.706 145.57 374.154 147.009L374.154 147.011C374.602 148.449 375.05 149.887 375.179 150.597ZM368.738 160.555C369.248 162.68 370.4 166.136 370.4 166.136C370.588 166.087 370.795 166.033 371.018 165.975C372.465 165.598 374.578 165.047 376.336 164.641C376.336 164.641 375.517 162.922 374.514 161.708C374.087 161.191 370.781 160.798 369.136 160.602C368.989 160.585 368.855 160.569 368.738 160.555ZM372.762 119.405C374.055 119.922 375.548 119.503 376.439 118.432C376.916 117.856 376.555 115.977 376.406 115.615C375.826 114.214 375.115 113.95 373.7 113.545C371.851 113.015 370.85 114.665 370.929 116.529C370.989 117.917 371.507 118.902 372.762 119.405ZM356.902 137.661C357.216 137.053 357.154 136.312 356.732 135.773C356.534 135.521 356.365 135.314 356.175 135.127C354.362 133.336 352.499 133.599 351.259 135.585C350.661 136.541 350.432 138.605 351.031 139.262C352.656 141.046 354.612 140.264 356.176 138.757C356.468 138.476 356.672 138.105 356.902 137.661ZM412.596 96.9636C413.164 96.3636 413.406 95.5256 413.236 94.7166C412.77 92.4946 411.23 90.8756 409.906 91.0646C407.553 91.4006 406.499 93.0096 406.531 95.2046C406.556 97.0556 408.833 99.0856 410.486 98.5316C411.326 98.2486 412.031 97.5606 412.596 96.9636ZM399.536 247.884C399.285 246.97 398.995 246.415 398.808 246.06C398.737 245.924 398.681 245.817 398.648 245.731C393.829 232.928 396.165 221.194 403.658 210.07C407.024 205.074 409.604 199.559 410.359 193.543C410.775 190.224 410.56 186.633 409.732 183.394C408.546 178.76 404.725 176.501 400.887 174.233L400.885 174.233C400.436 173.967 399.986 173.701 399.54 173.432C398.282 172.671 395.815 171.557 395.815 171.557C394.484 172.507 393.36 172.938 392.187 173.388C391.619 173.606 391.039 173.829 390.419 174.117C389.476 174.554 388.44 174.796 387.405 175.037C387.019 175.127 386.634 175.217 386.253 175.317C380.251 176.892 375.55 176.017 369.723 174.52C368.501 174.205 366.47 172.363 366.47 172.363C364.616 172.597 361.644 175.363 360.107 176.811C356.559 180.154 354.279 184.199 353.322 188.968C351.783 196.643 353.407 203.807 357.298 210.428C360.791 216.37 364.52 222.181 368.314 227.938C371.396 232.616 373.439 237.501 372.968 243.244C372.939 243.596 372.92 243.918 372.901 244.231V244.232C372.839 245.263 372.783 246.205 372.408 247.884H399.536ZM359.393 110.071C359.381 110.075 359.368 110.08 359.356 110.085C361.537 120.11 365.482 129.749 370.953 138.428C371.45 134.478 372.852 130.645 375.021 127.308C374.276 125.91 373.801 123.472 373.801 123.472C369.853 122.936 368.557 121.481 367.508 119.801C365.009 115.794 367.897 109.634 372.575 108.991C377.254 108.348 381.696 113.502 380.369 118.035C380.309 118.242 380.26 118.458 380.21 118.683C379.947 119.866 379.633 121.272 377.194 122.736C377.194 122.736 377.489 124.225 377.612 125.574C379.165 124.445 380.805 123.279 382.709 123.028C384.614 122.777 386.832 123.793 387.23 125.672C387.41 126.524 387.2 127.407 386.931 128.235C385.954 131.256 384.187 134.017 381.854 136.169C381.742 136.272 381.628 136.375 381.514 136.478L381.514 136.478C380.856 137.07 380.19 137.67 379.811 138.463C379.308 139.514 379.385 140.738 379.473 141.9C380.035 149.295 380.597 156.691 381.158 164.087L386.283 164.28C385.883 144.023 390.405 123.685 399.35 105.506C399.44 105.324 399.529 105.143 399.619 104.961L399.625 104.95C400.825 102.524 402.048 100.052 402.301 97.3676C402.362 96.7228 402.366 96.0726 402.371 95.4232V95.4228C402.377 94.4569 402.383 93.4925 402.576 92.5496C403.488 88.1206 409.025 85.4136 413.155 87.2536C417.284 89.0936 419.027 94.8076 416.783 98.7336C414.541 102.66 408.933 104.112 404.97 101.934C396.417 118.348 391.812 138.192 391.875 156.701C392.663 156.002 393.64 155.149 394.617 154.295L394.622 154.291L394.624 154.289C395.603 153.434 396.582 152.579 397.37 151.88C395.772 147.5 394.547 142.034 395.06 137.401C395.283 135.384 396.112 132.973 398.116 132.645C400.915 132.188 402.209 136.049 402.057 138.881C401.867 142.374 401.266 146.64 400.133 149.95C402.1 148.478 403.907 146.772 405.715 145.066L405.715 145.066C407.521 143.361 409.327 141.657 411.292 140.186C406.382 135.614 404.02 129.117 403.951 122.409C403.927 119.972 404.553 117.115 406.777 116.119C408.915 115.161 411.517 116.557 412.705 118.577C413.894 120.597 414.03 123.043 414.135 125.384C414.323 129.499 414.508 133.614 414.693 137.73L414.701 137.915C415.242 137.329 415.912 136.645 416.636 135.906L416.637 135.904C418.968 133.523 421.854 130.577 422.737 128.555C422.737 128.555 420.569 121.51 420.508 118.527L420.507 118.467C420.388 112.642 420.358 111.165 421.705 105.469C422.088 103.854 423.423 101.639 425.058 101.046C428.526 99.7876 429.931 107.078 430.075 109.163C430.183 110.704 429.944 112.367 429.668 113.881C429.002 117.543 427.63 121.133 425.674 124.301C429.495 120.495 438.535 112.136 443.787 110.911C445.059 110.615 446.527 110.445 447.552 111.251C449.399 112.702 448.2 115.687 446.642 117.444C444.658 119.681 442.27 121.557 439.627 122.956C435.645 125.063 425.067 130.176 425.067 130.176C424.551 130.637 423.649 131.749 422.474 133.195L422.474 133.195L422.474 133.195C420.51 135.614 417.786 138.969 414.836 141.787C415.591 141.759 417.878 141.021 418.785 140.681C419.234 140.512 419.684 140.345 420.133 140.179L420.136 140.178C420.897 139.895 421.658 139.612 422.417 139.323C422.693 139.217 422.968 139.112 423.243 139.006C425.709 138.061 428.172 137.116 430.696 136.331C431.91 135.953 433.263 135.617 434.417 136.152C437.131 137.412 437.382 141.629 435.796 143.798C433.893 146.403 430.406 147.288 427.183 147.443C423.587 147.616 419.959 147.103 416.552 145.94C414.986 145.405 411.845 144.666 411.845 144.666C410.624 145.247 409.479 146.243 408.522 147.08L400.579 154.019C397.931 156.332 395.283 158.645 392.635 160.958C396.364 157.993 400.831 155.965 405.518 155.108C408.329 154.594 412.189 155.246 412.535 158.083C412.837 160.552 410.111 162.212 407.764 163.037C402.952 164.728 397.917 165.784 392.83 166.167C400.884 168.945 409.701 172.365 413.543 179.969C417.074 186.959 415.246 195.489 412.001 202.616C410.841 205.164 409.509 207.64 408.178 210.114L408.178 210.114C405.787 214.56 403.399 218.999 402.017 223.838C399.976 230.988 400.293 238.792 402.908 245.753C403.578 247.537 404.236 249.924 402.69 251.037C402.054 251.495 401.223 251.554 400.441 251.594C398.873 251.675 397.296 251.763 395.714 251.852C388.145 252.279 380.455 252.712 372.945 252.321C369.735 252.154 368.604 250.558 368.638 247.443C368.688 242.947 368.321 238.713 366.655 234.481C364.914 230.062 362.164 226.171 359.412 222.276L359.412 222.275L359.412 222.275C358.157 220.499 356.901 218.722 355.74 216.894C350.547 208.717 347.169 198.895 348.813 189.348C350.44 179.898 357.206 171.497 366.093 167.896C366.071 164.386 364.421 160.92 361.712 158.689C361.167 158.239 360.577 157.832 359.988 157.426C358.697 156.535 357.409 155.647 356.607 154.323C355.44 152.394 356.311 149.093 358.565 149.142L357.674 146.738L356.783 144.335C352.809 146.075 347.577 143.684 346.293 139.54C345.008 135.395 347.969 130.465 352.231 129.651C356.493 128.838 361.062 132.331 361.394 136.658C361.505 138.107 361.237 139.651 360.973 141.172C360.494 143.93 360.028 146.611 361.863 148.505C364.863 148.381 367.88 148.7 370.787 149.447C368.233 142.355 365.266 135.411 361.906 128.664C360.943 126.729 357.932 120.847 357.932 120.847C357.932 120.847 352.662 120.737 349.707 119.727C345.358 118.241 341.388 115.656 338.27 112.279C336.193 110.03 334.794 105.854 337.485 104.392C338.662 103.752 340.115 104.039 341.4 104.423C346.87 106.059 353.258 109.835 357.1 114.058C356.182 110.943 354.819 105.355 354.642 100.988C354.492 97.3036 354.997 93.0946 354.997 93.0946C354.856 92.7782 353.77 91.9364 352.348 90.8342C349.86 88.906 346.344 86.1808 345.059 84.0766C342.586 80.0296 341.116 75.3756 340.818 70.6426C340.698 68.7456 340.93 66.5196 342.532 65.4966C344.689 64.1194 346.831 66.276 348.75 68.2082C349.046 68.5067 349.337 68.7997 349.622 69.0736C354.908 74.1506 358.641 77.9726 358.019 90.4126C359.458 83.8226 362.036 73.2196 366.248 67.9506C367.452 66.4446 368.83 64.9656 370.641 64.3026C372.451 63.6386 374.788 64.0516 375.793 65.6966C376.253 66.4496 376.386 67.3556 376.411 68.2366C376.602 74.8406 371.805 82.7746 367.26 87.5696C364.77 90.1966 358.996 95.5666 358.996 95.5666C358.996 95.5666 358.514 99.4376 359.124 102.361C362.05 98.3376 365.558 94.7396 369.504 91.7116C370.708 90.7876 372.17 89.8696 373.644 90.2346C376.654 90.9776 376.09 95.5016 374.42 98.1126C370.91 103.598 365.545 107.871 359.414 110.064C359.407 110.066 359.4 110.069 359.393 110.071ZM118.802 246.681C117.534 241.073 114.891 238.227 110.614 237.418C98.4205 235.113 86.1375 234.068 73.7946 236.169C71.8821 236.496 69.9421 237.32 68.2901 238.353C65.9567 239.812 65.8828 242.36 66.4398 244.719C66.9331 246.805 68.6364 246.731 70.2482 246.661C70.4822 246.65 70.7144 246.64 70.9406 246.637C74.3375 246.586 77.7343 246.525 81.1311 246.465H81.1314L81.1348 246.465C88.4457 246.335 95.7566 246.205 103.069 246.167C106.5 246.149 109.933 246.302 113.558 246.465C115.257 246.54 116.999 246.618 118.802 246.681ZM61.7344 246.655C61.7481 246.261 61.7606 245.883 61.7727 245.515C61.7975 244.76 61.8209 244.051 61.8511 243.341C62.1 237.416 64.3121 234.099 70.0334 232.701C74.5809 231.591 79.3506 230.796 84.0071 230.861C89.3081 230.936 94.6033 231.39 99.8992 231.844L99.8995 231.844C102.38 232.057 104.861 232.27 107.342 232.444C114.966 232.978 120.359 236.509 123.008 243.867C123.207 244.419 123.525 244.927 123.897 245.519C124.088 245.822 124.292 246.148 124.501 246.512C126.19 246.571 127.886 246.629 129.587 246.686L129.588 246.686C134.186 246.842 138.817 247 143.446 247.19C143.529 247.193 143.611 247.196 143.694 247.2L143.875 247.207C145.369 247.265 146.905 247.325 148.281 247.791C148.368 247.82 148.453 247.859 148.536 247.907C150.12 248.824 149.391 251.306 147.567 251.446C146.341 251.541 145.332 251.605 144.321 251.589C137.345 251.48 130.37 251.35 123.394 251.22H123.393C108.679 250.946 93.964 250.672 79.2476 250.593C72.0326 250.553 64.828 250.96 57.626 251.407C55.136 251.563 52.6261 251.518 50.1299 251.393C50.0022 251.386 49.8715 251.381 49.7393 251.376C48.218 251.317 46.487 251.25 46.4594 249.167C46.43 247.015 48.0606 247.056 49.5503 247.093C49.7295 247.097 49.9067 247.102 50.0786 247.102C51.0428 247.105 52.0069 247.12 52.9708 247.136H52.9713C54.5497 247.162 56.1277 247.187 57.7054 247.155C58.543 247.138 59.3781 247.008 60.3068 246.864C60.757 246.794 61.2292 246.72 61.7344 246.655ZM301.134 211.884C308.572 213.751 317.699 212.842 322.063 209.93C314.955 208.049 308.373 208.165 301.134 211.884ZM234.421 237.785V247.661C232.51 247.748 229.762 247.883 226.487 248.044C212.944 248.711 190.381 249.821 180.708 249.821C180.038 246.101 181.469 244.897 184.006 244.491C185.756 244.211 187.503 243.904 189.25 243.597C192.318 243.059 195.386 242.52 198.473 242.126C206.867 241.053 215.27 240.058 223.815 239.046C227.323 238.631 230.856 238.213 234.421 237.785ZM152.562 209.686C152.496 210.112 149.458 209.686 149.458 209.686C149.615 207.986 149.757 206.433 149.89 204.977C150.151 202.127 150.377 199.65 150.623 197.175C153.519 167.938 156.417 138.7 159.333 109.466C159.704 105.744 159.757 105.741 164.74 105.411L164.775 105.409C162.714 120.584 161.113 136.136 159.51 151.711C157.501 171.23 155.487 190.787 152.562 209.686ZM233.173 139.411C240.777 137.427 246.669 141.314 248.218 149.55C247.399 149.661 246.618 149.757 245.865 149.849C244.292 150.042 242.839 150.22 241.404 150.493C237.121 151.308 236.394 152.263 236.44 156.737C236.455 158.272 236.487 159.807 236.518 161.341C236.553 163.068 236.589 164.795 236.602 166.522C236.606 167.123 236.522 167.725 236.443 168.296C236.408 168.549 236.373 168.797 236.348 169.036C224.21 171.617 216.9 163.776 220.322 152.196C222.271 145.602 226.464 141.161 233.173 139.411ZM320.218 160.97H327.477C328.885 176.123 328.247 191.084 327.057 206.646C316.476 203.372 306.723 203.413 296.798 209.067L296.564 206.413C296.421 204.786 296.287 203.265 296.142 201.609C297.781 201.357 299.376 201.12 300.938 200.886C304.418 200.367 307.738 199.872 311.046 199.302C315.755 198.49 315.767 198.377 316.225 194.164C316.245 193.987 316.264 193.804 316.286 193.613C317.134 185.95 318.081 178.298 319.039 170.556C319.432 167.378 319.827 164.185 320.218 160.97ZM296.682 214.738C306.182 218.809 316.534 218.266 326.513 213.801C326.211 217.869 325.925 224.376 325.64 230.85C325.357 237.264 325.076 243.646 324.784 247.591C315.519 248.07 307.049 248.508 297.857 248.984C297.661 245.42 297.471 238.8 297.279 232.122C297.084 225.34 296.888 218.499 296.682 214.738ZM254.393 247.052C254.393 247.06 238.788 247.852 238.788 247.852C239.149 232.485 239.579 216.832 240.008 201.191C240.434 185.652 240.86 170.125 241.219 154.904C246.546 154.364 251.815 153.83 257.741 153.229L258.447 153.158C258.328 157.253 258.213 161.4 258.097 165.584C257.355 192.433 256.57 220.816 254.393 247.052ZM163.137 156.787C165.134 139.314 167.13 121.851 169.147 104.575C193.516 99.6709 310.891 87.1439 324.119 88.0559C322.988 110.333 319.942 132.379 316.884 154.502C315.042 167.838 313.195 181.201 311.762 194.66C295.526 197.869 279.448 198.465 263.001 199.074L261.824 199.118C261.786 198.655 261.738 198.217 261.692 197.794C261.598 196.936 261.512 196.144 261.534 195.355C261.697 189.268 261.874 183.182 262.05 177.096C262.274 169.376 262.498 161.656 262.696 153.936C262.844 148.129 262.775 148.136 257.242 148.683L257.199 148.687C256.732 148.733 256.27 148.81 255.801 148.889C255.025 149.019 254.228 149.152 253.355 149.152C253.061 148.404 252.738 147.473 252.448 146.638C252.326 146.285 252.21 145.95 252.104 145.652C249.419 138.108 243.312 134.102 235.331 134.664C222.451 135.571 212.698 149.028 215.821 161.584C217.853 169.759 222.936 173.866 231.371 174.124C232.326 174.153 233.282 174.146 234.418 174.138C235.005 174.134 235.641 174.13 236.35 174.13C236.836 181.375 236.345 188.488 235.863 195.492C235.725 197.493 235.587 199.484 235.474 201.468C218.477 202.694 201.734 204.462 184.829 206.248C175.661 207.216 166.446 208.189 157.117 209.084C159.139 191.762 161.138 174.27 163.137 156.787ZM323.047 156.025C322.51 155.981 321.959 155.935 321.385 155.887C321.418 155.376 321.441 154.915 321.464 154.487C321.506 153.672 321.542 152.976 321.624 152.284C322.23 147.142 322.844 142.001 323.457 136.86C324.609 127.213 325.76 117.565 326.866 107.912C327.611 101.415 328.266 94.9029 328.732 88.3809C329.044 84.0109 327.89 82.8289 324.022 83.1409C320.196 83.4494 316.37 83.75 312.543 84.0506C300.434 85.0019 288.324 85.9532 276.24 87.1569C254.015 89.3719 231.802 91.7569 209.624 94.4009C196.846 95.9237 184.103 97.7474 171.361 99.5709C167.744 100.089 164.127 100.606 160.51 101.117C156.658 101.661 155.765 102.716 155.228 106.853C154.689 110.994 154.275 115.154 153.868 119.311C152.872 129.473 151.883 139.636 150.895 149.799C149.808 160.97 148.722 172.141 147.626 183.311C147.267 186.968 146.885 190.622 146.503 194.277C146.074 198.391 145.644 202.505 145.247 206.623C144.636 212.957 145.096 213.438 151.667 213.156C155.151 213.007 158.63 212.685 162.105 212.364L162.529 212.325C168.93 211.734 175.33 211.133 181.73 210.533C194.311 209.353 206.892 208.173 219.48 207.063C221.618 206.874 223.851 206.72 226.086 206.566C229.252 206.347 232.424 206.128 235.342 205.81C235.342 210.538 235.277 214.976 235.212 219.426C235.146 223.899 235.081 228.384 235.081 233.187C232.482 233.522 229.917 233.846 227.376 234.167C221.663 234.889 216.072 235.596 210.489 236.371C203.64 237.321 196.799 238.333 189.958 239.345C187.281 239.742 184.605 240.138 181.928 240.53C179.661 240.863 177.584 241.648 176.863 244.043C175.982 246.967 175.317 249.967 176.414 253.737C177.411 253.737 178.408 253.731 179.404 253.724C180.524 253.717 181.642 253.71 182.758 253.712C190.802 253.726 198.296 253.403 205.818 253.078C211.749 252.822 217.697 252.565 223.946 252.473C228.222 252.409 232.105 252.499 235.788 252.585C241.697 252.722 247.092 252.847 252.768 252.308C256.38 251.965 257.9 250.055 258.668 247.045C259.114 245.295 259.364 243.469 259.474 241.663C259.747 237.211 259.964 231.668 260.178 226.223C260.355 221.689 260.53 217.222 260.733 213.513C260.854 211.276 260.969 209.039 261.088 206.714C261.14 205.698 261.193 204.666 261.248 203.61C267.531 203.29 273.614 202.979 279.697 202.669C283.699 202.464 287.702 202.26 291.763 202.053C291.763 203.614 291.745 205.096 291.728 206.523C291.692 209.555 291.659 212.341 291.804 215.118C291.882 216.624 291.989 218.812 292.111 221.338C292.475 228.816 292.983 239.254 293.336 243.708C293.383 244.306 293.414 244.907 293.445 245.509C293.516 246.908 293.588 248.307 293.866 249.664C294.382 252.181 295.668 253.776 298.748 253.564C307.084 252.992 315.434 252.564 323.786 252.308C326.96 252.211 328.485 250.606 328.984 247.843C329.465 245.176 329.722 242.453 329.866 239.743C330.45 228.792 330.983 214.013 331.489 199.981C331.829 190.541 332.157 181.439 332.481 174.069C332.662 169.915 332.28 165.71 331.849 161.561C331.425 157.491 330.366 156.67 326.332 156.305C325.26 156.208 324.188 156.12 323.047 156.025Z" fill="black"/></g></g><g id="Hanging Lamp" transform="translate(807 17) scale(1 1)"><g id="Hanging Lamp/Decorated"><path id="Stroke" fill-rule="evenodd" clip-rule="evenodd" d="M351.076 289.948C350.723 283.747 349.918 279.478 347.403 277.205C346.434 276.327 344.846 276.399 344.058 277.444C341.732 280.535 348.029 286.412 351.076 289.948M259.854 238.164C261.325 231.371 262.224 221.967 259.761 215.49C257.208 220.948 257.35 230.505 259.854 238.164M239.74 232.305C237.348 240.74 236.727 248.811 237.406 257.452C240.993 251.807 242.217 238.803 239.74 232.305M299.583 213.604C290.638 213.924 284.115 218.473 278.972 225.431C287.133 223.744 295.632 222.647 299.583 213.604M325.816 299.313C331.55 301.793 340.533 301.975 345.611 299.126C339.081 296.984 333.009 293.394 326.223 294.784C323.967 295.246 323.702 298.399 325.816 299.313M327.227 274.114C322.695 268.431 318.867 265.299 314.162 263.653C312.007 262.899 309.635 262.555 307.342 262.465C305.303 262.384 303.17 263.195 302.79 265.48C302.402 267.814 304.621 268.441 306.276 268.882C312.836 270.628 319.445 272.189 327.227 274.114M192.3 241.191C184.892 241.687 177.741 250.889 176.044 261.612C184.59 257.475 191.834 248.545 192.3 241.191M208.786 260.117C215.572 257.722 222.034 247.699 221.024 241.376C220.995 241.197 220.985 241.015 220.94 240.841C220.471 239.038 219.205 238.407 217.686 239.263C216.307 240.039 215.016 241.157 214.016 242.392C209.85 247.536 208.381 253.511 208.786 260.117M233.968 270.816C238.551 282.7 249.985 290.532 258.916 288.43C259.757 285.864 258.024 284.309 256.478 282.865C250.173 276.974 242.617 273.478 233.968 270.816M290.647 250.29C283.055 245.401 267.374 247.636 257.897 254.716C267.861 259.117 284.427 257.023 290.647 250.29M190.944 266.125C196.808 276.701 211.601 288.255 219.59 288.499C218.579 279.622 202.372 266.963 190.944 266.125M325.937 265.079C324.126 257.39 322.659 249.606 320.548 242.001C319.824 239.388 318.288 236.788 316.483 234.728C314.119 232.033 311.091 232.658 310.024 236.082C309.411 238.05 309.34 240.382 309.71 242.427C311.536 252.52 319.314 258.413 325.937 265.079M154.858 329.858C154.792 330.386 154.726 330.913 154.66 331.441C156.651 332.176 158.588 333.177 160.643 333.594C165.073 334.495 169.539 335.352 174.033 335.774C194.44 337.69 214.878 337.79 235.374 337.279C262.571 336.601 289.686 335.033 316.614 331.256C329.129 329.5 341.475 326.494 353.853 323.852C356.374 323.314 358.7 321.869 361.116 320.842C361.081 320.432 361.049 320.023 361.015 319.613C358.514 318.835 356.059 317.823 353.504 317.318C339.945 314.631 326.196 314.016 312.419 313.821C278.324 313.333 244.281 314.403 210.427 318.588C195.358 320.449 180.422 323.443 165.474 326.195C161.835 326.866 158.392 328.608 154.858 329.858M155.435 324.624C161.721 322.883 167.179 320.812 172.822 319.915C188.926 317.356 205.06 314.848 221.267 313.108C244.171 310.65 267.178 309.483 290.232 309.438C309.28 309.401 328.328 309.251 347.262 311.832C351.135 312.361 354.975 313.122 359.556 313.899C358.275 309.925 357.204 306.601 356.098 303.166C354.62 303.399 353.745 303.6 352.862 303.666C345.466 304.22 338.075 304.982 330.67 305.165C327.884 305.233 324.959 304.214 322.291 303.189C319.498 302.116 317.185 300.17 317.4 296.715C317.614 293.253 320.089 291.489 323.072 291.007C326.408 290.468 329.874 290.453 333.262 290.622C335.547 290.735 337.797 291.562 340.735 292.219C337.923 288.066 335.645 284.382 333.004 280.981C332.14 279.87 331.096 279.204 331.096 279.204C323.888 277.405 314.473 275.459 307.26 273.683C305.346 273.212 303.394 272.553 301.712 271.553C297.566 269.09 296.867 264.243 300.416 261.018C302.042 259.542 304.374 259.032 306.5 258.87C307.622 258.785 308.753 258.803 309.873 258.916C310.324 258.962 313.259 258.924 313.322 259.03C311.815 256.449 309.13 253.113 308.171 251.203C305.682 246.246 303.975 241.102 305.564 235.484C307.574 228.378 314.749 226.501 319.917 231.788C321.279 233.182 322.415 234.95 323.169 236.751C324.354 239.58 325.47 242.522 326.007 245.525C327.611 254.499 330.328 263.109 333.357 271.687C335.458 277.636 339.449 282.144 343.446 288.299C340.382 281.174 336.494 271.202 347.315 273.592C346.912 272.286 344.601 267.086 344.202 265.885C337.753 246.423 331.245 226.981 324.867 207.495C321.595 197.5 318.343 187.488 315.479 177.371C313.427 170.126 313.72 170.042 306.218 170.165C305.674 170.174 305.13 170.199 304.586 170.219C284.33 170.933 264.073 171.601 243.82 172.379C227.514 173.006 211.213 173.762 194.911 174.487C194.422 174.509 193.946 174.83 193.3 175.075C188.17 200.52 177.846 231.564 172.736 257.031C173.928 251.401 177.093 246.553 178.679 244.888C181.154 242.293 183.758 239.703 186.713 237.716C189.738 235.678 193.3 236.133 195.292 238.107C197.741 240.531 197.55 243.516 196.123 246.167C193.991 250.131 191.342 255.598 187.504 258.125C186.576 258.737 185.513 259.204 184.825 260.077C186.438 260.35 203.904 261.482 203.9 261.525C204.123 259.164 204.272 257.018 204.537 254.887C205.443 247.63 207.92 241.131 213.875 236.461C217.104 233.928 220.262 233.78 222.848 235.819C225.256 237.72 225.723 240.353 225.428 243.173C224.761 249.544 221.967 254.951 217.723 259.657C216.681 260.812 214.924 262.813 211.946 263.416C218.85 264.605 227.781 265.077 233.968 265.531C232.87 256.764 232.401 246.732 233.962 238.324C234.718 234.254 235.805 230.16 237.408 226.359C238.748 223.182 242.009 223.407 243.545 226.554C244.244 227.987 244.709 229.657 244.795 231.246C245.041 235.766 245.347 240.321 245.045 244.822C244.722 249.619 243.314 257.031 239.996 262.459C244.721 259.143 250.381 251.735 253.758 247.788C254.68 246.711 257.203 244.76 257.496 243.591C257.496 243.591 255.229 238.491 254.915 236.974C254.217 233.601 254.295 233.425 253.876 230.006C253.23 224.744 253.211 219.482 254.85 214.359C255.533 212.222 256.56 210.131 259.131 209.995C261.974 209.845 263.386 211.972 264.048 214.291C264.786 216.878 265.337 219.611 265.369 222.288C265.417 226.348 264.136 232.37 263.823 237.445C265.53 235.127 267.508 231.621 268.638 230.042C272.998 223.953 277.883 218.379 284.095 214.089C288.198 211.255 292.738 209.52 297.639 208.736C299.911 208.372 301.998 208.817 303.47 210.792C304.98 212.819 304.58 214.958 303.507 216.957C302.744 218.377 301.86 219.861 300.664 220.892C298.621 222.652 296.492 224.608 294.041 225.538C288.996 227.455 283.706 228.717 278.535 230.312C277.159 230.736 273.28 231.15 273.28 231.15C273.28 231.15 270.488 234.223 269.807 235.281C267.072 239.532 263.662 242.381 260.283 247.382C262.919 246.732 267.077 245.338 268.803 245.091C273.626 244.402 278.456 243.532 283.306 243.359C285.91 243.266 288.739 244.063 291.149 245.156C295.904 247.315 296.558 251.88 292.499 255.087C290.147 256.944 287.234 258.368 284.348 259.215C274.742 262.036 266.908 262.258 257.274 259.229C255.929 258.806 253.577 257.281 252.676 257.031C248.433 260.505 243.722 264.711 240.344 267.477C246.077 270.984 252.08 274.343 257.702 278.252C259.97 279.83 261.901 282.374 263.103 284.899C265.174 289.251 262.787 293.047 257.974 293.363C255.504 293.525 252.848 293.26 250.504 292.489C241.438 289.502 235.012 283.344 230.61 274.966C229.616 273.076 228.664 271.164 227.876 269.622C220.888 268.831 210.943 266.95 203.651 266.125C205.165 267.337 209.618 269.206 210.523 269.988C213.397 272.477 216.476 274.781 219.037 277.561C220.965 279.656 222.445 282.262 223.699 284.846C224.732 286.971 225.145 289.465 223.374 291.543C221.446 293.805 218.792 293.731 216.339 292.887C213.619 291.951 210.904 290.784 208.469 289.264C199.74 283.813 192.588 276.655 186.64 268.271C185.828 267.126 185.015 265.982 184.168 264.79C175.338 266.485 169.002 271.086 166.681 279.549C162.656 294.226 159.276 309.078 155.435 324.624M250.043 157.455C249.567 130.224 249.02 31.0494 248.494 3.81926C248.479 3.09881 248.23 2.26545 248.509 1.68489C248.848 0.975438 249.592 0.0601402 250.23 0.00318391C250.876 -0.0547716 251.999 0.689657 252.217 1.32417C252.679 2.66514 252.815 4.158 252.86 5.59589C253.256 18.1173 253.765 102.585 253.924 115.11C254.141 131.992 254.076 148.878 254.146 165.762C254.148 166.108 254.33 166.454 254.529 167.159C255.397 167.276 256.415 167.562 257.421 167.528C273.549 166.989 289.675 166.398 305.803 165.853C307.976 165.78 310.186 165.671 312.321 165.98C315.322 166.415 317.595 167.726 318.583 171.101C323.016 186.236 327.415 201.39 332.269 216.393C343.159 250.052 354.31 283.627 365.36 317.235C366.661 321.195 366.166 323.328 362.123 325.159C357.374 327.309 352.364 329.076 347.296 330.299C330.342 334.391 313.032 336.269 295.716 338.054C270.261 340.677 244.715 341.993 219.154 342C199.964 342.005 180.687 341.823 161.717 338.055C159.069 337.529 156.409 336.801 153.926 335.757C150.328 334.244 149.568 332.868 150.202 328.957C150.838 325.027 151.769 321.135 152.758 317.275C163.604 274.917 174.511 232.576 185.325 190.211C186.44 185.842 187.182 181.364 187.894 176.906C188.74 171.607 190.317 170.211 195.672 170.02C213.418 169.388 231.161 168.679 249.579 167.973C249.769 163.927 250.1 160.688 250.043 157.455Z" fill="black"/></g></g></g></svg>