<svg width="500" height="500" viewBox="0 0 500 500" fill="none" xmlns="http://www.w3.org/2000/svg">
<path d="M0 200C0 105.719 0 58.5786 29.2893 29.2893C58.5786 0 105.719 0 200 0H300C394.281 0 441.421 0 470.711 29.2893C500 58.5786 500 105.719 500 200V300C500 394.281 500 441.421 470.711 470.711C441.421 500 394.281 500 300 500H200C105.719 500 58.5786 500 29.2893 470.711C0 441.421 0 394.281 0 300V200Z" fill="black"/>
<path d="M270.004 272.03C270.004 283.068 261.049 292.013 250 292.013C238.952 292.013 229.997 283.068 229.997 272.03C229.997 260.982 238.952 252.037 250 252.037C261.049 252.037 270.004 260.982 270.004 272.03Z" fill="white"/>
<path d="M319.006 359.202L249.663 171.227H248.305L179.973 359.202M350.232 353.157C351.334 356.088 349.17 359.202 346.035 359.202H319.006H179.973H153.955C150.831 359.202 148.666 356.088 149.769 353.157L228.271 143.708C228.935 141.962 230.599 140.798 232.468 140.798H267.859C269.728 140.798 271.413 141.962 272.066 143.719L350.232 353.157Z" fill="white"/>
</svg>
