<svg width="426" height="100" viewBox="0 0 426 100" fill="none" xmlns="http://www.w3.org/2000/svg">
<g clip-path="url(#clip0_17_67)">
<path d="M272.08 50.717C272.08 55.6107 268.109 59.5764 263.211 59.5764C258.313 59.5764 254.343 55.6107 254.343 50.717C254.343 45.8187 258.313 41.853 263.211 41.853C268.109 41.853 272.08 45.8187 272.08 50.717Z" fill="white"/>
<path d="M75.4986 99.3644L44.7555 16.0262H44.1534L13.8585 99.3644M89.3423 96.6844C89.8312 97.9836 88.8714 99.3644 87.4816 99.3644H75.4986H13.8585H2.32364C0.938365 99.3644 -0.021366 97.9836 0.467554 96.6844L35.2714 3.82585C35.5656 3.05173 36.3035 2.53564 37.132 2.53564H52.8227C53.6511 2.53564 54.3981 3.05173 54.6878 3.83038L89.3423 96.6844Z" fill="white"/>
<path d="M296.091 4.60428V12.2912C296.091 13.4365 295.158 14.3691 294.013 14.3691H247.181C246.031 14.3691 245.098 15.2971 245.098 16.4425V43.8944V55.5832V85.4345C245.098 86.5843 246.031 87.5124 247.181 87.5124H294.013C295.158 87.5124 296.091 88.4404 296.091 89.5903V97.2772C296.091 98.4225 295.158 99.3551 294.013 99.3551H233.527C232.382 99.3551 231.449 98.4225 231.449 97.2772V4.60428C231.449 3.45441 232.382 2.52637 233.527 2.52637H294.013C295.158 2.52637 296.091 3.45441 296.091 4.60428Z" fill="white"/>
<path d="M343.873 3.35029L375.083 45.7188C375.902 46.8324 377.563 46.8189 378.36 45.6916L408.343 3.38198C408.727 2.84326 409.343 2.52637 410 2.52637H422.377C423.49 2.52637 424.4 3.43177 424.4 4.54995V97.327C424.4 98.4497 423.49 99.3551 422.377 99.3551H412.779C411.656 99.3551 410.751 98.4497 410.751 97.327V25.157H410.303L376.744 72.4373L341.614 25.157H341.012V97.327C341.012 98.4497 340.102 99.3551 338.989 99.3551H329.391C328.273 99.3551 327.368 98.4497 327.368 97.327V4.54995C327.368 3.43177 328.273 2.52637 329.391 2.52637H342.239C342.882 2.52637 343.488 2.83421 343.873 3.35029Z" fill="white"/>
<path d="M154.326 2.53076H122.741C121.641 2.53076 120.749 3.42259 120.749 4.52266V97.3766C120.749 98.4722 121.641 99.364 122.741 99.364H132.406C133.506 99.364 134.398 98.4722 134.398 97.3766V16.3654C134.398 15.2653 135.285 14.378 136.385 14.378H152.855C174.725 14.378 185.535 27.8369 185.535 50.7663C185.535 73.8813 175.191 87.5213 152.855 87.5213H146.191C145.091 87.5213 144.199 88.4086 144.199 89.5087V97.3766C144.199 98.4722 145.091 99.364 146.191 99.364H154.041C183.738 99.364 199.465 80.6311 199.465 50.7663C199.465 20.8019 184.168 2.53076 154.326 2.53076Z" fill="white"/>
</g>
<defs>
<clipPath id="clip0_17_67">
<rect width="425.541" height="99.5947" fill="white"/>
</clipPath>
</defs>
</svg>
