<svg width="426" height="175" viewBox="0 0 426 175" fill="none" xmlns="http://www.w3.org/2000/svg">
<g clip-path="url(#clip0_17_73)">
<path d="M272.08 50.717C272.08 55.6107 268.109 59.5764 263.211 59.5764C258.313 59.5764 254.343 55.6107 254.343 50.717C254.343 45.8187 258.313 41.853 263.211 41.853C268.109 41.853 272.08 45.8187 272.08 50.717Z" fill="black"/>
<path d="M75.4986 99.3644L44.7555 16.0262H44.1534L13.8585 99.3644M89.3423 96.6844C89.8312 97.9836 88.8714 99.3644 87.4816 99.3644H75.4986H13.8585H2.32364C0.938365 99.3644 -0.021366 97.9836 0.467554 96.6844L35.2714 3.82585C35.5656 3.05173 36.3035 2.53564 37.132 2.53564H52.8227C53.6511 2.53564 54.3981 3.05173 54.6878 3.83038L89.3423 96.6844Z" fill="black"/>
<path d="M296.091 4.60428V12.2912C296.091 13.4365 295.158 14.3691 294.013 14.3691H247.181C246.031 14.3691 245.098 15.2971 245.098 16.4425V43.8944V55.5832V85.4345C245.098 86.5843 246.031 87.5124 247.181 87.5124H294.013C295.158 87.5124 296.091 88.4404 296.091 89.5903V97.2772C296.091 98.4225 295.158 99.3551 294.013 99.3551H233.527C232.382 99.3551 231.449 98.4225 231.449 97.2772V4.60428C231.449 3.45441 232.382 2.52637 233.527 2.52637H294.013C295.158 2.52637 296.091 3.45441 296.091 4.60428Z" fill="black"/>
<path d="M343.873 3.35029L375.083 45.7188C375.902 46.8324 377.563 46.8189 378.36 45.6916L408.343 3.38198C408.727 2.84326 409.343 2.52637 410 2.52637H422.377C423.49 2.52637 424.4 3.43177 424.4 4.54995V97.327C424.4 98.4497 423.49 99.3551 422.377 99.3551H412.779C411.656 99.3551 410.751 98.4497 410.751 97.327V25.157H410.303L376.744 72.4373L341.614 25.157H341.012V97.327C341.012 98.4497 340.102 99.3551 338.989 99.3551H329.391C328.273 99.3551 327.368 98.4497 327.368 97.327V4.54995C327.368 3.43177 328.273 2.52637 329.391 2.52637H342.239C342.882 2.52637 343.488 2.83421 343.873 3.35029Z" fill="black"/>
<path d="M154.326 2.53076H122.741C121.641 2.53076 120.749 3.42259 120.749 4.52266V97.3766C120.749 98.4722 121.641 99.364 122.741 99.364H132.406C133.506 99.364 134.398 98.4722 134.398 97.3766V16.3654C134.398 15.2653 135.285 14.378 136.385 14.378H152.855C174.725 14.378 185.535 27.8369 185.535 50.7663C185.535 73.8813 175.191 87.5213 152.855 87.5213H146.191C145.091 87.5213 144.199 88.4086 144.199 89.5087V97.3766C144.199 98.4722 145.091 99.364 146.191 99.364H154.041C183.738 99.364 199.465 80.6311 199.465 50.7663C199.465 20.8019 184.168 2.53076 154.326 2.53076Z" fill="black"/>
</g>
<path d="M3.0361 156.619C2.38986 156.034 2.21916 155.522 2.52399 155.083L3.47505 153.711C3.80427 153.236 4.33467 153.272 5.06626 153.821C6.02952 154.54 7.02936 155.132 8.06578 155.595C9.1144 156.059 10.3825 156.29 11.8701 156.29C12.9674 156.29 13.8941 156.126 14.6501 155.796C15.4061 155.467 16.0096 154.998 16.4608 154.388C16.9241 153.766 17.1558 153.016 17.1558 152.138C17.1558 151.504 17.0582 150.919 16.8632 150.383C16.6803 149.834 16.3815 149.377 15.967 149.011C15.5524 148.645 15.1195 148.359 14.6684 148.151C13.9246 147.81 12.8089 147.414 11.3214 146.962C9.84599 146.511 8.55351 146.024 7.44393 145.499C6.34655 144.975 5.46864 144.341 4.81021 143.597C4.16397 142.853 3.73111 142.091 3.51163 141.311C3.30435 140.518 3.20071 139.616 3.20071 138.604C3.20071 137.055 3.65185 135.72 4.55415 134.599C5.45644 133.477 6.55993 132.733 7.8646 132.367C9.18146 132.001 10.5166 131.819 11.8701 131.819C13.4186 131.819 14.7659 132.02 15.9121 132.422C17.0582 132.824 18.0825 133.349 18.9848 133.995C19.6188 134.446 19.7651 134.922 19.4237 135.422L18.4909 136.757C18.2105 137.159 17.6618 137.074 16.8449 136.501C16.223 136.062 15.4609 135.653 14.5586 135.275C13.6685 134.885 12.7845 134.69 11.9066 134.69C10.7849 134.69 9.85208 134.824 9.1083 135.092C8.36452 135.348 7.77924 135.787 7.35248 136.409C6.92572 137.031 6.71234 137.751 6.71234 138.567C6.71234 139.08 6.76111 139.555 6.85866 139.994C6.9562 140.421 7.20616 140.86 7.60854 141.311C8.01091 141.762 8.49864 142.11 9.07172 142.353C9.83989 142.683 11.0287 143.073 12.6382 143.524C14.2599 143.963 15.6743 144.506 16.8814 145.152C18.0032 145.749 18.808 146.377 19.2957 147.036C19.7956 147.682 20.1797 148.389 20.4479 149.157C20.7284 149.913 20.8686 150.767 20.8686 151.718C20.8686 153.449 20.4236 154.894 19.5335 156.052C18.6434 157.211 17.5886 158.016 16.3693 158.467C15.15 158.918 13.6198 159.143 11.7786 159.143C9.57164 159.143 7.74266 158.887 6.29168 158.375C4.84069 157.863 3.7555 157.278 3.0361 156.619ZM82.11 135.513C81.4394 135.513 81.1041 135.239 81.1041 134.69V133.19C81.1041 132.642 81.4394 132.367 82.11 132.367H101.461C102.131 132.367 102.467 132.642 102.467 133.19V134.69C102.467 135.239 102.131 135.513 101.461 135.513H93.5411V157.589C93.5411 158.259 93.2363 158.595 92.6266 158.595H90.944C90.3343 158.595 90.0295 158.259 90.0295 157.589V135.513H82.11ZM164.293 148.59V133.373C164.293 132.703 164.598 132.367 165.208 132.367H166.89C167.5 132.367 167.805 132.703 167.805 133.373V148.042C167.805 151.456 168.286 153.687 169.25 154.736C170.225 155.772 171.81 156.29 174.005 156.29C176.2 156.29 177.779 155.772 178.742 154.736C179.718 153.687 180.205 151.456 180.205 148.042V133.373C180.205 132.703 180.51 132.367 181.12 132.367H182.802C183.412 132.367 183.717 132.703 183.717 133.373V148.59C183.717 152.455 182.827 155.181 181.047 156.766C179.279 158.351 176.931 159.143 174.005 159.143C171.079 159.143 168.725 158.351 166.945 156.766C165.177 155.181 164.293 152.455 164.293 148.59ZM248.909 158.595C248.299 158.595 247.994 158.259 247.994 157.589V133.373C247.994 132.703 248.299 132.367 248.909 132.367H255.658C260.828 132.367 264.419 133.513 266.431 135.806C268.455 138.086 269.467 141.299 269.467 145.444C269.467 149.59 268.455 152.821 266.431 155.138C264.419 157.442 260.828 158.595 255.658 158.595H248.909ZM251.506 155.595H255.493C259.517 155.595 262.224 154.742 263.614 153.035C265.016 151.328 265.717 148.798 265.717 145.444C265.717 142.091 265.016 139.567 263.614 137.872C262.224 136.178 259.517 135.33 255.493 135.33H251.506V155.595ZM333.232 158.595C332.622 158.595 332.318 158.259 332.318 157.589V133.373C332.318 132.703 332.622 132.367 333.232 132.367H334.915C335.524 132.367 335.829 132.703 335.829 133.373V157.589C335.829 158.259 335.524 158.595 334.915 158.595H333.232ZM398.68 145.481C398.68 141.213 399.729 137.872 401.826 135.458C403.935 133.032 406.971 131.819 410.934 131.819C414.897 131.819 417.927 133.032 420.024 135.458C422.134 137.872 423.188 141.213 423.188 145.481C423.188 149.749 422.134 153.096 420.024 155.522C417.927 157.936 414.897 159.143 410.934 159.143C406.971 159.143 403.935 157.936 401.826 155.522C399.729 153.096 398.68 149.749 398.68 145.481ZM402.429 145.481C402.429 148.895 403.131 151.553 404.533 153.455C405.935 155.345 408.069 156.29 410.934 156.29C413.8 156.29 415.933 155.345 417.336 153.455C418.738 151.553 419.439 148.895 419.439 145.481C419.439 142.067 418.738 139.415 417.336 137.525C415.933 135.623 413.8 134.672 410.934 134.672C408.069 134.672 405.935 135.623 404.533 137.525C403.131 139.415 402.429 142.067 402.429 145.481Z" fill="black"/>
<defs>
<clipPath id="clip0_17_73">
<rect width="425.541" height="99.5947" fill="white"/>
</clipPath>
</defs>
</svg>
