<svg width="426" height="100" viewBox="0 0 426 100" fill="none" xmlns="http://www.w3.org/2000/svg">
<g clip-path="url(#clip0_17_61)">
<path d="M272.08 50.9196C272.08 55.8133 268.109 59.779 263.211 59.779C258.313 59.779 254.343 55.8133 254.343 50.9196C254.343 46.0213 258.313 42.0557 263.211 42.0557C268.109 42.0557 272.08 46.0213 272.08 50.9196Z" fill="black"/>
<path d="M75.4986 99.567L44.7555 16.2288H44.1534L13.8585 99.567M89.3423 96.887C89.8312 98.1863 88.8714 99.567 87.4816 99.567H75.4986H13.8585H2.32364C0.938365 99.567 -0.021366 98.1863 0.467554 96.887L35.2714 4.02849C35.5656 3.25436 36.3035 2.73828 37.132 2.73828H52.8227C53.6511 2.73828 54.3981 3.25436 54.6878 4.03301L89.3423 96.887Z" fill="black"/>
<path d="M296.091 4.80691V12.4938C296.091 13.6392 295.158 14.5717 294.013 14.5717H247.181C246.031 14.5717 245.098 15.4998 245.098 16.6451V44.097V55.7858V85.6371C245.098 86.787 246.031 87.715 247.181 87.715H294.013C295.158 87.715 296.091 88.643 296.091 89.7929V97.4798C296.091 98.6252 295.158 99.5577 294.013 99.5577H233.527C232.382 99.5577 231.449 98.6252 231.449 97.4798V4.80691C231.449 3.65705 232.382 2.729 233.527 2.729H294.013C295.158 2.729 296.091 3.65705 296.091 4.80691Z" fill="black"/>
<path d="M343.873 3.55292L375.083 45.9214C375.902 47.0351 377.563 47.0215 378.36 45.8943L408.343 3.58461C408.727 3.0459 409.343 2.729 410 2.729H422.377C423.49 2.729 424.4 3.63441 424.4 4.75259V97.5296C424.4 98.6523 423.49 99.5577 422.377 99.5577H412.779C411.656 99.5577 410.751 98.6523 410.751 97.5296V25.3596H410.303L376.744 72.64L341.614 25.3596H341.012V97.5296C341.012 98.6523 340.102 99.5577 338.989 99.5577H329.391C328.273 99.5577 327.368 98.6523 327.368 97.5296V4.75259C327.368 3.63441 328.273 2.729 329.391 2.729H342.239C342.882 2.729 343.488 3.03684 343.873 3.55292Z" fill="black"/>
<path d="M154.326 2.7334H122.741C121.641 2.7334 120.749 3.62522 120.749 4.72529V97.5793C120.749 98.6748 121.641 99.5666 122.741 99.5666H132.406C133.506 99.5666 134.398 98.6748 134.398 97.5793V16.568C134.398 15.4679 135.285 14.5806 136.385 14.5806H152.855C174.725 14.5806 185.535 28.0395 185.535 50.9689C185.535 74.084 175.191 87.7239 152.855 87.7239H146.191C145.091 87.7239 144.199 88.6112 144.199 89.7113V97.5793C144.199 98.6748 145.091 99.5666 146.191 99.5666H154.041C183.738 99.5666 199.465 80.8338 199.465 50.9689C199.465 21.0045 184.168 2.7334 154.326 2.7334Z" fill="black"/>
</g>
<defs>
<clipPath id="clip0_17_61">
<rect width="425.541" height="99.5947" fill="white" transform="translate(0 0.202637)"/>
</clipPath>
</defs>
</svg>
