<svg width="426" height="100" viewBox="0 0 426 100" fill="none" xmlns="http://www.w3.org/2000/svg">
<g clip-path="url(#clip0_17_11)">
<path d="M272.309 50.9196C272.309 55.8133 268.339 59.779 263.441 59.779C258.542 59.779 254.572 55.8133 254.572 50.9196C254.572 46.0213 258.542 42.0557 263.441 42.0557C268.339 42.0557 272.309 46.0213 272.309 50.9196Z" fill="black"/>
<path d="M75.7281 99.567L44.985 16.2288H44.3829L14.088 99.567M89.5718 96.887C90.0607 98.1863 89.1009 99.567 87.7111 99.567H75.7281H14.088H2.55313C1.16786 99.567 0.208126 98.1863 0.697046 96.887L35.5009 4.02849C35.7951 3.25436 36.533 2.73828 37.3615 2.73828H53.0522C53.8806 2.73828 54.6276 3.25436 54.9173 4.03301L89.5718 96.887Z" fill="black"/>
<path d="M296.32 4.80691V12.4938C296.32 13.6392 295.388 14.5717 294.242 14.5717H247.41C246.26 14.5717 245.328 15.4998 245.328 16.6451V44.097V55.7858V85.6371C245.328 86.787 246.26 87.715 247.41 87.715H294.242C295.388 87.715 296.32 88.643 296.32 89.7929V97.4798C296.32 98.6252 295.388 99.5577 294.242 99.5577H233.757C232.611 99.5577 231.679 98.6252 231.679 97.4798V4.80691C231.679 3.65705 232.611 2.729 233.757 2.729H294.242C295.388 2.729 296.32 3.65705 296.32 4.80691Z" fill="black"/>
<path d="M344.103 3.55292L375.312 45.9214C376.131 47.0351 377.793 47.0215 378.59 45.8943L408.572 3.58461C408.957 3.0459 409.573 2.729 410.229 2.729H422.606C423.72 2.729 424.63 3.63441 424.63 4.75259V97.5296C424.63 98.6523 423.72 99.5577 422.606 99.5577H413.009C411.886 99.5577 410.981 98.6523 410.981 97.5296V25.3596H410.532L376.974 72.64L341.844 25.3596H341.242V97.5296C341.242 98.6523 340.332 99.5577 339.218 99.5577H329.621C328.503 99.5577 327.597 98.6523 327.597 97.5296V4.75259C327.597 3.63441 328.503 2.729 329.621 2.729H342.468C343.111 2.729 343.718 3.03684 344.103 3.55292Z" fill="black"/>
<path d="M154.556 2.7334H122.97C121.87 2.7334 120.979 3.62522 120.979 4.72529V97.5793C120.979 98.6748 121.87 99.5666 122.97 99.5666H132.636C133.736 99.5666 134.628 98.6748 134.628 97.5793V16.568C134.628 15.4679 135.515 14.5806 136.615 14.5806H153.084C174.954 14.5806 185.765 28.0395 185.765 50.9689C185.765 74.084 175.421 87.7239 153.084 87.7239H146.42C145.32 87.7239 144.429 88.6112 144.429 89.7113V97.5793C144.429 98.6748 145.32 99.5666 146.42 99.5666H154.27C183.968 99.5666 199.695 80.8338 199.695 50.9689C199.695 21.0045 184.398 2.7334 154.556 2.7334Z" fill="black"/>
</g>
<defs>
<clipPath id="clip0_17_11">
<rect width="425.541" height="99.5947" fill="white" transform="translate(0.229492 0.202637)"/>
</clipPath>
</defs>
</svg>
